  0
SECTION
  2
HEADER
  9
$ACADVER
  1
AC1018
  9
$HANDSEED
  5
FFFFFFFF
  9
$ANGBASE
  50
0.0
  9
$ANGDIR
  70
1
  9
$MEASUREMENT
  70
0
  9
$INSUNITS
  70
1
  0
ENDSEC
  0
SECTION
  2
TABLES
  0
TABLE
  2
APPID
  5
1
330
0
100
AcDbSymbolTable
 70
1
  0
APPID
  5
2
330
1
100
AcDbSymbolTableRecord
100
AcDbRegAppTableRecord
  2
ACAD
 70
0
  0
ENDTAB
  0
TABLE
  2
LTYPE
  5
3
330
0
100
AcDbSymbolTable
 70
6
  0
LTYPE
  5
4
330
3
100
AcDbSymbolTableRecord
100
AcDbLinetypeTableRecord
  2
ByBlock
 70
0
  3

 72
65
 73
0
 40
0
  0
LTYPE
  5
5
330
3
100
AcDbSymbolTableRecord
100
AcDbLinetypeTableRecord
  2
ByLayer
 70
0
  3

 72
65
 73
0
 40
0
  0
LTYPE
  5
6
330
3
100
AcDbSymbolTableRecord
100
AcDbLinetypeTableRecord
  2
CONTINUOUS
 70
0
  3
Solid line
 72
65
 73
0
 40
0
  0
LTYPE
  5
7
330
3
100
AcDbSymbolTableRecord
100
AcDbLinetypeTableRecord
  2
DASHDOT
 70
0
  3
Dash Dot ____ _ ____ _
 72
65
 73
4
 40
2
 49
1.25
 74
0
 49
-0.25
 74
0
 49
0.25
 74
0
 49
-0.25
 74
0
  0
LTYPE
  5
8
330
3
100
AcDbSymbolTableRecord
100
AcDbLinetypeTableRecord
  2
DASHED
 70
0
  3
Dashed __ __ __ __ __
 72
65
 73
2
 40
0.75
 49
0.5
 74
0
 49
-0.25
 74
0
  0
LTYPE
  5
9
330
3
100
AcDbSymbolTableRecord
100
AcDbLinetypeTableRecord
  2
DOTTED
 70
0
  3
Dotted .  .  .  .
 72
65
 73
2
 40
0.2
 49
0.0
 74
0
 49
-0.2
 74
0
  0
ENDTAB
  0
TABLE
  2
STYLE
  5
A
330
0
100
AcDbSymbolTable
 70
4
  0
STYLE
  5
B
330
A
100
AcDbSymbolTableRecord
100
AcDbTextStyleTableRecord
  2
KICAD
 70
0
 40
0
 41
1
 42
1
 50
0
 71
0
  3
isocp.shx
  0
STYLE
  5
C
330
A
100
AcDbSymbolTableRecord
100
AcDbTextStyleTableRecord
  2
KICADB
 70
0
 40
0
 41
1
 42
1
 50
0
 71
0
  3
isocp.shx
  0
STYLE
  5
D
330
A
100
AcDbSymbolTableRecord
100
AcDbTextStyleTableRecord
  2
KICADI
 70
0
 40
0
 41
1
 42
1
 50
15
 71
0
  3
isocp.shx
  0
STYLE
  5
E
330
A
100
AcDbSymbolTableRecord
100
AcDbTextStyleTableRecord
  2
KICADBI
 70
0
 40
0
 41
1
 42
1
 50
15
 71
0
  3
isocp.shx
  0
ENDTAB
  0
TABLE
  2
LAYER
  5
F
330
0
100
AcDbSymbolTable
 70
2
  0
LAYER
  5
12
330
F
100
AcDbSymbolTableRecord
100
AcDbLayerTableRecord
  2
0
 70
0
 62
7
  6
CONTINUOUS
390
10
  0
LAYER
  5
13
330
F
100
AcDbSymbolTableRecord
100
AcDbLayerTableRecord
  2
BLACK
 70
0
 62
250
  6
CONTINUOUS
390
10
  0
ENDTAB
  0
TABLE
  2
VPORT
  5
14
330
0
100
AcDbSymbolTable
 70
0
  0
ENDTAB
  0
TABLE
  2
VIEW
  5
15
330
0
100
AcDbSymbolTable
 70
0
  0
ENDTAB
  0
TABLE
  2
UCS
  5
16
330
0
100
AcDbSymbolTable
 70
0
  0
ENDTAB
  0
TABLE
  2
DIMSTYLE
  5
17
330
0
100
AcDbSymbolTable
 70
1
100
AcDbDimStyleTable
 71
0
  0
DIMSTYLE
105
18
330
17
100
AcDbSymbolTableRecord
100
AcDbDimStyleTableRecord
  2
Standard
 70
0
  0
ENDTAB
  0
TABLE
  2
BLOCK_RECORD
  5
19
330
0
100
AcDbSymbolTable
 70
3
  0
BLOCK_RECORD
  5
1A
330
19
100
AcDbSymbolTableRecord
100
AcDbBlockTableRecord
  2
*Model_Space
340
1D
 70
0
280
1
281
0
  0
BLOCK_RECORD
  5
1B
330
19
100
AcDbSymbolTableRecord
100
AcDbBlockTableRecord
  2
*Paper_Space
340
1E
 70
0
280
1
281
0
  0
BLOCK_RECORD
  5
1C
330
19
100
AcDbSymbolTableRecord
100
AcDbBlockTableRecord
  2
*Paper_Space0
340
1F
 70
0
280
1
281
0
  0
ENDTAB
  0
ENDSEC
  0
SECTION
  2
BLOCKS
  0
BLOCK
  5
23
330
1A
100
AcDbEntity
  8
0
100
AcDbBlockBegin
  2
*Model_Space
 70
0
 10
0.0
 20
0.0
 30
0.0
  3
*Model_Space
  1

  0
ENDBLK
  5
22
330
1A
100
AcDbEntity
  8
0
100
AcDbBlockEnd
  0
BLOCK
  5
25
330
1B
100
AcDbEntity
 67
1
  8
0
100
AcDbBlockBegin
  2
*Paper_Space
 70
0
 10
0.0
 20
0.0
 30
0.0
  3
*Paper_Space
  1

  0
ENDBLK
  5
24
330
1B
100
AcDbEntity
 67
1
  8
0
100
AcDbBlockEnd
  0
BLOCK
  5
27
330
1C
100
AcDbEntity
 67
1
  8
0
100
AcDbBlockBegin
  2
*Paper_Space0
 70
0
 10
0.0
 20
0.0
 30
0.0
  3
*Paper_Space0
  1

  0
ENDBLK
  5
26
330
1C
100
AcDbEntity
 67
1
  8
0
100
AcDbBlockEnd
  0
ENDSEC
  0
SECTION
  2
ENTITIES
  0
LINE
  5
28
330
1A
100
AcDbEntity
  8
BLACK
  6
CONTINUOUS
100
AcDbLine
 10
1.0232575590551181
 20
0.6884749606299212
 30
0
 11
1.0305662204724408
 21
0.6854475984251969
 31
0
  0
LINE
  5
29
330
1A
100
AcDbEntity
  8
BLACK
  6
CONTINUOUS
100
AcDbLine
 10
1.0305662204724408
 20
0.6854475984251969
 30
0
 11
1.0371438188976378
 21
0.6810525984251968
 31
0
  0
LINE
  5
2A
330
1A
100
AcDbEntity
  8
BLACK
  6
CONTINUOUS
100
AcDbLine
 10
1.0371438188976378
 20
0.6810525984251968
 30
0
 11
1.0427376377952755
 21
0.6754587795275591
 31
0
  0
LINE
  5
2B
330
1A
100
AcDbEntity
  8
BLACK
  6
CONTINUOUS
100
AcDbLine
 10
1.0427376377952755
 20
0.6754587795275591
 30
0
 11
1.0471326377952757
 21
0.6688811811023622
 31
0
  0
LINE
  5
2C
330
1A
100
AcDbEntity
  8
BLACK
  6
CONTINUOUS
100
AcDbLine
 10
1.0471326377952757
 20
0.6688811811023622
 30
0
 11
1.05016
 21
0.6615725196850394
 31
0
  0
LINE
  5
2D
330
1A
100
AcDbEntity
  8
BLACK
  6
CONTINUOUS
100
AcDbLine
 10
1.05016
 20
0.6615725196850394
 30
0
 11
1.0517033070866142
 21
0.6538137007874015
 31
0
  0
LINE
  5
2E
330
1A
100
AcDbEntity
  8
BLACK
  6
CONTINUOUS
100
AcDbLine
 10
1.0517033070866142
 20
0.6538137007874015
 30
0
 11
1.0517033070866142
 21
0.6459028346456692
 31
0
  0
LINE
  5
2F
330
1A
100
AcDbEntity
  8
BLACK
  6
CONTINUOUS
100
AcDbLine
 10
1.0517033070866142
 20
0.6459028346456692
 30
0
 11
1.05016
 21
0.6381440157480315
 31
0
  0
LINE
  5
30
330
1A
100
AcDbEntity
  8
BLACK
  6
CONTINUOUS
100
AcDbLine
 10
1.05016
 20
0.6381440157480315
 30
0
 11
1.0471326377952757
 21
0.6308353543307087
 31
0
  0
LINE
  5
31
330
1A
100
AcDbEntity
  8
BLACK
  6
CONTINUOUS
100
AcDbLine
 10
1.0471326377952757
 20
0.6308353543307087
 30
0
 11
1.0427376377952755
 21
0.6242577559055118
 31
0
  0
LINE
  5
32
330
1A
100
AcDbEntity
  8
BLACK
  6
CONTINUOUS
100
AcDbLine
 10
1.0427376377952755
 20
0.6242577559055118
 30
0
 11
1.0371438188976378
 21
0.618663937007874
 31
0
  0
LINE
  5
33
330
1A
100
AcDbEntity
  8
BLACK
  6
CONTINUOUS
100
AcDbLine
 10
1.0371438188976378
 20
0.618663937007874
 30
0
 11
1.0305662204724408
 21
0.614268937007874
 31
0
  0
LINE
  5
34
330
1A
100
AcDbEntity
  8
BLACK
  6
CONTINUOUS
100
AcDbLine
 10
1.0305662204724408
 20
0.614268937007874
 30
0
 11
1.0232575590551181
 21
0.6112415748031496
 31
0
  0
LINE
  5
35
330
1A
100
AcDbEntity
  8
BLACK
  6
CONTINUOUS
100
AcDbLine
 10
1.0232575590551181
 20
0.6112415748031496
 30
0
 11
1.0154987401574802
 21
0.6096982677165355
 31
0
  0
LINE
  5
36
330
1A
100
AcDbEntity
  8
BLACK
  6
CONTINUOUS
100
AcDbLine
 10
1.0154987401574802
 20
0.6096982677165355
 30
0
 11
1.007587874015748
 21
0.6096982677165355
 31
0
  0
LINE
  5
37
330
1A
100
AcDbEntity
  8
BLACK
  6
CONTINUOUS
100
AcDbLine
 10
1.007587874015748
 20
0.6096982677165355
 30
0
 11
0.9998290551181103
 21
0.6112415748031496
 31
0
  0
LINE
  5
38
330
1A
100
AcDbEntity
  8
BLACK
  6
CONTINUOUS
100
AcDbLine
 10
0.9998290551181103
 20
0.6112415748031496
 30
0
 11
0.9925203937007874
 21
0.614268937007874
 31
0
  0
LINE
  5
39
330
1A
100
AcDbEntity
  8
BLACK
  6
CONTINUOUS
100
AcDbLine
 10
0.9925203937007874
 20
0.614268937007874
 30
0
 11
0.9859427952755905
 21
0.618663937007874
 31
0
  0
LINE
  5
3A
330
1A
100
AcDbEntity
  8
BLACK
  6
CONTINUOUS
100
AcDbLine
 10
0.9859427952755905
 20
0.618663937007874
 30
0
 11
0.9803489763779527
 21
0.6242577559055118
 31
0
  0
LINE
  5
3B
330
1A
100
AcDbEntity
  8
BLACK
  6
CONTINUOUS
100
AcDbLine
 10
0.9803489763779527
 20
0.6242577559055118
 30
0
 11
0.9759539763779528
 21
0.6308353543307087
 31
0
  0
LINE
  5
3C
330
1A
100
AcDbEntity
  8
BLACK
  6
CONTINUOUS
100
AcDbLine
 10
0.9759539763779528
 20
0.6308353543307087
 30
0
 11
0.9729266141732283
 21
0.6381440157480315
 31
0
  0
LINE
  5
3D
330
1A
100
AcDbEntity
  8
BLACK
  6
CONTINUOUS
100
AcDbLine
 10
0.9729266141732283
 20
0.6381440157480315
 30
0
 11
0.9713833070866141
 21
0.6459028346456692
 31
0
  0
LINE
  5
3E
330
1A
100
AcDbEntity
  8
BLACK
  6
CONTINUOUS
100
AcDbLine
 10
0.9713833070866141
 20
0.6459028346456692
 30
0
 11
0.9713833070866141
 21
0.653638937007874
 31
0
  0
LINE
  5
3F
330
1A
100
AcDbEntity
  8
BLACK
  6
CONTINUOUS
100
AcDbLine
 10
0.9713833070866141
 20
0.653638937007874
 30
0
 11
0.9713833070866141
 21
0.6538137007874015
 31
0
  0
LINE
  5
40
330
1A
100
AcDbEntity
  8
BLACK
  6
CONTINUOUS
100
AcDbLine
 10
0.9713833070866141
 20
0.6538137007874015
 30
0
 11
0.9729266141732283
 21
0.6615725196850394
 31
0
  0
LINE
  5
41
330
1A
100
AcDbEntity
  8
BLACK
  6
CONTINUOUS
100
AcDbLine
 10
0.9729266141732283
 20
0.6615725196850394
 30
0
 11
0.9759539763779528
 21
0.6688811811023622
 31
0
  0
LINE
  5
42
330
1A
100
AcDbEntity
  8
BLACK
  6
CONTINUOUS
100
AcDbLine
 10
0.9759539763779528
 20
0.6688811811023622
 30
0
 11
0.9803489763779527
 21
0.6754587795275591
 31
0
  0
LINE
  5
43
330
1A
100
AcDbEntity
  8
BLACK
  6
CONTINUOUS
100
AcDbLine
 10
0.9803489763779527
 20
0.6754587795275591
 30
0
 11
0.9859427952755905
 21
0.6810525984251968
 31
0
  0
LINE
  5
44
330
1A
100
AcDbEntity
  8
BLACK
  6
CONTINUOUS
100
AcDbLine
 10
0.9859427952755905
 20
0.6810525984251968
 30
0
 11
0.9925203937007874
 21
0.6854475984251969
 31
0
  0
LINE
  5
45
330
1A
100
AcDbEntity
  8
BLACK
  6
CONTINUOUS
100
AcDbLine
 10
0.9925203937007874
 20
0.6854475984251969
 30
0
 11
0.9998290551181103
 21
0.6884749606299212
 31
0
  0
LINE
  5
46
330
1A
100
AcDbEntity
  8
BLACK
  6
CONTINUOUS
100
AcDbLine
 10
0.9998290551181103
 20
0.6884749606299212
 30
0
 11
1.007587874015748
 21
0.6900182677165354
 31
0
  0
LINE
  5
47
330
1A
100
AcDbEntity
  8
BLACK
  6
CONTINUOUS
100
AcDbLine
 10
1.007587874015748
 20
0.6900182677165354
 30
0
 11
1.0154987401574802
 21
0.6900182677165354
 31
0
  0
LINE
  5
48
330
1A
100
AcDbEntity
  8
BLACK
  6
CONTINUOUS
100
AcDbLine
 10
1.0154987401574802
 20
0.6900182677165354
 30
0
 11
1.0232575590551181
 21
0.6884749606299212
 31
0
  0
LINE
  5
49
330
1A
100
AcDbEntity
  8
BLACK
  6
CONTINUOUS
100
AcDbLine
 10
0.9731574803149606
 20
0.6460775984251969
 30
0
 11
0.9746325984251968
 21
0.6386615354330708
 31
0
  0
LINE
  5
4A
330
1A
100
AcDbEntity
  8
BLACK
  6
CONTINUOUS
100
AcDbLine
 10
0.9746325984251968
 20
0.6386615354330708
 30
0
 11
0.977526220472441
 21
0.6316757480314961
 31
0
  0
LINE
  5
4B
330
1A
100
AcDbEntity
  8
BLACK
  6
CONTINUOUS
100
AcDbLine
 10
0.977526220472441
 20
0.6316757480314961
 30
0
 11
0.9817270866141732
 21
0.6253887007874016
 31
0
  0
LINE
  5
4C
330
1A
100
AcDbEntity
  8
BLACK
  6
CONTINUOUS
100
AcDbLine
 10
0.9817270866141732
 20
0.6253887007874016
 30
0
 11
0.9870737401574803
 21
0.6200420472440945
 31
0
  0
LINE
  5
4D
330
1A
100
AcDbEntity
  8
BLACK
  6
CONTINUOUS
100
AcDbLine
 10
0.9870737401574803
 20
0.6200420472440945
 30
0
 11
0.9933607874015747
 21
0.6158411811023622
 31
0
  0
LINE
  5
4E
330
1A
100
AcDbEntity
  8
BLACK
  6
CONTINUOUS
100
AcDbLine
 10
0.9933607874015747
 20
0.6158411811023622
 30
0
 11
1.0003465748031495
 21
0.6129475590551181
 31
0
  0
LINE
  5
4F
330
1A
100
AcDbEntity
  8
BLACK
  6
CONTINUOUS
100
AcDbLine
 10
1.0003465748031495
 20
0.6129475590551181
 30
0
 11
1.0077626377952755
 21
0.6114724409448818
 31
0
  0
LINE
  5
50
330
1A
100
AcDbEntity
  8
BLACK
  6
CONTINUOUS
100
AcDbLine
 10
1.0077626377952755
 20
0.6114724409448818
 30
0
 11
1.0153239763779527
 21
0.6114724409448818
 31
0
  0
LINE
  5
51
330
1A
100
AcDbEntity
  8
BLACK
  6
CONTINUOUS
100
AcDbLine
 10
1.0153239763779527
 20
0.6114724409448818
 30
0
 11
1.0227400393700787
 21
0.6129475590551181
 31
0
  0
LINE
  5
52
330
1A
100
AcDbEntity
  8
BLACK
  6
CONTINUOUS
100
AcDbLine
 10
1.0227400393700787
 20
0.6129475590551181
 30
0
 11
1.0297258267716536
 21
0.6158411811023622
 31
0
  0
LINE
  5
53
330
1A
100
AcDbEntity
  8
BLACK
  6
CONTINUOUS
100
AcDbLine
 10
1.0297258267716536
 20
0.6158411811023622
 30
0
 11
1.0360128740157479
 21
0.6200420472440945
 31
0
  0
LINE
  5
54
330
1A
100
AcDbEntity
  8
BLACK
  6
CONTINUOUS
100
AcDbLine
 10
1.0360128740157479
 20
0.6200420472440945
 30
0
 11
1.041359527559055
 21
0.6253887007874016
 31
0
  0
LINE
  5
55
330
1A
100
AcDbEntity
  8
BLACK
  6
CONTINUOUS
100
AcDbLine
 10
1.041359527559055
 20
0.6253887007874016
 30
0
 11
1.0455603937007873
 21
0.6316757480314961
 31
0
  0
LINE
  5
56
330
1A
100
AcDbEntity
  8
BLACK
  6
CONTINUOUS
100
AcDbLine
 10
1.0455603937007873
 20
0.6316757480314961
 30
0
 11
1.0484540157480315
 21
0.6386615354330708
 31
0
  0
LINE
  5
57
330
1A
100
AcDbEntity
  8
BLACK
  6
CONTINUOUS
100
AcDbLine
 10
1.0484540157480315
 20
0.6386615354330708
 30
0
 11
1.0499291338582677
 21
0.6460775984251969
 31
0
  0
LINE
  5
58
330
1A
100
AcDbEntity
  8
BLACK
  6
CONTINUOUS
100
AcDbLine
 10
1.0499291338582677
 20
0.6460775984251969
 30
0
 11
1.0499291338582677
 21
0.653638937007874
 31
0
  0
LINE
  5
59
330
1A
100
AcDbEntity
  8
BLACK
  6
CONTINUOUS
100
AcDbLine
 10
1.0499291338582677
 20
0.653638937007874
 30
0
 11
1.0484540157480315
 21
0.6610549999999999
 31
0
  0
LINE
  5
5A
330
1A
100
AcDbEntity
  8
BLACK
  6
CONTINUOUS
100
AcDbLine
 10
1.0484540157480315
 20
0.6610549999999999
 30
0
 11
1.0455603937007873
 21
0.6680407874015748
 31
0
  0
LINE
  5
5B
330
1A
100
AcDbEntity
  8
BLACK
  6
CONTINUOUS
100
AcDbLine
 10
1.0455603937007873
 20
0.6680407874015748
 30
0
 11
1.041359527559055
 21
0.6743278346456693
 31
0
  0
LINE
  5
5C
330
1A
100
AcDbEntity
  8
BLACK
  6
CONTINUOUS
100
AcDbLine
 10
1.041359527559055
 20
0.6743278346456693
 30
0
 11
1.0360128740157479
 21
0.6796744881889764
 31
0
  0
LINE
  5
5D
330
1A
100
AcDbEntity
  8
BLACK
  6
CONTINUOUS
100
AcDbLine
 10
1.0360128740157479
 20
0.6796744881889764
 30
0
 11
1.0297258267716536
 21
0.6838753543307087
 31
0
  0
LINE
  5
5E
330
1A
100
AcDbEntity
  8
BLACK
  6
CONTINUOUS
100
AcDbLine
 10
1.0297258267716536
 20
0.6838753543307087
 30
0
 11
1.0227400393700787
 21
0.6867689763779528
 31
0
  0
LINE
  5
5F
330
1A
100
AcDbEntity
  8
BLACK
  6
CONTINUOUS
100
AcDbLine
 10
1.0227400393700787
 20
0.6867689763779528
 30
0
 11
1.0153239763779527
 21
0.6882440944881889
 31
0
  0
LINE
  5
60
330
1A
100
AcDbEntity
  8
BLACK
  6
CONTINUOUS
100
AcDbLine
 10
1.0153239763779527
 20
0.6882440944881889
 30
0
 11
1.0077626377952755
 21
0.6882440944881889
 31
0
  0
LINE
  5
61
330
1A
100
AcDbEntity
  8
BLACK
  6
CONTINUOUS
100
AcDbLine
 10
1.0077626377952755
 20
0.6882440944881889
 30
0
 11
1.0003465748031495
 21
0.6867689763779528
 31
0
  0
LINE
  5
62
330
1A
100
AcDbEntity
  8
BLACK
  6
CONTINUOUS
100
AcDbLine
 10
1.0003465748031495
 20
0.6867689763779528
 30
0
 11
0.9933607874015747
 21
0.6838753543307087
 31
0
  0
LINE
  5
63
330
1A
100
AcDbEntity
  8
BLACK
  6
CONTINUOUS
100
AcDbLine
 10
0.9933607874015747
 20
0.6838753543307087
 30
0
 11
0.9870737401574803
 21
0.6796744881889764
 31
0
  0
LINE
  5
64
330
1A
100
AcDbEntity
  8
BLACK
  6
CONTINUOUS
100
AcDbLine
 10
0.9870737401574803
 20
0.6796744881889764
 30
0
 11
0.9817270866141732
 21
0.6743278346456693
 31
0
  0
LINE
  5
65
330
1A
100
AcDbEntity
  8
BLACK
  6
CONTINUOUS
100
AcDbLine
 10
0.9817270866141732
 20
0.6743278346456693
 30
0
 11
0.977526220472441
 21
0.6680407874015748
 31
0
  0
LINE
  5
66
330
1A
100
AcDbEntity
  8
BLACK
  6
CONTINUOUS
100
AcDbLine
 10
0.977526220472441
 20
0.6680407874015748
 30
0
 11
0.9746325984251968
 21
0.6610549999999999
 31
0
  0
LINE
  5
67
330
1A
100
AcDbEntity
  8
BLACK
  6
CONTINUOUS
100
AcDbLine
 10
0.9746325984251968
 20
0.6610549999999999
 30
0
 11
0.9731574803149606
 21
0.653638937007874
 31
0
  0
LINE
  5
68
330
1A
100
AcDbEntity
  8
BLACK
  6
CONTINUOUS
100
AcDbLine
 10
0.9731574803149606
 20
0.653638937007874
 30
0
 11
0.9731574803149606
 21
0.6460775984251969
 31
0
  0
LINE
  5
69
330
1A
100
AcDbEntity
  8
BLACK
  6
CONTINUOUS
100
AcDbLine
 10
1.0132575590551181
 20
0.8364749606299212
 30
0
 11
1.0205662204724408
 21
0.8334475984251968
 31
0
  0
LINE
  5
6A
330
1A
100
AcDbEntity
  8
BLACK
  6
CONTINUOUS
100
AcDbLine
 10
1.0205662204724408
 20
0.8334475984251968
 30
0
 11
1.0271438188976378
 21
0.8290525984251969
 31
0
  0
LINE
  5
6B
330
1A
100
AcDbEntity
  8
BLACK
  6
CONTINUOUS
100
AcDbLine
 10
1.0271438188976378
 20
0.8290525984251969
 30
0
 11
1.0327376377952755
 21
0.8234587795275591
 31
0
  0
LINE
  5
6C
330
1A
100
AcDbEntity
  8
BLACK
  6
CONTINUOUS
100
AcDbLine
 10
1.0327376377952755
 20
0.8234587795275591
 30
0
 11
1.0371326377952756
 21
0.8168811811023622
 31
0
  0
LINE
  5
6D
330
1A
100
AcDbEntity
  8
BLACK
  6
CONTINUOUS
100
AcDbLine
 10
1.0371326377952756
 20
0.8168811811023622
 30
0
 11
1.04016
 21
0.8095725196850394
 31
0
  0
LINE
  5
6E
330
1A
100
AcDbEntity
  8
BLACK
  6
CONTINUOUS
100
AcDbLine
 10
1.04016
 20
0.8095725196850394
 30
0
 11
1.0417033070866142
 21
0.8018137007874016
 31
0
  0
LINE
  5
6F
330
1A
100
AcDbEntity
  8
BLACK
  6
CONTINUOUS
100
AcDbLine
 10
1.0417033070866142
 20
0.8018137007874016
 30
0
 11
1.0417033070866142
 21
0.7939028346456692
 31
0
  0
LINE
  5
70
330
1A
100
AcDbEntity
  8
BLACK
  6
CONTINUOUS
100
AcDbLine
 10
1.0417033070866142
 20
0.7939028346456692
 30
0
 11
1.04016
 21
0.7861440157480315
 31
0
  0
LINE
  5
71
330
1A
100
AcDbEntity
  8
BLACK
  6
CONTINUOUS
100
AcDbLine
 10
1.04016
 20
0.7861440157480315
 30
0
 11
1.0371326377952756
 21
0.7788353543307086
 31
0
  0
LINE
  5
72
330
1A
100
AcDbEntity
  8
BLACK
  6
CONTINUOUS
100
AcDbLine
 10
1.0371326377952756
 20
0.7788353543307086
 30
0
 11
1.0327376377952755
 21
0.7722577559055118
 31
0
  0
LINE
  5
73
330
1A
100
AcDbEntity
  8
BLACK
  6
CONTINUOUS
100
AcDbLine
 10
1.0327376377952755
 20
0.7722577559055118
 30
0
 11
1.0271438188976378
 21
0.7666639370078741
 31
0
  0
LINE
  5
74
330
1A
100
AcDbEntity
  8
BLACK
  6
CONTINUOUS
100
AcDbLine
 10
1.0271438188976378
 20
0.7666639370078741
 30
0
 11
1.0205662204724408
 21
0.762268937007874
 31
0
  0
LINE
  5
75
330
1A
100
AcDbEntity
  8
BLACK
  6
CONTINUOUS
100
AcDbLine
 10
1.0205662204724408
 20
0.762268937007874
 30
0
 11
1.0132575590551181
 21
0.7592415748031496
 31
0
  0
LINE
  5
76
330
1A
100
AcDbEntity
  8
BLACK
  6
CONTINUOUS
100
AcDbLine
 10
1.0132575590551181
 20
0.7592415748031496
 30
0
 11
1.0054987401574802
 21
0.7576982677165354
 31
0
  0
LINE
  5
77
330
1A
100
AcDbEntity
  8
BLACK
  6
CONTINUOUS
100
AcDbLine
 10
1.0054987401574802
 20
0.7576982677165354
 30
0
 11
0.997587874015748
 21
0.7576982677165354
 31
0
  0
LINE
  5
78
330
1A
100
AcDbEntity
  8
BLACK
  6
CONTINUOUS
100
AcDbLine
 10
0.997587874015748
 20
0.7576982677165354
 30
0
 11
0.9898290551181103
 21
0.7592415748031496
 31
0
  0
LINE
  5
79
330
1A
100
AcDbEntity
  8
BLACK
  6
CONTINUOUS
100
AcDbLine
 10
0.9898290551181103
 20
0.7592415748031496
 30
0
 11
0.9825203937007874
 21
0.762268937007874
 31
0
  0
LINE
  5
7A
330
1A
100
AcDbEntity
  8
BLACK
  6
CONTINUOUS
100
AcDbLine
 10
0.9825203937007874
 20
0.762268937007874
 30
0
 11
0.9759427952755906
 21
0.7666639370078741
 31
0
  0
LINE
  5
7B
330
1A
100
AcDbEntity
  8
BLACK
  6
CONTINUOUS
100
AcDbLine
 10
0.9759427952755906
 20
0.7666639370078741
 30
0
 11
0.9703489763779527
 21
0.7722577559055118
 31
0
  0
LINE
  5
7C
330
1A
100
AcDbEntity
  8
BLACK
  6
CONTINUOUS
100
AcDbLine
 10
0.9703489763779527
 20
0.7722577559055118
 30
0
 11
0.9659539763779528
 21
0.7788353543307086
 31
0
  0
LINE
  5
7D
330
1A
100
AcDbEntity
  8
BLACK
  6
CONTINUOUS
100
AcDbLine
 10
0.9659539763779528
 20
0.7788353543307086
 30
0
 11
0.9629266141732283
 21
0.7861440157480315
 31
0
  0
LINE
  5
7E
330
1A
100
AcDbEntity
  8
BLACK
  6
CONTINUOUS
100
AcDbLine
 10
0.9629266141732283
 20
0.7861440157480315
 30
0
 11
0.9613833070866141
 21
0.7939028346456692
 31
0
  0
LINE
  5
7F
330
1A
100
AcDbEntity
  8
BLACK
  6
CONTINUOUS
100
AcDbLine
 10
0.9613833070866141
 20
0.7939028346456692
 30
0
 11
0.9613833070866141
 21
0.801638937007874
 31
0
  0
LINE
  5
80
330
1A
100
AcDbEntity
  8
BLACK
  6
CONTINUOUS
100
AcDbLine
 10
0.9613833070866141
 20
0.801638937007874
 30
0
 11
0.9613833070866141
 21
0.8018137007874016
 31
0
  0
LINE
  5
81
330
1A
100
AcDbEntity
  8
BLACK
  6
CONTINUOUS
100
AcDbLine
 10
0.9613833070866141
 20
0.8018137007874016
 30
0
 11
0.9629266141732283
 21
0.8095725196850394
 31
0
  0
LINE
  5
82
330
1A
100
AcDbEntity
  8
BLACK
  6
CONTINUOUS
100
AcDbLine
 10
0.9629266141732283
 20
0.8095725196850394
 30
0
 11
0.9659539763779528
 21
0.8168811811023622
 31
0
  0
LINE
  5
83
330
1A
100
AcDbEntity
  8
BLACK
  6
CONTINUOUS
100
AcDbLine
 10
0.9659539763779528
 20
0.8168811811023622
 30
0
 11
0.9703489763779527
 21
0.8234587795275591
 31
0
  0
LINE
  5
84
330
1A
100
AcDbEntity
  8
BLACK
  6
CONTINUOUS
100
AcDbLine
 10
0.9703489763779527
 20
0.8234587795275591
 30
0
 11
0.9759427952755906
 21
0.8290525984251969
 31
0
  0
LINE
  5
85
330
1A
100
AcDbEntity
  8
BLACK
  6
CONTINUOUS
100
AcDbLine
 10
0.9759427952755906
 20
0.8290525984251969
 30
0
 11
0.9825203937007874
 21
0.8334475984251968
 31
0
  0
LINE
  5
86
330
1A
100
AcDbEntity
  8
BLACK
  6
CONTINUOUS
100
AcDbLine
 10
0.9825203937007874
 20
0.8334475984251968
 30
0
 11
0.9898290551181103
 21
0.8364749606299212
 31
0
  0
LINE
  5
87
330
1A
100
AcDbEntity
  8
BLACK
  6
CONTINUOUS
100
AcDbLine
 10
0.9898290551181103
 20
0.8364749606299212
 30
0
 11
0.997587874015748
 21
0.8380182677165354
 31
0
  0
LINE
  5
88
330
1A
100
AcDbEntity
  8
BLACK
  6
CONTINUOUS
100
AcDbLine
 10
0.997587874015748
 20
0.8380182677165354
 30
0
 11
1.0054987401574802
 21
0.8380182677165354
 31
0
  0
LINE
  5
89
330
1A
100
AcDbEntity
  8
BLACK
  6
CONTINUOUS
100
AcDbLine
 10
1.0054987401574802
 20
0.8380182677165354
 30
0
 11
1.0132575590551181
 21
0.8364749606299212
 31
0
  0
LINE
  5
8A
330
1A
100
AcDbEntity
  8
BLACK
  6
CONTINUOUS
100
AcDbLine
 10
0.9631574803149606
 20
0.7940775984251969
 30
0
 11
0.9646325984251968
 21
0.7866615354330708
 31
0
  0
LINE
  5
8B
330
1A
100
AcDbEntity
  8
BLACK
  6
CONTINUOUS
100
AcDbLine
 10
0.9646325984251968
 20
0.7866615354330708
 30
0
 11
0.967526220472441
 21
0.7796757480314961
 31
0
  0
LINE
  5
8C
330
1A
100
AcDbEntity
  8
BLACK
  6
CONTINUOUS
100
AcDbLine
 10
0.967526220472441
 20
0.7796757480314961
 30
0
 11
0.9717270866141732
 21
0.7733887007874015
 31
0
  0
LINE
  5
8D
330
1A
100
AcDbEntity
  8
BLACK
  6
CONTINUOUS
100
AcDbLine
 10
0.9717270866141732
 20
0.7733887007874015
 30
0
 11
0.9770737401574803
 21
0.7680420472440944
 31
0
  0
LINE
  5
8E
330
1A
100
AcDbEntity
  8
BLACK
  6
CONTINUOUS
100
AcDbLine
 10
0.9770737401574803
 20
0.7680420472440944
 30
0
 11
0.9833607874015747
 21
0.7638411811023622
 31
0
  0
LINE
  5
8F
330
1A
100
AcDbEntity
  8
BLACK
  6
CONTINUOUS
100
AcDbLine
 10
0.9833607874015747
 20
0.7638411811023622
 30
0
 11
0.9903465748031496
 21
0.7609475590551181
 31
0
  0
LINE
  5
90
330
1A
100
AcDbEntity
  8
BLACK
  6
CONTINUOUS
100
AcDbLine
 10
0.9903465748031496
 20
0.7609475590551181
 30
0
 11
0.9977626377952755
 21
0.7594724409448819
 31
0
  0
LINE
  5
91
330
1A
100
AcDbEntity
  8
BLACK
  6
CONTINUOUS
100
AcDbLine
 10
0.9977626377952755
 20
0.7594724409448819
 30
0
 11
1.0053239763779527
 21
0.7594724409448819
 31
0
  0
LINE
  5
92
330
1A
100
AcDbEntity
  8
BLACK
  6
CONTINUOUS
100
AcDbLine
 10
1.0053239763779527
 20
0.7594724409448819
 30
0
 11
1.0127400393700787
 21
0.7609475590551181
 31
0
  0
LINE
  5
93
330
1A
100
AcDbEntity
  8
BLACK
  6
CONTINUOUS
100
AcDbLine
 10
1.0127400393700787
 20
0.7609475590551181
 30
0
 11
1.0197258267716536
 21
0.7638411811023622
 31
0
  0
LINE
  5
94
330
1A
100
AcDbEntity
  8
BLACK
  6
CONTINUOUS
100
AcDbLine
 10
1.0197258267716536
 20
0.7638411811023622
 30
0
 11
1.0260128740157479
 21
0.7680420472440944
 31
0
  0
LINE
  5
95
330
1A
100
AcDbEntity
  8
BLACK
  6
CONTINUOUS
100
AcDbLine
 10
1.0260128740157479
 20
0.7680420472440944
 30
0
 11
1.031359527559055
 21
0.7733887007874015
 31
0
  0
LINE
  5
96
330
1A
100
AcDbEntity
  8
BLACK
  6
CONTINUOUS
100
AcDbLine
 10
1.031359527559055
 20
0.7733887007874015
 30
0
 11
1.0355603937007873
 21
0.7796757480314961
 31
0
  0
LINE
  5
97
330
1A
100
AcDbEntity
  8
BLACK
  6
CONTINUOUS
100
AcDbLine
 10
1.0355603937007873
 20
0.7796757480314961
 30
0
 11
1.0384540157480315
 21
0.7866615354330708
 31
0
  0
LINE
  5
98
330
1A
100
AcDbEntity
  8
BLACK
  6
CONTINUOUS
100
AcDbLine
 10
1.0384540157480315
 20
0.7866615354330708
 30
0
 11
1.0399291338582677
 21
0.7940775984251969
 31
0
  0
LINE
  5
99
330
1A
100
AcDbEntity
  8
BLACK
  6
CONTINUOUS
100
AcDbLine
 10
1.0399291338582677
 20
0.7940775984251969
 30
0
 11
1.0399291338582677
 21
0.801638937007874
 31
0
  0
LINE
  5
9A
330
1A
100
AcDbEntity
  8
BLACK
  6
CONTINUOUS
100
AcDbLine
 10
1.0399291338582677
 20
0.801638937007874
 30
0
 11
1.0384540157480315
 21
0.809055
 31
0
  0
LINE
  5
9B
330
1A
100
AcDbEntity
  8
BLACK
  6
CONTINUOUS
100
AcDbLine
 10
1.0384540157480315
 20
0.809055
 30
0
 11
1.0355603937007873
 21
0.8160407874015748
 31
0
  0
LINE
  5
9C
330
1A
100
AcDbEntity
  8
BLACK
  6
CONTINUOUS
100
AcDbLine
 10
1.0355603937007873
 20
0.8160407874015748
 30
0
 11
1.031359527559055
 21
0.8223278346456693
 31
0
  0
LINE
  5
9D
330
1A
100
AcDbEntity
  8
BLACK
  6
CONTINUOUS
100
AcDbLine
 10
1.031359527559055
 20
0.8223278346456693
 30
0
 11
1.0260128740157479
 21
0.8276744881889764
 31
0
  0
LINE
  5
9E
330
1A
100
AcDbEntity
  8
BLACK
  6
CONTINUOUS
100
AcDbLine
 10
1.0260128740157479
 20
0.8276744881889764
 30
0
 11
1.0197258267716536
 21
0.8318753543307087
 31
0
  0
LINE
  5
9F
330
1A
100
AcDbEntity
  8
BLACK
  6
CONTINUOUS
100
AcDbLine
 10
1.0197258267716536
 20
0.8318753543307087
 30
0
 11
1.0127400393700787
 21
0.8347689763779528
 31
0
  0
LINE
  5
A0
330
1A
100
AcDbEntity
  8
BLACK
  6
CONTINUOUS
100
AcDbLine
 10
1.0127400393700787
 20
0.8347689763779528
 30
0
 11
1.0053239763779527
 21
0.8362440944881889
 31
0
  0
LINE
  5
A1
330
1A
100
AcDbEntity
  8
BLACK
  6
CONTINUOUS
100
AcDbLine
 10
1.0053239763779527
 20
0.8362440944881889
 30
0
 11
0.9977626377952755
 21
0.8362440944881889
 31
0
  0
LINE
  5
A2
330
1A
100
AcDbEntity
  8
BLACK
  6
CONTINUOUS
100
AcDbLine
 10
0.9977626377952755
 20
0.8362440944881889
 30
0
 11
0.9903465748031496
 21
0.8347689763779528
 31
0
  0
LINE
  5
A3
330
1A
100
AcDbEntity
  8
BLACK
  6
CONTINUOUS
100
AcDbLine
 10
0.9903465748031496
 20
0.8347689763779528
 30
0
 11
0.9833607874015747
 21
0.8318753543307087
 31
0
  0
LINE
  5
A4
330
1A
100
AcDbEntity
  8
BLACK
  6
CONTINUOUS
100
AcDbLine
 10
0.9833607874015747
 20
0.8318753543307087
 30
0
 11
0.9770737401574803
 21
0.8276744881889764
 31
0
  0
LINE
  5
A5
330
1A
100
AcDbEntity
  8
BLACK
  6
CONTINUOUS
100
AcDbLine
 10
0.9770737401574803
 20
0.8276744881889764
 30
0
 11
0.9717270866141732
 21
0.8223278346456693
 31
0
  0
LINE
  5
A6
330
1A
100
AcDbEntity
  8
BLACK
  6
CONTINUOUS
100
AcDbLine
 10
0.9717270866141732
 20
0.8223278346456693
 30
0
 11
0.967526220472441
 21
0.8160407874015748
 31
0
  0
LINE
  5
A7
330
1A
100
AcDbEntity
  8
BLACK
  6
CONTINUOUS
100
AcDbLine
 10
0.967526220472441
 20
0.8160407874015748
 30
0
 11
0.9646325984251968
 21
0.809055
 31
0
  0
LINE
  5
A8
330
1A
100
AcDbEntity
  8
BLACK
  6
CONTINUOUS
100
AcDbLine
 10
0.9646325984251968
 20
0.809055
 30
0
 11
0.9631574803149606
 21
0.801638937007874
 31
0
  0
LINE
  5
A9
330
1A
100
AcDbEntity
  8
BLACK
  6
CONTINUOUS
100
AcDbLine
 10
0.9631574803149606
 20
0.801638937007874
 30
0
 11
0.9631574803149606
 21
0.7940775984251969
 31
0
  0
LINE
  5
AA
330
1A
100
AcDbEntity
  8
BLACK
  6
CONTINUOUS
100
AcDbLine
 10
1.0132575590551181
 20
0.9284749606299212
 30
0
 11
1.0205662204724408
 21
0.9254475984251969
 31
0
  0
LINE
  5
AB
330
1A
100
AcDbEntity
  8
BLACK
  6
CONTINUOUS
100
AcDbLine
 10
1.0205662204724408
 20
0.9254475984251969
 30
0
 11
1.0271438188976378
 21
0.9210525984251968
 31
0
  0
LINE
  5
AC
330
1A
100
AcDbEntity
  8
BLACK
  6
CONTINUOUS
100
AcDbLine
 10
1.0271438188976378
 20
0.9210525984251968
 30
0
 11
1.0327376377952755
 21
0.9154587795275591
 31
0
  0
LINE
  5
AD
330
1A
100
AcDbEntity
  8
BLACK
  6
CONTINUOUS
100
AcDbLine
 10
1.0327376377952755
 20
0.9154587795275591
 30
0
 11
1.0371326377952756
 21
0.9088811811023622
 31
0
  0
LINE
  5
AE
330
1A
100
AcDbEntity
  8
BLACK
  6
CONTINUOUS
100
AcDbLine
 10
1.0371326377952756
 20
0.9088811811023622
 30
0
 11
1.04016
 21
0.9015725196850394
 31
0
  0
LINE
  5
AF
330
1A
100
AcDbEntity
  8
BLACK
  6
CONTINUOUS
100
AcDbLine
 10
1.04016
 20
0.9015725196850394
 30
0
 11
1.0417033070866142
 21
0.8938137007874015
 31
0
  0
LINE
  5
B0
330
1A
100
AcDbEntity
  8
BLACK
  6
CONTINUOUS
100
AcDbLine
 10
1.0417033070866142
 20
0.8938137007874015
 30
0
 11
1.0417033070866142
 21
0.8859028346456693
 31
0
  0
LINE
  5
B1
330
1A
100
AcDbEntity
  8
BLACK
  6
CONTINUOUS
100
AcDbLine
 10
1.0417033070866142
 20
0.8859028346456693
 30
0
 11
1.04016
 21
0.8781440157480315
 31
0
  0
LINE
  5
B2
330
1A
100
AcDbEntity
  8
BLACK
  6
CONTINUOUS
100
AcDbLine
 10
1.04016
 20
0.8781440157480315
 30
0
 11
1.0371326377952756
 21
0.8708353543307087
 31
0
  0
LINE
  5
B3
330
1A
100
AcDbEntity
  8
BLACK
  6
CONTINUOUS
100
AcDbLine
 10
1.0371326377952756
 20
0.8708353543307087
 30
0
 11
1.0327376377952755
 21
0.8642577559055118
 31
0
  0
LINE
  5
B4
330
1A
100
AcDbEntity
  8
BLACK
  6
CONTINUOUS
100
AcDbLine
 10
1.0327376377952755
 20
0.8642577559055118
 30
0
 11
1.0271438188976378
 21
0.858663937007874
 31
0
  0
LINE
  5
B5
330
1A
100
AcDbEntity
  8
BLACK
  6
CONTINUOUS
100
AcDbLine
 10
1.0271438188976378
 20
0.858663937007874
 30
0
 11
1.0205662204724408
 21
0.854268937007874
 31
0
  0
LINE
  5
B6
330
1A
100
AcDbEntity
  8
BLACK
  6
CONTINUOUS
100
AcDbLine
 10
1.0205662204724408
 20
0.854268937007874
 30
0
 11
1.0132575590551181
 21
0.8512415748031495
 31
0
  0
LINE
  5
B7
330
1A
100
AcDbEntity
  8
BLACK
  6
CONTINUOUS
100
AcDbLine
 10
1.0132575590551181
 20
0.8512415748031495
 30
0
 11
1.0054987401574802
 21
0.8496982677165354
 31
0
  0
LINE
  5
B8
330
1A
100
AcDbEntity
  8
BLACK
  6
CONTINUOUS
100
AcDbLine
 10
1.0054987401574802
 20
0.8496982677165354
 30
0
 11
0.997587874015748
 21
0.8496982677165354
 31
0
  0
LINE
  5
B9
330
1A
100
AcDbEntity
  8
BLACK
  6
CONTINUOUS
100
AcDbLine
 10
0.997587874015748
 20
0.8496982677165354
 30
0
 11
0.9898290551181103
 21
0.8512415748031495
 31
0
  0
LINE
  5
BA
330
1A
100
AcDbEntity
  8
BLACK
  6
CONTINUOUS
100
AcDbLine
 10
0.9898290551181103
 20
0.8512415748031495
 30
0
 11
0.9825203937007874
 21
0.854268937007874
 31
0
  0
LINE
  5
BB
330
1A
100
AcDbEntity
  8
BLACK
  6
CONTINUOUS
100
AcDbLine
 10
0.9825203937007874
 20
0.854268937007874
 30
0
 11
0.9759427952755906
 21
0.858663937007874
 31
0
  0
LINE
  5
BC
330
1A
100
AcDbEntity
  8
BLACK
  6
CONTINUOUS
100
AcDbLine
 10
0.9759427952755906
 20
0.858663937007874
 30
0
 11
0.9703489763779527
 21
0.8642577559055118
 31
0
  0
LINE
  5
BD
330
1A
100
AcDbEntity
  8
BLACK
  6
CONTINUOUS
100
AcDbLine
 10
0.9703489763779527
 20
0.8642577559055118
 30
0
 11
0.9659539763779528
 21
0.8708353543307087
 31
0
  0
LINE
  5
BE
330
1A
100
AcDbEntity
  8
BLACK
  6
CONTINUOUS
100
AcDbLine
 10
0.9659539763779528
 20
0.8708353543307087
 30
0
 11
0.9629266141732283
 21
0.8781440157480315
 31
0
  0
LINE
  5
BF
330
1A
100
AcDbEntity
  8
BLACK
  6
CONTINUOUS
100
AcDbLine
 10
0.9629266141732283
 20
0.8781440157480315
 30
0
 11
0.9613833070866141
 21
0.8859028346456693
 31
0
  0
LINE
  5
C0
330
1A
100
AcDbEntity
  8
BLACK
  6
CONTINUOUS
100
AcDbLine
 10
0.9613833070866141
 20
0.8859028346456693
 30
0
 11
0.9613833070866141
 21
0.893638937007874
 31
0
  0
LINE
  5
C1
330
1A
100
AcDbEntity
  8
BLACK
  6
CONTINUOUS
100
AcDbLine
 10
0.9613833070866141
 20
0.893638937007874
 30
0
 11
0.9613833070866141
 21
0.8938137007874015
 31
0
  0
LINE
  5
C2
330
1A
100
AcDbEntity
  8
BLACK
  6
CONTINUOUS
100
AcDbLine
 10
0.9613833070866141
 20
0.8938137007874015
 30
0
 11
0.9629266141732283
 21
0.9015725196850394
 31
0
  0
LINE
  5
C3
330
1A
100
AcDbEntity
  8
BLACK
  6
CONTINUOUS
100
AcDbLine
 10
0.9629266141732283
 20
0.9015725196850394
 30
0
 11
0.9659539763779528
 21
0.9088811811023622
 31
0
  0
LINE
  5
C4
330
1A
100
AcDbEntity
  8
BLACK
  6
CONTINUOUS
100
AcDbLine
 10
0.9659539763779528
 20
0.9088811811023622
 30
0
 11
0.9703489763779527
 21
0.9154587795275591
 31
0
  0
LINE
  5
C5
330
1A
100
AcDbEntity
  8
BLACK
  6
CONTINUOUS
100
AcDbLine
 10
0.9703489763779527
 20
0.9154587795275591
 30
0
 11
0.9759427952755906
 21
0.9210525984251968
 31
0
  0
LINE
  5
C6
330
1A
100
AcDbEntity
  8
BLACK
  6
CONTINUOUS
100
AcDbLine
 10
0.9759427952755906
 20
0.9210525984251968
 30
0
 11
0.9825203937007874
 21
0.9254475984251969
 31
0
  0
LINE
  5
C7
330
1A
100
AcDbEntity
  8
BLACK
  6
CONTINUOUS
100
AcDbLine
 10
0.9825203937007874
 20
0.9254475984251969
 30
0
 11
0.9898290551181103
 21
0.9284749606299212
 31
0
  0
LINE
  5
C8
330
1A
100
AcDbEntity
  8
BLACK
  6
CONTINUOUS
100
AcDbLine
 10
0.9898290551181103
 20
0.9284749606299212
 30
0
 11
0.997587874015748
 21
0.9300182677165354
 31
0
  0
LINE
  5
C9
330
1A
100
AcDbEntity
  8
BLACK
  6
CONTINUOUS
100
AcDbLine
 10
0.997587874015748
 20
0.9300182677165354
 30
0
 11
1.0054987401574802
 21
0.9300182677165354
 31
0
  0
LINE
  5
CA
330
1A
100
AcDbEntity
  8
BLACK
  6
CONTINUOUS
100
AcDbLine
 10
1.0054987401574802
 20
0.9300182677165354
 30
0
 11
1.0132575590551181
 21
0.9284749606299212
 31
0
  0
LINE
  5
CB
330
1A
100
AcDbEntity
  8
BLACK
  6
CONTINUOUS
100
AcDbLine
 10
0.9631574803149606
 20
0.8860775984251968
 30
0
 11
0.9646325984251968
 21
0.8786615354330708
 31
0
  0
LINE
  5
CC
330
1A
100
AcDbEntity
  8
BLACK
  6
CONTINUOUS
100
AcDbLine
 10
0.9646325984251968
 20
0.8786615354330708
 30
0
 11
0.967526220472441
 21
0.8716757480314961
 31
0
  0
LINE
  5
CD
330
1A
100
AcDbEntity
  8
BLACK
  6
CONTINUOUS
100
AcDbLine
 10
0.967526220472441
 20
0.8716757480314961
 30
0
 11
0.9717270866141732
 21
0.8653887007874016
 31
0
  0
LINE
  5
CE
330
1A
100
AcDbEntity
  8
BLACK
  6
CONTINUOUS
100
AcDbLine
 10
0.9717270866141732
 20
0.8653887007874016
 30
0
 11
0.9770737401574803
 21
0.8600420472440945
 31
0
  0
LINE
  5
CF
330
1A
100
AcDbEntity
  8
BLACK
  6
CONTINUOUS
100
AcDbLine
 10
0.9770737401574803
 20
0.8600420472440945
 30
0
 11
0.9833607874015747
 21
0.8558411811023622
 31
0
  0
LINE
  5
D0
330
1A
100
AcDbEntity
  8
BLACK
  6
CONTINUOUS
100
AcDbLine
 10
0.9833607874015747
 20
0.8558411811023622
 30
0
 11
0.9903465748031496
 21
0.8529475590551181
 31
0
  0
LINE
  5
D1
330
1A
100
AcDbEntity
  8
BLACK
  6
CONTINUOUS
100
AcDbLine
 10
0.9903465748031496
 20
0.8529475590551181
 30
0
 11
0.9977626377952755
 21
0.8514724409448818
 31
0
  0
LINE
  5
D2
330
1A
100
AcDbEntity
  8
BLACK
  6
CONTINUOUS
100
AcDbLine
 10
0.9977626377952755
 20
0.8514724409448818
 30
0
 11
1.0053239763779527
 21
0.8514724409448818
 31
0
  0
LINE
  5
D3
330
1A
100
AcDbEntity
  8
BLACK
  6
CONTINUOUS
100
AcDbLine
 10
1.0053239763779527
 20
0.8514724409448818
 30
0
 11
1.0127400393700787
 21
0.8529475590551181
 31
0
  0
LINE
  5
D4
330
1A
100
AcDbEntity
  8
BLACK
  6
CONTINUOUS
100
AcDbLine
 10
1.0127400393700787
 20
0.8529475590551181
 30
0
 11
1.0197258267716536
 21
0.8558411811023622
 31
0
  0
LINE
  5
D5
330
1A
100
AcDbEntity
  8
BLACK
  6
CONTINUOUS
100
AcDbLine
 10
1.0197258267716536
 20
0.8558411811023622
 30
0
 11
1.0260128740157479
 21
0.8600420472440945
 31
0
  0
LINE
  5
D6
330
1A
100
AcDbEntity
  8
BLACK
  6
CONTINUOUS
100
AcDbLine
 10
1.0260128740157479
 20
0.8600420472440945
 30
0
 11
1.031359527559055
 21
0.8653887007874016
 31
0
  0
LINE
  5
D7
330
1A
100
AcDbEntity
  8
BLACK
  6
CONTINUOUS
100
AcDbLine
 10
1.031359527559055
 20
0.8653887007874016
 30
0
 11
1.0355603937007873
 21
0.8716757480314961
 31
0
  0
LINE
  5
D8
330
1A
100
AcDbEntity
  8
BLACK
  6
CONTINUOUS
100
AcDbLine
 10
1.0355603937007873
 20
0.8716757480314961
 30
0
 11
1.0384540157480315
 21
0.8786615354330708
 31
0
  0
LINE
  5
D9
330
1A
100
AcDbEntity
  8
BLACK
  6
CONTINUOUS
100
AcDbLine
 10
1.0384540157480315
 20
0.8786615354330708
 30
0
 11
1.0399291338582677
 21
0.8860775984251968
 31
0
  0
LINE
  5
DA
330
1A
100
AcDbEntity
  8
BLACK
  6
CONTINUOUS
100
AcDbLine
 10
1.0399291338582677
 20
0.8860775984251968
 30
0
 11
1.0399291338582677
 21
0.893638937007874
 31
0
  0
LINE
  5
DB
330
1A
100
AcDbEntity
  8
BLACK
  6
CONTINUOUS
100
AcDbLine
 10
1.0399291338582677
 20
0.893638937007874
 30
0
 11
1.0384540157480315
 21
0.9010549999999999
 31
0
  0
LINE
  5
DC
330
1A
100
AcDbEntity
  8
BLACK
  6
CONTINUOUS
100
AcDbLine
 10
1.0384540157480315
 20
0.9010549999999999
 30
0
 11
1.0355603937007873
 21
0.9080407874015748
 31
0
  0
LINE
  5
DD
330
1A
100
AcDbEntity
  8
BLACK
  6
CONTINUOUS
100
AcDbLine
 10
1.0355603937007873
 20
0.9080407874015748
 30
0
 11
1.031359527559055
 21
0.9143278346456692
 31
0
  0
LINE
  5
DE
330
1A
100
AcDbEntity
  8
BLACK
  6
CONTINUOUS
100
AcDbLine
 10
1.031359527559055
 20
0.9143278346456692
 30
0
 11
1.0260128740157479
 21
0.9196744881889763
 31
0
  0
LINE
  5
DF
330
1A
100
AcDbEntity
  8
BLACK
  6
CONTINUOUS
100
AcDbLine
 10
1.0260128740157479
 20
0.9196744881889763
 30
0
 11
1.0197258267716536
 21
0.9238753543307087
 31
0
  0
LINE
  5
E0
330
1A
100
AcDbEntity
  8
BLACK
  6
CONTINUOUS
100
AcDbLine
 10
1.0197258267716536
 20
0.9238753543307087
 30
0
 11
1.0127400393700787
 21
0.9267689763779527
 31
0
  0
LINE
  5
E1
330
1A
100
AcDbEntity
  8
BLACK
  6
CONTINUOUS
100
AcDbLine
 10
1.0127400393700787
 20
0.9267689763779527
 30
0
 11
1.0053239763779527
 21
0.928244094488189
 31
0
  0
LINE
  5
E2
330
1A
100
AcDbEntity
  8
BLACK
  6
CONTINUOUS
100
AcDbLine
 10
1.0053239763779527
 20
0.928244094488189
 30
0
 11
0.9977626377952755
 21
0.928244094488189
 31
0
  0
LINE
  5
E3
330
1A
100
AcDbEntity
  8
BLACK
  6
CONTINUOUS
100
AcDbLine
 10
0.9977626377952755
 20
0.928244094488189
 30
0
 11
0.9903465748031496
 21
0.9267689763779527
 31
0
  0
LINE
  5
E4
330
1A
100
AcDbEntity
  8
BLACK
  6
CONTINUOUS
100
AcDbLine
 10
0.9903465748031496
 20
0.9267689763779527
 30
0
 11
0.9833607874015747
 21
0.9238753543307087
 31
0
  0
LINE
  5
E5
330
1A
100
AcDbEntity
  8
BLACK
  6
CONTINUOUS
100
AcDbLine
 10
0.9833607874015747
 20
0.9238753543307087
 30
0
 11
0.9770737401574803
 21
0.9196744881889763
 31
0
  0
LINE
  5
E6
330
1A
100
AcDbEntity
  8
BLACK
  6
CONTINUOUS
100
AcDbLine
 10
0.9770737401574803
 20
0.9196744881889763
 30
0
 11
0.9717270866141732
 21
0.9143278346456692
 31
0
  0
LINE
  5
E7
330
1A
100
AcDbEntity
  8
BLACK
  6
CONTINUOUS
100
AcDbLine
 10
0.9717270866141732
 20
0.9143278346456692
 30
0
 11
0.967526220472441
 21
0.9080407874015748
 31
0
  0
LINE
  5
E8
330
1A
100
AcDbEntity
  8
BLACK
  6
CONTINUOUS
100
AcDbLine
 10
0.967526220472441
 20
0.9080407874015748
 30
0
 11
0.9646325984251968
 21
0.9010549999999999
 31
0
  0
LINE
  5
E9
330
1A
100
AcDbEntity
  8
BLACK
  6
CONTINUOUS
100
AcDbLine
 10
0.9646325984251968
 20
0.9010549999999999
 30
0
 11
0.9631574803149606
 21
0.893638937007874
 31
0
  0
LINE
  5
EA
330
1A
100
AcDbEntity
  8
BLACK
  6
CONTINUOUS
100
AcDbLine
 10
0.9631574803149606
 20
0.893638937007874
 30
0
 11
0.9631574803149606
 21
0.8860775984251968
 31
0
  0
CIRCLE
  5
EB
330
1A
100
AcDbEntity
  8
BLACK
100
AcDbCircle
 10
0.4
 20
2.
 30
0
 40
0.0068897637795276
  0
CIRCLE
  5
EC
330
1A
100
AcDbEntity
  8
BLACK
100
AcDbCircle
 10
2.7999999999999998
 20
2.
 30
0
 40
0.0068897637795276
  0
CIRCLE
  5
ED
330
1A
100
AcDbEntity
  8
BLACK
100
AcDbCircle
 10
0.4
 20
0.4
 30
0
 40
0.0068897637795276
  0
CIRCLE
  5
EE
330
1A
100
AcDbEntity
  8
BLACK
100
AcDbCircle
 10
2.7999999999999998
 20
0.4
 30
0
 40
0.0068897637795276
  0
CIRCLE
  5
EF
330
1A
100
AcDbEntity
  8
BLACK
100
AcDbCircle
 10
2.3395433070866143
 20
0.9159999999999999
 30
0
 40
0.0068897637795276
  0
CIRCLE
  5
F0
330
1A
100
AcDbEntity
  8
BLACK
100
AcDbCircle
 10
2.3395433070866143
 20
1.1128503937007874
 30
0
 40
0.0068897637795276
  0
CIRCLE
  5
F1
330
1A
100
AcDbEntity
  8
BLACK
100
AcDbCircle
 10
0.9
 20
2.1000000000000001
 30
0
 40
0.0068897637795276
  0
CIRCLE
  5
F2
330
1A
100
AcDbEntity
  8
BLACK
100
AcDbCircle
 10
0.9
 20
2.
 30
0
 40
0.0068897637795276
  0
CIRCLE
  5
F3
330
1A
100
AcDbEntity
  8
BLACK
100
AcDbCircle
 10
1.
 20
2.1000000000000001
 30
0
 40
0.0068897637795276
  0
CIRCLE
  5
F4
330
1A
100
AcDbEntity
  8
BLACK
100
AcDbCircle
 10
1.
 20
2.
 30
0
 40
0.0068897637795276
  0
CIRCLE
  5
F5
330
1A
100
AcDbEntity
  8
BLACK
100
AcDbCircle
 10
1.0999999999999999
 20
2.1000000000000001
 30
0
 40
0.0068897637795276
  0
CIRCLE
  5
F6
330
1A
100
AcDbEntity
  8
BLACK
100
AcDbCircle
 10
1.0999999999999999
 20
2.
 30
0
 40
0.0068897637795276
  0
CIRCLE
  5
F7
330
1A
100
AcDbEntity
  8
BLACK
100
AcDbCircle
 10
1.2
 20
2.1000000000000001
 30
0
 40
0.0068897637795276
  0
CIRCLE
  5
F8
330
1A
100
AcDbEntity
  8
BLACK
100
AcDbCircle
 10
1.2
 20
2.
 30
0
 40
0.0068897637795276
  0
CIRCLE
  5
F9
330
1A
100
AcDbEntity
  8
BLACK
100
AcDbCircle
 10
1.3
 20
2.1000000000000001
 30
0
 40
0.0068897637795276
  0
CIRCLE
  5
FA
330
1A
100
AcDbEntity
  8
BLACK
100
AcDbCircle
 10
1.3
 20
2.
 30
0
 40
0.0068897637795276
  0
CIRCLE
  5
FB
330
1A
100
AcDbEntity
  8
BLACK
100
AcDbCircle
 10
1.3999999999999999
 20
2.1000000000000001
 30
0
 40
0.0068897637795276
  0
CIRCLE
  5
FC
330
1A
100
AcDbEntity
  8
BLACK
100
AcDbCircle
 10
1.3999999999999999
 20
2.
 30
0
 40
0.0068897637795276
  0
CIRCLE
  5
FD
330
1A
100
AcDbEntity
  8
BLACK
100
AcDbCircle
 10
1.5
 20
2.1000000000000001
 30
0
 40
0.0068897637795276
  0
CIRCLE
  5
FE
330
1A
100
AcDbEntity
  8
BLACK
100
AcDbCircle
 10
1.5
 20
2.
 30
0
 40
0.0068897637795276
  0
CIRCLE
  5
FF
330
1A
100
AcDbEntity
  8
BLACK
100
AcDbCircle
 10
1.5999999999999999
 20
2.1000000000000001
 30
0
 40
0.0068897637795276
  0
CIRCLE
  5
100
330
1A
100
AcDbEntity
  8
BLACK
100
AcDbCircle
 10
1.5999999999999999
 20
2.
 30
0
 40
0.0068897637795276
  0
CIRCLE
  5
101
330
1A
100
AcDbEntity
  8
BLACK
100
AcDbCircle
 10
1.7
 20
2.1000000000000001
 30
0
 40
0.0068897637795276
  0
CIRCLE
  5
102
330
1A
100
AcDbEntity
  8
BLACK
100
AcDbCircle
 10
1.7
 20
2.
 30
0
 40
0.0068897637795276
  0
CIRCLE
  5
103
330
1A
100
AcDbEntity
  8
BLACK
100
AcDbCircle
 10
1.8
 20
2.1000000000000001
 30
0
 40
0.0068897637795276
  0
CIRCLE
  5
104
330
1A
100
AcDbEntity
  8
BLACK
100
AcDbCircle
 10
1.8
 20
2.
 30
0
 40
0.0068897637795276
  0
CIRCLE
  5
105
330
1A
100
AcDbEntity
  8
BLACK
100
AcDbCircle
 10
1.8999999999999999
 20
2.1000000000000001
 30
0
 40
0.0068897637795276
  0
CIRCLE
  5
106
330
1A
100
AcDbEntity
  8
BLACK
100
AcDbCircle
 10
1.8999999999999999
 20
2.
 30
0
 40
0.0068897637795276
  0
CIRCLE
  5
107
330
1A
100
AcDbEntity
  8
BLACK
100
AcDbCircle
 10
2.
 20
2.1000000000000001
 30
0
 40
0.0068897637795276
  0
CIRCLE
  5
108
330
1A
100
AcDbEntity
  8
BLACK
100
AcDbCircle
 10
2.
 20
2.
 30
0
 40
0.0068897637795276
  0
CIRCLE
  5
109
330
1A
100
AcDbEntity
  8
BLACK
100
AcDbCircle
 10
2.1000000000000001
 20
2.1000000000000001
 30
0
 40
0.0068897637795276
  0
CIRCLE
  5
10A
330
1A
100
AcDbEntity
  8
BLACK
100
AcDbCircle
 10
2.1000000000000001
 20
2.
 30
0
 40
0.0068897637795276
  0
CIRCLE
  5
10B
330
1A
100
AcDbEntity
  8
BLACK
100
AcDbCircle
 10
2.1999999999999997
 20
2.1000000000000001
 30
0
 40
0.0068897637795276
  0
CIRCLE
  5
10C
330
1A
100
AcDbEntity
  8
BLACK
100
AcDbCircle
 10
2.1999999999999997
 20
2.
 30
0
 40
0.0068897637795276
  0
CIRCLE
  5
10D
330
1A
100
AcDbEntity
  8
BLACK
100
AcDbCircle
 10
2.2999999999999998
 20
2.1000000000000001
 30
0
 40
0.0068897637795276
  0
CIRCLE
  5
10E
330
1A
100
AcDbEntity
  8
BLACK
100
AcDbCircle
 10
2.2999999999999998
 20
2.
 30
0
 40
0.0068897637795276
  0
CIRCLE
  5
10F
330
1A
100
AcDbEntity
  8
BLACK
100
AcDbCircle
 10
0.4
 20
2.
 30
0
 40
0.0068897637795276
  0
CIRCLE
  5
110
330
1A
100
AcDbEntity
  8
BLACK
100
AcDbCircle
 10
2.7999999999999998
 20
2.
 30
0
 40
0.0068897637795276
  0
CIRCLE
  5
111
330
1A
100
AcDbEntity
  8
BLACK
100
AcDbCircle
 10
0.4
 20
0.4
 30
0
 40
0.0068897637795276
  0
CIRCLE
  5
112
330
1A
100
AcDbEntity
  8
BLACK
100
AcDbCircle
 10
2.7999999999999998
 20
0.4
 30
0
 40
0.0068897637795276
  0
CIRCLE
  5
113
330
1A
100
AcDbEntity
  8
BLACK
100
AcDbCircle
 10
2.3395433070866143
 20
0.9159999999999999
 30
0
 40
0.0068897637795276
  0
CIRCLE
  5
114
330
1A
100
AcDbEntity
  8
BLACK
100
AcDbCircle
 10
2.3395433070866143
 20
1.1128503937007874
 30
0
 40
0.0068897637795276
  0
CIRCLE
  5
115
330
1A
100
AcDbEntity
  8
BLACK
100
AcDbCircle
 10
0.9
 20
2.1000000000000001
 30
0
 40
0.0068897637795276
  0
CIRCLE
  5
116
330
1A
100
AcDbEntity
  8
BLACK
100
AcDbCircle
 10
0.9
 20
2.
 30
0
 40
0.0068897637795276
  0
CIRCLE
  5
117
330
1A
100
AcDbEntity
  8
BLACK
100
AcDbCircle
 10
1.
 20
2.1000000000000001
 30
0
 40
0.0068897637795276
  0
CIRCLE
  5
118
330
1A
100
AcDbEntity
  8
BLACK
100
AcDbCircle
 10
1.
 20
2.
 30
0
 40
0.0068897637795276
  0
CIRCLE
  5
119
330
1A
100
AcDbEntity
  8
BLACK
100
AcDbCircle
 10
1.0999999999999999
 20
2.1000000000000001
 30
0
 40
0.0068897637795276
  0
CIRCLE
  5
11A
330
1A
100
AcDbEntity
  8
BLACK
100
AcDbCircle
 10
1.0999999999999999
 20
2.
 30
0
 40
0.0068897637795276
  0
CIRCLE
  5
11B
330
1A
100
AcDbEntity
  8
BLACK
100
AcDbCircle
 10
1.2
 20
2.1000000000000001
 30
0
 40
0.0068897637795276
  0
CIRCLE
  5
11C
330
1A
100
AcDbEntity
  8
BLACK
100
AcDbCircle
 10
1.2
 20
2.
 30
0
 40
0.0068897637795276
  0
CIRCLE
  5
11D
330
1A
100
AcDbEntity
  8
BLACK
100
AcDbCircle
 10
1.3
 20
2.1000000000000001
 30
0
 40
0.0068897637795276
  0
CIRCLE
  5
11E
330
1A
100
AcDbEntity
  8
BLACK
100
AcDbCircle
 10
1.3
 20
2.
 30
0
 40
0.0068897637795276
  0
CIRCLE
  5
11F
330
1A
100
AcDbEntity
  8
BLACK
100
AcDbCircle
 10
1.3999999999999999
 20
2.1000000000000001
 30
0
 40
0.0068897637795276
  0
CIRCLE
  5
120
330
1A
100
AcDbEntity
  8
BLACK
100
AcDbCircle
 10
1.3999999999999999
 20
2.
 30
0
 40
0.0068897637795276
  0
CIRCLE
  5
121
330
1A
100
AcDbEntity
  8
BLACK
100
AcDbCircle
 10
1.5
 20
2.1000000000000001
 30
0
 40
0.0068897637795276
  0
CIRCLE
  5
122
330
1A
100
AcDbEntity
  8
BLACK
100
AcDbCircle
 10
1.5
 20
2.
 30
0
 40
0.0068897637795276
  0
CIRCLE
  5
123
330
1A
100
AcDbEntity
  8
BLACK
100
AcDbCircle
 10
1.5999999999999999
 20
2.1000000000000001
 30
0
 40
0.0068897637795276
  0
CIRCLE
  5
124
330
1A
100
AcDbEntity
  8
BLACK
100
AcDbCircle
 10
1.5999999999999999
 20
2.
 30
0
 40
0.0068897637795276
  0
CIRCLE
  5
125
330
1A
100
AcDbEntity
  8
BLACK
100
AcDbCircle
 10
1.7
 20
2.1000000000000001
 30
0
 40
0.0068897637795276
  0
CIRCLE
  5
126
330
1A
100
AcDbEntity
  8
BLACK
100
AcDbCircle
 10
1.7
 20
2.
 30
0
 40
0.0068897637795276
  0
CIRCLE
  5
127
330
1A
100
AcDbEntity
  8
BLACK
100
AcDbCircle
 10
1.8
 20
2.1000000000000001
 30
0
 40
0.0068897637795276
  0
CIRCLE
  5
128
330
1A
100
AcDbEntity
  8
BLACK
100
AcDbCircle
 10
1.8
 20
2.
 30
0
 40
0.0068897637795276
  0
CIRCLE
  5
129
330
1A
100
AcDbEntity
  8
BLACK
100
AcDbCircle
 10
1.8999999999999999
 20
2.1000000000000001
 30
0
 40
0.0068897637795276
  0
CIRCLE
  5
12A
330
1A
100
AcDbEntity
  8
BLACK
100
AcDbCircle
 10
1.8999999999999999
 20
2.
 30
0
 40
0.0068897637795276
  0
CIRCLE
  5
12B
330
1A
100
AcDbEntity
  8
BLACK
100
AcDbCircle
 10
2.
 20
2.1000000000000001
 30
0
 40
0.0068897637795276
  0
CIRCLE
  5
12C
330
1A
100
AcDbEntity
  8
BLACK
100
AcDbCircle
 10
2.
 20
2.
 30
0
 40
0.0068897637795276
  0
CIRCLE
  5
12D
330
1A
100
AcDbEntity
  8
BLACK
100
AcDbCircle
 10
2.1000000000000001
 20
2.1000000000000001
 30
0
 40
0.0068897637795276
  0
CIRCLE
  5
12E
330
1A
100
AcDbEntity
  8
BLACK
100
AcDbCircle
 10
2.1000000000000001
 20
2.
 30
0
 40
0.0068897637795276
  0
CIRCLE
  5
12F
330
1A
100
AcDbEntity
  8
BLACK
100
AcDbCircle
 10
2.1999999999999997
 20
2.1000000000000001
 30
0
 40
0.0068897637795276
  0
CIRCLE
  5
130
330
1A
100
AcDbEntity
  8
BLACK
100
AcDbCircle
 10
2.1999999999999997
 20
2.
 30
0
 40
0.0068897637795276
  0
CIRCLE
  5
131
330
1A
100
AcDbEntity
  8
BLACK
100
AcDbCircle
 10
2.2999999999999998
 20
2.1000000000000001
 30
0
 40
0.0068897637795276
  0
CIRCLE
  5
132
330
1A
100
AcDbEntity
  8
BLACK
100
AcDbCircle
 10
2.2999999999999998
 20
2.
 30
0
 40
0.0068897637795276
  0
ENDSEC
  0
SECTION
  2
OBJECTS
  0
DICTIONARY
  5
20
330
0
100
AcDbDictionary
281
1
  3
ACAD_GROUP
350
133
  3
ACAD_LAYOUT
350
21
  3
ACAD_PLOTSTYLENAME
350
11
  0
DICTIONARY
  5
133
330
20
100
AcDbDictionary
281
1
  0
ACDBDICTIONARYWDFLT
  5
11
330
20
100
AcDbDictionary
281
1
  3
Normal
350
10
100
AcDbDictionaryWithDefault
340
10
  0
ACDBPLACEHOLDER
  5
10
330
11
  0
DICTIONARY
  5
21
330
20
100
AcDbDictionary
281
1
  3
Model
350
1D
  3
Layout1
350
1E
  3
Layout2
350
1F
  0
LAYOUT
  5
1D
330
21
100
AcDbPlotSettings
  1

  2
none_device
  4
A3
  6

 40
0.0
 41
0.0
 42
0.0
 43
0.0
 44
420.0
 45
297.0
 46
0.0
 47
0.0
 48
0.0
 49
0.0
140
0.0
141
0.0
142
1.0
143
1.0
 70
1024
 72
1
 73
0
 74
5
  7

 75
16
 76
0
 77
2
 78
300
147
1.0
148
0.0
149
0.0
100
AcDbLayout
  1
Model
 70
1
 71
0
 10
0.0
 20
0.0
 11
420.0
 21
297.0
 12
0.0
 22
0.0
 32
0.0
 14
1e+20
 24
1e+20
 34
1e+20
 15
-1e+20
 25
-1e+20
 35
-1e+20
146
0.0
 13
0.0
 23
0.0
 33
0.0
 16
1.0
 26
0.0
 36
0.0
 17
0.0
 27
1.0
 37
0.0
 76
0
330
1A
  0
LAYOUT
  5
1E
330
21
100
AcDbPlotSettings
  1

  2
none_device
  4
A3
  6

 40
0.0
 41
0.0
 42
0.0
 43
0.0
 44
420.0
 45
297.0
 46
0.0
 47
0.0
 48
0.0
 49
0.0
140
0.0
141
0.0
142
1.0
143
1.0
 70
0
 72
1
 73
0
 74
5
  7

 75
16
 76
0
 77
2
 78
300
147
1.0
148
0.0
149
0.0
100
AcDbLayout
  1
Layout1
 70
1
 71
1
 10
0.0
 20
0.0
 11
420.0
 21
297.0
 12
0.0
 22
0.0
 32
0.0
 14
1e+20
 24
1e+20
 34
1e+20
 15
-1e+20
 25
-1e+20
 35
-1e+20
146
0.0
 13
0.0
 23
0.0
 33
0.0
 16
1.0
 26
0.0
 36
0.0
 17
0.0
 27
1.0
 37
0.0
 76
0
330
1B
  0
LAYOUT
  5
1F
330
21
100
AcDbPlotSettings
  1

  2
none_device
  4
A3
  6

 40
0.0
 41
0.0
 42
0.0
 43
0.0
 44
420.0
 45
297.0
 46
0.0
 47
0.0
 48
0.0
 49
0.0
140
0.0
141
0.0
142
1.0
143
1.0
 70
0
 72
1
 73
0
 74
5
  7

 75
16
 76
0
 77
2
 78
300
147
1.0
148
0.0
149
0.0
100
AcDbLayout
  1
Layout2
 70
1
 71
2
 10
0.0
 20
0.0
 11
420.0
 21
297.0
 12
0.0
 22
0.0
 32
0.0
 14
1e+20
 24
1e+20
 34
1e+20
 15
-1e+20
 25
-1e+20
 35
-1e+20
146
0.0
 13
0.0
 23
0.0
 33
0.0
 16
1.0
 26
0.0
 36
0.0
 17
0.0
 27
1.0
 37
0.0
 76
0
330
1C
  0
ENDSEC
  0
EOF
