  0
SECTION
  2
HEADER
  9
$ANGBASE
  50
0.0
  9
$ANGDIR
  70
1
  9
$MEASUREMENT
  70
0
  0
ENDSEC
  0
SECTION
  2
TABLES
  0
TABLE
  2
LTYPE
  70
4
  0
LTYPE
  5
40F
  2
CONTINUOUS
  70
0
  3
Solid line
  72
65
  73
0
  40
0.0
  0
LTYPE
  5
410
  2
DASHDOT
 70
0
  3
Dash Dot ____ _ ____ _
 72
65
 73
4
 40
2.0
 49
1.25
 49
-0.25
 49
0.25
 49
-0.25
  0
LTYPE
  5
411
  2
DASHED
 70
0
  3
Dashed __ __ __ __ __
 72
65
 73
2
 40
0.75
 49
0.5
 49
-0.25
  0
LTYPE
  5
43B
  2
DOTTED
 70
0
  3
Dotted .  .  .  .
 72
65
 73
2
 40
0.2
 49
0.0
 49
-0.2
  0
ENDTAB
  0
TABLE
  2
STYLE
  70
4
  0
STYLE
  2
KICAD
  70
0
  40
0
  41
1
  42
1
  50
0
  71
0
  3
isocp.shx
  0
STYLE
  2
KICADB
  70
0
  40
0
  41
1
  42
1
  50
0
  71
0
  3
isocp.shx
  0
STYLE
  2
KICADI
  70
0
  40
0
  41
1
  42
1
  50
15
  71
0
  3
isocp.shx
  0
STYLE
  2
KICADBI
  70
0
  40
0
  41
1
  42
1
  50
15
  71
0
  3
isocp.shx
  0
ENDTAB
  0
TABLE
  2
LAYER
  70
1
  0
LAYER
  2
BLACK
  70
0
  62
7
  6
CONTINUOUS
  0
ENDTAB
  0
ENDSEC
  0
SECTION
  2
ENTITIES
0
LINE
8
BLACK
6
CONTINUOUS
10
1.0232575590551181
20
0.6884749606299212
11
1.0305662204724408
21
0.6854475984251969
0
LINE
8
BLACK
6
CONTINUOUS
10
1.0305662204724408
20
0.6854475984251969
11
1.0371438188976378
21
0.6810525984251968
0
LINE
8
BLACK
6
CONTINUOUS
10
1.0371438188976378
20
0.6810525984251968
11
1.0427376377952755
21
0.6754587795275591
0
LINE
8
BLACK
6
CONTINUOUS
10
1.0427376377952755
20
0.6754587795275591
11
1.0471326377952757
21
0.6688811811023622
0
LINE
8
BLACK
6
CONTINUOUS
10
1.0471326377952757
20
0.6688811811023622
11
1.05016
21
0.6615725196850394
0
LINE
8
BLACK
6
CONTINUOUS
10
1.05016
20
0.6615725196850394
11
1.0517033070866142
21
0.6538137007874015
0
LINE
8
BLACK
6
CONTINUOUS
10
1.0517033070866142
20
0.6538137007874015
11
1.0517033070866142
21
0.6459028346456692
0
LINE
8
BLACK
6
CONTINUOUS
10
1.0517033070866142
20
0.6459028346456692
11
1.05016
21
0.6381440157480315
0
LINE
8
BLACK
6
CONTINUOUS
10
1.05016
20
0.6381440157480315
11
1.0471326377952757
21
0.6308353543307087
0
LINE
8
BLACK
6
CONTINUOUS
10
1.0471326377952757
20
0.6308353543307087
11
1.0427376377952755
21
0.6242577559055118
0
LINE
8
BLACK
6
CONTINUOUS
10
1.0427376377952755
20
0.6242577559055118
11
1.0371438188976378
21
0.618663937007874
0
LINE
8
BLACK
6
CONTINUOUS
10
1.0371438188976378
20
0.618663937007874
11
1.0305662204724408
21
0.614268937007874
0
LINE
8
BLACK
6
CONTINUOUS
10
1.0305662204724408
20
0.614268937007874
11
1.0232575590551181
21
0.6112415748031496
0
LINE
8
BLACK
6
CONTINUOUS
10
1.0232575590551181
20
0.6112415748031496
11
1.0154987401574802
21
0.6096982677165355
0
LINE
8
BLACK
6
CONTINUOUS
10
1.0154987401574802
20
0.6096982677165355
11
1.007587874015748
21
0.6096982677165355
0
LINE
8
BLACK
6
CONTINUOUS
10
1.007587874015748
20
0.6096982677165355
11
0.9998290551181103
21
0.6112415748031496
0
LINE
8
BLACK
6
CONTINUOUS
10
0.9998290551181103
20
0.6112415748031496
11
0.9925203937007874
21
0.614268937007874
0
LINE
8
BLACK
6
CONTINUOUS
10
0.9925203937007874
20
0.614268937007874
11
0.9859427952755905
21
0.618663937007874
0
LINE
8
BLACK
6
CONTINUOUS
10
0.9859427952755905
20
0.618663937007874
11
0.9803489763779527
21
0.6242577559055118
0
LINE
8
BLACK
6
CONTINUOUS
10
0.9803489763779527
20
0.6242577559055118
11
0.9759539763779528
21
0.6308353543307087
0
LINE
8
BLACK
6
CONTINUOUS
10
0.9759539763779528
20
0.6308353543307087
11
0.9729266141732283
21
0.6381440157480315
0
LINE
8
BLACK
6
CONTINUOUS
10
0.9729266141732283
20
0.6381440157480315
11
0.9713833070866141
21
0.6459028346456692
0
LINE
8
BLACK
6
CONTINUOUS
10
0.9713833070866141
20
0.6459028346456692
11
0.9713833070866141
21
0.653638937007874
0
LINE
8
BLACK
6
CONTINUOUS
10
0.9713833070866141
20
0.653638937007874
11
0.9713833070866141
21
0.6538137007874015
0
LINE
8
BLACK
6
CONTINUOUS
10
0.9713833070866141
20
0.6538137007874015
11
0.9729266141732283
21
0.6615725196850394
0
LINE
8
BLACK
6
CONTINUOUS
10
0.9729266141732283
20
0.6615725196850394
11
0.9759539763779528
21
0.6688811811023622
0
LINE
8
BLACK
6
CONTINUOUS
10
0.9759539763779528
20
0.6688811811023622
11
0.9803489763779527
21
0.6754587795275591
0
LINE
8
BLACK
6
CONTINUOUS
10
0.9803489763779527
20
0.6754587795275591
11
0.9859427952755905
21
0.6810525984251968
0
LINE
8
BLACK
6
CONTINUOUS
10
0.9859427952755905
20
0.6810525984251968
11
0.9925203937007874
21
0.6854475984251969
0
LINE
8
BLACK
6
CONTINUOUS
10
0.9925203937007874
20
0.6854475984251969
11
0.9998290551181103
21
0.6884749606299212
0
LINE
8
BLACK
6
CONTINUOUS
10
0.9998290551181103
20
0.6884749606299212
11
1.007587874015748
21
0.6900182677165354
0
LINE
8
BLACK
6
CONTINUOUS
10
1.007587874015748
20
0.6900182677165354
11
1.0154987401574802
21
0.6900182677165354
0
LINE
8
BLACK
6
CONTINUOUS
10
1.0154987401574802
20
0.6900182677165354
11
1.0232575590551181
21
0.6884749606299212
0
LINE
8
BLACK
6
CONTINUOUS
10
0.9731574803149606
20
0.6460775984251969
11
0.9746325984251968
21
0.6386615354330708
0
LINE
8
BLACK
6
CONTINUOUS
10
0.9746325984251968
20
0.6386615354330708
11
0.977526220472441
21
0.6316757480314961
0
LINE
8
BLACK
6
CONTINUOUS
10
0.977526220472441
20
0.6316757480314961
11
0.9817270866141732
21
0.6253887007874016
0
LINE
8
BLACK
6
CONTINUOUS
10
0.9817270866141732
20
0.6253887007874016
11
0.9870737401574803
21
0.6200420472440945
0
LINE
8
BLACK
6
CONTINUOUS
10
0.9870737401574803
20
0.6200420472440945
11
0.9933607874015747
21
0.6158411811023622
0
LINE
8
BLACK
6
CONTINUOUS
10
0.9933607874015747
20
0.6158411811023622
11
1.0003465748031495
21
0.6129475590551181
0
LINE
8
BLACK
6
CONTINUOUS
10
1.0003465748031495
20
0.6129475590551181
11
1.0077626377952755
21
0.6114724409448818
0
LINE
8
BLACK
6
CONTINUOUS
10
1.0077626377952755
20
0.6114724409448818
11
1.0153239763779527
21
0.6114724409448818
0
LINE
8
BLACK
6
CONTINUOUS
10
1.0153239763779527
20
0.6114724409448818
11
1.0227400393700787
21
0.6129475590551181
0
LINE
8
BLACK
6
CONTINUOUS
10
1.0227400393700787
20
0.6129475590551181
11
1.0297258267716536
21
0.6158411811023622
0
LINE
8
BLACK
6
CONTINUOUS
10
1.0297258267716536
20
0.6158411811023622
11
1.0360128740157479
21
0.6200420472440945
0
LINE
8
BLACK
6
CONTINUOUS
10
1.0360128740157479
20
0.6200420472440945
11
1.041359527559055
21
0.6253887007874016
0
LINE
8
BLACK
6
CONTINUOUS
10
1.041359527559055
20
0.6253887007874016
11
1.0455603937007873
21
0.6316757480314961
0
LINE
8
BLACK
6
CONTINUOUS
10
1.0455603937007873
20
0.6316757480314961
11
1.0484540157480315
21
0.6386615354330708
0
LINE
8
BLACK
6
CONTINUOUS
10
1.0484540157480315
20
0.6386615354330708
11
1.0499291338582677
21
0.6460775984251969
0
LINE
8
BLACK
6
CONTINUOUS
10
1.0499291338582677
20
0.6460775984251969
11
1.0499291338582677
21
0.653638937007874
0
LINE
8
BLACK
6
CONTINUOUS
10
1.0499291338582677
20
0.653638937007874
11
1.0484540157480315
21
0.6610549999999999
0
LINE
8
BLACK
6
CONTINUOUS
10
1.0484540157480315
20
0.6610549999999999
11
1.0455603937007873
21
0.6680407874015748
0
LINE
8
BLACK
6
CONTINUOUS
10
1.0455603937007873
20
0.6680407874015748
11
1.041359527559055
21
0.6743278346456693
0
LINE
8
BLACK
6
CONTINUOUS
10
1.041359527559055
20
0.6743278346456693
11
1.0360128740157479
21
0.6796744881889764
0
LINE
8
BLACK
6
CONTINUOUS
10
1.0360128740157479
20
0.6796744881889764
11
1.0297258267716536
21
0.6838753543307087
0
LINE
8
BLACK
6
CONTINUOUS
10
1.0297258267716536
20
0.6838753543307087
11
1.0227400393700787
21
0.6867689763779528
0
LINE
8
BLACK
6
CONTINUOUS
10
1.0227400393700787
20
0.6867689763779528
11
1.0153239763779527
21
0.6882440944881889
0
LINE
8
BLACK
6
CONTINUOUS
10
1.0153239763779527
20
0.6882440944881889
11
1.0077626377952755
21
0.6882440944881889
0
LINE
8
BLACK
6
CONTINUOUS
10
1.0077626377952755
20
0.6882440944881889
11
1.0003465748031495
21
0.6867689763779528
0
LINE
8
BLACK
6
CONTINUOUS
10
1.0003465748031495
20
0.6867689763779528
11
0.9933607874015747
21
0.6838753543307087
0
LINE
8
BLACK
6
CONTINUOUS
10
0.9933607874015747
20
0.6838753543307087
11
0.9870737401574803
21
0.6796744881889764
0
LINE
8
BLACK
6
CONTINUOUS
10
0.9870737401574803
20
0.6796744881889764
11
0.9817270866141732
21
0.6743278346456693
0
LINE
8
BLACK
6
CONTINUOUS
10
0.9817270866141732
20
0.6743278346456693
11
0.977526220472441
21
0.6680407874015748
0
LINE
8
BLACK
6
CONTINUOUS
10
0.977526220472441
20
0.6680407874015748
11
0.9746325984251968
21
0.6610549999999999
0
LINE
8
BLACK
6
CONTINUOUS
10
0.9746325984251968
20
0.6610549999999999
11
0.9731574803149606
21
0.653638937007874
0
LINE
8
BLACK
6
CONTINUOUS
10
0.9731574803149606
20
0.653638937007874
11
0.9731574803149606
21
0.6460775984251969
0
LINE
8
BLACK
6
CONTINUOUS
10
1.0132575590551181
20
0.8364749606299212
11
1.0205662204724408
21
0.8334475984251968
0
LINE
8
BLACK
6
CONTINUOUS
10
1.0205662204724408
20
0.8334475984251968
11
1.0271438188976378
21
0.8290525984251969
0
LINE
8
BLACK
6
CONTINUOUS
10
1.0271438188976378
20
0.8290525984251969
11
1.0327376377952755
21
0.8234587795275591
0
LINE
8
BLACK
6
CONTINUOUS
10
1.0327376377952755
20
0.8234587795275591
11
1.0371326377952756
21
0.8168811811023622
0
LINE
8
BLACK
6
CONTINUOUS
10
1.0371326377952756
20
0.8168811811023622
11
1.04016
21
0.8095725196850394
0
LINE
8
BLACK
6
CONTINUOUS
10
1.04016
20
0.8095725196850394
11
1.0417033070866142
21
0.8018137007874016
0
LINE
8
BLACK
6
CONTINUOUS
10
1.0417033070866142
20
0.8018137007874016
11
1.0417033070866142
21
0.7939028346456692
0
LINE
8
BLACK
6
CONTINUOUS
10
1.0417033070866142
20
0.7939028346456692
11
1.04016
21
0.7861440157480315
0
LINE
8
BLACK
6
CONTINUOUS
10
1.04016
20
0.7861440157480315
11
1.0371326377952756
21
0.7788353543307086
0
LINE
8
BLACK
6
CONTINUOUS
10
1.0371326377952756
20
0.7788353543307086
11
1.0327376377952755
21
0.7722577559055118
0
LINE
8
BLACK
6
CONTINUOUS
10
1.0327376377952755
20
0.7722577559055118
11
1.0271438188976378
21
0.7666639370078741
0
LINE
8
BLACK
6
CONTINUOUS
10
1.0271438188976378
20
0.7666639370078741
11
1.0205662204724408
21
0.762268937007874
0
LINE
8
BLACK
6
CONTINUOUS
10
1.0205662204724408
20
0.762268937007874
11
1.0132575590551181
21
0.7592415748031496
0
LINE
8
BLACK
6
CONTINUOUS
10
1.0132575590551181
20
0.7592415748031496
11
1.0054987401574802
21
0.7576982677165354
0
LINE
8
BLACK
6
CONTINUOUS
10
1.0054987401574802
20
0.7576982677165354
11
0.997587874015748
21
0.7576982677165354
0
LINE
8
BLACK
6
CONTINUOUS
10
0.997587874015748
20
0.7576982677165354
11
0.9898290551181103
21
0.7592415748031496
0
LINE
8
BLACK
6
CONTINUOUS
10
0.9898290551181103
20
0.7592415748031496
11
0.9825203937007874
21
0.762268937007874
0
LINE
8
BLACK
6
CONTINUOUS
10
0.9825203937007874
20
0.762268937007874
11
0.9759427952755906
21
0.7666639370078741
0
LINE
8
BLACK
6
CONTINUOUS
10
0.9759427952755906
20
0.7666639370078741
11
0.9703489763779527
21
0.7722577559055118
0
LINE
8
BLACK
6
CONTINUOUS
10
0.9703489763779527
20
0.7722577559055118
11
0.9659539763779528
21
0.7788353543307086
0
LINE
8
BLACK
6
CONTINUOUS
10
0.9659539763779528
20
0.7788353543307086
11
0.9629266141732283
21
0.7861440157480315
0
LINE
8
BLACK
6
CONTINUOUS
10
0.9629266141732283
20
0.7861440157480315
11
0.9613833070866141
21
0.7939028346456692
0
LINE
8
BLACK
6
CONTINUOUS
10
0.9613833070866141
20
0.7939028346456692
11
0.9613833070866141
21
0.801638937007874
0
LINE
8
BLACK
6
CONTINUOUS
10
0.9613833070866141
20
0.801638937007874
11
0.9613833070866141
21
0.8018137007874016
0
LINE
8
BLACK
6
CONTINUOUS
10
0.9613833070866141
20
0.8018137007874016
11
0.9629266141732283
21
0.8095725196850394
0
LINE
8
BLACK
6
CONTINUOUS
10
0.9629266141732283
20
0.8095725196850394
11
0.9659539763779528
21
0.8168811811023622
0
LINE
8
BLACK
6
CONTINUOUS
10
0.9659539763779528
20
0.8168811811023622
11
0.9703489763779527
21
0.8234587795275591
0
LINE
8
BLACK
6
CONTINUOUS
10
0.9703489763779527
20
0.8234587795275591
11
0.9759427952755906
21
0.8290525984251969
0
LINE
8
BLACK
6
CONTINUOUS
10
0.9759427952755906
20
0.8290525984251969
11
0.9825203937007874
21
0.8334475984251968
0
LINE
8
BLACK
6
CONTINUOUS
10
0.9825203937007874
20
0.8334475984251968
11
0.9898290551181103
21
0.8364749606299212
0
LINE
8
BLACK
6
CONTINUOUS
10
0.9898290551181103
20
0.8364749606299212
11
0.997587874015748
21
0.8380182677165354
0
LINE
8
BLACK
6
CONTINUOUS
10
0.997587874015748
20
0.8380182677165354
11
1.0054987401574802
21
0.8380182677165354
0
LINE
8
BLACK
6
CONTINUOUS
10
1.0054987401574802
20
0.8380182677165354
11
1.0132575590551181
21
0.8364749606299212
0
LINE
8
BLACK
6
CONTINUOUS
10
0.9631574803149606
20
0.7940775984251969
11
0.9646325984251968
21
0.7866615354330708
0
LINE
8
BLACK
6
CONTINUOUS
10
0.9646325984251968
20
0.7866615354330708
11
0.967526220472441
21
0.7796757480314961
0
LINE
8
BLACK
6
CONTINUOUS
10
0.967526220472441
20
0.7796757480314961
11
0.9717270866141732
21
0.7733887007874015
0
LINE
8
BLACK
6
CONTINUOUS
10
0.9717270866141732
20
0.7733887007874015
11
0.9770737401574803
21
0.7680420472440944
0
LINE
8
BLACK
6
CONTINUOUS
10
0.9770737401574803
20
0.7680420472440944
11
0.9833607874015747
21
0.7638411811023622
0
LINE
8
BLACK
6
CONTINUOUS
10
0.9833607874015747
20
0.7638411811023622
11
0.9903465748031496
21
0.7609475590551181
0
LINE
8
BLACK
6
CONTINUOUS
10
0.9903465748031496
20
0.7609475590551181
11
0.9977626377952755
21
0.7594724409448819
0
LINE
8
BLACK
6
CONTINUOUS
10
0.9977626377952755
20
0.7594724409448819
11
1.0053239763779527
21
0.7594724409448819
0
LINE
8
BLACK
6
CONTINUOUS
10
1.0053239763779527
20
0.7594724409448819
11
1.0127400393700787
21
0.7609475590551181
0
LINE
8
BLACK
6
CONTINUOUS
10
1.0127400393700787
20
0.7609475590551181
11
1.0197258267716536
21
0.7638411811023622
0
LINE
8
BLACK
6
CONTINUOUS
10
1.0197258267716536
20
0.7638411811023622
11
1.0260128740157479
21
0.7680420472440944
0
LINE
8
BLACK
6
CONTINUOUS
10
1.0260128740157479
20
0.7680420472440944
11
1.031359527559055
21
0.7733887007874015
0
LINE
8
BLACK
6
CONTINUOUS
10
1.031359527559055
20
0.7733887007874015
11
1.0355603937007873
21
0.7796757480314961
0
LINE
8
BLACK
6
CONTINUOUS
10
1.0355603937007873
20
0.7796757480314961
11
1.0384540157480315
21
0.7866615354330708
0
LINE
8
BLACK
6
CONTINUOUS
10
1.0384540157480315
20
0.7866615354330708
11
1.0399291338582677
21
0.7940775984251969
0
LINE
8
BLACK
6
CONTINUOUS
10
1.0399291338582677
20
0.7940775984251969
11
1.0399291338582677
21
0.801638937007874
0
LINE
8
BLACK
6
CONTINUOUS
10
1.0399291338582677
20
0.801638937007874
11
1.0384540157480315
21
0.809055
0
LINE
8
BLACK
6
CONTINUOUS
10
1.0384540157480315
20
0.809055
11
1.0355603937007873
21
0.8160407874015748
0
LINE
8
BLACK
6
CONTINUOUS
10
1.0355603937007873
20
0.8160407874015748
11
1.031359527559055
21
0.8223278346456693
0
LINE
8
BLACK
6
CONTINUOUS
10
1.031359527559055
20
0.8223278346456693
11
1.0260128740157479
21
0.8276744881889764
0
LINE
8
BLACK
6
CONTINUOUS
10
1.0260128740157479
20
0.8276744881889764
11
1.0197258267716536
21
0.8318753543307087
0
LINE
8
BLACK
6
CONTINUOUS
10
1.0197258267716536
20
0.8318753543307087
11
1.0127400393700787
21
0.8347689763779528
0
LINE
8
BLACK
6
CONTINUOUS
10
1.0127400393700787
20
0.8347689763779528
11
1.0053239763779527
21
0.8362440944881889
0
LINE
8
BLACK
6
CONTINUOUS
10
1.0053239763779527
20
0.8362440944881889
11
0.9977626377952755
21
0.8362440944881889
0
LINE
8
BLACK
6
CONTINUOUS
10
0.9977626377952755
20
0.8362440944881889
11
0.9903465748031496
21
0.8347689763779528
0
LINE
8
BLACK
6
CONTINUOUS
10
0.9903465748031496
20
0.8347689763779528
11
0.9833607874015747
21
0.8318753543307087
0
LINE
8
BLACK
6
CONTINUOUS
10
0.9833607874015747
20
0.8318753543307087
11
0.9770737401574803
21
0.8276744881889764
0
LINE
8
BLACK
6
CONTINUOUS
10
0.9770737401574803
20
0.8276744881889764
11
0.9717270866141732
21
0.8223278346456693
0
LINE
8
BLACK
6
CONTINUOUS
10
0.9717270866141732
20
0.8223278346456693
11
0.967526220472441
21
0.8160407874015748
0
LINE
8
BLACK
6
CONTINUOUS
10
0.967526220472441
20
0.8160407874015748
11
0.9646325984251968
21
0.809055
0
LINE
8
BLACK
6
CONTINUOUS
10
0.9646325984251968
20
0.809055
11
0.9631574803149606
21
0.801638937007874
0
LINE
8
BLACK
6
CONTINUOUS
10
0.9631574803149606
20
0.801638937007874
11
0.9631574803149606
21
0.7940775984251969
0
LINE
8
BLACK
6
CONTINUOUS
10
1.0132575590551181
20
0.9284749606299212
11
1.0205662204724408
21
0.9254475984251969
0
LINE
8
BLACK
6
CONTINUOUS
10
1.0205662204724408
20
0.9254475984251969
11
1.0271438188976378
21
0.9210525984251968
0
LINE
8
BLACK
6
CONTINUOUS
10
1.0271438188976378
20
0.9210525984251968
11
1.0327376377952755
21
0.9154587795275591
0
LINE
8
BLACK
6
CONTINUOUS
10
1.0327376377952755
20
0.9154587795275591
11
1.0371326377952756
21
0.9088811811023622
0
LINE
8
BLACK
6
CONTINUOUS
10
1.0371326377952756
20
0.9088811811023622
11
1.04016
21
0.9015725196850394
0
LINE
8
BLACK
6
CONTINUOUS
10
1.04016
20
0.9015725196850394
11
1.0417033070866142
21
0.8938137007874015
0
LINE
8
BLACK
6
CONTINUOUS
10
1.0417033070866142
20
0.8938137007874015
11
1.0417033070866142
21
0.8859028346456693
0
LINE
8
BLACK
6
CONTINUOUS
10
1.0417033070866142
20
0.8859028346456693
11
1.04016
21
0.8781440157480315
0
LINE
8
BLACK
6
CONTINUOUS
10
1.04016
20
0.8781440157480315
11
1.0371326377952756
21
0.8708353543307087
0
LINE
8
BLACK
6
CONTINUOUS
10
1.0371326377952756
20
0.8708353543307087
11
1.0327376377952755
21
0.8642577559055118
0
LINE
8
BLACK
6
CONTINUOUS
10
1.0327376377952755
20
0.8642577559055118
11
1.0271438188976378
21
0.858663937007874
0
LINE
8
BLACK
6
CONTINUOUS
10
1.0271438188976378
20
0.858663937007874
11
1.0205662204724408
21
0.854268937007874
0
LINE
8
BLACK
6
CONTINUOUS
10
1.0205662204724408
20
0.854268937007874
11
1.0132575590551181
21
0.8512415748031495
0
LINE
8
BLACK
6
CONTINUOUS
10
1.0132575590551181
20
0.8512415748031495
11
1.0054987401574802
21
0.8496982677165354
0
LINE
8
BLACK
6
CONTINUOUS
10
1.0054987401574802
20
0.8496982677165354
11
0.997587874015748
21
0.8496982677165354
0
LINE
8
BLACK
6
CONTINUOUS
10
0.997587874015748
20
0.8496982677165354
11
0.9898290551181103
21
0.8512415748031495
0
LINE
8
BLACK
6
CONTINUOUS
10
0.9898290551181103
20
0.8512415748031495
11
0.9825203937007874
21
0.854268937007874
0
LINE
8
BLACK
6
CONTINUOUS
10
0.9825203937007874
20
0.854268937007874
11
0.9759427952755906
21
0.858663937007874
0
LINE
8
BLACK
6
CONTINUOUS
10
0.9759427952755906
20
0.858663937007874
11
0.9703489763779527
21
0.8642577559055118
0
LINE
8
BLACK
6
CONTINUOUS
10
0.9703489763779527
20
0.8642577559055118
11
0.9659539763779528
21
0.8708353543307087
0
LINE
8
BLACK
6
CONTINUOUS
10
0.9659539763779528
20
0.8708353543307087
11
0.9629266141732283
21
0.8781440157480315
0
LINE
8
BLACK
6
CONTINUOUS
10
0.9629266141732283
20
0.8781440157480315
11
0.9613833070866141
21
0.8859028346456693
0
LINE
8
BLACK
6
CONTINUOUS
10
0.9613833070866141
20
0.8859028346456693
11
0.9613833070866141
21
0.893638937007874
0
LINE
8
BLACK
6
CONTINUOUS
10
0.9613833070866141
20
0.893638937007874
11
0.9613833070866141
21
0.8938137007874015
0
LINE
8
BLACK
6
CONTINUOUS
10
0.9613833070866141
20
0.8938137007874015
11
0.9629266141732283
21
0.9015725196850394
0
LINE
8
BLACK
6
CONTINUOUS
10
0.9629266141732283
20
0.9015725196850394
11
0.9659539763779528
21
0.9088811811023622
0
LINE
8
BLACK
6
CONTINUOUS
10
0.9659539763779528
20
0.9088811811023622
11
0.9703489763779527
21
0.9154587795275591
0
LINE
8
BLACK
6
CONTINUOUS
10
0.9703489763779527
20
0.9154587795275591
11
0.9759427952755906
21
0.9210525984251968
0
LINE
8
BLACK
6
CONTINUOUS
10
0.9759427952755906
20
0.9210525984251968
11
0.9825203937007874
21
0.9254475984251969
0
LINE
8
BLACK
6
CONTINUOUS
10
0.9825203937007874
20
0.9254475984251969
11
0.9898290551181103
21
0.9284749606299212
0
LINE
8
BLACK
6
CONTINUOUS
10
0.9898290551181103
20
0.9284749606299212
11
0.997587874015748
21
0.9300182677165354
0
LINE
8
BLACK
6
CONTINUOUS
10
0.997587874015748
20
0.9300182677165354
11
1.0054987401574802
21
0.9300182677165354
0
LINE
8
BLACK
6
CONTINUOUS
10
1.0054987401574802
20
0.9300182677165354
11
1.0132575590551181
21
0.9284749606299212
0
LINE
8
BLACK
6
CONTINUOUS
10
0.9631574803149606
20
0.8860775984251968
11
0.9646325984251968
21
0.8786615354330708
0
LINE
8
BLACK
6
CONTINUOUS
10
0.9646325984251968
20
0.8786615354330708
11
0.967526220472441
21
0.8716757480314961
0
LINE
8
BLACK
6
CONTINUOUS
10
0.967526220472441
20
0.8716757480314961
11
0.9717270866141732
21
0.8653887007874016
0
LINE
8
BLACK
6
CONTINUOUS
10
0.9717270866141732
20
0.8653887007874016
11
0.9770737401574803
21
0.8600420472440945
0
LINE
8
BLACK
6
CONTINUOUS
10
0.9770737401574803
20
0.8600420472440945
11
0.9833607874015747
21
0.8558411811023622
0
LINE
8
BLACK
6
CONTINUOUS
10
0.9833607874015747
20
0.8558411811023622
11
0.9903465748031496
21
0.8529475590551181
0
LINE
8
BLACK
6
CONTINUOUS
10
0.9903465748031496
20
0.8529475590551181
11
0.9977626377952755
21
0.8514724409448818
0
LINE
8
BLACK
6
CONTINUOUS
10
0.9977626377952755
20
0.8514724409448818
11
1.0053239763779527
21
0.8514724409448818
0
LINE
8
BLACK
6
CONTINUOUS
10
1.0053239763779527
20
0.8514724409448818
11
1.0127400393700787
21
0.8529475590551181
0
LINE
8
BLACK
6
CONTINUOUS
10
1.0127400393700787
20
0.8529475590551181
11
1.0197258267716536
21
0.8558411811023622
0
LINE
8
BLACK
6
CONTINUOUS
10
1.0197258267716536
20
0.8558411811023622
11
1.0260128740157479
21
0.8600420472440945
0
LINE
8
BLACK
6
CONTINUOUS
10
1.0260128740157479
20
0.8600420472440945
11
1.031359527559055
21
0.8653887007874016
0
LINE
8
BLACK
6
CONTINUOUS
10
1.031359527559055
20
0.8653887007874016
11
1.0355603937007873
21
0.8716757480314961
0
LINE
8
BLACK
6
CONTINUOUS
10
1.0355603937007873
20
0.8716757480314961
11
1.0384540157480315
21
0.8786615354330708
0
LINE
8
BLACK
6
CONTINUOUS
10
1.0384540157480315
20
0.8786615354330708
11
1.0399291338582677
21
0.8860775984251968
0
LINE
8
BLACK
6
CONTINUOUS
10
1.0399291338582677
20
0.8860775984251968
11
1.0399291338582677
21
0.893638937007874
0
LINE
8
BLACK
6
CONTINUOUS
10
1.0399291338582677
20
0.893638937007874
11
1.0384540157480315
21
0.9010549999999999
0
LINE
8
BLACK
6
CONTINUOUS
10
1.0384540157480315
20
0.9010549999999999
11
1.0355603937007873
21
0.9080407874015748
0
LINE
8
BLACK
6
CONTINUOUS
10
1.0355603937007873
20
0.9080407874015748
11
1.031359527559055
21
0.9143278346456692
0
LINE
8
BLACK
6
CONTINUOUS
10
1.031359527559055
20
0.9143278346456692
11
1.0260128740157479
21
0.9196744881889763
0
LINE
8
BLACK
6
CONTINUOUS
10
1.0260128740157479
20
0.9196744881889763
11
1.0197258267716536
21
0.9238753543307087
0
LINE
8
BLACK
6
CONTINUOUS
10
1.0197258267716536
20
0.9238753543307087
11
1.0127400393700787
21
0.9267689763779527
0
LINE
8
BLACK
6
CONTINUOUS
10
1.0127400393700787
20
0.9267689763779527
11
1.0053239763779527
21
0.928244094488189
0
LINE
8
BLACK
6
CONTINUOUS
10
1.0053239763779527
20
0.928244094488189
11
0.9977626377952755
21
0.928244094488189
0
LINE
8
BLACK
6
CONTINUOUS
10
0.9977626377952755
20
0.928244094488189
11
0.9903465748031496
21
0.9267689763779527
0
LINE
8
BLACK
6
CONTINUOUS
10
0.9903465748031496
20
0.9267689763779527
11
0.9833607874015747
21
0.9238753543307087
0
LINE
8
BLACK
6
CONTINUOUS
10
0.9833607874015747
20
0.9238753543307087
11
0.9770737401574803
21
0.9196744881889763
0
LINE
8
BLACK
6
CONTINUOUS
10
0.9770737401574803
20
0.9196744881889763
11
0.9717270866141732
21
0.9143278346456692
0
LINE
8
BLACK
6
CONTINUOUS
10
0.9717270866141732
20
0.9143278346456692
11
0.967526220472441
21
0.9080407874015748
0
LINE
8
BLACK
6
CONTINUOUS
10
0.967526220472441
20
0.9080407874015748
11
0.9646325984251968
21
0.9010549999999999
0
LINE
8
BLACK
6
CONTINUOUS
10
0.9646325984251968
20
0.9010549999999999
11
0.9631574803149606
21
0.893638937007874
0
LINE
8
BLACK
6
CONTINUOUS
10
0.9631574803149606
20
0.893638937007874
11
0.9631574803149606
21
0.8860775984251968
0
CIRCLE
8
BLACK
10
0.4
20
2.
40
0.0068897637795276
0
CIRCLE
8
BLACK
10
2.7999999999999998
20
2.
40
0.0068897637795276
0
CIRCLE
8
BLACK
10
0.4
20
0.4
40
0.0068897637795276
0
CIRCLE
8
BLACK
10
2.7999999999999998
20
0.4
40
0.0068897637795276
0
CIRCLE
8
BLACK
10
2.3395433070866143
20
0.9159999999999999
40
0.0068897637795276
0
CIRCLE
8
BLACK
10
2.3395433070866143
20
1.1128503937007874
40
0.0068897637795276
0
CIRCLE
8
BLACK
10
0.9
20
2.1000000000000001
40
0.0068897637795276
0
CIRCLE
8
BLACK
10
0.9
20
2.
40
0.0068897637795276
0
CIRCLE
8
BLACK
10
1.
20
2.1000000000000001
40
0.0068897637795276
0
CIRCLE
8
BLACK
10
1.
20
2.
40
0.0068897637795276
0
CIRCLE
8
BLACK
10
1.0999999999999999
20
2.1000000000000001
40
0.0068897637795276
0
CIRCLE
8
BLACK
10
1.0999999999999999
20
2.
40
0.0068897637795276
0
CIRCLE
8
BLACK
10
1.2
20
2.1000000000000001
40
0.0068897637795276
0
CIRCLE
8
BLACK
10
1.2
20
2.
40
0.0068897637795276
0
CIRCLE
8
BLACK
10
1.3
20
2.1000000000000001
40
0.0068897637795276
0
CIRCLE
8
BLACK
10
1.3
20
2.
40
0.0068897637795276
0
CIRCLE
8
BLACK
10
1.3999999999999999
20
2.1000000000000001
40
0.0068897637795276
0
CIRCLE
8
BLACK
10
1.3999999999999999
20
2.
40
0.0068897637795276
0
CIRCLE
8
BLACK
10
1.5
20
2.1000000000000001
40
0.0068897637795276
0
CIRCLE
8
BLACK
10
1.5
20
2.
40
0.0068897637795276
0
CIRCLE
8
BLACK
10
1.5999999999999999
20
2.1000000000000001
40
0.0068897637795276
0
CIRCLE
8
BLACK
10
1.5999999999999999
20
2.
40
0.0068897637795276
0
CIRCLE
8
BLACK
10
1.7
20
2.1000000000000001
40
0.0068897637795276
0
CIRCLE
8
BLACK
10
1.7
20
2.
40
0.0068897637795276
0
CIRCLE
8
BLACK
10
1.8
20
2.1000000000000001
40
0.0068897637795276
0
CIRCLE
8
BLACK
10
1.8
20
2.
40
0.0068897637795276
0
CIRCLE
8
BLACK
10
1.8999999999999999
20
2.1000000000000001
40
0.0068897637795276
0
CIRCLE
8
BLACK
10
1.8999999999999999
20
2.
40
0.0068897637795276
0
CIRCLE
8
BLACK
10
2.
20
2.1000000000000001
40
0.0068897637795276
0
CIRCLE
8
BLACK
10
2.
20
2.
40
0.0068897637795276
0
CIRCLE
8
BLACK
10
2.1000000000000001
20
2.1000000000000001
40
0.0068897637795276
0
CIRCLE
8
BLACK
10
2.1000000000000001
20
2.
40
0.0068897637795276
0
CIRCLE
8
BLACK
10
2.1999999999999997
20
2.1000000000000001
40
0.0068897637795276
0
CIRCLE
8
BLACK
10
2.1999999999999997
20
2.
40
0.0068897637795276
0
CIRCLE
8
BLACK
10
2.2999999999999998
20
2.1000000000000001
40
0.0068897637795276
0
CIRCLE
8
BLACK
10
2.2999999999999998
20
2.
40
0.0068897637795276
  0
ENDSEC
  0
EOF
