  0
SECTION
  2
HEADER
  9
$ANGBASE
  50
0.0
  9
$ANGDIR
  70
1
  9
$MEASUREMENT
  70
0
  0
ENDSEC
  0
SECTION
  2
TABLES
  0
TABLE
  2
LTYPE
  70
4
  0
LTYPE
  5
40F
  2
CONTINUOUS
  70
0
  3
Solid line
  72
65
  73
0
  40
0.0
  0
LTYPE
  5
410
  2
DASHDOT
 70
0
  3
Dash Dot ____ _ ____ _
 72
65
 73
4
 40
2.0
 49
1.25
 49
-0.25
 49
0.25
 49
-0.25
  0
LTYPE
  5
411
  2
DASHED
 70
0
  3
Dashed __ __ __ __ __
 72
65
 73
2
 40
0.75
 49
0.5
 49
-0.25
  0
LTYPE
  5
43B
  2
DOTTED
 70
0
  3
Dotted .  .  .  .
 72
65
 73
2
 40
0.2
 49
0.0
 49
-0.2
  0
ENDTAB
  0
TABLE
  2
STYLE
  70
4
  0
STYLE
  2
KICAD
  70
0
  40
0
  41
1
  42
1
  50
0
  71
0
  3
isocp.shx
  0
STYLE
  2
KICADB
  70
0
  40
0
  41
1
  42
1
  50
0
  71
0
  3
isocp.shx
  0
STYLE
  2
KICADI
  70
0
  40
0
  41
1
  42
1
  50
15
  71
0
  3
isocp.shx
  0
STYLE
  2
KICADBI
  70
0
  40
0
  41
1
  42
1
  50
15
  71
0
  3
isocp.shx
  0
ENDTAB
  0
TABLE
  2
LAYER
  70
1
  0
LAYER
  2
BLACK
  70
0
  62
7
  6
CONTINUOUS
  0
ENDTAB
  0
ENDSEC
  0
SECTION
  2
ENTITIES
0
LINE
8
BLACK
6
CONTINUOUS
10
0.413576811023622
20
0.5204974015748032
11
0.4269828346456693
21
0.5182196062992126
0
LINE
8
BLACK
6
CONTINUOUS
10
0.4269828346456693
20
0.5182196062992126
11
0.4400496062992126
21
0.5144551574803149
0
LINE
8
BLACK
6
CONTINUOUS
10
0.4400496062992126
20
0.5144551574803149
11
0.4526126771653543
21
0.5092513385826771
0
LINE
8
BLACK
6
CONTINUOUS
10
0.4526126771653543
20
0.5092513385826771
11
0.4645141338582677
21
0.5026736614173228
0
LINE
8
BLACK
6
CONTINUOUS
10
0.4645141338582677
20
0.5026736614173228
11
0.4756042913385827
21
0.4948047637795275
0
LINE
8
BLACK
6
CONTINUOUS
10
0.4756042913385827
20
0.4948047637795275
11
0.4857436614173228
21
0.4857436614173228
0
LINE
8
BLACK
6
CONTINUOUS
10
0.4857436614173228
20
0.4857436614173228
11
0.4948047637795275
21
0.4756042913385827
0
LINE
8
BLACK
6
CONTINUOUS
10
0.4948047637795275
20
0.4756042913385827
11
0.5026736614173228
21
0.4645141338582677
0
LINE
8
BLACK
6
CONTINUOUS
10
0.5026736614173228
20
0.4645141338582677
11
0.5092513385826771
21
0.4526126771653543
0
LINE
8
BLACK
6
CONTINUOUS
10
0.5092513385826771
20
0.4526126771653543
11
0.5144551574803149
21
0.4400496062992126
0
LINE
8
BLACK
6
CONTINUOUS
10
0.5144551574803149
20
0.4400496062992126
11
0.5182196062992126
21
0.4269828346456693
0
LINE
8
BLACK
6
CONTINUOUS
10
0.5182196062992126
20
0.4269828346456693
11
0.5204974015748032
21
0.413576811023622
0
LINE
8
BLACK
6
CONTINUOUS
10
0.5204974015748032
20
0.413576811023622
11
0.521259842519685
21
0.4
0
LINE
8
BLACK
6
CONTINUOUS
10
0.521259842519685
20
0.4
11
0.5204974015748032
21
0.386423188976378
0
LINE
8
BLACK
6
CONTINUOUS
10
0.5204974015748032
20
0.386423188976378
11
0.5182196062992126
21
0.3730171653543307
0
LINE
8
BLACK
6
CONTINUOUS
10
0.5182196062992126
20
0.3730171653543307
11
0.5144551574803149
21
0.3599503937007874
0
LINE
8
BLACK
6
CONTINUOUS
10
0.5144551574803149
20
0.3599503937007874
11
0.5092513385826771
21
0.3473873228346457
0
LINE
8
BLACK
6
CONTINUOUS
10
0.5092513385826771
20
0.3473873228346457
11
0.5026736614173228
21
0.3354858661417323
0
LINE
8
BLACK
6
CONTINUOUS
10
0.5026736614173228
20
0.3354858661417323
11
0.4948047637795275
21
0.3243957086614173
0
LINE
8
BLACK
6
CONTINUOUS
10
0.4948047637795275
20
0.3243957086614173
11
0.4857436614173228
21
0.3142563385826772
0
LINE
8
BLACK
6
CONTINUOUS
10
0.4857436614173228
20
0.3142563385826772
11
0.4756042913385827
21
0.3051952362204725
0
LINE
8
BLACK
6
CONTINUOUS
10
0.4756042913385827
20
0.3051952362204725
11
0.4645141338582677
21
0.2973263385826772
0
LINE
8
BLACK
6
CONTINUOUS
10
0.4645141338582677
20
0.2973263385826772
11
0.4526126771653543
21
0.2907486614173228
0
LINE
8
BLACK
6
CONTINUOUS
10
0.4526126771653543
20
0.2907486614173228
11
0.4400496062992126
21
0.285544842519685
0
LINE
8
BLACK
6
CONTINUOUS
10
0.4400496062992126
20
0.285544842519685
11
0.4269828346456693
21
0.2817803937007874
0
LINE
8
BLACK
6
CONTINUOUS
10
0.4269828346456693
20
0.2817803937007874
11
0.413576811023622
21
0.2795025984251969
0
LINE
8
BLACK
6
CONTINUOUS
10
0.413576811023622
20
0.2795025984251969
11
0.4
21
0.2787401574803149
0
LINE
8
BLACK
6
CONTINUOUS
10
0.4
20
0.2787401574803149
11
0.386423188976378
21
0.2795025984251969
0
LINE
8
BLACK
6
CONTINUOUS
10
0.386423188976378
20
0.2795025984251969
11
0.3730171653543307
21
0.2817803937007874
0
LINE
8
BLACK
6
CONTINUOUS
10
0.3730171653543307
20
0.2817803937007874
11
0.3599503937007874
21
0.285544842519685
0
LINE
8
BLACK
6
CONTINUOUS
10
0.3599503937007874
20
0.285544842519685
11
0.3473873228346457
21
0.2907486614173228
0
LINE
8
BLACK
6
CONTINUOUS
10
0.3473873228346457
20
0.2907486614173228
11
0.3354858661417323
21
0.2973263385826772
0
LINE
8
BLACK
6
CONTINUOUS
10
0.3354858661417323
20
0.2973263385826772
11
0.3243957086614173
21
0.3051952362204725
0
LINE
8
BLACK
6
CONTINUOUS
10
0.3243957086614173
20
0.3051952362204725
11
0.3142563385826772
21
0.3142563385826772
0
LINE
8
BLACK
6
CONTINUOUS
10
0.3142563385826772
20
0.3142563385826772
11
0.3051952362204725
21
0.3243957086614173
0
LINE
8
BLACK
6
CONTINUOUS
10
0.3051952362204725
20
0.3243957086614173
11
0.2973263385826772
21
0.3354858661417323
0
LINE
8
BLACK
6
CONTINUOUS
10
0.2973263385826772
20
0.3354858661417323
11
0.2907486614173228
21
0.3473873228346457
0
LINE
8
BLACK
6
CONTINUOUS
10
0.2907486614173228
20
0.3473873228346457
11
0.285544842519685
21
0.3599503937007874
0
LINE
8
BLACK
6
CONTINUOUS
10
0.285544842519685
20
0.3599503937007874
11
0.2817803937007874
21
0.3730171653543307
0
LINE
8
BLACK
6
CONTINUOUS
10
0.2817803937007874
20
0.3730171653543307
11
0.2795025984251969
21
0.386423188976378
0
LINE
8
BLACK
6
CONTINUOUS
10
0.2795025984251969
20
0.386423188976378
11
0.2787401574803149
21
0.4
0
LINE
8
BLACK
6
CONTINUOUS
10
0.2787401574803149
20
0.4
11
0.2795025984251969
21
0.413576811023622
0
LINE
8
BLACK
6
CONTINUOUS
10
0.2795025984251969
20
0.413576811023622
11
0.2817803937007874
21
0.4269828346456693
0
LINE
8
BLACK
6
CONTINUOUS
10
0.2817803937007874
20
0.4269828346456693
11
0.285544842519685
21
0.4400496062992126
0
LINE
8
BLACK
6
CONTINUOUS
10
0.285544842519685
20
0.4400496062992126
11
0.2907486614173228
21
0.4526126771653543
0
LINE
8
BLACK
6
CONTINUOUS
10
0.2907486614173228
20
0.4526126771653543
11
0.2973263385826772
21
0.4645141338582677
0
LINE
8
BLACK
6
CONTINUOUS
10
0.2973263385826772
20
0.4645141338582677
11
0.3051952362204725
21
0.4756042913385827
0
LINE
8
BLACK
6
CONTINUOUS
10
0.3051952362204725
20
0.4756042913385827
11
0.3142563385826772
21
0.4857436614173228
0
LINE
8
BLACK
6
CONTINUOUS
10
0.3142563385826772
20
0.4857436614173228
11
0.3243957086614173
21
0.4948047637795275
0
LINE
8
BLACK
6
CONTINUOUS
10
0.3243957086614173
20
0.4948047637795275
11
0.3354858661417323
21
0.5026736614173228
0
LINE
8
BLACK
6
CONTINUOUS
10
0.3354858661417323
20
0.5026736614173228
11
0.3473873228346457
21
0.5092513385826771
0
LINE
8
BLACK
6
CONTINUOUS
10
0.3473873228346457
20
0.5092513385826771
11
0.3599503937007874
21
0.5144551574803149
0
LINE
8
BLACK
6
CONTINUOUS
10
0.3599503937007874
20
0.5144551574803149
11
0.3730171653543307
21
0.5182196062992126
0
LINE
8
BLACK
6
CONTINUOUS
10
0.3730171653543307
20
0.5182196062992126
11
0.386423188976378
21
0.5204974015748032
0
LINE
8
BLACK
6
CONTINUOUS
10
0.386423188976378
20
0.5204974015748032
11
0.4
21
0.521259842519685
0
LINE
8
BLACK
6
CONTINUOUS
10
0.4
20
0.521259842519685
11
0.413576811023622
21
0.5204974015748032
0
LINE
8
BLACK
6
CONTINUOUS
10
2.75311937007874
20
1.6128960236220473
11
2.7541837795275588
21
1.6124551181102362
0
LINE
8
BLACK
6
CONTINUOUS
10
2.7541837795275588
20
1.6124551181102362
11
2.7549984251968502
21
1.6116404724409448
0
LINE
8
BLACK
6
CONTINUOUS
10
2.7549984251968502
20
1.6116404724409448
11
2.7554393307086613
21
1.610576062992126
0
LINE
8
BLACK
6
CONTINUOUS
10
2.7554393307086613
20
1.610576062992126
11
2.7554960629921261
21
1.6099999999999999
0
LINE
8
BLACK
6
CONTINUOUS
10
2.7554960629921261
20
1.6099999999999999
11
2.7554960629921261
21
1.403330433070866
0
LINE
8
BLACK
6
CONTINUOUS
10
2.7554960629921261
20
1.403330433070866
11
2.75548031496063
21
1.4031705511811023
0
LINE
8
BLACK
6
CONTINUOUS
10
2.75548031496063
20
1.4031705511811023
11
2.75548031496063
21
0.623018188976378
0
LINE
8
BLACK
6
CONTINUOUS
10
2.75548031496063
20
0.623018188976378
11
2.7554960629921261
21
0.6228582677165354
0
LINE
8
BLACK
6
CONTINUOUS
10
2.7554960629921261
20
0.6228582677165354
11
2.7554960629921261
21
0.5126101181102362
0
LINE
8
BLACK
6
CONTINUOUS
10
2.7554960629921261
20
0.5126101181102362
11
2.7599503937007874
21
0.5144551574803149
0
LINE
8
BLACK
6
CONTINUOUS
10
2.7599503937007874
20
0.5144551574803149
11
2.7730171653543305
21
0.5182196062992126
0
LINE
8
BLACK
6
CONTINUOUS
10
2.7730171653543305
20
0.5182196062992126
11
2.7864231889763778
21
0.5204974015748032
0
LINE
8
BLACK
6
CONTINUOUS
10
2.7864231889763778
20
0.5204974015748032
11
2.7999999999999998
21
0.521259842519685
0
LINE
8
BLACK
6
CONTINUOUS
10
2.7999999999999998
20
0.521259842519685
11
2.8135768110236219
21
0.5204974015748032
0
LINE
8
BLACK
6
CONTINUOUS
10
2.8135768110236219
20
0.5204974015748032
11
2.8269828346456691
21
0.5182196062992126
0
LINE
8
BLACK
6
CONTINUOUS
10
2.8269828346456691
20
0.5182196062992126
11
2.8400496062992127
21
0.5144551574803149
0
LINE
8
BLACK
6
CONTINUOUS
10
2.8400496062992127
20
0.5144551574803149
11
2.8526126771653542
21
0.5092513385826771
0
LINE
8
BLACK
6
CONTINUOUS
10
2.8526126771653542
20
0.5092513385826771
11
2.8645141338582678
21
0.5026736614173228
0
LINE
8
BLACK
6
CONTINUOUS
10
2.8645141338582678
20
0.5026736614173228
11
2.8756042913385826
21
0.4948047637795275
0
LINE
8
BLACK
6
CONTINUOUS
10
2.8756042913385826
20
0.4948047637795275
11
2.8857436614173229
21
0.4857436614173228
0
LINE
8
BLACK
6
CONTINUOUS
10
2.8857436614173229
20
0.4857436614173228
11
2.8948047637795273
21
0.4756042913385827
0
LINE
8
BLACK
6
CONTINUOUS
10
2.8948047637795273
20
0.4756042913385827
11
2.9026736614173227
21
0.4645141338582677
0
LINE
8
BLACK
6
CONTINUOUS
10
2.9026736614173227
20
0.4645141338582677
11
2.9092513385826773
21
0.4526126771653543
0
LINE
8
BLACK
6
CONTINUOUS
10
2.9092513385826773
20
0.4526126771653543
11
2.9144551574803148
21
0.4400496062992126
0
LINE
8
BLACK
6
CONTINUOUS
10
2.9144551574803148
20
0.4400496062992126
11
2.9182196062992127
21
0.4269828346456693
0
LINE
8
BLACK
6
CONTINUOUS
10
2.9182196062992127
20
0.4269828346456693
11
2.9204974015748029
21
0.413576811023622
0
LINE
8
BLACK
6
CONTINUOUS
10
2.9204974015748029
20
0.413576811023622
11
2.9212598425196852
21
0.4
0
LINE
8
BLACK
6
CONTINUOUS
10
2.9212598425196852
20
0.4
11
2.9204974015748029
21
0.386423188976378
0
LINE
8
BLACK
6
CONTINUOUS
10
2.9204974015748029
20
0.386423188976378
11
2.9182196062992127
21
0.3730171653543307
0
LINE
8
BLACK
6
CONTINUOUS
10
2.9182196062992127
20
0.3730171653543307
11
2.9144551574803148
21
0.3599503937007874
0
LINE
8
BLACK
6
CONTINUOUS
10
2.9144551574803148
20
0.3599503937007874
11
2.9092513385826773
21
0.3473873228346457
0
LINE
8
BLACK
6
CONTINUOUS
10
2.9092513385826773
20
0.3473873228346457
11
2.9026736614173227
21
0.3354858661417323
0
LINE
8
BLACK
6
CONTINUOUS
10
2.9026736614173227
20
0.3354858661417323
11
2.8948047637795273
21
0.3243957086614173
0
LINE
8
BLACK
6
CONTINUOUS
10
2.8948047637795273
20
0.3243957086614173
11
2.8857436614173229
21
0.3142563385826772
0
LINE
8
BLACK
6
CONTINUOUS
10
2.8857436614173229
20
0.3142563385826772
11
2.8756042913385826
21
0.3051952362204725
0
LINE
8
BLACK
6
CONTINUOUS
10
2.8756042913385826
20
0.3051952362204725
11
2.8645141338582678
21
0.2973263385826772
0
LINE
8
BLACK
6
CONTINUOUS
10
2.8645141338582678
20
0.2973263385826772
11
2.8526126771653542
21
0.2907486614173228
0
LINE
8
BLACK
6
CONTINUOUS
10
2.8526126771653542
20
0.2907486614173228
11
2.8400496062992127
21
0.285544842519685
0
LINE
8
BLACK
6
CONTINUOUS
10
2.8400496062992127
20
0.285544842519685
11
2.8269828346456691
21
0.2817803937007874
0
LINE
8
BLACK
6
CONTINUOUS
10
2.8269828346456691
20
0.2817803937007874
11
2.8135768110236219
21
0.2795025984251969
0
LINE
8
BLACK
6
CONTINUOUS
10
2.8135768110236219
20
0.2795025984251969
11
2.7999999999999998
21
0.2787401574803149
0
LINE
8
BLACK
6
CONTINUOUS
10
2.7999999999999998
20
0.2787401574803149
11
2.7864231889763778
21
0.2795025984251969
0
LINE
8
BLACK
6
CONTINUOUS
10
2.7864231889763778
20
0.2795025984251969
11
2.7730171653543305
21
0.2817803937007874
0
LINE
8
BLACK
6
CONTINUOUS
10
2.7730171653543305
20
0.2817803937007874
11
2.7599503937007874
21
0.285544842519685
0
LINE
8
BLACK
6
CONTINUOUS
10
2.7599503937007874
20
0.285544842519685
11
2.7473873228346455
21
0.2907486614173228
0
LINE
8
BLACK
6
CONTINUOUS
10
2.7473873228346455
20
0.2907486614173228
11
2.7354858661417323
21
0.2973263385826772
0
LINE
8
BLACK
6
CONTINUOUS
10
2.7354858661417323
20
0.2973263385826772
11
2.7243957086614174
21
0.3051952362204725
0
LINE
8
BLACK
6
CONTINUOUS
10
2.7243957086614174
20
0.3051952362204725
11
2.7142563385826772
21
0.3142563385826772
0
LINE
8
BLACK
6
CONTINUOUS
10
2.7142563385826772
20
0.3142563385826772
11
2.7051952362204723
21
0.3243957086614173
0
LINE
8
BLACK
6
CONTINUOUS
10
2.7051952362204723
20
0.3243957086614173
11
2.6973263385826769
21
0.3354858661417323
0
LINE
8
BLACK
6
CONTINUOUS
10
2.6973263385826769
20
0.3354858661417323
11
2.6907486614173228
21
0.3473873228346457
0
LINE
8
BLACK
6
CONTINUOUS
10
2.6907486614173228
20
0.3473873228346457
11
2.6855448425196848
21
0.3599503937007874
0
LINE
8
BLACK
6
CONTINUOUS
10
2.6855448425196848
20
0.3599503937007874
11
2.6817803937007874
21
0.3730171653543307
0
LINE
8
BLACK
6
CONTINUOUS
10
2.6817803937007874
20
0.3730171653543307
11
2.6795025984251968
21
0.386423188976378
0
LINE
8
BLACK
6
CONTINUOUS
10
2.6795025984251968
20
0.386423188976378
11
2.6787401574803149
21
0.4
0
LINE
8
BLACK
6
CONTINUOUS
10
2.6787401574803149
20
0.4
11
2.6795025984251968
21
0.413576811023622
0
LINE
8
BLACK
6
CONTINUOUS
10
2.6795025984251968
20
0.413576811023622
11
2.6805805905511813
21
0.4199212598425197
0
LINE
8
BLACK
6
CONTINUOUS
10
2.6805805905511813
20
0.4199212598425197
11
2.551543307086614
21
0.4199212598425197
0
LINE
8
BLACK
6
CONTINUOUS
10
2.551543307086614
20
0.4199212598425197
11
2.5507752362204723
21
0.4199968897637795
0
LINE
8
BLACK
6
CONTINUOUS
10
2.5507752362204723
20
0.4199968897637795
11
2.5501981102362206
21
0.4202359448818898
0
LINE
8
BLACK
6
CONTINUOUS
10
2.5501981102362206
20
0.4202359448818898
11
1.0625433070866142
21
0.4202359448818898
0
LINE
8
BLACK
6
CONTINUOUS
10
1.0625433070866142
20
0.4202359448818898
11
1.0619672440944881
21
0.4202926771653543
0
LINE
8
BLACK
6
CONTINUOUS
10
1.0619672440944881
20
0.4202926771653543
11
1.0609028346456693
21
0.4207335826771653
0
LINE
8
BLACK
6
CONTINUOUS
10
1.0609028346456693
20
0.4207335826771653
11
1.060088188976378
21
0.4215482283464567
0
LINE
8
BLACK
6
CONTINUOUS
10
1.060088188976378
20
0.4215482283464567
11
1.0596472834645669
21
0.4226126377952756
0
LINE
8
BLACK
6
CONTINUOUS
10
1.0596472834645669
20
0.4226126377952756
11
1.0595905511811023
21
0.4231887007874016
0
LINE
8
BLACK
6
CONTINUOUS
10
1.0595905511811023
20
0.4231887007874016
11
1.0595905511811023
21
0.6228582677165354
0
LINE
8
BLACK
6
CONTINUOUS
10
1.0595905511811023
20
0.6228582677165354
11
1.0596472834645669
21
0.6234343307086614
0
LINE
8
BLACK
6
CONTINUOUS
10
1.0596472834645669
20
0.6234343307086614
11
1.060088188976378
21
0.6244987401574803
0
LINE
8
BLACK
6
CONTINUOUS
10
1.060088188976378
20
0.6244987401574803
11
1.0606062992125984
21
0.6250168503937008
0
LINE
8
BLACK
6
CONTINUOUS
10
1.0606062992125984
20
0.6250168503937008
11
1.0606062992125984
21
1.4011718503937007
0
LINE
8
BLACK
6
CONTINUOUS
10
1.0606062992125984
20
1.4011718503937007
11
1.060088188976378
21
1.4016899606299211
0
LINE
8
BLACK
6
CONTINUOUS
10
1.060088188976378
20
1.4016899606299211
11
1.0596472834645669
21
1.4027543700787402
0
LINE
8
BLACK
6
CONTINUOUS
10
1.0596472834645669
20
1.4027543700787402
11
1.0595905511811023
21
1.403330433070866
0
LINE
8
BLACK
6
CONTINUOUS
10
1.0595905511811023
20
1.403330433070866
11
1.0595905511811023
21
1.6099999999999999
0
LINE
8
BLACK
6
CONTINUOUS
10
1.0595905511811023
20
1.6099999999999999
11
1.0596472834645669
21
1.610576062992126
0
LINE
8
BLACK
6
CONTINUOUS
10
1.0596472834645669
20
1.610576062992126
11
1.060088188976378
21
1.6116404724409448
0
LINE
8
BLACK
6
CONTINUOUS
10
1.060088188976378
20
1.6116404724409448
11
1.0609028346456693
21
1.6124551181102362
0
LINE
8
BLACK
6
CONTINUOUS
10
1.0609028346456693
20
1.6124551181102362
11
1.0619672440944881
21
1.6128960236220473
0
LINE
8
BLACK
6
CONTINUOUS
10
1.0619672440944881
20
1.6128960236220473
11
1.0625433070866142
21
1.6129527559055117
0
LINE
8
BLACK
6
CONTINUOUS
10
1.0625433070866142
20
1.6129527559055117
11
2.7525433070866141
21
1.6129527559055117
0
LINE
8
BLACK
6
CONTINUOUS
10
2.7525433070866141
20
1.6129527559055117
11
2.75311937007874
21
1.6128960236220473
0
LINE
8
BLACK
6
CONTINUOUS
10
1.26948031496063
20
1.4003776771653542
11
1.26948031496063
21
0.6258110236220472
0
LINE
8
BLACK
6
CONTINUOUS
10
1.26948031496063
20
0.6258110236220472
11
2.5476062992125983
21
0.6258110236220472
0
LINE
8
BLACK
6
CONTINUOUS
10
2.5476062992125983
20
0.6258110236220472
11
2.5476062992125983
21
1.4003776771653542
0
LINE
8
BLACK
6
CONTINUOUS
10
2.5476062992125983
20
1.4003776771653542
11
1.26948031496063
21
1.4003776771653542
0
LINE
8
BLACK
6
CONTINUOUS
10
1.0174533464566928
20
0.671914842519685
11
1.0229606299212599
21
0.6696336614173228
0
LINE
8
BLACK
6
CONTINUOUS
10
1.0229606299212599
20
0.6696336614173228
11
1.027689842519685
21
0.6660048031496063
0
LINE
8
BLACK
6
CONTINUOUS
10
1.027689842519685
20
0.6660048031496063
11
1.0313187007874016
21
0.6612755905511811
0
LINE
8
BLACK
6
CONTINUOUS
10
1.0313187007874016
20
0.6612755905511811
11
1.0335998818897638
21
0.6557683070866142
0
LINE
8
BLACK
6
CONTINUOUS
10
1.0335998818897638
20
0.6557683070866142
11
1.0343779527559054
21
0.6498582677165354
0
LINE
8
BLACK
6
CONTINUOUS
10
1.0343779527559054
20
0.6498582677165354
11
1.0335998818897638
21
0.6439482283464567
0
LINE
8
BLACK
6
CONTINUOUS
10
1.0335998818897638
20
0.6439482283464567
11
1.0313187007874016
21
0.6384409448818897
0
LINE
8
BLACK
6
CONTINUOUS
10
1.0313187007874016
20
0.6384409448818897
11
1.027689842519685
21
0.6337117322834646
0
LINE
8
BLACK
6
CONTINUOUS
10
1.027689842519685
20
0.6337117322834646
11
1.0229606299212599
21
0.630082874015748
0
LINE
8
BLACK
6
CONTINUOUS
10
1.0229606299212599
20
0.630082874015748
11
1.0174533464566928
21
0.6278016929133858
0
LINE
8
BLACK
6
CONTINUOUS
10
1.0174533464566928
20
0.6278016929133858
11
1.0115433070866142
21
0.627023622047244
0
LINE
8
BLACK
6
CONTINUOUS
10
1.0115433070866142
20
0.627023622047244
11
1.0056332677165354
21
0.6278016929133858
0
LINE
8
BLACK
6
CONTINUOUS
10
1.0056332677165354
20
0.6278016929133858
11
1.0001259842519685
21
0.630082874015748
0
LINE
8
BLACK
6
CONTINUOUS
10
1.0001259842519685
20
0.630082874015748
11
0.9953967716535432
21
0.6337117322834646
0
LINE
8
BLACK
6
CONTINUOUS
10
0.9953967716535432
20
0.6337117322834646
11
0.9917679133858267
21
0.6384409448818897
0
LINE
8
BLACK
6
CONTINUOUS
10
0.9917679133858267
20
0.6384409448818897
11
0.9894867322834645
21
0.6439482283464567
0
LINE
8
BLACK
6
CONTINUOUS
10
0.9894867322834645
20
0.6439482283464567
11
0.9887086614173228
21
0.6498582677165354
0
LINE
8
BLACK
6
CONTINUOUS
10
0.9887086614173228
20
0.6498582677165354
11
0.9894867322834645
21
0.6557683070866142
0
LINE
8
BLACK
6
CONTINUOUS
10
0.9894867322834645
20
0.6557683070866142
11
0.9917679133858267
21
0.6612755905511811
0
LINE
8
BLACK
6
CONTINUOUS
10
0.9917679133858267
20
0.6612755905511811
11
0.9953967716535432
21
0.6660048031496063
0
LINE
8
BLACK
6
CONTINUOUS
10
0.9953967716535432
20
0.6660048031496063
11
1.0001259842519685
21
0.6696336614173228
0
LINE
8
BLACK
6
CONTINUOUS
10
1.0001259842519685
20
0.6696336614173228
11
1.0056332677165354
21
0.671914842519685
0
LINE
8
BLACK
6
CONTINUOUS
10
1.0056332677165354
20
0.671914842519685
11
1.0115433070866142
21
0.6726929133858267
0
LINE
8
BLACK
6
CONTINUOUS
10
1.0115433070866142
20
0.6726929133858267
11
1.0174533464566928
21
0.671914842519685
0
LINE
8
BLACK
6
CONTINUOUS
10
1.0074533464566928
20
0.819914842519685
11
1.0129606299212599
21
0.8176336614173229
0
LINE
8
BLACK
6
CONTINUOUS
10
1.0129606299212599
20
0.8176336614173229
11
1.017689842519685
21
0.8140048031496063
0
LINE
8
BLACK
6
CONTINUOUS
10
1.017689842519685
20
0.8140048031496063
11
1.0213187007874016
21
0.809275590551181
0
LINE
8
BLACK
6
CONTINUOUS
10
1.0213187007874016
20
0.809275590551181
11
1.0235998818897638
21
0.8037683070866142
0
LINE
8
BLACK
6
CONTINUOUS
10
1.0235998818897638
20
0.8037683070866142
11
1.0243779527559056
21
0.7978582677165355
0
LINE
8
BLACK
6
CONTINUOUS
10
1.0243779527559056
20
0.7978582677165355
11
1.0235998818897638
21
0.7919482283464567
0
LINE
8
BLACK
6
CONTINUOUS
10
1.0235998818897638
20
0.7919482283464567
11
1.0213187007874016
21
0.7864409448818898
0
LINE
8
BLACK
6
CONTINUOUS
10
1.0213187007874016
20
0.7864409448818898
11
1.017689842519685
21
0.7817117322834646
0
LINE
8
BLACK
6
CONTINUOUS
10
1.017689842519685
20
0.7817117322834646
11
1.0129606299212599
21
0.778082874015748
0
LINE
8
BLACK
6
CONTINUOUS
10
1.0129606299212599
20
0.778082874015748
11
1.0074533464566928
21
0.7758016929133859
0
LINE
8
BLACK
6
CONTINUOUS
10
1.0074533464566928
20
0.7758016929133859
11
1.0015433070866142
21
0.7750236220472441
0
LINE
8
BLACK
6
CONTINUOUS
10
1.0015433070866142
20
0.7750236220472441
11
0.9956332677165354
21
0.7758016929133859
0
LINE
8
BLACK
6
CONTINUOUS
10
0.9956332677165354
20
0.7758016929133859
11
0.9901259842519685
21
0.778082874015748
0
LINE
8
BLACK
6
CONTINUOUS
10
0.9901259842519685
20
0.778082874015748
11
0.9853967716535433
21
0.7817117322834646
0
LINE
8
BLACK
6
CONTINUOUS
10
0.9853967716535433
20
0.7817117322834646
11
0.9817679133858267
21
0.7864409448818898
0
LINE
8
BLACK
6
CONTINUOUS
10
0.9817679133858267
20
0.7864409448818898
11
0.9794867322834645
21
0.7919482283464567
0
LINE
8
BLACK
6
CONTINUOUS
10
0.9794867322834645
20
0.7919482283464567
11
0.9787086614173228
21
0.7978582677165355
0
LINE
8
BLACK
6
CONTINUOUS
10
0.9787086614173228
20
0.7978582677165355
11
0.9794867322834645
21
0.8037683070866142
0
LINE
8
BLACK
6
CONTINUOUS
10
0.9794867322834645
20
0.8037683070866142
11
0.9817679133858267
21
0.809275590551181
0
LINE
8
BLACK
6
CONTINUOUS
10
0.9817679133858267
20
0.809275590551181
11
0.9853967716535433
21
0.8140048031496063
0
LINE
8
BLACK
6
CONTINUOUS
10
0.9853967716535433
20
0.8140048031496063
11
0.9901259842519685
21
0.8176336614173229
0
LINE
8
BLACK
6
CONTINUOUS
10
0.9901259842519685
20
0.8176336614173229
11
0.9956332677165354
21
0.819914842519685
0
LINE
8
BLACK
6
CONTINUOUS
10
0.9956332677165354
20
0.819914842519685
11
1.0015433070866142
21
0.8206929133858267
0
LINE
8
BLACK
6
CONTINUOUS
10
1.0015433070866142
20
0.8206929133858267
11
1.0074533464566928
21
0.819914842519685
0
LINE
8
BLACK
6
CONTINUOUS
10
1.0074533464566928
20
0.911914842519685
11
1.0129606299212599
21
0.9096336614173228
0
LINE
8
BLACK
6
CONTINUOUS
10
1.0129606299212599
20
0.9096336614173228
11
1.017689842519685
21
0.9060048031496063
0
LINE
8
BLACK
6
CONTINUOUS
10
1.017689842519685
20
0.9060048031496063
11
1.0213187007874016
21
0.9012755905511811
0
LINE
8
BLACK
6
CONTINUOUS
10
1.0213187007874016
20
0.9012755905511811
11
1.0235998818897638
21
0.8957683070866141
0
LINE
8
BLACK
6
CONTINUOUS
10
1.0235998818897638
20
0.8957683070866141
11
1.0243779527559056
21
0.8898582677165354
0
LINE
8
BLACK
6
CONTINUOUS
10
1.0243779527559056
20
0.8898582677165354
11
1.0235998818897638
21
0.8839482283464567
0
LINE
8
BLACK
6
CONTINUOUS
10
1.0235998818897638
20
0.8839482283464567
11
1.0213187007874016
21
0.8784409448818897
0
LINE
8
BLACK
6
CONTINUOUS
10
1.0213187007874016
20
0.8784409448818897
11
1.017689842519685
21
0.8737117322834645
0
LINE
8
BLACK
6
CONTINUOUS
10
1.017689842519685
20
0.8737117322834645
11
1.0129606299212599
21
0.870082874015748
0
LINE
8
BLACK
6
CONTINUOUS
10
1.0129606299212599
20
0.870082874015748
11
1.0074533464566928
21
0.8678016929133858
0
LINE
8
BLACK
6
CONTINUOUS
10
1.0074533464566928
20
0.8678016929133858
11
1.0015433070866142
21
0.867023622047244
0
LINE
8
BLACK
6
CONTINUOUS
10
1.0015433070866142
20
0.867023622047244
11
0.9956332677165354
21
0.8678016929133858
0
LINE
8
BLACK
6
CONTINUOUS
10
0.9956332677165354
20
0.8678016929133858
11
0.9901259842519685
21
0.870082874015748
0
LINE
8
BLACK
6
CONTINUOUS
10
0.9901259842519685
20
0.870082874015748
11
0.9853967716535433
21
0.8737117322834645
0
LINE
8
BLACK
6
CONTINUOUS
10
0.9853967716535433
20
0.8737117322834645
11
0.9817679133858267
21
0.8784409448818897
0
LINE
8
BLACK
6
CONTINUOUS
10
0.9817679133858267
20
0.8784409448818897
11
0.9794867322834645
21
0.8839482283464567
0
LINE
8
BLACK
6
CONTINUOUS
10
0.9794867322834645
20
0.8839482283464567
11
0.9787086614173228
21
0.8898582677165354
0
LINE
8
BLACK
6
CONTINUOUS
10
0.9787086614173228
20
0.8898582677165354
11
0.9794867322834645
21
0.8957683070866141
0
LINE
8
BLACK
6
CONTINUOUS
10
0.9794867322834645
20
0.8957683070866141
11
0.9817679133858267
21
0.9012755905511811
0
LINE
8
BLACK
6
CONTINUOUS
10
0.9817679133858267
20
0.9012755905511811
11
0.9853967716535433
21
0.9060048031496063
0
LINE
8
BLACK
6
CONTINUOUS
10
0.9853967716535433
20
0.9060048031496063
11
0.9901259842519685
21
0.9096336614173228
0
LINE
8
BLACK
6
CONTINUOUS
10
0.9901259842519685
20
0.9096336614173228
11
0.9956332677165354
21
0.911914842519685
0
LINE
8
BLACK
6
CONTINUOUS
10
0.9956332677165354
20
0.911914842519685
11
1.0015433070866142
21
0.9126929133858267
0
LINE
8
BLACK
6
CONTINUOUS
10
1.0015433070866142
20
0.9126929133858267
11
1.0074533464566928
21
0.911914842519685
0
LINE
8
BLACK
6
CONTINUOUS
10
0.413576811023622
20
2.120497401574803
11
0.4269828346456693
21
2.1182196062992125
0
LINE
8
BLACK
6
CONTINUOUS
10
0.4269828346456693
20
2.1182196062992125
11
0.4400496062992126
21
2.114455157480315
0
LINE
8
BLACK
6
CONTINUOUS
10
0.4400496062992126
20
2.114455157480315
11
0.4526126771653543
21
2.109251338582677
0
LINE
8
BLACK
6
CONTINUOUS
10
0.4526126771653543
20
2.109251338582677
11
0.4645141338582677
21
2.1026736614173229
0
LINE
8
BLACK
6
CONTINUOUS
10
0.4645141338582677
20
2.1026736614173229
11
0.4756042913385827
21
2.0948047637795275
0
LINE
8
BLACK
6
CONTINUOUS
10
0.4756042913385827
20
2.0948047637795275
11
0.4857436614173228
21
2.0857436614173226
0
LINE
8
BLACK
6
CONTINUOUS
10
0.4857436614173228
20
2.0857436614173226
11
0.4948047637795275
21
2.0756042913385828
0
LINE
8
BLACK
6
CONTINUOUS
10
0.4948047637795275
20
2.0756042913385828
11
0.5026736614173228
21
2.0645141338582675
0
LINE
8
BLACK
6
CONTINUOUS
10
0.5026736614173228
20
2.0645141338582675
11
0.5092513385826771
21
2.0526126771653543
0
LINE
8
BLACK
6
CONTINUOUS
10
0.5092513385826771
20
2.0526126771653543
11
0.5144551574803149
21
2.0400496062992124
0
LINE
8
BLACK
6
CONTINUOUS
10
0.5144551574803149
20
2.0400496062992124
11
0.5182196062992126
21
2.0269828346456693
0
LINE
8
BLACK
6
CONTINUOUS
10
0.5182196062992126
20
2.0269828346456693
11
0.5204974015748032
21
2.0135768110236221
0
LINE
8
BLACK
6
CONTINUOUS
10
0.5204974015748032
20
2.0135768110236221
11
0.521259842519685
21
2.
0
LINE
8
BLACK
6
CONTINUOUS
10
0.521259842519685
20
2.
11
0.5204974015748032
21
1.9864231889763779
0
LINE
8
BLACK
6
CONTINUOUS
10
0.5204974015748032
20
1.9864231889763779
11
0.5182196062992126
21
1.9730171653543307
0
LINE
8
BLACK
6
CONTINUOUS
10
0.5182196062992126
20
1.9730171653543307
11
0.5144551574803149
21
1.9599503937007874
0
LINE
8
BLACK
6
CONTINUOUS
10
0.5144551574803149
20
1.9599503937007874
11
0.5092513385826771
21
1.9473873228346457
0
LINE
8
BLACK
6
CONTINUOUS
10
0.5092513385826771
20
1.9473873228346457
11
0.5026736614173228
21
1.9354858661417322
0
LINE
8
BLACK
6
CONTINUOUS
10
0.5026736614173228
20
1.9354858661417322
11
0.4948047637795275
21
1.9243957086614172
0
LINE
8
BLACK
6
CONTINUOUS
10
0.4948047637795275
20
1.9243957086614172
11
0.4857436614173228
21
1.9142563385826772
0
LINE
8
BLACK
6
CONTINUOUS
10
0.4857436614173228
20
1.9142563385826772
11
0.4756042913385827
21
1.9051952362204725
0
LINE
8
BLACK
6
CONTINUOUS
10
0.4756042913385827
20
1.9051952362204725
11
0.4645141338582677
21
1.8973263385826771
0
LINE
8
BLACK
6
CONTINUOUS
10
0.4645141338582677
20
1.8973263385826771
11
0.4526126771653543
21
1.8907486614173228
0
LINE
8
BLACK
6
CONTINUOUS
10
0.4526126771653543
20
1.8907486614173228
11
0.4400496062992126
21
1.885544842519685
0
LINE
8
BLACK
6
CONTINUOUS
10
0.4400496062992126
20
1.885544842519685
11
0.4269828346456693
21
1.8817803937007873
0
LINE
8
BLACK
6
CONTINUOUS
10
0.4269828346456693
20
1.8817803937007873
11
0.413576811023622
21
1.8795025984251967
0
LINE
8
BLACK
6
CONTINUOUS
10
0.413576811023622
20
1.8795025984251967
11
0.4
21
1.8787401574803149
0
LINE
8
BLACK
6
CONTINUOUS
10
0.4
20
1.8787401574803149
11
0.386423188976378
21
1.8795025984251967
0
LINE
8
BLACK
6
CONTINUOUS
10
0.386423188976378
20
1.8795025984251967
11
0.3730171653543307
21
1.8817803937007873
0
LINE
8
BLACK
6
CONTINUOUS
10
0.3730171653543307
20
1.8817803937007873
11
0.3599503937007874
21
1.885544842519685
0
LINE
8
BLACK
6
CONTINUOUS
10
0.3599503937007874
20
1.885544842519685
11
0.3473873228346457
21
1.8907486614173228
0
LINE
8
BLACK
6
CONTINUOUS
10
0.3473873228346457
20
1.8907486614173228
11
0.3354858661417323
21
1.8973263385826771
0
LINE
8
BLACK
6
CONTINUOUS
10
0.3354858661417323
20
1.8973263385826771
11
0.3243957086614173
21
1.9051952362204725
0
LINE
8
BLACK
6
CONTINUOUS
10
0.3243957086614173
20
1.9051952362204725
11
0.3142563385826772
21
1.9142563385826772
0
LINE
8
BLACK
6
CONTINUOUS
10
0.3142563385826772
20
1.9142563385826772
11
0.3051952362204725
21
1.9243957086614172
0
LINE
8
BLACK
6
CONTINUOUS
10
0.3051952362204725
20
1.9243957086614172
11
0.2973263385826772
21
1.9354858661417322
0
LINE
8
BLACK
6
CONTINUOUS
10
0.2973263385826772
20
1.9354858661417322
11
0.2907486614173228
21
1.9473873228346457
0
LINE
8
BLACK
6
CONTINUOUS
10
0.2907486614173228
20
1.9473873228346457
11
0.285544842519685
21
1.9599503937007874
0
LINE
8
BLACK
6
CONTINUOUS
10
0.285544842519685
20
1.9599503937007874
11
0.2817803937007874
21
1.9730171653543307
0
LINE
8
BLACK
6
CONTINUOUS
10
0.2817803937007874
20
1.9730171653543307
11
0.2795025984251969
21
1.9864231889763779
0
LINE
8
BLACK
6
CONTINUOUS
10
0.2795025984251969
20
1.9864231889763779
11
0.2787401574803149
21
2.
0
LINE
8
BLACK
6
CONTINUOUS
10
0.2787401574803149
20
2.
11
0.2795025984251969
21
2.0135768110236221
0
LINE
8
BLACK
6
CONTINUOUS
10
0.2795025984251969
20
2.0135768110236221
11
0.2817803937007874
21
2.0269828346456693
0
LINE
8
BLACK
6
CONTINUOUS
10
0.2817803937007874
20
2.0269828346456693
11
0.285544842519685
21
2.0400496062992124
0
LINE
8
BLACK
6
CONTINUOUS
10
0.285544842519685
20
2.0400496062992124
11
0.2907486614173228
21
2.0526126771653543
0
LINE
8
BLACK
6
CONTINUOUS
10
0.2907486614173228
20
2.0526126771653543
11
0.2973263385826772
21
2.0645141338582675
0
LINE
8
BLACK
6
CONTINUOUS
10
0.2973263385826772
20
2.0645141338582675
11
0.3051952362204725
21
2.0756042913385828
0
LINE
8
BLACK
6
CONTINUOUS
10
0.3051952362204725
20
2.0756042913385828
11
0.3142563385826772
21
2.0857436614173226
0
LINE
8
BLACK
6
CONTINUOUS
10
0.3142563385826772
20
2.0857436614173226
11
0.3243957086614173
21
2.0948047637795275
0
LINE
8
BLACK
6
CONTINUOUS
10
0.3243957086614173
20
2.0948047637795275
11
0.3354858661417323
21
2.1026736614173229
0
LINE
8
BLACK
6
CONTINUOUS
10
0.3354858661417323
20
2.1026736614173229
11
0.3473873228346457
21
2.109251338582677
0
LINE
8
BLACK
6
CONTINUOUS
10
0.3473873228346457
20
2.109251338582677
11
0.3599503937007874
21
2.114455157480315
0
LINE
8
BLACK
6
CONTINUOUS
10
0.3599503937007874
20
2.114455157480315
11
0.3730171653543307
21
2.1182196062992125
0
LINE
8
BLACK
6
CONTINUOUS
10
0.3730171653543307
20
2.1182196062992125
11
0.386423188976378
21
2.120497401574803
0
LINE
8
BLACK
6
CONTINUOUS
10
0.386423188976378
20
2.120497401574803
11
0.4
21
2.1212598425196849
0
LINE
8
BLACK
6
CONTINUOUS
10
0.4
20
2.1212598425196849
11
0.413576811023622
21
2.120497401574803
0
LINE
8
BLACK
6
CONTINUOUS
10
2.8135768110236219
20
2.120497401574803
11
2.8269828346456691
21
2.1182196062992125
0
LINE
8
BLACK
6
CONTINUOUS
10
2.8269828346456691
20
2.1182196062992125
11
2.8400496062992127
21
2.114455157480315
0
LINE
8
BLACK
6
CONTINUOUS
10
2.8400496062992127
20
2.114455157480315
11
2.8526126771653542
21
2.109251338582677
0
LINE
8
BLACK
6
CONTINUOUS
10
2.8526126771653542
20
2.109251338582677
11
2.8645141338582678
21
2.1026736614173229
0
LINE
8
BLACK
6
CONTINUOUS
10
2.8645141338582678
20
2.1026736614173229
11
2.8756042913385826
21
2.0948047637795275
0
LINE
8
BLACK
6
CONTINUOUS
10
2.8756042913385826
20
2.0948047637795275
11
2.8857436614173229
21
2.0857436614173226
0
LINE
8
BLACK
6
CONTINUOUS
10
2.8857436614173229
20
2.0857436614173226
11
2.8948047637795273
21
2.0756042913385828
0
LINE
8
BLACK
6
CONTINUOUS
10
2.8948047637795273
20
2.0756042913385828
11
2.9026736614173227
21
2.0645141338582675
0
LINE
8
BLACK
6
CONTINUOUS
10
2.9026736614173227
20
2.0645141338582675
11
2.9092513385826773
21
2.0526126771653543
0
LINE
8
BLACK
6
CONTINUOUS
10
2.9092513385826773
20
2.0526126771653543
11
2.9144551574803148
21
2.0400496062992124
0
LINE
8
BLACK
6
CONTINUOUS
10
2.9144551574803148
20
2.0400496062992124
11
2.9182196062992127
21
2.0269828346456693
0
LINE
8
BLACK
6
CONTINUOUS
10
2.9182196062992127
20
2.0269828346456693
11
2.9204974015748029
21
2.0135768110236221
0
LINE
8
BLACK
6
CONTINUOUS
10
2.9204974015748029
20
2.0135768110236221
11
2.9212598425196852
21
2.
0
LINE
8
BLACK
6
CONTINUOUS
10
2.9212598425196852
20
2.
11
2.9204974015748029
21
1.9864231889763779
0
LINE
8
BLACK
6
CONTINUOUS
10
2.9204974015748029
20
1.9864231889763779
11
2.9182196062992127
21
1.9730171653543307
0
LINE
8
BLACK
6
CONTINUOUS
10
2.9182196062992127
20
1.9730171653543307
11
2.9144551574803148
21
1.9599503937007874
0
LINE
8
BLACK
6
CONTINUOUS
10
2.9144551574803148
20
1.9599503937007874
11
2.9092513385826773
21
1.9473873228346457
0
LINE
8
BLACK
6
CONTINUOUS
10
2.9092513385826773
20
1.9473873228346457
11
2.9026736614173227
21
1.9354858661417322
0
LINE
8
BLACK
6
CONTINUOUS
10
2.9026736614173227
20
1.9354858661417322
11
2.8948047637795273
21
1.9243957086614172
0
LINE
8
BLACK
6
CONTINUOUS
10
2.8948047637795273
20
1.9243957086614172
11
2.8857436614173229
21
1.9142563385826772
0
LINE
8
BLACK
6
CONTINUOUS
10
2.8857436614173229
20
1.9142563385826772
11
2.8756042913385826
21
1.9051952362204725
0
LINE
8
BLACK
6
CONTINUOUS
10
2.8756042913385826
20
1.9051952362204725
11
2.8645141338582678
21
1.8973263385826771
0
LINE
8
BLACK
6
CONTINUOUS
10
2.8645141338582678
20
1.8973263385826771
11
2.8526126771653542
21
1.8907486614173228
0
LINE
8
BLACK
6
CONTINUOUS
10
2.8526126771653542
20
1.8907486614173228
11
2.8400496062992127
21
1.885544842519685
0
LINE
8
BLACK
6
CONTINUOUS
10
2.8400496062992127
20
1.885544842519685
11
2.8269828346456691
21
1.8817803937007873
0
LINE
8
BLACK
6
CONTINUOUS
10
2.8269828346456691
20
1.8817803937007873
11
2.8135768110236219
21
1.8795025984251967
0
LINE
8
BLACK
6
CONTINUOUS
10
2.8135768110236219
20
1.8795025984251967
11
2.7999999999999998
21
1.8787401574803149
0
LINE
8
BLACK
6
CONTINUOUS
10
2.7999999999999998
20
1.8787401574803149
11
2.7864231889763778
21
1.8795025984251967
0
LINE
8
BLACK
6
CONTINUOUS
10
2.7864231889763778
20
1.8795025984251967
11
2.7730171653543305
21
1.8817803937007873
0
LINE
8
BLACK
6
CONTINUOUS
10
2.7730171653543305
20
1.8817803937007873
11
2.7599503937007874
21
1.885544842519685
0
LINE
8
BLACK
6
CONTINUOUS
10
2.7599503937007874
20
1.885544842519685
11
2.7473873228346455
21
1.8907486614173228
0
LINE
8
BLACK
6
CONTINUOUS
10
2.7473873228346455
20
1.8907486614173228
11
2.7354858661417323
21
1.8973263385826771
0
LINE
8
BLACK
6
CONTINUOUS
10
2.7354858661417323
20
1.8973263385826771
11
2.7243957086614174
21
1.9051952362204725
0
LINE
8
BLACK
6
CONTINUOUS
10
2.7243957086614174
20
1.9051952362204725
11
2.7142563385826772
21
1.9142563385826772
0
LINE
8
BLACK
6
CONTINUOUS
10
2.7142563385826772
20
1.9142563385826772
11
2.7051952362204723
21
1.9243957086614172
0
LINE
8
BLACK
6
CONTINUOUS
10
2.7051952362204723
20
1.9243957086614172
11
2.6973263385826769
21
1.9354858661417322
0
LINE
8
BLACK
6
CONTINUOUS
10
2.6973263385826769
20
1.9354858661417322
11
2.6907486614173228
21
1.9473873228346457
0
LINE
8
BLACK
6
CONTINUOUS
10
2.6907486614173228
20
1.9473873228346457
11
2.6855448425196848
21
1.9599503937007874
0
LINE
8
BLACK
6
CONTINUOUS
10
2.6855448425196848
20
1.9599503937007874
11
2.6817803937007874
21
1.9730171653543307
0
LINE
8
BLACK
6
CONTINUOUS
10
2.6817803937007874
20
1.9730171653543307
11
2.6795025984251968
21
1.9864231889763779
0
LINE
8
BLACK
6
CONTINUOUS
10
2.6795025984251968
20
1.9864231889763779
11
2.6787401574803149
21
2.
0
LINE
8
BLACK
6
CONTINUOUS
10
2.6787401574803149
20
2.
11
2.6795025984251968
21
2.0135768110236221
0
LINE
8
BLACK
6
CONTINUOUS
10
2.6795025984251968
20
2.0135768110236221
11
2.6817803937007874
21
2.0269828346456693
0
LINE
8
BLACK
6
CONTINUOUS
10
2.6817803937007874
20
2.0269828346456693
11
2.6855448425196848
21
2.0400496062992124
0
LINE
8
BLACK
6
CONTINUOUS
10
2.6855448425196848
20
2.0400496062992124
11
2.6907486614173228
21
2.0526126771653543
0
LINE
8
BLACK
6
CONTINUOUS
10
2.6907486614173228
20
2.0526126771653543
11
2.6973263385826769
21
2.0645141338582675
0
LINE
8
BLACK
6
CONTINUOUS
10
2.6973263385826769
20
2.0645141338582675
11
2.7051952362204723
21
2.0756042913385828
0
LINE
8
BLACK
6
CONTINUOUS
10
2.7051952362204723
20
2.0756042913385828
11
2.7142563385826772
21
2.0857436614173226
0
LINE
8
BLACK
6
CONTINUOUS
10
2.7142563385826772
20
2.0857436614173226
11
2.7243957086614174
21
2.0948047637795275
0
LINE
8
BLACK
6
CONTINUOUS
10
2.7243957086614174
20
2.0948047637795275
11
2.7354858661417323
21
2.1026736614173229
0
LINE
8
BLACK
6
CONTINUOUS
10
2.7354858661417323
20
2.1026736614173229
11
2.7473873228346455
21
2.109251338582677
0
LINE
8
BLACK
6
CONTINUOUS
10
2.7473873228346455
20
2.109251338582677
11
2.7599503937007874
21
2.114455157480315
0
LINE
8
BLACK
6
CONTINUOUS
10
2.7599503937007874
20
2.114455157480315
11
2.7730171653543305
21
2.1182196062992125
0
LINE
8
BLACK
6
CONTINUOUS
10
2.7730171653543305
20
2.1182196062992125
11
2.7864231889763778
21
2.120497401574803
0
LINE
8
BLACK
6
CONTINUOUS
10
2.7864231889763778
20
2.120497401574803
11
2.7999999999999998
21
2.1212598425196849
0
LINE
8
BLACK
6
CONTINUOUS
10
2.7999999999999998
20
2.1212598425196849
11
2.8135768110236219
21
2.120497401574803
0
LINE
8
BLACK
6
CONTINUOUS
10
0.9312053149606299
20
2.0329098425196852
11
0.9322271259842519
21
2.0322271259842517
0
LINE
8
BLACK
6
CONTINUOUS
10
0.9322271259842519
20
2.0322271259842517
11
0.932909842519685
21
2.0312053149606299
0
LINE
8
BLACK
6
CONTINUOUS
10
0.932909842519685
20
2.0312053149606299
11
0.9331496062992126
21
2.0299999999999998
0
LINE
8
BLACK
6
CONTINUOUS
10
0.9331496062992126
20
2.0299999999999998
11
0.9331496062992126
21
1.97
0
LINE
8
BLACK
6
CONTINUOUS
10
0.9331496062992126
20
1.97
11
0.932909842519685
21
1.9687946850393701
0
LINE
8
BLACK
6
CONTINUOUS
10
0.932909842519685
20
1.9687946850393701
11
0.9322271259842519
21
1.9677728740157481
0
LINE
8
BLACK
6
CONTINUOUS
10
0.9322271259842519
20
1.9677728740157481
11
0.9312053149606299
21
1.967090157480315
0
LINE
8
BLACK
6
CONTINUOUS
10
0.9312053149606299
20
1.967090157480315
11
0.9299999999999999
21
1.9668503937007873
0
LINE
8
BLACK
6
CONTINUOUS
10
0.9299999999999999
20
1.9668503937007873
11
0.87
21
1.9668503937007873
0
LINE
8
BLACK
6
CONTINUOUS
10
0.87
20
1.9668503937007873
11
0.8687946850393701
21
1.967090157480315
0
LINE
8
BLACK
6
CONTINUOUS
10
0.8687946850393701
20
1.967090157480315
11
0.867772874015748
21
1.9677728740157481
0
LINE
8
BLACK
6
CONTINUOUS
10
0.867772874015748
20
1.9677728740157481
11
0.8670901574803149
21
1.9687946850393701
0
LINE
8
BLACK
6
CONTINUOUS
10
0.8670901574803149
20
1.9687946850393701
11
0.8668503937007874
21
1.97
0
LINE
8
BLACK
6
CONTINUOUS
10
0.8668503937007874
20
1.97
11
0.8668503937007874
21
2.0299999999999998
0
LINE
8
BLACK
6
CONTINUOUS
10
0.8668503937007874
20
2.0299999999999998
11
0.8670901574803149
21
2.0312053149606299
0
LINE
8
BLACK
6
CONTINUOUS
10
0.8670901574803149
20
2.0312053149606299
11
0.867772874015748
21
2.0322271259842517
0
LINE
8
BLACK
6
CONTINUOUS
10
0.867772874015748
20
2.0322271259842517
11
0.8687946850393701
21
2.0329098425196852
0
LINE
8
BLACK
6
CONTINUOUS
10
0.8687946850393701
20
2.0329098425196852
11
0.87
21
2.0331496062992125
0
LINE
8
BLACK
6
CONTINUOUS
10
0.87
20
2.0331496062992125
11
0.9299999999999999
21
2.0331496062992125
0
LINE
8
BLACK
6
CONTINUOUS
10
0.9299999999999999
20
2.0331496062992125
11
0.9312053149606299
21
2.0329098425196852
0
LINE
8
BLACK
6
CONTINUOUS
10
1.0312053149606299
20
2.0329098425196852
11
1.0322271259842519
21
2.0322271259842517
0
LINE
8
BLACK
6
CONTINUOUS
10
1.0322271259842519
20
2.0322271259842517
11
1.032909842519685
21
2.0312053149606299
0
LINE
8
BLACK
6
CONTINUOUS
10
1.032909842519685
20
2.0312053149606299
11
1.0331496062992125
21
2.0299999999999998
0
LINE
8
BLACK
6
CONTINUOUS
10
1.0331496062992125
20
2.0299999999999998
11
1.0331496062992125
21
1.97
0
LINE
8
BLACK
6
CONTINUOUS
10
1.0331496062992125
20
1.97
11
1.032909842519685
21
1.9687946850393701
0
LINE
8
BLACK
6
CONTINUOUS
10
1.032909842519685
20
1.9687946850393701
11
1.0322271259842519
21
1.9677728740157481
0
LINE
8
BLACK
6
CONTINUOUS
10
1.0322271259842519
20
1.9677728740157481
11
1.0312053149606299
21
1.967090157480315
0
LINE
8
BLACK
6
CONTINUOUS
10
1.0312053149606299
20
1.967090157480315
11
1.03
21
1.9668503937007873
0
LINE
8
BLACK
6
CONTINUOUS
10
1.03
20
1.9668503937007873
11
0.97
21
1.9668503937007873
0
LINE
8
BLACK
6
CONTINUOUS
10
0.97
20
1.9668503937007873
11
0.9687946850393701
21
1.967090157480315
0
LINE
8
BLACK
6
CONTINUOUS
10
0.9687946850393701
20
1.967090157480315
11
0.967772874015748
21
1.9677728740157481
0
LINE
8
BLACK
6
CONTINUOUS
10
0.967772874015748
20
1.9677728740157481
11
0.9670901574803149
21
1.9687946850393701
0
LINE
8
BLACK
6
CONTINUOUS
10
0.9670901574803149
20
1.9687946850393701
11
0.9668503937007874
21
1.97
0
LINE
8
BLACK
6
CONTINUOUS
10
0.9668503937007874
20
1.97
11
0.9668503937007874
21
2.0299999999999998
0
LINE
8
BLACK
6
CONTINUOUS
10
0.9668503937007874
20
2.0299999999999998
11
0.9670901574803149
21
2.0312053149606299
0
LINE
8
BLACK
6
CONTINUOUS
10
0.9670901574803149
20
2.0312053149606299
11
0.967772874015748
21
2.0322271259842517
0
LINE
8
BLACK
6
CONTINUOUS
10
0.967772874015748
20
2.0322271259842517
11
0.9687946850393701
21
2.0329098425196852
0
LINE
8
BLACK
6
CONTINUOUS
10
0.9687946850393701
20
2.0329098425196852
11
0.97
21
2.0331496062992125
0
LINE
8
BLACK
6
CONTINUOUS
10
0.97
20
2.0331496062992125
11
1.03
21
2.0331496062992125
0
LINE
8
BLACK
6
CONTINUOUS
10
1.03
20
2.0331496062992125
11
1.0312053149606299
21
2.0329098425196852
0
LINE
8
BLACK
6
CONTINUOUS
10
1.1312053149606298
20
2.0329098425196852
11
1.132227125984252
21
2.0322271259842517
0
LINE
8
BLACK
6
CONTINUOUS
10
1.132227125984252
20
2.0322271259842517
11
1.1329098425196851
21
2.0312053149606299
0
LINE
8
BLACK
6
CONTINUOUS
10
1.1329098425196851
20
2.0312053149606299
11
1.1331496062992126
21
2.0299999999999998
0
LINE
8
BLACK
6
CONTINUOUS
10
1.1331496062992126
20
2.0299999999999998
11
1.1331496062992126
21
1.97
0
LINE
8
BLACK
6
CONTINUOUS
10
1.1331496062992126
20
1.97
11
1.1329098425196851
21
1.9687946850393701
0
LINE
8
BLACK
6
CONTINUOUS
10
1.1329098425196851
20
1.9687946850393701
11
1.132227125984252
21
1.9677728740157481
0
LINE
8
BLACK
6
CONTINUOUS
10
1.132227125984252
20
1.9677728740157481
11
1.1312053149606298
21
1.967090157480315
0
LINE
8
BLACK
6
CONTINUOUS
10
1.1312053149606298
20
1.967090157480315
11
1.1299999999999999
21
1.9668503937007873
0
LINE
8
BLACK
6
CONTINUOUS
10
1.1299999999999999
20
1.9668503937007873
11
1.0700000000000001
21
1.9668503937007873
0
LINE
8
BLACK
6
CONTINUOUS
10
1.0700000000000001
20
1.9668503937007873
11
1.0687946850393701
21
1.967090157480315
0
LINE
8
BLACK
6
CONTINUOUS
10
1.0687946850393701
20
1.967090157480315
11
1.0677728740157479
21
1.9677728740157481
0
LINE
8
BLACK
6
CONTINUOUS
10
1.0677728740157479
20
1.9677728740157481
11
1.0670901574803149
21
1.9687946850393701
0
LINE
8
BLACK
6
CONTINUOUS
10
1.0670901574803149
20
1.9687946850393701
11
1.0668503937007874
21
1.97
0
LINE
8
BLACK
6
CONTINUOUS
10
1.0668503937007874
20
1.97
11
1.0668503937007874
21
2.0299999999999998
0
LINE
8
BLACK
6
CONTINUOUS
10
1.0668503937007874
20
2.0299999999999998
11
1.0670901574803149
21
2.0312053149606299
0
LINE
8
BLACK
6
CONTINUOUS
10
1.0670901574803149
20
2.0312053149606299
11
1.0677728740157479
21
2.0322271259842517
0
LINE
8
BLACK
6
CONTINUOUS
10
1.0677728740157479
20
2.0322271259842517
11
1.0687946850393701
21
2.0329098425196852
0
LINE
8
BLACK
6
CONTINUOUS
10
1.0687946850393701
20
2.0329098425196852
11
1.0700000000000001
21
2.0331496062992125
0
LINE
8
BLACK
6
CONTINUOUS
10
1.0700000000000001
20
2.0331496062992125
11
1.1299999999999999
21
2.0331496062992125
0
LINE
8
BLACK
6
CONTINUOUS
10
1.1299999999999999
20
2.0331496062992125
11
1.1312053149606298
21
2.0329098425196852
0
LINE
8
BLACK
6
CONTINUOUS
10
1.2312053149606299
20
2.0329098425196852
11
1.2322271259842519
21
2.0322271259842517
0
LINE
8
BLACK
6
CONTINUOUS
10
1.2322271259842519
20
2.0322271259842517
11
1.2329098425196849
21
2.0312053149606299
0
LINE
8
BLACK
6
CONTINUOUS
10
1.2329098425196849
20
2.0312053149606299
11
1.2331496062992127
21
2.0299999999999998
0
LINE
8
BLACK
6
CONTINUOUS
10
1.2331496062992127
20
2.0299999999999998
11
1.2331496062992127
21
1.97
0
LINE
8
BLACK
6
CONTINUOUS
10
1.2331496062992127
20
1.97
11
1.2329098425196849
21
1.9687946850393701
0
LINE
8
BLACK
6
CONTINUOUS
10
1.2329098425196849
20
1.9687946850393701
11
1.2322271259842519
21
1.9677728740157481
0
LINE
8
BLACK
6
CONTINUOUS
10
1.2322271259842519
20
1.9677728740157481
11
1.2312053149606299
21
1.967090157480315
0
LINE
8
BLACK
6
CONTINUOUS
10
1.2312053149606299
20
1.967090157480315
11
1.23
21
1.9668503937007873
0
LINE
8
BLACK
6
CONTINUOUS
10
1.23
20
1.9668503937007873
11
1.1699999999999999
21
1.9668503937007873
0
LINE
8
BLACK
6
CONTINUOUS
10
1.1699999999999999
20
1.9668503937007873
11
1.16879468503937
21
1.967090157480315
0
LINE
8
BLACK
6
CONTINUOUS
10
1.16879468503937
20
1.967090157480315
11
1.167772874015748
21
1.9677728740157481
0
LINE
8
BLACK
6
CONTINUOUS
10
1.167772874015748
20
1.9677728740157481
11
1.167090157480315
21
1.9687946850393701
0
LINE
8
BLACK
6
CONTINUOUS
10
1.167090157480315
20
1.9687946850393701
11
1.1668503937007875
21
1.97
0
LINE
8
BLACK
6
CONTINUOUS
10
1.1668503937007875
20
1.97
11
1.1668503937007875
21
2.0299999999999998
0
LINE
8
BLACK
6
CONTINUOUS
10
1.1668503937007875
20
2.0299999999999998
11
1.167090157480315
21
2.0312053149606299
0
LINE
8
BLACK
6
CONTINUOUS
10
1.167090157480315
20
2.0312053149606299
11
1.167772874015748
21
2.0322271259842517
0
LINE
8
BLACK
6
CONTINUOUS
10
1.167772874015748
20
2.0322271259842517
11
1.16879468503937
21
2.0329098425196852
0
LINE
8
BLACK
6
CONTINUOUS
10
1.16879468503937
20
2.0329098425196852
11
1.1699999999999999
21
2.0331496062992125
0
LINE
8
BLACK
6
CONTINUOUS
10
1.1699999999999999
20
2.0331496062992125
11
1.23
21
2.0331496062992125
0
LINE
8
BLACK
6
CONTINUOUS
10
1.23
20
2.0331496062992125
11
1.2312053149606299
21
2.0329098425196852
0
LINE
8
BLACK
6
CONTINUOUS
10
1.33120531496063
20
2.0329098425196852
11
1.332227125984252
21
2.0322271259842517
0
LINE
8
BLACK
6
CONTINUOUS
10
1.332227125984252
20
2.0322271259842517
11
1.332909842519685
21
2.0312053149606299
0
LINE
8
BLACK
6
CONTINUOUS
10
1.332909842519685
20
2.0312053149606299
11
1.3331496062992125
21
2.0299999999999998
0
LINE
8
BLACK
6
CONTINUOUS
10
1.3331496062992125
20
2.0299999999999998
11
1.3331496062992125
21
1.97
0
LINE
8
BLACK
6
CONTINUOUS
10
1.3331496062992125
20
1.97
11
1.332909842519685
21
1.9687946850393701
0
LINE
8
BLACK
6
CONTINUOUS
10
1.332909842519685
20
1.9687946850393701
11
1.332227125984252
21
1.9677728740157481
0
LINE
8
BLACK
6
CONTINUOUS
10
1.332227125984252
20
1.9677728740157481
11
1.33120531496063
21
1.967090157480315
0
LINE
8
BLACK
6
CONTINUOUS
10
1.33120531496063
20
1.967090157480315
11
1.3300000000000001
21
1.9668503937007873
0
LINE
8
BLACK
6
CONTINUOUS
10
1.3300000000000001
20
1.9668503937007873
11
1.27
21
1.9668503937007873
0
LINE
8
BLACK
6
CONTINUOUS
10
1.27
20
1.9668503937007873
11
1.2687946850393701
21
1.967090157480315
0
LINE
8
BLACK
6
CONTINUOUS
10
1.2687946850393701
20
1.967090157480315
11
1.2677728740157479
21
1.9677728740157481
0
LINE
8
BLACK
6
CONTINUOUS
10
1.2677728740157479
20
1.9677728740157481
11
1.2670901574803148
21
1.9687946850393701
0
LINE
8
BLACK
6
CONTINUOUS
10
1.2670901574803148
20
1.9687946850393701
11
1.2668503937007873
21
1.97
0
LINE
8
BLACK
6
CONTINUOUS
10
1.2668503937007873
20
1.97
11
1.2668503937007873
21
2.0299999999999998
0
LINE
8
BLACK
6
CONTINUOUS
10
1.2668503937007873
20
2.0299999999999998
11
1.2670901574803148
21
2.0312053149606299
0
LINE
8
BLACK
6
CONTINUOUS
10
1.2670901574803148
20
2.0312053149606299
11
1.2677728740157479
21
2.0322271259842517
0
LINE
8
BLACK
6
CONTINUOUS
10
1.2677728740157479
20
2.0322271259842517
11
1.2687946850393701
21
2.0329098425196852
0
LINE
8
BLACK
6
CONTINUOUS
10
1.2687946850393701
20
2.0329098425196852
11
1.27
21
2.0331496062992125
0
LINE
8
BLACK
6
CONTINUOUS
10
1.27
20
2.0331496062992125
11
1.3300000000000001
21
2.0331496062992125
0
LINE
8
BLACK
6
CONTINUOUS
10
1.3300000000000001
20
2.0331496062992125
11
1.33120531496063
21
2.0329098425196852
0
LINE
8
BLACK
6
CONTINUOUS
10
1.4312053149606299
20
2.0329098425196852
11
1.4322271259842518
21
2.0322271259842517
0
LINE
8
BLACK
6
CONTINUOUS
10
1.4322271259842518
20
2.0322271259842517
11
1.4329098425196851
21
2.0312053149606299
0
LINE
8
BLACK
6
CONTINUOUS
10
1.4329098425196851
20
2.0312053149606299
11
1.4331496062992126
21
2.0299999999999998
0
LINE
8
BLACK
6
CONTINUOUS
10
1.4331496062992126
20
2.0299999999999998
11
1.4331496062992126
21
1.97
0
LINE
8
BLACK
6
CONTINUOUS
10
1.4331496062992126
20
1.97
11
1.4329098425196851
21
1.9687946850393701
0
LINE
8
BLACK
6
CONTINUOUS
10
1.4329098425196851
20
1.9687946850393701
11
1.4322271259842518
21
1.9677728740157481
0
LINE
8
BLACK
6
CONTINUOUS
10
1.4322271259842518
20
1.9677728740157481
11
1.4312053149606299
21
1.967090157480315
0
LINE
8
BLACK
6
CONTINUOUS
10
1.4312053149606299
20
1.967090157480315
11
1.4299999999999999
21
1.9668503937007873
0
LINE
8
BLACK
6
CONTINUOUS
10
1.4299999999999999
20
1.9668503937007873
11
1.3699999999999999
21
1.9668503937007873
0
LINE
8
BLACK
6
CONTINUOUS
10
1.3699999999999999
20
1.9668503937007873
11
1.36879468503937
21
1.967090157480315
0
LINE
8
BLACK
6
CONTINUOUS
10
1.36879468503937
20
1.967090157480315
11
1.367772874015748
21
1.9677728740157481
0
LINE
8
BLACK
6
CONTINUOUS
10
1.367772874015748
20
1.9677728740157481
11
1.3670901574803149
21
1.9687946850393701
0
LINE
8
BLACK
6
CONTINUOUS
10
1.3670901574803149
20
1.9687946850393701
11
1.3668503937007874
21
1.97
0
LINE
8
BLACK
6
CONTINUOUS
10
1.3668503937007874
20
1.97
11
1.3668503937007874
21
2.0299999999999998
0
LINE
8
BLACK
6
CONTINUOUS
10
1.3668503937007874
20
2.0299999999999998
11
1.3670901574803149
21
2.0312053149606299
0
LINE
8
BLACK
6
CONTINUOUS
10
1.3670901574803149
20
2.0312053149606299
11
1.367772874015748
21
2.0322271259842517
0
LINE
8
BLACK
6
CONTINUOUS
10
1.367772874015748
20
2.0322271259842517
11
1.36879468503937
21
2.0329098425196852
0
LINE
8
BLACK
6
CONTINUOUS
10
1.36879468503937
20
2.0329098425196852
11
1.3699999999999999
21
2.0331496062992125
0
LINE
8
BLACK
6
CONTINUOUS
10
1.3699999999999999
20
2.0331496062992125
11
1.4299999999999999
21
2.0331496062992125
0
LINE
8
BLACK
6
CONTINUOUS
10
1.4299999999999999
20
2.0331496062992125
11
1.4312053149606299
21
2.0329098425196852
0
LINE
8
BLACK
6
CONTINUOUS
10
1.5312053149606299
20
2.0329098425196852
11
1.5322271259842519
21
2.0322271259842517
0
LINE
8
BLACK
6
CONTINUOUS
10
1.5322271259842519
20
2.0322271259842517
11
1.532909842519685
21
2.0312053149606299
0
LINE
8
BLACK
6
CONTINUOUS
10
1.532909842519685
20
2.0312053149606299
11
1.5331496062992125
21
2.0299999999999998
0
LINE
8
BLACK
6
CONTINUOUS
10
1.5331496062992125
20
2.0299999999999998
11
1.5331496062992125
21
1.97
0
LINE
8
BLACK
6
CONTINUOUS
10
1.5331496062992125
20
1.97
11
1.532909842519685
21
1.9687946850393701
0
LINE
8
BLACK
6
CONTINUOUS
10
1.532909842519685
20
1.9687946850393701
11
1.5322271259842519
21
1.9677728740157481
0
LINE
8
BLACK
6
CONTINUOUS
10
1.5322271259842519
20
1.9677728740157481
11
1.5312053149606299
21
1.967090157480315
0
LINE
8
BLACK
6
CONTINUOUS
10
1.5312053149606299
20
1.967090157480315
11
1.53
21
1.9668503937007873
0
LINE
8
BLACK
6
CONTINUOUS
10
1.53
20
1.9668503937007873
11
1.47
21
1.9668503937007873
0
LINE
8
BLACK
6
CONTINUOUS
10
1.47
20
1.9668503937007873
11
1.4687946850393701
21
1.967090157480315
0
LINE
8
BLACK
6
CONTINUOUS
10
1.4687946850393701
20
1.967090157480315
11
1.4677728740157481
21
1.9677728740157481
0
LINE
8
BLACK
6
CONTINUOUS
10
1.4677728740157481
20
1.9677728740157481
11
1.467090157480315
21
1.9687946850393701
0
LINE
8
BLACK
6
CONTINUOUS
10
1.467090157480315
20
1.9687946850393701
11
1.4668503937007873
21
1.97
0
LINE
8
BLACK
6
CONTINUOUS
10
1.4668503937007873
20
1.97
11
1.4668503937007873
21
2.0299999999999998
0
LINE
8
BLACK
6
CONTINUOUS
10
1.4668503937007873
20
2.0299999999999998
11
1.467090157480315
21
2.0312053149606299
0
LINE
8
BLACK
6
CONTINUOUS
10
1.467090157480315
20
2.0312053149606299
11
1.4677728740157481
21
2.0322271259842517
0
LINE
8
BLACK
6
CONTINUOUS
10
1.4677728740157481
20
2.0322271259842517
11
1.4687946850393701
21
2.0329098425196852
0
LINE
8
BLACK
6
CONTINUOUS
10
1.4687946850393701
20
2.0329098425196852
11
1.47
21
2.0331496062992125
0
LINE
8
BLACK
6
CONTINUOUS
10
1.47
20
2.0331496062992125
11
1.53
21
2.0331496062992125
0
LINE
8
BLACK
6
CONTINUOUS
10
1.53
20
2.0331496062992125
11
1.5312053149606299
21
2.0329098425196852
0
LINE
8
BLACK
6
CONTINUOUS
10
1.6312053149606298
20
2.0329098425196852
11
1.632227125984252
21
2.0322271259842517
0
LINE
8
BLACK
6
CONTINUOUS
10
1.632227125984252
20
2.0322271259842517
11
1.6329098425196851
21
2.0312053149606299
0
LINE
8
BLACK
6
CONTINUOUS
10
1.6329098425196851
20
2.0312053149606299
11
1.6331496062992126
21
2.0299999999999998
0
LINE
8
BLACK
6
CONTINUOUS
10
1.6331496062992126
20
2.0299999999999998
11
1.6331496062992126
21
1.97
0
LINE
8
BLACK
6
CONTINUOUS
10
1.6331496062992126
20
1.97
11
1.6329098425196851
21
1.9687946850393701
0
LINE
8
BLACK
6
CONTINUOUS
10
1.6329098425196851
20
1.9687946850393701
11
1.632227125984252
21
1.9677728740157481
0
LINE
8
BLACK
6
CONTINUOUS
10
1.632227125984252
20
1.9677728740157481
11
1.6312053149606298
21
1.967090157480315
0
LINE
8
BLACK
6
CONTINUOUS
10
1.6312053149606298
20
1.967090157480315
11
1.6299999999999999
21
1.9668503937007873
0
LINE
8
BLACK
6
CONTINUOUS
10
1.6299999999999999
20
1.9668503937007873
11
1.5700000000000001
21
1.9668503937007873
0
LINE
8
BLACK
6
CONTINUOUS
10
1.5700000000000001
20
1.9668503937007873
11
1.5687946850393701
21
1.967090157480315
0
LINE
8
BLACK
6
CONTINUOUS
10
1.5687946850393701
20
1.967090157480315
11
1.5677728740157479
21
1.9677728740157481
0
LINE
8
BLACK
6
CONTINUOUS
10
1.5677728740157479
20
1.9677728740157481
11
1.5670901574803149
21
1.9687946850393701
0
LINE
8
BLACK
6
CONTINUOUS
10
1.5670901574803149
20
1.9687946850393701
11
1.5668503937007874
21
1.97
0
LINE
8
BLACK
6
CONTINUOUS
10
1.5668503937007874
20
1.97
11
1.5668503937007874
21
2.0299999999999998
0
LINE
8
BLACK
6
CONTINUOUS
10
1.5668503937007874
20
2.0299999999999998
11
1.5670901574803149
21
2.0312053149606299
0
LINE
8
BLACK
6
CONTINUOUS
10
1.5670901574803149
20
2.0312053149606299
11
1.5677728740157479
21
2.0322271259842517
0
LINE
8
BLACK
6
CONTINUOUS
10
1.5677728740157479
20
2.0322271259842517
11
1.5687946850393701
21
2.0329098425196852
0
LINE
8
BLACK
6
CONTINUOUS
10
1.5687946850393701
20
2.0329098425196852
11
1.5700000000000001
21
2.0331496062992125
0
LINE
8
BLACK
6
CONTINUOUS
10
1.5700000000000001
20
2.0331496062992125
11
1.6299999999999999
21
2.0331496062992125
0
LINE
8
BLACK
6
CONTINUOUS
10
1.6299999999999999
20
2.0331496062992125
11
1.6312053149606298
21
2.0329098425196852
0
LINE
8
BLACK
6
CONTINUOUS
10
1.7312053149606299
20
2.0329098425196852
11
1.7322271259842519
21
2.0322271259842517
0
LINE
8
BLACK
6
CONTINUOUS
10
1.7322271259842519
20
2.0322271259842517
11
1.7329098425196849
21
2.0312053149606299
0
LINE
8
BLACK
6
CONTINUOUS
10
1.7329098425196849
20
2.0312053149606299
11
1.7331496062992127
21
2.0299999999999998
0
LINE
8
BLACK
6
CONTINUOUS
10
1.7331496062992127
20
2.0299999999999998
11
1.7331496062992127
21
1.97
0
LINE
8
BLACK
6
CONTINUOUS
10
1.7331496062992127
20
1.97
11
1.7329098425196849
21
1.9687946850393701
0
LINE
8
BLACK
6
CONTINUOUS
10
1.7329098425196849
20
1.9687946850393701
11
1.7322271259842519
21
1.9677728740157481
0
LINE
8
BLACK
6
CONTINUOUS
10
1.7322271259842519
20
1.9677728740157481
11
1.7312053149606299
21
1.967090157480315
0
LINE
8
BLACK
6
CONTINUOUS
10
1.7312053149606299
20
1.967090157480315
11
1.73
21
1.9668503937007873
0
LINE
8
BLACK
6
CONTINUOUS
10
1.73
20
1.9668503937007873
11
1.6699999999999999
21
1.9668503937007873
0
LINE
8
BLACK
6
CONTINUOUS
10
1.6699999999999999
20
1.9668503937007873
11
1.66879468503937
21
1.967090157480315
0
LINE
8
BLACK
6
CONTINUOUS
10
1.66879468503937
20
1.967090157480315
11
1.667772874015748
21
1.9677728740157481
0
LINE
8
BLACK
6
CONTINUOUS
10
1.667772874015748
20
1.9677728740157481
11
1.667090157480315
21
1.9687946850393701
0
LINE
8
BLACK
6
CONTINUOUS
10
1.667090157480315
20
1.9687946850393701
11
1.6668503937007875
21
1.97
0
LINE
8
BLACK
6
CONTINUOUS
10
1.6668503937007875
20
1.97
11
1.6668503937007875
21
2.0299999999999998
0
LINE
8
BLACK
6
CONTINUOUS
10
1.6668503937007875
20
2.0299999999999998
11
1.667090157480315
21
2.0312053149606299
0
LINE
8
BLACK
6
CONTINUOUS
10
1.667090157480315
20
2.0312053149606299
11
1.667772874015748
21
2.0322271259842517
0
LINE
8
BLACK
6
CONTINUOUS
10
1.667772874015748
20
2.0322271259842517
11
1.66879468503937
21
2.0329098425196852
0
LINE
8
BLACK
6
CONTINUOUS
10
1.66879468503937
20
2.0329098425196852
11
1.6699999999999999
21
2.0331496062992125
0
LINE
8
BLACK
6
CONTINUOUS
10
1.6699999999999999
20
2.0331496062992125
11
1.73
21
2.0331496062992125
0
LINE
8
BLACK
6
CONTINUOUS
10
1.73
20
2.0331496062992125
11
1.7312053149606299
21
2.0329098425196852
0
LINE
8
BLACK
6
CONTINUOUS
10
1.8312053149606298
20
2.0329098425196852
11
1.832227125984252
21
2.0322271259842517
0
LINE
8
BLACK
6
CONTINUOUS
10
1.832227125984252
20
2.0322271259842517
11
1.832909842519685
21
2.0312053149606299
0
LINE
8
BLACK
6
CONTINUOUS
10
1.832909842519685
20
2.0312053149606299
11
1.8331496062992125
21
2.0299999999999998
0
LINE
8
BLACK
6
CONTINUOUS
10
1.8331496062992125
20
2.0299999999999998
11
1.8331496062992125
21
1.97
0
LINE
8
BLACK
6
CONTINUOUS
10
1.8331496062992125
20
1.97
11
1.832909842519685
21
1.9687946850393701
0
LINE
8
BLACK
6
CONTINUOUS
10
1.832909842519685
20
1.9687946850393701
11
1.832227125984252
21
1.9677728740157481
0
LINE
8
BLACK
6
CONTINUOUS
10
1.832227125984252
20
1.9677728740157481
11
1.8312053149606298
21
1.967090157480315
0
LINE
8
BLACK
6
CONTINUOUS
10
1.8312053149606298
20
1.967090157480315
11
1.8299999999999998
21
1.9668503937007873
0
LINE
8
BLACK
6
CONTINUOUS
10
1.8299999999999998
20
1.9668503937007873
11
1.77
21
1.9668503937007873
0
LINE
8
BLACK
6
CONTINUOUS
10
1.77
20
1.9668503937007873
11
1.7687946850393701
21
1.967090157480315
0
LINE
8
BLACK
6
CONTINUOUS
10
1.7687946850393701
20
1.967090157480315
11
1.7677728740157479
21
1.9677728740157481
0
LINE
8
BLACK
6
CONTINUOUS
10
1.7677728740157479
20
1.9677728740157481
11
1.7670901574803148
21
1.9687946850393701
0
LINE
8
BLACK
6
CONTINUOUS
10
1.7670901574803148
20
1.9687946850393701
11
1.7668503937007873
21
1.97
0
LINE
8
BLACK
6
CONTINUOUS
10
1.7668503937007873
20
1.97
11
1.7668503937007873
21
2.0299999999999998
0
LINE
8
BLACK
6
CONTINUOUS
10
1.7668503937007873
20
2.0299999999999998
11
1.7670901574803148
21
2.0312053149606299
0
LINE
8
BLACK
6
CONTINUOUS
10
1.7670901574803148
20
2.0312053149606299
11
1.7677728740157479
21
2.0322271259842517
0
LINE
8
BLACK
6
CONTINUOUS
10
1.7677728740157479
20
2.0322271259842517
11
1.7687946850393701
21
2.0329098425196852
0
LINE
8
BLACK
6
CONTINUOUS
10
1.7687946850393701
20
2.0329098425196852
11
1.77
21
2.0331496062992125
0
LINE
8
BLACK
6
CONTINUOUS
10
1.77
20
2.0331496062992125
11
1.8299999999999998
21
2.0331496062992125
0
LINE
8
BLACK
6
CONTINUOUS
10
1.8299999999999998
20
2.0331496062992125
11
1.8312053149606298
21
2.0329098425196852
0
LINE
8
BLACK
6
CONTINUOUS
10
1.9312053149606299
20
2.0329098425196852
11
1.9322271259842518
21
2.0322271259842517
0
LINE
8
BLACK
6
CONTINUOUS
10
1.9322271259842518
20
2.0322271259842517
11
1.9329098425196849
21
2.0312053149606299
0
LINE
8
BLACK
6
CONTINUOUS
10
1.9329098425196849
20
2.0312053149606299
11
1.9331496062992126
21
2.0299999999999998
0
LINE
8
BLACK
6
CONTINUOUS
10
1.9331496062992126
20
2.0299999999999998
11
1.9331496062992126
21
1.97
0
LINE
8
BLACK
6
CONTINUOUS
10
1.9331496062992126
20
1.97
11
1.9329098425196849
21
1.9687946850393701
0
LINE
8
BLACK
6
CONTINUOUS
10
1.9329098425196849
20
1.9687946850393701
11
1.9322271259842518
21
1.9677728740157481
0
LINE
8
BLACK
6
CONTINUOUS
10
1.9322271259842518
20
1.9677728740157481
11
1.9312053149606299
21
1.967090157480315
0
LINE
8
BLACK
6
CONTINUOUS
10
1.9312053149606299
20
1.967090157480315
11
1.9299999999999999
21
1.9668503937007873
0
LINE
8
BLACK
6
CONTINUOUS
10
1.9299999999999999
20
1.9668503937007873
11
1.8699999999999999
21
1.9668503937007873
0
LINE
8
BLACK
6
CONTINUOUS
10
1.8699999999999999
20
1.9668503937007873
11
1.86879468503937
21
1.967090157480315
0
LINE
8
BLACK
6
CONTINUOUS
10
1.86879468503937
20
1.967090157480315
11
1.867772874015748
21
1.9677728740157481
0
LINE
8
BLACK
6
CONTINUOUS
10
1.867772874015748
20
1.9677728740157481
11
1.8670901574803149
21
1.9687946850393701
0
LINE
8
BLACK
6
CONTINUOUS
10
1.8670901574803149
20
1.9687946850393701
11
1.8668503937007874
21
1.97
0
LINE
8
BLACK
6
CONTINUOUS
10
1.8668503937007874
20
1.97
11
1.8668503937007874
21
2.0299999999999998
0
LINE
8
BLACK
6
CONTINUOUS
10
1.8668503937007874
20
2.0299999999999998
11
1.8670901574803149
21
2.0312053149606299
0
LINE
8
BLACK
6
CONTINUOUS
10
1.8670901574803149
20
2.0312053149606299
11
1.867772874015748
21
2.0322271259842517
0
LINE
8
BLACK
6
CONTINUOUS
10
1.867772874015748
20
2.0322271259842517
11
1.86879468503937
21
2.0329098425196852
0
LINE
8
BLACK
6
CONTINUOUS
10
1.86879468503937
20
2.0329098425196852
11
1.8699999999999999
21
2.0331496062992125
0
LINE
8
BLACK
6
CONTINUOUS
10
1.8699999999999999
20
2.0331496062992125
11
1.9299999999999999
21
2.0331496062992125
0
LINE
8
BLACK
6
CONTINUOUS
10
1.9299999999999999
20
2.0331496062992125
11
1.9312053149606299
21
2.0329098425196852
0
LINE
8
BLACK
6
CONTINUOUS
10
2.0312053149606299
20
2.0329098425196852
11
2.0322271259842517
21
2.0322271259842517
0
LINE
8
BLACK
6
CONTINUOUS
10
2.0322271259842517
20
2.0322271259842517
11
2.0329098425196852
21
2.0312053149606299
0
LINE
8
BLACK
6
CONTINUOUS
10
2.0329098425196852
20
2.0312053149606299
11
2.0331496062992125
21
2.0299999999999998
0
LINE
8
BLACK
6
CONTINUOUS
10
2.0331496062992125
20
2.0299999999999998
11
2.0331496062992125
21
1.97
0
LINE
8
BLACK
6
CONTINUOUS
10
2.0331496062992125
20
1.97
11
2.0329098425196852
21
1.9687946850393701
0
LINE
8
BLACK
6
CONTINUOUS
10
2.0329098425196852
20
1.9687946850393701
11
2.0322271259842517
21
1.9677728740157481
0
LINE
8
BLACK
6
CONTINUOUS
10
2.0322271259842517
20
1.9677728740157481
11
2.0312053149606299
21
1.967090157480315
0
LINE
8
BLACK
6
CONTINUOUS
10
2.0312053149606299
20
1.967090157480315
11
2.0299999999999998
21
1.9668503937007873
0
LINE
8
BLACK
6
CONTINUOUS
10
2.0299999999999998
20
1.9668503937007873
11
1.97
21
1.9668503937007873
0
LINE
8
BLACK
6
CONTINUOUS
10
1.97
20
1.9668503937007873
11
1.9687946850393701
21
1.967090157480315
0
LINE
8
BLACK
6
CONTINUOUS
10
1.9687946850393701
20
1.967090157480315
11
1.9677728740157481
21
1.9677728740157481
0
LINE
8
BLACK
6
CONTINUOUS
10
1.9677728740157481
20
1.9677728740157481
11
1.967090157480315
21
1.9687946850393701
0
LINE
8
BLACK
6
CONTINUOUS
10
1.967090157480315
20
1.9687946850393701
11
1.9668503937007873
21
1.97
0
LINE
8
BLACK
6
CONTINUOUS
10
1.9668503937007873
20
1.97
11
1.9668503937007873
21
2.0299999999999998
0
LINE
8
BLACK
6
CONTINUOUS
10
1.9668503937007873
20
2.0299999999999998
11
1.967090157480315
21
2.0312053149606299
0
LINE
8
BLACK
6
CONTINUOUS
10
1.967090157480315
20
2.0312053149606299
11
1.9677728740157481
21
2.0322271259842517
0
LINE
8
BLACK
6
CONTINUOUS
10
1.9677728740157481
20
2.0322271259842517
11
1.9687946850393701
21
2.0329098425196852
0
LINE
8
BLACK
6
CONTINUOUS
10
1.9687946850393701
20
2.0329098425196852
11
1.97
21
2.0331496062992125
0
LINE
8
BLACK
6
CONTINUOUS
10
1.97
20
2.0331496062992125
11
2.0299999999999998
21
2.0331496062992125
0
LINE
8
BLACK
6
CONTINUOUS
10
2.0299999999999998
20
2.0331496062992125
11
2.0312053149606299
21
2.0329098425196852
0
LINE
8
BLACK
6
CONTINUOUS
10
2.13120531496063
20
2.0329098425196852
11
2.1322271259842518
21
2.0322271259842517
0
LINE
8
BLACK
6
CONTINUOUS
10
2.1322271259842518
20
2.0322271259842517
11
2.1329098425196849
21
2.0312053149606299
0
LINE
8
BLACK
6
CONTINUOUS
10
2.1329098425196849
20
2.0312053149606299
11
2.1331496062992126
21
2.0299999999999998
0
LINE
8
BLACK
6
CONTINUOUS
10
2.1331496062992126
20
2.0299999999999998
11
2.1331496062992126
21
1.97
0
LINE
8
BLACK
6
CONTINUOUS
10
2.1331496062992126
20
1.97
11
2.1329098425196849
21
1.9687946850393701
0
LINE
8
BLACK
6
CONTINUOUS
10
2.1329098425196849
20
1.9687946850393701
11
2.1322271259842518
21
1.9677728740157481
0
LINE
8
BLACK
6
CONTINUOUS
10
2.1322271259842518
20
1.9677728740157481
11
2.13120531496063
21
1.967090157480315
0
LINE
8
BLACK
6
CONTINUOUS
10
2.13120531496063
20
1.967090157480315
11
2.1299999999999999
21
1.9668503937007873
0
LINE
8
BLACK
6
CONTINUOUS
10
2.1299999999999999
20
1.9668503937007873
11
2.0699999999999998
21
1.9668503937007873
0
LINE
8
BLACK
6
CONTINUOUS
10
2.0699999999999998
20
1.9668503937007873
11
2.0687946850393701
21
1.967090157480315
0
LINE
8
BLACK
6
CONTINUOUS
10
2.0687946850393701
20
1.967090157480315
11
2.0677728740157479
21
1.9677728740157481
0
LINE
8
BLACK
6
CONTINUOUS
10
2.0677728740157479
20
1.9677728740157481
11
2.0670901574803149
21
1.9687946850393701
0
LINE
8
BLACK
6
CONTINUOUS
10
2.0670901574803149
20
1.9687946850393701
11
2.0668503937007872
21
1.97
0
LINE
8
BLACK
6
CONTINUOUS
10
2.0668503937007872
20
1.97
11
2.0668503937007872
21
2.0299999999999998
0
LINE
8
BLACK
6
CONTINUOUS
10
2.0668503937007872
20
2.0299999999999998
11
2.0670901574803149
21
2.0312053149606299
0
LINE
8
BLACK
6
CONTINUOUS
10
2.0670901574803149
20
2.0312053149606299
11
2.0677728740157479
21
2.0322271259842517
0
LINE
8
BLACK
6
CONTINUOUS
10
2.0677728740157479
20
2.0322271259842517
11
2.0687946850393701
21
2.0329098425196852
0
LINE
8
BLACK
6
CONTINUOUS
10
2.0687946850393701
20
2.0329098425196852
11
2.0699999999999998
21
2.0331496062992125
0
LINE
8
BLACK
6
CONTINUOUS
10
2.0699999999999998
20
2.0331496062992125
11
2.1299999999999999
21
2.0331496062992125
0
LINE
8
BLACK
6
CONTINUOUS
10
2.1299999999999999
20
2.0331496062992125
11
2.13120531496063
21
2.0329098425196852
0
LINE
8
BLACK
6
CONTINUOUS
10
2.2312053149606297
20
2.0329098425196852
11
2.2322271259842519
21
2.0322271259842517
0
LINE
8
BLACK
6
CONTINUOUS
10
2.2322271259842519
20
2.0322271259842517
11
2.2329098425196849
21
2.0312053149606299
0
LINE
8
BLACK
6
CONTINUOUS
10
2.2329098425196849
20
2.0312053149606299
11
2.2331496062992127
21
2.0299999999999998
0
LINE
8
BLACK
6
CONTINUOUS
10
2.2331496062992127
20
2.0299999999999998
11
2.2331496062992127
21
1.97
0
LINE
8
BLACK
6
CONTINUOUS
10
2.2331496062992127
20
1.97
11
2.2329098425196849
21
1.9687946850393701
0
LINE
8
BLACK
6
CONTINUOUS
10
2.2329098425196849
20
1.9687946850393701
11
2.2322271259842519
21
1.9677728740157481
0
LINE
8
BLACK
6
CONTINUOUS
10
2.2322271259842519
20
1.9677728740157481
11
2.2312053149606297
21
1.967090157480315
0
LINE
8
BLACK
6
CONTINUOUS
10
2.2312053149606297
20
1.967090157480315
11
2.23
21
1.9668503937007873
0
LINE
8
BLACK
6
CONTINUOUS
10
2.23
20
1.9668503937007873
11
2.1699999999999999
21
1.9668503937007873
0
LINE
8
BLACK
6
CONTINUOUS
10
2.1699999999999999
20
1.9668503937007873
11
2.1687946850393702
21
1.967090157480315
0
LINE
8
BLACK
6
CONTINUOUS
10
2.1687946850393702
20
1.967090157480315
11
2.167772874015748
21
1.9677728740157481
0
LINE
8
BLACK
6
CONTINUOUS
10
2.167772874015748
20
1.9677728740157481
11
2.167090157480315
21
1.9687946850393701
0
LINE
8
BLACK
6
CONTINUOUS
10
2.167090157480315
20
1.9687946850393701
11
2.1668503937007872
21
1.97
0
LINE
8
BLACK
6
CONTINUOUS
10
2.1668503937007872
20
1.97
11
2.1668503937007872
21
2.0299999999999998
0
LINE
8
BLACK
6
CONTINUOUS
10
2.1668503937007872
20
2.0299999999999998
11
2.167090157480315
21
2.0312053149606299
0
LINE
8
BLACK
6
CONTINUOUS
10
2.167090157480315
20
2.0312053149606299
11
2.167772874015748
21
2.0322271259842517
0
LINE
8
BLACK
6
CONTINUOUS
10
2.167772874015748
20
2.0322271259842517
11
2.1687946850393702
21
2.0329098425196852
0
LINE
8
BLACK
6
CONTINUOUS
10
2.1687946850393702
20
2.0329098425196852
11
2.1699999999999999
21
2.0331496062992125
0
LINE
8
BLACK
6
CONTINUOUS
10
2.1699999999999999
20
2.0331496062992125
11
2.23
21
2.0331496062992125
0
LINE
8
BLACK
6
CONTINUOUS
10
2.23
20
2.0331496062992125
11
2.2312053149606297
21
2.0329098425196852
0
LINE
8
BLACK
6
CONTINUOUS
10
2.3312053149606298
20
2.0329098425196852
11
2.332227125984252
21
2.0322271259842517
0
LINE
8
BLACK
6
CONTINUOUS
10
2.332227125984252
20
2.0322271259842517
11
2.332909842519685
21
2.0312053149606299
0
LINE
8
BLACK
6
CONTINUOUS
10
2.332909842519685
20
2.0312053149606299
11
2.3331496062992128
21
2.0299999999999998
0
LINE
8
BLACK
6
CONTINUOUS
10
2.3331496062992128
20
2.0299999999999998
11
2.3331496062992128
21
1.97
0
LINE
8
BLACK
6
CONTINUOUS
10
2.3331496062992128
20
1.97
11
2.332909842519685
21
1.9687946850393701
0
LINE
8
BLACK
6
CONTINUOUS
10
2.332909842519685
20
1.9687946850393701
11
2.332227125984252
21
1.9677728740157481
0
LINE
8
BLACK
6
CONTINUOUS
10
2.332227125984252
20
1.9677728740157481
11
2.3312053149606298
21
1.967090157480315
0
LINE
8
BLACK
6
CONTINUOUS
10
2.3312053149606298
20
1.967090157480315
11
2.3300000000000001
21
1.9668503937007873
0
LINE
8
BLACK
6
CONTINUOUS
10
2.3300000000000001
20
1.9668503937007873
11
2.27
21
1.9668503937007873
0
LINE
8
BLACK
6
CONTINUOUS
10
2.27
20
1.9668503937007873
11
2.2687946850393699
21
1.967090157480315
0
LINE
8
BLACK
6
CONTINUOUS
10
2.2687946850393699
20
1.967090157480315
11
2.2677728740157481
21
1.9677728740157481
0
LINE
8
BLACK
6
CONTINUOUS
10
2.2677728740157481
20
1.9677728740157481
11
2.2670901574803151
21
1.9687946850393701
0
LINE
8
BLACK
6
CONTINUOUS
10
2.2670901574803151
20
1.9687946850393701
11
2.2668503937007873
21
1.97
0
LINE
8
BLACK
6
CONTINUOUS
10
2.2668503937007873
20
1.97
11
2.2668503937007873
21
2.0299999999999998
0
LINE
8
BLACK
6
CONTINUOUS
10
2.2668503937007873
20
2.0299999999999998
11
2.2670901574803151
21
2.0312053149606299
0
LINE
8
BLACK
6
CONTINUOUS
10
2.2670901574803151
20
2.0312053149606299
11
2.2677728740157481
21
2.0322271259842517
0
LINE
8
BLACK
6
CONTINUOUS
10
2.2677728740157481
20
2.0322271259842517
11
2.2687946850393699
21
2.0329098425196852
0
LINE
8
BLACK
6
CONTINUOUS
10
2.2687946850393699
20
2.0329098425196852
11
2.27
21
2.0331496062992125
0
LINE
8
BLACK
6
CONTINUOUS
10
2.27
20
2.0331496062992125
11
2.3300000000000001
21
2.0331496062992125
0
LINE
8
BLACK
6
CONTINUOUS
10
2.3300000000000001
20
2.0331496062992125
11
2.3312053149606298
21
2.0329098425196852
0
LINE
8
BLACK
6
CONTINUOUS
10
0.9312053149606299
20
2.1329098425196849
11
0.9322271259842519
21
2.1322271259842518
0
LINE
8
BLACK
6
CONTINUOUS
10
0.9322271259842519
20
2.1322271259842518
11
0.932909842519685
21
2.13120531496063
0
LINE
8
BLACK
6
CONTINUOUS
10
0.932909842519685
20
2.13120531496063
11
0.9331496062992126
21
2.1299999999999999
0
LINE
8
BLACK
6
CONTINUOUS
10
0.9331496062992126
20
2.1299999999999999
11
0.9331496062992126
21
2.0699999999999998
0
LINE
8
BLACK
6
CONTINUOUS
10
0.9331496062992126
20
2.0699999999999998
11
0.932909842519685
21
2.0687946850393701
0
LINE
8
BLACK
6
CONTINUOUS
10
0.932909842519685
20
2.0687946850393701
11
0.9322271259842519
21
2.0677728740157479
0
LINE
8
BLACK
6
CONTINUOUS
10
0.9322271259842519
20
2.0677728740157479
11
0.9312053149606299
21
2.0670901574803149
0
LINE
8
BLACK
6
CONTINUOUS
10
0.9312053149606299
20
2.0670901574803149
11
0.9299999999999999
21
2.0668503937007872
0
LINE
8
BLACK
6
CONTINUOUS
10
0.9299999999999999
20
2.0668503937007872
11
0.87
21
2.0668503937007872
0
LINE
8
BLACK
6
CONTINUOUS
10
0.87
20
2.0668503937007872
11
0.8687946850393701
21
2.0670901574803149
0
LINE
8
BLACK
6
CONTINUOUS
10
0.8687946850393701
20
2.0670901574803149
11
0.867772874015748
21
2.0677728740157479
0
LINE
8
BLACK
6
CONTINUOUS
10
0.867772874015748
20
2.0677728740157479
11
0.8670901574803149
21
2.0687946850393701
0
LINE
8
BLACK
6
CONTINUOUS
10
0.8670901574803149
20
2.0687946850393701
11
0.8668503937007874
21
2.0699999999999998
0
LINE
8
BLACK
6
CONTINUOUS
10
0.8668503937007874
20
2.0699999999999998
11
0.8668503937007874
21
2.1299999999999999
0
LINE
8
BLACK
6
CONTINUOUS
10
0.8668503937007874
20
2.1299999999999999
11
0.8670901574803149
21
2.13120531496063
0
LINE
8
BLACK
6
CONTINUOUS
10
0.8670901574803149
20
2.13120531496063
11
0.867772874015748
21
2.1322271259842518
0
LINE
8
BLACK
6
CONTINUOUS
10
0.867772874015748
20
2.1322271259842518
11
0.8687946850393701
21
2.1329098425196849
0
LINE
8
BLACK
6
CONTINUOUS
10
0.8687946850393701
20
2.1329098425196849
11
0.87
21
2.1331496062992126
0
LINE
8
BLACK
6
CONTINUOUS
10
0.87
20
2.1331496062992126
11
0.9299999999999999
21
2.1331496062992126
0
LINE
8
BLACK
6
CONTINUOUS
10
0.9299999999999999
20
2.1331496062992126
11
0.9312053149606299
21
2.1329098425196849
0
LINE
8
BLACK
6
CONTINUOUS
10
1.0312053149606299
20
2.1329098425196849
11
1.0322271259842519
21
2.1322271259842518
0
LINE
8
BLACK
6
CONTINUOUS
10
1.0322271259842519
20
2.1322271259842518
11
1.032909842519685
21
2.13120531496063
0
LINE
8
BLACK
6
CONTINUOUS
10
1.032909842519685
20
2.13120531496063
11
1.0331496062992125
21
2.1299999999999999
0
LINE
8
BLACK
6
CONTINUOUS
10
1.0331496062992125
20
2.1299999999999999
11
1.0331496062992125
21
2.0699999999999998
0
LINE
8
BLACK
6
CONTINUOUS
10
1.0331496062992125
20
2.0699999999999998
11
1.032909842519685
21
2.0687946850393701
0
LINE
8
BLACK
6
CONTINUOUS
10
1.032909842519685
20
2.0687946850393701
11
1.0322271259842519
21
2.0677728740157479
0
LINE
8
BLACK
6
CONTINUOUS
10
1.0322271259842519
20
2.0677728740157479
11
1.0312053149606299
21
2.0670901574803149
0
LINE
8
BLACK
6
CONTINUOUS
10
1.0312053149606299
20
2.0670901574803149
11
1.03
21
2.0668503937007872
0
LINE
8
BLACK
6
CONTINUOUS
10
1.03
20
2.0668503937007872
11
0.97
21
2.0668503937007872
0
LINE
8
BLACK
6
CONTINUOUS
10
0.97
20
2.0668503937007872
11
0.9687946850393701
21
2.0670901574803149
0
LINE
8
BLACK
6
CONTINUOUS
10
0.9687946850393701
20
2.0670901574803149
11
0.967772874015748
21
2.0677728740157479
0
LINE
8
BLACK
6
CONTINUOUS
10
0.967772874015748
20
2.0677728740157479
11
0.9670901574803149
21
2.0687946850393701
0
LINE
8
BLACK
6
CONTINUOUS
10
0.9670901574803149
20
2.0687946850393701
11
0.9668503937007874
21
2.0699999999999998
0
LINE
8
BLACK
6
CONTINUOUS
10
0.9668503937007874
20
2.0699999999999998
11
0.9668503937007874
21
2.1299999999999999
0
LINE
8
BLACK
6
CONTINUOUS
10
0.9668503937007874
20
2.1299999999999999
11
0.9670901574803149
21
2.13120531496063
0
LINE
8
BLACK
6
CONTINUOUS
10
0.9670901574803149
20
2.13120531496063
11
0.967772874015748
21
2.1322271259842518
0
LINE
8
BLACK
6
CONTINUOUS
10
0.967772874015748
20
2.1322271259842518
11
0.9687946850393701
21
2.1329098425196849
0
LINE
8
BLACK
6
CONTINUOUS
10
0.9687946850393701
20
2.1329098425196849
11
0.97
21
2.1331496062992126
0
LINE
8
BLACK
6
CONTINUOUS
10
0.97
20
2.1331496062992126
11
1.03
21
2.1331496062992126
0
LINE
8
BLACK
6
CONTINUOUS
10
1.03
20
2.1331496062992126
11
1.0312053149606299
21
2.1329098425196849
0
LINE
8
BLACK
6
CONTINUOUS
10
1.1312053149606298
20
2.1329098425196849
11
1.132227125984252
21
2.1322271259842518
0
LINE
8
BLACK
6
CONTINUOUS
10
1.132227125984252
20
2.1322271259842518
11
1.1329098425196851
21
2.13120531496063
0
LINE
8
BLACK
6
CONTINUOUS
10
1.1329098425196851
20
2.13120531496063
11
1.1331496062992126
21
2.1299999999999999
0
LINE
8
BLACK
6
CONTINUOUS
10
1.1331496062992126
20
2.1299999999999999
11
1.1331496062992126
21
2.0699999999999998
0
LINE
8
BLACK
6
CONTINUOUS
10
1.1331496062992126
20
2.0699999999999998
11
1.1329098425196851
21
2.0687946850393701
0
LINE
8
BLACK
6
CONTINUOUS
10
1.1329098425196851
20
2.0687946850393701
11
1.132227125984252
21
2.0677728740157479
0
LINE
8
BLACK
6
CONTINUOUS
10
1.132227125984252
20
2.0677728740157479
11
1.1312053149606298
21
2.0670901574803149
0
LINE
8
BLACK
6
CONTINUOUS
10
1.1312053149606298
20
2.0670901574803149
11
1.1299999999999999
21
2.0668503937007872
0
LINE
8
BLACK
6
CONTINUOUS
10
1.1299999999999999
20
2.0668503937007872
11
1.0700000000000001
21
2.0668503937007872
0
LINE
8
BLACK
6
CONTINUOUS
10
1.0700000000000001
20
2.0668503937007872
11
1.0687946850393701
21
2.0670901574803149
0
LINE
8
BLACK
6
CONTINUOUS
10
1.0687946850393701
20
2.0670901574803149
11
1.0677728740157479
21
2.0677728740157479
0
LINE
8
BLACK
6
CONTINUOUS
10
1.0677728740157479
20
2.0677728740157479
11
1.0670901574803149
21
2.0687946850393701
0
LINE
8
BLACK
6
CONTINUOUS
10
1.0670901574803149
20
2.0687946850393701
11
1.0668503937007874
21
2.0699999999999998
0
LINE
8
BLACK
6
CONTINUOUS
10
1.0668503937007874
20
2.0699999999999998
11
1.0668503937007874
21
2.1299999999999999
0
LINE
8
BLACK
6
CONTINUOUS
10
1.0668503937007874
20
2.1299999999999999
11
1.0670901574803149
21
2.13120531496063
0
LINE
8
BLACK
6
CONTINUOUS
10
1.0670901574803149
20
2.13120531496063
11
1.0677728740157479
21
2.1322271259842518
0
LINE
8
BLACK
6
CONTINUOUS
10
1.0677728740157479
20
2.1322271259842518
11
1.0687946850393701
21
2.1329098425196849
0
LINE
8
BLACK
6
CONTINUOUS
10
1.0687946850393701
20
2.1329098425196849
11
1.0700000000000001
21
2.1331496062992126
0
LINE
8
BLACK
6
CONTINUOUS
10
1.0700000000000001
20
2.1331496062992126
11
1.1299999999999999
21
2.1331496062992126
0
LINE
8
BLACK
6
CONTINUOUS
10
1.1299999999999999
20
2.1331496062992126
11
1.1312053149606298
21
2.1329098425196849
0
LINE
8
BLACK
6
CONTINUOUS
10
1.2312053149606299
20
2.1329098425196849
11
1.2322271259842519
21
2.1322271259842518
0
LINE
8
BLACK
6
CONTINUOUS
10
1.2322271259842519
20
2.1322271259842518
11
1.2329098425196849
21
2.13120531496063
0
LINE
8
BLACK
6
CONTINUOUS
10
1.2329098425196849
20
2.13120531496063
11
1.2331496062992127
21
2.1299999999999999
0
LINE
8
BLACK
6
CONTINUOUS
10
1.2331496062992127
20
2.1299999999999999
11
1.2331496062992127
21
2.0699999999999998
0
LINE
8
BLACK
6
CONTINUOUS
10
1.2331496062992127
20
2.0699999999999998
11
1.2329098425196849
21
2.0687946850393701
0
LINE
8
BLACK
6
CONTINUOUS
10
1.2329098425196849
20
2.0687946850393701
11
1.2322271259842519
21
2.0677728740157479
0
LINE
8
BLACK
6
CONTINUOUS
10
1.2322271259842519
20
2.0677728740157479
11
1.2312053149606299
21
2.0670901574803149
0
LINE
8
BLACK
6
CONTINUOUS
10
1.2312053149606299
20
2.0670901574803149
11
1.23
21
2.0668503937007872
0
LINE
8
BLACK
6
CONTINUOUS
10
1.23
20
2.0668503937007872
11
1.1699999999999999
21
2.0668503937007872
0
LINE
8
BLACK
6
CONTINUOUS
10
1.1699999999999999
20
2.0668503937007872
11
1.16879468503937
21
2.0670901574803149
0
LINE
8
BLACK
6
CONTINUOUS
10
1.16879468503937
20
2.0670901574803149
11
1.167772874015748
21
2.0677728740157479
0
LINE
8
BLACK
6
CONTINUOUS
10
1.167772874015748
20
2.0677728740157479
11
1.167090157480315
21
2.0687946850393701
0
LINE
8
BLACK
6
CONTINUOUS
10
1.167090157480315
20
2.0687946850393701
11
1.1668503937007875
21
2.0699999999999998
0
LINE
8
BLACK
6
CONTINUOUS
10
1.1668503937007875
20
2.0699999999999998
11
1.1668503937007875
21
2.1299999999999999
0
LINE
8
BLACK
6
CONTINUOUS
10
1.1668503937007875
20
2.1299999999999999
11
1.167090157480315
21
2.13120531496063
0
LINE
8
BLACK
6
CONTINUOUS
10
1.167090157480315
20
2.13120531496063
11
1.167772874015748
21
2.1322271259842518
0
LINE
8
BLACK
6
CONTINUOUS
10
1.167772874015748
20
2.1322271259842518
11
1.16879468503937
21
2.1329098425196849
0
LINE
8
BLACK
6
CONTINUOUS
10
1.16879468503937
20
2.1329098425196849
11
1.1699999999999999
21
2.1331496062992126
0
LINE
8
BLACK
6
CONTINUOUS
10
1.1699999999999999
20
2.1331496062992126
11
1.23
21
2.1331496062992126
0
LINE
8
BLACK
6
CONTINUOUS
10
1.23
20
2.1331496062992126
11
1.2312053149606299
21
2.1329098425196849
0
LINE
8
BLACK
6
CONTINUOUS
10
1.33120531496063
20
2.1329098425196849
11
1.332227125984252
21
2.1322271259842518
0
LINE
8
BLACK
6
CONTINUOUS
10
1.332227125984252
20
2.1322271259842518
11
1.332909842519685
21
2.13120531496063
0
LINE
8
BLACK
6
CONTINUOUS
10
1.332909842519685
20
2.13120531496063
11
1.3331496062992125
21
2.1299999999999999
0
LINE
8
BLACK
6
CONTINUOUS
10
1.3331496062992125
20
2.1299999999999999
11
1.3331496062992125
21
2.0699999999999998
0
LINE
8
BLACK
6
CONTINUOUS
10
1.3331496062992125
20
2.0699999999999998
11
1.332909842519685
21
2.0687946850393701
0
LINE
8
BLACK
6
CONTINUOUS
10
1.332909842519685
20
2.0687946850393701
11
1.332227125984252
21
2.0677728740157479
0
LINE
8
BLACK
6
CONTINUOUS
10
1.332227125984252
20
2.0677728740157479
11
1.33120531496063
21
2.0670901574803149
0
LINE
8
BLACK
6
CONTINUOUS
10
1.33120531496063
20
2.0670901574803149
11
1.3300000000000001
21
2.0668503937007872
0
LINE
8
BLACK
6
CONTINUOUS
10
1.3300000000000001
20
2.0668503937007872
11
1.27
21
2.0668503937007872
0
LINE
8
BLACK
6
CONTINUOUS
10
1.27
20
2.0668503937007872
11
1.2687946850393701
21
2.0670901574803149
0
LINE
8
BLACK
6
CONTINUOUS
10
1.2687946850393701
20
2.0670901574803149
11
1.2677728740157479
21
2.0677728740157479
0
LINE
8
BLACK
6
CONTINUOUS
10
1.2677728740157479
20
2.0677728740157479
11
1.2670901574803148
21
2.0687946850393701
0
LINE
8
BLACK
6
CONTINUOUS
10
1.2670901574803148
20
2.0687946850393701
11
1.2668503937007873
21
2.0699999999999998
0
LINE
8
BLACK
6
CONTINUOUS
10
1.2668503937007873
20
2.0699999999999998
11
1.2668503937007873
21
2.1299999999999999
0
LINE
8
BLACK
6
CONTINUOUS
10
1.2668503937007873
20
2.1299999999999999
11
1.2670901574803148
21
2.13120531496063
0
LINE
8
BLACK
6
CONTINUOUS
10
1.2670901574803148
20
2.13120531496063
11
1.2677728740157479
21
2.1322271259842518
0
LINE
8
BLACK
6
CONTINUOUS
10
1.2677728740157479
20
2.1322271259842518
11
1.2687946850393701
21
2.1329098425196849
0
LINE
8
BLACK
6
CONTINUOUS
10
1.2687946850393701
20
2.1329098425196849
11
1.27
21
2.1331496062992126
0
LINE
8
BLACK
6
CONTINUOUS
10
1.27
20
2.1331496062992126
11
1.3300000000000001
21
2.1331496062992126
0
LINE
8
BLACK
6
CONTINUOUS
10
1.3300000000000001
20
2.1331496062992126
11
1.33120531496063
21
2.1329098425196849
0
LINE
8
BLACK
6
CONTINUOUS
10
1.4312053149606299
20
2.1329098425196849
11
1.4322271259842518
21
2.1322271259842518
0
LINE
8
BLACK
6
CONTINUOUS
10
1.4322271259842518
20
2.1322271259842518
11
1.4329098425196851
21
2.13120531496063
0
LINE
8
BLACK
6
CONTINUOUS
10
1.4329098425196851
20
2.13120531496063
11
1.4331496062992126
21
2.1299999999999999
0
LINE
8
BLACK
6
CONTINUOUS
10
1.4331496062992126
20
2.1299999999999999
11
1.4331496062992126
21
2.0699999999999998
0
LINE
8
BLACK
6
CONTINUOUS
10
1.4331496062992126
20
2.0699999999999998
11
1.4329098425196851
21
2.0687946850393701
0
LINE
8
BLACK
6
CONTINUOUS
10
1.4329098425196851
20
2.0687946850393701
11
1.4322271259842518
21
2.0677728740157479
0
LINE
8
BLACK
6
CONTINUOUS
10
1.4322271259842518
20
2.0677728740157479
11
1.4312053149606299
21
2.0670901574803149
0
LINE
8
BLACK
6
CONTINUOUS
10
1.4312053149606299
20
2.0670901574803149
11
1.4299999999999999
21
2.0668503937007872
0
LINE
8
BLACK
6
CONTINUOUS
10
1.4299999999999999
20
2.0668503937007872
11
1.3699999999999999
21
2.0668503937007872
0
LINE
8
BLACK
6
CONTINUOUS
10
1.3699999999999999
20
2.0668503937007872
11
1.36879468503937
21
2.0670901574803149
0
LINE
8
BLACK
6
CONTINUOUS
10
1.36879468503937
20
2.0670901574803149
11
1.367772874015748
21
2.0677728740157479
0
LINE
8
BLACK
6
CONTINUOUS
10
1.367772874015748
20
2.0677728740157479
11
1.3670901574803149
21
2.0687946850393701
0
LINE
8
BLACK
6
CONTINUOUS
10
1.3670901574803149
20
2.0687946850393701
11
1.3668503937007874
21
2.0699999999999998
0
LINE
8
BLACK
6
CONTINUOUS
10
1.3668503937007874
20
2.0699999999999998
11
1.3668503937007874
21
2.1299999999999999
0
LINE
8
BLACK
6
CONTINUOUS
10
1.3668503937007874
20
2.1299999999999999
11
1.3670901574803149
21
2.13120531496063
0
LINE
8
BLACK
6
CONTINUOUS
10
1.3670901574803149
20
2.13120531496063
11
1.367772874015748
21
2.1322271259842518
0
LINE
8
BLACK
6
CONTINUOUS
10
1.367772874015748
20
2.1322271259842518
11
1.36879468503937
21
2.1329098425196849
0
LINE
8
BLACK
6
CONTINUOUS
10
1.36879468503937
20
2.1329098425196849
11
1.3699999999999999
21
2.1331496062992126
0
LINE
8
BLACK
6
CONTINUOUS
10
1.3699999999999999
20
2.1331496062992126
11
1.4299999999999999
21
2.1331496062992126
0
LINE
8
BLACK
6
CONTINUOUS
10
1.4299999999999999
20
2.1331496062992126
11
1.4312053149606299
21
2.1329098425196849
0
LINE
8
BLACK
6
CONTINUOUS
10
1.5312053149606299
20
2.1329098425196849
11
1.5322271259842519
21
2.1322271259842518
0
LINE
8
BLACK
6
CONTINUOUS
10
1.5322271259842519
20
2.1322271259842518
11
1.532909842519685
21
2.13120531496063
0
LINE
8
BLACK
6
CONTINUOUS
10
1.532909842519685
20
2.13120531496063
11
1.5331496062992125
21
2.1299999999999999
0
LINE
8
BLACK
6
CONTINUOUS
10
1.5331496062992125
20
2.1299999999999999
11
1.5331496062992125
21
2.0699999999999998
0
LINE
8
BLACK
6
CONTINUOUS
10
1.5331496062992125
20
2.0699999999999998
11
1.532909842519685
21
2.0687946850393701
0
LINE
8
BLACK
6
CONTINUOUS
10
1.532909842519685
20
2.0687946850393701
11
1.5322271259842519
21
2.0677728740157479
0
LINE
8
BLACK
6
CONTINUOUS
10
1.5322271259842519
20
2.0677728740157479
11
1.5312053149606299
21
2.0670901574803149
0
LINE
8
BLACK
6
CONTINUOUS
10
1.5312053149606299
20
2.0670901574803149
11
1.53
21
2.0668503937007872
0
LINE
8
BLACK
6
CONTINUOUS
10
1.53
20
2.0668503937007872
11
1.47
21
2.0668503937007872
0
LINE
8
BLACK
6
CONTINUOUS
10
1.47
20
2.0668503937007872
11
1.4687946850393701
21
2.0670901574803149
0
LINE
8
BLACK
6
CONTINUOUS
10
1.4687946850393701
20
2.0670901574803149
11
1.4677728740157481
21
2.0677728740157479
0
LINE
8
BLACK
6
CONTINUOUS
10
1.4677728740157481
20
2.0677728740157479
11
1.467090157480315
21
2.0687946850393701
0
LINE
8
BLACK
6
CONTINUOUS
10
1.467090157480315
20
2.0687946850393701
11
1.4668503937007873
21
2.0699999999999998
0
LINE
8
BLACK
6
CONTINUOUS
10
1.4668503937007873
20
2.0699999999999998
11
1.4668503937007873
21
2.1299999999999999
0
LINE
8
BLACK
6
CONTINUOUS
10
1.4668503937007873
20
2.1299999999999999
11
1.467090157480315
21
2.13120531496063
0
LINE
8
BLACK
6
CONTINUOUS
10
1.467090157480315
20
2.13120531496063
11
1.4677728740157481
21
2.1322271259842518
0
LINE
8
BLACK
6
CONTINUOUS
10
1.4677728740157481
20
2.1322271259842518
11
1.4687946850393701
21
2.1329098425196849
0
LINE
8
BLACK
6
CONTINUOUS
10
1.4687946850393701
20
2.1329098425196849
11
1.47
21
2.1331496062992126
0
LINE
8
BLACK
6
CONTINUOUS
10
1.47
20
2.1331496062992126
11
1.53
21
2.1331496062992126
0
LINE
8
BLACK
6
CONTINUOUS
10
1.53
20
2.1331496062992126
11
1.5312053149606299
21
2.1329098425196849
0
LINE
8
BLACK
6
CONTINUOUS
10
1.6312053149606298
20
2.1329098425196849
11
1.632227125984252
21
2.1322271259842518
0
LINE
8
BLACK
6
CONTINUOUS
10
1.632227125984252
20
2.1322271259842518
11
1.6329098425196851
21
2.13120531496063
0
LINE
8
BLACK
6
CONTINUOUS
10
1.6329098425196851
20
2.13120531496063
11
1.6331496062992126
21
2.1299999999999999
0
LINE
8
BLACK
6
CONTINUOUS
10
1.6331496062992126
20
2.1299999999999999
11
1.6331496062992126
21
2.0699999999999998
0
LINE
8
BLACK
6
CONTINUOUS
10
1.6331496062992126
20
2.0699999999999998
11
1.6329098425196851
21
2.0687946850393701
0
LINE
8
BLACK
6
CONTINUOUS
10
1.6329098425196851
20
2.0687946850393701
11
1.632227125984252
21
2.0677728740157479
0
LINE
8
BLACK
6
CONTINUOUS
10
1.632227125984252
20
2.0677728740157479
11
1.6312053149606298
21
2.0670901574803149
0
LINE
8
BLACK
6
CONTINUOUS
10
1.6312053149606298
20
2.0670901574803149
11
1.6299999999999999
21
2.0668503937007872
0
LINE
8
BLACK
6
CONTINUOUS
10
1.6299999999999999
20
2.0668503937007872
11
1.5700000000000001
21
2.0668503937007872
0
LINE
8
BLACK
6
CONTINUOUS
10
1.5700000000000001
20
2.0668503937007872
11
1.5687946850393701
21
2.0670901574803149
0
LINE
8
BLACK
6
CONTINUOUS
10
1.5687946850393701
20
2.0670901574803149
11
1.5677728740157479
21
2.0677728740157479
0
LINE
8
BLACK
6
CONTINUOUS
10
1.5677728740157479
20
2.0677728740157479
11
1.5670901574803149
21
2.0687946850393701
0
LINE
8
BLACK
6
CONTINUOUS
10
1.5670901574803149
20
2.0687946850393701
11
1.5668503937007874
21
2.0699999999999998
0
LINE
8
BLACK
6
CONTINUOUS
10
1.5668503937007874
20
2.0699999999999998
11
1.5668503937007874
21
2.1299999999999999
0
LINE
8
BLACK
6
CONTINUOUS
10
1.5668503937007874
20
2.1299999999999999
11
1.5670901574803149
21
2.13120531496063
0
LINE
8
BLACK
6
CONTINUOUS
10
1.5670901574803149
20
2.13120531496063
11
1.5677728740157479
21
2.1322271259842518
0
LINE
8
BLACK
6
CONTINUOUS
10
1.5677728740157479
20
2.1322271259842518
11
1.5687946850393701
21
2.1329098425196849
0
LINE
8
BLACK
6
CONTINUOUS
10
1.5687946850393701
20
2.1329098425196849
11
1.5700000000000001
21
2.1331496062992126
0
LINE
8
BLACK
6
CONTINUOUS
10
1.5700000000000001
20
2.1331496062992126
11
1.6299999999999999
21
2.1331496062992126
0
LINE
8
BLACK
6
CONTINUOUS
10
1.6299999999999999
20
2.1331496062992126
11
1.6312053149606298
21
2.1329098425196849
0
LINE
8
BLACK
6
CONTINUOUS
10
1.7312053149606299
20
2.1329098425196849
11
1.7322271259842519
21
2.1322271259842518
0
LINE
8
BLACK
6
CONTINUOUS
10
1.7322271259842519
20
2.1322271259842518
11
1.7329098425196849
21
2.13120531496063
0
LINE
8
BLACK
6
CONTINUOUS
10
1.7329098425196849
20
2.13120531496063
11
1.7331496062992127
21
2.1299999999999999
0
LINE
8
BLACK
6
CONTINUOUS
10
1.7331496062992127
20
2.1299999999999999
11
1.7331496062992127
21
2.0699999999999998
0
LINE
8
BLACK
6
CONTINUOUS
10
1.7331496062992127
20
2.0699999999999998
11
1.7329098425196849
21
2.0687946850393701
0
LINE
8
BLACK
6
CONTINUOUS
10
1.7329098425196849
20
2.0687946850393701
11
1.7322271259842519
21
2.0677728740157479
0
LINE
8
BLACK
6
CONTINUOUS
10
1.7322271259842519
20
2.0677728740157479
11
1.7312053149606299
21
2.0670901574803149
0
LINE
8
BLACK
6
CONTINUOUS
10
1.7312053149606299
20
2.0670901574803149
11
1.73
21
2.0668503937007872
0
LINE
8
BLACK
6
CONTINUOUS
10
1.73
20
2.0668503937007872
11
1.6699999999999999
21
2.0668503937007872
0
LINE
8
BLACK
6
CONTINUOUS
10
1.6699999999999999
20
2.0668503937007872
11
1.66879468503937
21
2.0670901574803149
0
LINE
8
BLACK
6
CONTINUOUS
10
1.66879468503937
20
2.0670901574803149
11
1.667772874015748
21
2.0677728740157479
0
LINE
8
BLACK
6
CONTINUOUS
10
1.667772874015748
20
2.0677728740157479
11
1.667090157480315
21
2.0687946850393701
0
LINE
8
BLACK
6
CONTINUOUS
10
1.667090157480315
20
2.0687946850393701
11
1.6668503937007875
21
2.0699999999999998
0
LINE
8
BLACK
6
CONTINUOUS
10
1.6668503937007875
20
2.0699999999999998
11
1.6668503937007875
21
2.1299999999999999
0
LINE
8
BLACK
6
CONTINUOUS
10
1.6668503937007875
20
2.1299999999999999
11
1.667090157480315
21
2.13120531496063
0
LINE
8
BLACK
6
CONTINUOUS
10
1.667090157480315
20
2.13120531496063
11
1.667772874015748
21
2.1322271259842518
0
LINE
8
BLACK
6
CONTINUOUS
10
1.667772874015748
20
2.1322271259842518
11
1.66879468503937
21
2.1329098425196849
0
LINE
8
BLACK
6
CONTINUOUS
10
1.66879468503937
20
2.1329098425196849
11
1.6699999999999999
21
2.1331496062992126
0
LINE
8
BLACK
6
CONTINUOUS
10
1.6699999999999999
20
2.1331496062992126
11
1.73
21
2.1331496062992126
0
LINE
8
BLACK
6
CONTINUOUS
10
1.73
20
2.1331496062992126
11
1.7312053149606299
21
2.1329098425196849
0
LINE
8
BLACK
6
CONTINUOUS
10
1.8312053149606298
20
2.1329098425196849
11
1.832227125984252
21
2.1322271259842518
0
LINE
8
BLACK
6
CONTINUOUS
10
1.832227125984252
20
2.1322271259842518
11
1.832909842519685
21
2.13120531496063
0
LINE
8
BLACK
6
CONTINUOUS
10
1.832909842519685
20
2.13120531496063
11
1.8331496062992125
21
2.1299999999999999
0
LINE
8
BLACK
6
CONTINUOUS
10
1.8331496062992125
20
2.1299999999999999
11
1.8331496062992125
21
2.0699999999999998
0
LINE
8
BLACK
6
CONTINUOUS
10
1.8331496062992125
20
2.0699999999999998
11
1.832909842519685
21
2.0687946850393701
0
LINE
8
BLACK
6
CONTINUOUS
10
1.832909842519685
20
2.0687946850393701
11
1.832227125984252
21
2.0677728740157479
0
LINE
8
BLACK
6
CONTINUOUS
10
1.832227125984252
20
2.0677728740157479
11
1.8312053149606298
21
2.0670901574803149
0
LINE
8
BLACK
6
CONTINUOUS
10
1.8312053149606298
20
2.0670901574803149
11
1.8299999999999998
21
2.0668503937007872
0
LINE
8
BLACK
6
CONTINUOUS
10
1.8299999999999998
20
2.0668503937007872
11
1.77
21
2.0668503937007872
0
LINE
8
BLACK
6
CONTINUOUS
10
1.77
20
2.0668503937007872
11
1.7687946850393701
21
2.0670901574803149
0
LINE
8
BLACK
6
CONTINUOUS
10
1.7687946850393701
20
2.0670901574803149
11
1.7677728740157479
21
2.0677728740157479
0
LINE
8
BLACK
6
CONTINUOUS
10
1.7677728740157479
20
2.0677728740157479
11
1.7670901574803148
21
2.0687946850393701
0
LINE
8
BLACK
6
CONTINUOUS
10
1.7670901574803148
20
2.0687946850393701
11
1.7668503937007873
21
2.0699999999999998
0
LINE
8
BLACK
6
CONTINUOUS
10
1.7668503937007873
20
2.0699999999999998
11
1.7668503937007873
21
2.1299999999999999
0
LINE
8
BLACK
6
CONTINUOUS
10
1.7668503937007873
20
2.1299999999999999
11
1.7670901574803148
21
2.13120531496063
0
LINE
8
BLACK
6
CONTINUOUS
10
1.7670901574803148
20
2.13120531496063
11
1.7677728740157479
21
2.1322271259842518
0
LINE
8
BLACK
6
CONTINUOUS
10
1.7677728740157479
20
2.1322271259842518
11
1.7687946850393701
21
2.1329098425196849
0
LINE
8
BLACK
6
CONTINUOUS
10
1.7687946850393701
20
2.1329098425196849
11
1.77
21
2.1331496062992126
0
LINE
8
BLACK
6
CONTINUOUS
10
1.77
20
2.1331496062992126
11
1.8299999999999998
21
2.1331496062992126
0
LINE
8
BLACK
6
CONTINUOUS
10
1.8299999999999998
20
2.1331496062992126
11
1.8312053149606298
21
2.1329098425196849
0
LINE
8
BLACK
6
CONTINUOUS
10
1.9312053149606299
20
2.1329098425196849
11
1.9322271259842518
21
2.1322271259842518
0
LINE
8
BLACK
6
CONTINUOUS
10
1.9322271259842518
20
2.1322271259842518
11
1.9329098425196849
21
2.13120531496063
0
LINE
8
BLACK
6
CONTINUOUS
10
1.9329098425196849
20
2.13120531496063
11
1.9331496062992126
21
2.1299999999999999
0
LINE
8
BLACK
6
CONTINUOUS
10
1.9331496062992126
20
2.1299999999999999
11
1.9331496062992126
21
2.0699999999999998
0
LINE
8
BLACK
6
CONTINUOUS
10
1.9331496062992126
20
2.0699999999999998
11
1.9329098425196849
21
2.0687946850393701
0
LINE
8
BLACK
6
CONTINUOUS
10
1.9329098425196849
20
2.0687946850393701
11
1.9322271259842518
21
2.0677728740157479
0
LINE
8
BLACK
6
CONTINUOUS
10
1.9322271259842518
20
2.0677728740157479
11
1.9312053149606299
21
2.0670901574803149
0
LINE
8
BLACK
6
CONTINUOUS
10
1.9312053149606299
20
2.0670901574803149
11
1.9299999999999999
21
2.0668503937007872
0
LINE
8
BLACK
6
CONTINUOUS
10
1.9299999999999999
20
2.0668503937007872
11
1.8699999999999999
21
2.0668503937007872
0
LINE
8
BLACK
6
CONTINUOUS
10
1.8699999999999999
20
2.0668503937007872
11
1.86879468503937
21
2.0670901574803149
0
LINE
8
BLACK
6
CONTINUOUS
10
1.86879468503937
20
2.0670901574803149
11
1.867772874015748
21
2.0677728740157479
0
LINE
8
BLACK
6
CONTINUOUS
10
1.867772874015748
20
2.0677728740157479
11
1.8670901574803149
21
2.0687946850393701
0
LINE
8
BLACK
6
CONTINUOUS
10
1.8670901574803149
20
2.0687946850393701
11
1.8668503937007874
21
2.0699999999999998
0
LINE
8
BLACK
6
CONTINUOUS
10
1.8668503937007874
20
2.0699999999999998
11
1.8668503937007874
21
2.1299999999999999
0
LINE
8
BLACK
6
CONTINUOUS
10
1.8668503937007874
20
2.1299999999999999
11
1.8670901574803149
21
2.13120531496063
0
LINE
8
BLACK
6
CONTINUOUS
10
1.8670901574803149
20
2.13120531496063
11
1.867772874015748
21
2.1322271259842518
0
LINE
8
BLACK
6
CONTINUOUS
10
1.867772874015748
20
2.1322271259842518
11
1.86879468503937
21
2.1329098425196849
0
LINE
8
BLACK
6
CONTINUOUS
10
1.86879468503937
20
2.1329098425196849
11
1.8699999999999999
21
2.1331496062992126
0
LINE
8
BLACK
6
CONTINUOUS
10
1.8699999999999999
20
2.1331496062992126
11
1.9299999999999999
21
2.1331496062992126
0
LINE
8
BLACK
6
CONTINUOUS
10
1.9299999999999999
20
2.1331496062992126
11
1.9312053149606299
21
2.1329098425196849
0
LINE
8
BLACK
6
CONTINUOUS
10
2.0312053149606299
20
2.1329098425196849
11
2.0322271259842517
21
2.1322271259842518
0
LINE
8
BLACK
6
CONTINUOUS
10
2.0322271259842517
20
2.1322271259842518
11
2.0329098425196852
21
2.13120531496063
0
LINE
8
BLACK
6
CONTINUOUS
10
2.0329098425196852
20
2.13120531496063
11
2.0331496062992125
21
2.1299999999999999
0
LINE
8
BLACK
6
CONTINUOUS
10
2.0331496062992125
20
2.1299999999999999
11
2.0331496062992125
21
2.0699999999999998
0
LINE
8
BLACK
6
CONTINUOUS
10
2.0331496062992125
20
2.0699999999999998
11
2.0329098425196852
21
2.0687946850393701
0
LINE
8
BLACK
6
CONTINUOUS
10
2.0329098425196852
20
2.0687946850393701
11
2.0322271259842517
21
2.0677728740157479
0
LINE
8
BLACK
6
CONTINUOUS
10
2.0322271259842517
20
2.0677728740157479
11
2.0312053149606299
21
2.0670901574803149
0
LINE
8
BLACK
6
CONTINUOUS
10
2.0312053149606299
20
2.0670901574803149
11
2.0299999999999998
21
2.0668503937007872
0
LINE
8
BLACK
6
CONTINUOUS
10
2.0299999999999998
20
2.0668503937007872
11
1.97
21
2.0668503937007872
0
LINE
8
BLACK
6
CONTINUOUS
10
1.97
20
2.0668503937007872
11
1.9687946850393701
21
2.0670901574803149
0
LINE
8
BLACK
6
CONTINUOUS
10
1.9687946850393701
20
2.0670901574803149
11
1.9677728740157481
21
2.0677728740157479
0
LINE
8
BLACK
6
CONTINUOUS
10
1.9677728740157481
20
2.0677728740157479
11
1.967090157480315
21
2.0687946850393701
0
LINE
8
BLACK
6
CONTINUOUS
10
1.967090157480315
20
2.0687946850393701
11
1.9668503937007873
21
2.0699999999999998
0
LINE
8
BLACK
6
CONTINUOUS
10
1.9668503937007873
20
2.0699999999999998
11
1.9668503937007873
21
2.1299999999999999
0
LINE
8
BLACK
6
CONTINUOUS
10
1.9668503937007873
20
2.1299999999999999
11
1.967090157480315
21
2.13120531496063
0
LINE
8
BLACK
6
CONTINUOUS
10
1.967090157480315
20
2.13120531496063
11
1.9677728740157481
21
2.1322271259842518
0
LINE
8
BLACK
6
CONTINUOUS
10
1.9677728740157481
20
2.1322271259842518
11
1.9687946850393701
21
2.1329098425196849
0
LINE
8
BLACK
6
CONTINUOUS
10
1.9687946850393701
20
2.1329098425196849
11
1.97
21
2.1331496062992126
0
LINE
8
BLACK
6
CONTINUOUS
10
1.97
20
2.1331496062992126
11
2.0299999999999998
21
2.1331496062992126
0
LINE
8
BLACK
6
CONTINUOUS
10
2.0299999999999998
20
2.1331496062992126
11
2.0312053149606299
21
2.1329098425196849
0
LINE
8
BLACK
6
CONTINUOUS
10
2.13120531496063
20
2.1329098425196849
11
2.1322271259842518
21
2.1322271259842518
0
LINE
8
BLACK
6
CONTINUOUS
10
2.1322271259842518
20
2.1322271259842518
11
2.1329098425196849
21
2.13120531496063
0
LINE
8
BLACK
6
CONTINUOUS
10
2.1329098425196849
20
2.13120531496063
11
2.1331496062992126
21
2.1299999999999999
0
LINE
8
BLACK
6
CONTINUOUS
10
2.1331496062992126
20
2.1299999999999999
11
2.1331496062992126
21
2.0699999999999998
0
LINE
8
BLACK
6
CONTINUOUS
10
2.1331496062992126
20
2.0699999999999998
11
2.1329098425196849
21
2.0687946850393701
0
LINE
8
BLACK
6
CONTINUOUS
10
2.1329098425196849
20
2.0687946850393701
11
2.1322271259842518
21
2.0677728740157479
0
LINE
8
BLACK
6
CONTINUOUS
10
2.1322271259842518
20
2.0677728740157479
11
2.13120531496063
21
2.0670901574803149
0
LINE
8
BLACK
6
CONTINUOUS
10
2.13120531496063
20
2.0670901574803149
11
2.1299999999999999
21
2.0668503937007872
0
LINE
8
BLACK
6
CONTINUOUS
10
2.1299999999999999
20
2.0668503937007872
11
2.0699999999999998
21
2.0668503937007872
0
LINE
8
BLACK
6
CONTINUOUS
10
2.0699999999999998
20
2.0668503937007872
11
2.0687946850393701
21
2.0670901574803149
0
LINE
8
BLACK
6
CONTINUOUS
10
2.0687946850393701
20
2.0670901574803149
11
2.0677728740157479
21
2.0677728740157479
0
LINE
8
BLACK
6
CONTINUOUS
10
2.0677728740157479
20
2.0677728740157479
11
2.0670901574803149
21
2.0687946850393701
0
LINE
8
BLACK
6
CONTINUOUS
10
2.0670901574803149
20
2.0687946850393701
11
2.0668503937007872
21
2.0699999999999998
0
LINE
8
BLACK
6
CONTINUOUS
10
2.0668503937007872
20
2.0699999999999998
11
2.0668503937007872
21
2.1299999999999999
0
LINE
8
BLACK
6
CONTINUOUS
10
2.0668503937007872
20
2.1299999999999999
11
2.0670901574803149
21
2.13120531496063
0
LINE
8
BLACK
6
CONTINUOUS
10
2.0670901574803149
20
2.13120531496063
11
2.0677728740157479
21
2.1322271259842518
0
LINE
8
BLACK
6
CONTINUOUS
10
2.0677728740157479
20
2.1322271259842518
11
2.0687946850393701
21
2.1329098425196849
0
LINE
8
BLACK
6
CONTINUOUS
10
2.0687946850393701
20
2.1329098425196849
11
2.0699999999999998
21
2.1331496062992126
0
LINE
8
BLACK
6
CONTINUOUS
10
2.0699999999999998
20
2.1331496062992126
11
2.1299999999999999
21
2.1331496062992126
0
LINE
8
BLACK
6
CONTINUOUS
10
2.1299999999999999
20
2.1331496062992126
11
2.13120531496063
21
2.1329098425196849
0
LINE
8
BLACK
6
CONTINUOUS
10
2.2312053149606297
20
2.1329098425196849
11
2.2322271259842519
21
2.1322271259842518
0
LINE
8
BLACK
6
CONTINUOUS
10
2.2322271259842519
20
2.1322271259842518
11
2.2329098425196849
21
2.13120531496063
0
LINE
8
BLACK
6
CONTINUOUS
10
2.2329098425196849
20
2.13120531496063
11
2.2331496062992127
21
2.1299999999999999
0
LINE
8
BLACK
6
CONTINUOUS
10
2.2331496062992127
20
2.1299999999999999
11
2.2331496062992127
21
2.0699999999999998
0
LINE
8
BLACK
6
CONTINUOUS
10
2.2331496062992127
20
2.0699999999999998
11
2.2329098425196849
21
2.0687946850393701
0
LINE
8
BLACK
6
CONTINUOUS
10
2.2329098425196849
20
2.0687946850393701
11
2.2322271259842519
21
2.0677728740157479
0
LINE
8
BLACK
6
CONTINUOUS
10
2.2322271259842519
20
2.0677728740157479
11
2.2312053149606297
21
2.0670901574803149
0
LINE
8
BLACK
6
CONTINUOUS
10
2.2312053149606297
20
2.0670901574803149
11
2.23
21
2.0668503937007872
0
LINE
8
BLACK
6
CONTINUOUS
10
2.23
20
2.0668503937007872
11
2.1699999999999999
21
2.0668503937007872
0
LINE
8
BLACK
6
CONTINUOUS
10
2.1699999999999999
20
2.0668503937007872
11
2.1687946850393702
21
2.0670901574803149
0
LINE
8
BLACK
6
CONTINUOUS
10
2.1687946850393702
20
2.0670901574803149
11
2.167772874015748
21
2.0677728740157479
0
LINE
8
BLACK
6
CONTINUOUS
10
2.167772874015748
20
2.0677728740157479
11
2.167090157480315
21
2.0687946850393701
0
LINE
8
BLACK
6
CONTINUOUS
10
2.167090157480315
20
2.0687946850393701
11
2.1668503937007872
21
2.0699999999999998
0
LINE
8
BLACK
6
CONTINUOUS
10
2.1668503937007872
20
2.0699999999999998
11
2.1668503937007872
21
2.1299999999999999
0
LINE
8
BLACK
6
CONTINUOUS
10
2.1668503937007872
20
2.1299999999999999
11
2.167090157480315
21
2.13120531496063
0
LINE
8
BLACK
6
CONTINUOUS
10
2.167090157480315
20
2.13120531496063
11
2.167772874015748
21
2.1322271259842518
0
LINE
8
BLACK
6
CONTINUOUS
10
2.167772874015748
20
2.1322271259842518
11
2.1687946850393702
21
2.1329098425196849
0
LINE
8
BLACK
6
CONTINUOUS
10
2.1687946850393702
20
2.1329098425196849
11
2.1699999999999999
21
2.1331496062992126
0
LINE
8
BLACK
6
CONTINUOUS
10
2.1699999999999999
20
2.1331496062992126
11
2.23
21
2.1331496062992126
0
LINE
8
BLACK
6
CONTINUOUS
10
2.23
20
2.1331496062992126
11
2.2312053149606297
21
2.1329098425196849
0
LINE
8
BLACK
6
CONTINUOUS
10
2.3312053149606298
20
2.1329098425196849
11
2.332227125984252
21
2.1322271259842518
0
LINE
8
BLACK
6
CONTINUOUS
10
2.332227125984252
20
2.1322271259842518
11
2.332909842519685
21
2.13120531496063
0
LINE
8
BLACK
6
CONTINUOUS
10
2.332909842519685
20
2.13120531496063
11
2.3331496062992128
21
2.1299999999999999
0
LINE
8
BLACK
6
CONTINUOUS
10
2.3331496062992128
20
2.1299999999999999
11
2.3331496062992128
21
2.0699999999999998
0
LINE
8
BLACK
6
CONTINUOUS
10
2.3331496062992128
20
2.0699999999999998
11
2.332909842519685
21
2.0687946850393701
0
LINE
8
BLACK
6
CONTINUOUS
10
2.332909842519685
20
2.0687946850393701
11
2.332227125984252
21
2.0677728740157479
0
LINE
8
BLACK
6
CONTINUOUS
10
2.332227125984252
20
2.0677728740157479
11
2.3312053149606298
21
2.0670901574803149
0
LINE
8
BLACK
6
CONTINUOUS
10
2.3312053149606298
20
2.0670901574803149
11
2.3300000000000001
21
2.0668503937007872
0
LINE
8
BLACK
6
CONTINUOUS
10
2.3300000000000001
20
2.0668503937007872
11
2.27
21
2.0668503937007872
0
LINE
8
BLACK
6
CONTINUOUS
10
2.27
20
2.0668503937007872
11
2.2687946850393699
21
2.0670901574803149
0
LINE
8
BLACK
6
CONTINUOUS
10
2.2687946850393699
20
2.0670901574803149
11
2.2677728740157481
21
2.0677728740157479
0
LINE
8
BLACK
6
CONTINUOUS
10
2.2677728740157481
20
2.0677728740157479
11
2.2670901574803151
21
2.0687946850393701
0
LINE
8
BLACK
6
CONTINUOUS
10
2.2670901574803151
20
2.0687946850393701
11
2.2668503937007873
21
2.0699999999999998
0
LINE
8
BLACK
6
CONTINUOUS
10
2.2668503937007873
20
2.0699999999999998
11
2.2668503937007873
21
2.1299999999999999
0
LINE
8
BLACK
6
CONTINUOUS
10
2.2668503937007873
20
2.1299999999999999
11
2.2670901574803151
21
2.13120531496063
0
LINE
8
BLACK
6
CONTINUOUS
10
2.2670901574803151
20
2.13120531496063
11
2.2677728740157481
21
2.1322271259842518
0
LINE
8
BLACK
6
CONTINUOUS
10
2.2677728740157481
20
2.1322271259842518
11
2.2687946850393699
21
2.1329098425196849
0
LINE
8
BLACK
6
CONTINUOUS
10
2.2687946850393699
20
2.1329098425196849
11
2.27
21
2.1331496062992126
0
LINE
8
BLACK
6
CONTINUOUS
10
2.27
20
2.1331496062992126
11
2.3300000000000001
21
2.1331496062992126
0
LINE
8
BLACK
6
CONTINUOUS
10
2.3300000000000001
20
2.1331496062992126
11
2.3312053149606298
21
2.1329098425196849
  0
ENDSEC
  0
EOF
