  0
SECTION
  2
HEADER
  9
$ANGBASE
  50
0.0
  9
$ANGDIR
  70
1
  9
$MEASUREMENT
  70
0
  0
ENDSEC
  0
SECTION
  2
TABLES
  0
TABLE
  2
LTYPE
  70
4
  0
LTYPE
  5
40F
  2
CONTINUOUS
  70
0
  3
Solid line
  72
65
  73
0
  40
0.0
  0
LTYPE
  5
410
  2
DASHDOT
 70
0
  3
Dash Dot ____ _ ____ _
 72
65
 73
4
 40
2.0
 49
1.25
 49
-0.25
 49
0.25
 49
-0.25
  0
LTYPE
  5
411
  2
DASHED
 70
0
  3
Dashed __ __ __ __ __
 72
65
 73
2
 40
0.75
 49
0.5
 49
-0.25
  0
LTYPE
  5
43B
  2
DOTTED
 70
0
  3
Dotted .  .  .  .
 72
65
 73
2
 40
0.2
 49
0.0
 49
-0.2
  0
ENDTAB
  0
TABLE
  2
STYLE
  70
4
  0
STYLE
  2
KICAD
  70
0
  40
0
  41
1
  42
1
  50
0
  71
0
  3
isocp.shx
  0
STYLE
  2
KICADB
  70
0
  40
0
  41
1
  42
1
  50
0
  71
0
  3
isocp.shx
  0
STYLE
  2
KICADI
  70
0
  40
0
  41
1
  42
1
  50
15
  71
0
  3
isocp.shx
  0
STYLE
  2
KICADBI
  70
0
  40
0
  41
1
  42
1
  50
15
  71
0
  3
isocp.shx
  0
ENDTAB
  0
TABLE
  2
LAYER
  70
1
  0
LAYER
  2
BLACK
  70
0
  62
7
  6
CONTINUOUS
  0
ENDTAB
  0
ENDSEC
  0
SECTION
  2
ENTITIES
0
LINE
8
BLACK
6
CONTINUOUS
10
1.0194160629921261
20
0.6894372047244094
11
1.0269862598425197
21
0.6871408267716536
0
LINE
8
BLACK
6
CONTINUOUS
10
1.0269862598425197
20
0.6871408267716536
11
1.0339629527559056
21
0.683411653543307
0
LINE
8
BLACK
6
CONTINUOUS
10
1.0339629527559056
20
0.683411653543307
11
1.0400781102362204
21
0.6783930708661418
0
LINE
8
BLACK
6
CONTINUOUS
10
1.0400781102362204
20
0.6783930708661418
11
1.0450966929133858
21
0.6722779133858268
0
LINE
8
BLACK
6
CONTINUOUS
10
1.0450966929133858
20
0.6722779133858268
11
1.0488258661417322
21
0.6653012204724409
0
LINE
8
BLACK
6
CONTINUOUS
10
1.0488258661417322
20
0.6653012204724409
11
1.0511222440944881
21
0.6577310236220473
0
LINE
8
BLACK
6
CONTINUOUS
10
1.0511222440944881
20
0.6577310236220473
11
1.0518976377952756
21
0.6498582677165354
0
LINE
8
BLACK
6
CONTINUOUS
10
1.0518976377952756
20
0.6498582677165354
11
1.0511222440944881
21
0.6419855118110236
0
LINE
8
BLACK
6
CONTINUOUS
10
1.0511222440944881
20
0.6419855118110236
11
1.0488258661417322
21
0.6344153149606299
0
LINE
8
BLACK
6
CONTINUOUS
10
1.0488258661417322
20
0.6344153149606299
11
1.0450966929133858
21
0.6274386220472441
0
LINE
8
BLACK
6
CONTINUOUS
10
1.0450966929133858
20
0.6274386220472441
11
1.0400781102362204
21
0.6213234645669291
0
LINE
8
BLACK
6
CONTINUOUS
10
1.0400781102362204
20
0.6213234645669291
11
1.0339629527559056
21
0.6163048818897637
0
LINE
8
BLACK
6
CONTINUOUS
10
1.0339629527559056
20
0.6163048818897637
11
1.0269862598425197
21
0.6125757086614173
0
LINE
8
BLACK
6
CONTINUOUS
10
1.0269862598425197
20
0.6125757086614173
11
1.0194160629921261
21
0.6102793307086614
0
LINE
8
BLACK
6
CONTINUOUS
10
1.0194160629921261
20
0.6102793307086614
11
1.0115433070866142
21
0.609503937007874
0
LINE
8
BLACK
6
CONTINUOUS
10
1.0115433070866142
20
0.609503937007874
11
1.0036705511811024
21
0.6102793307086614
0
LINE
8
BLACK
6
CONTINUOUS
10
1.0036705511811024
20
0.6102793307086614
11
0.9961003543307086
21
0.6125757086614173
0
LINE
8
BLACK
6
CONTINUOUS
10
0.9961003543307086
20
0.6125757086614173
11
0.9891236614173228
21
0.6163048818897637
0
LINE
8
BLACK
6
CONTINUOUS
10
0.9891236614173228
20
0.6163048818897637
11
0.9830085039370079
21
0.6213234645669291
0
LINE
8
BLACK
6
CONTINUOUS
10
0.9830085039370079
20
0.6213234645669291
11
0.9779899212598425
21
0.6274386220472441
0
LINE
8
BLACK
6
CONTINUOUS
10
0.9779899212598425
20
0.6274386220472441
11
0.9742607480314961
21
0.6344153149606299
0
LINE
8
BLACK
6
CONTINUOUS
10
0.9742607480314961
20
0.6344153149606299
11
0.9719643700787401
21
0.6419855118110236
0
LINE
8
BLACK
6
CONTINUOUS
10
0.9719643700787401
20
0.6419855118110236
11
0.9711889763779528
21
0.6498582677165354
0
LINE
8
BLACK
6
CONTINUOUS
10
0.9711889763779528
20
0.6498582677165354
11
0.9719643700787401
21
0.6577310236220473
0
LINE
8
BLACK
6
CONTINUOUS
10
0.9719643700787401
20
0.6577310236220473
11
0.9742607480314961
21
0.6653012204724409
0
LINE
8
BLACK
6
CONTINUOUS
10
0.9742607480314961
20
0.6653012204724409
11
0.9779899212598425
21
0.6722779133858268
0
LINE
8
BLACK
6
CONTINUOUS
10
0.9779899212598425
20
0.6722779133858268
11
0.9830085039370079
21
0.6783930708661418
0
LINE
8
BLACK
6
CONTINUOUS
10
0.9830085039370079
20
0.6783930708661418
11
0.9891236614173228
21
0.683411653543307
0
LINE
8
BLACK
6
CONTINUOUS
10
0.9891236614173228
20
0.683411653543307
11
0.9961003543307086
21
0.6871408267716536
0
LINE
8
BLACK
6
CONTINUOUS
10
0.9961003543307086
20
0.6871408267716536
11
1.0036705511811024
21
0.6894372047244094
0
LINE
8
BLACK
6
CONTINUOUS
10
1.0036705511811024
20
0.6894372047244094
11
1.0115433070866142
21
0.6902125984251969
0
LINE
8
BLACK
6
CONTINUOUS
10
1.0115433070866142
20
0.6902125984251969
11
1.0194160629921261
21
0.6894372047244094
0
LINE
8
BLACK
6
CONTINUOUS
10
0.973712874015748
20
0.6423333070866142
11
0.9759078346456692
21
0.6350975590551181
0
LINE
8
BLACK
6
CONTINUOUS
10
0.9759078346456692
20
0.6350975590551181
11
0.9794722047244094
21
0.6284290551181102
0
LINE
8
BLACK
6
CONTINUOUS
10
0.9794722047244094
20
0.6284290551181102
11
0.984269094488189
21
0.6225840551181102
0
LINE
8
BLACK
6
CONTINUOUS
10
0.984269094488189
20
0.6225840551181102
11
0.990114094488189
21
0.6177871653543306
0
LINE
8
BLACK
6
CONTINUOUS
10
0.990114094488189
20
0.6177871653543306
11
0.9967825984251968
21
0.6142227952755905
0
LINE
8
BLACK
6
CONTINUOUS
10
0.9967825984251968
20
0.6142227952755905
11
1.004018346456693
21
0.6120278346456692
0
LINE
8
BLACK
6
CONTINUOUS
10
1.004018346456693
20
0.6120278346456692
11
1.0115433070866142
21
0.6112866929133858
0
LINE
8
BLACK
6
CONTINUOUS
10
1.0115433070866142
20
0.6112866929133858
11
1.0190682677165355
21
0.6120278346456692
0
LINE
8
BLACK
6
CONTINUOUS
10
1.0190682677165355
20
0.6120278346456692
11
1.0263040157480314
21
0.6142227952755905
0
LINE
8
BLACK
6
CONTINUOUS
10
1.0263040157480314
20
0.6142227952755905
11
1.0329725196850394
21
0.6177871653543306
0
LINE
8
BLACK
6
CONTINUOUS
10
1.0329725196850394
20
0.6177871653543306
11
1.0388175196850393
21
0.6225840551181102
0
LINE
8
BLACK
6
CONTINUOUS
10
1.0388175196850393
20
0.6225840551181102
11
1.0436144094488189
21
0.6284290551181102
0
LINE
8
BLACK
6
CONTINUOUS
10
1.0436144094488189
20
0.6284290551181102
11
1.0471787795275591
21
0.6350975590551181
0
LINE
8
BLACK
6
CONTINUOUS
10
1.0471787795275591
20
0.6350975590551181
11
1.0493737401574803
21
0.6423333070866142
0
LINE
8
BLACK
6
CONTINUOUS
10
1.0493737401574803
20
0.6423333070866142
11
1.0501148818897637
21
0.6498582677165354
0
LINE
8
BLACK
6
CONTINUOUS
10
1.0501148818897637
20
0.6498582677165354
11
1.0493737401574803
21
0.6573832283464567
0
LINE
8
BLACK
6
CONTINUOUS
10
1.0493737401574803
20
0.6573832283464567
11
1.0471787795275591
21
0.6646189763779528
0
LINE
8
BLACK
6
CONTINUOUS
10
1.0471787795275591
20
0.6646189763779528
11
1.0436144094488189
21
0.6712874803149607
0
LINE
8
BLACK
6
CONTINUOUS
10
1.0436144094488189
20
0.6712874803149607
11
1.0388175196850393
21
0.6771324803149606
0
LINE
8
BLACK
6
CONTINUOUS
10
1.0388175196850393
20
0.6771324803149606
11
1.0329725196850394
21
0.6819293700787401
0
LINE
8
BLACK
6
CONTINUOUS
10
1.0329725196850394
20
0.6819293700787401
11
1.0263040157480314
21
0.6854937401574803
0
LINE
8
BLACK
6
CONTINUOUS
10
1.0263040157480314
20
0.6854937401574803
11
1.0190682677165355
21
0.6876887007874015
0
LINE
8
BLACK
6
CONTINUOUS
10
1.0190682677165355
20
0.6876887007874015
11
1.0115433070866142
21
0.688429842519685
0
LINE
8
BLACK
6
CONTINUOUS
10
1.0115433070866142
20
0.688429842519685
11
1.004018346456693
21
0.6876887007874015
0
LINE
8
BLACK
6
CONTINUOUS
10
1.004018346456693
20
0.6876887007874015
11
0.9967825984251968
21
0.6854937401574803
0
LINE
8
BLACK
6
CONTINUOUS
10
0.9967825984251968
20
0.6854937401574803
11
0.990114094488189
21
0.6819293700787401
0
LINE
8
BLACK
6
CONTINUOUS
10
0.990114094488189
20
0.6819293700787401
11
0.984269094488189
21
0.6771324803149606
0
LINE
8
BLACK
6
CONTINUOUS
10
0.984269094488189
20
0.6771324803149606
11
0.9794722047244094
21
0.6712874803149607
0
LINE
8
BLACK
6
CONTINUOUS
10
0.9794722047244094
20
0.6712874803149607
11
0.9759078346456692
21
0.6646189763779528
0
LINE
8
BLACK
6
CONTINUOUS
10
0.9759078346456692
20
0.6646189763779528
11
0.973712874015748
21
0.6573832283464567
0
LINE
8
BLACK
6
CONTINUOUS
10
0.973712874015748
20
0.6573832283464567
11
0.9729717322834646
21
0.6498582677165354
0
LINE
8
BLACK
6
CONTINUOUS
10
0.9729717322834646
20
0.6498582677165354
11
0.973712874015748
21
0.6423333070866142
0
LINE
8
BLACK
6
CONTINUOUS
10
1.0094160629921261
20
0.8374372047244094
11
1.0169862598425197
21
0.8351408267716536
0
LINE
8
BLACK
6
CONTINUOUS
10
1.0169862598425197
20
0.8351408267716536
11
1.0239629527559055
21
0.831411653543307
0
LINE
8
BLACK
6
CONTINUOUS
10
1.0239629527559055
20
0.831411653543307
11
1.0300781102362204
21
0.8263930708661417
0
LINE
8
BLACK
6
CONTINUOUS
10
1.0300781102362204
20
0.8263930708661417
11
1.0350966929133858
21
0.8202779133858268
0
LINE
8
BLACK
6
CONTINUOUS
10
1.0350966929133858
20
0.8202779133858268
11
1.0388258661417322
21
0.8133012204724409
0
LINE
8
BLACK
6
CONTINUOUS
10
1.0388258661417322
20
0.8133012204724409
11
1.0411222440944881
21
0.8057310236220472
0
LINE
8
BLACK
6
CONTINUOUS
10
1.0411222440944881
20
0.8057310236220472
11
1.0418976377952756
21
0.7978582677165355
0
LINE
8
BLACK
6
CONTINUOUS
10
1.0418976377952756
20
0.7978582677165355
11
1.0411222440944881
21
0.7899855118110236
0
LINE
8
BLACK
6
CONTINUOUS
10
1.0411222440944881
20
0.7899855118110236
11
1.0388258661417322
21
0.7824153149606299
0
LINE
8
BLACK
6
CONTINUOUS
10
1.0388258661417322
20
0.7824153149606299
11
1.0350966929133858
21
0.7754386220472441
0
LINE
8
BLACK
6
CONTINUOUS
10
1.0350966929133858
20
0.7754386220472441
11
1.0300781102362204
21
0.7693234645669291
0
LINE
8
BLACK
6
CONTINUOUS
10
1.0300781102362204
20
0.7693234645669291
11
1.0239629527559055
21
0.7643048818897638
0
LINE
8
BLACK
6
CONTINUOUS
10
1.0239629527559055
20
0.7643048818897638
11
1.0169862598425197
21
0.7605757086614173
0
LINE
8
BLACK
6
CONTINUOUS
10
1.0169862598425197
20
0.7605757086614173
11
1.0094160629921261
21
0.7582793307086614
0
LINE
8
BLACK
6
CONTINUOUS
10
1.0094160629921261
20
0.7582793307086614
11
1.0015433070866142
21
0.757503937007874
0
LINE
8
BLACK
6
CONTINUOUS
10
1.0015433070866142
20
0.757503937007874
11
0.9936705511811024
21
0.7582793307086614
0
LINE
8
BLACK
6
CONTINUOUS
10
0.9936705511811024
20
0.7582793307086614
11
0.9861003543307086
21
0.7605757086614173
0
LINE
8
BLACK
6
CONTINUOUS
10
0.9861003543307086
20
0.7605757086614173
11
0.9791236614173228
21
0.7643048818897638
0
LINE
8
BLACK
6
CONTINUOUS
10
0.9791236614173228
20
0.7643048818897638
11
0.9730085039370079
21
0.7693234645669291
0
LINE
8
BLACK
6
CONTINUOUS
10
0.9730085039370079
20
0.7693234645669291
11
0.9679899212598425
21
0.7754386220472441
0
LINE
8
BLACK
6
CONTINUOUS
10
0.9679899212598425
20
0.7754386220472441
11
0.9642607480314961
21
0.7824153149606299
0
LINE
8
BLACK
6
CONTINUOUS
10
0.9642607480314961
20
0.7824153149606299
11
0.9619643700787401
21
0.7899855118110236
0
LINE
8
BLACK
6
CONTINUOUS
10
0.9619643700787401
20
0.7899855118110236
11
0.9611889763779528
21
0.7978582677165355
0
LINE
8
BLACK
6
CONTINUOUS
10
0.9611889763779528
20
0.7978582677165355
11
0.9619643700787401
21
0.8057310236220472
0
LINE
8
BLACK
6
CONTINUOUS
10
0.9619643700787401
20
0.8057310236220472
11
0.9642607480314961
21
0.8133012204724409
0
LINE
8
BLACK
6
CONTINUOUS
10
0.9642607480314961
20
0.8133012204724409
11
0.9679899212598425
21
0.8202779133858268
0
LINE
8
BLACK
6
CONTINUOUS
10
0.9679899212598425
20
0.8202779133858268
11
0.9730085039370079
21
0.8263930708661417
0
LINE
8
BLACK
6
CONTINUOUS
10
0.9730085039370079
20
0.8263930708661417
11
0.9791236614173228
21
0.831411653543307
0
LINE
8
BLACK
6
CONTINUOUS
10
0.9791236614173228
20
0.831411653543307
11
0.9861003543307086
21
0.8351408267716536
0
LINE
8
BLACK
6
CONTINUOUS
10
0.9861003543307086
20
0.8351408267716536
11
0.9936705511811024
21
0.8374372047244094
0
LINE
8
BLACK
6
CONTINUOUS
10
0.9936705511811024
20
0.8374372047244094
11
1.0015433070866142
21
0.8382125984251968
0
LINE
8
BLACK
6
CONTINUOUS
10
1.0015433070866142
20
0.8382125984251968
11
1.0094160629921261
21
0.8374372047244094
0
LINE
8
BLACK
6
CONTINUOUS
10
0.963712874015748
20
0.7903333070866142
11
0.9659078346456693
21
0.7830975590551181
0
LINE
8
BLACK
6
CONTINUOUS
10
0.9659078346456693
20
0.7830975590551181
11
0.9694722047244094
21
0.7764290551181102
0
LINE
8
BLACK
6
CONTINUOUS
10
0.9694722047244094
20
0.7764290551181102
11
0.974269094488189
21
0.7705840551181102
0
LINE
8
BLACK
6
CONTINUOUS
10
0.974269094488189
20
0.7705840551181102
11
0.980114094488189
21
0.7657871653543307
0
LINE
8
BLACK
6
CONTINUOUS
10
0.980114094488189
20
0.7657871653543307
11
0.9867825984251968
21
0.7622227952755906
0
LINE
8
BLACK
6
CONTINUOUS
10
0.9867825984251968
20
0.7622227952755906
11
0.9940183464566928
21
0.7600278346456693
0
LINE
8
BLACK
6
CONTINUOUS
10
0.9940183464566928
20
0.7600278346456693
11
1.0015433070866142
21
0.7592866929133858
0
LINE
8
BLACK
6
CONTINUOUS
10
1.0015433070866142
20
0.7592866929133858
11
1.0090682677165355
21
0.7600278346456693
0
LINE
8
BLACK
6
CONTINUOUS
10
1.0090682677165355
20
0.7600278346456693
11
1.0163040157480314
21
0.7622227952755906
0
LINE
8
BLACK
6
CONTINUOUS
10
1.0163040157480314
20
0.7622227952755906
11
1.0229725196850394
21
0.7657871653543307
0
LINE
8
BLACK
6
CONTINUOUS
10
1.0229725196850394
20
0.7657871653543307
11
1.0288175196850393
21
0.7705840551181102
0
LINE
8
BLACK
6
CONTINUOUS
10
1.0288175196850393
20
0.7705840551181102
11
1.0336144094488189
21
0.7764290551181102
0
LINE
8
BLACK
6
CONTINUOUS
10
1.0336144094488189
20
0.7764290551181102
11
1.0371787795275591
21
0.7830975590551181
0
LINE
8
BLACK
6
CONTINUOUS
10
1.0371787795275591
20
0.7830975590551181
11
1.0393737401574803
21
0.7903333070866142
0
LINE
8
BLACK
6
CONTINUOUS
10
1.0393737401574803
20
0.7903333070866142
11
1.0401148818897639
21
0.7978582677165355
0
LINE
8
BLACK
6
CONTINUOUS
10
1.0401148818897639
20
0.7978582677165355
11
1.0393737401574803
21
0.8053832283464567
0
LINE
8
BLACK
6
CONTINUOUS
10
1.0393737401574803
20
0.8053832283464567
11
1.0371787795275591
21
0.8126189763779528
0
LINE
8
BLACK
6
CONTINUOUS
10
1.0371787795275591
20
0.8126189763779528
11
1.0336144094488189
21
0.8192874803149606
0
LINE
8
BLACK
6
CONTINUOUS
10
1.0336144094488189
20
0.8192874803149606
11
1.0288175196850393
21
0.8251324803149606
0
LINE
8
BLACK
6
CONTINUOUS
10
1.0288175196850393
20
0.8251324803149606
11
1.0229725196850394
21
0.8299293700787401
0
LINE
8
BLACK
6
CONTINUOUS
10
1.0229725196850394
20
0.8299293700787401
11
1.0163040157480314
21
0.8334937401574803
0
LINE
8
BLACK
6
CONTINUOUS
10
1.0163040157480314
20
0.8334937401574803
11
1.0090682677165355
21
0.8356887007874015
0
LINE
8
BLACK
6
CONTINUOUS
10
1.0090682677165355
20
0.8356887007874015
11
1.0015433070866142
21
0.836429842519685
0
LINE
8
BLACK
6
CONTINUOUS
10
1.0015433070866142
20
0.836429842519685
11
0.9940183464566928
21
0.8356887007874015
0
LINE
8
BLACK
6
CONTINUOUS
10
0.9940183464566928
20
0.8356887007874015
11
0.9867825984251968
21
0.8334937401574803
0
LINE
8
BLACK
6
CONTINUOUS
10
0.9867825984251968
20
0.8334937401574803
11
0.980114094488189
21
0.8299293700787401
0
LINE
8
BLACK
6
CONTINUOUS
10
0.980114094488189
20
0.8299293700787401
11
0.974269094488189
21
0.8251324803149606
0
LINE
8
BLACK
6
CONTINUOUS
10
0.974269094488189
20
0.8251324803149606
11
0.9694722047244094
21
0.8192874803149606
0
LINE
8
BLACK
6
CONTINUOUS
10
0.9694722047244094
20
0.8192874803149606
11
0.9659078346456693
21
0.8126189763779528
0
LINE
8
BLACK
6
CONTINUOUS
10
0.9659078346456693
20
0.8126189763779528
11
0.963712874015748
21
0.8053832283464567
0
LINE
8
BLACK
6
CONTINUOUS
10
0.963712874015748
20
0.8053832283464567
11
0.9629717322834646
21
0.7978582677165355
0
LINE
8
BLACK
6
CONTINUOUS
10
0.9629717322834646
20
0.7978582677165355
11
0.963712874015748
21
0.7903333070866142
0
LINE
8
BLACK
6
CONTINUOUS
10
1.0094160629921261
20
0.9294372047244094
11
1.0169862598425197
21
0.9271408267716535
0
LINE
8
BLACK
6
CONTINUOUS
10
1.0169862598425197
20
0.9271408267716535
11
1.0239629527559055
21
0.9234116535433071
0
LINE
8
BLACK
6
CONTINUOUS
10
1.0239629527559055
20
0.9234116535433071
11
1.0300781102362204
21
0.9183930708661417
0
LINE
8
BLACK
6
CONTINUOUS
10
1.0300781102362204
20
0.9183930708661417
11
1.0350966929133858
21
0.9122779133858268
0
LINE
8
BLACK
6
CONTINUOUS
10
1.0350966929133858
20
0.9122779133858268
11
1.0388258661417322
21
0.9053012204724409
0
LINE
8
BLACK
6
CONTINUOUS
10
1.0388258661417322
20
0.9053012204724409
11
1.0411222440944881
21
0.8977310236220473
0
LINE
8
BLACK
6
CONTINUOUS
10
1.0411222440944881
20
0.8977310236220473
11
1.0418976377952756
21
0.8898582677165354
0
LINE
8
BLACK
6
CONTINUOUS
10
1.0418976377952756
20
0.8898582677165354
11
1.0411222440944881
21
0.8819855118110236
0
LINE
8
BLACK
6
CONTINUOUS
10
1.0411222440944881
20
0.8819855118110236
11
1.0388258661417322
21
0.8744153149606299
0
LINE
8
BLACK
6
CONTINUOUS
10
1.0388258661417322
20
0.8744153149606299
11
1.0350966929133858
21
0.8674386220472441
0
LINE
8
BLACK
6
CONTINUOUS
10
1.0350966929133858
20
0.8674386220472441
11
1.0300781102362204
21
0.8613234645669291
0
LINE
8
BLACK
6
CONTINUOUS
10
1.0300781102362204
20
0.8613234645669291
11
1.0239629527559055
21
0.8563048818897637
0
LINE
8
BLACK
6
CONTINUOUS
10
1.0239629527559055
20
0.8563048818897637
11
1.0169862598425197
21
0.8525757086614173
0
LINE
8
BLACK
6
CONTINUOUS
10
1.0169862598425197
20
0.8525757086614173
11
1.0094160629921261
21
0.8502793307086614
0
LINE
8
BLACK
6
CONTINUOUS
10
1.0094160629921261
20
0.8502793307086614
11
1.0015433070866142
21
0.849503937007874
0
LINE
8
BLACK
6
CONTINUOUS
10
1.0015433070866142
20
0.849503937007874
11
0.9936705511811024
21
0.8502793307086614
0
LINE
8
BLACK
6
CONTINUOUS
10
0.9936705511811024
20
0.8502793307086614
11
0.9861003543307086
21
0.8525757086614173
0
LINE
8
BLACK
6
CONTINUOUS
10
0.9861003543307086
20
0.8525757086614173
11
0.9791236614173228
21
0.8563048818897637
0
LINE
8
BLACK
6
CONTINUOUS
10
0.9791236614173228
20
0.8563048818897637
11
0.9730085039370079
21
0.8613234645669291
0
LINE
8
BLACK
6
CONTINUOUS
10
0.9730085039370079
20
0.8613234645669291
11
0.9679899212598425
21
0.8674386220472441
0
LINE
8
BLACK
6
CONTINUOUS
10
0.9679899212598425
20
0.8674386220472441
11
0.9642607480314961
21
0.8744153149606299
0
LINE
8
BLACK
6
CONTINUOUS
10
0.9642607480314961
20
0.8744153149606299
11
0.9619643700787401
21
0.8819855118110236
0
LINE
8
BLACK
6
CONTINUOUS
10
0.9619643700787401
20
0.8819855118110236
11
0.9611889763779528
21
0.8898582677165354
0
LINE
8
BLACK
6
CONTINUOUS
10
0.9611889763779528
20
0.8898582677165354
11
0.9619643700787401
21
0.8977310236220473
0
LINE
8
BLACK
6
CONTINUOUS
10
0.9619643700787401
20
0.8977310236220473
11
0.9642607480314961
21
0.9053012204724409
0
LINE
8
BLACK
6
CONTINUOUS
10
0.9642607480314961
20
0.9053012204724409
11
0.9679899212598425
21
0.9122779133858268
0
LINE
8
BLACK
6
CONTINUOUS
10
0.9679899212598425
20
0.9122779133858268
11
0.9730085039370079
21
0.9183930708661417
0
LINE
8
BLACK
6
CONTINUOUS
10
0.9730085039370079
20
0.9183930708661417
11
0.9791236614173228
21
0.9234116535433071
0
LINE
8
BLACK
6
CONTINUOUS
10
0.9791236614173228
20
0.9234116535433071
11
0.9861003543307086
21
0.9271408267716535
0
LINE
8
BLACK
6
CONTINUOUS
10
0.9861003543307086
20
0.9271408267716535
11
0.9936705511811024
21
0.9294372047244094
0
LINE
8
BLACK
6
CONTINUOUS
10
0.9936705511811024
20
0.9294372047244094
11
1.0015433070866142
21
0.9302125984251969
0
LINE
8
BLACK
6
CONTINUOUS
10
1.0015433070866142
20
0.9302125984251969
11
1.0094160629921261
21
0.9294372047244094
0
LINE
8
BLACK
6
CONTINUOUS
10
0.963712874015748
20
0.8823333070866142
11
0.9659078346456693
21
0.8750975590551181
0
LINE
8
BLACK
6
CONTINUOUS
10
0.9659078346456693
20
0.8750975590551181
11
0.9694722047244094
21
0.8684290551181102
0
LINE
8
BLACK
6
CONTINUOUS
10
0.9694722047244094
20
0.8684290551181102
11
0.974269094488189
21
0.8625840551181102
0
LINE
8
BLACK
6
CONTINUOUS
10
0.974269094488189
20
0.8625840551181102
11
0.980114094488189
21
0.8577871653543306
0
LINE
8
BLACK
6
CONTINUOUS
10
0.980114094488189
20
0.8577871653543306
11
0.9867825984251968
21
0.8542227952755905
0
LINE
8
BLACK
6
CONTINUOUS
10
0.9867825984251968
20
0.8542227952755905
11
0.9940183464566928
21
0.8520278346456692
0
LINE
8
BLACK
6
CONTINUOUS
10
0.9940183464566928
20
0.8520278346456692
11
1.0015433070866142
21
0.8512866929133858
0
LINE
8
BLACK
6
CONTINUOUS
10
1.0015433070866142
20
0.8512866929133858
11
1.0090682677165355
21
0.8520278346456692
0
LINE
8
BLACK
6
CONTINUOUS
10
1.0090682677165355
20
0.8520278346456692
11
1.0163040157480314
21
0.8542227952755905
0
LINE
8
BLACK
6
CONTINUOUS
10
1.0163040157480314
20
0.8542227952755905
11
1.0229725196850394
21
0.8577871653543306
0
LINE
8
BLACK
6
CONTINUOUS
10
1.0229725196850394
20
0.8577871653543306
11
1.0288175196850393
21
0.8625840551181102
0
LINE
8
BLACK
6
CONTINUOUS
10
1.0288175196850393
20
0.8625840551181102
11
1.0336144094488189
21
0.8684290551181102
0
LINE
8
BLACK
6
CONTINUOUS
10
1.0336144094488189
20
0.8684290551181102
11
1.0371787795275591
21
0.8750975590551181
0
LINE
8
BLACK
6
CONTINUOUS
10
1.0371787795275591
20
0.8750975590551181
11
1.0393737401574803
21
0.8823333070866142
0
LINE
8
BLACK
6
CONTINUOUS
10
1.0393737401574803
20
0.8823333070866142
11
1.0401148818897639
21
0.8898582677165354
0
LINE
8
BLACK
6
CONTINUOUS
10
1.0401148818897639
20
0.8898582677165354
11
1.0393737401574803
21
0.8973832283464567
0
LINE
8
BLACK
6
CONTINUOUS
10
1.0393737401574803
20
0.8973832283464567
11
1.0371787795275591
21
0.9046189763779527
0
LINE
8
BLACK
6
CONTINUOUS
10
1.0371787795275591
20
0.9046189763779527
11
1.0336144094488189
21
0.9112874803149607
0
LINE
8
BLACK
6
CONTINUOUS
10
1.0336144094488189
20
0.9112874803149607
11
1.0288175196850393
21
0.9171324803149606
0
LINE
8
BLACK
6
CONTINUOUS
10
1.0288175196850393
20
0.9171324803149606
11
1.0229725196850394
21
0.9219293700787401
0
LINE
8
BLACK
6
CONTINUOUS
10
1.0229725196850394
20
0.9219293700787401
11
1.0163040157480314
21
0.9254937401574803
0
LINE
8
BLACK
6
CONTINUOUS
10
1.0163040157480314
20
0.9254937401574803
11
1.0090682677165355
21
0.9276887007874015
0
LINE
8
BLACK
6
CONTINUOUS
10
1.0090682677165355
20
0.9276887007874015
11
1.0015433070866142
21
0.928429842519685
0
LINE
8
BLACK
6
CONTINUOUS
10
1.0015433070866142
20
0.928429842519685
11
0.9940183464566928
21
0.9276887007874015
0
LINE
8
BLACK
6
CONTINUOUS
10
0.9940183464566928
20
0.9276887007874015
11
0.9867825984251968
21
0.9254937401574803
0
LINE
8
BLACK
6
CONTINUOUS
10
0.9867825984251968
20
0.9254937401574803
11
0.980114094488189
21
0.9219293700787401
0
LINE
8
BLACK
6
CONTINUOUS
10
0.980114094488189
20
0.9219293700787401
11
0.974269094488189
21
0.9171324803149606
0
LINE
8
BLACK
6
CONTINUOUS
10
0.974269094488189
20
0.9171324803149606
11
0.9694722047244094
21
0.9112874803149607
0
LINE
8
BLACK
6
CONTINUOUS
10
0.9694722047244094
20
0.9112874803149607
11
0.9659078346456693
21
0.9046189763779527
0
LINE
8
BLACK
6
CONTINUOUS
10
0.9659078346456693
20
0.9046189763779527
11
0.963712874015748
21
0.8973832283464567
0
LINE
8
BLACK
6
CONTINUOUS
10
0.963712874015748
20
0.8973832283464567
11
0.9629717322834646
21
0.8898582677165354
0
LINE
8
BLACK
6
CONTINUOUS
10
0.9629717322834646
20
0.8898582677165354
11
0.963712874015748
21
0.8823333070866142
0
CIRCLE
8
BLACK
10
0.4
20
2.
40
0.0068897637795276
0
CIRCLE
8
BLACK
10
2.7999999999999998
20
2.
40
0.0068897637795276
0
CIRCLE
8
BLACK
10
0.4
20
0.4
40
0.0068897637795276
0
CIRCLE
8
BLACK
10
2.7999999999999998
20
0.4
40
0.0068897637795276
0
CIRCLE
8
BLACK
10
2.3395433070866143
20
0.9159999999999999
40
0.0068897637795276
0
CIRCLE
8
BLACK
10
2.3395433070866143
20
1.1128503937007874
40
0.0068897637795276
0
CIRCLE
8
BLACK
10
0.9
20
2.1000000000000001
40
0.0068897637795276
0
CIRCLE
8
BLACK
10
0.9
20
2.
40
0.0068897637795276
0
CIRCLE
8
BLACK
10
1.
20
2.1000000000000001
40
0.0068897637795276
0
CIRCLE
8
BLACK
10
1.
20
2.
40
0.0068897637795276
0
CIRCLE
8
BLACK
10
1.0999999999999999
20
2.1000000000000001
40
0.0068897637795276
0
CIRCLE
8
BLACK
10
1.0999999999999999
20
2.
40
0.0068897637795276
0
CIRCLE
8
BLACK
10
1.2
20
2.1000000000000001
40
0.0068897637795276
0
CIRCLE
8
BLACK
10
1.2
20
2.
40
0.0068897637795276
0
CIRCLE
8
BLACK
10
1.3
20
2.1000000000000001
40
0.0068897637795276
0
CIRCLE
8
BLACK
10
1.3
20
2.
40
0.0068897637795276
0
CIRCLE
8
BLACK
10
1.3999999999999999
20
2.1000000000000001
40
0.0068897637795276
0
CIRCLE
8
BLACK
10
1.3999999999999999
20
2.
40
0.0068897637795276
0
CIRCLE
8
BLACK
10
1.5
20
2.1000000000000001
40
0.0068897637795276
0
CIRCLE
8
BLACK
10
1.5
20
2.
40
0.0068897637795276
0
CIRCLE
8
BLACK
10
1.5999999999999999
20
2.1000000000000001
40
0.0068897637795276
0
CIRCLE
8
BLACK
10
1.5999999999999999
20
2.
40
0.0068897637795276
0
CIRCLE
8
BLACK
10
1.7
20
2.1000000000000001
40
0.0068897637795276
0
CIRCLE
8
BLACK
10
1.7
20
2.
40
0.0068897637795276
0
CIRCLE
8
BLACK
10
1.8
20
2.1000000000000001
40
0.0068897637795276
0
CIRCLE
8
BLACK
10
1.8
20
2.
40
0.0068897637795276
0
CIRCLE
8
BLACK
10
1.8999999999999999
20
2.1000000000000001
40
0.0068897637795276
0
CIRCLE
8
BLACK
10
1.8999999999999999
20
2.
40
0.0068897637795276
0
CIRCLE
8
BLACK
10
2.
20
2.1000000000000001
40
0.0068897637795276
0
CIRCLE
8
BLACK
10
2.
20
2.
40
0.0068897637795276
0
CIRCLE
8
BLACK
10
2.1000000000000001
20
2.1000000000000001
40
0.0068897637795276
0
CIRCLE
8
BLACK
10
2.1000000000000001
20
2.
40
0.0068897637795276
0
CIRCLE
8
BLACK
10
2.1999999999999997
20
2.1000000000000001
40
0.0068897637795276
0
CIRCLE
8
BLACK
10
2.1999999999999997
20
2.
40
0.0068897637795276
0
CIRCLE
8
BLACK
10
2.2999999999999998
20
2.1000000000000001
40
0.0068897637795276
0
CIRCLE
8
BLACK
10
2.2999999999999998
20
2.
40
0.0068897637795276
  0
ENDSEC
  0
EOF
