  0
SECTION
  2
HEADER
  9
$ACADVER
  1
AC1018
  9
$HANDSEED
  5
FFFFFFFF
  9
$ANGBASE
  50
0.0
  9
$ANGDIR
  70
1
  9
$MEASUREMENT
  70
0
  9
$INSUNITS
  70
1
  0
ENDSEC
  0
SECTION
  2
TABLES
  0
TABLE
  2
APPID
  5
1
330
0
100
AcDbSymbolTable
 70
1
  0
APPID
  5
2
330
1
100
AcDbSymbolTableRecord
100
AcDbRegAppTableRecord
  2
ACAD
 70
0
  0
ENDTAB
  0
TABLE
  2
LTYPE
  5
3
330
0
100
AcDbSymbolTable
 70
6
  0
LTYPE
  5
4
330
3
100
AcDbSymbolTableRecord
100
AcDbLinetypeTableRecord
  2
ByBlock
 70
0
  3

 72
65
 73
0
 40
0
  0
LTYPE
  5
5
330
3
100
AcDbSymbolTableRecord
100
AcDbLinetypeTableRecord
  2
ByLayer
 70
0
  3

 72
65
 73
0
 40
0
  0
LTYPE
  5
6
330
3
100
AcDbSymbolTableRecord
100
AcDbLinetypeTableRecord
  2
CONTINUOUS
 70
0
  3
Solid line
 72
65
 73
0
 40
0
  0
LTYPE
  5
7
330
3
100
AcDbSymbolTableRecord
100
AcDbLinetypeTableRecord
  2
DASHDOT
 70
0
  3
Dash Dot ____ _ ____ _
 72
65
 73
4
 40
2
 49
1.25
 74
0
 49
-0.25
 74
0
 49
0.25
 74
0
 49
-0.25
 74
0
  0
LTYPE
  5
8
330
3
100
AcDbSymbolTableRecord
100
AcDbLinetypeTableRecord
  2
DASHED
 70
0
  3
Dashed __ __ __ __ __
 72
65
 73
2
 40
0.75
 49
0.5
 74
0
 49
-0.25
 74
0
  0
LTYPE
  5
9
330
3
100
AcDbSymbolTableRecord
100
AcDbLinetypeTableRecord
  2
DOTTED
 70
0
  3
Dotted .  .  .  .
 72
65
 73
2
 40
0.2
 49
0.0
 74
0
 49
-0.2
 74
0
  0
ENDTAB
  0
TABLE
  2
STYLE
  5
A
330
0
100
AcDbSymbolTable
 70
4
  0
STYLE
  5
B
330
A
100
AcDbSymbolTableRecord
100
AcDbTextStyleTableRecord
  2
KICAD
 70
0
 40
0
 41
1
 42
1
 50
0
 71
0
  3
isocp.shx
  0
STYLE
  5
C
330
A
100
AcDbSymbolTableRecord
100
AcDbTextStyleTableRecord
  2
KICADB
 70
0
 40
0
 41
1
 42
1
 50
0
 71
0
  3
isocp.shx
  0
STYLE
  5
D
330
A
100
AcDbSymbolTableRecord
100
AcDbTextStyleTableRecord
  2
KICADI
 70
0
 40
0
 41
1
 42
1
 50
15
 71
0
  3
isocp.shx
  0
STYLE
  5
E
330
A
100
AcDbSymbolTableRecord
100
AcDbTextStyleTableRecord
  2
KICADBI
 70
0
 40
0
 41
1
 42
1
 50
15
 71
0
  3
isocp.shx
  0
ENDTAB
  0
TABLE
  2
LAYER
  5
F
330
0
100
AcDbSymbolTable
 70
2
  0
LAYER
  5
12
330
F
100
AcDbSymbolTableRecord
100
AcDbLayerTableRecord
  2
0
 70
0
 62
7
  6
CONTINUOUS
390
10
  0
LAYER
  5
13
330
F
100
AcDbSymbolTableRecord
100
AcDbLayerTableRecord
  2
BLACK
 70
0
 62
250
  6
CONTINUOUS
390
10
  0
ENDTAB
  0
TABLE
  2
VPORT
  5
14
330
0
100
AcDbSymbolTable
 70
0
  0
ENDTAB
  0
TABLE
  2
VIEW
  5
15
330
0
100
AcDbSymbolTable
 70
0
  0
ENDTAB
  0
TABLE
  2
UCS
  5
16
330
0
100
AcDbSymbolTable
 70
0
  0
ENDTAB
  0
TABLE
  2
DIMSTYLE
  5
17
330
0
100
AcDbSymbolTable
 70
1
100
AcDbDimStyleTable
 71
0
  0
DIMSTYLE
105
18
330
17
100
AcDbSymbolTableRecord
100
AcDbDimStyleTableRecord
  2
Standard
 70
0
  0
ENDTAB
  0
TABLE
  2
BLOCK_RECORD
  5
19
330
0
100
AcDbSymbolTable
 70
3
  0
BLOCK_RECORD
  5
1A
330
19
100
AcDbSymbolTableRecord
100
AcDbBlockTableRecord
  2
*Model_Space
340
1D
 70
0
280
1
281
0
  0
BLOCK_RECORD
  5
1B
330
19
100
AcDbSymbolTableRecord
100
AcDbBlockTableRecord
  2
*Paper_Space
340
1E
 70
0
280
1
281
0
  0
BLOCK_RECORD
  5
1C
330
19
100
AcDbSymbolTableRecord
100
AcDbBlockTableRecord
  2
*Paper_Space0
340
1F
 70
0
280
1
281
0
  0
ENDTAB
  0
ENDSEC
  0
SECTION
  2
BLOCKS
  0
BLOCK
  5
23
330
1A
100
AcDbEntity
  8
0
100
AcDbBlockBegin
  2
*Model_Space
 70
0
 10
0.0
 20
0.0
 30
0.0
  3
*Model_Space
  1

  0
ENDBLK
  5
22
330
1A
100
AcDbEntity
  8
0
100
AcDbBlockEnd
  0
BLOCK
  5
25
330
1B
100
AcDbEntity
 67
1
  8
0
100
AcDbBlockBegin
  2
*Paper_Space
 70
0
 10
0.0
 20
0.0
 30
0.0
  3
*Paper_Space
  1

  0
ENDBLK
  5
24
330
1B
100
AcDbEntity
 67
1
  8
0
100
AcDbBlockEnd
  0
BLOCK
  5
27
330
1C
100
AcDbEntity
 67
1
  8
0
100
AcDbBlockBegin
  2
*Paper_Space0
 70
0
 10
0.0
 20
0.0
 30
0.0
  3
*Paper_Space0
  1

  0
ENDBLK
  5
26
330
1C
100
AcDbEntity
 67
1
  8
0
100
AcDbBlockEnd
  0
ENDSEC
  0
SECTION
  2
ENTITIES
  0
LINE
  5
28
330
1A
100
AcDbEntity
  8
BLACK
  6
CONTINUOUS
100
AcDbLine
 10
0.4203117716535433
 20
0.5195465748031496
 30
0
 11
0.4335690157480315
 21
0.5165206692913386
 31
0
  0
LINE
  5
29
330
1A
100
AcDbEntity
  8
BLACK
  6
CONTINUOUS
100
AcDbLine
 10
0.4335690157480315
 20
0.5165206692913386
 30
0
 11
0.4464041338582677
 21
0.5120294881889763
 31
0
  0
LINE
  5
2A
330
1A
100
AcDbEntity
  8
BLACK
  6
CONTINUOUS
100
AcDbLine
 10
0.4464041338582677
 20
0.5120294881889763
 30
0
 11
0.4586556692913386
 21
0.5061294488188977
 31
0
  0
LINE
  5
2B
330
1A
100
AcDbEntity
  8
BLACK
  6
CONTINUOUS
100
AcDbLine
 10
0.4586556692913386
 20
0.5061294488188977
 30
0
 11
0.4701696062992126
 21
0.4988947637795276
 31
0
  0
LINE
  5
2C
330
1A
100
AcDbEntity
  8
BLACK
  6
CONTINUOUS
100
AcDbLine
 10
0.4701696062992126
 20
0.4988947637795276
 30
0
 11
0.480801062992126
 21
0.4904164566929134
 31
0
  0
LINE
  5
2D
330
1A
100
AcDbEntity
  8
BLACK
  6
CONTINUOUS
100
AcDbLine
 10
0.480801062992126
 20
0.4904164566929134
 30
0
 11
0.4904164566929134
 21
0.480801062992126
 31
0
  0
LINE
  5
2E
330
1A
100
AcDbEntity
  8
BLACK
  6
CONTINUOUS
100
AcDbLine
 10
0.4904164566929134
 20
0.480801062992126
 30
0
 11
0.4988947637795276
 21
0.4701696062992126
 31
0
  0
LINE
  5
2F
330
1A
100
AcDbEntity
  8
BLACK
  6
CONTINUOUS
100
AcDbLine
 10
0.4988947637795276
 20
0.4701696062992126
 30
0
 11
0.5061294488188977
 21
0.4586556692913386
 31
0
  0
LINE
  5
30
330
1A
100
AcDbEntity
  8
BLACK
  6
CONTINUOUS
100
AcDbLine
 10
0.5061294488188977
 20
0.4586556692913386
 30
0
 11
0.5120294881889763
 21
0.4464041338582677
 31
0
  0
LINE
  5
31
330
1A
100
AcDbEntity
  8
BLACK
  6
CONTINUOUS
100
AcDbLine
 10
0.5120294881889763
 20
0.4464041338582677
 30
0
 11
0.5165206692913386
 21
0.4335690157480315
 31
0
  0
LINE
  5
32
330
1A
100
AcDbEntity
  8
BLACK
  6
CONTINUOUS
100
AcDbLine
 10
0.5165206692913386
 20
0.4335690157480315
 30
0
 11
0.5195465748031496
 21
0.4203117716535433
 31
0
  0
LINE
  5
33
330
1A
100
AcDbEntity
  8
BLACK
  6
CONTINUOUS
100
AcDbLine
 10
0.5195465748031496
 20
0.4203117716535433
 30
0
 11
0.5210690944881889
 21
0.406799094488189
 31
0
  0
LINE
  5
34
330
1A
100
AcDbEntity
  8
BLACK
  6
CONTINUOUS
100
AcDbLine
 10
0.5210690944881889
 20
0.406799094488189
 30
0
 11
0.5210690944881889
 21
0.393200905511811
 31
0
  0
LINE
  5
35
330
1A
100
AcDbEntity
  8
BLACK
  6
CONTINUOUS
100
AcDbLine
 10
0.5210690944881889
 20
0.393200905511811
 30
0
 11
0.5195465748031496
 21
0.3796882283464567
 31
0
  0
LINE
  5
36
330
1A
100
AcDbEntity
  8
BLACK
  6
CONTINUOUS
100
AcDbLine
 10
0.5195465748031496
 20
0.3796882283464567
 30
0
 11
0.5165206692913386
 21
0.3664309842519685
 31
0
  0
LINE
  5
37
330
1A
100
AcDbEntity
  8
BLACK
  6
CONTINUOUS
100
AcDbLine
 10
0.5165206692913386
 20
0.3664309842519685
 30
0
 11
0.5120294881889763
 21
0.3535958661417323
 31
0
  0
LINE
  5
38
330
1A
100
AcDbEntity
  8
BLACK
  6
CONTINUOUS
100
AcDbLine
 10
0.5120294881889763
 20
0.3535958661417323
 30
0
 11
0.5061294488188977
 21
0.3413443307086614
 31
0
  0
LINE
  5
39
330
1A
100
AcDbEntity
  8
BLACK
  6
CONTINUOUS
100
AcDbLine
 10
0.5061294488188977
 20
0.3413443307086614
 30
0
 11
0.4988947637795276
 21
0.3298303937007874
 31
0
  0
LINE
  5
3A
330
1A
100
AcDbEntity
  8
BLACK
  6
CONTINUOUS
100
AcDbLine
 10
0.4988947637795276
 20
0.3298303937007874
 30
0
 11
0.4904164566929134
 21
0.319198937007874
 31
0
  0
LINE
  5
3B
330
1A
100
AcDbEntity
  8
BLACK
  6
CONTINUOUS
100
AcDbLine
 10
0.4904164566929134
 20
0.319198937007874
 30
0
 11
0.480801062992126
 21
0.3095835433070866
 31
0
  0
LINE
  5
3C
330
1A
100
AcDbEntity
  8
BLACK
  6
CONTINUOUS
100
AcDbLine
 10
0.480801062992126
 20
0.3095835433070866
 30
0
 11
0.4701696062992126
 21
0.3011052362204724
 31
0
  0
LINE
  5
3D
330
1A
100
AcDbEntity
  8
BLACK
  6
CONTINUOUS
100
AcDbLine
 10
0.4701696062992126
 20
0.3011052362204724
 30
0
 11
0.4586556692913386
 21
0.2938705511811023
 31
0
  0
LINE
  5
3E
330
1A
100
AcDbEntity
  8
BLACK
  6
CONTINUOUS
100
AcDbLine
 10
0.4586556692913386
 20
0.2938705511811023
 30
0
 11
0.4464041338582677
 21
0.2879705118110236
 31
0
  0
LINE
  5
3F
330
1A
100
AcDbEntity
  8
BLACK
  6
CONTINUOUS
100
AcDbLine
 10
0.4464041338582677
 20
0.2879705118110236
 30
0
 11
0.4335690157480315
 21
0.2834793307086614
 31
0
  0
LINE
  5
40
330
1A
100
AcDbEntity
  8
BLACK
  6
CONTINUOUS
100
AcDbLine
 10
0.4335690157480315
 20
0.2834793307086614
 30
0
 11
0.4203117716535433
 21
0.2804534251968504
 31
0
  0
LINE
  5
41
330
1A
100
AcDbEntity
  8
BLACK
  6
CONTINUOUS
100
AcDbLine
 10
0.4203117716535433
 20
0.2804534251968504
 30
0
 11
0.406799094488189
 21
0.278930905511811
 31
0
  0
LINE
  5
42
330
1A
100
AcDbEntity
  8
BLACK
  6
CONTINUOUS
100
AcDbLine
 10
0.406799094488189
 20
0.278930905511811
 30
0
 11
0.393200905511811
 21
0.278930905511811
 31
0
  0
LINE
  5
43
330
1A
100
AcDbEntity
  8
BLACK
  6
CONTINUOUS
100
AcDbLine
 10
0.393200905511811
 20
0.278930905511811
 30
0
 11
0.3796882283464567
 21
0.2804534251968504
 31
0
  0
LINE
  5
44
330
1A
100
AcDbEntity
  8
BLACK
  6
CONTINUOUS
100
AcDbLine
 10
0.3796882283464567
 20
0.2804534251968504
 30
0
 11
0.3664309842519685
 21
0.2834793307086614
 31
0
  0
LINE
  5
45
330
1A
100
AcDbEntity
  8
BLACK
  6
CONTINUOUS
100
AcDbLine
 10
0.3664309842519685
 20
0.2834793307086614
 30
0
 11
0.3535958661417323
 21
0.2879705118110236
 31
0
  0
LINE
  5
46
330
1A
100
AcDbEntity
  8
BLACK
  6
CONTINUOUS
100
AcDbLine
 10
0.3535958661417323
 20
0.2879705118110236
 30
0
 11
0.3413443307086614
 21
0.2938705511811023
 31
0
  0
LINE
  5
47
330
1A
100
AcDbEntity
  8
BLACK
  6
CONTINUOUS
100
AcDbLine
 10
0.3413443307086614
 20
0.2938705511811023
 30
0
 11
0.3298303937007874
 21
0.3011052362204724
 31
0
  0
LINE
  5
48
330
1A
100
AcDbEntity
  8
BLACK
  6
CONTINUOUS
100
AcDbLine
 10
0.3298303937007874
 20
0.3011052362204724
 30
0
 11
0.319198937007874
 21
0.3095835433070866
 31
0
  0
LINE
  5
49
330
1A
100
AcDbEntity
  8
BLACK
  6
CONTINUOUS
100
AcDbLine
 10
0.319198937007874
 20
0.3095835433070866
 30
0
 11
0.3095835433070866
 21
0.319198937007874
 31
0
  0
LINE
  5
4A
330
1A
100
AcDbEntity
  8
BLACK
  6
CONTINUOUS
100
AcDbLine
 10
0.3095835433070866
 20
0.319198937007874
 30
0
 11
0.3011052362204724
 21
0.3298303937007874
 31
0
  0
LINE
  5
4B
330
1A
100
AcDbEntity
  8
BLACK
  6
CONTINUOUS
100
AcDbLine
 10
0.3011052362204724
 20
0.3298303937007874
 30
0
 11
0.2938705511811023
 21
0.3413443307086614
 31
0
  0
LINE
  5
4C
330
1A
100
AcDbEntity
  8
BLACK
  6
CONTINUOUS
100
AcDbLine
 10
0.2938705511811023
 20
0.3413443307086614
 30
0
 11
0.2879705118110236
 21
0.3535958661417323
 31
0
  0
LINE
  5
4D
330
1A
100
AcDbEntity
  8
BLACK
  6
CONTINUOUS
100
AcDbLine
 10
0.2879705118110236
 20
0.3535958661417323
 30
0
 11
0.2834793307086614
 21
0.3664309842519685
 31
0
  0
LINE
  5
4E
330
1A
100
AcDbEntity
  8
BLACK
  6
CONTINUOUS
100
AcDbLine
 10
0.2834793307086614
 20
0.3664309842519685
 30
0
 11
0.2804534251968504
 21
0.3796882283464567
 31
0
  0
LINE
  5
4F
330
1A
100
AcDbEntity
  8
BLACK
  6
CONTINUOUS
100
AcDbLine
 10
0.2804534251968504
 20
0.3796882283464567
 30
0
 11
0.278930905511811
 21
0.393200905511811
 31
0
  0
LINE
  5
50
330
1A
100
AcDbEntity
  8
BLACK
  6
CONTINUOUS
100
AcDbLine
 10
0.278930905511811
 20
0.393200905511811
 30
0
 11
0.278930905511811
 21
0.406799094488189
 31
0
  0
LINE
  5
51
330
1A
100
AcDbEntity
  8
BLACK
  6
CONTINUOUS
100
AcDbLine
 10
0.278930905511811
 20
0.406799094488189
 30
0
 11
0.2804534251968504
 21
0.4203117716535433
 31
0
  0
LINE
  5
52
330
1A
100
AcDbEntity
  8
BLACK
  6
CONTINUOUS
100
AcDbLine
 10
0.2804534251968504
 20
0.4203117716535433
 30
0
 11
0.2834793307086614
 21
0.4335690157480315
 31
0
  0
LINE
  5
53
330
1A
100
AcDbEntity
  8
BLACK
  6
CONTINUOUS
100
AcDbLine
 10
0.2834793307086614
 20
0.4335690157480315
 30
0
 11
0.2879705118110236
 21
0.4464041338582677
 31
0
  0
LINE
  5
54
330
1A
100
AcDbEntity
  8
BLACK
  6
CONTINUOUS
100
AcDbLine
 10
0.2879705118110236
 20
0.4464041338582677
 30
0
 11
0.2938705511811023
 21
0.4586556692913386
 31
0
  0
LINE
  5
55
330
1A
100
AcDbEntity
  8
BLACK
  6
CONTINUOUS
100
AcDbLine
 10
0.2938705511811023
 20
0.4586556692913386
 30
0
 11
0.3011052362204724
 21
0.4701696062992126
 31
0
  0
LINE
  5
56
330
1A
100
AcDbEntity
  8
BLACK
  6
CONTINUOUS
100
AcDbLine
 10
0.3011052362204724
 20
0.4701696062992126
 30
0
 11
0.3095835433070866
 21
0.480801062992126
 31
0
  0
LINE
  5
57
330
1A
100
AcDbEntity
  8
BLACK
  6
CONTINUOUS
100
AcDbLine
 10
0.3095835433070866
 20
0.480801062992126
 30
0
 11
0.319198937007874
 21
0.4904164566929134
 31
0
  0
LINE
  5
58
330
1A
100
AcDbEntity
  8
BLACK
  6
CONTINUOUS
100
AcDbLine
 10
0.319198937007874
 20
0.4904164566929134
 30
0
 11
0.3298303937007874
 21
0.4988947637795276
 31
0
  0
LINE
  5
59
330
1A
100
AcDbEntity
  8
BLACK
  6
CONTINUOUS
100
AcDbLine
 10
0.3298303937007874
 20
0.4988947637795276
 30
0
 11
0.3413443307086614
 21
0.5061294488188977
 31
0
  0
LINE
  5
5A
330
1A
100
AcDbEntity
  8
BLACK
  6
CONTINUOUS
100
AcDbLine
 10
0.3413443307086614
 20
0.5061294488188977
 30
0
 11
0.3535958661417323
 21
0.5120294881889763
 31
0
  0
LINE
  5
5B
330
1A
100
AcDbEntity
  8
BLACK
  6
CONTINUOUS
100
AcDbLine
 10
0.3535958661417323
 20
0.5120294881889763
 30
0
 11
0.3664309842519685
 21
0.5165206692913386
 31
0
  0
LINE
  5
5C
330
1A
100
AcDbEntity
  8
BLACK
  6
CONTINUOUS
100
AcDbLine
 10
0.3664309842519685
 20
0.5165206692913386
 30
0
 11
0.3796882283464567
 21
0.5195465748031496
 31
0
  0
LINE
  5
5D
330
1A
100
AcDbEntity
  8
BLACK
  6
CONTINUOUS
100
AcDbLine
 10
0.3796882283464567
 20
0.5195465748031496
 30
0
 11
0.393200905511811
 21
0.5210690944881889
 31
0
  0
LINE
  5
5E
330
1A
100
AcDbEntity
  8
BLACK
  6
CONTINUOUS
100
AcDbLine
 10
0.393200905511811
 20
0.5210690944881889
 30
0
 11
0.406799094488189
 21
0.5210690944881889
 31
0
  0
LINE
  5
5F
330
1A
100
AcDbEntity
  8
BLACK
  6
CONTINUOUS
100
AcDbLine
 10
0.406799094488189
 20
0.5210690944881889
 30
0
 11
0.4203117716535433
 21
0.5195465748031496
 31
0
  0
LINE
  5
60
330
1A
100
AcDbEntity
  8
BLACK
  6
CONTINUOUS
100
AcDbLine
 10
2.75311937007874
 20
1.6128960236220473
 30
0
 11
2.7541837795275588
 21
1.6124551181102362
 31
0
  0
LINE
  5
61
330
1A
100
AcDbEntity
  8
BLACK
  6
CONTINUOUS
100
AcDbLine
 10
2.7541837795275588
 20
1.6124551181102362
 30
0
 11
2.7549984251968502
 21
1.6116404724409448
 31
0
  0
LINE
  5
62
330
1A
100
AcDbEntity
  8
BLACK
  6
CONTINUOUS
100
AcDbLine
 10
2.7549984251968502
 20
1.6116404724409448
 30
0
 11
2.7554393307086613
 21
1.610576062992126
 31
0
  0
LINE
  5
63
330
1A
100
AcDbEntity
  8
BLACK
  6
CONTINUOUS
100
AcDbLine
 10
2.7554393307086613
 20
1.610576062992126
 30
0
 11
2.7554960629921261
 21
1.6099999999999999
 31
0
  0
LINE
  5
64
330
1A
100
AcDbEntity
  8
BLACK
  6
CONTINUOUS
100
AcDbLine
 10
2.7554960629921261
 20
1.6099999999999999
 30
0
 11
2.7554960629921261
 21
1.403330433070866
 31
0
  0
LINE
  5
65
330
1A
100
AcDbEntity
  8
BLACK
  6
CONTINUOUS
100
AcDbLine
 10
2.7554960629921261
 20
1.403330433070866
 30
0
 11
2.75548031496063
 21
1.4031705511811023
 31
0
  0
LINE
  5
66
330
1A
100
AcDbEntity
  8
BLACK
  6
CONTINUOUS
100
AcDbLine
 10
2.75548031496063
 20
1.4031705511811023
 30
0
 11
2.75548031496063
 21
0.623018188976378
 31
0
  0
LINE
  5
67
330
1A
100
AcDbEntity
  8
BLACK
  6
CONTINUOUS
100
AcDbLine
 10
2.75548031496063
 20
0.623018188976378
 30
0
 11
2.7554960629921261
 21
0.6228582677165354
 31
0
  0
LINE
  5
68
330
1A
100
AcDbEntity
  8
BLACK
  6
CONTINUOUS
100
AcDbLine
 10
2.7554960629921261
 20
0.6228582677165354
 30
0
 11
2.7554960629921261
 21
0.5126944094488188
 31
0
  0
LINE
  5
69
330
1A
100
AcDbEntity
  8
BLACK
  6
CONTINUOUS
100
AcDbLine
 10
2.7554960629921261
 20
0.5126944094488188
 30
0
 11
2.7664309842519685
 21
0.5165206692913386
 31
0
  0
LINE
  5
6A
330
1A
100
AcDbEntity
  8
BLACK
  6
CONTINUOUS
100
AcDbLine
 10
2.7664309842519685
 20
0.5165206692913386
 30
0
 11
2.7796882283464566
 21
0.5195465748031496
 31
0
  0
LINE
  5
6B
330
1A
100
AcDbEntity
  8
BLACK
  6
CONTINUOUS
100
AcDbLine
 10
2.7796882283464566
 20
0.5195465748031496
 30
0
 11
2.793200905511811
 21
0.5210690944881889
 31
0
  0
LINE
  5
6C
330
1A
100
AcDbEntity
  8
BLACK
  6
CONTINUOUS
100
AcDbLine
 10
2.793200905511811
 20
0.5210690944881889
 30
0
 11
2.8067990944881891
 21
0.5210690944881889
 31
0
  0
LINE
  5
6D
330
1A
100
AcDbEntity
  8
BLACK
  6
CONTINUOUS
100
AcDbLine
 10
2.8067990944881891
 20
0.5210690944881889
 30
0
 11
2.8203117716535431
 21
0.5195465748031496
 31
0
  0
LINE
  5
6E
330
1A
100
AcDbEntity
  8
BLACK
  6
CONTINUOUS
100
AcDbLine
 10
2.8203117716535431
 20
0.5195465748031496
 30
0
 11
2.8335690157480315
 21
0.5165206692913386
 31
0
  0
LINE
  5
6F
330
1A
100
AcDbEntity
  8
BLACK
  6
CONTINUOUS
100
AcDbLine
 10
2.8335690157480315
 20
0.5165206692913386
 30
0
 11
2.8464041338582677
 21
0.5120294881889763
 31
0
  0
LINE
  5
70
330
1A
100
AcDbEntity
  8
BLACK
  6
CONTINUOUS
100
AcDbLine
 10
2.8464041338582677
 20
0.5120294881889763
 30
0
 11
2.8586556692913385
 21
0.5061294488188977
 31
0
  0
LINE
  5
71
330
1A
100
AcDbEntity
  8
BLACK
  6
CONTINUOUS
100
AcDbLine
 10
2.8586556692913385
 20
0.5061294488188977
 30
0
 11
2.8701696062992124
 21
0.4988947637795276
 31
0
  0
LINE
  5
72
330
1A
100
AcDbEntity
  8
BLACK
  6
CONTINUOUS
100
AcDbLine
 10
2.8701696062992124
 20
0.4988947637795276
 30
0
 11
2.8808010629921261
 21
0.4904164566929134
 31
0
  0
LINE
  5
73
330
1A
100
AcDbEntity
  8
BLACK
  6
CONTINUOUS
100
AcDbLine
 10
2.8808010629921261
 20
0.4904164566929134
 30
0
 11
2.8904164566929134
 21
0.480801062992126
 31
0
  0
LINE
  5
74
330
1A
100
AcDbEntity
  8
BLACK
  6
CONTINUOUS
100
AcDbLine
 10
2.8904164566929134
 20
0.480801062992126
 30
0
 11
2.8988947637795275
 21
0.4701696062992126
 31
0
  0
LINE
  5
75
330
1A
100
AcDbEntity
  8
BLACK
  6
CONTINUOUS
100
AcDbLine
 10
2.8988947637795275
 20
0.4701696062992126
 30
0
 11
2.9061294488188976
 21
0.4586556692913386
 31
0
  0
LINE
  5
76
330
1A
100
AcDbEntity
  8
BLACK
  6
CONTINUOUS
100
AcDbLine
 10
2.9061294488188976
 20
0.4586556692913386
 30
0
 11
2.9120294881889763
 21
0.4464041338582677
 31
0
  0
LINE
  5
77
330
1A
100
AcDbEntity
  8
BLACK
  6
CONTINUOUS
100
AcDbLine
 10
2.9120294881889763
 20
0.4464041338582677
 30
0
 11
2.9165206692913386
 21
0.4335690157480315
 31
0
  0
LINE
  5
78
330
1A
100
AcDbEntity
  8
BLACK
  6
CONTINUOUS
100
AcDbLine
 10
2.9165206692913386
 20
0.4335690157480315
 30
0
 11
2.9195465748031495
 21
0.4203117716535433
 31
0
  0
LINE
  5
79
330
1A
100
AcDbEntity
  8
BLACK
  6
CONTINUOUS
100
AcDbLine
 10
2.9195465748031495
 20
0.4203117716535433
 30
0
 11
2.921069094488189
 21
0.406799094488189
 31
0
  0
LINE
  5
7A
330
1A
100
AcDbEntity
  8
BLACK
  6
CONTINUOUS
100
AcDbLine
 10
2.921069094488189
 20
0.406799094488189
 30
0
 11
2.921069094488189
 21
0.393200905511811
 31
0
  0
LINE
  5
7B
330
1A
100
AcDbEntity
  8
BLACK
  6
CONTINUOUS
100
AcDbLine
 10
2.921069094488189
 20
0.393200905511811
 30
0
 11
2.9195465748031495
 21
0.3796882283464567
 31
0
  0
LINE
  5
7C
330
1A
100
AcDbEntity
  8
BLACK
  6
CONTINUOUS
100
AcDbLine
 10
2.9195465748031495
 20
0.3796882283464567
 30
0
 11
2.9165206692913386
 21
0.3664309842519685
 31
0
  0
LINE
  5
7D
330
1A
100
AcDbEntity
  8
BLACK
  6
CONTINUOUS
100
AcDbLine
 10
2.9165206692913386
 20
0.3664309842519685
 30
0
 11
2.9120294881889763
 21
0.3535958661417323
 31
0
  0
LINE
  5
7E
330
1A
100
AcDbEntity
  8
BLACK
  6
CONTINUOUS
100
AcDbLine
 10
2.9120294881889763
 20
0.3535958661417323
 30
0
 11
2.9061294488188976
 21
0.3413443307086614
 31
0
  0
LINE
  5
7F
330
1A
100
AcDbEntity
  8
BLACK
  6
CONTINUOUS
100
AcDbLine
 10
2.9061294488188976
 20
0.3413443307086614
 30
0
 11
2.8988947637795275
 21
0.3298303937007874
 31
0
  0
LINE
  5
80
330
1A
100
AcDbEntity
  8
BLACK
  6
CONTINUOUS
100
AcDbLine
 10
2.8988947637795275
 20
0.3298303937007874
 30
0
 11
2.8904164566929134
 21
0.319198937007874
 31
0
  0
LINE
  5
81
330
1A
100
AcDbEntity
  8
BLACK
  6
CONTINUOUS
100
AcDbLine
 10
2.8904164566929134
 20
0.319198937007874
 30
0
 11
2.8808010629921261
 21
0.3095835433070866
 31
0
  0
LINE
  5
82
330
1A
100
AcDbEntity
  8
BLACK
  6
CONTINUOUS
100
AcDbLine
 10
2.8808010629921261
 20
0.3095835433070866
 30
0
 11
2.8701696062992124
 21
0.3011052362204724
 31
0
  0
LINE
  5
83
330
1A
100
AcDbEntity
  8
BLACK
  6
CONTINUOUS
100
AcDbLine
 10
2.8701696062992124
 20
0.3011052362204724
 30
0
 11
2.8586556692913385
 21
0.2938705511811023
 31
0
  0
LINE
  5
84
330
1A
100
AcDbEntity
  8
BLACK
  6
CONTINUOUS
100
AcDbLine
 10
2.8586556692913385
 20
0.2938705511811023
 30
0
 11
2.8464041338582677
 21
0.2879705118110236
 31
0
  0
LINE
  5
85
330
1A
100
AcDbEntity
  8
BLACK
  6
CONTINUOUS
100
AcDbLine
 10
2.8464041338582677
 20
0.2879705118110236
 30
0
 11
2.8335690157480315
 21
0.2834793307086614
 31
0
  0
LINE
  5
86
330
1A
100
AcDbEntity
  8
BLACK
  6
CONTINUOUS
100
AcDbLine
 10
2.8335690157480315
 20
0.2834793307086614
 30
0
 11
2.8203117716535431
 21
0.2804534251968504
 31
0
  0
LINE
  5
87
330
1A
100
AcDbEntity
  8
BLACK
  6
CONTINUOUS
100
AcDbLine
 10
2.8203117716535431
 20
0.2804534251968504
 30
0
 11
2.8067990944881891
 21
0.278930905511811
 31
0
  0
LINE
  5
88
330
1A
100
AcDbEntity
  8
BLACK
  6
CONTINUOUS
100
AcDbLine
 10
2.8067990944881891
 20
0.278930905511811
 30
0
 11
2.793200905511811
 21
0.278930905511811
 31
0
  0
LINE
  5
89
330
1A
100
AcDbEntity
  8
BLACK
  6
CONTINUOUS
100
AcDbLine
 10
2.793200905511811
 20
0.278930905511811
 30
0
 11
2.7796882283464566
 21
0.2804534251968504
 31
0
  0
LINE
  5
8A
330
1A
100
AcDbEntity
  8
BLACK
  6
CONTINUOUS
100
AcDbLine
 10
2.7796882283464566
 20
0.2804534251968504
 30
0
 11
2.7664309842519685
 21
0.2834793307086614
 31
0
  0
LINE
  5
8B
330
1A
100
AcDbEntity
  8
BLACK
  6
CONTINUOUS
100
AcDbLine
 10
2.7664309842519685
 20
0.2834793307086614
 30
0
 11
2.7535958661417324
 21
0.2879705118110236
 31
0
  0
LINE
  5
8C
330
1A
100
AcDbEntity
  8
BLACK
  6
CONTINUOUS
100
AcDbLine
 10
2.7535958661417324
 20
0.2879705118110236
 30
0
 11
2.7413443307086616
 21
0.2938705511811023
 31
0
  0
LINE
  5
8D
330
1A
100
AcDbEntity
  8
BLACK
  6
CONTINUOUS
100
AcDbLine
 10
2.7413443307086616
 20
0.2938705511811023
 30
0
 11
2.7298303937007873
 21
0.3011052362204724
 31
0
  0
LINE
  5
8E
330
1A
100
AcDbEntity
  8
BLACK
  6
CONTINUOUS
100
AcDbLine
 10
2.7298303937007873
 20
0.3011052362204724
 30
0
 11
2.719198937007874
 21
0.3095835433070866
 31
0
  0
LINE
  5
8F
330
1A
100
AcDbEntity
  8
BLACK
  6
CONTINUOUS
100
AcDbLine
 10
2.719198937007874
 20
0.3095835433070866
 30
0
 11
2.7095835433070867
 21
0.319198937007874
 31
0
  0
LINE
  5
90
330
1A
100
AcDbEntity
  8
BLACK
  6
CONTINUOUS
100
AcDbLine
 10
2.7095835433070867
 20
0.319198937007874
 30
0
 11
2.7011052362204722
 21
0.3298303937007874
 31
0
  0
LINE
  5
91
330
1A
100
AcDbEntity
  8
BLACK
  6
CONTINUOUS
100
AcDbLine
 10
2.7011052362204722
 20
0.3298303937007874
 30
0
 11
2.6938705511811021
 21
0.3413443307086614
 31
0
  0
LINE
  5
92
330
1A
100
AcDbEntity
  8
BLACK
  6
CONTINUOUS
100
AcDbLine
 10
2.6938705511811021
 20
0.3413443307086614
 30
0
 11
2.6879705118110238
 21
0.3535958661417323
 31
0
  0
LINE
  5
93
330
1A
100
AcDbEntity
  8
BLACK
  6
CONTINUOUS
100
AcDbLine
 10
2.6879705118110238
 20
0.3535958661417323
 30
0
 11
2.6834793307086615
 21
0.3664309842519685
 31
0
  0
LINE
  5
94
330
1A
100
AcDbEntity
  8
BLACK
  6
CONTINUOUS
100
AcDbLine
 10
2.6834793307086615
 20
0.3664309842519685
 30
0
 11
2.6804534251968501
 21
0.3796882283464567
 31
0
  0
LINE
  5
95
330
1A
100
AcDbEntity
  8
BLACK
  6
CONTINUOUS
100
AcDbLine
 10
2.6804534251968501
 20
0.3796882283464567
 30
0
 11
2.6789309055118111
 21
0.393200905511811
 31
0
  0
LINE
  5
96
330
1A
100
AcDbEntity
  8
BLACK
  6
CONTINUOUS
100
AcDbLine
 10
2.6789309055118111
 20
0.393200905511811
 30
0
 11
2.6789309055118111
 21
0.406799094488189
 31
0
  0
LINE
  5
97
330
1A
100
AcDbEntity
  8
BLACK
  6
CONTINUOUS
100
AcDbLine
 10
2.6789309055118111
 20
0.406799094488189
 30
0
 11
2.6804094094488189
 21
0.4199212598425197
 31
0
  0
LINE
  5
98
330
1A
100
AcDbEntity
  8
BLACK
  6
CONTINUOUS
100
AcDbLine
 10
2.6804094094488189
 20
0.4199212598425197
 30
0
 11
2.551543307086614
 21
0.4199212598425197
 31
0
  0
LINE
  5
99
330
1A
100
AcDbEntity
  8
BLACK
  6
CONTINUOUS
100
AcDbLine
 10
2.551543307086614
 20
0.4199212598425197
 30
0
 11
2.5507752362204723
 21
0.4199968897637795
 31
0
  0
LINE
  5
9A
330
1A
100
AcDbEntity
  8
BLACK
  6
CONTINUOUS
100
AcDbLine
 10
2.5507752362204723
 20
0.4199968897637795
 30
0
 11
2.5501981102362206
 21
0.4202359448818898
 31
0
  0
LINE
  5
9B
330
1A
100
AcDbEntity
  8
BLACK
  6
CONTINUOUS
100
AcDbLine
 10
2.5501981102362206
 20
0.4202359448818898
 30
0
 11
1.0625433070866142
 21
0.4202359448818898
 31
0
  0
LINE
  5
9C
330
1A
100
AcDbEntity
  8
BLACK
  6
CONTINUOUS
100
AcDbLine
 10
1.0625433070866142
 20
0.4202359448818898
 30
0
 11
1.0619672440944881
 21
0.4202926771653543
 31
0
  0
LINE
  5
9D
330
1A
100
AcDbEntity
  8
BLACK
  6
CONTINUOUS
100
AcDbLine
 10
1.0619672440944881
 20
0.4202926771653543
 30
0
 11
1.0609028346456693
 21
0.4207335826771653
 31
0
  0
LINE
  5
9E
330
1A
100
AcDbEntity
  8
BLACK
  6
CONTINUOUS
100
AcDbLine
 10
1.0609028346456693
 20
0.4207335826771653
 30
0
 11
1.060088188976378
 21
0.4215482283464567
 31
0
  0
LINE
  5
9F
330
1A
100
AcDbEntity
  8
BLACK
  6
CONTINUOUS
100
AcDbLine
 10
1.060088188976378
 20
0.4215482283464567
 30
0
 11
1.0596472834645669
 21
0.4226126377952756
 31
0
  0
LINE
  5
A0
330
1A
100
AcDbEntity
  8
BLACK
  6
CONTINUOUS
100
AcDbLine
 10
1.0596472834645669
 20
0.4226126377952756
 30
0
 11
1.0595905511811023
 21
0.4231887007874016
 31
0
  0
LINE
  5
A1
330
1A
100
AcDbEntity
  8
BLACK
  6
CONTINUOUS
100
AcDbLine
 10
1.0595905511811023
 20
0.4231887007874016
 30
0
 11
1.0595905511811023
 21
0.6228582677165354
 31
0
  0
LINE
  5
A2
330
1A
100
AcDbEntity
  8
BLACK
  6
CONTINUOUS
100
AcDbLine
 10
1.0595905511811023
 20
0.6228582677165354
 30
0
 11
1.0596472834645669
 21
0.6234343307086614
 31
0
  0
LINE
  5
A3
330
1A
100
AcDbEntity
  8
BLACK
  6
CONTINUOUS
100
AcDbLine
 10
1.0596472834645669
 20
0.6234343307086614
 30
0
 11
1.060088188976378
 21
0.6244987401574803
 31
0
  0
LINE
  5
A4
330
1A
100
AcDbEntity
  8
BLACK
  6
CONTINUOUS
100
AcDbLine
 10
1.060088188976378
 20
0.6244987401574803
 30
0
 11
1.0606062992125984
 21
0.6250168503937008
 31
0
  0
LINE
  5
A5
330
1A
100
AcDbEntity
  8
BLACK
  6
CONTINUOUS
100
AcDbLine
 10
1.0606062992125984
 20
0.6250168503937008
 30
0
 11
1.0606062992125984
 21
1.4011718503937007
 31
0
  0
LINE
  5
A6
330
1A
100
AcDbEntity
  8
BLACK
  6
CONTINUOUS
100
AcDbLine
 10
1.0606062992125984
 20
1.4011718503937007
 30
0
 11
1.060088188976378
 21
1.4016899606299211
 31
0
  0
LINE
  5
A7
330
1A
100
AcDbEntity
  8
BLACK
  6
CONTINUOUS
100
AcDbLine
 10
1.060088188976378
 20
1.4016899606299211
 30
0
 11
1.0596472834645669
 21
1.4027543700787402
 31
0
  0
LINE
  5
A8
330
1A
100
AcDbEntity
  8
BLACK
  6
CONTINUOUS
100
AcDbLine
 10
1.0596472834645669
 20
1.4027543700787402
 30
0
 11
1.0595905511811023
 21
1.403330433070866
 31
0
  0
LINE
  5
A9
330
1A
100
AcDbEntity
  8
BLACK
  6
CONTINUOUS
100
AcDbLine
 10
1.0595905511811023
 20
1.403330433070866
 30
0
 11
1.0595905511811023
 21
1.6099999999999999
 31
0
  0
LINE
  5
AA
330
1A
100
AcDbEntity
  8
BLACK
  6
CONTINUOUS
100
AcDbLine
 10
1.0595905511811023
 20
1.6099999999999999
 30
0
 11
1.0596472834645669
 21
1.610576062992126
 31
0
  0
LINE
  5
AB
330
1A
100
AcDbEntity
  8
BLACK
  6
CONTINUOUS
100
AcDbLine
 10
1.0596472834645669
 20
1.610576062992126
 30
0
 11
1.060088188976378
 21
1.6116404724409448
 31
0
  0
LINE
  5
AC
330
1A
100
AcDbEntity
  8
BLACK
  6
CONTINUOUS
100
AcDbLine
 10
1.060088188976378
 20
1.6116404724409448
 30
0
 11
1.0609028346456693
 21
1.6124551181102362
 31
0
  0
LINE
  5
AD
330
1A
100
AcDbEntity
  8
BLACK
  6
CONTINUOUS
100
AcDbLine
 10
1.0609028346456693
 20
1.6124551181102362
 30
0
 11
1.0619672440944881
 21
1.6128960236220473
 31
0
  0
LINE
  5
AE
330
1A
100
AcDbEntity
  8
BLACK
  6
CONTINUOUS
100
AcDbLine
 10
1.0619672440944881
 20
1.6128960236220473
 30
0
 11
1.0625433070866142
 21
1.6129527559055117
 31
0
  0
LINE
  5
AF
330
1A
100
AcDbEntity
  8
BLACK
  6
CONTINUOUS
100
AcDbLine
 10
1.0625433070866142
 20
1.6129527559055117
 30
0
 11
2.7525433070866141
 21
1.6129527559055117
 31
0
  0
LINE
  5
B0
330
1A
100
AcDbEntity
  8
BLACK
  6
CONTINUOUS
100
AcDbLine
 10
2.7525433070866141
 20
1.6129527559055117
 30
0
 11
2.75311937007874
 21
1.6128960236220473
 31
0
  0
LINE
  5
B1
330
1A
100
AcDbEntity
  8
BLACK
  6
CONTINUOUS
100
AcDbLine
 10
1.26948031496063
 20
1.4003776771653542
 30
0
 11
1.26948031496063
 21
0.6258110236220472
 31
0
  0
LINE
  5
B2
330
1A
100
AcDbEntity
  8
BLACK
  6
CONTINUOUS
100
AcDbLine
 10
1.26948031496063
 20
0.6258110236220472
 30
0
 11
2.5476062992125983
 21
0.6258110236220472
 31
0
  0
LINE
  5
B3
330
1A
100
AcDbEntity
  8
BLACK
  6
CONTINUOUS
100
AcDbLine
 10
2.5476062992125983
 20
0.6258110236220472
 30
0
 11
2.5476062992125983
 21
1.4003776771653542
 31
0
  0
LINE
  5
B4
330
1A
100
AcDbEntity
  8
BLACK
  6
CONTINUOUS
100
AcDbLine
 10
2.5476062992125983
 20
1.4003776771653542
 30
0
 11
1.26948031496063
 21
1.4003776771653542
 31
0
  0
LINE
  5
B5
330
1A
100
AcDbEntity
  8
BLACK
  6
CONTINUOUS
100
AcDbLine
 10
1.0202817322834645
 20
0.6709547244094488
 30
0
 11
1.0254441732283464
 21
0.6679742125984252
 31
0
  0
LINE
  5
B6
330
1A
100
AcDbEntity
  8
BLACK
  6
CONTINUOUS
100
AcDbLine
 10
1.0254441732283464
 20
0.6679742125984252
 30
0
 11
1.0296592519685039
 21
0.6637591338582677
 31
0
  0
LINE
  5
B7
330
1A
100
AcDbEntity
  8
BLACK
  6
CONTINUOUS
100
AcDbLine
 10
1.0296592519685039
 20
0.6637591338582677
 30
0
 11
1.0326397637795275
 21
0.6585966929133859
 31
0
  0
LINE
  5
B8
330
1A
100
AcDbEntity
  8
BLACK
  6
CONTINUOUS
100
AcDbLine
 10
1.0326397637795275
 20
0.6585966929133859
 30
0
 11
1.0341825984251969
 21
0.6528387795275591
 31
0
  0
LINE
  5
B9
330
1A
100
AcDbEntity
  8
BLACK
  6
CONTINUOUS
100
AcDbLine
 10
1.0341825984251969
 20
0.6528387795275591
 30
0
 11
1.0341825984251969
 21
0.6468777559055118
 31
0
  0
LINE
  5
BA
330
1A
100
AcDbEntity
  8
BLACK
  6
CONTINUOUS
100
AcDbLine
 10
1.0341825984251969
 20
0.6468777559055118
 30
0
 11
1.0326397637795275
 21
0.641119842519685
 31
0
  0
LINE
  5
BB
330
1A
100
AcDbEntity
  8
BLACK
  6
CONTINUOUS
100
AcDbLine
 10
1.0326397637795275
 20
0.641119842519685
 30
0
 11
1.0296592519685039
 21
0.6359574015748032
 31
0
  0
LINE
  5
BC
330
1A
100
AcDbEntity
  8
BLACK
  6
CONTINUOUS
100
AcDbLine
 10
1.0296592519685039
 20
0.6359574015748032
 30
0
 11
1.0254441732283464
 21
0.6317423228346457
 31
0
  0
LINE
  5
BD
330
1A
100
AcDbEntity
  8
BLACK
  6
CONTINUOUS
100
AcDbLine
 10
1.0254441732283464
 20
0.6317423228346457
 30
0
 11
1.0202817322834645
 21
0.6287618110236221
 31
0
  0
LINE
  5
BE
330
1A
100
AcDbEntity
  8
BLACK
  6
CONTINUOUS
100
AcDbLine
 10
1.0202817322834645
 20
0.6287618110236221
 30
0
 11
1.0145238188976378
 21
0.6272189763779528
 31
0
  0
LINE
  5
BF
330
1A
100
AcDbEntity
  8
BLACK
  6
CONTINUOUS
100
AcDbLine
 10
1.0145238188976378
 20
0.6272189763779528
 30
0
 11
1.0085627952755905
 21
0.6272189763779528
 31
0
  0
LINE
  5
C0
330
1A
100
AcDbEntity
  8
BLACK
  6
CONTINUOUS
100
AcDbLine
 10
1.0085627952755905
 20
0.6272189763779528
 30
0
 11
1.0028048818897637
 21
0.6287618110236221
 31
0
  0
LINE
  5
C1
330
1A
100
AcDbEntity
  8
BLACK
  6
CONTINUOUS
100
AcDbLine
 10
1.0028048818897637
 20
0.6287618110236221
 30
0
 11
0.9976424409448819
 21
0.6317423228346457
 31
0
  0
LINE
  5
C2
330
1A
100
AcDbEntity
  8
BLACK
  6
CONTINUOUS
100
AcDbLine
 10
0.9976424409448819
 20
0.6317423228346457
 30
0
 11
0.9934273622047244
 21
0.6359574015748032
 31
0
  0
LINE
  5
C3
330
1A
100
AcDbEntity
  8
BLACK
  6
CONTINUOUS
100
AcDbLine
 10
0.9934273622047244
 20
0.6359574015748032
 30
0
 11
0.9904468503937007
 21
0.641119842519685
 31
0
  0
LINE
  5
C4
330
1A
100
AcDbEntity
  8
BLACK
  6
CONTINUOUS
100
AcDbLine
 10
0.9904468503937007
 20
0.641119842519685
 30
0
 11
0.9889040157480314
 21
0.6468777559055118
 31
0
  0
LINE
  5
C5
330
1A
100
AcDbEntity
  8
BLACK
  6
CONTINUOUS
100
AcDbLine
 10
0.9889040157480314
 20
0.6468777559055118
 30
0
 11
0.9889040157480314
 21
0.6528387795275591
 31
0
  0
LINE
  5
C6
330
1A
100
AcDbEntity
  8
BLACK
  6
CONTINUOUS
100
AcDbLine
 10
0.9889040157480314
 20
0.6528387795275591
 30
0
 11
0.9904468503937007
 21
0.6585966929133859
 31
0
  0
LINE
  5
C7
330
1A
100
AcDbEntity
  8
BLACK
  6
CONTINUOUS
100
AcDbLine
 10
0.9904468503937007
 20
0.6585966929133859
 30
0
 11
0.9934273622047244
 21
0.6637591338582677
 31
0
  0
LINE
  5
C8
330
1A
100
AcDbEntity
  8
BLACK
  6
CONTINUOUS
100
AcDbLine
 10
0.9934273622047244
 20
0.6637591338582677
 30
0
 11
0.9976424409448819
 21
0.6679742125984252
 31
0
  0
LINE
  5
C9
330
1A
100
AcDbEntity
  8
BLACK
  6
CONTINUOUS
100
AcDbLine
 10
0.9976424409448819
 20
0.6679742125984252
 30
0
 11
1.0028048818897637
 21
0.6709547244094488
 31
0
  0
LINE
  5
CA
330
1A
100
AcDbEntity
  8
BLACK
  6
CONTINUOUS
100
AcDbLine
 10
1.0028048818897637
 20
0.6709547244094488
 30
0
 11
1.0085627952755905
 21
0.6724975590551181
 31
0
  0
LINE
  5
CB
330
1A
100
AcDbEntity
  8
BLACK
  6
CONTINUOUS
100
AcDbLine
 10
1.0085627952755905
 20
0.6724975590551181
 30
0
 11
1.0145238188976378
 21
0.6724975590551181
 31
0
  0
LINE
  5
CC
330
1A
100
AcDbEntity
  8
BLACK
  6
CONTINUOUS
100
AcDbLine
 10
1.0145238188976378
 20
0.6724975590551181
 30
0
 11
1.0202817322834645
 21
0.6709547244094488
 31
0
  0
LINE
  5
CD
330
1A
100
AcDbEntity
  8
BLACK
  6
CONTINUOUS
100
AcDbLine
 10
1.0102817322834645
 20
0.8189547244094488
 30
0
 11
1.0154441732283463
 21
0.8159742125984252
 31
0
  0
LINE
  5
CE
330
1A
100
AcDbEntity
  8
BLACK
  6
CONTINUOUS
100
AcDbLine
 10
1.0154441732283463
 20
0.8159742125984252
 30
0
 11
1.0196592519685039
 21
0.8117591338582677
 31
0
  0
LINE
  5
CF
330
1A
100
AcDbEntity
  8
BLACK
  6
CONTINUOUS
100
AcDbLine
 10
1.0196592519685039
 20
0.8117591338582677
 30
0
 11
1.0226397637795275
 21
0.8065966929133858
 31
0
  0
LINE
  5
D0
330
1A
100
AcDbEntity
  8
BLACK
  6
CONTINUOUS
100
AcDbLine
 10
1.0226397637795275
 20
0.8065966929133858
 30
0
 11
1.0241825984251969
 21
0.800838779527559
 31
0
  0
LINE
  5
D1
330
1A
100
AcDbEntity
  8
BLACK
  6
CONTINUOUS
100
AcDbLine
 10
1.0241825984251969
 20
0.800838779527559
 30
0
 11
1.0241825984251969
 21
0.7948777559055118
 31
0
  0
LINE
  5
D2
330
1A
100
AcDbEntity
  8
BLACK
  6
CONTINUOUS
100
AcDbLine
 10
1.0241825984251969
 20
0.7948777559055118
 30
0
 11
1.0226397637795275
 21
0.789119842519685
 31
0
  0
LINE
  5
D3
330
1A
100
AcDbEntity
  8
BLACK
  6
CONTINUOUS
100
AcDbLine
 10
1.0226397637795275
 20
0.789119842519685
 30
0
 11
1.0196592519685039
 21
0.7839574015748031
 31
0
  0
LINE
  5
D4
330
1A
100
AcDbEntity
  8
BLACK
  6
CONTINUOUS
100
AcDbLine
 10
1.0196592519685039
 20
0.7839574015748031
 30
0
 11
1.0154441732283463
 21
0.7797423228346456
 31
0
  0
LINE
  5
D5
330
1A
100
AcDbEntity
  8
BLACK
  6
CONTINUOUS
100
AcDbLine
 10
1.0154441732283463
 20
0.7797423228346456
 30
0
 11
1.0102817322834645
 21
0.7767618110236221
 31
0
  0
LINE
  5
D6
330
1A
100
AcDbEntity
  8
BLACK
  6
CONTINUOUS
100
AcDbLine
 10
1.0102817322834645
 20
0.7767618110236221
 30
0
 11
1.0045238188976378
 21
0.7752189763779528
 31
0
  0
LINE
  5
D7
330
1A
100
AcDbEntity
  8
BLACK
  6
CONTINUOUS
100
AcDbLine
 10
1.0045238188976378
 20
0.7752189763779528
 30
0
 11
0.9985627952755906
 21
0.7752189763779528
 31
0
  0
LINE
  5
D8
330
1A
100
AcDbEntity
  8
BLACK
  6
CONTINUOUS
100
AcDbLine
 10
0.9985627952755906
 20
0.7752189763779528
 30
0
 11
0.9928048818897638
 21
0.7767618110236221
 31
0
  0
LINE
  5
D9
330
1A
100
AcDbEntity
  8
BLACK
  6
CONTINUOUS
100
AcDbLine
 10
0.9928048818897638
 20
0.7767618110236221
 30
0
 11
0.9876424409448818
 21
0.7797423228346456
 31
0
  0
LINE
  5
DA
330
1A
100
AcDbEntity
  8
BLACK
  6
CONTINUOUS
100
AcDbLine
 10
0.9876424409448818
 20
0.7797423228346456
 30
0
 11
0.9834273622047244
 21
0.7839574015748031
 31
0
  0
LINE
  5
DB
330
1A
100
AcDbEntity
  8
BLACK
  6
CONTINUOUS
100
AcDbLine
 10
0.9834273622047244
 20
0.7839574015748031
 30
0
 11
0.9804468503937007
 21
0.789119842519685
 31
0
  0
LINE
  5
DC
330
1A
100
AcDbEntity
  8
BLACK
  6
CONTINUOUS
100
AcDbLine
 10
0.9804468503937007
 20
0.789119842519685
 30
0
 11
0.9789040157480314
 21
0.7948777559055118
 31
0
  0
LINE
  5
DD
330
1A
100
AcDbEntity
  8
BLACK
  6
CONTINUOUS
100
AcDbLine
 10
0.9789040157480314
 20
0.7948777559055118
 30
0
 11
0.9789040157480314
 21
0.800838779527559
 31
0
  0
LINE
  5
DE
330
1A
100
AcDbEntity
  8
BLACK
  6
CONTINUOUS
100
AcDbLine
 10
0.9789040157480314
 20
0.800838779527559
 30
0
 11
0.9804468503937007
 21
0.8065966929133858
 31
0
  0
LINE
  5
DF
330
1A
100
AcDbEntity
  8
BLACK
  6
CONTINUOUS
100
AcDbLine
 10
0.9804468503937007
 20
0.8065966929133858
 30
0
 11
0.9834273622047244
 21
0.8117591338582677
 31
0
  0
LINE
  5
E0
330
1A
100
AcDbEntity
  8
BLACK
  6
CONTINUOUS
100
AcDbLine
 10
0.9834273622047244
 20
0.8117591338582677
 30
0
 11
0.9876424409448818
 21
0.8159742125984252
 31
0
  0
LINE
  5
E1
330
1A
100
AcDbEntity
  8
BLACK
  6
CONTINUOUS
100
AcDbLine
 10
0.9876424409448818
 20
0.8159742125984252
 30
0
 11
0.9928048818897638
 21
0.8189547244094488
 31
0
  0
LINE
  5
E2
330
1A
100
AcDbEntity
  8
BLACK
  6
CONTINUOUS
100
AcDbLine
 10
0.9928048818897638
 20
0.8189547244094488
 30
0
 11
0.9985627952755906
 21
0.8204975590551181
 31
0
  0
LINE
  5
E3
330
1A
100
AcDbEntity
  8
BLACK
  6
CONTINUOUS
100
AcDbLine
 10
0.9985627952755906
 20
0.8204975590551181
 30
0
 11
1.0045238188976378
 21
0.8204975590551181
 31
0
  0
LINE
  5
E4
330
1A
100
AcDbEntity
  8
BLACK
  6
CONTINUOUS
100
AcDbLine
 10
1.0045238188976378
 20
0.8204975590551181
 30
0
 11
1.0102817322834645
 21
0.8189547244094488
 31
0
  0
LINE
  5
E5
330
1A
100
AcDbEntity
  8
BLACK
  6
CONTINUOUS
100
AcDbLine
 10
1.0102817322834645
 20
0.9109547244094488
 30
0
 11
1.0154441732283463
 21
0.9079742125984251
 31
0
  0
LINE
  5
E6
330
1A
100
AcDbEntity
  8
BLACK
  6
CONTINUOUS
100
AcDbLine
 10
1.0154441732283463
 20
0.9079742125984251
 30
0
 11
1.0196592519685039
 21
0.9037591338582677
 31
0
  0
LINE
  5
E7
330
1A
100
AcDbEntity
  8
BLACK
  6
CONTINUOUS
100
AcDbLine
 10
1.0196592519685039
 20
0.9037591338582677
 30
0
 11
1.0226397637795275
 21
0.8985966929133858
 31
0
  0
LINE
  5
E8
330
1A
100
AcDbEntity
  8
BLACK
  6
CONTINUOUS
100
AcDbLine
 10
1.0226397637795275
 20
0.8985966929133858
 30
0
 11
1.0241825984251969
 21
0.8928387795275591
 31
0
  0
LINE
  5
E9
330
1A
100
AcDbEntity
  8
BLACK
  6
CONTINUOUS
100
AcDbLine
 10
1.0241825984251969
 20
0.8928387795275591
 30
0
 11
1.0241825984251969
 21
0.8868777559055118
 31
0
  0
LINE
  5
EA
330
1A
100
AcDbEntity
  8
BLACK
  6
CONTINUOUS
100
AcDbLine
 10
1.0241825984251969
 20
0.8868777559055118
 30
0
 11
1.0226397637795275
 21
0.881119842519685
 31
0
  0
LINE
  5
EB
330
1A
100
AcDbEntity
  8
BLACK
  6
CONTINUOUS
100
AcDbLine
 10
1.0226397637795275
 20
0.881119842519685
 30
0
 11
1.0196592519685039
 21
0.8759574015748032
 31
0
  0
LINE
  5
EC
330
1A
100
AcDbEntity
  8
BLACK
  6
CONTINUOUS
100
AcDbLine
 10
1.0196592519685039
 20
0.8759574015748032
 30
0
 11
1.0154441732283463
 21
0.8717423228346457
 31
0
  0
LINE
  5
ED
330
1A
100
AcDbEntity
  8
BLACK
  6
CONTINUOUS
100
AcDbLine
 10
1.0154441732283463
 20
0.8717423228346457
 30
0
 11
1.0102817322834645
 21
0.868761811023622
 31
0
  0
LINE
  5
EE
330
1A
100
AcDbEntity
  8
BLACK
  6
CONTINUOUS
100
AcDbLine
 10
1.0102817322834645
 20
0.868761811023622
 30
0
 11
1.0045238188976378
 21
0.8672189763779528
 31
0
  0
LINE
  5
EF
330
1A
100
AcDbEntity
  8
BLACK
  6
CONTINUOUS
100
AcDbLine
 10
1.0045238188976378
 20
0.8672189763779528
 30
0
 11
0.9985627952755906
 21
0.8672189763779528
 31
0
  0
LINE
  5
F0
330
1A
100
AcDbEntity
  8
BLACK
  6
CONTINUOUS
100
AcDbLine
 10
0.9985627952755906
 20
0.8672189763779528
 30
0
 11
0.9928048818897638
 21
0.868761811023622
 31
0
  0
LINE
  5
F1
330
1A
100
AcDbEntity
  8
BLACK
  6
CONTINUOUS
100
AcDbLine
 10
0.9928048818897638
 20
0.868761811023622
 30
0
 11
0.9876424409448818
 21
0.8717423228346457
 31
0
  0
LINE
  5
F2
330
1A
100
AcDbEntity
  8
BLACK
  6
CONTINUOUS
100
AcDbLine
 10
0.9876424409448818
 20
0.8717423228346457
 30
0
 11
0.9834273622047244
 21
0.8759574015748032
 31
0
  0
LINE
  5
F3
330
1A
100
AcDbEntity
  8
BLACK
  6
CONTINUOUS
100
AcDbLine
 10
0.9834273622047244
 20
0.8759574015748032
 30
0
 11
0.9804468503937007
 21
0.881119842519685
 31
0
  0
LINE
  5
F4
330
1A
100
AcDbEntity
  8
BLACK
  6
CONTINUOUS
100
AcDbLine
 10
0.9804468503937007
 20
0.881119842519685
 30
0
 11
0.9789040157480314
 21
0.8868777559055118
 31
0
  0
LINE
  5
F5
330
1A
100
AcDbEntity
  8
BLACK
  6
CONTINUOUS
100
AcDbLine
 10
0.9789040157480314
 20
0.8868777559055118
 30
0
 11
0.9789040157480314
 21
0.8928387795275591
 31
0
  0
LINE
  5
F6
330
1A
100
AcDbEntity
  8
BLACK
  6
CONTINUOUS
100
AcDbLine
 10
0.9789040157480314
 20
0.8928387795275591
 30
0
 11
0.9804468503937007
 21
0.8985966929133858
 31
0
  0
LINE
  5
F7
330
1A
100
AcDbEntity
  8
BLACK
  6
CONTINUOUS
100
AcDbLine
 10
0.9804468503937007
 20
0.8985966929133858
 30
0
 11
0.9834273622047244
 21
0.9037591338582677
 31
0
  0
LINE
  5
F8
330
1A
100
AcDbEntity
  8
BLACK
  6
CONTINUOUS
100
AcDbLine
 10
0.9834273622047244
 20
0.9037591338582677
 30
0
 11
0.9876424409448818
 21
0.9079742125984251
 31
0
  0
LINE
  5
F9
330
1A
100
AcDbEntity
  8
BLACK
  6
CONTINUOUS
100
AcDbLine
 10
0.9876424409448818
 20
0.9079742125984251
 30
0
 11
0.9928048818897638
 21
0.9109547244094488
 31
0
  0
LINE
  5
FA
330
1A
100
AcDbEntity
  8
BLACK
  6
CONTINUOUS
100
AcDbLine
 10
0.9928048818897638
 20
0.9109547244094488
 30
0
 11
0.9985627952755906
 21
0.9124975590551181
 31
0
  0
LINE
  5
FB
330
1A
100
AcDbEntity
  8
BLACK
  6
CONTINUOUS
100
AcDbLine
 10
0.9985627952755906
 20
0.9124975590551181
 30
0
 11
1.0045238188976378
 21
0.9124975590551181
 31
0
  0
LINE
  5
FC
330
1A
100
AcDbEntity
  8
BLACK
  6
CONTINUOUS
100
AcDbLine
 10
1.0045238188976378
 20
0.9124975590551181
 30
0
 11
1.0102817322834645
 21
0.9109547244094488
 31
0
  0
LINE
  5
FD
330
1A
100
AcDbEntity
  8
BLACK
  6
CONTINUOUS
100
AcDbLine
 10
0.4203117716535433
 20
2.1195465748031497
 30
0
 11
0.4335690157480315
 21
2.1165206692913388
 31
0
  0
LINE
  5
FE
330
1A
100
AcDbEntity
  8
BLACK
  6
CONTINUOUS
100
AcDbLine
 10
0.4335690157480315
 20
2.1165206692913388
 30
0
 11
0.4464041338582677
 21
2.1120294881889765
 31
0
  0
LINE
  5
FF
330
1A
100
AcDbEntity
  8
BLACK
  6
CONTINUOUS
100
AcDbLine
 10
0.4464041338582677
 20
2.1120294881889765
 30
0
 11
0.4586556692913386
 21
2.1061294488188977
 31
0
  0
LINE
  5
100
330
1A
100
AcDbEntity
  8
BLACK
  6
CONTINUOUS
100
AcDbLine
 10
0.4586556692913386
 20
2.1061294488188977
 30
0
 11
0.4701696062992126
 21
2.0988947637795277
 31
0
  0
LINE
  5
101
330
1A
100
AcDbEntity
  8
BLACK
  6
CONTINUOUS
100
AcDbLine
 10
0.4701696062992126
 20
2.0988947637795277
 30
0
 11
0.480801062992126
 21
2.0904164566929135
 31
0
  0
LINE
  5
102
330
1A
100
AcDbEntity
  8
BLACK
  6
CONTINUOUS
100
AcDbLine
 10
0.480801062992126
 20
2.0904164566929135
 30
0
 11
0.4904164566929134
 21
2.0808010629921259
 31
0
  0
LINE
  5
103
330
1A
100
AcDbEntity
  8
BLACK
  6
CONTINUOUS
100
AcDbLine
 10
0.4904164566929134
 20
2.0808010629921259
 30
0
 11
0.4988947637795276
 21
2.0701696062992125
 31
0
  0
LINE
  5
104
330
1A
100
AcDbEntity
  8
BLACK
  6
CONTINUOUS
100
AcDbLine
 10
0.4988947637795276
 20
2.0701696062992125
 30
0
 11
0.5061294488188977
 21
2.0586556692913387
 31
0
  0
LINE
  5
105
330
1A
100
AcDbEntity
  8
BLACK
  6
CONTINUOUS
100
AcDbLine
 10
0.5061294488188977
 20
2.0586556692913387
 30
0
 11
0.5120294881889763
 21
2.0464041338582675
 31
0
  0
LINE
  5
106
330
1A
100
AcDbEntity
  8
BLACK
  6
CONTINUOUS
100
AcDbLine
 10
0.5120294881889763
 20
2.0464041338582675
 30
0
 11
0.5165206692913386
 21
2.0335690157480313
 31
0
  0
LINE
  5
107
330
1A
100
AcDbEntity
  8
BLACK
  6
CONTINUOUS
100
AcDbLine
 10
0.5165206692913386
 20
2.0335690157480313
 30
0
 11
0.5195465748031496
 21
2.0203117716535433
 31
0
  0
LINE
  5
108
330
1A
100
AcDbEntity
  8
BLACK
  6
CONTINUOUS
100
AcDbLine
 10
0.5195465748031496
 20
2.0203117716535433
 30
0
 11
0.5210690944881889
 21
2.0067990944881888
 31
0
  0
LINE
  5
109
330
1A
100
AcDbEntity
  8
BLACK
  6
CONTINUOUS
100
AcDbLine
 10
0.5210690944881889
 20
2.0067990944881888
 30
0
 11
0.5210690944881889
 21
1.9932009055118109
 31
0
  0
LINE
  5
10A
330
1A
100
AcDbEntity
  8
BLACK
  6
CONTINUOUS
100
AcDbLine
 10
0.5210690944881889
 20
1.9932009055118109
 30
0
 11
0.5195465748031496
 21
1.9796882283464567
 31
0
  0
LINE
  5
10B
330
1A
100
AcDbEntity
  8
BLACK
  6
CONTINUOUS
100
AcDbLine
 10
0.5195465748031496
 20
1.9796882283464567
 30
0
 11
0.5165206692913386
 21
1.9664309842519685
 31
0
  0
LINE
  5
10C
330
1A
100
AcDbEntity
  8
BLACK
  6
CONTINUOUS
100
AcDbLine
 10
0.5165206692913386
 20
1.9664309842519685
 30
0
 11
0.5120294881889763
 21
1.9535958661417323
 31
0
  0
LINE
  5
10D
330
1A
100
AcDbEntity
  8
BLACK
  6
CONTINUOUS
100
AcDbLine
 10
0.5120294881889763
 20
1.9535958661417323
 30
0
 11
0.5061294488188977
 21
1.9413443307086613
 31
0
  0
LINE
  5
10E
330
1A
100
AcDbEntity
  8
BLACK
  6
CONTINUOUS
100
AcDbLine
 10
0.5061294488188977
 20
1.9413443307086613
 30
0
 11
0.4988947637795276
 21
1.9298303937007875
 31
0
  0
LINE
  5
10F
330
1A
100
AcDbEntity
  8
BLACK
  6
CONTINUOUS
100
AcDbLine
 10
0.4988947637795276
 20
1.9298303937007875
 30
0
 11
0.4904164566929134
 21
1.9191989370078739
 31
0
  0
LINE
  5
110
330
1A
100
AcDbEntity
  8
BLACK
  6
CONTINUOUS
100
AcDbLine
 10
0.4904164566929134
 20
1.9191989370078739
 30
0
 11
0.480801062992126
 21
1.9095835433070865
 31
0
  0
LINE
  5
111
330
1A
100
AcDbEntity
  8
BLACK
  6
CONTINUOUS
100
AcDbLine
 10
0.480801062992126
 20
1.9095835433070865
 30
0
 11
0.4701696062992126
 21
1.9011052362204723
 31
0
  0
LINE
  5
112
330
1A
100
AcDbEntity
  8
BLACK
  6
CONTINUOUS
100
AcDbLine
 10
0.4701696062992126
 20
1.9011052362204723
 30
0
 11
0.4586556692913386
 21
1.8938705511811023
 31
0
  0
LINE
  5
113
330
1A
100
AcDbEntity
  8
BLACK
  6
CONTINUOUS
100
AcDbLine
 10
0.4586556692913386
 20
1.8938705511811023
 30
0
 11
0.4464041338582677
 21
1.8879705118110235
 31
0
  0
LINE
  5
114
330
1A
100
AcDbEntity
  8
BLACK
  6
CONTINUOUS
100
AcDbLine
 10
0.4464041338582677
 20
1.8879705118110235
 30
0
 11
0.4335690157480315
 21
1.8834793307086615
 31
0
  0
LINE
  5
115
330
1A
100
AcDbEntity
  8
BLACK
  6
CONTINUOUS
100
AcDbLine
 10
0.4335690157480315
 20
1.8834793307086615
 30
0
 11
0.4203117716535433
 21
1.8804534251968503
 31
0
  0
LINE
  5
116
330
1A
100
AcDbEntity
  8
BLACK
  6
CONTINUOUS
100
AcDbLine
 10
0.4203117716535433
 20
1.8804534251968503
 30
0
 11
0.406799094488189
 21
1.8789309055118111
 31
0
  0
LINE
  5
117
330
1A
100
AcDbEntity
  8
BLACK
  6
CONTINUOUS
100
AcDbLine
 10
0.406799094488189
 20
1.8789309055118111
 30
0
 11
0.393200905511811
 21
1.8789309055118111
 31
0
  0
LINE
  5
118
330
1A
100
AcDbEntity
  8
BLACK
  6
CONTINUOUS
100
AcDbLine
 10
0.393200905511811
 20
1.8789309055118111
 30
0
 11
0.3796882283464567
 21
1.8804534251968503
 31
0
  0
LINE
  5
119
330
1A
100
AcDbEntity
  8
BLACK
  6
CONTINUOUS
100
AcDbLine
 10
0.3796882283464567
 20
1.8804534251968503
 30
0
 11
0.3664309842519685
 21
1.8834793307086615
 31
0
  0
LINE
  5
11A
330
1A
100
AcDbEntity
  8
BLACK
  6
CONTINUOUS
100
AcDbLine
 10
0.3664309842519685
 20
1.8834793307086615
 30
0
 11
0.3535958661417323
 21
1.8879705118110235
 31
0
  0
LINE
  5
11B
330
1A
100
AcDbEntity
  8
BLACK
  6
CONTINUOUS
100
AcDbLine
 10
0.3535958661417323
 20
1.8879705118110235
 30
0
 11
0.3413443307086614
 21
1.8938705511811023
 31
0
  0
LINE
  5
11C
330
1A
100
AcDbEntity
  8
BLACK
  6
CONTINUOUS
100
AcDbLine
 10
0.3413443307086614
 20
1.8938705511811023
 30
0
 11
0.3298303937007874
 21
1.9011052362204723
 31
0
  0
LINE
  5
11D
330
1A
100
AcDbEntity
  8
BLACK
  6
CONTINUOUS
100
AcDbLine
 10
0.3298303937007874
 20
1.9011052362204723
 30
0
 11
0.319198937007874
 21
1.9095835433070865
 31
0
  0
LINE
  5
11E
330
1A
100
AcDbEntity
  8
BLACK
  6
CONTINUOUS
100
AcDbLine
 10
0.319198937007874
 20
1.9095835433070865
 30
0
 11
0.3095835433070866
 21
1.9191989370078739
 31
0
  0
LINE
  5
11F
330
1A
100
AcDbEntity
  8
BLACK
  6
CONTINUOUS
100
AcDbLine
 10
0.3095835433070866
 20
1.9191989370078739
 30
0
 11
0.3011052362204724
 21
1.9298303937007875
 31
0
  0
LINE
  5
120
330
1A
100
AcDbEntity
  8
BLACK
  6
CONTINUOUS
100
AcDbLine
 10
0.3011052362204724
 20
1.9298303937007875
 30
0
 11
0.2938705511811023
 21
1.9413443307086613
 31
0
  0
LINE
  5
121
330
1A
100
AcDbEntity
  8
BLACK
  6
CONTINUOUS
100
AcDbLine
 10
0.2938705511811023
 20
1.9413443307086613
 30
0
 11
0.2879705118110236
 21
1.9535958661417323
 31
0
  0
LINE
  5
122
330
1A
100
AcDbEntity
  8
BLACK
  6
CONTINUOUS
100
AcDbLine
 10
0.2879705118110236
 20
1.9535958661417323
 30
0
 11
0.2834793307086614
 21
1.9664309842519685
 31
0
  0
LINE
  5
123
330
1A
100
AcDbEntity
  8
BLACK
  6
CONTINUOUS
100
AcDbLine
 10
0.2834793307086614
 20
1.9664309842519685
 30
0
 11
0.2804534251968504
 21
1.9796882283464567
 31
0
  0
LINE
  5
124
330
1A
100
AcDbEntity
  8
BLACK
  6
CONTINUOUS
100
AcDbLine
 10
0.2804534251968504
 20
1.9796882283464567
 30
0
 11
0.278930905511811
 21
1.9932009055118109
 31
0
  0
LINE
  5
125
330
1A
100
AcDbEntity
  8
BLACK
  6
CONTINUOUS
100
AcDbLine
 10
0.278930905511811
 20
1.9932009055118109
 30
0
 11
0.278930905511811
 21
2.0067990944881888
 31
0
  0
LINE
  5
126
330
1A
100
AcDbEntity
  8
BLACK
  6
CONTINUOUS
100
AcDbLine
 10
0.278930905511811
 20
2.0067990944881888
 30
0
 11
0.2804534251968504
 21
2.0203117716535433
 31
0
  0
LINE
  5
127
330
1A
100
AcDbEntity
  8
BLACK
  6
CONTINUOUS
100
AcDbLine
 10
0.2804534251968504
 20
2.0203117716535433
 30
0
 11
0.2834793307086614
 21
2.0335690157480313
 31
0
  0
LINE
  5
128
330
1A
100
AcDbEntity
  8
BLACK
  6
CONTINUOUS
100
AcDbLine
 10
0.2834793307086614
 20
2.0335690157480313
 30
0
 11
0.2879705118110236
 21
2.0464041338582675
 31
0
  0
LINE
  5
129
330
1A
100
AcDbEntity
  8
BLACK
  6
CONTINUOUS
100
AcDbLine
 10
0.2879705118110236
 20
2.0464041338582675
 30
0
 11
0.2938705511811023
 21
2.0586556692913387
 31
0
  0
LINE
  5
12A
330
1A
100
AcDbEntity
  8
BLACK
  6
CONTINUOUS
100
AcDbLine
 10
0.2938705511811023
 20
2.0586556692913387
 30
0
 11
0.3011052362204724
 21
2.0701696062992125
 31
0
  0
LINE
  5
12B
330
1A
100
AcDbEntity
  8
BLACK
  6
CONTINUOUS
100
AcDbLine
 10
0.3011052362204724
 20
2.0701696062992125
 30
0
 11
0.3095835433070866
 21
2.0808010629921259
 31
0
  0
LINE
  5
12C
330
1A
100
AcDbEntity
  8
BLACK
  6
CONTINUOUS
100
AcDbLine
 10
0.3095835433070866
 20
2.0808010629921259
 30
0
 11
0.319198937007874
 21
2.0904164566929135
 31
0
  0
LINE
  5
12D
330
1A
100
AcDbEntity
  8
BLACK
  6
CONTINUOUS
100
AcDbLine
 10
0.319198937007874
 20
2.0904164566929135
 30
0
 11
0.3298303937007874
 21
2.0988947637795277
 31
0
  0
LINE
  5
12E
330
1A
100
AcDbEntity
  8
BLACK
  6
CONTINUOUS
100
AcDbLine
 10
0.3298303937007874
 20
2.0988947637795277
 30
0
 11
0.3413443307086614
 21
2.1061294488188977
 31
0
  0
LINE
  5
12F
330
1A
100
AcDbEntity
  8
BLACK
  6
CONTINUOUS
100
AcDbLine
 10
0.3413443307086614
 20
2.1061294488188977
 30
0
 11
0.3535958661417323
 21
2.1120294881889765
 31
0
  0
LINE
  5
130
330
1A
100
AcDbEntity
  8
BLACK
  6
CONTINUOUS
100
AcDbLine
 10
0.3535958661417323
 20
2.1120294881889765
 30
0
 11
0.3664309842519685
 21
2.1165206692913388
 31
0
  0
LINE
  5
131
330
1A
100
AcDbEntity
  8
BLACK
  6
CONTINUOUS
100
AcDbLine
 10
0.3664309842519685
 20
2.1165206692913388
 30
0
 11
0.3796882283464567
 21
2.1195465748031497
 31
0
  0
LINE
  5
132
330
1A
100
AcDbEntity
  8
BLACK
  6
CONTINUOUS
100
AcDbLine
 10
0.3796882283464567
 20
2.1195465748031497
 30
0
 11
0.393200905511811
 21
2.1210690944881891
 31
0
  0
LINE
  5
133
330
1A
100
AcDbEntity
  8
BLACK
  6
CONTINUOUS
100
AcDbLine
 10
0.393200905511811
 20
2.1210690944881891
 30
0
 11
0.406799094488189
 21
2.1210690944881891
 31
0
  0
LINE
  5
134
330
1A
100
AcDbEntity
  8
BLACK
  6
CONTINUOUS
100
AcDbLine
 10
0.406799094488189
 20
2.1210690944881891
 30
0
 11
0.4203117716535433
 21
2.1195465748031497
 31
0
  0
LINE
  5
135
330
1A
100
AcDbEntity
  8
BLACK
  6
CONTINUOUS
100
AcDbLine
 10
2.8203117716535431
 20
2.1195465748031497
 30
0
 11
2.8335690157480315
 21
2.1165206692913388
 31
0
  0
LINE
  5
136
330
1A
100
AcDbEntity
  8
BLACK
  6
CONTINUOUS
100
AcDbLine
 10
2.8335690157480315
 20
2.1165206692913388
 30
0
 11
2.8464041338582677
 21
2.1120294881889765
 31
0
  0
LINE
  5
137
330
1A
100
AcDbEntity
  8
BLACK
  6
CONTINUOUS
100
AcDbLine
 10
2.8464041338582677
 20
2.1120294881889765
 30
0
 11
2.8586556692913385
 21
2.1061294488188977
 31
0
  0
LINE
  5
138
330
1A
100
AcDbEntity
  8
BLACK
  6
CONTINUOUS
100
AcDbLine
 10
2.8586556692913385
 20
2.1061294488188977
 30
0
 11
2.8701696062992124
 21
2.0988947637795277
 31
0
  0
LINE
  5
139
330
1A
100
AcDbEntity
  8
BLACK
  6
CONTINUOUS
100
AcDbLine
 10
2.8701696062992124
 20
2.0988947637795277
 30
0
 11
2.8808010629921261
 21
2.0904164566929135
 31
0
  0
LINE
  5
13A
330
1A
100
AcDbEntity
  8
BLACK
  6
CONTINUOUS
100
AcDbLine
 10
2.8808010629921261
 20
2.0904164566929135
 30
0
 11
2.8904164566929134
 21
2.0808010629921259
 31
0
  0
LINE
  5
13B
330
1A
100
AcDbEntity
  8
BLACK
  6
CONTINUOUS
100
AcDbLine
 10
2.8904164566929134
 20
2.0808010629921259
 30
0
 11
2.8988947637795275
 21
2.0701696062992125
 31
0
  0
LINE
  5
13C
330
1A
100
AcDbEntity
  8
BLACK
  6
CONTINUOUS
100
AcDbLine
 10
2.8988947637795275
 20
2.0701696062992125
 30
0
 11
2.9061294488188976
 21
2.0586556692913387
 31
0
  0
LINE
  5
13D
330
1A
100
AcDbEntity
  8
BLACK
  6
CONTINUOUS
100
AcDbLine
 10
2.9061294488188976
 20
2.0586556692913387
 30
0
 11
2.9120294881889763
 21
2.0464041338582675
 31
0
  0
LINE
  5
13E
330
1A
100
AcDbEntity
  8
BLACK
  6
CONTINUOUS
100
AcDbLine
 10
2.9120294881889763
 20
2.0464041338582675
 30
0
 11
2.9165206692913386
 21
2.0335690157480313
 31
0
  0
LINE
  5
13F
330
1A
100
AcDbEntity
  8
BLACK
  6
CONTINUOUS
100
AcDbLine
 10
2.9165206692913386
 20
2.0335690157480313
 30
0
 11
2.9195465748031495
 21
2.0203117716535433
 31
0
  0
LINE
  5
140
330
1A
100
AcDbEntity
  8
BLACK
  6
CONTINUOUS
100
AcDbLine
 10
2.9195465748031495
 20
2.0203117716535433
 30
0
 11
2.921069094488189
 21
2.0067990944881888
 31
0
  0
LINE
  5
141
330
1A
100
AcDbEntity
  8
BLACK
  6
CONTINUOUS
100
AcDbLine
 10
2.921069094488189
 20
2.0067990944881888
 30
0
 11
2.921069094488189
 21
1.9932009055118109
 31
0
  0
LINE
  5
142
330
1A
100
AcDbEntity
  8
BLACK
  6
CONTINUOUS
100
AcDbLine
 10
2.921069094488189
 20
1.9932009055118109
 30
0
 11
2.9195465748031495
 21
1.9796882283464567
 31
0
  0
LINE
  5
143
330
1A
100
AcDbEntity
  8
BLACK
  6
CONTINUOUS
100
AcDbLine
 10
2.9195465748031495
 20
1.9796882283464567
 30
0
 11
2.9165206692913386
 21
1.9664309842519685
 31
0
  0
LINE
  5
144
330
1A
100
AcDbEntity
  8
BLACK
  6
CONTINUOUS
100
AcDbLine
 10
2.9165206692913386
 20
1.9664309842519685
 30
0
 11
2.9120294881889763
 21
1.9535958661417323
 31
0
  0
LINE
  5
145
330
1A
100
AcDbEntity
  8
BLACK
  6
CONTINUOUS
100
AcDbLine
 10
2.9120294881889763
 20
1.9535958661417323
 30
0
 11
2.9061294488188976
 21
1.9413443307086613
 31
0
  0
LINE
  5
146
330
1A
100
AcDbEntity
  8
BLACK
  6
CONTINUOUS
100
AcDbLine
 10
2.9061294488188976
 20
1.9413443307086613
 30
0
 11
2.8988947637795275
 21
1.9298303937007875
 31
0
  0
LINE
  5
147
330
1A
100
AcDbEntity
  8
BLACK
  6
CONTINUOUS
100
AcDbLine
 10
2.8988947637795275
 20
1.9298303937007875
 30
0
 11
2.8904164566929134
 21
1.9191989370078739
 31
0
  0
LINE
  5
148
330
1A
100
AcDbEntity
  8
BLACK
  6
CONTINUOUS
100
AcDbLine
 10
2.8904164566929134
 20
1.9191989370078739
 30
0
 11
2.8808010629921261
 21
1.9095835433070865
 31
0
  0
LINE
  5
149
330
1A
100
AcDbEntity
  8
BLACK
  6
CONTINUOUS
100
AcDbLine
 10
2.8808010629921261
 20
1.9095835433070865
 30
0
 11
2.8701696062992124
 21
1.9011052362204723
 31
0
  0
LINE
  5
14A
330
1A
100
AcDbEntity
  8
BLACK
  6
CONTINUOUS
100
AcDbLine
 10
2.8701696062992124
 20
1.9011052362204723
 30
0
 11
2.8586556692913385
 21
1.8938705511811023
 31
0
  0
LINE
  5
14B
330
1A
100
AcDbEntity
  8
BLACK
  6
CONTINUOUS
100
AcDbLine
 10
2.8586556692913385
 20
1.8938705511811023
 30
0
 11
2.8464041338582677
 21
1.8879705118110235
 31
0
  0
LINE
  5
14C
330
1A
100
AcDbEntity
  8
BLACK
  6
CONTINUOUS
100
AcDbLine
 10
2.8464041338582677
 20
1.8879705118110235
 30
0
 11
2.8335690157480315
 21
1.8834793307086615
 31
0
  0
LINE
  5
14D
330
1A
100
AcDbEntity
  8
BLACK
  6
CONTINUOUS
100
AcDbLine
 10
2.8335690157480315
 20
1.8834793307086615
 30
0
 11
2.8203117716535431
 21
1.8804534251968503
 31
0
  0
LINE
  5
14E
330
1A
100
AcDbEntity
  8
BLACK
  6
CONTINUOUS
100
AcDbLine
 10
2.8203117716535431
 20
1.8804534251968503
 30
0
 11
2.8067990944881891
 21
1.8789309055118111
 31
0
  0
LINE
  5
14F
330
1A
100
AcDbEntity
  8
BLACK
  6
CONTINUOUS
100
AcDbLine
 10
2.8067990944881891
 20
1.8789309055118111
 30
0
 11
2.793200905511811
 21
1.8789309055118111
 31
0
  0
LINE
  5
150
330
1A
100
AcDbEntity
  8
BLACK
  6
CONTINUOUS
100
AcDbLine
 10
2.793200905511811
 20
1.8789309055118111
 30
0
 11
2.7796882283464566
 21
1.8804534251968503
 31
0
  0
LINE
  5
151
330
1A
100
AcDbEntity
  8
BLACK
  6
CONTINUOUS
100
AcDbLine
 10
2.7796882283464566
 20
1.8804534251968503
 30
0
 11
2.7664309842519685
 21
1.8834793307086615
 31
0
  0
LINE
  5
152
330
1A
100
AcDbEntity
  8
BLACK
  6
CONTINUOUS
100
AcDbLine
 10
2.7664309842519685
 20
1.8834793307086615
 30
0
 11
2.7535958661417324
 21
1.8879705118110235
 31
0
  0
LINE
  5
153
330
1A
100
AcDbEntity
  8
BLACK
  6
CONTINUOUS
100
AcDbLine
 10
2.7535958661417324
 20
1.8879705118110235
 30
0
 11
2.7413443307086616
 21
1.8938705511811023
 31
0
  0
LINE
  5
154
330
1A
100
AcDbEntity
  8
BLACK
  6
CONTINUOUS
100
AcDbLine
 10
2.7413443307086616
 20
1.8938705511811023
 30
0
 11
2.7298303937007873
 21
1.9011052362204723
 31
0
  0
LINE
  5
155
330
1A
100
AcDbEntity
  8
BLACK
  6
CONTINUOUS
100
AcDbLine
 10
2.7298303937007873
 20
1.9011052362204723
 30
0
 11
2.719198937007874
 21
1.9095835433070865
 31
0
  0
LINE
  5
156
330
1A
100
AcDbEntity
  8
BLACK
  6
CONTINUOUS
100
AcDbLine
 10
2.719198937007874
 20
1.9095835433070865
 30
0
 11
2.7095835433070867
 21
1.9191989370078739
 31
0
  0
LINE
  5
157
330
1A
100
AcDbEntity
  8
BLACK
  6
CONTINUOUS
100
AcDbLine
 10
2.7095835433070867
 20
1.9191989370078739
 30
0
 11
2.7011052362204722
 21
1.9298303937007875
 31
0
  0
LINE
  5
158
330
1A
100
AcDbEntity
  8
BLACK
  6
CONTINUOUS
100
AcDbLine
 10
2.7011052362204722
 20
1.9298303937007875
 30
0
 11
2.6938705511811021
 21
1.9413443307086613
 31
0
  0
LINE
  5
159
330
1A
100
AcDbEntity
  8
BLACK
  6
CONTINUOUS
100
AcDbLine
 10
2.6938705511811021
 20
1.9413443307086613
 30
0
 11
2.6879705118110238
 21
1.9535958661417323
 31
0
  0
LINE
  5
15A
330
1A
100
AcDbEntity
  8
BLACK
  6
CONTINUOUS
100
AcDbLine
 10
2.6879705118110238
 20
1.9535958661417323
 30
0
 11
2.6834793307086615
 21
1.9664309842519685
 31
0
  0
LINE
  5
15B
330
1A
100
AcDbEntity
  8
BLACK
  6
CONTINUOUS
100
AcDbLine
 10
2.6834793307086615
 20
1.9664309842519685
 30
0
 11
2.6804534251968501
 21
1.9796882283464567
 31
0
  0
LINE
  5
15C
330
1A
100
AcDbEntity
  8
BLACK
  6
CONTINUOUS
100
AcDbLine
 10
2.6804534251968501
 20
1.9796882283464567
 30
0
 11
2.6789309055118111
 21
1.9932009055118109
 31
0
  0
LINE
  5
15D
330
1A
100
AcDbEntity
  8
BLACK
  6
CONTINUOUS
100
AcDbLine
 10
2.6789309055118111
 20
1.9932009055118109
 30
0
 11
2.6789309055118111
 21
2.0067990944881888
 31
0
  0
LINE
  5
15E
330
1A
100
AcDbEntity
  8
BLACK
  6
CONTINUOUS
100
AcDbLine
 10
2.6789309055118111
 20
2.0067990944881888
 30
0
 11
2.6804534251968501
 21
2.0203117716535433
 31
0
  0
LINE
  5
15F
330
1A
100
AcDbEntity
  8
BLACK
  6
CONTINUOUS
100
AcDbLine
 10
2.6804534251968501
 20
2.0203117716535433
 30
0
 11
2.6834793307086615
 21
2.0335690157480313
 31
0
  0
LINE
  5
160
330
1A
100
AcDbEntity
  8
BLACK
  6
CONTINUOUS
100
AcDbLine
 10
2.6834793307086615
 20
2.0335690157480313
 30
0
 11
2.6879705118110238
 21
2.0464041338582675
 31
0
  0
LINE
  5
161
330
1A
100
AcDbEntity
  8
BLACK
  6
CONTINUOUS
100
AcDbLine
 10
2.6879705118110238
 20
2.0464041338582675
 30
0
 11
2.6938705511811021
 21
2.0586556692913387
 31
0
  0
LINE
  5
162
330
1A
100
AcDbEntity
  8
BLACK
  6
CONTINUOUS
100
AcDbLine
 10
2.6938705511811021
 20
2.0586556692913387
 30
0
 11
2.7011052362204722
 21
2.0701696062992125
 31
0
  0
LINE
  5
163
330
1A
100
AcDbEntity
  8
BLACK
  6
CONTINUOUS
100
AcDbLine
 10
2.7011052362204722
 20
2.0701696062992125
 30
0
 11
2.7095835433070867
 21
2.0808010629921259
 31
0
  0
LINE
  5
164
330
1A
100
AcDbEntity
  8
BLACK
  6
CONTINUOUS
100
AcDbLine
 10
2.7095835433070867
 20
2.0808010629921259
 30
0
 11
2.719198937007874
 21
2.0904164566929135
 31
0
  0
LINE
  5
165
330
1A
100
AcDbEntity
  8
BLACK
  6
CONTINUOUS
100
AcDbLine
 10
2.719198937007874
 20
2.0904164566929135
 30
0
 11
2.7298303937007873
 21
2.0988947637795277
 31
0
  0
LINE
  5
166
330
1A
100
AcDbEntity
  8
BLACK
  6
CONTINUOUS
100
AcDbLine
 10
2.7298303937007873
 20
2.0988947637795277
 30
0
 11
2.7413443307086616
 21
2.1061294488188977
 31
0
  0
LINE
  5
167
330
1A
100
AcDbEntity
  8
BLACK
  6
CONTINUOUS
100
AcDbLine
 10
2.7413443307086616
 20
2.1061294488188977
 30
0
 11
2.7535958661417324
 21
2.1120294881889765
 31
0
  0
LINE
  5
168
330
1A
100
AcDbEntity
  8
BLACK
  6
CONTINUOUS
100
AcDbLine
 10
2.7535958661417324
 20
2.1120294881889765
 30
0
 11
2.7664309842519685
 21
2.1165206692913388
 31
0
  0
LINE
  5
169
330
1A
100
AcDbEntity
  8
BLACK
  6
CONTINUOUS
100
AcDbLine
 10
2.7664309842519685
 20
2.1165206692913388
 30
0
 11
2.7796882283464566
 21
2.1195465748031497
 31
0
  0
LINE
  5
16A
330
1A
100
AcDbEntity
  8
BLACK
  6
CONTINUOUS
100
AcDbLine
 10
2.7796882283464566
 20
2.1195465748031497
 30
0
 11
2.793200905511811
 21
2.1210690944881891
 31
0
  0
LINE
  5
16B
330
1A
100
AcDbEntity
  8
BLACK
  6
CONTINUOUS
100
AcDbLine
 10
2.793200905511811
 20
2.1210690944881891
 30
0
 11
2.8067990944881891
 21
2.1210690944881891
 31
0
  0
LINE
  5
16C
330
1A
100
AcDbEntity
  8
BLACK
  6
CONTINUOUS
100
AcDbLine
 10
2.8067990944881891
 20
2.1210690944881891
 30
0
 11
2.8203117716535431
 21
2.1195465748031497
 31
0
  0
LINE
  5
16D
330
1A
100
AcDbEntity
  8
BLACK
  6
CONTINUOUS
100
AcDbLine
 10
0.9312053149606299
 20
2.0329098425196852
 30
0
 11
0.9322271259842519
 21
2.0322271259842517
 31
0
  0
LINE
  5
16E
330
1A
100
AcDbEntity
  8
BLACK
  6
CONTINUOUS
100
AcDbLine
 10
0.9322271259842519
 20
2.0322271259842517
 30
0
 11
0.932909842519685
 21
2.0312053149606299
 31
0
  0
LINE
  5
16F
330
1A
100
AcDbEntity
  8
BLACK
  6
CONTINUOUS
100
AcDbLine
 10
0.932909842519685
 20
2.0312053149606299
 30
0
 11
0.9331496062992126
 21
2.0299999999999998
 31
0
  0
LINE
  5
170
330
1A
100
AcDbEntity
  8
BLACK
  6
CONTINUOUS
100
AcDbLine
 10
0.9331496062992126
 20
2.0299999999999998
 30
0
 11
0.9331496062992126
 21
1.97
 31
0
  0
LINE
  5
171
330
1A
100
AcDbEntity
  8
BLACK
  6
CONTINUOUS
100
AcDbLine
 10
0.9331496062992126
 20
1.97
 30
0
 11
0.932909842519685
 21
1.9687946850393701
 31
0
  0
LINE
  5
172
330
1A
100
AcDbEntity
  8
BLACK
  6
CONTINUOUS
100
AcDbLine
 10
0.932909842519685
 20
1.9687946850393701
 30
0
 11
0.9322271259842519
 21
1.9677728740157481
 31
0
  0
LINE
  5
173
330
1A
100
AcDbEntity
  8
BLACK
  6
CONTINUOUS
100
AcDbLine
 10
0.9322271259842519
 20
1.9677728740157481
 30
0
 11
0.9312053149606299
 21
1.967090157480315
 31
0
  0
LINE
  5
174
330
1A
100
AcDbEntity
  8
BLACK
  6
CONTINUOUS
100
AcDbLine
 10
0.9312053149606299
 20
1.967090157480315
 30
0
 11
0.9299999999999999
 21
1.9668503937007873
 31
0
  0
LINE
  5
175
330
1A
100
AcDbEntity
  8
BLACK
  6
CONTINUOUS
100
AcDbLine
 10
0.9299999999999999
 20
1.9668503937007873
 30
0
 11
0.87
 21
1.9668503937007873
 31
0
  0
LINE
  5
176
330
1A
100
AcDbEntity
  8
BLACK
  6
CONTINUOUS
100
AcDbLine
 10
0.87
 20
1.9668503937007873
 30
0
 11
0.8687946850393701
 21
1.967090157480315
 31
0
  0
LINE
  5
177
330
1A
100
AcDbEntity
  8
BLACK
  6
CONTINUOUS
100
AcDbLine
 10
0.8687946850393701
 20
1.967090157480315
 30
0
 11
0.867772874015748
 21
1.9677728740157481
 31
0
  0
LINE
  5
178
330
1A
100
AcDbEntity
  8
BLACK
  6
CONTINUOUS
100
AcDbLine
 10
0.867772874015748
 20
1.9677728740157481
 30
0
 11
0.8670901574803149
 21
1.9687946850393701
 31
0
  0
LINE
  5
179
330
1A
100
AcDbEntity
  8
BLACK
  6
CONTINUOUS
100
AcDbLine
 10
0.8670901574803149
 20
1.9687946850393701
 30
0
 11
0.8668503937007874
 21
1.97
 31
0
  0
LINE
  5
17A
330
1A
100
AcDbEntity
  8
BLACK
  6
CONTINUOUS
100
AcDbLine
 10
0.8668503937007874
 20
1.97
 30
0
 11
0.8668503937007874
 21
2.0299999999999998
 31
0
  0
LINE
  5
17B
330
1A
100
AcDbEntity
  8
BLACK
  6
CONTINUOUS
100
AcDbLine
 10
0.8668503937007874
 20
2.0299999999999998
 30
0
 11
0.8670901574803149
 21
2.0312053149606299
 31
0
  0
LINE
  5
17C
330
1A
100
AcDbEntity
  8
BLACK
  6
CONTINUOUS
100
AcDbLine
 10
0.8670901574803149
 20
2.0312053149606299
 30
0
 11
0.867772874015748
 21
2.0322271259842517
 31
0
  0
LINE
  5
17D
330
1A
100
AcDbEntity
  8
BLACK
  6
CONTINUOUS
100
AcDbLine
 10
0.867772874015748
 20
2.0322271259842517
 30
0
 11
0.8687946850393701
 21
2.0329098425196852
 31
0
  0
LINE
  5
17E
330
1A
100
AcDbEntity
  8
BLACK
  6
CONTINUOUS
100
AcDbLine
 10
0.8687946850393701
 20
2.0329098425196852
 30
0
 11
0.87
 21
2.0331496062992125
 31
0
  0
LINE
  5
17F
330
1A
100
AcDbEntity
  8
BLACK
  6
CONTINUOUS
100
AcDbLine
 10
0.87
 20
2.0331496062992125
 30
0
 11
0.9299999999999999
 21
2.0331496062992125
 31
0
  0
LINE
  5
180
330
1A
100
AcDbEntity
  8
BLACK
  6
CONTINUOUS
100
AcDbLine
 10
0.9299999999999999
 20
2.0331496062992125
 30
0
 11
0.9312053149606299
 21
2.0329098425196852
 31
0
  0
LINE
  5
181
330
1A
100
AcDbEntity
  8
BLACK
  6
CONTINUOUS
100
AcDbLine
 10
1.0312053149606299
 20
2.0329098425196852
 30
0
 11
1.0322271259842519
 21
2.0322271259842517
 31
0
  0
LINE
  5
182
330
1A
100
AcDbEntity
  8
BLACK
  6
CONTINUOUS
100
AcDbLine
 10
1.0322271259842519
 20
2.0322271259842517
 30
0
 11
1.032909842519685
 21
2.0312053149606299
 31
0
  0
LINE
  5
183
330
1A
100
AcDbEntity
  8
BLACK
  6
CONTINUOUS
100
AcDbLine
 10
1.032909842519685
 20
2.0312053149606299
 30
0
 11
1.0331496062992125
 21
2.0299999999999998
 31
0
  0
LINE
  5
184
330
1A
100
AcDbEntity
  8
BLACK
  6
CONTINUOUS
100
AcDbLine
 10
1.0331496062992125
 20
2.0299999999999998
 30
0
 11
1.0331496062992125
 21
1.97
 31
0
  0
LINE
  5
185
330
1A
100
AcDbEntity
  8
BLACK
  6
CONTINUOUS
100
AcDbLine
 10
1.0331496062992125
 20
1.97
 30
0
 11
1.032909842519685
 21
1.9687946850393701
 31
0
  0
LINE
  5
186
330
1A
100
AcDbEntity
  8
BLACK
  6
CONTINUOUS
100
AcDbLine
 10
1.032909842519685
 20
1.9687946850393701
 30
0
 11
1.0322271259842519
 21
1.9677728740157481
 31
0
  0
LINE
  5
187
330
1A
100
AcDbEntity
  8
BLACK
  6
CONTINUOUS
100
AcDbLine
 10
1.0322271259842519
 20
1.9677728740157481
 30
0
 11
1.0312053149606299
 21
1.967090157480315
 31
0
  0
LINE
  5
188
330
1A
100
AcDbEntity
  8
BLACK
  6
CONTINUOUS
100
AcDbLine
 10
1.0312053149606299
 20
1.967090157480315
 30
0
 11
1.03
 21
1.9668503937007873
 31
0
  0
LINE
  5
189
330
1A
100
AcDbEntity
  8
BLACK
  6
CONTINUOUS
100
AcDbLine
 10
1.03
 20
1.9668503937007873
 30
0
 11
0.97
 21
1.9668503937007873
 31
0
  0
LINE
  5
18A
330
1A
100
AcDbEntity
  8
BLACK
  6
CONTINUOUS
100
AcDbLine
 10
0.97
 20
1.9668503937007873
 30
0
 11
0.9687946850393701
 21
1.967090157480315
 31
0
  0
LINE
  5
18B
330
1A
100
AcDbEntity
  8
BLACK
  6
CONTINUOUS
100
AcDbLine
 10
0.9687946850393701
 20
1.967090157480315
 30
0
 11
0.967772874015748
 21
1.9677728740157481
 31
0
  0
LINE
  5
18C
330
1A
100
AcDbEntity
  8
BLACK
  6
CONTINUOUS
100
AcDbLine
 10
0.967772874015748
 20
1.9677728740157481
 30
0
 11
0.9670901574803149
 21
1.9687946850393701
 31
0
  0
LINE
  5
18D
330
1A
100
AcDbEntity
  8
BLACK
  6
CONTINUOUS
100
AcDbLine
 10
0.9670901574803149
 20
1.9687946850393701
 30
0
 11
0.9668503937007874
 21
1.97
 31
0
  0
LINE
  5
18E
330
1A
100
AcDbEntity
  8
BLACK
  6
CONTINUOUS
100
AcDbLine
 10
0.9668503937007874
 20
1.97
 30
0
 11
0.9668503937007874
 21
2.0299999999999998
 31
0
  0
LINE
  5
18F
330
1A
100
AcDbEntity
  8
BLACK
  6
CONTINUOUS
100
AcDbLine
 10
0.9668503937007874
 20
2.0299999999999998
 30
0
 11
0.9670901574803149
 21
2.0312053149606299
 31
0
  0
LINE
  5
190
330
1A
100
AcDbEntity
  8
BLACK
  6
CONTINUOUS
100
AcDbLine
 10
0.9670901574803149
 20
2.0312053149606299
 30
0
 11
0.967772874015748
 21
2.0322271259842517
 31
0
  0
LINE
  5
191
330
1A
100
AcDbEntity
  8
BLACK
  6
CONTINUOUS
100
AcDbLine
 10
0.967772874015748
 20
2.0322271259842517
 30
0
 11
0.9687946850393701
 21
2.0329098425196852
 31
0
  0
LINE
  5
192
330
1A
100
AcDbEntity
  8
BLACK
  6
CONTINUOUS
100
AcDbLine
 10
0.9687946850393701
 20
2.0329098425196852
 30
0
 11
0.97
 21
2.0331496062992125
 31
0
  0
LINE
  5
193
330
1A
100
AcDbEntity
  8
BLACK
  6
CONTINUOUS
100
AcDbLine
 10
0.97
 20
2.0331496062992125
 30
0
 11
1.03
 21
2.0331496062992125
 31
0
  0
LINE
  5
194
330
1A
100
AcDbEntity
  8
BLACK
  6
CONTINUOUS
100
AcDbLine
 10
1.03
 20
2.0331496062992125
 30
0
 11
1.0312053149606299
 21
2.0329098425196852
 31
0
  0
LINE
  5
195
330
1A
100
AcDbEntity
  8
BLACK
  6
CONTINUOUS
100
AcDbLine
 10
1.1312053149606298
 20
2.0329098425196852
 30
0
 11
1.132227125984252
 21
2.0322271259842517
 31
0
  0
LINE
  5
196
330
1A
100
AcDbEntity
  8
BLACK
  6
CONTINUOUS
100
AcDbLine
 10
1.132227125984252
 20
2.0322271259842517
 30
0
 11
1.1329098425196851
 21
2.0312053149606299
 31
0
  0
LINE
  5
197
330
1A
100
AcDbEntity
  8
BLACK
  6
CONTINUOUS
100
AcDbLine
 10
1.1329098425196851
 20
2.0312053149606299
 30
0
 11
1.1331496062992126
 21
2.0299999999999998
 31
0
  0
LINE
  5
198
330
1A
100
AcDbEntity
  8
BLACK
  6
CONTINUOUS
100
AcDbLine
 10
1.1331496062992126
 20
2.0299999999999998
 30
0
 11
1.1331496062992126
 21
1.97
 31
0
  0
LINE
  5
199
330
1A
100
AcDbEntity
  8
BLACK
  6
CONTINUOUS
100
AcDbLine
 10
1.1331496062992126
 20
1.97
 30
0
 11
1.1329098425196851
 21
1.9687946850393701
 31
0
  0
LINE
  5
19A
330
1A
100
AcDbEntity
  8
BLACK
  6
CONTINUOUS
100
AcDbLine
 10
1.1329098425196851
 20
1.9687946850393701
 30
0
 11
1.132227125984252
 21
1.9677728740157481
 31
0
  0
LINE
  5
19B
330
1A
100
AcDbEntity
  8
BLACK
  6
CONTINUOUS
100
AcDbLine
 10
1.132227125984252
 20
1.9677728740157481
 30
0
 11
1.1312053149606298
 21
1.967090157480315
 31
0
  0
LINE
  5
19C
330
1A
100
AcDbEntity
  8
BLACK
  6
CONTINUOUS
100
AcDbLine
 10
1.1312053149606298
 20
1.967090157480315
 30
0
 11
1.1299999999999999
 21
1.9668503937007873
 31
0
  0
LINE
  5
19D
330
1A
100
AcDbEntity
  8
BLACK
  6
CONTINUOUS
100
AcDbLine
 10
1.1299999999999999
 20
1.9668503937007873
 30
0
 11
1.0700000000000001
 21
1.9668503937007873
 31
0
  0
LINE
  5
19E
330
1A
100
AcDbEntity
  8
BLACK
  6
CONTINUOUS
100
AcDbLine
 10
1.0700000000000001
 20
1.9668503937007873
 30
0
 11
1.0687946850393701
 21
1.967090157480315
 31
0
  0
LINE
  5
19F
330
1A
100
AcDbEntity
  8
BLACK
  6
CONTINUOUS
100
AcDbLine
 10
1.0687946850393701
 20
1.967090157480315
 30
0
 11
1.0677728740157479
 21
1.9677728740157481
 31
0
  0
LINE
  5
1A0
330
1A
100
AcDbEntity
  8
BLACK
  6
CONTINUOUS
100
AcDbLine
 10
1.0677728740157479
 20
1.9677728740157481
 30
0
 11
1.0670901574803149
 21
1.9687946850393701
 31
0
  0
LINE
  5
1A1
330
1A
100
AcDbEntity
  8
BLACK
  6
CONTINUOUS
100
AcDbLine
 10
1.0670901574803149
 20
1.9687946850393701
 30
0
 11
1.0668503937007874
 21
1.97
 31
0
  0
LINE
  5
1A2
330
1A
100
AcDbEntity
  8
BLACK
  6
CONTINUOUS
100
AcDbLine
 10
1.0668503937007874
 20
1.97
 30
0
 11
1.0668503937007874
 21
2.0299999999999998
 31
0
  0
LINE
  5
1A3
330
1A
100
AcDbEntity
  8
BLACK
  6
CONTINUOUS
100
AcDbLine
 10
1.0668503937007874
 20
2.0299999999999998
 30
0
 11
1.0670901574803149
 21
2.0312053149606299
 31
0
  0
LINE
  5
1A4
330
1A
100
AcDbEntity
  8
BLACK
  6
CONTINUOUS
100
AcDbLine
 10
1.0670901574803149
 20
2.0312053149606299
 30
0
 11
1.0677728740157479
 21
2.0322271259842517
 31
0
  0
LINE
  5
1A5
330
1A
100
AcDbEntity
  8
BLACK
  6
CONTINUOUS
100
AcDbLine
 10
1.0677728740157479
 20
2.0322271259842517
 30
0
 11
1.0687946850393701
 21
2.0329098425196852
 31
0
  0
LINE
  5
1A6
330
1A
100
AcDbEntity
  8
BLACK
  6
CONTINUOUS
100
AcDbLine
 10
1.0687946850393701
 20
2.0329098425196852
 30
0
 11
1.0700000000000001
 21
2.0331496062992125
 31
0
  0
LINE
  5
1A7
330
1A
100
AcDbEntity
  8
BLACK
  6
CONTINUOUS
100
AcDbLine
 10
1.0700000000000001
 20
2.0331496062992125
 30
0
 11
1.1299999999999999
 21
2.0331496062992125
 31
0
  0
LINE
  5
1A8
330
1A
100
AcDbEntity
  8
BLACK
  6
CONTINUOUS
100
AcDbLine
 10
1.1299999999999999
 20
2.0331496062992125
 30
0
 11
1.1312053149606298
 21
2.0329098425196852
 31
0
  0
LINE
  5
1A9
330
1A
100
AcDbEntity
  8
BLACK
  6
CONTINUOUS
100
AcDbLine
 10
1.2312053149606299
 20
2.0329098425196852
 30
0
 11
1.2322271259842519
 21
2.0322271259842517
 31
0
  0
LINE
  5
1AA
330
1A
100
AcDbEntity
  8
BLACK
  6
CONTINUOUS
100
AcDbLine
 10
1.2322271259842519
 20
2.0322271259842517
 30
0
 11
1.2329098425196849
 21
2.0312053149606299
 31
0
  0
LINE
  5
1AB
330
1A
100
AcDbEntity
  8
BLACK
  6
CONTINUOUS
100
AcDbLine
 10
1.2329098425196849
 20
2.0312053149606299
 30
0
 11
1.2331496062992127
 21
2.0299999999999998
 31
0
  0
LINE
  5
1AC
330
1A
100
AcDbEntity
  8
BLACK
  6
CONTINUOUS
100
AcDbLine
 10
1.2331496062992127
 20
2.0299999999999998
 30
0
 11
1.2331496062992127
 21
1.97
 31
0
  0
LINE
  5
1AD
330
1A
100
AcDbEntity
  8
BLACK
  6
CONTINUOUS
100
AcDbLine
 10
1.2331496062992127
 20
1.97
 30
0
 11
1.2329098425196849
 21
1.9687946850393701
 31
0
  0
LINE
  5
1AE
330
1A
100
AcDbEntity
  8
BLACK
  6
CONTINUOUS
100
AcDbLine
 10
1.2329098425196849
 20
1.9687946850393701
 30
0
 11
1.2322271259842519
 21
1.9677728740157481
 31
0
  0
LINE
  5
1AF
330
1A
100
AcDbEntity
  8
BLACK
  6
CONTINUOUS
100
AcDbLine
 10
1.2322271259842519
 20
1.9677728740157481
 30
0
 11
1.2312053149606299
 21
1.967090157480315
 31
0
  0
LINE
  5
1B0
330
1A
100
AcDbEntity
  8
BLACK
  6
CONTINUOUS
100
AcDbLine
 10
1.2312053149606299
 20
1.967090157480315
 30
0
 11
1.23
 21
1.9668503937007873
 31
0
  0
LINE
  5
1B1
330
1A
100
AcDbEntity
  8
BLACK
  6
CONTINUOUS
100
AcDbLine
 10
1.23
 20
1.9668503937007873
 30
0
 11
1.1699999999999999
 21
1.9668503937007873
 31
0
  0
LINE
  5
1B2
330
1A
100
AcDbEntity
  8
BLACK
  6
CONTINUOUS
100
AcDbLine
 10
1.1699999999999999
 20
1.9668503937007873
 30
0
 11
1.16879468503937
 21
1.967090157480315
 31
0
  0
LINE
  5
1B3
330
1A
100
AcDbEntity
  8
BLACK
  6
CONTINUOUS
100
AcDbLine
 10
1.16879468503937
 20
1.967090157480315
 30
0
 11
1.167772874015748
 21
1.9677728740157481
 31
0
  0
LINE
  5
1B4
330
1A
100
AcDbEntity
  8
BLACK
  6
CONTINUOUS
100
AcDbLine
 10
1.167772874015748
 20
1.9677728740157481
 30
0
 11
1.167090157480315
 21
1.9687946850393701
 31
0
  0
LINE
  5
1B5
330
1A
100
AcDbEntity
  8
BLACK
  6
CONTINUOUS
100
AcDbLine
 10
1.167090157480315
 20
1.9687946850393701
 30
0
 11
1.1668503937007875
 21
1.97
 31
0
  0
LINE
  5
1B6
330
1A
100
AcDbEntity
  8
BLACK
  6
CONTINUOUS
100
AcDbLine
 10
1.1668503937007875
 20
1.97
 30
0
 11
1.1668503937007875
 21
2.0299999999999998
 31
0
  0
LINE
  5
1B7
330
1A
100
AcDbEntity
  8
BLACK
  6
CONTINUOUS
100
AcDbLine
 10
1.1668503937007875
 20
2.0299999999999998
 30
0
 11
1.167090157480315
 21
2.0312053149606299
 31
0
  0
LINE
  5
1B8
330
1A
100
AcDbEntity
  8
BLACK
  6
CONTINUOUS
100
AcDbLine
 10
1.167090157480315
 20
2.0312053149606299
 30
0
 11
1.167772874015748
 21
2.0322271259842517
 31
0
  0
LINE
  5
1B9
330
1A
100
AcDbEntity
  8
BLACK
  6
CONTINUOUS
100
AcDbLine
 10
1.167772874015748
 20
2.0322271259842517
 30
0
 11
1.16879468503937
 21
2.0329098425196852
 31
0
  0
LINE
  5
1BA
330
1A
100
AcDbEntity
  8
BLACK
  6
CONTINUOUS
100
AcDbLine
 10
1.16879468503937
 20
2.0329098425196852
 30
0
 11
1.1699999999999999
 21
2.0331496062992125
 31
0
  0
LINE
  5
1BB
330
1A
100
AcDbEntity
  8
BLACK
  6
CONTINUOUS
100
AcDbLine
 10
1.1699999999999999
 20
2.0331496062992125
 30
0
 11
1.23
 21
2.0331496062992125
 31
0
  0
LINE
  5
1BC
330
1A
100
AcDbEntity
  8
BLACK
  6
CONTINUOUS
100
AcDbLine
 10
1.23
 20
2.0331496062992125
 30
0
 11
1.2312053149606299
 21
2.0329098425196852
 31
0
  0
LINE
  5
1BD
330
1A
100
AcDbEntity
  8
BLACK
  6
CONTINUOUS
100
AcDbLine
 10
1.33120531496063
 20
2.0329098425196852
 30
0
 11
1.332227125984252
 21
2.0322271259842517
 31
0
  0
LINE
  5
1BE
330
1A
100
AcDbEntity
  8
BLACK
  6
CONTINUOUS
100
AcDbLine
 10
1.332227125984252
 20
2.0322271259842517
 30
0
 11
1.332909842519685
 21
2.0312053149606299
 31
0
  0
LINE
  5
1BF
330
1A
100
AcDbEntity
  8
BLACK
  6
CONTINUOUS
100
AcDbLine
 10
1.332909842519685
 20
2.0312053149606299
 30
0
 11
1.3331496062992125
 21
2.0299999999999998
 31
0
  0
LINE
  5
1C0
330
1A
100
AcDbEntity
  8
BLACK
  6
CONTINUOUS
100
AcDbLine
 10
1.3331496062992125
 20
2.0299999999999998
 30
0
 11
1.3331496062992125
 21
1.97
 31
0
  0
LINE
  5
1C1
330
1A
100
AcDbEntity
  8
BLACK
  6
CONTINUOUS
100
AcDbLine
 10
1.3331496062992125
 20
1.97
 30
0
 11
1.332909842519685
 21
1.9687946850393701
 31
0
  0
LINE
  5
1C2
330
1A
100
AcDbEntity
  8
BLACK
  6
CONTINUOUS
100
AcDbLine
 10
1.332909842519685
 20
1.9687946850393701
 30
0
 11
1.332227125984252
 21
1.9677728740157481
 31
0
  0
LINE
  5
1C3
330
1A
100
AcDbEntity
  8
BLACK
  6
CONTINUOUS
100
AcDbLine
 10
1.332227125984252
 20
1.9677728740157481
 30
0
 11
1.33120531496063
 21
1.967090157480315
 31
0
  0
LINE
  5
1C4
330
1A
100
AcDbEntity
  8
BLACK
  6
CONTINUOUS
100
AcDbLine
 10
1.33120531496063
 20
1.967090157480315
 30
0
 11
1.3300000000000001
 21
1.9668503937007873
 31
0
  0
LINE
  5
1C5
330
1A
100
AcDbEntity
  8
BLACK
  6
CONTINUOUS
100
AcDbLine
 10
1.3300000000000001
 20
1.9668503937007873
 30
0
 11
1.27
 21
1.9668503937007873
 31
0
  0
LINE
  5
1C6
330
1A
100
AcDbEntity
  8
BLACK
  6
CONTINUOUS
100
AcDbLine
 10
1.27
 20
1.9668503937007873
 30
0
 11
1.2687946850393701
 21
1.967090157480315
 31
0
  0
LINE
  5
1C7
330
1A
100
AcDbEntity
  8
BLACK
  6
CONTINUOUS
100
AcDbLine
 10
1.2687946850393701
 20
1.967090157480315
 30
0
 11
1.2677728740157479
 21
1.9677728740157481
 31
0
  0
LINE
  5
1C8
330
1A
100
AcDbEntity
  8
BLACK
  6
CONTINUOUS
100
AcDbLine
 10
1.2677728740157479
 20
1.9677728740157481
 30
0
 11
1.2670901574803148
 21
1.9687946850393701
 31
0
  0
LINE
  5
1C9
330
1A
100
AcDbEntity
  8
BLACK
  6
CONTINUOUS
100
AcDbLine
 10
1.2670901574803148
 20
1.9687946850393701
 30
0
 11
1.2668503937007873
 21
1.97
 31
0
  0
LINE
  5
1CA
330
1A
100
AcDbEntity
  8
BLACK
  6
CONTINUOUS
100
AcDbLine
 10
1.2668503937007873
 20
1.97
 30
0
 11
1.2668503937007873
 21
2.0299999999999998
 31
0
  0
LINE
  5
1CB
330
1A
100
AcDbEntity
  8
BLACK
  6
CONTINUOUS
100
AcDbLine
 10
1.2668503937007873
 20
2.0299999999999998
 30
0
 11
1.2670901574803148
 21
2.0312053149606299
 31
0
  0
LINE
  5
1CC
330
1A
100
AcDbEntity
  8
BLACK
  6
CONTINUOUS
100
AcDbLine
 10
1.2670901574803148
 20
2.0312053149606299
 30
0
 11
1.2677728740157479
 21
2.0322271259842517
 31
0
  0
LINE
  5
1CD
330
1A
100
AcDbEntity
  8
BLACK
  6
CONTINUOUS
100
AcDbLine
 10
1.2677728740157479
 20
2.0322271259842517
 30
0
 11
1.2687946850393701
 21
2.0329098425196852
 31
0
  0
LINE
  5
1CE
330
1A
100
AcDbEntity
  8
BLACK
  6
CONTINUOUS
100
AcDbLine
 10
1.2687946850393701
 20
2.0329098425196852
 30
0
 11
1.27
 21
2.0331496062992125
 31
0
  0
LINE
  5
1CF
330
1A
100
AcDbEntity
  8
BLACK
  6
CONTINUOUS
100
AcDbLine
 10
1.27
 20
2.0331496062992125
 30
0
 11
1.3300000000000001
 21
2.0331496062992125
 31
0
  0
LINE
  5
1D0
330
1A
100
AcDbEntity
  8
BLACK
  6
CONTINUOUS
100
AcDbLine
 10
1.3300000000000001
 20
2.0331496062992125
 30
0
 11
1.33120531496063
 21
2.0329098425196852
 31
0
  0
LINE
  5
1D1
330
1A
100
AcDbEntity
  8
BLACK
  6
CONTINUOUS
100
AcDbLine
 10
1.4312053149606299
 20
2.0329098425196852
 30
0
 11
1.4322271259842518
 21
2.0322271259842517
 31
0
  0
LINE
  5
1D2
330
1A
100
AcDbEntity
  8
BLACK
  6
CONTINUOUS
100
AcDbLine
 10
1.4322271259842518
 20
2.0322271259842517
 30
0
 11
1.4329098425196851
 21
2.0312053149606299
 31
0
  0
LINE
  5
1D3
330
1A
100
AcDbEntity
  8
BLACK
  6
CONTINUOUS
100
AcDbLine
 10
1.4329098425196851
 20
2.0312053149606299
 30
0
 11
1.4331496062992126
 21
2.0299999999999998
 31
0
  0
LINE
  5
1D4
330
1A
100
AcDbEntity
  8
BLACK
  6
CONTINUOUS
100
AcDbLine
 10
1.4331496062992126
 20
2.0299999999999998
 30
0
 11
1.4331496062992126
 21
1.97
 31
0
  0
LINE
  5
1D5
330
1A
100
AcDbEntity
  8
BLACK
  6
CONTINUOUS
100
AcDbLine
 10
1.4331496062992126
 20
1.97
 30
0
 11
1.4329098425196851
 21
1.9687946850393701
 31
0
  0
LINE
  5
1D6
330
1A
100
AcDbEntity
  8
BLACK
  6
CONTINUOUS
100
AcDbLine
 10
1.4329098425196851
 20
1.9687946850393701
 30
0
 11
1.4322271259842518
 21
1.9677728740157481
 31
0
  0
LINE
  5
1D7
330
1A
100
AcDbEntity
  8
BLACK
  6
CONTINUOUS
100
AcDbLine
 10
1.4322271259842518
 20
1.9677728740157481
 30
0
 11
1.4312053149606299
 21
1.967090157480315
 31
0
  0
LINE
  5
1D8
330
1A
100
AcDbEntity
  8
BLACK
  6
CONTINUOUS
100
AcDbLine
 10
1.4312053149606299
 20
1.967090157480315
 30
0
 11
1.4299999999999999
 21
1.9668503937007873
 31
0
  0
LINE
  5
1D9
330
1A
100
AcDbEntity
  8
BLACK
  6
CONTINUOUS
100
AcDbLine
 10
1.4299999999999999
 20
1.9668503937007873
 30
0
 11
1.3699999999999999
 21
1.9668503937007873
 31
0
  0
LINE
  5
1DA
330
1A
100
AcDbEntity
  8
BLACK
  6
CONTINUOUS
100
AcDbLine
 10
1.3699999999999999
 20
1.9668503937007873
 30
0
 11
1.36879468503937
 21
1.967090157480315
 31
0
  0
LINE
  5
1DB
330
1A
100
AcDbEntity
  8
BLACK
  6
CONTINUOUS
100
AcDbLine
 10
1.36879468503937
 20
1.967090157480315
 30
0
 11
1.367772874015748
 21
1.9677728740157481
 31
0
  0
LINE
  5
1DC
330
1A
100
AcDbEntity
  8
BLACK
  6
CONTINUOUS
100
AcDbLine
 10
1.367772874015748
 20
1.9677728740157481
 30
0
 11
1.3670901574803149
 21
1.9687946850393701
 31
0
  0
LINE
  5
1DD
330
1A
100
AcDbEntity
  8
BLACK
  6
CONTINUOUS
100
AcDbLine
 10
1.3670901574803149
 20
1.9687946850393701
 30
0
 11
1.3668503937007874
 21
1.97
 31
0
  0
LINE
  5
1DE
330
1A
100
AcDbEntity
  8
BLACK
  6
CONTINUOUS
100
AcDbLine
 10
1.3668503937007874
 20
1.97
 30
0
 11
1.3668503937007874
 21
2.0299999999999998
 31
0
  0
LINE
  5
1DF
330
1A
100
AcDbEntity
  8
BLACK
  6
CONTINUOUS
100
AcDbLine
 10
1.3668503937007874
 20
2.0299999999999998
 30
0
 11
1.3670901574803149
 21
2.0312053149606299
 31
0
  0
LINE
  5
1E0
330
1A
100
AcDbEntity
  8
BLACK
  6
CONTINUOUS
100
AcDbLine
 10
1.3670901574803149
 20
2.0312053149606299
 30
0
 11
1.367772874015748
 21
2.0322271259842517
 31
0
  0
LINE
  5
1E1
330
1A
100
AcDbEntity
  8
BLACK
  6
CONTINUOUS
100
AcDbLine
 10
1.367772874015748
 20
2.0322271259842517
 30
0
 11
1.36879468503937
 21
2.0329098425196852
 31
0
  0
LINE
  5
1E2
330
1A
100
AcDbEntity
  8
BLACK
  6
CONTINUOUS
100
AcDbLine
 10
1.36879468503937
 20
2.0329098425196852
 30
0
 11
1.3699999999999999
 21
2.0331496062992125
 31
0
  0
LINE
  5
1E3
330
1A
100
AcDbEntity
  8
BLACK
  6
CONTINUOUS
100
AcDbLine
 10
1.3699999999999999
 20
2.0331496062992125
 30
0
 11
1.4299999999999999
 21
2.0331496062992125
 31
0
  0
LINE
  5
1E4
330
1A
100
AcDbEntity
  8
BLACK
  6
CONTINUOUS
100
AcDbLine
 10
1.4299999999999999
 20
2.0331496062992125
 30
0
 11
1.4312053149606299
 21
2.0329098425196852
 31
0
  0
LINE
  5
1E5
330
1A
100
AcDbEntity
  8
BLACK
  6
CONTINUOUS
100
AcDbLine
 10
1.5312053149606299
 20
2.0329098425196852
 30
0
 11
1.5322271259842519
 21
2.0322271259842517
 31
0
  0
LINE
  5
1E6
330
1A
100
AcDbEntity
  8
BLACK
  6
CONTINUOUS
100
AcDbLine
 10
1.5322271259842519
 20
2.0322271259842517
 30
0
 11
1.532909842519685
 21
2.0312053149606299
 31
0
  0
LINE
  5
1E7
330
1A
100
AcDbEntity
  8
BLACK
  6
CONTINUOUS
100
AcDbLine
 10
1.532909842519685
 20
2.0312053149606299
 30
0
 11
1.5331496062992125
 21
2.0299999999999998
 31
0
  0
LINE
  5
1E8
330
1A
100
AcDbEntity
  8
BLACK
  6
CONTINUOUS
100
AcDbLine
 10
1.5331496062992125
 20
2.0299999999999998
 30
0
 11
1.5331496062992125
 21
1.97
 31
0
  0
LINE
  5
1E9
330
1A
100
AcDbEntity
  8
BLACK
  6
CONTINUOUS
100
AcDbLine
 10
1.5331496062992125
 20
1.97
 30
0
 11
1.532909842519685
 21
1.9687946850393701
 31
0
  0
LINE
  5
1EA
330
1A
100
AcDbEntity
  8
BLACK
  6
CONTINUOUS
100
AcDbLine
 10
1.532909842519685
 20
1.9687946850393701
 30
0
 11
1.5322271259842519
 21
1.9677728740157481
 31
0
  0
LINE
  5
1EB
330
1A
100
AcDbEntity
  8
BLACK
  6
CONTINUOUS
100
AcDbLine
 10
1.5322271259842519
 20
1.9677728740157481
 30
0
 11
1.5312053149606299
 21
1.967090157480315
 31
0
  0
LINE
  5
1EC
330
1A
100
AcDbEntity
  8
BLACK
  6
CONTINUOUS
100
AcDbLine
 10
1.5312053149606299
 20
1.967090157480315
 30
0
 11
1.53
 21
1.9668503937007873
 31
0
  0
LINE
  5
1ED
330
1A
100
AcDbEntity
  8
BLACK
  6
CONTINUOUS
100
AcDbLine
 10
1.53
 20
1.9668503937007873
 30
0
 11
1.47
 21
1.9668503937007873
 31
0
  0
LINE
  5
1EE
330
1A
100
AcDbEntity
  8
BLACK
  6
CONTINUOUS
100
AcDbLine
 10
1.47
 20
1.9668503937007873
 30
0
 11
1.4687946850393701
 21
1.967090157480315
 31
0
  0
LINE
  5
1EF
330
1A
100
AcDbEntity
  8
BLACK
  6
CONTINUOUS
100
AcDbLine
 10
1.4687946850393701
 20
1.967090157480315
 30
0
 11
1.4677728740157481
 21
1.9677728740157481
 31
0
  0
LINE
  5
1F0
330
1A
100
AcDbEntity
  8
BLACK
  6
CONTINUOUS
100
AcDbLine
 10
1.4677728740157481
 20
1.9677728740157481
 30
0
 11
1.467090157480315
 21
1.9687946850393701
 31
0
  0
LINE
  5
1F1
330
1A
100
AcDbEntity
  8
BLACK
  6
CONTINUOUS
100
AcDbLine
 10
1.467090157480315
 20
1.9687946850393701
 30
0
 11
1.4668503937007873
 21
1.97
 31
0
  0
LINE
  5
1F2
330
1A
100
AcDbEntity
  8
BLACK
  6
CONTINUOUS
100
AcDbLine
 10
1.4668503937007873
 20
1.97
 30
0
 11
1.4668503937007873
 21
2.0299999999999998
 31
0
  0
LINE
  5
1F3
330
1A
100
AcDbEntity
  8
BLACK
  6
CONTINUOUS
100
AcDbLine
 10
1.4668503937007873
 20
2.0299999999999998
 30
0
 11
1.467090157480315
 21
2.0312053149606299
 31
0
  0
LINE
  5
1F4
330
1A
100
AcDbEntity
  8
BLACK
  6
CONTINUOUS
100
AcDbLine
 10
1.467090157480315
 20
2.0312053149606299
 30
0
 11
1.4677728740157481
 21
2.0322271259842517
 31
0
  0
LINE
  5
1F5
330
1A
100
AcDbEntity
  8
BLACK
  6
CONTINUOUS
100
AcDbLine
 10
1.4677728740157481
 20
2.0322271259842517
 30
0
 11
1.4687946850393701
 21
2.0329098425196852
 31
0
  0
LINE
  5
1F6
330
1A
100
AcDbEntity
  8
BLACK
  6
CONTINUOUS
100
AcDbLine
 10
1.4687946850393701
 20
2.0329098425196852
 30
0
 11
1.47
 21
2.0331496062992125
 31
0
  0
LINE
  5
1F7
330
1A
100
AcDbEntity
  8
BLACK
  6
CONTINUOUS
100
AcDbLine
 10
1.47
 20
2.0331496062992125
 30
0
 11
1.53
 21
2.0331496062992125
 31
0
  0
LINE
  5
1F8
330
1A
100
AcDbEntity
  8
BLACK
  6
CONTINUOUS
100
AcDbLine
 10
1.53
 20
2.0331496062992125
 30
0
 11
1.5312053149606299
 21
2.0329098425196852
 31
0
  0
LINE
  5
1F9
330
1A
100
AcDbEntity
  8
BLACK
  6
CONTINUOUS
100
AcDbLine
 10
1.6312053149606298
 20
2.0329098425196852
 30
0
 11
1.632227125984252
 21
2.0322271259842517
 31
0
  0
LINE
  5
1FA
330
1A
100
AcDbEntity
  8
BLACK
  6
CONTINUOUS
100
AcDbLine
 10
1.632227125984252
 20
2.0322271259842517
 30
0
 11
1.6329098425196851
 21
2.0312053149606299
 31
0
  0
LINE
  5
1FB
330
1A
100
AcDbEntity
  8
BLACK
  6
CONTINUOUS
100
AcDbLine
 10
1.6329098425196851
 20
2.0312053149606299
 30
0
 11
1.6331496062992126
 21
2.0299999999999998
 31
0
  0
LINE
  5
1FC
330
1A
100
AcDbEntity
  8
BLACK
  6
CONTINUOUS
100
AcDbLine
 10
1.6331496062992126
 20
2.0299999999999998
 30
0
 11
1.6331496062992126
 21
1.97
 31
0
  0
LINE
  5
1FD
330
1A
100
AcDbEntity
  8
BLACK
  6
CONTINUOUS
100
AcDbLine
 10
1.6331496062992126
 20
1.97
 30
0
 11
1.6329098425196851
 21
1.9687946850393701
 31
0
  0
LINE
  5
1FE
330
1A
100
AcDbEntity
  8
BLACK
  6
CONTINUOUS
100
AcDbLine
 10
1.6329098425196851
 20
1.9687946850393701
 30
0
 11
1.632227125984252
 21
1.9677728740157481
 31
0
  0
LINE
  5
1FF
330
1A
100
AcDbEntity
  8
BLACK
  6
CONTINUOUS
100
AcDbLine
 10
1.632227125984252
 20
1.9677728740157481
 30
0
 11
1.6312053149606298
 21
1.967090157480315
 31
0
  0
LINE
  5
200
330
1A
100
AcDbEntity
  8
BLACK
  6
CONTINUOUS
100
AcDbLine
 10
1.6312053149606298
 20
1.967090157480315
 30
0
 11
1.6299999999999999
 21
1.9668503937007873
 31
0
  0
LINE
  5
201
330
1A
100
AcDbEntity
  8
BLACK
  6
CONTINUOUS
100
AcDbLine
 10
1.6299999999999999
 20
1.9668503937007873
 30
0
 11
1.5700000000000001
 21
1.9668503937007873
 31
0
  0
LINE
  5
202
330
1A
100
AcDbEntity
  8
BLACK
  6
CONTINUOUS
100
AcDbLine
 10
1.5700000000000001
 20
1.9668503937007873
 30
0
 11
1.5687946850393701
 21
1.967090157480315
 31
0
  0
LINE
  5
203
330
1A
100
AcDbEntity
  8
BLACK
  6
CONTINUOUS
100
AcDbLine
 10
1.5687946850393701
 20
1.967090157480315
 30
0
 11
1.5677728740157479
 21
1.9677728740157481
 31
0
  0
LINE
  5
204
330
1A
100
AcDbEntity
  8
BLACK
  6
CONTINUOUS
100
AcDbLine
 10
1.5677728740157479
 20
1.9677728740157481
 30
0
 11
1.5670901574803149
 21
1.9687946850393701
 31
0
  0
LINE
  5
205
330
1A
100
AcDbEntity
  8
BLACK
  6
CONTINUOUS
100
AcDbLine
 10
1.5670901574803149
 20
1.9687946850393701
 30
0
 11
1.5668503937007874
 21
1.97
 31
0
  0
LINE
  5
206
330
1A
100
AcDbEntity
  8
BLACK
  6
CONTINUOUS
100
AcDbLine
 10
1.5668503937007874
 20
1.97
 30
0
 11
1.5668503937007874
 21
2.0299999999999998
 31
0
  0
LINE
  5
207
330
1A
100
AcDbEntity
  8
BLACK
  6
CONTINUOUS
100
AcDbLine
 10
1.5668503937007874
 20
2.0299999999999998
 30
0
 11
1.5670901574803149
 21
2.0312053149606299
 31
0
  0
LINE
  5
208
330
1A
100
AcDbEntity
  8
BLACK
  6
CONTINUOUS
100
AcDbLine
 10
1.5670901574803149
 20
2.0312053149606299
 30
0
 11
1.5677728740157479
 21
2.0322271259842517
 31
0
  0
LINE
  5
209
330
1A
100
AcDbEntity
  8
BLACK
  6
CONTINUOUS
100
AcDbLine
 10
1.5677728740157479
 20
2.0322271259842517
 30
0
 11
1.5687946850393701
 21
2.0329098425196852
 31
0
  0
LINE
  5
20A
330
1A
100
AcDbEntity
  8
BLACK
  6
CONTINUOUS
100
AcDbLine
 10
1.5687946850393701
 20
2.0329098425196852
 30
0
 11
1.5700000000000001
 21
2.0331496062992125
 31
0
  0
LINE
  5
20B
330
1A
100
AcDbEntity
  8
BLACK
  6
CONTINUOUS
100
AcDbLine
 10
1.5700000000000001
 20
2.0331496062992125
 30
0
 11
1.6299999999999999
 21
2.0331496062992125
 31
0
  0
LINE
  5
20C
330
1A
100
AcDbEntity
  8
BLACK
  6
CONTINUOUS
100
AcDbLine
 10
1.6299999999999999
 20
2.0331496062992125
 30
0
 11
1.6312053149606298
 21
2.0329098425196852
 31
0
  0
LINE
  5
20D
330
1A
100
AcDbEntity
  8
BLACK
  6
CONTINUOUS
100
AcDbLine
 10
1.7312053149606299
 20
2.0329098425196852
 30
0
 11
1.7322271259842519
 21
2.0322271259842517
 31
0
  0
LINE
  5
20E
330
1A
100
AcDbEntity
  8
BLACK
  6
CONTINUOUS
100
AcDbLine
 10
1.7322271259842519
 20
2.0322271259842517
 30
0
 11
1.7329098425196849
 21
2.0312053149606299
 31
0
  0
LINE
  5
20F
330
1A
100
AcDbEntity
  8
BLACK
  6
CONTINUOUS
100
AcDbLine
 10
1.7329098425196849
 20
2.0312053149606299
 30
0
 11
1.7331496062992127
 21
2.0299999999999998
 31
0
  0
LINE
  5
210
330
1A
100
AcDbEntity
  8
BLACK
  6
CONTINUOUS
100
AcDbLine
 10
1.7331496062992127
 20
2.0299999999999998
 30
0
 11
1.7331496062992127
 21
1.97
 31
0
  0
LINE
  5
211
330
1A
100
AcDbEntity
  8
BLACK
  6
CONTINUOUS
100
AcDbLine
 10
1.7331496062992127
 20
1.97
 30
0
 11
1.7329098425196849
 21
1.9687946850393701
 31
0
  0
LINE
  5
212
330
1A
100
AcDbEntity
  8
BLACK
  6
CONTINUOUS
100
AcDbLine
 10
1.7329098425196849
 20
1.9687946850393701
 30
0
 11
1.7322271259842519
 21
1.9677728740157481
 31
0
  0
LINE
  5
213
330
1A
100
AcDbEntity
  8
BLACK
  6
CONTINUOUS
100
AcDbLine
 10
1.7322271259842519
 20
1.9677728740157481
 30
0
 11
1.7312053149606299
 21
1.967090157480315
 31
0
  0
LINE
  5
214
330
1A
100
AcDbEntity
  8
BLACK
  6
CONTINUOUS
100
AcDbLine
 10
1.7312053149606299
 20
1.967090157480315
 30
0
 11
1.73
 21
1.9668503937007873
 31
0
  0
LINE
  5
215
330
1A
100
AcDbEntity
  8
BLACK
  6
CONTINUOUS
100
AcDbLine
 10
1.73
 20
1.9668503937007873
 30
0
 11
1.6699999999999999
 21
1.9668503937007873
 31
0
  0
LINE
  5
216
330
1A
100
AcDbEntity
  8
BLACK
  6
CONTINUOUS
100
AcDbLine
 10
1.6699999999999999
 20
1.9668503937007873
 30
0
 11
1.66879468503937
 21
1.967090157480315
 31
0
  0
LINE
  5
217
330
1A
100
AcDbEntity
  8
BLACK
  6
CONTINUOUS
100
AcDbLine
 10
1.66879468503937
 20
1.967090157480315
 30
0
 11
1.667772874015748
 21
1.9677728740157481
 31
0
  0
LINE
  5
218
330
1A
100
AcDbEntity
  8
BLACK
  6
CONTINUOUS
100
AcDbLine
 10
1.667772874015748
 20
1.9677728740157481
 30
0
 11
1.667090157480315
 21
1.9687946850393701
 31
0
  0
LINE
  5
219
330
1A
100
AcDbEntity
  8
BLACK
  6
CONTINUOUS
100
AcDbLine
 10
1.667090157480315
 20
1.9687946850393701
 30
0
 11
1.6668503937007875
 21
1.97
 31
0
  0
LINE
  5
21A
330
1A
100
AcDbEntity
  8
BLACK
  6
CONTINUOUS
100
AcDbLine
 10
1.6668503937007875
 20
1.97
 30
0
 11
1.6668503937007875
 21
2.0299999999999998
 31
0
  0
LINE
  5
21B
330
1A
100
AcDbEntity
  8
BLACK
  6
CONTINUOUS
100
AcDbLine
 10
1.6668503937007875
 20
2.0299999999999998
 30
0
 11
1.667090157480315
 21
2.0312053149606299
 31
0
  0
LINE
  5
21C
330
1A
100
AcDbEntity
  8
BLACK
  6
CONTINUOUS
100
AcDbLine
 10
1.667090157480315
 20
2.0312053149606299
 30
0
 11
1.667772874015748
 21
2.0322271259842517
 31
0
  0
LINE
  5
21D
330
1A
100
AcDbEntity
  8
BLACK
  6
CONTINUOUS
100
AcDbLine
 10
1.667772874015748
 20
2.0322271259842517
 30
0
 11
1.66879468503937
 21
2.0329098425196852
 31
0
  0
LINE
  5
21E
330
1A
100
AcDbEntity
  8
BLACK
  6
CONTINUOUS
100
AcDbLine
 10
1.66879468503937
 20
2.0329098425196852
 30
0
 11
1.6699999999999999
 21
2.0331496062992125
 31
0
  0
LINE
  5
21F
330
1A
100
AcDbEntity
  8
BLACK
  6
CONTINUOUS
100
AcDbLine
 10
1.6699999999999999
 20
2.0331496062992125
 30
0
 11
1.73
 21
2.0331496062992125
 31
0
  0
LINE
  5
220
330
1A
100
AcDbEntity
  8
BLACK
  6
CONTINUOUS
100
AcDbLine
 10
1.73
 20
2.0331496062992125
 30
0
 11
1.7312053149606299
 21
2.0329098425196852
 31
0
  0
LINE
  5
221
330
1A
100
AcDbEntity
  8
BLACK
  6
CONTINUOUS
100
AcDbLine
 10
1.8312053149606298
 20
2.0329098425196852
 30
0
 11
1.832227125984252
 21
2.0322271259842517
 31
0
  0
LINE
  5
222
330
1A
100
AcDbEntity
  8
BLACK
  6
CONTINUOUS
100
AcDbLine
 10
1.832227125984252
 20
2.0322271259842517
 30
0
 11
1.832909842519685
 21
2.0312053149606299
 31
0
  0
LINE
  5
223
330
1A
100
AcDbEntity
  8
BLACK
  6
CONTINUOUS
100
AcDbLine
 10
1.832909842519685
 20
2.0312053149606299
 30
0
 11
1.8331496062992125
 21
2.0299999999999998
 31
0
  0
LINE
  5
224
330
1A
100
AcDbEntity
  8
BLACK
  6
CONTINUOUS
100
AcDbLine
 10
1.8331496062992125
 20
2.0299999999999998
 30
0
 11
1.8331496062992125
 21
1.97
 31
0
  0
LINE
  5
225
330
1A
100
AcDbEntity
  8
BLACK
  6
CONTINUOUS
100
AcDbLine
 10
1.8331496062992125
 20
1.97
 30
0
 11
1.832909842519685
 21
1.9687946850393701
 31
0
  0
LINE
  5
226
330
1A
100
AcDbEntity
  8
BLACK
  6
CONTINUOUS
100
AcDbLine
 10
1.832909842519685
 20
1.9687946850393701
 30
0
 11
1.832227125984252
 21
1.9677728740157481
 31
0
  0
LINE
  5
227
330
1A
100
AcDbEntity
  8
BLACK
  6
CONTINUOUS
100
AcDbLine
 10
1.832227125984252
 20
1.9677728740157481
 30
0
 11
1.8312053149606298
 21
1.967090157480315
 31
0
  0
LINE
  5
228
330
1A
100
AcDbEntity
  8
BLACK
  6
CONTINUOUS
100
AcDbLine
 10
1.8312053149606298
 20
1.967090157480315
 30
0
 11
1.8299999999999998
 21
1.9668503937007873
 31
0
  0
LINE
  5
229
330
1A
100
AcDbEntity
  8
BLACK
  6
CONTINUOUS
100
AcDbLine
 10
1.8299999999999998
 20
1.9668503937007873
 30
0
 11
1.77
 21
1.9668503937007873
 31
0
  0
LINE
  5
22A
330
1A
100
AcDbEntity
  8
BLACK
  6
CONTINUOUS
100
AcDbLine
 10
1.77
 20
1.9668503937007873
 30
0
 11
1.7687946850393701
 21
1.967090157480315
 31
0
  0
LINE
  5
22B
330
1A
100
AcDbEntity
  8
BLACK
  6
CONTINUOUS
100
AcDbLine
 10
1.7687946850393701
 20
1.967090157480315
 30
0
 11
1.7677728740157479
 21
1.9677728740157481
 31
0
  0
LINE
  5
22C
330
1A
100
AcDbEntity
  8
BLACK
  6
CONTINUOUS
100
AcDbLine
 10
1.7677728740157479
 20
1.9677728740157481
 30
0
 11
1.7670901574803148
 21
1.9687946850393701
 31
0
  0
LINE
  5
22D
330
1A
100
AcDbEntity
  8
BLACK
  6
CONTINUOUS
100
AcDbLine
 10
1.7670901574803148
 20
1.9687946850393701
 30
0
 11
1.7668503937007873
 21
1.97
 31
0
  0
LINE
  5
22E
330
1A
100
AcDbEntity
  8
BLACK
  6
CONTINUOUS
100
AcDbLine
 10
1.7668503937007873
 20
1.97
 30
0
 11
1.7668503937007873
 21
2.0299999999999998
 31
0
  0
LINE
  5
22F
330
1A
100
AcDbEntity
  8
BLACK
  6
CONTINUOUS
100
AcDbLine
 10
1.7668503937007873
 20
2.0299999999999998
 30
0
 11
1.7670901574803148
 21
2.0312053149606299
 31
0
  0
LINE
  5
230
330
1A
100
AcDbEntity
  8
BLACK
  6
CONTINUOUS
100
AcDbLine
 10
1.7670901574803148
 20
2.0312053149606299
 30
0
 11
1.7677728740157479
 21
2.0322271259842517
 31
0
  0
LINE
  5
231
330
1A
100
AcDbEntity
  8
BLACK
  6
CONTINUOUS
100
AcDbLine
 10
1.7677728740157479
 20
2.0322271259842517
 30
0
 11
1.7687946850393701
 21
2.0329098425196852
 31
0
  0
LINE
  5
232
330
1A
100
AcDbEntity
  8
BLACK
  6
CONTINUOUS
100
AcDbLine
 10
1.7687946850393701
 20
2.0329098425196852
 30
0
 11
1.77
 21
2.0331496062992125
 31
0
  0
LINE
  5
233
330
1A
100
AcDbEntity
  8
BLACK
  6
CONTINUOUS
100
AcDbLine
 10
1.77
 20
2.0331496062992125
 30
0
 11
1.8299999999999998
 21
2.0331496062992125
 31
0
  0
LINE
  5
234
330
1A
100
AcDbEntity
  8
BLACK
  6
CONTINUOUS
100
AcDbLine
 10
1.8299999999999998
 20
2.0331496062992125
 30
0
 11
1.8312053149606298
 21
2.0329098425196852
 31
0
  0
LINE
  5
235
330
1A
100
AcDbEntity
  8
BLACK
  6
CONTINUOUS
100
AcDbLine
 10
1.9312053149606299
 20
2.0329098425196852
 30
0
 11
1.9322271259842518
 21
2.0322271259842517
 31
0
  0
LINE
  5
236
330
1A
100
AcDbEntity
  8
BLACK
  6
CONTINUOUS
100
AcDbLine
 10
1.9322271259842518
 20
2.0322271259842517
 30
0
 11
1.9329098425196849
 21
2.0312053149606299
 31
0
  0
LINE
  5
237
330
1A
100
AcDbEntity
  8
BLACK
  6
CONTINUOUS
100
AcDbLine
 10
1.9329098425196849
 20
2.0312053149606299
 30
0
 11
1.9331496062992126
 21
2.0299999999999998
 31
0
  0
LINE
  5
238
330
1A
100
AcDbEntity
  8
BLACK
  6
CONTINUOUS
100
AcDbLine
 10
1.9331496062992126
 20
2.0299999999999998
 30
0
 11
1.9331496062992126
 21
1.97
 31
0
  0
LINE
  5
239
330
1A
100
AcDbEntity
  8
BLACK
  6
CONTINUOUS
100
AcDbLine
 10
1.9331496062992126
 20
1.97
 30
0
 11
1.9329098425196849
 21
1.9687946850393701
 31
0
  0
LINE
  5
23A
330
1A
100
AcDbEntity
  8
BLACK
  6
CONTINUOUS
100
AcDbLine
 10
1.9329098425196849
 20
1.9687946850393701
 30
0
 11
1.9322271259842518
 21
1.9677728740157481
 31
0
  0
LINE
  5
23B
330
1A
100
AcDbEntity
  8
BLACK
  6
CONTINUOUS
100
AcDbLine
 10
1.9322271259842518
 20
1.9677728740157481
 30
0
 11
1.9312053149606299
 21
1.967090157480315
 31
0
  0
LINE
  5
23C
330
1A
100
AcDbEntity
  8
BLACK
  6
CONTINUOUS
100
AcDbLine
 10
1.9312053149606299
 20
1.967090157480315
 30
0
 11
1.9299999999999999
 21
1.9668503937007873
 31
0
  0
LINE
  5
23D
330
1A
100
AcDbEntity
  8
BLACK
  6
CONTINUOUS
100
AcDbLine
 10
1.9299999999999999
 20
1.9668503937007873
 30
0
 11
1.8699999999999999
 21
1.9668503937007873
 31
0
  0
LINE
  5
23E
330
1A
100
AcDbEntity
  8
BLACK
  6
CONTINUOUS
100
AcDbLine
 10
1.8699999999999999
 20
1.9668503937007873
 30
0
 11
1.86879468503937
 21
1.967090157480315
 31
0
  0
LINE
  5
23F
330
1A
100
AcDbEntity
  8
BLACK
  6
CONTINUOUS
100
AcDbLine
 10
1.86879468503937
 20
1.967090157480315
 30
0
 11
1.867772874015748
 21
1.9677728740157481
 31
0
  0
LINE
  5
240
330
1A
100
AcDbEntity
  8
BLACK
  6
CONTINUOUS
100
AcDbLine
 10
1.867772874015748
 20
1.9677728740157481
 30
0
 11
1.8670901574803149
 21
1.9687946850393701
 31
0
  0
LINE
  5
241
330
1A
100
AcDbEntity
  8
BLACK
  6
CONTINUOUS
100
AcDbLine
 10
1.8670901574803149
 20
1.9687946850393701
 30
0
 11
1.8668503937007874
 21
1.97
 31
0
  0
LINE
  5
242
330
1A
100
AcDbEntity
  8
BLACK
  6
CONTINUOUS
100
AcDbLine
 10
1.8668503937007874
 20
1.97
 30
0
 11
1.8668503937007874
 21
2.0299999999999998
 31
0
  0
LINE
  5
243
330
1A
100
AcDbEntity
  8
BLACK
  6
CONTINUOUS
100
AcDbLine
 10
1.8668503937007874
 20
2.0299999999999998
 30
0
 11
1.8670901574803149
 21
2.0312053149606299
 31
0
  0
LINE
  5
244
330
1A
100
AcDbEntity
  8
BLACK
  6
CONTINUOUS
100
AcDbLine
 10
1.8670901574803149
 20
2.0312053149606299
 30
0
 11
1.867772874015748
 21
2.0322271259842517
 31
0
  0
LINE
  5
245
330
1A
100
AcDbEntity
  8
BLACK
  6
CONTINUOUS
100
AcDbLine
 10
1.867772874015748
 20
2.0322271259842517
 30
0
 11
1.86879468503937
 21
2.0329098425196852
 31
0
  0
LINE
  5
246
330
1A
100
AcDbEntity
  8
BLACK
  6
CONTINUOUS
100
AcDbLine
 10
1.86879468503937
 20
2.0329098425196852
 30
0
 11
1.8699999999999999
 21
2.0331496062992125
 31
0
  0
LINE
  5
247
330
1A
100
AcDbEntity
  8
BLACK
  6
CONTINUOUS
100
AcDbLine
 10
1.8699999999999999
 20
2.0331496062992125
 30
0
 11
1.9299999999999999
 21
2.0331496062992125
 31
0
  0
LINE
  5
248
330
1A
100
AcDbEntity
  8
BLACK
  6
CONTINUOUS
100
AcDbLine
 10
1.9299999999999999
 20
2.0331496062992125
 30
0
 11
1.9312053149606299
 21
2.0329098425196852
 31
0
  0
LINE
  5
249
330
1A
100
AcDbEntity
  8
BLACK
  6
CONTINUOUS
100
AcDbLine
 10
2.0312053149606299
 20
2.0329098425196852
 30
0
 11
2.0322271259842517
 21
2.0322271259842517
 31
0
  0
LINE
  5
24A
330
1A
100
AcDbEntity
  8
BLACK
  6
CONTINUOUS
100
AcDbLine
 10
2.0322271259842517
 20
2.0322271259842517
 30
0
 11
2.0329098425196852
 21
2.0312053149606299
 31
0
  0
LINE
  5
24B
330
1A
100
AcDbEntity
  8
BLACK
  6
CONTINUOUS
100
AcDbLine
 10
2.0329098425196852
 20
2.0312053149606299
 30
0
 11
2.0331496062992125
 21
2.0299999999999998
 31
0
  0
LINE
  5
24C
330
1A
100
AcDbEntity
  8
BLACK
  6
CONTINUOUS
100
AcDbLine
 10
2.0331496062992125
 20
2.0299999999999998
 30
0
 11
2.0331496062992125
 21
1.97
 31
0
  0
LINE
  5
24D
330
1A
100
AcDbEntity
  8
BLACK
  6
CONTINUOUS
100
AcDbLine
 10
2.0331496062992125
 20
1.97
 30
0
 11
2.0329098425196852
 21
1.9687946850393701
 31
0
  0
LINE
  5
24E
330
1A
100
AcDbEntity
  8
BLACK
  6
CONTINUOUS
100
AcDbLine
 10
2.0329098425196852
 20
1.9687946850393701
 30
0
 11
2.0322271259842517
 21
1.9677728740157481
 31
0
  0
LINE
  5
24F
330
1A
100
AcDbEntity
  8
BLACK
  6
CONTINUOUS
100
AcDbLine
 10
2.0322271259842517
 20
1.9677728740157481
 30
0
 11
2.0312053149606299
 21
1.967090157480315
 31
0
  0
LINE
  5
250
330
1A
100
AcDbEntity
  8
BLACK
  6
CONTINUOUS
100
AcDbLine
 10
2.0312053149606299
 20
1.967090157480315
 30
0
 11
2.0299999999999998
 21
1.9668503937007873
 31
0
  0
LINE
  5
251
330
1A
100
AcDbEntity
  8
BLACK
  6
CONTINUOUS
100
AcDbLine
 10
2.0299999999999998
 20
1.9668503937007873
 30
0
 11
1.97
 21
1.9668503937007873
 31
0
  0
LINE
  5
252
330
1A
100
AcDbEntity
  8
BLACK
  6
CONTINUOUS
100
AcDbLine
 10
1.97
 20
1.9668503937007873
 30
0
 11
1.9687946850393701
 21
1.967090157480315
 31
0
  0
LINE
  5
253
330
1A
100
AcDbEntity
  8
BLACK
  6
CONTINUOUS
100
AcDbLine
 10
1.9687946850393701
 20
1.967090157480315
 30
0
 11
1.9677728740157481
 21
1.9677728740157481
 31
0
  0
LINE
  5
254
330
1A
100
AcDbEntity
  8
BLACK
  6
CONTINUOUS
100
AcDbLine
 10
1.9677728740157481
 20
1.9677728740157481
 30
0
 11
1.967090157480315
 21
1.9687946850393701
 31
0
  0
LINE
  5
255
330
1A
100
AcDbEntity
  8
BLACK
  6
CONTINUOUS
100
AcDbLine
 10
1.967090157480315
 20
1.9687946850393701
 30
0
 11
1.9668503937007873
 21
1.97
 31
0
  0
LINE
  5
256
330
1A
100
AcDbEntity
  8
BLACK
  6
CONTINUOUS
100
AcDbLine
 10
1.9668503937007873
 20
1.97
 30
0
 11
1.9668503937007873
 21
2.0299999999999998
 31
0
  0
LINE
  5
257
330
1A
100
AcDbEntity
  8
BLACK
  6
CONTINUOUS
100
AcDbLine
 10
1.9668503937007873
 20
2.0299999999999998
 30
0
 11
1.967090157480315
 21
2.0312053149606299
 31
0
  0
LINE
  5
258
330
1A
100
AcDbEntity
  8
BLACK
  6
CONTINUOUS
100
AcDbLine
 10
1.967090157480315
 20
2.0312053149606299
 30
0
 11
1.9677728740157481
 21
2.0322271259842517
 31
0
  0
LINE
  5
259
330
1A
100
AcDbEntity
  8
BLACK
  6
CONTINUOUS
100
AcDbLine
 10
1.9677728740157481
 20
2.0322271259842517
 30
0
 11
1.9687946850393701
 21
2.0329098425196852
 31
0
  0
LINE
  5
25A
330
1A
100
AcDbEntity
  8
BLACK
  6
CONTINUOUS
100
AcDbLine
 10
1.9687946850393701
 20
2.0329098425196852
 30
0
 11
1.97
 21
2.0331496062992125
 31
0
  0
LINE
  5
25B
330
1A
100
AcDbEntity
  8
BLACK
  6
CONTINUOUS
100
AcDbLine
 10
1.97
 20
2.0331496062992125
 30
0
 11
2.0299999999999998
 21
2.0331496062992125
 31
0
  0
LINE
  5
25C
330
1A
100
AcDbEntity
  8
BLACK
  6
CONTINUOUS
100
AcDbLine
 10
2.0299999999999998
 20
2.0331496062992125
 30
0
 11
2.0312053149606299
 21
2.0329098425196852
 31
0
  0
LINE
  5
25D
330
1A
100
AcDbEntity
  8
BLACK
  6
CONTINUOUS
100
AcDbLine
 10
2.13120531496063
 20
2.0329098425196852
 30
0
 11
2.1322271259842518
 21
2.0322271259842517
 31
0
  0
LINE
  5
25E
330
1A
100
AcDbEntity
  8
BLACK
  6
CONTINUOUS
100
AcDbLine
 10
2.1322271259842518
 20
2.0322271259842517
 30
0
 11
2.1329098425196849
 21
2.0312053149606299
 31
0
  0
LINE
  5
25F
330
1A
100
AcDbEntity
  8
BLACK
  6
CONTINUOUS
100
AcDbLine
 10
2.1329098425196849
 20
2.0312053149606299
 30
0
 11
2.1331496062992126
 21
2.0299999999999998
 31
0
  0
LINE
  5
260
330
1A
100
AcDbEntity
  8
BLACK
  6
CONTINUOUS
100
AcDbLine
 10
2.1331496062992126
 20
2.0299999999999998
 30
0
 11
2.1331496062992126
 21
1.97
 31
0
  0
LINE
  5
261
330
1A
100
AcDbEntity
  8
BLACK
  6
CONTINUOUS
100
AcDbLine
 10
2.1331496062992126
 20
1.97
 30
0
 11
2.1329098425196849
 21
1.9687946850393701
 31
0
  0
LINE
  5
262
330
1A
100
AcDbEntity
  8
BLACK
  6
CONTINUOUS
100
AcDbLine
 10
2.1329098425196849
 20
1.9687946850393701
 30
0
 11
2.1322271259842518
 21
1.9677728740157481
 31
0
  0
LINE
  5
263
330
1A
100
AcDbEntity
  8
BLACK
  6
CONTINUOUS
100
AcDbLine
 10
2.1322271259842518
 20
1.9677728740157481
 30
0
 11
2.13120531496063
 21
1.967090157480315
 31
0
  0
LINE
  5
264
330
1A
100
AcDbEntity
  8
BLACK
  6
CONTINUOUS
100
AcDbLine
 10
2.13120531496063
 20
1.967090157480315
 30
0
 11
2.1299999999999999
 21
1.9668503937007873
 31
0
  0
LINE
  5
265
330
1A
100
AcDbEntity
  8
BLACK
  6
CONTINUOUS
100
AcDbLine
 10
2.1299999999999999
 20
1.9668503937007873
 30
0
 11
2.0699999999999998
 21
1.9668503937007873
 31
0
  0
LINE
  5
266
330
1A
100
AcDbEntity
  8
BLACK
  6
CONTINUOUS
100
AcDbLine
 10
2.0699999999999998
 20
1.9668503937007873
 30
0
 11
2.0687946850393701
 21
1.967090157480315
 31
0
  0
LINE
  5
267
330
1A
100
AcDbEntity
  8
BLACK
  6
CONTINUOUS
100
AcDbLine
 10
2.0687946850393701
 20
1.967090157480315
 30
0
 11
2.0677728740157479
 21
1.9677728740157481
 31
0
  0
LINE
  5
268
330
1A
100
AcDbEntity
  8
BLACK
  6
CONTINUOUS
100
AcDbLine
 10
2.0677728740157479
 20
1.9677728740157481
 30
0
 11
2.0670901574803149
 21
1.9687946850393701
 31
0
  0
LINE
  5
269
330
1A
100
AcDbEntity
  8
BLACK
  6
CONTINUOUS
100
AcDbLine
 10
2.0670901574803149
 20
1.9687946850393701
 30
0
 11
2.0668503937007872
 21
1.97
 31
0
  0
LINE
  5
26A
330
1A
100
AcDbEntity
  8
BLACK
  6
CONTINUOUS
100
AcDbLine
 10
2.0668503937007872
 20
1.97
 30
0
 11
2.0668503937007872
 21
2.0299999999999998
 31
0
  0
LINE
  5
26B
330
1A
100
AcDbEntity
  8
BLACK
  6
CONTINUOUS
100
AcDbLine
 10
2.0668503937007872
 20
2.0299999999999998
 30
0
 11
2.0670901574803149
 21
2.0312053149606299
 31
0
  0
LINE
  5
26C
330
1A
100
AcDbEntity
  8
BLACK
  6
CONTINUOUS
100
AcDbLine
 10
2.0670901574803149
 20
2.0312053149606299
 30
0
 11
2.0677728740157479
 21
2.0322271259842517
 31
0
  0
LINE
  5
26D
330
1A
100
AcDbEntity
  8
BLACK
  6
CONTINUOUS
100
AcDbLine
 10
2.0677728740157479
 20
2.0322271259842517
 30
0
 11
2.0687946850393701
 21
2.0329098425196852
 31
0
  0
LINE
  5
26E
330
1A
100
AcDbEntity
  8
BLACK
  6
CONTINUOUS
100
AcDbLine
 10
2.0687946850393701
 20
2.0329098425196852
 30
0
 11
2.0699999999999998
 21
2.0331496062992125
 31
0
  0
LINE
  5
26F
330
1A
100
AcDbEntity
  8
BLACK
  6
CONTINUOUS
100
AcDbLine
 10
2.0699999999999998
 20
2.0331496062992125
 30
0
 11
2.1299999999999999
 21
2.0331496062992125
 31
0
  0
LINE
  5
270
330
1A
100
AcDbEntity
  8
BLACK
  6
CONTINUOUS
100
AcDbLine
 10
2.1299999999999999
 20
2.0331496062992125
 30
0
 11
2.13120531496063
 21
2.0329098425196852
 31
0
  0
LINE
  5
271
330
1A
100
AcDbEntity
  8
BLACK
  6
CONTINUOUS
100
AcDbLine
 10
2.2312053149606297
 20
2.0329098425196852
 30
0
 11
2.2322271259842519
 21
2.0322271259842517
 31
0
  0
LINE
  5
272
330
1A
100
AcDbEntity
  8
BLACK
  6
CONTINUOUS
100
AcDbLine
 10
2.2322271259842519
 20
2.0322271259842517
 30
0
 11
2.2329098425196849
 21
2.0312053149606299
 31
0
  0
LINE
  5
273
330
1A
100
AcDbEntity
  8
BLACK
  6
CONTINUOUS
100
AcDbLine
 10
2.2329098425196849
 20
2.0312053149606299
 30
0
 11
2.2331496062992127
 21
2.0299999999999998
 31
0
  0
LINE
  5
274
330
1A
100
AcDbEntity
  8
BLACK
  6
CONTINUOUS
100
AcDbLine
 10
2.2331496062992127
 20
2.0299999999999998
 30
0
 11
2.2331496062992127
 21
1.97
 31
0
  0
LINE
  5
275
330
1A
100
AcDbEntity
  8
BLACK
  6
CONTINUOUS
100
AcDbLine
 10
2.2331496062992127
 20
1.97
 30
0
 11
2.2329098425196849
 21
1.9687946850393701
 31
0
  0
LINE
  5
276
330
1A
100
AcDbEntity
  8
BLACK
  6
CONTINUOUS
100
AcDbLine
 10
2.2329098425196849
 20
1.9687946850393701
 30
0
 11
2.2322271259842519
 21
1.9677728740157481
 31
0
  0
LINE
  5
277
330
1A
100
AcDbEntity
  8
BLACK
  6
CONTINUOUS
100
AcDbLine
 10
2.2322271259842519
 20
1.9677728740157481
 30
0
 11
2.2312053149606297
 21
1.967090157480315
 31
0
  0
LINE
  5
278
330
1A
100
AcDbEntity
  8
BLACK
  6
CONTINUOUS
100
AcDbLine
 10
2.2312053149606297
 20
1.967090157480315
 30
0
 11
2.23
 21
1.9668503937007873
 31
0
  0
LINE
  5
279
330
1A
100
AcDbEntity
  8
BLACK
  6
CONTINUOUS
100
AcDbLine
 10
2.23
 20
1.9668503937007873
 30
0
 11
2.1699999999999999
 21
1.9668503937007873
 31
0
  0
LINE
  5
27A
330
1A
100
AcDbEntity
  8
BLACK
  6
CONTINUOUS
100
AcDbLine
 10
2.1699999999999999
 20
1.9668503937007873
 30
0
 11
2.1687946850393702
 21
1.967090157480315
 31
0
  0
LINE
  5
27B
330
1A
100
AcDbEntity
  8
BLACK
  6
CONTINUOUS
100
AcDbLine
 10
2.1687946850393702
 20
1.967090157480315
 30
0
 11
2.167772874015748
 21
1.9677728740157481
 31
0
  0
LINE
  5
27C
330
1A
100
AcDbEntity
  8
BLACK
  6
CONTINUOUS
100
AcDbLine
 10
2.167772874015748
 20
1.9677728740157481
 30
0
 11
2.167090157480315
 21
1.9687946850393701
 31
0
  0
LINE
  5
27D
330
1A
100
AcDbEntity
  8
BLACK
  6
CONTINUOUS
100
AcDbLine
 10
2.167090157480315
 20
1.9687946850393701
 30
0
 11
2.1668503937007872
 21
1.97
 31
0
  0
LINE
  5
27E
330
1A
100
AcDbEntity
  8
BLACK
  6
CONTINUOUS
100
AcDbLine
 10
2.1668503937007872
 20
1.97
 30
0
 11
2.1668503937007872
 21
2.0299999999999998
 31
0
  0
LINE
  5
27F
330
1A
100
AcDbEntity
  8
BLACK
  6
CONTINUOUS
100
AcDbLine
 10
2.1668503937007872
 20
2.0299999999999998
 30
0
 11
2.167090157480315
 21
2.0312053149606299
 31
0
  0
LINE
  5
280
330
1A
100
AcDbEntity
  8
BLACK
  6
CONTINUOUS
100
AcDbLine
 10
2.167090157480315
 20
2.0312053149606299
 30
0
 11
2.167772874015748
 21
2.0322271259842517
 31
0
  0
LINE
  5
281
330
1A
100
AcDbEntity
  8
BLACK
  6
CONTINUOUS
100
AcDbLine
 10
2.167772874015748
 20
2.0322271259842517
 30
0
 11
2.1687946850393702
 21
2.0329098425196852
 31
0
  0
LINE
  5
282
330
1A
100
AcDbEntity
  8
BLACK
  6
CONTINUOUS
100
AcDbLine
 10
2.1687946850393702
 20
2.0329098425196852
 30
0
 11
2.1699999999999999
 21
2.0331496062992125
 31
0
  0
LINE
  5
283
330
1A
100
AcDbEntity
  8
BLACK
  6
CONTINUOUS
100
AcDbLine
 10
2.1699999999999999
 20
2.0331496062992125
 30
0
 11
2.23
 21
2.0331496062992125
 31
0
  0
LINE
  5
284
330
1A
100
AcDbEntity
  8
BLACK
  6
CONTINUOUS
100
AcDbLine
 10
2.23
 20
2.0331496062992125
 30
0
 11
2.2312053149606297
 21
2.0329098425196852
 31
0
  0
LINE
  5
285
330
1A
100
AcDbEntity
  8
BLACK
  6
CONTINUOUS
100
AcDbLine
 10
2.3312053149606298
 20
2.0329098425196852
 30
0
 11
2.332227125984252
 21
2.0322271259842517
 31
0
  0
LINE
  5
286
330
1A
100
AcDbEntity
  8
BLACK
  6
CONTINUOUS
100
AcDbLine
 10
2.332227125984252
 20
2.0322271259842517
 30
0
 11
2.332909842519685
 21
2.0312053149606299
 31
0
  0
LINE
  5
287
330
1A
100
AcDbEntity
  8
BLACK
  6
CONTINUOUS
100
AcDbLine
 10
2.332909842519685
 20
2.0312053149606299
 30
0
 11
2.3331496062992128
 21
2.0299999999999998
 31
0
  0
LINE
  5
288
330
1A
100
AcDbEntity
  8
BLACK
  6
CONTINUOUS
100
AcDbLine
 10
2.3331496062992128
 20
2.0299999999999998
 30
0
 11
2.3331496062992128
 21
1.97
 31
0
  0
LINE
  5
289
330
1A
100
AcDbEntity
  8
BLACK
  6
CONTINUOUS
100
AcDbLine
 10
2.3331496062992128
 20
1.97
 30
0
 11
2.332909842519685
 21
1.9687946850393701
 31
0
  0
LINE
  5
28A
330
1A
100
AcDbEntity
  8
BLACK
  6
CONTINUOUS
100
AcDbLine
 10
2.332909842519685
 20
1.9687946850393701
 30
0
 11
2.332227125984252
 21
1.9677728740157481
 31
0
  0
LINE
  5
28B
330
1A
100
AcDbEntity
  8
BLACK
  6
CONTINUOUS
100
AcDbLine
 10
2.332227125984252
 20
1.9677728740157481
 30
0
 11
2.3312053149606298
 21
1.967090157480315
 31
0
  0
LINE
  5
28C
330
1A
100
AcDbEntity
  8
BLACK
  6
CONTINUOUS
100
AcDbLine
 10
2.3312053149606298
 20
1.967090157480315
 30
0
 11
2.3300000000000001
 21
1.9668503937007873
 31
0
  0
LINE
  5
28D
330
1A
100
AcDbEntity
  8
BLACK
  6
CONTINUOUS
100
AcDbLine
 10
2.3300000000000001
 20
1.9668503937007873
 30
0
 11
2.27
 21
1.9668503937007873
 31
0
  0
LINE
  5
28E
330
1A
100
AcDbEntity
  8
BLACK
  6
CONTINUOUS
100
AcDbLine
 10
2.27
 20
1.9668503937007873
 30
0
 11
2.2687946850393699
 21
1.967090157480315
 31
0
  0
LINE
  5
28F
330
1A
100
AcDbEntity
  8
BLACK
  6
CONTINUOUS
100
AcDbLine
 10
2.2687946850393699
 20
1.967090157480315
 30
0
 11
2.2677728740157481
 21
1.9677728740157481
 31
0
  0
LINE
  5
290
330
1A
100
AcDbEntity
  8
BLACK
  6
CONTINUOUS
100
AcDbLine
 10
2.2677728740157481
 20
1.9677728740157481
 30
0
 11
2.2670901574803151
 21
1.9687946850393701
 31
0
  0
LINE
  5
291
330
1A
100
AcDbEntity
  8
BLACK
  6
CONTINUOUS
100
AcDbLine
 10
2.2670901574803151
 20
1.9687946850393701
 30
0
 11
2.2668503937007873
 21
1.97
 31
0
  0
LINE
  5
292
330
1A
100
AcDbEntity
  8
BLACK
  6
CONTINUOUS
100
AcDbLine
 10
2.2668503937007873
 20
1.97
 30
0
 11
2.2668503937007873
 21
2.0299999999999998
 31
0
  0
LINE
  5
293
330
1A
100
AcDbEntity
  8
BLACK
  6
CONTINUOUS
100
AcDbLine
 10
2.2668503937007873
 20
2.0299999999999998
 30
0
 11
2.2670901574803151
 21
2.0312053149606299
 31
0
  0
LINE
  5
294
330
1A
100
AcDbEntity
  8
BLACK
  6
CONTINUOUS
100
AcDbLine
 10
2.2670901574803151
 20
2.0312053149606299
 30
0
 11
2.2677728740157481
 21
2.0322271259842517
 31
0
  0
LINE
  5
295
330
1A
100
AcDbEntity
  8
BLACK
  6
CONTINUOUS
100
AcDbLine
 10
2.2677728740157481
 20
2.0322271259842517
 30
0
 11
2.2687946850393699
 21
2.0329098425196852
 31
0
  0
LINE
  5
296
330
1A
100
AcDbEntity
  8
BLACK
  6
CONTINUOUS
100
AcDbLine
 10
2.2687946850393699
 20
2.0329098425196852
 30
0
 11
2.27
 21
2.0331496062992125
 31
0
  0
LINE
  5
297
330
1A
100
AcDbEntity
  8
BLACK
  6
CONTINUOUS
100
AcDbLine
 10
2.27
 20
2.0331496062992125
 30
0
 11
2.3300000000000001
 21
2.0331496062992125
 31
0
  0
LINE
  5
298
330
1A
100
AcDbEntity
  8
BLACK
  6
CONTINUOUS
100
AcDbLine
 10
2.3300000000000001
 20
2.0331496062992125
 30
0
 11
2.3312053149606298
 21
2.0329098425196852
 31
0
  0
LINE
  5
299
330
1A
100
AcDbEntity
  8
BLACK
  6
CONTINUOUS
100
AcDbLine
 10
0.9312053149606299
 20
2.1329098425196849
 30
0
 11
0.9322271259842519
 21
2.1322271259842518
 31
0
  0
LINE
  5
29A
330
1A
100
AcDbEntity
  8
BLACK
  6
CONTINUOUS
100
AcDbLine
 10
0.9322271259842519
 20
2.1322271259842518
 30
0
 11
0.932909842519685
 21
2.13120531496063
 31
0
  0
LINE
  5
29B
330
1A
100
AcDbEntity
  8
BLACK
  6
CONTINUOUS
100
AcDbLine
 10
0.932909842519685
 20
2.13120531496063
 30
0
 11
0.9331496062992126
 21
2.1299999999999999
 31
0
  0
LINE
  5
29C
330
1A
100
AcDbEntity
  8
BLACK
  6
CONTINUOUS
100
AcDbLine
 10
0.9331496062992126
 20
2.1299999999999999
 30
0
 11
0.9331496062992126
 21
2.0699999999999998
 31
0
  0
LINE
  5
29D
330
1A
100
AcDbEntity
  8
BLACK
  6
CONTINUOUS
100
AcDbLine
 10
0.9331496062992126
 20
2.0699999999999998
 30
0
 11
0.932909842519685
 21
2.0687946850393701
 31
0
  0
LINE
  5
29E
330
1A
100
AcDbEntity
  8
BLACK
  6
CONTINUOUS
100
AcDbLine
 10
0.932909842519685
 20
2.0687946850393701
 30
0
 11
0.9322271259842519
 21
2.0677728740157479
 31
0
  0
LINE
  5
29F
330
1A
100
AcDbEntity
  8
BLACK
  6
CONTINUOUS
100
AcDbLine
 10
0.9322271259842519
 20
2.0677728740157479
 30
0
 11
0.9312053149606299
 21
2.0670901574803149
 31
0
  0
LINE
  5
2A0
330
1A
100
AcDbEntity
  8
BLACK
  6
CONTINUOUS
100
AcDbLine
 10
0.9312053149606299
 20
2.0670901574803149
 30
0
 11
0.9299999999999999
 21
2.0668503937007872
 31
0
  0
LINE
  5
2A1
330
1A
100
AcDbEntity
  8
BLACK
  6
CONTINUOUS
100
AcDbLine
 10
0.9299999999999999
 20
2.0668503937007872
 30
0
 11
0.87
 21
2.0668503937007872
 31
0
  0
LINE
  5
2A2
330
1A
100
AcDbEntity
  8
BLACK
  6
CONTINUOUS
100
AcDbLine
 10
0.87
 20
2.0668503937007872
 30
0
 11
0.8687946850393701
 21
2.0670901574803149
 31
0
  0
LINE
  5
2A3
330
1A
100
AcDbEntity
  8
BLACK
  6
CONTINUOUS
100
AcDbLine
 10
0.8687946850393701
 20
2.0670901574803149
 30
0
 11
0.867772874015748
 21
2.0677728740157479
 31
0
  0
LINE
  5
2A4
330
1A
100
AcDbEntity
  8
BLACK
  6
CONTINUOUS
100
AcDbLine
 10
0.867772874015748
 20
2.0677728740157479
 30
0
 11
0.8670901574803149
 21
2.0687946850393701
 31
0
  0
LINE
  5
2A5
330
1A
100
AcDbEntity
  8
BLACK
  6
CONTINUOUS
100
AcDbLine
 10
0.8670901574803149
 20
2.0687946850393701
 30
0
 11
0.8668503937007874
 21
2.0699999999999998
 31
0
  0
LINE
  5
2A6
330
1A
100
AcDbEntity
  8
BLACK
  6
CONTINUOUS
100
AcDbLine
 10
0.8668503937007874
 20
2.0699999999999998
 30
0
 11
0.8668503937007874
 21
2.1299999999999999
 31
0
  0
LINE
  5
2A7
330
1A
100
AcDbEntity
  8
BLACK
  6
CONTINUOUS
100
AcDbLine
 10
0.8668503937007874
 20
2.1299999999999999
 30
0
 11
0.8670901574803149
 21
2.13120531496063
 31
0
  0
LINE
  5
2A8
330
1A
100
AcDbEntity
  8
BLACK
  6
CONTINUOUS
100
AcDbLine
 10
0.8670901574803149
 20
2.13120531496063
 30
0
 11
0.867772874015748
 21
2.1322271259842518
 31
0
  0
LINE
  5
2A9
330
1A
100
AcDbEntity
  8
BLACK
  6
CONTINUOUS
100
AcDbLine
 10
0.867772874015748
 20
2.1322271259842518
 30
0
 11
0.8687946850393701
 21
2.1329098425196849
 31
0
  0
LINE
  5
2AA
330
1A
100
AcDbEntity
  8
BLACK
  6
CONTINUOUS
100
AcDbLine
 10
0.8687946850393701
 20
2.1329098425196849
 30
0
 11
0.87
 21
2.1331496062992126
 31
0
  0
LINE
  5
2AB
330
1A
100
AcDbEntity
  8
BLACK
  6
CONTINUOUS
100
AcDbLine
 10
0.87
 20
2.1331496062992126
 30
0
 11
0.9299999999999999
 21
2.1331496062992126
 31
0
  0
LINE
  5
2AC
330
1A
100
AcDbEntity
  8
BLACK
  6
CONTINUOUS
100
AcDbLine
 10
0.9299999999999999
 20
2.1331496062992126
 30
0
 11
0.9312053149606299
 21
2.1329098425196849
 31
0
  0
LINE
  5
2AD
330
1A
100
AcDbEntity
  8
BLACK
  6
CONTINUOUS
100
AcDbLine
 10
1.0312053149606299
 20
2.1329098425196849
 30
0
 11
1.0322271259842519
 21
2.1322271259842518
 31
0
  0
LINE
  5
2AE
330
1A
100
AcDbEntity
  8
BLACK
  6
CONTINUOUS
100
AcDbLine
 10
1.0322271259842519
 20
2.1322271259842518
 30
0
 11
1.032909842519685
 21
2.13120531496063
 31
0
  0
LINE
  5
2AF
330
1A
100
AcDbEntity
  8
BLACK
  6
CONTINUOUS
100
AcDbLine
 10
1.032909842519685
 20
2.13120531496063
 30
0
 11
1.0331496062992125
 21
2.1299999999999999
 31
0
  0
LINE
  5
2B0
330
1A
100
AcDbEntity
  8
BLACK
  6
CONTINUOUS
100
AcDbLine
 10
1.0331496062992125
 20
2.1299999999999999
 30
0
 11
1.0331496062992125
 21
2.0699999999999998
 31
0
  0
LINE
  5
2B1
330
1A
100
AcDbEntity
  8
BLACK
  6
CONTINUOUS
100
AcDbLine
 10
1.0331496062992125
 20
2.0699999999999998
 30
0
 11
1.032909842519685
 21
2.0687946850393701
 31
0
  0
LINE
  5
2B2
330
1A
100
AcDbEntity
  8
BLACK
  6
CONTINUOUS
100
AcDbLine
 10
1.032909842519685
 20
2.0687946850393701
 30
0
 11
1.0322271259842519
 21
2.0677728740157479
 31
0
  0
LINE
  5
2B3
330
1A
100
AcDbEntity
  8
BLACK
  6
CONTINUOUS
100
AcDbLine
 10
1.0322271259842519
 20
2.0677728740157479
 30
0
 11
1.0312053149606299
 21
2.0670901574803149
 31
0
  0
LINE
  5
2B4
330
1A
100
AcDbEntity
  8
BLACK
  6
CONTINUOUS
100
AcDbLine
 10
1.0312053149606299
 20
2.0670901574803149
 30
0
 11
1.03
 21
2.0668503937007872
 31
0
  0
LINE
  5
2B5
330
1A
100
AcDbEntity
  8
BLACK
  6
CONTINUOUS
100
AcDbLine
 10
1.03
 20
2.0668503937007872
 30
0
 11
0.97
 21
2.0668503937007872
 31
0
  0
LINE
  5
2B6
330
1A
100
AcDbEntity
  8
BLACK
  6
CONTINUOUS
100
AcDbLine
 10
0.97
 20
2.0668503937007872
 30
0
 11
0.9687946850393701
 21
2.0670901574803149
 31
0
  0
LINE
  5
2B7
330
1A
100
AcDbEntity
  8
BLACK
  6
CONTINUOUS
100
AcDbLine
 10
0.9687946850393701
 20
2.0670901574803149
 30
0
 11
0.967772874015748
 21
2.0677728740157479
 31
0
  0
LINE
  5
2B8
330
1A
100
AcDbEntity
  8
BLACK
  6
CONTINUOUS
100
AcDbLine
 10
0.967772874015748
 20
2.0677728740157479
 30
0
 11
0.9670901574803149
 21
2.0687946850393701
 31
0
  0
LINE
  5
2B9
330
1A
100
AcDbEntity
  8
BLACK
  6
CONTINUOUS
100
AcDbLine
 10
0.9670901574803149
 20
2.0687946850393701
 30
0
 11
0.9668503937007874
 21
2.0699999999999998
 31
0
  0
LINE
  5
2BA
330
1A
100
AcDbEntity
  8
BLACK
  6
CONTINUOUS
100
AcDbLine
 10
0.9668503937007874
 20
2.0699999999999998
 30
0
 11
0.9668503937007874
 21
2.1299999999999999
 31
0
  0
LINE
  5
2BB
330
1A
100
AcDbEntity
  8
BLACK
  6
CONTINUOUS
100
AcDbLine
 10
0.9668503937007874
 20
2.1299999999999999
 30
0
 11
0.9670901574803149
 21
2.13120531496063
 31
0
  0
LINE
  5
2BC
330
1A
100
AcDbEntity
  8
BLACK
  6
CONTINUOUS
100
AcDbLine
 10
0.9670901574803149
 20
2.13120531496063
 30
0
 11
0.967772874015748
 21
2.1322271259842518
 31
0
  0
LINE
  5
2BD
330
1A
100
AcDbEntity
  8
BLACK
  6
CONTINUOUS
100
AcDbLine
 10
0.967772874015748
 20
2.1322271259842518
 30
0
 11
0.9687946850393701
 21
2.1329098425196849
 31
0
  0
LINE
  5
2BE
330
1A
100
AcDbEntity
  8
BLACK
  6
CONTINUOUS
100
AcDbLine
 10
0.9687946850393701
 20
2.1329098425196849
 30
0
 11
0.97
 21
2.1331496062992126
 31
0
  0
LINE
  5
2BF
330
1A
100
AcDbEntity
  8
BLACK
  6
CONTINUOUS
100
AcDbLine
 10
0.97
 20
2.1331496062992126
 30
0
 11
1.03
 21
2.1331496062992126
 31
0
  0
LINE
  5
2C0
330
1A
100
AcDbEntity
  8
BLACK
  6
CONTINUOUS
100
AcDbLine
 10
1.03
 20
2.1331496062992126
 30
0
 11
1.0312053149606299
 21
2.1329098425196849
 31
0
  0
LINE
  5
2C1
330
1A
100
AcDbEntity
  8
BLACK
  6
CONTINUOUS
100
AcDbLine
 10
1.1312053149606298
 20
2.1329098425196849
 30
0
 11
1.132227125984252
 21
2.1322271259842518
 31
0
  0
LINE
  5
2C2
330
1A
100
AcDbEntity
  8
BLACK
  6
CONTINUOUS
100
AcDbLine
 10
1.132227125984252
 20
2.1322271259842518
 30
0
 11
1.1329098425196851
 21
2.13120531496063
 31
0
  0
LINE
  5
2C3
330
1A
100
AcDbEntity
  8
BLACK
  6
CONTINUOUS
100
AcDbLine
 10
1.1329098425196851
 20
2.13120531496063
 30
0
 11
1.1331496062992126
 21
2.1299999999999999
 31
0
  0
LINE
  5
2C4
330
1A
100
AcDbEntity
  8
BLACK
  6
CONTINUOUS
100
AcDbLine
 10
1.1331496062992126
 20
2.1299999999999999
 30
0
 11
1.1331496062992126
 21
2.0699999999999998
 31
0
  0
LINE
  5
2C5
330
1A
100
AcDbEntity
  8
BLACK
  6
CONTINUOUS
100
AcDbLine
 10
1.1331496062992126
 20
2.0699999999999998
 30
0
 11
1.1329098425196851
 21
2.0687946850393701
 31
0
  0
LINE
  5
2C6
330
1A
100
AcDbEntity
  8
BLACK
  6
CONTINUOUS
100
AcDbLine
 10
1.1329098425196851
 20
2.0687946850393701
 30
0
 11
1.132227125984252
 21
2.0677728740157479
 31
0
  0
LINE
  5
2C7
330
1A
100
AcDbEntity
  8
BLACK
  6
CONTINUOUS
100
AcDbLine
 10
1.132227125984252
 20
2.0677728740157479
 30
0
 11
1.1312053149606298
 21
2.0670901574803149
 31
0
  0
LINE
  5
2C8
330
1A
100
AcDbEntity
  8
BLACK
  6
CONTINUOUS
100
AcDbLine
 10
1.1312053149606298
 20
2.0670901574803149
 30
0
 11
1.1299999999999999
 21
2.0668503937007872
 31
0
  0
LINE
  5
2C9
330
1A
100
AcDbEntity
  8
BLACK
  6
CONTINUOUS
100
AcDbLine
 10
1.1299999999999999
 20
2.0668503937007872
 30
0
 11
1.0700000000000001
 21
2.0668503937007872
 31
0
  0
LINE
  5
2CA
330
1A
100
AcDbEntity
  8
BLACK
  6
CONTINUOUS
100
AcDbLine
 10
1.0700000000000001
 20
2.0668503937007872
 30
0
 11
1.0687946850393701
 21
2.0670901574803149
 31
0
  0
LINE
  5
2CB
330
1A
100
AcDbEntity
  8
BLACK
  6
CONTINUOUS
100
AcDbLine
 10
1.0687946850393701
 20
2.0670901574803149
 30
0
 11
1.0677728740157479
 21
2.0677728740157479
 31
0
  0
LINE
  5
2CC
330
1A
100
AcDbEntity
  8
BLACK
  6
CONTINUOUS
100
AcDbLine
 10
1.0677728740157479
 20
2.0677728740157479
 30
0
 11
1.0670901574803149
 21
2.0687946850393701
 31
0
  0
LINE
  5
2CD
330
1A
100
AcDbEntity
  8
BLACK
  6
CONTINUOUS
100
AcDbLine
 10
1.0670901574803149
 20
2.0687946850393701
 30
0
 11
1.0668503937007874
 21
2.0699999999999998
 31
0
  0
LINE
  5
2CE
330
1A
100
AcDbEntity
  8
BLACK
  6
CONTINUOUS
100
AcDbLine
 10
1.0668503937007874
 20
2.0699999999999998
 30
0
 11
1.0668503937007874
 21
2.1299999999999999
 31
0
  0
LINE
  5
2CF
330
1A
100
AcDbEntity
  8
BLACK
  6
CONTINUOUS
100
AcDbLine
 10
1.0668503937007874
 20
2.1299999999999999
 30
0
 11
1.0670901574803149
 21
2.13120531496063
 31
0
  0
LINE
  5
2D0
330
1A
100
AcDbEntity
  8
BLACK
  6
CONTINUOUS
100
AcDbLine
 10
1.0670901574803149
 20
2.13120531496063
 30
0
 11
1.0677728740157479
 21
2.1322271259842518
 31
0
  0
LINE
  5
2D1
330
1A
100
AcDbEntity
  8
BLACK
  6
CONTINUOUS
100
AcDbLine
 10
1.0677728740157479
 20
2.1322271259842518
 30
0
 11
1.0687946850393701
 21
2.1329098425196849
 31
0
  0
LINE
  5
2D2
330
1A
100
AcDbEntity
  8
BLACK
  6
CONTINUOUS
100
AcDbLine
 10
1.0687946850393701
 20
2.1329098425196849
 30
0
 11
1.0700000000000001
 21
2.1331496062992126
 31
0
  0
LINE
  5
2D3
330
1A
100
AcDbEntity
  8
BLACK
  6
CONTINUOUS
100
AcDbLine
 10
1.0700000000000001
 20
2.1331496062992126
 30
0
 11
1.1299999999999999
 21
2.1331496062992126
 31
0
  0
LINE
  5
2D4
330
1A
100
AcDbEntity
  8
BLACK
  6
CONTINUOUS
100
AcDbLine
 10
1.1299999999999999
 20
2.1331496062992126
 30
0
 11
1.1312053149606298
 21
2.1329098425196849
 31
0
  0
LINE
  5
2D5
330
1A
100
AcDbEntity
  8
BLACK
  6
CONTINUOUS
100
AcDbLine
 10
1.2312053149606299
 20
2.1329098425196849
 30
0
 11
1.2322271259842519
 21
2.1322271259842518
 31
0
  0
LINE
  5
2D6
330
1A
100
AcDbEntity
  8
BLACK
  6
CONTINUOUS
100
AcDbLine
 10
1.2322271259842519
 20
2.1322271259842518
 30
0
 11
1.2329098425196849
 21
2.13120531496063
 31
0
  0
LINE
  5
2D7
330
1A
100
AcDbEntity
  8
BLACK
  6
CONTINUOUS
100
AcDbLine
 10
1.2329098425196849
 20
2.13120531496063
 30
0
 11
1.2331496062992127
 21
2.1299999999999999
 31
0
  0
LINE
  5
2D8
330
1A
100
AcDbEntity
  8
BLACK
  6
CONTINUOUS
100
AcDbLine
 10
1.2331496062992127
 20
2.1299999999999999
 30
0
 11
1.2331496062992127
 21
2.0699999999999998
 31
0
  0
LINE
  5
2D9
330
1A
100
AcDbEntity
  8
BLACK
  6
CONTINUOUS
100
AcDbLine
 10
1.2331496062992127
 20
2.0699999999999998
 30
0
 11
1.2329098425196849
 21
2.0687946850393701
 31
0
  0
LINE
  5
2DA
330
1A
100
AcDbEntity
  8
BLACK
  6
CONTINUOUS
100
AcDbLine
 10
1.2329098425196849
 20
2.0687946850393701
 30
0
 11
1.2322271259842519
 21
2.0677728740157479
 31
0
  0
LINE
  5
2DB
330
1A
100
AcDbEntity
  8
BLACK
  6
CONTINUOUS
100
AcDbLine
 10
1.2322271259842519
 20
2.0677728740157479
 30
0
 11
1.2312053149606299
 21
2.0670901574803149
 31
0
  0
LINE
  5
2DC
330
1A
100
AcDbEntity
  8
BLACK
  6
CONTINUOUS
100
AcDbLine
 10
1.2312053149606299
 20
2.0670901574803149
 30
0
 11
1.23
 21
2.0668503937007872
 31
0
  0
LINE
  5
2DD
330
1A
100
AcDbEntity
  8
BLACK
  6
CONTINUOUS
100
AcDbLine
 10
1.23
 20
2.0668503937007872
 30
0
 11
1.1699999999999999
 21
2.0668503937007872
 31
0
  0
LINE
  5
2DE
330
1A
100
AcDbEntity
  8
BLACK
  6
CONTINUOUS
100
AcDbLine
 10
1.1699999999999999
 20
2.0668503937007872
 30
0
 11
1.16879468503937
 21
2.0670901574803149
 31
0
  0
LINE
  5
2DF
330
1A
100
AcDbEntity
  8
BLACK
  6
CONTINUOUS
100
AcDbLine
 10
1.16879468503937
 20
2.0670901574803149
 30
0
 11
1.167772874015748
 21
2.0677728740157479
 31
0
  0
LINE
  5
2E0
330
1A
100
AcDbEntity
  8
BLACK
  6
CONTINUOUS
100
AcDbLine
 10
1.167772874015748
 20
2.0677728740157479
 30
0
 11
1.167090157480315
 21
2.0687946850393701
 31
0
  0
LINE
  5
2E1
330
1A
100
AcDbEntity
  8
BLACK
  6
CONTINUOUS
100
AcDbLine
 10
1.167090157480315
 20
2.0687946850393701
 30
0
 11
1.1668503937007875
 21
2.0699999999999998
 31
0
  0
LINE
  5
2E2
330
1A
100
AcDbEntity
  8
BLACK
  6
CONTINUOUS
100
AcDbLine
 10
1.1668503937007875
 20
2.0699999999999998
 30
0
 11
1.1668503937007875
 21
2.1299999999999999
 31
0
  0
LINE
  5
2E3
330
1A
100
AcDbEntity
  8
BLACK
  6
CONTINUOUS
100
AcDbLine
 10
1.1668503937007875
 20
2.1299999999999999
 30
0
 11
1.167090157480315
 21
2.13120531496063
 31
0
  0
LINE
  5
2E4
330
1A
100
AcDbEntity
  8
BLACK
  6
CONTINUOUS
100
AcDbLine
 10
1.167090157480315
 20
2.13120531496063
 30
0
 11
1.167772874015748
 21
2.1322271259842518
 31
0
  0
LINE
  5
2E5
330
1A
100
AcDbEntity
  8
BLACK
  6
CONTINUOUS
100
AcDbLine
 10
1.167772874015748
 20
2.1322271259842518
 30
0
 11
1.16879468503937
 21
2.1329098425196849
 31
0
  0
LINE
  5
2E6
330
1A
100
AcDbEntity
  8
BLACK
  6
CONTINUOUS
100
AcDbLine
 10
1.16879468503937
 20
2.1329098425196849
 30
0
 11
1.1699999999999999
 21
2.1331496062992126
 31
0
  0
LINE
  5
2E7
330
1A
100
AcDbEntity
  8
BLACK
  6
CONTINUOUS
100
AcDbLine
 10
1.1699999999999999
 20
2.1331496062992126
 30
0
 11
1.23
 21
2.1331496062992126
 31
0
  0
LINE
  5
2E8
330
1A
100
AcDbEntity
  8
BLACK
  6
CONTINUOUS
100
AcDbLine
 10
1.23
 20
2.1331496062992126
 30
0
 11
1.2312053149606299
 21
2.1329098425196849
 31
0
  0
LINE
  5
2E9
330
1A
100
AcDbEntity
  8
BLACK
  6
CONTINUOUS
100
AcDbLine
 10
1.33120531496063
 20
2.1329098425196849
 30
0
 11
1.332227125984252
 21
2.1322271259842518
 31
0
  0
LINE
  5
2EA
330
1A
100
AcDbEntity
  8
BLACK
  6
CONTINUOUS
100
AcDbLine
 10
1.332227125984252
 20
2.1322271259842518
 30
0
 11
1.332909842519685
 21
2.13120531496063
 31
0
  0
LINE
  5
2EB
330
1A
100
AcDbEntity
  8
BLACK
  6
CONTINUOUS
100
AcDbLine
 10
1.332909842519685
 20
2.13120531496063
 30
0
 11
1.3331496062992125
 21
2.1299999999999999
 31
0
  0
LINE
  5
2EC
330
1A
100
AcDbEntity
  8
BLACK
  6
CONTINUOUS
100
AcDbLine
 10
1.3331496062992125
 20
2.1299999999999999
 30
0
 11
1.3331496062992125
 21
2.0699999999999998
 31
0
  0
LINE
  5
2ED
330
1A
100
AcDbEntity
  8
BLACK
  6
CONTINUOUS
100
AcDbLine
 10
1.3331496062992125
 20
2.0699999999999998
 30
0
 11
1.332909842519685
 21
2.0687946850393701
 31
0
  0
LINE
  5
2EE
330
1A
100
AcDbEntity
  8
BLACK
  6
CONTINUOUS
100
AcDbLine
 10
1.332909842519685
 20
2.0687946850393701
 30
0
 11
1.332227125984252
 21
2.0677728740157479
 31
0
  0
LINE
  5
2EF
330
1A
100
AcDbEntity
  8
BLACK
  6
CONTINUOUS
100
AcDbLine
 10
1.332227125984252
 20
2.0677728740157479
 30
0
 11
1.33120531496063
 21
2.0670901574803149
 31
0
  0
LINE
  5
2F0
330
1A
100
AcDbEntity
  8
BLACK
  6
CONTINUOUS
100
AcDbLine
 10
1.33120531496063
 20
2.0670901574803149
 30
0
 11
1.3300000000000001
 21
2.0668503937007872
 31
0
  0
LINE
  5
2F1
330
1A
100
AcDbEntity
  8
BLACK
  6
CONTINUOUS
100
AcDbLine
 10
1.3300000000000001
 20
2.0668503937007872
 30
0
 11
1.27
 21
2.0668503937007872
 31
0
  0
LINE
  5
2F2
330
1A
100
AcDbEntity
  8
BLACK
  6
CONTINUOUS
100
AcDbLine
 10
1.27
 20
2.0668503937007872
 30
0
 11
1.2687946850393701
 21
2.0670901574803149
 31
0
  0
LINE
  5
2F3
330
1A
100
AcDbEntity
  8
BLACK
  6
CONTINUOUS
100
AcDbLine
 10
1.2687946850393701
 20
2.0670901574803149
 30
0
 11
1.2677728740157479
 21
2.0677728740157479
 31
0
  0
LINE
  5
2F4
330
1A
100
AcDbEntity
  8
BLACK
  6
CONTINUOUS
100
AcDbLine
 10
1.2677728740157479
 20
2.0677728740157479
 30
0
 11
1.2670901574803148
 21
2.0687946850393701
 31
0
  0
LINE
  5
2F5
330
1A
100
AcDbEntity
  8
BLACK
  6
CONTINUOUS
100
AcDbLine
 10
1.2670901574803148
 20
2.0687946850393701
 30
0
 11
1.2668503937007873
 21
2.0699999999999998
 31
0
  0
LINE
  5
2F6
330
1A
100
AcDbEntity
  8
BLACK
  6
CONTINUOUS
100
AcDbLine
 10
1.2668503937007873
 20
2.0699999999999998
 30
0
 11
1.2668503937007873
 21
2.1299999999999999
 31
0
  0
LINE
  5
2F7
330
1A
100
AcDbEntity
  8
BLACK
  6
CONTINUOUS
100
AcDbLine
 10
1.2668503937007873
 20
2.1299999999999999
 30
0
 11
1.2670901574803148
 21
2.13120531496063
 31
0
  0
LINE
  5
2F8
330
1A
100
AcDbEntity
  8
BLACK
  6
CONTINUOUS
100
AcDbLine
 10
1.2670901574803148
 20
2.13120531496063
 30
0
 11
1.2677728740157479
 21
2.1322271259842518
 31
0
  0
LINE
  5
2F9
330
1A
100
AcDbEntity
  8
BLACK
  6
CONTINUOUS
100
AcDbLine
 10
1.2677728740157479
 20
2.1322271259842518
 30
0
 11
1.2687946850393701
 21
2.1329098425196849
 31
0
  0
LINE
  5
2FA
330
1A
100
AcDbEntity
  8
BLACK
  6
CONTINUOUS
100
AcDbLine
 10
1.2687946850393701
 20
2.1329098425196849
 30
0
 11
1.27
 21
2.1331496062992126
 31
0
  0
LINE
  5
2FB
330
1A
100
AcDbEntity
  8
BLACK
  6
CONTINUOUS
100
AcDbLine
 10
1.27
 20
2.1331496062992126
 30
0
 11
1.3300000000000001
 21
2.1331496062992126
 31
0
  0
LINE
  5
2FC
330
1A
100
AcDbEntity
  8
BLACK
  6
CONTINUOUS
100
AcDbLine
 10
1.3300000000000001
 20
2.1331496062992126
 30
0
 11
1.33120531496063
 21
2.1329098425196849
 31
0
  0
LINE
  5
2FD
330
1A
100
AcDbEntity
  8
BLACK
  6
CONTINUOUS
100
AcDbLine
 10
1.4312053149606299
 20
2.1329098425196849
 30
0
 11
1.4322271259842518
 21
2.1322271259842518
 31
0
  0
LINE
  5
2FE
330
1A
100
AcDbEntity
  8
BLACK
  6
CONTINUOUS
100
AcDbLine
 10
1.4322271259842518
 20
2.1322271259842518
 30
0
 11
1.4329098425196851
 21
2.13120531496063
 31
0
  0
LINE
  5
2FF
330
1A
100
AcDbEntity
  8
BLACK
  6
CONTINUOUS
100
AcDbLine
 10
1.4329098425196851
 20
2.13120531496063
 30
0
 11
1.4331496062992126
 21
2.1299999999999999
 31
0
  0
LINE
  5
300
330
1A
100
AcDbEntity
  8
BLACK
  6
CONTINUOUS
100
AcDbLine
 10
1.4331496062992126
 20
2.1299999999999999
 30
0
 11
1.4331496062992126
 21
2.0699999999999998
 31
0
  0
LINE
  5
301
330
1A
100
AcDbEntity
  8
BLACK
  6
CONTINUOUS
100
AcDbLine
 10
1.4331496062992126
 20
2.0699999999999998
 30
0
 11
1.4329098425196851
 21
2.0687946850393701
 31
0
  0
LINE
  5
302
330
1A
100
AcDbEntity
  8
BLACK
  6
CONTINUOUS
100
AcDbLine
 10
1.4329098425196851
 20
2.0687946850393701
 30
0
 11
1.4322271259842518
 21
2.0677728740157479
 31
0
  0
LINE
  5
303
330
1A
100
AcDbEntity
  8
BLACK
  6
CONTINUOUS
100
AcDbLine
 10
1.4322271259842518
 20
2.0677728740157479
 30
0
 11
1.4312053149606299
 21
2.0670901574803149
 31
0
  0
LINE
  5
304
330
1A
100
AcDbEntity
  8
BLACK
  6
CONTINUOUS
100
AcDbLine
 10
1.4312053149606299
 20
2.0670901574803149
 30
0
 11
1.4299999999999999
 21
2.0668503937007872
 31
0
  0
LINE
  5
305
330
1A
100
AcDbEntity
  8
BLACK
  6
CONTINUOUS
100
AcDbLine
 10
1.4299999999999999
 20
2.0668503937007872
 30
0
 11
1.3699999999999999
 21
2.0668503937007872
 31
0
  0
LINE
  5
306
330
1A
100
AcDbEntity
  8
BLACK
  6
CONTINUOUS
100
AcDbLine
 10
1.3699999999999999
 20
2.0668503937007872
 30
0
 11
1.36879468503937
 21
2.0670901574803149
 31
0
  0
LINE
  5
307
330
1A
100
AcDbEntity
  8
BLACK
  6
CONTINUOUS
100
AcDbLine
 10
1.36879468503937
 20
2.0670901574803149
 30
0
 11
1.367772874015748
 21
2.0677728740157479
 31
0
  0
LINE
  5
308
330
1A
100
AcDbEntity
  8
BLACK
  6
CONTINUOUS
100
AcDbLine
 10
1.367772874015748
 20
2.0677728740157479
 30
0
 11
1.3670901574803149
 21
2.0687946850393701
 31
0
  0
LINE
  5
309
330
1A
100
AcDbEntity
  8
BLACK
  6
CONTINUOUS
100
AcDbLine
 10
1.3670901574803149
 20
2.0687946850393701
 30
0
 11
1.3668503937007874
 21
2.0699999999999998
 31
0
  0
LINE
  5
30A
330
1A
100
AcDbEntity
  8
BLACK
  6
CONTINUOUS
100
AcDbLine
 10
1.3668503937007874
 20
2.0699999999999998
 30
0
 11
1.3668503937007874
 21
2.1299999999999999
 31
0
  0
LINE
  5
30B
330
1A
100
AcDbEntity
  8
BLACK
  6
CONTINUOUS
100
AcDbLine
 10
1.3668503937007874
 20
2.1299999999999999
 30
0
 11
1.3670901574803149
 21
2.13120531496063
 31
0
  0
LINE
  5
30C
330
1A
100
AcDbEntity
  8
BLACK
  6
CONTINUOUS
100
AcDbLine
 10
1.3670901574803149
 20
2.13120531496063
 30
0
 11
1.367772874015748
 21
2.1322271259842518
 31
0
  0
LINE
  5
30D
330
1A
100
AcDbEntity
  8
BLACK
  6
CONTINUOUS
100
AcDbLine
 10
1.367772874015748
 20
2.1322271259842518
 30
0
 11
1.36879468503937
 21
2.1329098425196849
 31
0
  0
LINE
  5
30E
330
1A
100
AcDbEntity
  8
BLACK
  6
CONTINUOUS
100
AcDbLine
 10
1.36879468503937
 20
2.1329098425196849
 30
0
 11
1.3699999999999999
 21
2.1331496062992126
 31
0
  0
LINE
  5
30F
330
1A
100
AcDbEntity
  8
BLACK
  6
CONTINUOUS
100
AcDbLine
 10
1.3699999999999999
 20
2.1331496062992126
 30
0
 11
1.4299999999999999
 21
2.1331496062992126
 31
0
  0
LINE
  5
310
330
1A
100
AcDbEntity
  8
BLACK
  6
CONTINUOUS
100
AcDbLine
 10
1.4299999999999999
 20
2.1331496062992126
 30
0
 11
1.4312053149606299
 21
2.1329098425196849
 31
0
  0
LINE
  5
311
330
1A
100
AcDbEntity
  8
BLACK
  6
CONTINUOUS
100
AcDbLine
 10
1.5312053149606299
 20
2.1329098425196849
 30
0
 11
1.5322271259842519
 21
2.1322271259842518
 31
0
  0
LINE
  5
312
330
1A
100
AcDbEntity
  8
BLACK
  6
CONTINUOUS
100
AcDbLine
 10
1.5322271259842519
 20
2.1322271259842518
 30
0
 11
1.532909842519685
 21
2.13120531496063
 31
0
  0
LINE
  5
313
330
1A
100
AcDbEntity
  8
BLACK
  6
CONTINUOUS
100
AcDbLine
 10
1.532909842519685
 20
2.13120531496063
 30
0
 11
1.5331496062992125
 21
2.1299999999999999
 31
0
  0
LINE
  5
314
330
1A
100
AcDbEntity
  8
BLACK
  6
CONTINUOUS
100
AcDbLine
 10
1.5331496062992125
 20
2.1299999999999999
 30
0
 11
1.5331496062992125
 21
2.0699999999999998
 31
0
  0
LINE
  5
315
330
1A
100
AcDbEntity
  8
BLACK
  6
CONTINUOUS
100
AcDbLine
 10
1.5331496062992125
 20
2.0699999999999998
 30
0
 11
1.532909842519685
 21
2.0687946850393701
 31
0
  0
LINE
  5
316
330
1A
100
AcDbEntity
  8
BLACK
  6
CONTINUOUS
100
AcDbLine
 10
1.532909842519685
 20
2.0687946850393701
 30
0
 11
1.5322271259842519
 21
2.0677728740157479
 31
0
  0
LINE
  5
317
330
1A
100
AcDbEntity
  8
BLACK
  6
CONTINUOUS
100
AcDbLine
 10
1.5322271259842519
 20
2.0677728740157479
 30
0
 11
1.5312053149606299
 21
2.0670901574803149
 31
0
  0
LINE
  5
318
330
1A
100
AcDbEntity
  8
BLACK
  6
CONTINUOUS
100
AcDbLine
 10
1.5312053149606299
 20
2.0670901574803149
 30
0
 11
1.53
 21
2.0668503937007872
 31
0
  0
LINE
  5
319
330
1A
100
AcDbEntity
  8
BLACK
  6
CONTINUOUS
100
AcDbLine
 10
1.53
 20
2.0668503937007872
 30
0
 11
1.47
 21
2.0668503937007872
 31
0
  0
LINE
  5
31A
330
1A
100
AcDbEntity
  8
BLACK
  6
CONTINUOUS
100
AcDbLine
 10
1.47
 20
2.0668503937007872
 30
0
 11
1.4687946850393701
 21
2.0670901574803149
 31
0
  0
LINE
  5
31B
330
1A
100
AcDbEntity
  8
BLACK
  6
CONTINUOUS
100
AcDbLine
 10
1.4687946850393701
 20
2.0670901574803149
 30
0
 11
1.4677728740157481
 21
2.0677728740157479
 31
0
  0
LINE
  5
31C
330
1A
100
AcDbEntity
  8
BLACK
  6
CONTINUOUS
100
AcDbLine
 10
1.4677728740157481
 20
2.0677728740157479
 30
0
 11
1.467090157480315
 21
2.0687946850393701
 31
0
  0
LINE
  5
31D
330
1A
100
AcDbEntity
  8
BLACK
  6
CONTINUOUS
100
AcDbLine
 10
1.467090157480315
 20
2.0687946850393701
 30
0
 11
1.4668503937007873
 21
2.0699999999999998
 31
0
  0
LINE
  5
31E
330
1A
100
AcDbEntity
  8
BLACK
  6
CONTINUOUS
100
AcDbLine
 10
1.4668503937007873
 20
2.0699999999999998
 30
0
 11
1.4668503937007873
 21
2.1299999999999999
 31
0
  0
LINE
  5
31F
330
1A
100
AcDbEntity
  8
BLACK
  6
CONTINUOUS
100
AcDbLine
 10
1.4668503937007873
 20
2.1299999999999999
 30
0
 11
1.467090157480315
 21
2.13120531496063
 31
0
  0
LINE
  5
320
330
1A
100
AcDbEntity
  8
BLACK
  6
CONTINUOUS
100
AcDbLine
 10
1.467090157480315
 20
2.13120531496063
 30
0
 11
1.4677728740157481
 21
2.1322271259842518
 31
0
  0
LINE
  5
321
330
1A
100
AcDbEntity
  8
BLACK
  6
CONTINUOUS
100
AcDbLine
 10
1.4677728740157481
 20
2.1322271259842518
 30
0
 11
1.4687946850393701
 21
2.1329098425196849
 31
0
  0
LINE
  5
322
330
1A
100
AcDbEntity
  8
BLACK
  6
CONTINUOUS
100
AcDbLine
 10
1.4687946850393701
 20
2.1329098425196849
 30
0
 11
1.47
 21
2.1331496062992126
 31
0
  0
LINE
  5
323
330
1A
100
AcDbEntity
  8
BLACK
  6
CONTINUOUS
100
AcDbLine
 10
1.47
 20
2.1331496062992126
 30
0
 11
1.53
 21
2.1331496062992126
 31
0
  0
LINE
  5
324
330
1A
100
AcDbEntity
  8
BLACK
  6
CONTINUOUS
100
AcDbLine
 10
1.53
 20
2.1331496062992126
 30
0
 11
1.5312053149606299
 21
2.1329098425196849
 31
0
  0
LINE
  5
325
330
1A
100
AcDbEntity
  8
BLACK
  6
CONTINUOUS
100
AcDbLine
 10
1.6312053149606298
 20
2.1329098425196849
 30
0
 11
1.632227125984252
 21
2.1322271259842518
 31
0
  0
LINE
  5
326
330
1A
100
AcDbEntity
  8
BLACK
  6
CONTINUOUS
100
AcDbLine
 10
1.632227125984252
 20
2.1322271259842518
 30
0
 11
1.6329098425196851
 21
2.13120531496063
 31
0
  0
LINE
  5
327
330
1A
100
AcDbEntity
  8
BLACK
  6
CONTINUOUS
100
AcDbLine
 10
1.6329098425196851
 20
2.13120531496063
 30
0
 11
1.6331496062992126
 21
2.1299999999999999
 31
0
  0
LINE
  5
328
330
1A
100
AcDbEntity
  8
BLACK
  6
CONTINUOUS
100
AcDbLine
 10
1.6331496062992126
 20
2.1299999999999999
 30
0
 11
1.6331496062992126
 21
2.0699999999999998
 31
0
  0
LINE
  5
329
330
1A
100
AcDbEntity
  8
BLACK
  6
CONTINUOUS
100
AcDbLine
 10
1.6331496062992126
 20
2.0699999999999998
 30
0
 11
1.6329098425196851
 21
2.0687946850393701
 31
0
  0
LINE
  5
32A
330
1A
100
AcDbEntity
  8
BLACK
  6
CONTINUOUS
100
AcDbLine
 10
1.6329098425196851
 20
2.0687946850393701
 30
0
 11
1.632227125984252
 21
2.0677728740157479
 31
0
  0
LINE
  5
32B
330
1A
100
AcDbEntity
  8
BLACK
  6
CONTINUOUS
100
AcDbLine
 10
1.632227125984252
 20
2.0677728740157479
 30
0
 11
1.6312053149606298
 21
2.0670901574803149
 31
0
  0
LINE
  5
32C
330
1A
100
AcDbEntity
  8
BLACK
  6
CONTINUOUS
100
AcDbLine
 10
1.6312053149606298
 20
2.0670901574803149
 30
0
 11
1.6299999999999999
 21
2.0668503937007872
 31
0
  0
LINE
  5
32D
330
1A
100
AcDbEntity
  8
BLACK
  6
CONTINUOUS
100
AcDbLine
 10
1.6299999999999999
 20
2.0668503937007872
 30
0
 11
1.5700000000000001
 21
2.0668503937007872
 31
0
  0
LINE
  5
32E
330
1A
100
AcDbEntity
  8
BLACK
  6
CONTINUOUS
100
AcDbLine
 10
1.5700000000000001
 20
2.0668503937007872
 30
0
 11
1.5687946850393701
 21
2.0670901574803149
 31
0
  0
LINE
  5
32F
330
1A
100
AcDbEntity
  8
BLACK
  6
CONTINUOUS
100
AcDbLine
 10
1.5687946850393701
 20
2.0670901574803149
 30
0
 11
1.5677728740157479
 21
2.0677728740157479
 31
0
  0
LINE
  5
330
330
1A
100
AcDbEntity
  8
BLACK
  6
CONTINUOUS
100
AcDbLine
 10
1.5677728740157479
 20
2.0677728740157479
 30
0
 11
1.5670901574803149
 21
2.0687946850393701
 31
0
  0
LINE
  5
331
330
1A
100
AcDbEntity
  8
BLACK
  6
CONTINUOUS
100
AcDbLine
 10
1.5670901574803149
 20
2.0687946850393701
 30
0
 11
1.5668503937007874
 21
2.0699999999999998
 31
0
  0
LINE
  5
332
330
1A
100
AcDbEntity
  8
BLACK
  6
CONTINUOUS
100
AcDbLine
 10
1.5668503937007874
 20
2.0699999999999998
 30
0
 11
1.5668503937007874
 21
2.1299999999999999
 31
0
  0
LINE
  5
333
330
1A
100
AcDbEntity
  8
BLACK
  6
CONTINUOUS
100
AcDbLine
 10
1.5668503937007874
 20
2.1299999999999999
 30
0
 11
1.5670901574803149
 21
2.13120531496063
 31
0
  0
LINE
  5
334
330
1A
100
AcDbEntity
  8
BLACK
  6
CONTINUOUS
100
AcDbLine
 10
1.5670901574803149
 20
2.13120531496063
 30
0
 11
1.5677728740157479
 21
2.1322271259842518
 31
0
  0
LINE
  5
335
330
1A
100
AcDbEntity
  8
BLACK
  6
CONTINUOUS
100
AcDbLine
 10
1.5677728740157479
 20
2.1322271259842518
 30
0
 11
1.5687946850393701
 21
2.1329098425196849
 31
0
  0
LINE
  5
336
330
1A
100
AcDbEntity
  8
BLACK
  6
CONTINUOUS
100
AcDbLine
 10
1.5687946850393701
 20
2.1329098425196849
 30
0
 11
1.5700000000000001
 21
2.1331496062992126
 31
0
  0
LINE
  5
337
330
1A
100
AcDbEntity
  8
BLACK
  6
CONTINUOUS
100
AcDbLine
 10
1.5700000000000001
 20
2.1331496062992126
 30
0
 11
1.6299999999999999
 21
2.1331496062992126
 31
0
  0
LINE
  5
338
330
1A
100
AcDbEntity
  8
BLACK
  6
CONTINUOUS
100
AcDbLine
 10
1.6299999999999999
 20
2.1331496062992126
 30
0
 11
1.6312053149606298
 21
2.1329098425196849
 31
0
  0
LINE
  5
339
330
1A
100
AcDbEntity
  8
BLACK
  6
CONTINUOUS
100
AcDbLine
 10
1.7312053149606299
 20
2.1329098425196849
 30
0
 11
1.7322271259842519
 21
2.1322271259842518
 31
0
  0
LINE
  5
33A
330
1A
100
AcDbEntity
  8
BLACK
  6
CONTINUOUS
100
AcDbLine
 10
1.7322271259842519
 20
2.1322271259842518
 30
0
 11
1.7329098425196849
 21
2.13120531496063
 31
0
  0
LINE
  5
33B
330
1A
100
AcDbEntity
  8
BLACK
  6
CONTINUOUS
100
AcDbLine
 10
1.7329098425196849
 20
2.13120531496063
 30
0
 11
1.7331496062992127
 21
2.1299999999999999
 31
0
  0
LINE
  5
33C
330
1A
100
AcDbEntity
  8
BLACK
  6
CONTINUOUS
100
AcDbLine
 10
1.7331496062992127
 20
2.1299999999999999
 30
0
 11
1.7331496062992127
 21
2.0699999999999998
 31
0
  0
LINE
  5
33D
330
1A
100
AcDbEntity
  8
BLACK
  6
CONTINUOUS
100
AcDbLine
 10
1.7331496062992127
 20
2.0699999999999998
 30
0
 11
1.7329098425196849
 21
2.0687946850393701
 31
0
  0
LINE
  5
33E
330
1A
100
AcDbEntity
  8
BLACK
  6
CONTINUOUS
100
AcDbLine
 10
1.7329098425196849
 20
2.0687946850393701
 30
0
 11
1.7322271259842519
 21
2.0677728740157479
 31
0
  0
LINE
  5
33F
330
1A
100
AcDbEntity
  8
BLACK
  6
CONTINUOUS
100
AcDbLine
 10
1.7322271259842519
 20
2.0677728740157479
 30
0
 11
1.7312053149606299
 21
2.0670901574803149
 31
0
  0
LINE
  5
340
330
1A
100
AcDbEntity
  8
BLACK
  6
CONTINUOUS
100
AcDbLine
 10
1.7312053149606299
 20
2.0670901574803149
 30
0
 11
1.73
 21
2.0668503937007872
 31
0
  0
LINE
  5
341
330
1A
100
AcDbEntity
  8
BLACK
  6
CONTINUOUS
100
AcDbLine
 10
1.73
 20
2.0668503937007872
 30
0
 11
1.6699999999999999
 21
2.0668503937007872
 31
0
  0
LINE
  5
342
330
1A
100
AcDbEntity
  8
BLACK
  6
CONTINUOUS
100
AcDbLine
 10
1.6699999999999999
 20
2.0668503937007872
 30
0
 11
1.66879468503937
 21
2.0670901574803149
 31
0
  0
LINE
  5
343
330
1A
100
AcDbEntity
  8
BLACK
  6
CONTINUOUS
100
AcDbLine
 10
1.66879468503937
 20
2.0670901574803149
 30
0
 11
1.667772874015748
 21
2.0677728740157479
 31
0
  0
LINE
  5
344
330
1A
100
AcDbEntity
  8
BLACK
  6
CONTINUOUS
100
AcDbLine
 10
1.667772874015748
 20
2.0677728740157479
 30
0
 11
1.667090157480315
 21
2.0687946850393701
 31
0
  0
LINE
  5
345
330
1A
100
AcDbEntity
  8
BLACK
  6
CONTINUOUS
100
AcDbLine
 10
1.667090157480315
 20
2.0687946850393701
 30
0
 11
1.6668503937007875
 21
2.0699999999999998
 31
0
  0
LINE
  5
346
330
1A
100
AcDbEntity
  8
BLACK
  6
CONTINUOUS
100
AcDbLine
 10
1.6668503937007875
 20
2.0699999999999998
 30
0
 11
1.6668503937007875
 21
2.1299999999999999
 31
0
  0
LINE
  5
347
330
1A
100
AcDbEntity
  8
BLACK
  6
CONTINUOUS
100
AcDbLine
 10
1.6668503937007875
 20
2.1299999999999999
 30
0
 11
1.667090157480315
 21
2.13120531496063
 31
0
  0
LINE
  5
348
330
1A
100
AcDbEntity
  8
BLACK
  6
CONTINUOUS
100
AcDbLine
 10
1.667090157480315
 20
2.13120531496063
 30
0
 11
1.667772874015748
 21
2.1322271259842518
 31
0
  0
LINE
  5
349
330
1A
100
AcDbEntity
  8
BLACK
  6
CONTINUOUS
100
AcDbLine
 10
1.667772874015748
 20
2.1322271259842518
 30
0
 11
1.66879468503937
 21
2.1329098425196849
 31
0
  0
LINE
  5
34A
330
1A
100
AcDbEntity
  8
BLACK
  6
CONTINUOUS
100
AcDbLine
 10
1.66879468503937
 20
2.1329098425196849
 30
0
 11
1.6699999999999999
 21
2.1331496062992126
 31
0
  0
LINE
  5
34B
330
1A
100
AcDbEntity
  8
BLACK
  6
CONTINUOUS
100
AcDbLine
 10
1.6699999999999999
 20
2.1331496062992126
 30
0
 11
1.73
 21
2.1331496062992126
 31
0
  0
LINE
  5
34C
330
1A
100
AcDbEntity
  8
BLACK
  6
CONTINUOUS
100
AcDbLine
 10
1.73
 20
2.1331496062992126
 30
0
 11
1.7312053149606299
 21
2.1329098425196849
 31
0
  0
LINE
  5
34D
330
1A
100
AcDbEntity
  8
BLACK
  6
CONTINUOUS
100
AcDbLine
 10
1.8312053149606298
 20
2.1329098425196849
 30
0
 11
1.832227125984252
 21
2.1322271259842518
 31
0
  0
LINE
  5
34E
330
1A
100
AcDbEntity
  8
BLACK
  6
CONTINUOUS
100
AcDbLine
 10
1.832227125984252
 20
2.1322271259842518
 30
0
 11
1.832909842519685
 21
2.13120531496063
 31
0
  0
LINE
  5
34F
330
1A
100
AcDbEntity
  8
BLACK
  6
CONTINUOUS
100
AcDbLine
 10
1.832909842519685
 20
2.13120531496063
 30
0
 11
1.8331496062992125
 21
2.1299999999999999
 31
0
  0
LINE
  5
350
330
1A
100
AcDbEntity
  8
BLACK
  6
CONTINUOUS
100
AcDbLine
 10
1.8331496062992125
 20
2.1299999999999999
 30
0
 11
1.8331496062992125
 21
2.0699999999999998
 31
0
  0
LINE
  5
351
330
1A
100
AcDbEntity
  8
BLACK
  6
CONTINUOUS
100
AcDbLine
 10
1.8331496062992125
 20
2.0699999999999998
 30
0
 11
1.832909842519685
 21
2.0687946850393701
 31
0
  0
LINE
  5
352
330
1A
100
AcDbEntity
  8
BLACK
  6
CONTINUOUS
100
AcDbLine
 10
1.832909842519685
 20
2.0687946850393701
 30
0
 11
1.832227125984252
 21
2.0677728740157479
 31
0
  0
LINE
  5
353
330
1A
100
AcDbEntity
  8
BLACK
  6
CONTINUOUS
100
AcDbLine
 10
1.832227125984252
 20
2.0677728740157479
 30
0
 11
1.8312053149606298
 21
2.0670901574803149
 31
0
  0
LINE
  5
354
330
1A
100
AcDbEntity
  8
BLACK
  6
CONTINUOUS
100
AcDbLine
 10
1.8312053149606298
 20
2.0670901574803149
 30
0
 11
1.8299999999999998
 21
2.0668503937007872
 31
0
  0
LINE
  5
355
330
1A
100
AcDbEntity
  8
BLACK
  6
CONTINUOUS
100
AcDbLine
 10
1.8299999999999998
 20
2.0668503937007872
 30
0
 11
1.77
 21
2.0668503937007872
 31
0
  0
LINE
  5
356
330
1A
100
AcDbEntity
  8
BLACK
  6
CONTINUOUS
100
AcDbLine
 10
1.77
 20
2.0668503937007872
 30
0
 11
1.7687946850393701
 21
2.0670901574803149
 31
0
  0
LINE
  5
357
330
1A
100
AcDbEntity
  8
BLACK
  6
CONTINUOUS
100
AcDbLine
 10
1.7687946850393701
 20
2.0670901574803149
 30
0
 11
1.7677728740157479
 21
2.0677728740157479
 31
0
  0
LINE
  5
358
330
1A
100
AcDbEntity
  8
BLACK
  6
CONTINUOUS
100
AcDbLine
 10
1.7677728740157479
 20
2.0677728740157479
 30
0
 11
1.7670901574803148
 21
2.0687946850393701
 31
0
  0
LINE
  5
359
330
1A
100
AcDbEntity
  8
BLACK
  6
CONTINUOUS
100
AcDbLine
 10
1.7670901574803148
 20
2.0687946850393701
 30
0
 11
1.7668503937007873
 21
2.0699999999999998
 31
0
  0
LINE
  5
35A
330
1A
100
AcDbEntity
  8
BLACK
  6
CONTINUOUS
100
AcDbLine
 10
1.7668503937007873
 20
2.0699999999999998
 30
0
 11
1.7668503937007873
 21
2.1299999999999999
 31
0
  0
LINE
  5
35B
330
1A
100
AcDbEntity
  8
BLACK
  6
CONTINUOUS
100
AcDbLine
 10
1.7668503937007873
 20
2.1299999999999999
 30
0
 11
1.7670901574803148
 21
2.13120531496063
 31
0
  0
LINE
  5
35C
330
1A
100
AcDbEntity
  8
BLACK
  6
CONTINUOUS
100
AcDbLine
 10
1.7670901574803148
 20
2.13120531496063
 30
0
 11
1.7677728740157479
 21
2.1322271259842518
 31
0
  0
LINE
  5
35D
330
1A
100
AcDbEntity
  8
BLACK
  6
CONTINUOUS
100
AcDbLine
 10
1.7677728740157479
 20
2.1322271259842518
 30
0
 11
1.7687946850393701
 21
2.1329098425196849
 31
0
  0
LINE
  5
35E
330
1A
100
AcDbEntity
  8
BLACK
  6
CONTINUOUS
100
AcDbLine
 10
1.7687946850393701
 20
2.1329098425196849
 30
0
 11
1.77
 21
2.1331496062992126
 31
0
  0
LINE
  5
35F
330
1A
100
AcDbEntity
  8
BLACK
  6
CONTINUOUS
100
AcDbLine
 10
1.77
 20
2.1331496062992126
 30
0
 11
1.8299999999999998
 21
2.1331496062992126
 31
0
  0
LINE
  5
360
330
1A
100
AcDbEntity
  8
BLACK
  6
CONTINUOUS
100
AcDbLine
 10
1.8299999999999998
 20
2.1331496062992126
 30
0
 11
1.8312053149606298
 21
2.1329098425196849
 31
0
  0
LINE
  5
361
330
1A
100
AcDbEntity
  8
BLACK
  6
CONTINUOUS
100
AcDbLine
 10
1.9312053149606299
 20
2.1329098425196849
 30
0
 11
1.9322271259842518
 21
2.1322271259842518
 31
0
  0
LINE
  5
362
330
1A
100
AcDbEntity
  8
BLACK
  6
CONTINUOUS
100
AcDbLine
 10
1.9322271259842518
 20
2.1322271259842518
 30
0
 11
1.9329098425196849
 21
2.13120531496063
 31
0
  0
LINE
  5
363
330
1A
100
AcDbEntity
  8
BLACK
  6
CONTINUOUS
100
AcDbLine
 10
1.9329098425196849
 20
2.13120531496063
 30
0
 11
1.9331496062992126
 21
2.1299999999999999
 31
0
  0
LINE
  5
364
330
1A
100
AcDbEntity
  8
BLACK
  6
CONTINUOUS
100
AcDbLine
 10
1.9331496062992126
 20
2.1299999999999999
 30
0
 11
1.9331496062992126
 21
2.0699999999999998
 31
0
  0
LINE
  5
365
330
1A
100
AcDbEntity
  8
BLACK
  6
CONTINUOUS
100
AcDbLine
 10
1.9331496062992126
 20
2.0699999999999998
 30
0
 11
1.9329098425196849
 21
2.0687946850393701
 31
0
  0
LINE
  5
366
330
1A
100
AcDbEntity
  8
BLACK
  6
CONTINUOUS
100
AcDbLine
 10
1.9329098425196849
 20
2.0687946850393701
 30
0
 11
1.9322271259842518
 21
2.0677728740157479
 31
0
  0
LINE
  5
367
330
1A
100
AcDbEntity
  8
BLACK
  6
CONTINUOUS
100
AcDbLine
 10
1.9322271259842518
 20
2.0677728740157479
 30
0
 11
1.9312053149606299
 21
2.0670901574803149
 31
0
  0
LINE
  5
368
330
1A
100
AcDbEntity
  8
BLACK
  6
CONTINUOUS
100
AcDbLine
 10
1.9312053149606299
 20
2.0670901574803149
 30
0
 11
1.9299999999999999
 21
2.0668503937007872
 31
0
  0
LINE
  5
369
330
1A
100
AcDbEntity
  8
BLACK
  6
CONTINUOUS
100
AcDbLine
 10
1.9299999999999999
 20
2.0668503937007872
 30
0
 11
1.8699999999999999
 21
2.0668503937007872
 31
0
  0
LINE
  5
36A
330
1A
100
AcDbEntity
  8
BLACK
  6
CONTINUOUS
100
AcDbLine
 10
1.8699999999999999
 20
2.0668503937007872
 30
0
 11
1.86879468503937
 21
2.0670901574803149
 31
0
  0
LINE
  5
36B
330
1A
100
AcDbEntity
  8
BLACK
  6
CONTINUOUS
100
AcDbLine
 10
1.86879468503937
 20
2.0670901574803149
 30
0
 11
1.867772874015748
 21
2.0677728740157479
 31
0
  0
LINE
  5
36C
330
1A
100
AcDbEntity
  8
BLACK
  6
CONTINUOUS
100
AcDbLine
 10
1.867772874015748
 20
2.0677728740157479
 30
0
 11
1.8670901574803149
 21
2.0687946850393701
 31
0
  0
LINE
  5
36D
330
1A
100
AcDbEntity
  8
BLACK
  6
CONTINUOUS
100
AcDbLine
 10
1.8670901574803149
 20
2.0687946850393701
 30
0
 11
1.8668503937007874
 21
2.0699999999999998
 31
0
  0
LINE
  5
36E
330
1A
100
AcDbEntity
  8
BLACK
  6
CONTINUOUS
100
AcDbLine
 10
1.8668503937007874
 20
2.0699999999999998
 30
0
 11
1.8668503937007874
 21
2.1299999999999999
 31
0
  0
LINE
  5
36F
330
1A
100
AcDbEntity
  8
BLACK
  6
CONTINUOUS
100
AcDbLine
 10
1.8668503937007874
 20
2.1299999999999999
 30
0
 11
1.8670901574803149
 21
2.13120531496063
 31
0
  0
LINE
  5
370
330
1A
100
AcDbEntity
  8
BLACK
  6
CONTINUOUS
100
AcDbLine
 10
1.8670901574803149
 20
2.13120531496063
 30
0
 11
1.867772874015748
 21
2.1322271259842518
 31
0
  0
LINE
  5
371
330
1A
100
AcDbEntity
  8
BLACK
  6
CONTINUOUS
100
AcDbLine
 10
1.867772874015748
 20
2.1322271259842518
 30
0
 11
1.86879468503937
 21
2.1329098425196849
 31
0
  0
LINE
  5
372
330
1A
100
AcDbEntity
  8
BLACK
  6
CONTINUOUS
100
AcDbLine
 10
1.86879468503937
 20
2.1329098425196849
 30
0
 11
1.8699999999999999
 21
2.1331496062992126
 31
0
  0
LINE
  5
373
330
1A
100
AcDbEntity
  8
BLACK
  6
CONTINUOUS
100
AcDbLine
 10
1.8699999999999999
 20
2.1331496062992126
 30
0
 11
1.9299999999999999
 21
2.1331496062992126
 31
0
  0
LINE
  5
374
330
1A
100
AcDbEntity
  8
BLACK
  6
CONTINUOUS
100
AcDbLine
 10
1.9299999999999999
 20
2.1331496062992126
 30
0
 11
1.9312053149606299
 21
2.1329098425196849
 31
0
  0
LINE
  5
375
330
1A
100
AcDbEntity
  8
BLACK
  6
CONTINUOUS
100
AcDbLine
 10
2.0312053149606299
 20
2.1329098425196849
 30
0
 11
2.0322271259842517
 21
2.1322271259842518
 31
0
  0
LINE
  5
376
330
1A
100
AcDbEntity
  8
BLACK
  6
CONTINUOUS
100
AcDbLine
 10
2.0322271259842517
 20
2.1322271259842518
 30
0
 11
2.0329098425196852
 21
2.13120531496063
 31
0
  0
LINE
  5
377
330
1A
100
AcDbEntity
  8
BLACK
  6
CONTINUOUS
100
AcDbLine
 10
2.0329098425196852
 20
2.13120531496063
 30
0
 11
2.0331496062992125
 21
2.1299999999999999
 31
0
  0
LINE
  5
378
330
1A
100
AcDbEntity
  8
BLACK
  6
CONTINUOUS
100
AcDbLine
 10
2.0331496062992125
 20
2.1299999999999999
 30
0
 11
2.0331496062992125
 21
2.0699999999999998
 31
0
  0
LINE
  5
379
330
1A
100
AcDbEntity
  8
BLACK
  6
CONTINUOUS
100
AcDbLine
 10
2.0331496062992125
 20
2.0699999999999998
 30
0
 11
2.0329098425196852
 21
2.0687946850393701
 31
0
  0
LINE
  5
37A
330
1A
100
AcDbEntity
  8
BLACK
  6
CONTINUOUS
100
AcDbLine
 10
2.0329098425196852
 20
2.0687946850393701
 30
0
 11
2.0322271259842517
 21
2.0677728740157479
 31
0
  0
LINE
  5
37B
330
1A
100
AcDbEntity
  8
BLACK
  6
CONTINUOUS
100
AcDbLine
 10
2.0322271259842517
 20
2.0677728740157479
 30
0
 11
2.0312053149606299
 21
2.0670901574803149
 31
0
  0
LINE
  5
37C
330
1A
100
AcDbEntity
  8
BLACK
  6
CONTINUOUS
100
AcDbLine
 10
2.0312053149606299
 20
2.0670901574803149
 30
0
 11
2.0299999999999998
 21
2.0668503937007872
 31
0
  0
LINE
  5
37D
330
1A
100
AcDbEntity
  8
BLACK
  6
CONTINUOUS
100
AcDbLine
 10
2.0299999999999998
 20
2.0668503937007872
 30
0
 11
1.97
 21
2.0668503937007872
 31
0
  0
LINE
  5
37E
330
1A
100
AcDbEntity
  8
BLACK
  6
CONTINUOUS
100
AcDbLine
 10
1.97
 20
2.0668503937007872
 30
0
 11
1.9687946850393701
 21
2.0670901574803149
 31
0
  0
LINE
  5
37F
330
1A
100
AcDbEntity
  8
BLACK
  6
CONTINUOUS
100
AcDbLine
 10
1.9687946850393701
 20
2.0670901574803149
 30
0
 11
1.9677728740157481
 21
2.0677728740157479
 31
0
  0
LINE
  5
380
330
1A
100
AcDbEntity
  8
BLACK
  6
CONTINUOUS
100
AcDbLine
 10
1.9677728740157481
 20
2.0677728740157479
 30
0
 11
1.967090157480315
 21
2.0687946850393701
 31
0
  0
LINE
  5
381
330
1A
100
AcDbEntity
  8
BLACK
  6
CONTINUOUS
100
AcDbLine
 10
1.967090157480315
 20
2.0687946850393701
 30
0
 11
1.9668503937007873
 21
2.0699999999999998
 31
0
  0
LINE
  5
382
330
1A
100
AcDbEntity
  8
BLACK
  6
CONTINUOUS
100
AcDbLine
 10
1.9668503937007873
 20
2.0699999999999998
 30
0
 11
1.9668503937007873
 21
2.1299999999999999
 31
0
  0
LINE
  5
383
330
1A
100
AcDbEntity
  8
BLACK
  6
CONTINUOUS
100
AcDbLine
 10
1.9668503937007873
 20
2.1299999999999999
 30
0
 11
1.967090157480315
 21
2.13120531496063
 31
0
  0
LINE
  5
384
330
1A
100
AcDbEntity
  8
BLACK
  6
CONTINUOUS
100
AcDbLine
 10
1.967090157480315
 20
2.13120531496063
 30
0
 11
1.9677728740157481
 21
2.1322271259842518
 31
0
  0
LINE
  5
385
330
1A
100
AcDbEntity
  8
BLACK
  6
CONTINUOUS
100
AcDbLine
 10
1.9677728740157481
 20
2.1322271259842518
 30
0
 11
1.9687946850393701
 21
2.1329098425196849
 31
0
  0
LINE
  5
386
330
1A
100
AcDbEntity
  8
BLACK
  6
CONTINUOUS
100
AcDbLine
 10
1.9687946850393701
 20
2.1329098425196849
 30
0
 11
1.97
 21
2.1331496062992126
 31
0
  0
LINE
  5
387
330
1A
100
AcDbEntity
  8
BLACK
  6
CONTINUOUS
100
AcDbLine
 10
1.97
 20
2.1331496062992126
 30
0
 11
2.0299999999999998
 21
2.1331496062992126
 31
0
  0
LINE
  5
388
330
1A
100
AcDbEntity
  8
BLACK
  6
CONTINUOUS
100
AcDbLine
 10
2.0299999999999998
 20
2.1331496062992126
 30
0
 11
2.0312053149606299
 21
2.1329098425196849
 31
0
  0
LINE
  5
389
330
1A
100
AcDbEntity
  8
BLACK
  6
CONTINUOUS
100
AcDbLine
 10
2.13120531496063
 20
2.1329098425196849
 30
0
 11
2.1322271259842518
 21
2.1322271259842518
 31
0
  0
LINE
  5
38A
330
1A
100
AcDbEntity
  8
BLACK
  6
CONTINUOUS
100
AcDbLine
 10
2.1322271259842518
 20
2.1322271259842518
 30
0
 11
2.1329098425196849
 21
2.13120531496063
 31
0
  0
LINE
  5
38B
330
1A
100
AcDbEntity
  8
BLACK
  6
CONTINUOUS
100
AcDbLine
 10
2.1329098425196849
 20
2.13120531496063
 30
0
 11
2.1331496062992126
 21
2.1299999999999999
 31
0
  0
LINE
  5
38C
330
1A
100
AcDbEntity
  8
BLACK
  6
CONTINUOUS
100
AcDbLine
 10
2.1331496062992126
 20
2.1299999999999999
 30
0
 11
2.1331496062992126
 21
2.0699999999999998
 31
0
  0
LINE
  5
38D
330
1A
100
AcDbEntity
  8
BLACK
  6
CONTINUOUS
100
AcDbLine
 10
2.1331496062992126
 20
2.0699999999999998
 30
0
 11
2.1329098425196849
 21
2.0687946850393701
 31
0
  0
LINE
  5
38E
330
1A
100
AcDbEntity
  8
BLACK
  6
CONTINUOUS
100
AcDbLine
 10
2.1329098425196849
 20
2.0687946850393701
 30
0
 11
2.1322271259842518
 21
2.0677728740157479
 31
0
  0
LINE
  5
38F
330
1A
100
AcDbEntity
  8
BLACK
  6
CONTINUOUS
100
AcDbLine
 10
2.1322271259842518
 20
2.0677728740157479
 30
0
 11
2.13120531496063
 21
2.0670901574803149
 31
0
  0
LINE
  5
390
330
1A
100
AcDbEntity
  8
BLACK
  6
CONTINUOUS
100
AcDbLine
 10
2.13120531496063
 20
2.0670901574803149
 30
0
 11
2.1299999999999999
 21
2.0668503937007872
 31
0
  0
LINE
  5
391
330
1A
100
AcDbEntity
  8
BLACK
  6
CONTINUOUS
100
AcDbLine
 10
2.1299999999999999
 20
2.0668503937007872
 30
0
 11
2.0699999999999998
 21
2.0668503937007872
 31
0
  0
LINE
  5
392
330
1A
100
AcDbEntity
  8
BLACK
  6
CONTINUOUS
100
AcDbLine
 10
2.0699999999999998
 20
2.0668503937007872
 30
0
 11
2.0687946850393701
 21
2.0670901574803149
 31
0
  0
LINE
  5
393
330
1A
100
AcDbEntity
  8
BLACK
  6
CONTINUOUS
100
AcDbLine
 10
2.0687946850393701
 20
2.0670901574803149
 30
0
 11
2.0677728740157479
 21
2.0677728740157479
 31
0
  0
LINE
  5
394
330
1A
100
AcDbEntity
  8
BLACK
  6
CONTINUOUS
100
AcDbLine
 10
2.0677728740157479
 20
2.0677728740157479
 30
0
 11
2.0670901574803149
 21
2.0687946850393701
 31
0
  0
LINE
  5
395
330
1A
100
AcDbEntity
  8
BLACK
  6
CONTINUOUS
100
AcDbLine
 10
2.0670901574803149
 20
2.0687946850393701
 30
0
 11
2.0668503937007872
 21
2.0699999999999998
 31
0
  0
LINE
  5
396
330
1A
100
AcDbEntity
  8
BLACK
  6
CONTINUOUS
100
AcDbLine
 10
2.0668503937007872
 20
2.0699999999999998
 30
0
 11
2.0668503937007872
 21
2.1299999999999999
 31
0
  0
LINE
  5
397
330
1A
100
AcDbEntity
  8
BLACK
  6
CONTINUOUS
100
AcDbLine
 10
2.0668503937007872
 20
2.1299999999999999
 30
0
 11
2.0670901574803149
 21
2.13120531496063
 31
0
  0
LINE
  5
398
330
1A
100
AcDbEntity
  8
BLACK
  6
CONTINUOUS
100
AcDbLine
 10
2.0670901574803149
 20
2.13120531496063
 30
0
 11
2.0677728740157479
 21
2.1322271259842518
 31
0
  0
LINE
  5
399
330
1A
100
AcDbEntity
  8
BLACK
  6
CONTINUOUS
100
AcDbLine
 10
2.0677728740157479
 20
2.1322271259842518
 30
0
 11
2.0687946850393701
 21
2.1329098425196849
 31
0
  0
LINE
  5
39A
330
1A
100
AcDbEntity
  8
BLACK
  6
CONTINUOUS
100
AcDbLine
 10
2.0687946850393701
 20
2.1329098425196849
 30
0
 11
2.0699999999999998
 21
2.1331496062992126
 31
0
  0
LINE
  5
39B
330
1A
100
AcDbEntity
  8
BLACK
  6
CONTINUOUS
100
AcDbLine
 10
2.0699999999999998
 20
2.1331496062992126
 30
0
 11
2.1299999999999999
 21
2.1331496062992126
 31
0
  0
LINE
  5
39C
330
1A
100
AcDbEntity
  8
BLACK
  6
CONTINUOUS
100
AcDbLine
 10
2.1299999999999999
 20
2.1331496062992126
 30
0
 11
2.13120531496063
 21
2.1329098425196849
 31
0
  0
LINE
  5
39D
330
1A
100
AcDbEntity
  8
BLACK
  6
CONTINUOUS
100
AcDbLine
 10
2.2312053149606297
 20
2.1329098425196849
 30
0
 11
2.2322271259842519
 21
2.1322271259842518
 31
0
  0
LINE
  5
39E
330
1A
100
AcDbEntity
  8
BLACK
  6
CONTINUOUS
100
AcDbLine
 10
2.2322271259842519
 20
2.1322271259842518
 30
0
 11
2.2329098425196849
 21
2.13120531496063
 31
0
  0
LINE
  5
39F
330
1A
100
AcDbEntity
  8
BLACK
  6
CONTINUOUS
100
AcDbLine
 10
2.2329098425196849
 20
2.13120531496063
 30
0
 11
2.2331496062992127
 21
2.1299999999999999
 31
0
  0
LINE
  5
3A0
330
1A
100
AcDbEntity
  8
BLACK
  6
CONTINUOUS
100
AcDbLine
 10
2.2331496062992127
 20
2.1299999999999999
 30
0
 11
2.2331496062992127
 21
2.0699999999999998
 31
0
  0
LINE
  5
3A1
330
1A
100
AcDbEntity
  8
BLACK
  6
CONTINUOUS
100
AcDbLine
 10
2.2331496062992127
 20
2.0699999999999998
 30
0
 11
2.2329098425196849
 21
2.0687946850393701
 31
0
  0
LINE
  5
3A2
330
1A
100
AcDbEntity
  8
BLACK
  6
CONTINUOUS
100
AcDbLine
 10
2.2329098425196849
 20
2.0687946850393701
 30
0
 11
2.2322271259842519
 21
2.0677728740157479
 31
0
  0
LINE
  5
3A3
330
1A
100
AcDbEntity
  8
BLACK
  6
CONTINUOUS
100
AcDbLine
 10
2.2322271259842519
 20
2.0677728740157479
 30
0
 11
2.2312053149606297
 21
2.0670901574803149
 31
0
  0
LINE
  5
3A4
330
1A
100
AcDbEntity
  8
BLACK
  6
CONTINUOUS
100
AcDbLine
 10
2.2312053149606297
 20
2.0670901574803149
 30
0
 11
2.23
 21
2.0668503937007872
 31
0
  0
LINE
  5
3A5
330
1A
100
AcDbEntity
  8
BLACK
  6
CONTINUOUS
100
AcDbLine
 10
2.23
 20
2.0668503937007872
 30
0
 11
2.1699999999999999
 21
2.0668503937007872
 31
0
  0
LINE
  5
3A6
330
1A
100
AcDbEntity
  8
BLACK
  6
CONTINUOUS
100
AcDbLine
 10
2.1699999999999999
 20
2.0668503937007872
 30
0
 11
2.1687946850393702
 21
2.0670901574803149
 31
0
  0
LINE
  5
3A7
330
1A
100
AcDbEntity
  8
BLACK
  6
CONTINUOUS
100
AcDbLine
 10
2.1687946850393702
 20
2.0670901574803149
 30
0
 11
2.167772874015748
 21
2.0677728740157479
 31
0
  0
LINE
  5
3A8
330
1A
100
AcDbEntity
  8
BLACK
  6
CONTINUOUS
100
AcDbLine
 10
2.167772874015748
 20
2.0677728740157479
 30
0
 11
2.167090157480315
 21
2.0687946850393701
 31
0
  0
LINE
  5
3A9
330
1A
100
AcDbEntity
  8
BLACK
  6
CONTINUOUS
100
AcDbLine
 10
2.167090157480315
 20
2.0687946850393701
 30
0
 11
2.1668503937007872
 21
2.0699999999999998
 31
0
  0
LINE
  5
3AA
330
1A
100
AcDbEntity
  8
BLACK
  6
CONTINUOUS
100
AcDbLine
 10
2.1668503937007872
 20
2.0699999999999998
 30
0
 11
2.1668503937007872
 21
2.1299999999999999
 31
0
  0
LINE
  5
3AB
330
1A
100
AcDbEntity
  8
BLACK
  6
CONTINUOUS
100
AcDbLine
 10
2.1668503937007872
 20
2.1299999999999999
 30
0
 11
2.167090157480315
 21
2.13120531496063
 31
0
  0
LINE
  5
3AC
330
1A
100
AcDbEntity
  8
BLACK
  6
CONTINUOUS
100
AcDbLine
 10
2.167090157480315
 20
2.13120531496063
 30
0
 11
2.167772874015748
 21
2.1322271259842518
 31
0
  0
LINE
  5
3AD
330
1A
100
AcDbEntity
  8
BLACK
  6
CONTINUOUS
100
AcDbLine
 10
2.167772874015748
 20
2.1322271259842518
 30
0
 11
2.1687946850393702
 21
2.1329098425196849
 31
0
  0
LINE
  5
3AE
330
1A
100
AcDbEntity
  8
BLACK
  6
CONTINUOUS
100
AcDbLine
 10
2.1687946850393702
 20
2.1329098425196849
 30
0
 11
2.1699999999999999
 21
2.1331496062992126
 31
0
  0
LINE
  5
3AF
330
1A
100
AcDbEntity
  8
BLACK
  6
CONTINUOUS
100
AcDbLine
 10
2.1699999999999999
 20
2.1331496062992126
 30
0
 11
2.23
 21
2.1331496062992126
 31
0
  0
LINE
  5
3B0
330
1A
100
AcDbEntity
  8
BLACK
  6
CONTINUOUS
100
AcDbLine
 10
2.23
 20
2.1331496062992126
 30
0
 11
2.2312053149606297
 21
2.1329098425196849
 31
0
  0
LINE
  5
3B1
330
1A
100
AcDbEntity
  8
BLACK
  6
CONTINUOUS
100
AcDbLine
 10
2.3312053149606298
 20
2.1329098425196849
 30
0
 11
2.332227125984252
 21
2.1322271259842518
 31
0
  0
LINE
  5
3B2
330
1A
100
AcDbEntity
  8
BLACK
  6
CONTINUOUS
100
AcDbLine
 10
2.332227125984252
 20
2.1322271259842518
 30
0
 11
2.332909842519685
 21
2.13120531496063
 31
0
  0
LINE
  5
3B3
330
1A
100
AcDbEntity
  8
BLACK
  6
CONTINUOUS
100
AcDbLine
 10
2.332909842519685
 20
2.13120531496063
 30
0
 11
2.3331496062992128
 21
2.1299999999999999
 31
0
  0
LINE
  5
3B4
330
1A
100
AcDbEntity
  8
BLACK
  6
CONTINUOUS
100
AcDbLine
 10
2.3331496062992128
 20
2.1299999999999999
 30
0
 11
2.3331496062992128
 21
2.0699999999999998
 31
0
  0
LINE
  5
3B5
330
1A
100
AcDbEntity
  8
BLACK
  6
CONTINUOUS
100
AcDbLine
 10
2.3331496062992128
 20
2.0699999999999998
 30
0
 11
2.332909842519685
 21
2.0687946850393701
 31
0
  0
LINE
  5
3B6
330
1A
100
AcDbEntity
  8
BLACK
  6
CONTINUOUS
100
AcDbLine
 10
2.332909842519685
 20
2.0687946850393701
 30
0
 11
2.332227125984252
 21
2.0677728740157479
 31
0
  0
LINE
  5
3B7
330
1A
100
AcDbEntity
  8
BLACK
  6
CONTINUOUS
100
AcDbLine
 10
2.332227125984252
 20
2.0677728740157479
 30
0
 11
2.3312053149606298
 21
2.0670901574803149
 31
0
  0
LINE
  5
3B8
330
1A
100
AcDbEntity
  8
BLACK
  6
CONTINUOUS
100
AcDbLine
 10
2.3312053149606298
 20
2.0670901574803149
 30
0
 11
2.3300000000000001
 21
2.0668503937007872
 31
0
  0
LINE
  5
3B9
330
1A
100
AcDbEntity
  8
BLACK
  6
CONTINUOUS
100
AcDbLine
 10
2.3300000000000001
 20
2.0668503937007872
 30
0
 11
2.27
 21
2.0668503937007872
 31
0
  0
LINE
  5
3BA
330
1A
100
AcDbEntity
  8
BLACK
  6
CONTINUOUS
100
AcDbLine
 10
2.27
 20
2.0668503937007872
 30
0
 11
2.2687946850393699
 21
2.0670901574803149
 31
0
  0
LINE
  5
3BB
330
1A
100
AcDbEntity
  8
BLACK
  6
CONTINUOUS
100
AcDbLine
 10
2.2687946850393699
 20
2.0670901574803149
 30
0
 11
2.2677728740157481
 21
2.0677728740157479
 31
0
  0
LINE
  5
3BC
330
1A
100
AcDbEntity
  8
BLACK
  6
CONTINUOUS
100
AcDbLine
 10
2.2677728740157481
 20
2.0677728740157479
 30
0
 11
2.2670901574803151
 21
2.0687946850393701
 31
0
  0
LINE
  5
3BD
330
1A
100
AcDbEntity
  8
BLACK
  6
CONTINUOUS
100
AcDbLine
 10
2.2670901574803151
 20
2.0687946850393701
 30
0
 11
2.2668503937007873
 21
2.0699999999999998
 31
0
  0
LINE
  5
3BE
330
1A
100
AcDbEntity
  8
BLACK
  6
CONTINUOUS
100
AcDbLine
 10
2.2668503937007873
 20
2.0699999999999998
 30
0
 11
2.2668503937007873
 21
2.1299999999999999
 31
0
  0
LINE
  5
3BF
330
1A
100
AcDbEntity
  8
BLACK
  6
CONTINUOUS
100
AcDbLine
 10
2.2668503937007873
 20
2.1299999999999999
 30
0
 11
2.2670901574803151
 21
2.13120531496063
 31
0
  0
LINE
  5
3C0
330
1A
100
AcDbEntity
  8
BLACK
  6
CONTINUOUS
100
AcDbLine
 10
2.2670901574803151
 20
2.13120531496063
 30
0
 11
2.2677728740157481
 21
2.1322271259842518
 31
0
  0
LINE
  5
3C1
330
1A
100
AcDbEntity
  8
BLACK
  6
CONTINUOUS
100
AcDbLine
 10
2.2677728740157481
 20
2.1322271259842518
 30
0
 11
2.2687946850393699
 21
2.1329098425196849
 31
0
  0
LINE
  5
3C2
330
1A
100
AcDbEntity
  8
BLACK
  6
CONTINUOUS
100
AcDbLine
 10
2.2687946850393699
 20
2.1329098425196849
 30
0
 11
2.27
 21
2.1331496062992126
 31
0
  0
LINE
  5
3C3
330
1A
100
AcDbEntity
  8
BLACK
  6
CONTINUOUS
100
AcDbLine
 10
2.27
 20
2.1331496062992126
 30
0
 11
2.3300000000000001
 21
2.1331496062992126
 31
0
  0
LINE
  5
3C4
330
1A
100
AcDbEntity
  8
BLACK
  6
CONTINUOUS
100
AcDbLine
 10
2.3300000000000001
 20
2.1331496062992126
 30
0
 11
2.3312053149606298
 21
2.1329098425196849
 31
0
  0
CIRCLE
  5
3C5
330
1A
100
AcDbEntity
  8
BLACK
100
AcDbCircle
 10
0.4
 20
2.
 30
0
 40
0.0068897637795276
  0
CIRCLE
  5
3C6
330
1A
100
AcDbEntity
  8
BLACK
100
AcDbCircle
 10
2.7999999999999998
 20
2.
 30
0
 40
0.0068897637795276
  0
CIRCLE
  5
3C7
330
1A
100
AcDbEntity
  8
BLACK
100
AcDbCircle
 10
0.4
 20
0.4
 30
0
 40
0.0068897637795276
  0
CIRCLE
  5
3C8
330
1A
100
AcDbEntity
  8
BLACK
100
AcDbCircle
 10
2.7999999999999998
 20
0.4
 30
0
 40
0.0068897637795276
  0
CIRCLE
  5
3C9
330
1A
100
AcDbEntity
  8
BLACK
100
AcDbCircle
 10
2.3395433070866143
 20
0.9159999999999999
 30
0
 40
0.0068897637795276
  0
CIRCLE
  5
3CA
330
1A
100
AcDbEntity
  8
BLACK
100
AcDbCircle
 10
2.3395433070866143
 20
1.1128503937007874
 30
0
 40
0.0068897637795276
  0
CIRCLE
  5
3CB
330
1A
100
AcDbEntity
  8
BLACK
100
AcDbCircle
 10
0.9
 20
2.1000000000000001
 30
0
 40
0.0068897637795276
  0
CIRCLE
  5
3CC
330
1A
100
AcDbEntity
  8
BLACK
100
AcDbCircle
 10
0.9
 20
2.
 30
0
 40
0.0068897637795276
  0
CIRCLE
  5
3CD
330
1A
100
AcDbEntity
  8
BLACK
100
AcDbCircle
 10
1.
 20
2.1000000000000001
 30
0
 40
0.0068897637795276
  0
CIRCLE
  5
3CE
330
1A
100
AcDbEntity
  8
BLACK
100
AcDbCircle
 10
1.
 20
2.
 30
0
 40
0.0068897637795276
  0
CIRCLE
  5
3CF
330
1A
100
AcDbEntity
  8
BLACK
100
AcDbCircle
 10
1.0999999999999999
 20
2.1000000000000001
 30
0
 40
0.0068897637795276
  0
CIRCLE
  5
3D0
330
1A
100
AcDbEntity
  8
BLACK
100
AcDbCircle
 10
1.0999999999999999
 20
2.
 30
0
 40
0.0068897637795276
  0
CIRCLE
  5
3D1
330
1A
100
AcDbEntity
  8
BLACK
100
AcDbCircle
 10
1.2
 20
2.1000000000000001
 30
0
 40
0.0068897637795276
  0
CIRCLE
  5
3D2
330
1A
100
AcDbEntity
  8
BLACK
100
AcDbCircle
 10
1.2
 20
2.
 30
0
 40
0.0068897637795276
  0
CIRCLE
  5
3D3
330
1A
100
AcDbEntity
  8
BLACK
100
AcDbCircle
 10
1.3
 20
2.1000000000000001
 30
0
 40
0.0068897637795276
  0
CIRCLE
  5
3D4
330
1A
100
AcDbEntity
  8
BLACK
100
AcDbCircle
 10
1.3
 20
2.
 30
0
 40
0.0068897637795276
  0
CIRCLE
  5
3D5
330
1A
100
AcDbEntity
  8
BLACK
100
AcDbCircle
 10
1.3999999999999999
 20
2.1000000000000001
 30
0
 40
0.0068897637795276
  0
CIRCLE
  5
3D6
330
1A
100
AcDbEntity
  8
BLACK
100
AcDbCircle
 10
1.3999999999999999
 20
2.
 30
0
 40
0.0068897637795276
  0
CIRCLE
  5
3D7
330
1A
100
AcDbEntity
  8
BLACK
100
AcDbCircle
 10
1.5
 20
2.1000000000000001
 30
0
 40
0.0068897637795276
  0
CIRCLE
  5
3D8
330
1A
100
AcDbEntity
  8
BLACK
100
AcDbCircle
 10
1.5
 20
2.
 30
0
 40
0.0068897637795276
  0
CIRCLE
  5
3D9
330
1A
100
AcDbEntity
  8
BLACK
100
AcDbCircle
 10
1.5999999999999999
 20
2.1000000000000001
 30
0
 40
0.0068897637795276
  0
CIRCLE
  5
3DA
330
1A
100
AcDbEntity
  8
BLACK
100
AcDbCircle
 10
1.5999999999999999
 20
2.
 30
0
 40
0.0068897637795276
  0
CIRCLE
  5
3DB
330
1A
100
AcDbEntity
  8
BLACK
100
AcDbCircle
 10
1.7
 20
2.1000000000000001
 30
0
 40
0.0068897637795276
  0
CIRCLE
  5
3DC
330
1A
100
AcDbEntity
  8
BLACK
100
AcDbCircle
 10
1.7
 20
2.
 30
0
 40
0.0068897637795276
  0
CIRCLE
  5
3DD
330
1A
100
AcDbEntity
  8
BLACK
100
AcDbCircle
 10
1.8
 20
2.1000000000000001
 30
0
 40
0.0068897637795276
  0
CIRCLE
  5
3DE
330
1A
100
AcDbEntity
  8
BLACK
100
AcDbCircle
 10
1.8
 20
2.
 30
0
 40
0.0068897637795276
  0
CIRCLE
  5
3DF
330
1A
100
AcDbEntity
  8
BLACK
100
AcDbCircle
 10
1.8999999999999999
 20
2.1000000000000001
 30
0
 40
0.0068897637795276
  0
CIRCLE
  5
3E0
330
1A
100
AcDbEntity
  8
BLACK
100
AcDbCircle
 10
1.8999999999999999
 20
2.
 30
0
 40
0.0068897637795276
  0
CIRCLE
  5
3E1
330
1A
100
AcDbEntity
  8
BLACK
100
AcDbCircle
 10
2.
 20
2.1000000000000001
 30
0
 40
0.0068897637795276
  0
CIRCLE
  5
3E2
330
1A
100
AcDbEntity
  8
BLACK
100
AcDbCircle
 10
2.
 20
2.
 30
0
 40
0.0068897637795276
  0
CIRCLE
  5
3E3
330
1A
100
AcDbEntity
  8
BLACK
100
AcDbCircle
 10
2.1000000000000001
 20
2.1000000000000001
 30
0
 40
0.0068897637795276
  0
CIRCLE
  5
3E4
330
1A
100
AcDbEntity
  8
BLACK
100
AcDbCircle
 10
2.1000000000000001
 20
2.
 30
0
 40
0.0068897637795276
  0
CIRCLE
  5
3E5
330
1A
100
AcDbEntity
  8
BLACK
100
AcDbCircle
 10
2.1999999999999997
 20
2.1000000000000001
 30
0
 40
0.0068897637795276
  0
CIRCLE
  5
3E6
330
1A
100
AcDbEntity
  8
BLACK
100
AcDbCircle
 10
2.1999999999999997
 20
2.
 30
0
 40
0.0068897637795276
  0
CIRCLE
  5
3E7
330
1A
100
AcDbEntity
  8
BLACK
100
AcDbCircle
 10
2.2999999999999998
 20
2.1000000000000001
 30
0
 40
0.0068897637795276
  0
CIRCLE
  5
3E8
330
1A
100
AcDbEntity
  8
BLACK
100
AcDbCircle
 10
2.2999999999999998
 20
2.
 30
0
 40
0.0068897637795276
  0
CIRCLE
  5
3E9
330
1A
100
AcDbEntity
  8
WHITE
100
AcDbCircle
 10
0.4
 20
2.
 30
0
 40
0.0068897637795276
  0
CIRCLE
  5
3EA
330
1A
100
AcDbEntity
  8
WHITE
100
AcDbCircle
 10
2.7999999999999998
 20
2.
 30
0
 40
0.0068897637795276
  0
CIRCLE
  5
3EB
330
1A
100
AcDbEntity
  8
WHITE
100
AcDbCircle
 10
0.4
 20
0.4
 30
0
 40
0.0068897637795276
  0
CIRCLE
  5
3EC
330
1A
100
AcDbEntity
  8
WHITE
100
AcDbCircle
 10
2.7999999999999998
 20
0.4
 30
0
 40
0.0068897637795276
  0
CIRCLE
  5
3ED
330
1A
100
AcDbEntity
  8
WHITE
100
AcDbCircle
 10
2.3395433070866143
 20
0.9159999999999999
 30
0
 40
0.0068897637795276
  0
CIRCLE
  5
3EE
330
1A
100
AcDbEntity
  8
WHITE
100
AcDbCircle
 10
2.3395433070866143
 20
1.1128503937007874
 30
0
 40
0.0068897637795276
  0
CIRCLE
  5
3EF
330
1A
100
AcDbEntity
  8
WHITE
100
AcDbCircle
 10
0.9
 20
2.1000000000000001
 30
0
 40
0.0068897637795276
  0
CIRCLE
  5
3F0
330
1A
100
AcDbEntity
  8
WHITE
100
AcDbCircle
 10
0.9
 20
2.
 30
0
 40
0.0068897637795276
  0
CIRCLE
  5
3F1
330
1A
100
AcDbEntity
  8
WHITE
100
AcDbCircle
 10
1.
 20
2.1000000000000001
 30
0
 40
0.0068897637795276
  0
CIRCLE
  5
3F2
330
1A
100
AcDbEntity
  8
WHITE
100
AcDbCircle
 10
1.
 20
2.
 30
0
 40
0.0068897637795276
  0
CIRCLE
  5
3F3
330
1A
100
AcDbEntity
  8
WHITE
100
AcDbCircle
 10
1.0999999999999999
 20
2.1000000000000001
 30
0
 40
0.0068897637795276
  0
CIRCLE
  5
3F4
330
1A
100
AcDbEntity
  8
WHITE
100
AcDbCircle
 10
1.0999999999999999
 20
2.
 30
0
 40
0.0068897637795276
  0
CIRCLE
  5
3F5
330
1A
100
AcDbEntity
  8
WHITE
100
AcDbCircle
 10
1.2
 20
2.1000000000000001
 30
0
 40
0.0068897637795276
  0
CIRCLE
  5
3F6
330
1A
100
AcDbEntity
  8
WHITE
100
AcDbCircle
 10
1.2
 20
2.
 30
0
 40
0.0068897637795276
  0
CIRCLE
  5
3F7
330
1A
100
AcDbEntity
  8
WHITE
100
AcDbCircle
 10
1.3
 20
2.1000000000000001
 30
0
 40
0.0068897637795276
  0
CIRCLE
  5
3F8
330
1A
100
AcDbEntity
  8
WHITE
100
AcDbCircle
 10
1.3
 20
2.
 30
0
 40
0.0068897637795276
  0
CIRCLE
  5
3F9
330
1A
100
AcDbEntity
  8
WHITE
100
AcDbCircle
 10
1.3999999999999999
 20
2.1000000000000001
 30
0
 40
0.0068897637795276
  0
CIRCLE
  5
3FA
330
1A
100
AcDbEntity
  8
WHITE
100
AcDbCircle
 10
1.3999999999999999
 20
2.
 30
0
 40
0.0068897637795276
  0
CIRCLE
  5
3FB
330
1A
100
AcDbEntity
  8
WHITE
100
AcDbCircle
 10
1.5
 20
2.1000000000000001
 30
0
 40
0.0068897637795276
  0
CIRCLE
  5
3FC
330
1A
100
AcDbEntity
  8
WHITE
100
AcDbCircle
 10
1.5
 20
2.
 30
0
 40
0.0068897637795276
  0
CIRCLE
  5
3FD
330
1A
100
AcDbEntity
  8
WHITE
100
AcDbCircle
 10
1.5999999999999999
 20
2.1000000000000001
 30
0
 40
0.0068897637795276
  0
CIRCLE
  5
3FE
330
1A
100
AcDbEntity
  8
WHITE
100
AcDbCircle
 10
1.5999999999999999
 20
2.
 30
0
 40
0.0068897637795276
  0
CIRCLE
  5
3FF
330
1A
100
AcDbEntity
  8
WHITE
100
AcDbCircle
 10
1.7
 20
2.1000000000000001
 30
0
 40
0.0068897637795276
  0
CIRCLE
  5
400
330
1A
100
AcDbEntity
  8
WHITE
100
AcDbCircle
 10
1.7
 20
2.
 30
0
 40
0.0068897637795276
  0
CIRCLE
  5
401
330
1A
100
AcDbEntity
  8
WHITE
100
AcDbCircle
 10
1.8
 20
2.1000000000000001
 30
0
 40
0.0068897637795276
  0
CIRCLE
  5
402
330
1A
100
AcDbEntity
  8
WHITE
100
AcDbCircle
 10
1.8
 20
2.
 30
0
 40
0.0068897637795276
  0
CIRCLE
  5
403
330
1A
100
AcDbEntity
  8
WHITE
100
AcDbCircle
 10
1.8999999999999999
 20
2.1000000000000001
 30
0
 40
0.0068897637795276
  0
CIRCLE
  5
404
330
1A
100
AcDbEntity
  8
WHITE
100
AcDbCircle
 10
1.8999999999999999
 20
2.
 30
0
 40
0.0068897637795276
  0
CIRCLE
  5
405
330
1A
100
AcDbEntity
  8
WHITE
100
AcDbCircle
 10
2.
 20
2.1000000000000001
 30
0
 40
0.0068897637795276
  0
CIRCLE
  5
406
330
1A
100
AcDbEntity
  8
WHITE
100
AcDbCircle
 10
2.
 20
2.
 30
0
 40
0.0068897637795276
  0
CIRCLE
  5
407
330
1A
100
AcDbEntity
  8
WHITE
100
AcDbCircle
 10
2.1000000000000001
 20
2.1000000000000001
 30
0
 40
0.0068897637795276
  0
CIRCLE
  5
408
330
1A
100
AcDbEntity
  8
WHITE
100
AcDbCircle
 10
2.1000000000000001
 20
2.
 30
0
 40
0.0068897637795276
  0
CIRCLE
  5
409
330
1A
100
AcDbEntity
  8
WHITE
100
AcDbCircle
 10
2.1999999999999997
 20
2.1000000000000001
 30
0
 40
0.0068897637795276
  0
CIRCLE
  5
40A
330
1A
100
AcDbEntity
  8
WHITE
100
AcDbCircle
 10
2.1999999999999997
 20
2.
 30
0
 40
0.0068897637795276
  0
CIRCLE
  5
40B
330
1A
100
AcDbEntity
  8
WHITE
100
AcDbCircle
 10
2.2999999999999998
 20
2.1000000000000001
 30
0
 40
0.0068897637795276
  0
CIRCLE
  5
40C
330
1A
100
AcDbEntity
  8
WHITE
100
AcDbCircle
 10
2.2999999999999998
 20
2.
 30
0
 40
0.0068897637795276
  0
ENDSEC
  0
SECTION
  2
OBJECTS
  0
DICTIONARY
  5
20
330
0
100
AcDbDictionary
281
1
  3
ACAD_GROUP
350
40D
  3
ACAD_LAYOUT
350
21
  3
ACAD_PLOTSTYLENAME
350
11
  0
DICTIONARY
  5
40D
330
20
100
AcDbDictionary
281
1
  0
ACDBDICTIONARYWDFLT
  5
11
330
20
100
AcDbDictionary
281
1
  3
Normal
350
10
100
AcDbDictionaryWithDefault
340
10
  0
ACDBPLACEHOLDER
  5
10
330
11
  0
DICTIONARY
  5
21
330
20
100
AcDbDictionary
281
1
  3
Model
350
1D
  3
Layout1
350
1E
  3
Layout2
350
1F
  0
LAYOUT
  5
1D
330
21
100
AcDbPlotSettings
  1

  2
none_device
  4
A3
  6

 40
0.0
 41
0.0
 42
0.0
 43
0.0
 44
420.0
 45
297.0
 46
0.0
 47
0.0
 48
0.0
 49
0.0
140
0.0
141
0.0
142
1.0
143
1.0
 70
1024
 72
1
 73
0
 74
5
  7

 75
16
 76
0
 77
2
 78
300
147
1.0
148
0.0
149
0.0
100
AcDbLayout
  1
Model
 70
1
 71
0
 10
0.0
 20
0.0
 11
420.0
 21
297.0
 12
0.0
 22
0.0
 32
0.0
 14
1e+20
 24
1e+20
 34
1e+20
 15
-1e+20
 25
-1e+20
 35
-1e+20
146
0.0
 13
0.0
 23
0.0
 33
0.0
 16
1.0
 26
0.0
 36
0.0
 17
0.0
 27
1.0
 37
0.0
 76
0
330
1A
  0
LAYOUT
  5
1E
330
21
100
AcDbPlotSettings
  1

  2
none_device
  4
A3
  6

 40
0.0
 41
0.0
 42
0.0
 43
0.0
 44
420.0
 45
297.0
 46
0.0
 47
0.0
 48
0.0
 49
0.0
140
0.0
141
0.0
142
1.0
143
1.0
 70
0
 72
1
 73
0
 74
5
  7

 75
16
 76
0
 77
2
 78
300
147
1.0
148
0.0
149
0.0
100
AcDbLayout
  1
Layout1
 70
1
 71
1
 10
0.0
 20
0.0
 11
420.0
 21
297.0
 12
0.0
 22
0.0
 32
0.0
 14
1e+20
 24
1e+20
 34
1e+20
 15
-1e+20
 25
-1e+20
 35
-1e+20
146
0.0
 13
0.0
 23
0.0
 33
0.0
 16
1.0
 26
0.0
 36
0.0
 17
0.0
 27
1.0
 37
0.0
 76
0
330
1B
  0
LAYOUT
  5
1F
330
21
100
AcDbPlotSettings
  1

  2
none_device
  4
A3
  6

 40
0.0
 41
0.0
 42
0.0
 43
0.0
 44
420.0
 45
297.0
 46
0.0
 47
0.0
 48
0.0
 49
0.0
140
0.0
141
0.0
142
1.0
143
1.0
 70
0
 72
1
 73
0
 74
5
  7

 75
16
 76
0
 77
2
 78
300
147
1.0
148
0.0
149
0.0
100
AcDbLayout
  1
Layout2
 70
1
 71
2
 10
0.0
 20
0.0
 11
420.0
 21
297.0
 12
0.0
 22
0.0
 32
0.0
 14
1e+20
 24
1e+20
 34
1e+20
 15
-1e+20
 25
-1e+20
 35
-1e+20
146
0.0
 13
0.0
 23
0.0
 33
0.0
 16
1.0
 26
0.0
 36
0.0
 17
0.0
 27
1.0
 37
0.0
 76
0
330
1C
  0
ENDSEC
  0
EOF
