  0
SECTION
  2
HEADER
  9
$ANGBASE
  50
0.0
  9
$ANGDIR
  70
1
  9
$MEASUREMENT
  70
0
  0
ENDSEC
  0
SECTION
  2
TABLES
  0
TABLE
  2
LTYPE
  70
4
  0
LTYPE
  5
40F
  2
CONTINUOUS
  70
0
  3
Solid line
  72
65
  73
0
  40
0.0
  0
LTYPE
  5
410
  2
DASHDOT
 70
0
  3
Dash Dot ____ _ ____ _
 72
65
 73
4
 40
2.0
 49
1.25
 49
-0.25
 49
0.25
 49
-0.25
  0
LTYPE
  5
411
  2
DASHED
 70
0
  3
Dashed __ __ __ __ __
 72
65
 73
2
 40
0.75
 49
0.5
 49
-0.25
  0
LTYPE
  5
43B
  2
DOTTED
 70
0
  3
Dotted .  .  .  .
 72
65
 73
2
 40
0.2
 49
0.0
 49
-0.2
  0
ENDTAB
  0
TABLE
  2
STYLE
  70
4
  0
STYLE
  2
KICAD
  70
0
  40
0
  41
1
  42
1
  50
0
  71
0
  3
isocp.shx
  0
STYLE
  2
KICADB
  70
0
  40
0
  41
1
  42
1
  50
0
  71
0
  3
isocp.shx
  0
STYLE
  2
KICADI
  70
0
  40
0
  41
1
  42
1
  50
15
  71
0
  3
isocp.shx
  0
STYLE
  2
KICADBI
  70
0
  40
0
  41
1
  42
1
  50
15
  71
0
  3
isocp.shx
  0
ENDTAB
  0
TABLE
  2
LAYER
  70
1
  0
LAYER
  2
BLACK
  70
0
  62
7
  6
CONTINUOUS
  0
ENDTAB
  0
ENDSEC
  0
SECTION
  2
ENTITIES
0
LINE
8
BLACK
6
CONTINUOUS
10
3.2352067716535431
20
2.0028960236220472
11
3.2362711811023623
21
2.0024551181102361
0
LINE
8
BLACK
6
CONTINUOUS
10
3.2362711811023623
20
2.0024551181102361
11
3.2370858267716534
21
2.0016404724409447
0
LINE
8
BLACK
6
CONTINUOUS
10
3.2370858267716534
20
2.0016404724409447
11
3.2375267322834644
21
2.0005760629921259
0
LINE
8
BLACK
6
CONTINUOUS
10
3.2375267322834644
20
2.0005760629921259
11
3.2375267322834644
21
1.9994239370078739
0
LINE
8
BLACK
6
CONTINUOUS
10
3.2375267322834644
20
1.9994239370078739
11
3.2370858267716534
21
1.9983595275590551
0
LINE
8
BLACK
6
CONTINUOUS
10
3.2370858267716534
20
1.9983595275590551
11
3.2362711811023623
21
1.9975448818897636
0
LINE
8
BLACK
6
CONTINUOUS
10
3.2362711811023623
20
1.9975448818897636
11
3.2352067716535431
21
1.9971039763779528
0
LINE
8
BLACK
6
CONTINUOUS
10
3.2352067716535431
20
1.9971039763779528
11
3.2346307086614172
21
1.9970472440944882
0
LINE
8
BLACK
6
CONTINUOUS
10
3.2346307086614172
20
1.9970472440944882
11
3.2164092913385827
21
1.9970472440944882
0
LINE
8
BLACK
6
CONTINUOUS
10
3.2164092913385827
20
1.9970472440944882
11
3.2372498818897637
21
1.957012874015748
0
LINE
8
BLACK
6
CONTINUOUS
10
3.2372498818897637
20
1.957012874015748
11
3.2374655511811024
21
1.9564757086614173
0
LINE
8
BLACK
6
CONTINUOUS
10
3.2374655511811024
20
1.9564757086614173
11
3.2375659448818896
21
1.9553279921259843
0
LINE
8
BLACK
6
CONTINUOUS
10
3.2375659448818896
20
1.9553279921259843
11
3.2372194881889764
21
1.9542292125984251
0
LINE
8
BLACK
6
CONTINUOUS
10
3.2372194881889764
20
1.9542292125984251
11
3.2364789370078739
21
1.9533466535433071
0
LINE
8
BLACK
6
CONTINUOUS
10
3.2364789370078739
20
1.9533466535433071
11
3.2354570078740155
21
1.9528146456692912
0
LINE
8
BLACK
6
CONTINUOUS
10
3.2354570078740155
20
1.9528146456692912
11
3.2343092913385827
21
1.9527142519685039
0
LINE
8
BLACK
6
CONTINUOUS
10
3.2343092913385827
20
1.9527142519685039
11
3.2332105118110235
21
1.9530607086614173
0
LINE
8
BLACK
6
CONTINUOUS
10
3.2332105118110235
20
1.9530607086614173
11
3.2323279527559055
21
1.9538012598425196
0
LINE
8
BLACK
6
CONTINUOUS
10
3.2323279527559055
20
1.9538012598425196
11
3.2320116141732282
21
1.9542860236220472
0
LINE
8
BLACK
6
CONTINUOUS
10
3.2320116141732282
20
1.9542860236220472
11
3.2144960629921258
21
1.9879331102362203
0
LINE
8
BLACK
6
CONTINUOUS
10
3.2144960629921258
20
1.9879331102362203
11
3.2144960629921258
21
0.4120669291338583
0
LINE
8
BLACK
6
CONTINUOUS
10
3.2144960629921258
20
0.4120669291338583
11
3.2320116141732282
21
0.4457139763779527
0
LINE
8
BLACK
6
CONTINUOUS
10
3.2320116141732282
20
0.4457139763779527
11
3.2323279527559055
21
0.4461987401574803
0
LINE
8
BLACK
6
CONTINUOUS
10
3.2323279527559055
20
0.4461987401574803
11
3.2332105118110235
21
0.4469392913385827
0
LINE
8
BLACK
6
CONTINUOUS
10
3.2332105118110235
20
0.4469392913385827
11
3.2343092913385827
21
0.4472857480314961
0
LINE
8
BLACK
6
CONTINUOUS
10
3.2343092913385827
20
0.4472857480314961
11
3.2354570078740155
21
0.4471853543307087
0
LINE
8
BLACK
6
CONTINUOUS
10
3.2354570078740155
20
0.4471853543307087
11
3.2364789370078739
21
0.4466533464566929
0
LINE
8
BLACK
6
CONTINUOUS
10
3.2364789370078739
20
0.4466533464566929
11
3.2372194881889764
21
0.4457707874015748
0
LINE
8
BLACK
6
CONTINUOUS
10
3.2372194881889764
20
0.4457707874015748
11
3.2375659448818896
21
0.4446720078740157
0
LINE
8
BLACK
6
CONTINUOUS
10
3.2375659448818896
20
0.4446720078740157
11
3.2374655511811024
21
0.4435242913385827
0
LINE
8
BLACK
6
CONTINUOUS
10
3.2374655511811024
20
0.4435242913385827
11
3.2372498818897637
21
0.4429871259842519
0
LINE
8
BLACK
6
CONTINUOUS
10
3.2372498818897637
20
0.4429871259842519
11
3.2164092913385827
21
0.4029527559055118
0
LINE
8
BLACK
6
CONTINUOUS
10
3.2164092913385827
20
0.4029527559055118
11
3.2346307086614172
21
0.4029527559055118
0
LINE
8
BLACK
6
CONTINUOUS
10
3.2346307086614172
20
0.4029527559055118
11
3.2352067716535431
21
0.4028960236220472
0
LINE
8
BLACK
6
CONTINUOUS
10
3.2352067716535431
20
0.4028960236220472
11
3.2362711811023623
21
0.4024551181102362
0
LINE
8
BLACK
6
CONTINUOUS
10
3.2362711811023623
20
0.4024551181102362
11
3.2370858267716534
21
0.4016404724409449
0
LINE
8
BLACK
6
CONTINUOUS
10
3.2370858267716534
20
0.4016404724409449
11
3.2375267322834644
21
0.4005760629921259
0
LINE
8
BLACK
6
CONTINUOUS
10
3.2375267322834644
20
0.4005760629921259
11
3.2375267322834644
21
0.399423937007874
0
LINE
8
BLACK
6
CONTINUOUS
10
3.2375267322834644
20
0.399423937007874
11
3.2370858267716534
21
0.3983595275590551
0
LINE
8
BLACK
6
CONTINUOUS
10
3.2370858267716534
20
0.3983595275590551
11
3.2362711811023623
21
0.3975448818897638
0
LINE
8
BLACK
6
CONTINUOUS
10
3.2362711811023623
20
0.3975448818897638
11
3.2352067716535431
21
0.3971039763779527
0
LINE
8
BLACK
6
CONTINUOUS
10
3.2352067716535431
20
0.3971039763779527
11
3.2346307086614172
21
0.3970472440944882
0
LINE
8
BLACK
6
CONTINUOUS
10
3.2346307086614172
20
0.3970472440944882
11
2.8196850393700785
21
0.3970472440944882
0
LINE
8
BLACK
6
CONTINUOUS
10
2.8196850393700785
20
0.3970472440944882
11
2.8191089763779527
21
0.3971039763779527
0
LINE
8
BLACK
6
CONTINUOUS
10
2.8191089763779527
20
0.3971039763779527
11
2.8180445669291339
21
0.3975448818897638
0
LINE
8
BLACK
6
CONTINUOUS
10
2.8180445669291339
20
0.3975448818897638
11
2.8172299212598424
21
0.3983595275590551
0
LINE
8
BLACK
6
CONTINUOUS
10
2.8172299212598424
20
0.3983595275590551
11
2.8167890157480313
21
0.399423937007874
0
LINE
8
BLACK
6
CONTINUOUS
10
2.8167890157480313
20
0.399423937007874
11
2.8167890157480313
21
0.4005760629921259
0
LINE
8
BLACK
6
CONTINUOUS
10
2.8167890157480313
20
0.4005760629921259
11
2.8172299212598424
21
0.4016404724409449
0
LINE
8
BLACK
6
CONTINUOUS
10
2.8172299212598424
20
0.4016404724409449
11
2.8180445669291339
21
0.4024551181102362
0
LINE
8
BLACK
6
CONTINUOUS
10
2.8180445669291339
20
0.4024551181102362
11
2.8191089763779527
21
0.4028960236220472
0
LINE
8
BLACK
6
CONTINUOUS
10
2.8191089763779527
20
0.4028960236220472
11
2.8196850393700785
21
0.4029527559055118
0
LINE
8
BLACK
6
CONTINUOUS
10
2.8196850393700785
20
0.4029527559055118
11
3.2066773228346457
21
0.4029527559055118
0
LINE
8
BLACK
6
CONTINUOUS
10
3.2066773228346457
20
0.4029527559055118
11
3.1858367322834646
21
0.4429871259842519
0
LINE
8
BLACK
6
CONTINUOUS
10
3.1858367322834646
20
0.4429871259842519
11
3.185621062992126
21
0.4435242913385827
0
LINE
8
BLACK
6
CONTINUOUS
10
3.185621062992126
20
0.4435242913385827
11
3.1855206692913387
21
0.4446720078740157
0
LINE
8
BLACK
6
CONTINUOUS
10
3.1855206692913387
20
0.4446720078740157
11
3.1858670866141732
21
0.4457707874015748
0
LINE
8
BLACK
6
CONTINUOUS
10
3.1858670866141732
20
0.4457707874015748
11
3.1866076377952757
21
0.4466533464566929
0
LINE
8
BLACK
6
CONTINUOUS
10
3.1866076377952757
20
0.4466533464566929
11
3.1876296062992124
21
0.4471853543307087
0
LINE
8
BLACK
6
CONTINUOUS
10
3.1876296062992124
20
0.4471853543307087
11
3.1887773228346457
21
0.4472857480314961
0
LINE
8
BLACK
6
CONTINUOUS
10
3.1887773228346457
20
0.4472857480314961
11
3.1898761023622049
21
0.4469393307086614
0
LINE
8
BLACK
6
CONTINUOUS
10
3.1898761023622049
20
0.4469393307086614
11
3.1907586614173229
21
0.446198779527559
0
LINE
8
BLACK
6
CONTINUOUS
10
3.1907586614173229
20
0.446198779527559
11
3.1910750000000001
21
0.4457139763779527
0
LINE
8
BLACK
6
CONTINUOUS
10
3.1910750000000001
20
0.4457139763779527
11
3.2085905511811021
21
0.4120669291338583
0
LINE
8
BLACK
6
CONTINUOUS
10
3.2085905511811021
20
0.4120669291338583
11
3.2085905511811021
21
1.9879331102362203
0
LINE
8
BLACK
6
CONTINUOUS
10
3.2085905511811021
20
1.9879331102362203
11
3.1910750000000001
21
1.9542860236220472
0
LINE
8
BLACK
6
CONTINUOUS
10
3.1910750000000001
20
1.9542860236220472
11
3.1907586614173229
21
1.9538012204724409
0
LINE
8
BLACK
6
CONTINUOUS
10
3.1907586614173229
20
1.9538012204724409
11
3.1898761023622049
21
1.9530606692913386
0
LINE
8
BLACK
6
CONTINUOUS
10
3.1898761023622049
20
1.9530606692913386
11
3.1887773228346457
21
1.9527142519685039
0
LINE
8
BLACK
6
CONTINUOUS
10
3.1887773228346457
20
1.9527142519685039
11
3.1876296062992124
21
1.9528146456692912
0
LINE
8
BLACK
6
CONTINUOUS
10
3.1876296062992124
20
1.9528146456692912
11
3.1866076377952757
21
1.9533466535433071
0
LINE
8
BLACK
6
CONTINUOUS
10
3.1866076377952757
20
1.9533466535433071
11
3.1858670866141732
21
1.9542292125984251
0
LINE
8
BLACK
6
CONTINUOUS
10
3.1858670866141732
20
1.9542292125984251
11
3.1855206692913387
21
1.9553279921259843
0
LINE
8
BLACK
6
CONTINUOUS
10
3.1855206692913387
20
1.9553279921259843
11
3.185621062992126
21
1.9564757086614173
0
LINE
8
BLACK
6
CONTINUOUS
10
3.185621062992126
20
1.9564757086614173
11
3.1858367322834646
21
1.957012874015748
0
LINE
8
BLACK
6
CONTINUOUS
10
3.1858367322834646
20
1.957012874015748
11
3.2066773228346457
21
1.9970472440944882
0
LINE
8
BLACK
6
CONTINUOUS
10
3.2066773228346457
20
1.9970472440944882
11
2.8196850393700785
21
1.9970472440944882
0
LINE
8
BLACK
6
CONTINUOUS
10
2.8196850393700785
20
1.9970472440944882
11
2.8191089763779527
21
1.9971039763779528
0
LINE
8
BLACK
6
CONTINUOUS
10
2.8191089763779527
20
1.9971039763779528
11
2.8180445669291339
21
1.9975448818897636
0
LINE
8
BLACK
6
CONTINUOUS
10
2.8180445669291339
20
1.9975448818897636
11
2.8172299212598424
21
1.9983595275590551
0
LINE
8
BLACK
6
CONTINUOUS
10
2.8172299212598424
20
1.9983595275590551
11
2.8167890157480313
21
1.9994239370078739
0
LINE
8
BLACK
6
CONTINUOUS
10
2.8167890157480313
20
1.9994239370078739
11
2.8167890157480313
21
2.0005760629921259
0
LINE
8
BLACK
6
CONTINUOUS
10
2.8167890157480313
20
2.0005760629921259
11
2.8172299212598424
21
2.0016404724409447
0
LINE
8
BLACK
6
CONTINUOUS
10
2.8172299212598424
20
2.0016404724409447
11
2.8180445669291339
21
2.0024551181102361
0
LINE
8
BLACK
6
CONTINUOUS
10
2.8180445669291339
20
2.0024551181102361
11
2.8191089763779527
21
2.0028960236220472
0
LINE
8
BLACK
6
CONTINUOUS
10
2.8191089763779527
20
2.0028960236220472
11
2.8196850393700785
21
2.0029527559055116
0
LINE
8
BLACK
6
CONTINUOUS
10
2.8196850393700785
20
2.0029527559055116
11
3.2346307086614172
21
2.0029527559055116
0
LINE
8
BLACK
6
CONTINUOUS
10
3.2346307086614172
20
2.0029527559055116
11
3.2352067716535431
21
2.0028960236220472
0
LINE
8
BLACK
6
CONTINUOUS
10
3.1726910629921261
20
1.0824701574803148
11
3.1735057086614171
21
1.0816555118110236
0
LINE
8
BLACK
6
CONTINUOUS
10
3.1735057086614171
20
1.0816555118110236
11
3.1739466141732282
21
1.0805911023622048
0
LINE
8
BLACK
6
CONTINUOUS
10
3.1739466141732282
20
1.0805911023622048
11
3.174003346456693
21
1.0800150393700787
0
LINE
8
BLACK
6
CONTINUOUS
10
3.174003346456693
20
1.0800150393700787
11
3.174003346456693
21
1.0773435039370078
0
LINE
8
BLACK
6
CONTINUOUS
10
3.174003346456693
20
1.0773435039370078
11
3.1841739763779526
21
1.0773435039370078
0
LINE
8
BLACK
6
CONTINUOUS
10
3.1841739763779526
20
1.0773435039370078
11
3.1847500393700785
21
1.0772867716535433
0
LINE
8
BLACK
6
CONTINUOUS
10
3.1847500393700785
20
1.0772867716535433
11
3.1858144488188977
21
1.0768458661417322
0
LINE
8
BLACK
6
CONTINUOUS
10
3.1858144488188977
20
1.0768458661417322
11
3.1866290944881888
21
1.0760312204724409
0
LINE
8
BLACK
6
CONTINUOUS
10
3.1866290944881888
20
1.0760312204724409
11
3.1870699999999998
21
1.0749668110236221
0
LINE
8
BLACK
6
CONTINUOUS
10
3.1870699999999998
20
1.0749668110236221
11
3.1870699999999998
21
1.0738146850393702
0
LINE
8
BLACK
6
CONTINUOUS
10
3.1870699999999998
20
1.0738146850393702
11
3.1866290944881888
21
1.0727502755905511
0
LINE
8
BLACK
6
CONTINUOUS
10
3.1866290944881888
20
1.0727502755905511
11
3.1858144488188977
21
1.0719356299212599
0
LINE
8
BLACK
6
CONTINUOUS
10
3.1858144488188977
20
1.0719356299212599
11
3.1847500393700785
21
1.0714947244094488
0
LINE
8
BLACK
6
CONTINUOUS
10
3.1847500393700785
20
1.0714947244094488
11
3.1841739763779526
21
1.0714379921259842
0
LINE
8
BLACK
6
CONTINUOUS
10
3.1841739763779526
20
1.0714379921259842
11
3.174003346456693
21
1.0714379921259842
0
LINE
8
BLACK
6
CONTINUOUS
10
3.174003346456693
20
1.0714379921259842
11
3.174003346456693
21
1.0556431102362205
0
LINE
8
BLACK
6
CONTINUOUS
10
3.174003346456693
20
1.0556431102362205
11
3.1739746062992125
21
1.0553515748031497
0
LINE
8
BLACK
6
CONTINUOUS
10
3.1739746062992125
20
1.0553515748031497
11
3.1739801574803148
21
1.0552738188976378
0
LINE
8
BLACK
6
CONTINUOUS
10
3.1739801574803148
20
1.0552738188976378
11
3.1739614173228348
21
1.0552177165354331
0
LINE
8
BLACK
6
CONTINUOUS
10
3.1739614173228348
20
1.0552177165354331
11
3.1739466141732282
21
1.0550670472440944
0
LINE
8
BLACK
6
CONTINUOUS
10
3.1739466141732282
20
1.0550670472440944
11
3.1737654330708662
21
1.0546296850393702
0
LINE
8
BLACK
6
CONTINUOUS
10
3.1737654330708662
20
1.0546296850393702
11
3.1736158267716537
21
1.0541808267716535
0
LINE
8
BLACK
6
CONTINUOUS
10
3.1736158267716537
20
1.0541808267716535
11
3.1735462992125982
21
1.0541007086614174
0
LINE
8
BLACK
6
CONTINUOUS
10
3.1735462992125982
20
1.0541007086614174
11
3.1735057086614171
21
1.0540026377952756
0
LINE
8
BLACK
6
CONTINUOUS
10
3.1735057086614171
20
1.0540026377952756
11
3.1731709448818899
21
1.0536679133858267
0
LINE
8
BLACK
6
CONTINUOUS
10
3.1731709448818899
20
1.0536679133858267
11
3.1728609448818896
21
1.053310433070866
0
LINE
8
BLACK
6
CONTINUOUS
10
3.1728609448818896
20
1.053310433070866
11
3.1727660629921259
21
1.0532630314960629
0
LINE
8
BLACK
6
CONTINUOUS
10
3.1727660629921259
20
1.0532630314960629
11
3.1726910629921261
21
1.0531879921259841
0
LINE
8
BLACK
6
CONTINUOUS
10
3.1726910629921261
20
1.0531879921259841
11
3.1722535826771652
21
1.0530068110236219
0
LINE
8
BLACK
6
CONTINUOUS
10
3.1722535826771652
20
1.0530068110236219
11
3.171830472440945
21
1.0527952362204724
0
LINE
8
BLACK
6
CONTINUOUS
10
3.171830472440945
20
1.0527952362204724
11
3.1717247244094486
21
1.0527877559055119
0
LINE
8
BLACK
6
CONTINUOUS
10
3.1717247244094486
20
1.0527877559055119
11
3.1716266535433069
21
1.0527470866141733
0
LINE
8
BLACK
6
CONTINUOUS
10
3.1716266535433069
20
1.0527470866141733
11
3.1711531102362205
21
1.0527470866141733
0
LINE
8
BLACK
6
CONTINUOUS
10
3.1711531102362205
20
1.0527470866141733
11
3.1706812598425196
21
1.0527135433070867
0
LINE
8
BLACK
6
CONTINUOUS
10
3.1706812598425196
20
1.0527135433070867
11
3.1705337401574805
21
1.0527470866141733
0
LINE
8
BLACK
6
CONTINUOUS
10
3.1705337401574805
20
1.0527470866141733
11
3.1704745275590551
21
1.0527470866141733
0
LINE
8
BLACK
6
CONTINUOUS
10
3.1704745275590551
20
1.0527470866141733
11
3.1704024409448817
21
1.052776968503937
0
LINE
8
BLACK
6
CONTINUOUS
10
3.1704024409448817
20
1.052776968503937
11
3.1701168110236222
21
1.0528418897637795
0
LINE
8
BLACK
6
CONTINUOUS
10
3.1701168110236222
20
1.0528418897637795
11
3.1419953937007872
21
1.0622157086614172
0
LINE
8
BLACK
6
CONTINUOUS
10
3.1419953937007872
20
1.0622157086614172
11
3.1414668110236219
21
1.0624516929133858
0
LINE
8
BLACK
6
CONTINUOUS
10
3.1414668110236219
20
1.0624516929133858
11
3.1405964566929132
21
1.0632065748031496
0
LINE
8
BLACK
6
CONTINUOUS
10
3.1405964566929132
20
1.0632065748031496
11
3.1400812598425194
21
1.0642370078740158
0
LINE
8
BLACK
6
CONTINUOUS
10
3.1400812598425194
20
1.0642370078740158
11
3.1399995669291338
21
1.0653862204724409
0
LINE
8
BLACK
6
CONTINUOUS
10
3.1399995669291338
20
1.0653862204724409
11
3.140363897637795
21
1.066479251968504
0
LINE
8
BLACK
6
CONTINUOUS
10
3.140363897637795
20
1.066479251968504
11
3.141118779527559
21
1.0673496062992125
0
LINE
8
BLACK
6
CONTINUOUS
10
3.141118779527559
20
1.0673496062992125
11
3.1421492125984249
21
1.0678648031496063
0
LINE
8
BLACK
6
CONTINUOUS
10
3.1421492125984249
20
1.0678648031496063
11
3.1432984251968503
21
1.0679464960629921
0
LINE
8
BLACK
6
CONTINUOUS
10
3.1432984251968503
20
1.0679464960629921
11
3.1438628740157482
21
1.0678181496062993
0
LINE
8
BLACK
6
CONTINUOUS
10
3.1438628740157482
20
1.0678181496062993
11
3.1680978346456694
21
1.0597398425196851
0
LINE
8
BLACK
6
CONTINUOUS
10
3.1680978346456694
20
1.0597398425196851
11
3.1680978346456694
21
1.0714379921259842
0
LINE
8
BLACK
6
CONTINUOUS
10
3.1680978346456694
20
1.0714379921259842
11
3.1579272440944881
21
1.0714379921259842
0
LINE
8
BLACK
6
CONTINUOUS
10
3.1579272440944881
20
1.0714379921259842
11
3.1573511811023622
21
1.0714947244094488
0
LINE
8
BLACK
6
CONTINUOUS
10
3.1573511811023622
20
1.0714947244094488
11
3.1562867716535434
21
1.0719356299212599
0
LINE
8
BLACK
6
CONTINUOUS
10
3.1562867716535434
20
1.0719356299212599
11
3.155472125984252
21
1.0727502755905511
0
LINE
8
BLACK
6
CONTINUOUS
10
3.155472125984252
20
1.0727502755905511
11
3.1550312204724409
21
1.0738146850393702
0
LINE
8
BLACK
6
CONTINUOUS
10
3.1550312204724409
20
1.0738146850393702
11
3.1550312204724409
21
1.0749668110236221
0
LINE
8
BLACK
6
CONTINUOUS
10
3.1550312204724409
20
1.0749668110236221
11
3.155472125984252
21
1.0760312204724409
0
LINE
8
BLACK
6
CONTINUOUS
10
3.155472125984252
20
1.0760312204724409
11
3.1562867716535434
21
1.0768458661417322
0
LINE
8
BLACK
6
CONTINUOUS
10
3.1562867716535434
20
1.0768458661417322
11
3.1573511811023622
21
1.0772867716535433
0
LINE
8
BLACK
6
CONTINUOUS
10
3.1573511811023622
20
1.0772867716535433
11
3.1579272440944881
21
1.0773435039370078
0
LINE
8
BLACK
6
CONTINUOUS
10
3.1579272440944881
20
1.0773435039370078
11
3.1680978346456694
21
1.0773435039370078
0
LINE
8
BLACK
6
CONTINUOUS
10
3.1680978346456694
20
1.0773435039370078
11
3.1680978346456694
21
1.0800150393700787
0
LINE
8
BLACK
6
CONTINUOUS
10
3.1680978346456694
20
1.0800150393700787
11
3.1681545669291338
21
1.0805911023622048
0
LINE
8
BLACK
6
CONTINUOUS
10
3.1681545669291338
20
1.0805911023622048
11
3.1685954724409449
21
1.0816555118110236
0
LINE
8
BLACK
6
CONTINUOUS
10
3.1685954724409449
20
1.0816555118110236
11
3.1694101181102363
21
1.0824701574803148
0
LINE
8
BLACK
6
CONTINUOUS
10
3.1694101181102363
20
1.0824701574803148
11
3.1704745275590551
21
1.0829110629921259
0
LINE
8
BLACK
6
CONTINUOUS
10
3.1704745275590551
20
1.0829110629921259
11
3.1716266535433069
21
1.0829110629921259
0
LINE
8
BLACK
6
CONTINUOUS
10
3.1716266535433069
20
1.0829110629921259
11
3.1726910629921261
21
1.0824701574803148
0
LINE
8
BLACK
6
CONTINUOUS
10
3.169276338582677
20
1.118578464566929
11
3.1693193700787399
21
1.1185848425196849
0
LINE
8
BLACK
6
CONTINUOUS
10
3.1693193700787399
20
1.1185848425196849
11
3.1695348425196848
21
1.1185529921259842
0
LINE
8
BLACK
6
CONTINUOUS
10
3.1695348425196848
20
1.1185529921259842
11
3.1697518897637793
21
1.1185316141732282
0
LINE
8
BLACK
6
CONTINUOUS
10
3.1697518897637793
20
1.1185316141732282
11
3.1697920866141733
21
1.1185149999999999
0
LINE
8
BLACK
6
CONTINUOUS
10
3.1697920866141733
20
1.1185149999999999
11
3.1698919685039368
21
1.1185001968503936
0
LINE
8
BLACK
6
CONTINUOUS
10
3.1698919685039368
20
1.1185001968503936
11
3.1773910236220471
21
1.116625433070866
0
LINE
8
BLACK
6
CONTINUOUS
10
3.1773910236220471
20
1.116625433070866
11
3.1774335039370079
21
1.1166102755905511
0
LINE
8
BLACK
6
CONTINUOUS
10
3.1774335039370079
20
1.1166102755905511
11
3.1774547637795276
21
1.1166087401574802
0
LINE
8
BLACK
6
CONTINUOUS
10
3.1774547637795276
20
1.1166087401574802
11
3.1776941732283466
21
1.1165171259842519
0
LINE
8
BLACK
6
CONTINUOUS
10
3.1776941732283466
20
1.1165171259842519
11
3.1779361417322836
21
1.1164306692913386
0
LINE
8
BLACK
6
CONTINUOUS
10
3.1779361417322836
20
1.1164306692913386
11
3.1779532677165352
21
1.1164179921259842
0
LINE
8
BLACK
6
CONTINUOUS
10
3.1779532677165352
20
1.1164179921259842
11
3.1779953937007872
21
1.1164018503937008
0
LINE
8
BLACK
6
CONTINUOUS
10
3.1779953937007872
20
1.1164018503937008
11
3.1817449212598423
21
1.1145270866141732
0
LINE
8
BLACK
6
CONTINUOUS
10
3.1817449212598423
20
1.1145270866141732
11
3.1819927952755904
21
1.114371062992126
0
LINE
8
BLACK
6
CONTINUOUS
10
3.1819927952755904
20
1.114371062992126
11
3.1820648425196851
21
1.114341220472441
0
LINE
8
BLACK
6
CONTINUOUS
10
3.1820648425196851
20
1.114341220472441
11
3.1821458661417323
21
1.1142747244094489
0
LINE
8
BLACK
6
CONTINUOUS
10
3.1821458661417323
20
1.1142747244094489
11
3.1822348031496062
21
1.1142187401574803
0
LINE
8
BLACK
6
CONTINUOUS
10
3.1822348031496062
20
1.1142187401574803
11
3.1822859448818899
21
1.1141597637795275
0
LINE
8
BLACK
6
CONTINUOUS
10
3.1822859448818899
20
1.1141597637795275
11
3.1825122834645669
21
1.1139740157480316
0
LINE
8
BLACK
6
CONTINUOUS
10
3.1825122834645669
20
1.1139740157480316
11
3.1843870866141732
21
1.112099251968504
0
LINE
8
BLACK
6
CONTINUOUS
10
3.1843870866141732
20
1.112099251968504
11
3.1845728346456692
21
1.1118729133858267
0
LINE
8
BLACK
6
CONTINUOUS
10
3.1845728346456692
20
1.1118729133858267
11
3.1846318897637795
21
1.1118216929133857
0
LINE
8
BLACK
6
CONTINUOUS
10
3.1846318897637795
20
1.1118216929133857
11
3.184687874015748
21
1.1117327559055117
0
LINE
8
BLACK
6
CONTINUOUS
10
3.184687874015748
20
1.1117327559055117
11
3.1847543307086612
21
1.1116517716535432
0
LINE
8
BLACK
6
CONTINUOUS
10
3.1847543307086612
20
1.1116517716535432
11
3.1847841338582676
21
1.111579842519685
0
LINE
8
BLACK
6
CONTINUOUS
10
3.1847841338582676
20
1.111579842519685
11
3.1849402362204722
21
1.1113318110236221
0
LINE
8
BLACK
6
CONTINUOUS
10
3.1849402362204722
20
1.1113318110236221
11
3.1868149999999997
21
1.107582283464567
0
LINE
8
BLACK
6
CONTINUOUS
10
3.1868149999999997
20
1.107582283464567
11
3.1870218897637796
21
1.1070416929133857
0
LINE
8
BLACK
6
CONTINUOUS
10
3.1870218897637796
20
1.1070416929133857
11
3.1870294094488187
21
1.1069358267716536
0
LINE
8
BLACK
6
CONTINUOUS
10
3.1870294094488187
20
1.1069358267716536
11
3.1870699999999998
21
1.1068378346456693
0
LINE
8
BLACK
6
CONTINUOUS
10
3.1870699999999998
20
1.1068378346456693
11
3.1871267322834647
21
1.1062617716535432
0
LINE
8
BLACK
6
CONTINUOUS
10
3.1871267322834647
20
1.1062617716535432
11
3.1871267322834647
21
1.1025122440944881
0
LINE
8
BLACK
6
CONTINUOUS
10
3.1871267322834647
20
1.1025122440944881
11
3.1870699999999998
21
1.1019361811023622
0
LINE
8
BLACK
6
CONTINUOUS
10
3.1870699999999998
20
1.1019361811023622
11
3.1870294094488187
21
1.1018382283464567
0
LINE
8
BLACK
6
CONTINUOUS
10
3.1870294094488187
20
1.1018382283464567
11
3.1870218897637796
21
1.1017323228346456
0
LINE
8
BLACK
6
CONTINUOUS
10
3.1870218897637796
20
1.1017323228346456
11
3.1868149999999997
21
1.1011917322834646
0
LINE
8
BLACK
6
CONTINUOUS
10
3.1868149999999997
20
1.1011917322834646
11
3.1849402362204722
21
1.0974422047244095
0
LINE
8
BLACK
6
CONTINUOUS
10
3.1849402362204722
20
1.0974422047244095
11
3.1847841338582676
21
1.0971942125984251
0
LINE
8
BLACK
6
CONTINUOUS
10
3.1847841338582676
20
1.0971942125984251
11
3.1847543307086612
21
1.0971222440944881
0
LINE
8
BLACK
6
CONTINUOUS
10
3.1847543307086612
20
1.0971222440944881
11
3.184687874015748
21
1.0970412992125984
0
LINE
8
BLACK
6
CONTINUOUS
10
3.184687874015748
20
1.0970412992125984
11
3.1846318897637795
21
1.0969523228346456
0
LINE
8
BLACK
6
CONTINUOUS
10
3.1846318897637795
20
1.0969523228346456
11
3.1845728346456692
21
1.0969011417322834
0
LINE
8
BLACK
6
CONTINUOUS
10
3.1845728346456692
20
1.0969011417322834
11
3.1843870866141732
21
1.0966747637795276
0
LINE
8
BLACK
6
CONTINUOUS
10
3.1843870866141732
20
1.0966747637795276
11
3.1825122834645669
21
1.0948
0
LINE
8
BLACK
6
CONTINUOUS
10
3.1825122834645669
20
1.0948
11
3.1822859448818899
21
1.0946142913385826
0
LINE
8
BLACK
6
CONTINUOUS
10
3.1822859448818899
20
1.0946142913385826
11
3.1822348031496062
21
1.0945552755905512
0
LINE
8
BLACK
6
CONTINUOUS
10
3.1822348031496062
20
1.0945552755905512
11
3.1821458661417323
21
1.0944993307086615
0
LINE
8
BLACK
6
CONTINUOUS
10
3.1821458661417323
20
1.0944993307086615
11
3.1820648425196851
21
1.0944327952755906
0
LINE
8
BLACK
6
CONTINUOUS
10
3.1820648425196851
20
1.0944327952755906
11
3.1819927952755904
21
1.0944029921259841
0
LINE
8
BLACK
6
CONTINUOUS
10
3.1819927952755904
20
1.0944029921259841
11
3.1817449212598423
21
1.0942469291338583
0
LINE
8
BLACK
6
CONTINUOUS
10
3.1817449212598423
20
1.0942469291338583
11
3.1779953937007872
21
1.0923721653543308
0
LINE
8
BLACK
6
CONTINUOUS
10
3.1779953937007872
20
1.0923721653543308
11
3.1779532677165352
21
1.0923560629921261
0
LINE
8
BLACK
6
CONTINUOUS
10
3.1779532677165352
20
1.0923560629921261
11
3.1779361417322836
21
1.092343346456693
0
LINE
8
BLACK
6
CONTINUOUS
10
3.1779361417322836
20
1.092343346456693
11
3.1776941732283466
21
1.0922569291338582
0
LINE
8
BLACK
6
CONTINUOUS
10
3.1776941732283466
20
1.0922569291338582
11
3.1774547637795276
21
1.0921652755905511
0
LINE
8
BLACK
6
CONTINUOUS
10
3.1774547637795276
20
1.0921652755905511
11
3.1774335039370079
21
1.0921637795275589
0
LINE
8
BLACK
6
CONTINUOUS
10
3.1774335039370079
20
1.0921637795275589
11
3.1773910236220471
21
1.0921485826771653
0
LINE
8
BLACK
6
CONTINUOUS
10
3.1773910236220471
20
1.0921485826771653
11
3.1698919685039368
21
1.0902738188976377
0
LINE
8
BLACK
6
CONTINUOUS
10
3.1698919685039368
20
1.0902738188976377
11
3.1697920866141733
21
1.0902590551181102
0
LINE
8
BLACK
6
CONTINUOUS
10
3.1697920866141733
20
1.0902590551181102
11
3.1697518897637793
21
1.0902424015748031
0
LINE
8
BLACK
6
CONTINUOUS
10
3.1697518897637793
20
1.0902424015748031
11
3.1695348425196848
21
1.0902210629921261
0
LINE
8
BLACK
6
CONTINUOUS
10
3.1695348425196848
20
1.0902210629921261
11
3.1693193700787399
21
1.0901891732283464
0
LINE
8
BLACK
6
CONTINUOUS
10
3.1693193700787399
20
1.0901891732283464
11
3.169276338582677
21
1.0901955905511811
0
LINE
8
BLACK
6
CONTINUOUS
10
3.169276338582677
20
1.0901955905511811
11
3.1691758267716534
21
1.0901856692913385
0
LINE
8
BLACK
6
CONTINUOUS
10
3.1691758267716534
20
1.0901856692913385
11
3.1598020078740157
21
1.0901856692913385
0
LINE
8
BLACK
6
CONTINUOUS
10
3.1598020078740157
20
1.0901856692913385
11
3.1597014566929134
21
1.0901955905511811
0
LINE
8
BLACK
6
CONTINUOUS
10
3.1597014566929134
20
1.0901955905511811
11
3.1596584645669292
21
1.0901891732283464
0
LINE
8
BLACK
6
CONTINUOUS
10
3.1596584645669292
20
1.0901891732283464
11
3.1594429527559056
21
1.0902210629921261
0
LINE
8
BLACK
6
CONTINUOUS
10
3.1594429527559056
20
1.0902210629921261
11
3.1592259448818898
21
1.0902424015748031
0
LINE
8
BLACK
6
CONTINUOUS
10
3.1592259448818898
20
1.0902424015748031
11
3.1591857086614175
21
1.0902590551181102
0
LINE
8
BLACK
6
CONTINUOUS
10
3.1591857086614175
20
1.0902590551181102
11
3.1590858661417323
21
1.0902738188976377
0
LINE
8
BLACK
6
CONTINUOUS
10
3.1590858661417323
20
1.0902738188976377
11
3.151586811023622
21
1.0921485826771653
0
LINE
8
BLACK
6
CONTINUOUS
10
3.151586811023622
20
1.0921485826771653
11
3.1515442913385825
21
1.0921637795275589
0
LINE
8
BLACK
6
CONTINUOUS
10
3.1515442913385825
20
1.0921637795275589
11
3.1515230314960627
21
1.0921652755905511
0
LINE
8
BLACK
6
CONTINUOUS
10
3.1515230314960627
20
1.0921652755905511
11
3.1512832677165354
21
1.0922570472440944
0
LINE
8
BLACK
6
CONTINUOUS
10
3.1512832677165354
20
1.0922570472440944
11
3.1510416929133855
21
1.092343346456693
0
LINE
8
BLACK
6
CONTINUOUS
10
3.1510416929133855
20
1.092343346456693
11
3.1510245275590552
21
1.0923560629921261
0
LINE
8
BLACK
6
CONTINUOUS
10
3.1510245275590552
20
1.0923560629921261
11
3.1509824409448819
21
1.0923721653543308
0
LINE
8
BLACK
6
CONTINUOUS
10
3.1509824409448819
20
1.0923721653543308
11
3.1472329133858268
21
1.0942469291338583
0
LINE
8
BLACK
6
CONTINUOUS
10
3.1472329133858268
20
1.0942469291338583
11
3.1469848818897637
21
1.0944030314960629
0
LINE
8
BLACK
6
CONTINUOUS
10
3.1469848818897637
20
1.0944030314960629
11
3.1469129527559057
21
1.0944328346456693
0
LINE
8
BLACK
6
CONTINUOUS
10
3.1469129527559057
20
1.0944328346456693
11
3.1468319685039368
21
1.0944993307086615
0
LINE
8
BLACK
6
CONTINUOUS
10
3.1468319685039368
20
1.0944993307086615
11
3.1467430314960629
21
1.0945552755905512
0
LINE
8
BLACK
6
CONTINUOUS
10
3.1467430314960629
20
1.0945552755905512
11
3.1466918503937009
21
1.0946142913385826
0
LINE
8
BLACK
6
CONTINUOUS
10
3.1466918503937009
20
1.0946142913385826
11
3.1464655118110234
21
1.0948000393700787
0
LINE
8
BLACK
6
CONTINUOUS
10
3.1464655118110234
20
1.0948000393700787
11
3.1445907480314959
21
1.0966748031496063
0
LINE
8
BLACK
6
CONTINUOUS
10
3.1445907480314959
20
1.0966748031496063
11
3.1444049606299211
21
1.0969011811023621
0
LINE
8
BLACK
6
CONTINUOUS
10
3.1444049606299211
20
1.0969011811023621
11
3.1443459842519683
21
1.0969523228346456
0
LINE
8
BLACK
6
CONTINUOUS
10
3.1443459842519683
20
1.0969523228346456
11
3.1442899999999998
21
1.0970412992125984
0
LINE
8
BLACK
6
CONTINUOUS
10
3.1442899999999998
20
1.0970412992125984
11
3.1442235433070866
21
1.0971222440944881
0
LINE
8
BLACK
6
CONTINUOUS
10
3.1442235433070866
20
1.0971222440944881
11
3.1441937007874015
21
1.0971942125984251
0
LINE
8
BLACK
6
CONTINUOUS
10
3.1441937007874015
20
1.0971942125984251
11
3.1440376377952757
21
1.0974422047244095
0
LINE
8
BLACK
6
CONTINUOUS
10
3.1440376377952757
20
1.0974422047244095
11
3.1421628740157481
21
1.1011917322834646
0
LINE
8
BLACK
6
CONTINUOUS
10
3.1421628740157481
20
1.1011917322834646
11
3.1419559842519686
21
1.1017323622047244
0
LINE
8
BLACK
6
CONTINUOUS
10
3.1419559842519686
20
1.1017323622047244
11
3.1419484645669291
21
1.101838188976378
0
LINE
8
BLACK
6
CONTINUOUS
10
3.1419484645669291
20
1.101838188976378
11
3.141907874015748
21
1.1019361811023622
0
LINE
8
BLACK
6
CONTINUOUS
10
3.141907874015748
20
1.1019361811023622
11
3.1418511417322832
21
1.1025122440944881
0
LINE
8
BLACK
6
CONTINUOUS
10
3.1418511417322832
20
1.1025122440944881
11
3.1418511417322832
21
1.1062617716535432
0
LINE
8
BLACK
6
CONTINUOUS
10
3.1418511417322832
20
1.1062617716535432
11
3.141907874015748
21
1.1068378346456693
0
LINE
8
BLACK
6
CONTINUOUS
10
3.141907874015748
20
1.1068378346456693
11
3.1419484645669291
21
1.1069358661417323
0
LINE
8
BLACK
6
CONTINUOUS
10
3.1419484645669291
20
1.1069358661417323
11
3.1419559842519686
21
1.107041653543307
0
LINE
8
BLACK
6
CONTINUOUS
10
3.1419559842519686
20
1.107041653543307
11
3.1421628740157481
21
1.107582283464567
0
LINE
8
BLACK
6
CONTINUOUS
10
3.1421628740157481
20
1.107582283464567
11
3.1440376377952757
21
1.1113318110236221
0
LINE
8
BLACK
6
CONTINUOUS
10
3.1440376377952757
20
1.1113318110236221
11
3.1441937007874015
21
1.111579842519685
0
LINE
8
BLACK
6
CONTINUOUS
10
3.1441937007874015
20
1.111579842519685
11
3.1442235433070866
21
1.1116517716535432
0
LINE
8
BLACK
6
CONTINUOUS
10
3.1442235433070866
20
1.1116517716535432
11
3.1442899999999998
21
1.1117327559055117
0
LINE
8
BLACK
6
CONTINUOUS
10
3.1442899999999998
20
1.1117327559055117
11
3.1443459842519683
21
1.1118216929133857
0
LINE
8
BLACK
6
CONTINUOUS
10
3.1443459842519683
20
1.1118216929133857
11
3.1444049606299211
21
1.111872874015748
0
LINE
8
BLACK
6
CONTINUOUS
10
3.1444049606299211
20
1.111872874015748
11
3.1445907480314959
21
1.1120992125984253
0
LINE
8
BLACK
6
CONTINUOUS
10
3.1445907480314959
20
1.1120992125984253
11
3.1464655118110234
21
1.1139739763779528
0
LINE
8
BLACK
6
CONTINUOUS
10
3.1464655118110234
20
1.1139739763779528
11
3.1466918503937009
21
1.1141597637795275
0
LINE
8
BLACK
6
CONTINUOUS
10
3.1466918503937009
20
1.1141597637795275
11
3.1467430314960629
21
1.1142187401574803
0
LINE
8
BLACK
6
CONTINUOUS
10
3.1467430314960629
20
1.1142187401574803
11
3.1468319685039368
21
1.1142747244094489
0
LINE
8
BLACK
6
CONTINUOUS
10
3.1468319685039368
20
1.1142747244094489
11
3.1469129527559057
21
1.1143411811023622
0
LINE
8
BLACK
6
CONTINUOUS
10
3.1469129527559057
20
1.1143411811023622
11
3.1469848818897637
21
1.1143710236220472
0
LINE
8
BLACK
6
CONTINUOUS
10
3.1469848818897637
20
1.1143710236220472
11
3.1472329133858268
21
1.1145270866141732
0
LINE
8
BLACK
6
CONTINUOUS
10
3.1472329133858268
20
1.1145270866141732
11
3.1509824409448819
21
1.1164018503937008
0
LINE
8
BLACK
6
CONTINUOUS
10
3.1509824409448819
20
1.1164018503937008
11
3.1510245275590552
21
1.1164179921259842
0
LINE
8
BLACK
6
CONTINUOUS
10
3.1510245275590552
20
1.1164179921259842
11
3.1510416929133855
21
1.1164306692913386
0
LINE
8
BLACK
6
CONTINUOUS
10
3.1510416929133855
20
1.1164306692913386
11
3.1512832677165354
21
1.1165170078740156
0
LINE
8
BLACK
6
CONTINUOUS
10
3.1512832677165354
20
1.1165170078740156
11
3.1515230314960627
21
1.1166087401574802
0
LINE
8
BLACK
6
CONTINUOUS
10
3.1515230314960627
20
1.1166087401574802
11
3.1515442913385825
21
1.1166102755905511
0
LINE
8
BLACK
6
CONTINUOUS
10
3.1515442913385825
20
1.1166102755905511
11
3.151586811023622
21
1.116625433070866
0
LINE
8
BLACK
6
CONTINUOUS
10
3.151586811023622
20
1.116625433070866
11
3.1590858661417323
21
1.1185001968503936
0
LINE
8
BLACK
6
CONTINUOUS
10
3.1590858661417323
20
1.1185001968503936
11
3.1591857086614175
21
1.1185149999999999
0
LINE
8
BLACK
6
CONTINUOUS
10
3.1591857086614175
20
1.1185149999999999
11
3.1592259448818898
21
1.1185316141732282
0
LINE
8
BLACK
6
CONTINUOUS
10
3.1592259448818898
20
1.1185316141732282
11
3.1594429527559056
21
1.1185529921259842
0
LINE
8
BLACK
6
CONTINUOUS
10
3.1594429527559056
20
1.1185529921259842
11
3.1596584645669292
21
1.1185848425196849
0
LINE
8
BLACK
6
CONTINUOUS
10
3.1596584645669292
20
1.1185848425196849
11
3.1597014566929134
21
1.118578464566929
0
LINE
8
BLACK
6
CONTINUOUS
10
3.1597014566929134
20
1.118578464566929
11
3.1598020078740157
21
1.1185883464566928
0
LINE
8
BLACK
6
CONTINUOUS
10
3.1598020078740157
20
1.1185883464566928
11
3.1691758267716534
21
1.1185883464566928
0
LINE
8
BLACK
6
CONTINUOUS
10
3.1691758267716534
20
1.1185883464566928
11
3.169276338582677
21
1.118578464566929
0
LINE
8
BLACK
6
CONTINUOUS
10
3.1533335039370076
20
1.110974842519685
11
3.1503025196850394
21
1.1094593307086613
0
LINE
8
BLACK
6
CONTINUOUS
10
3.1503025196850394
20
1.1094593307086613
11
3.1491053937007871
21
1.1082622047244095
0
LINE
8
BLACK
6
CONTINUOUS
10
3.1491053937007871
20
1.1082622047244095
11
3.1477566535433068
21
1.1055647244094489
0
LINE
8
BLACK
6
CONTINUOUS
10
3.1477566535433068
20
1.1055647244094489
11
3.1477566535433068
21
1.1032092913385827
0
LINE
8
BLACK
6
CONTINUOUS
10
3.1477566535433068
20
1.1032092913385827
11
3.1491053937007871
21
1.1005118110236221
0
LINE
8
BLACK
6
CONTINUOUS
10
3.1491053937007871
20
1.1005118110236221
11
3.1503025196850394
21
1.09931468503937
0
LINE
8
BLACK
6
CONTINUOUS
10
3.1503025196850394
20
1.09931468503937
11
3.1533335039370076
21
1.0977992125984253
0
LINE
8
BLACK
6
CONTINUOUS
10
3.1533335039370076
20
1.0977992125984253
11
3.1601655511811022
21
1.0960911811023621
0
LINE
8
BLACK
6
CONTINUOUS
10
3.1601655511811022
20
1.0960911811023621
11
3.1688122834645669
21
1.0960911811023621
0
LINE
8
BLACK
6
CONTINUOUS
10
3.1688122834645669
20
1.0960911811023621
11
3.1756443307086615
21
1.0977992125984253
0
LINE
8
BLACK
6
CONTINUOUS
10
3.1756443307086615
20
1.0977992125984253
11
3.1786753149606297
21
1.0993147244094488
0
LINE
8
BLACK
6
CONTINUOUS
10
3.1786753149606297
20
1.0993147244094488
11
3.1798724803149607
21
1.1005118503937008
0
LINE
8
BLACK
6
CONTINUOUS
10
3.1798724803149607
20
1.1005118503937008
11
3.181221220472441
21
1.1032092913385827
0
LINE
8
BLACK
6
CONTINUOUS
10
3.181221220472441
20
1.1032092913385827
11
3.181221220472441
21
1.1055647244094489
0
LINE
8
BLACK
6
CONTINUOUS
10
3.181221220472441
20
1.1055647244094489
11
3.1798724803149607
21
1.1082622047244095
0
LINE
8
BLACK
6
CONTINUOUS
10
3.1798724803149607
20
1.1082622047244095
11
3.1786753149606297
21
1.1094593307086613
0
LINE
8
BLACK
6
CONTINUOUS
10
3.1786753149606297
20
1.1094593307086613
11
3.1756443307086615
21
1.110974842519685
0
LINE
8
BLACK
6
CONTINUOUS
10
3.1756443307086615
20
1.110974842519685
11
3.1688122834645669
21
1.1126828346456692
0
LINE
8
BLACK
6
CONTINUOUS
10
3.1688122834645669
20
1.1126828346456692
11
3.1601655511811022
21
1.1126828346456692
0
LINE
8
BLACK
6
CONTINUOUS
10
3.1601655511811022
20
1.1126828346456692
11
3.1533335039370076
21
1.110974842519685
0
LINE
8
BLACK
6
CONTINUOUS
10
3.1839396062992127
20
1.1368384251968504
11
3.1839396850393702
21
1.1368383858267717
0
LINE
8
BLACK
6
CONTINUOUS
10
3.1839396850393702
20
1.1368383858267717
11
3.184387125984252
21
1.1364711811023622
0
LINE
8
BLACK
6
CONTINUOUS
10
3.184387125984252
20
1.1364711811023622
11
3.1862618897637796
21
1.1345964173228347
0
LINE
8
BLACK
6
CONTINUOUS
10
3.1862618897637796
20
1.1345964173228347
11
3.1866290944881888
21
1.1341489763779526
0
LINE
8
BLACK
6
CONTINUOUS
10
3.1866290944881888
20
1.1341489763779526
11
3.1867706692913385
21
1.1338072047244094
0
LINE
8
BLACK
6
CONTINUOUS
10
3.1867706692913385
20
1.1338072047244094
11
3.1870699999999998
21
1.1330845275590551
0
LINE
8
BLACK
6
CONTINUOUS
10
3.1870699999999998
20
1.1330845275590551
11
3.1870699999999998
21
1.1319324409448819
0
LINE
8
BLACK
6
CONTINUOUS
10
3.1870699999999998
20
1.1319324409448819
11
3.1866290944881888
21
1.1308680314960631
0
LINE
8
BLACK
6
CONTINUOUS
10
3.1866290944881888
20
1.1308680314960631
11
3.1862618897637796
21
1.130420590551181
0
LINE
8
BLACK
6
CONTINUOUS
10
3.1862618897637796
20
1.130420590551181
11
3.184387125984252
21
1.1285458267716535
0
LINE
8
BLACK
6
CONTINUOUS
10
3.184387125984252
20
1.1285458267716535
11
3.1839396850393702
21
1.1281786220472441
0
LINE
8
BLACK
6
CONTINUOUS
10
3.1839396850393702
20
1.1281786220472441
11
3.1828752755905509
21
1.127737716535433
0
LINE
8
BLACK
6
CONTINUOUS
10
3.1828752755905509
20
1.127737716535433
11
3.181723188976378
21
1.127737716535433
0
LINE
8
BLACK
6
CONTINUOUS
10
3.181723188976378
20
1.127737716535433
11
3.1806587795275592
21
1.1281785826771653
0
LINE
8
BLACK
6
CONTINUOUS
10
3.1806587795275592
20
1.1281785826771653
11
3.1802112992125982
21
1.1285458267716535
0
LINE
8
BLACK
6
CONTINUOUS
10
3.1802112992125982
20
1.1285458267716535
11
3.1783365354330706
21
1.1304205511811023
0
LINE
8
BLACK
6
CONTINUOUS
10
3.1783365354330706
20
1.1304205511811023
11
3.1779692913385826
21
1.1308680314960631
0
LINE
8
BLACK
6
CONTINUOUS
10
3.1779692913385826
20
1.1308680314960631
11
3.1779692519685039
21
1.1308680708661416
0
LINE
8
BLACK
6
CONTINUOUS
10
3.1779692519685039
20
1.1308680708661416
11
3.1775283858267716
21
1.1319324803149606
0
LINE
8
BLACK
6
CONTINUOUS
10
3.1775283858267716
20
1.1319324803149606
11
3.1775283858267716
21
1.1330845669291338
0
LINE
8
BLACK
6
CONTINUOUS
10
3.1775283858267716
20
1.1330845669291338
11
3.1778277165354329
21
1.1338072047244094
0
LINE
8
BLACK
6
CONTINUOUS
10
3.1778277165354329
20
1.1338072047244094
11
3.1779692519685039
21
1.1341489370078739
0
LINE
8
BLACK
6
CONTINUOUS
10
3.1779692519685039
20
1.1341489370078739
11
3.1779692913385826
21
1.1341489763779526
0
LINE
8
BLACK
6
CONTINUOUS
10
3.1779692913385826
20
1.1341489763779526
11
3.1783365354330706
21
1.1345964566929134
0
LINE
8
BLACK
6
CONTINUOUS
10
3.1783365354330706
20
1.1345964566929134
11
3.1802112992125982
21
1.1364711811023622
0
LINE
8
BLACK
6
CONTINUOUS
10
3.1802112992125982
20
1.1364711811023622
11
3.1806587795275592
21
1.1368384251968504
0
LINE
8
BLACK
6
CONTINUOUS
10
3.1806587795275592
20
1.1368384251968504
11
3.181723188976378
21
1.1372792913385827
0
LINE
8
BLACK
6
CONTINUOUS
10
3.181723188976378
20
1.1372792913385827
11
3.1828752755905509
21
1.1372792913385827
0
LINE
8
BLACK
6
CONTINUOUS
10
3.1828752755905509
20
1.1372792913385827
11
3.1839396062992127
21
1.1368384251968504
0
LINE
8
BLACK
6
CONTINUOUS
10
3.1772509448818895
20
1.1747745669291338
11
3.1773489370078738
21
1.1747339763779527
0
LINE
8
BLACK
6
CONTINUOUS
10
3.1773489370078738
20
1.1747339763779527
11
3.1774547637795276
21
1.1747264566929134
0
LINE
8
BLACK
6
CONTINUOUS
10
3.1774547637795276
20
1.1747264566929134
11
3.1779953937007872
21
1.1745195669291337
0
LINE
8
BLACK
6
CONTINUOUS
10
3.1779953937007872
20
1.1745195669291337
11
3.1817449212598423
21
1.1726448031496062
0
LINE
8
BLACK
6
CONTINUOUS
10
3.1817449212598423
20
1.1726448031496062
11
3.1819927952755904
21
1.1724887795275589
0
LINE
8
BLACK
6
CONTINUOUS
10
3.1819927952755904
20
1.1724887795275589
11
3.1820648425196851
21
1.172458937007874
0
LINE
8
BLACK
6
CONTINUOUS
10
3.1820648425196851
20
1.172458937007874
11
3.1821458661417323
21
1.1723924409448818
0
LINE
8
BLACK
6
CONTINUOUS
10
3.1821458661417323
20
1.1723924409448818
11
3.1822348031496062
21
1.1723364566929133
0
LINE
8
BLACK
6
CONTINUOUS
10
3.1822348031496062
20
1.1723364566929133
11
3.1822859448818899
21
1.1722774803149607
0
LINE
8
BLACK
6
CONTINUOUS
10
3.1822859448818899
20
1.1722774803149607
11
3.1825122834645669
21
1.1720917322834645
0
LINE
8
BLACK
6
CONTINUOUS
10
3.1825122834645669
20
1.1720917322834645
11
3.1843870866141732
21
1.170216968503937
0
LINE
8
BLACK
6
CONTINUOUS
10
3.1843870866141732
20
1.170216968503937
11
3.1845728346456692
21
1.1699906299212599
0
LINE
8
BLACK
6
CONTINUOUS
10
3.1845728346456692
20
1.1699906299212599
11
3.1846318897637795
21
1.1699394094488189
0
LINE
8
BLACK
6
CONTINUOUS
10
3.1846318897637795
20
1.1699394094488189
11
3.184687874015748
21
1.1698504724409449
0
LINE
8
BLACK
6
CONTINUOUS
10
3.184687874015748
20
1.1698504724409449
11
3.1847543307086612
21
1.1697694881889764
0
LINE
8
BLACK
6
CONTINUOUS
10
3.1847543307086612
20
1.1697694881889764
11
3.1847841338582676
21
1.1696975590551182
0
LINE
8
BLACK
6
CONTINUOUS
10
3.1847841338582676
20
1.1696975590551182
11
3.1849402362204722
21
1.1694495275590551
0
LINE
8
BLACK
6
CONTINUOUS
10
3.1849402362204722
20
1.1694495275590551
11
3.1868149999999997
21
1.1657
0
LINE
8
BLACK
6
CONTINUOUS
10
3.1868149999999997
20
1.1657
11
3.1870218897637796
21
1.1651594094488189
0
LINE
8
BLACK
6
CONTINUOUS
10
3.1870218897637796
20
1.1651594094488189
11
3.1870294094488187
21
1.1650535433070865
0
LINE
8
BLACK
6
CONTINUOUS
10
3.1870294094488187
20
1.1650535433070865
11
3.1870699999999998
21
1.1649555511811023
0
LINE
8
BLACK
6
CONTINUOUS
10
3.1870699999999998
20
1.1649555511811023
11
3.1871267322834647
21
1.1643794881889764
0
LINE
8
BLACK
6
CONTINUOUS
10
3.1871267322834647
20
1.1643794881889764
11
3.1871267322834647
21
1.1568804330708662
0
LINE
8
BLACK
6
CONTINUOUS
10
3.1871267322834647
20
1.1568804330708662
11
3.1870699999999998
21
1.1563043700787401
0
LINE
8
BLACK
6
CONTINUOUS
10
3.1870699999999998
20
1.1563043700787401
11
3.1870294094488187
21
1.1562064173228346
0
LINE
8
BLACK
6
CONTINUOUS
10
3.1870294094488187
20
1.1562064173228346
11
3.1870218897637796
21
1.1561005118110237
0
LINE
8
BLACK
6
CONTINUOUS
10
3.1870218897637796
20
1.1561005118110237
11
3.1868149999999997
21
1.1555599212598424
0
LINE
8
BLACK
6
CONTINUOUS
10
3.1868149999999997
20
1.1555599212598424
11
3.1849402362204722
21
1.1518103937007873
0
LINE
8
BLACK
6
CONTINUOUS
10
3.1849402362204722
20
1.1518103937007873
11
3.1847841338582676
21
1.1515624015748032
0
LINE
8
BLACK
6
CONTINUOUS
10
3.1847841338582676
20
1.1515624015748032
11
3.1847543307086612
21
1.1514904330708662
0
LINE
8
BLACK
6
CONTINUOUS
10
3.1847543307086612
20
1.1514904330708662
11
3.184687874015748
21
1.1514094881889763
0
LINE
8
BLACK
6
CONTINUOUS
10
3.184687874015748
20
1.1514094881889763
11
3.1846318897637795
21
1.1513205118110237
0
LINE
8
BLACK
6
CONTINUOUS
10
3.1846318897637795
20
1.1513205118110237
11
3.1845728346456692
21
1.1512693307086614
0
LINE
8
BLACK
6
CONTINUOUS
10
3.1845728346456692
20
1.1512693307086614
11
3.1843870866141732
21
1.1510429527559054
0
LINE
8
BLACK
6
CONTINUOUS
10
3.1843870866141732
20
1.1510429527559054
11
3.1825122834645669
21
1.1491681889763778
0
LINE
8
BLACK
6
CONTINUOUS
10
3.1825122834645669
20
1.1491681889763778
11
3.1822859448818899
21
1.1489824803149606
0
LINE
8
BLACK
6
CONTINUOUS
10
3.1822859448818899
20
1.1489824803149606
11
3.1822348031496062
21
1.1489234645669291
0
LINE
8
BLACK
6
CONTINUOUS
10
3.1822348031496062
20
1.1489234645669291
11
3.1821458661417323
21
1.1488675196850393
0
LINE
8
BLACK
6
CONTINUOUS
10
3.1821458661417323
20
1.1488675196850393
11
3.1820648425196851
21
1.1488009842519684
0
LINE
8
BLACK
6
CONTINUOUS
10
3.1820648425196851
20
1.1488009842519684
11
3.1819927952755904
21
1.1487711811023622
0
LINE
8
BLACK
6
CONTINUOUS
10
3.1819927952755904
20
1.1487711811023622
11
3.1817449212598423
21
1.1486151181102362
0
LINE
8
BLACK
6
CONTINUOUS
10
3.1817449212598423
20
1.1486151181102362
11
3.1779953937007872
21
1.1467403543307086
0
LINE
8
BLACK
6
CONTINUOUS
10
3.1779953937007872
20
1.1467403543307086
11
3.1774547637795276
21
1.1465334645669292
0
LINE
8
BLACK
6
CONTINUOUS
10
3.1774547637795276
20
1.1465334645669292
11
3.1773489370078738
21
1.1465259842519684
0
LINE
8
BLACK
6
CONTINUOUS
10
3.1773489370078738
20
1.1465259842519684
11
3.1772509448818895
21
1.1464853543307085
0
LINE
8
BLACK
6
CONTINUOUS
10
3.1772509448818895
20
1.1464853543307085
11
3.1766748818897637
21
1.1464286220472442
0
LINE
8
BLACK
6
CONTINUOUS
10
3.1766748818897637
20
1.1464286220472442
11
3.1616767716535432
21
1.1464286220472442
0
LINE
8
BLACK
6
CONTINUOUS
10
3.1616767716535432
20
1.1464286220472442
11
3.1615762204724409
21
1.1464385433070865
0
LINE
8
BLACK
6
CONTINUOUS
10
3.1615762204724409
20
1.1464385433070865
11
3.1615332283464568
21
1.146432125984252
0
LINE
8
BLACK
6
CONTINUOUS
10
3.1615332283464568
20
1.146432125984252
11
3.1613177165354331
21
1.1464640157480315
0
LINE
8
BLACK
6
CONTINUOUS
10
3.1613177165354331
20
1.1464640157480315
11
3.1611007086614173
21
1.1464853543307085
0
LINE
8
BLACK
6
CONTINUOUS
10
3.1611007086614173
20
1.1464853543307085
11
3.161060472440945
21
1.1465020078740158
0
LINE
8
BLACK
6
CONTINUOUS
10
3.161060472440945
20
1.1465020078740158
11
3.1609606299212598
21
1.1465167716535434
0
LINE
8
BLACK
6
CONTINUOUS
10
3.1609606299212598
20
1.1465167716535434
11
3.1534615748031496
21
1.1483915354330709
0
LINE
8
BLACK
6
CONTINUOUS
10
3.1534615748031496
20
1.1483915354330709
11
3.1531220472440946
21
1.148512874015748
0
LINE
8
BLACK
6
CONTINUOUS
10
3.1531220472440946
20
1.148512874015748
11
3.15305062992126
21
1.148526968503937
0
LINE
8
BLACK
6
CONTINUOUS
10
3.15305062992126
20
1.148526968503937
11
3.1529858267716535
21
1.1485615354330709
0
LINE
8
BLACK
6
CONTINUOUS
10
3.1529858267716535
20
1.1485615354330709
11
3.1529164566929131
21
1.1485862992125984
0
LINE
8
BLACK
6
CONTINUOUS
10
3.1529164566929131
20
1.1485862992125984
11
3.1528577165354328
21
1.148629842519685
0
LINE
8
BLACK
6
CONTINUOUS
10
3.1528577165354328
20
1.148629842519685
11
3.1525398425196851
21
1.1487992913385827
0
LINE
8
BLACK
6
CONTINUOUS
10
3.1525398425196851
20
1.1487992913385827
11
3.1469155118110237
21
1.1525488188976378
0
LINE
8
BLACK
6
CONTINUOUS
10
3.1469155118110237
20
1.1525488188976378
11
3.1469138188976378
21
1.1525501968503937
0
LINE
8
BLACK
6
CONTINUOUS
10
3.1469138188976378
20
1.1525501968503937
11
3.1469129527559057
21
1.1525505511811023
0
LINE
8
BLACK
6
CONTINUOUS
10
3.1469129527559057
20
1.1525505511811023
11
3.1466976377952753
21
1.152727283464567
0
LINE
8
BLACK
6
CONTINUOUS
10
3.1466976377952753
20
1.152727283464567
11
3.1464676771653544
21
1.152915590551181
0
LINE
8
BLACK
6
CONTINUOUS
10
3.1464676771653544
20
1.152915590551181
11
3.1464670866141731
21
1.1529164566929133
0
LINE
8
BLACK
6
CONTINUOUS
10
3.1464670866141731
20
1.1529164566929133
11
3.1464655118110234
21
1.1529177559055117
0
LINE
8
BLACK
6
CONTINUOUS
10
3.1464655118110234
20
1.1529177559055117
11
3.1445907480314959
21
1.1547925196850393
0
LINE
8
BLACK
6
CONTINUOUS
10
3.1445907480314959
20
1.1547925196850393
11
3.1444049606299211
21
1.1550188976377953
0
LINE
8
BLACK
6
CONTINUOUS
10
3.1444049606299211
20
1.1550188976377953
11
3.1443459842519683
21
1.1550700393700788
0
LINE
8
BLACK
6
CONTINUOUS
10
3.1443459842519683
20
1.1550700393700788
11
3.1442899999999998
21
1.1551590157480314
0
LINE
8
BLACK
6
CONTINUOUS
10
3.1442899999999998
20
1.1551590157480314
11
3.1442235433070866
21
1.1552399606299213
0
LINE
8
BLACK
6
CONTINUOUS
10
3.1442235433070866
20
1.1552399606299213
11
3.1441937007874015
21
1.1553119291338583
0
LINE
8
BLACK
6
CONTINUOUS
10
3.1441937007874015
20
1.1553119291338583
11
3.1440376377952757
21
1.1555599212598424
0
LINE
8
BLACK
6
CONTINUOUS
10
3.1440376377952757
20
1.1555599212598424
11
3.1421628740157481
21
1.1593094488188975
0
LINE
8
BLACK
6
CONTINUOUS
10
3.1421628740157481
20
1.1593094488188975
11
3.1419559842519686
21
1.1598500787401576
0
LINE
8
BLACK
6
CONTINUOUS
10
3.1419559842519686
20
1.1598500787401576
11
3.1419484645669291
21
1.1599559055118109
0
LINE
8
BLACK
6
CONTINUOUS
10
3.1419484645669291
20
1.1599559055118109
11
3.141907874015748
21
1.1600538976377952
0
LINE
8
BLACK
6
CONTINUOUS
10
3.141907874015748
20
1.1600538976377952
11
3.1418511417322832
21
1.1606299606299213
0
LINE
8
BLACK
6
CONTINUOUS
10
3.1418511417322832
20
1.1606299606299213
11
3.1418511417322832
21
1.1681290157480315
0
LINE
8
BLACK
6
CONTINUOUS
10
3.1418511417322832
20
1.1681290157480315
11
3.141907874015748
21
1.1687050787401574
0
LINE
8
BLACK
6
CONTINUOUS
10
3.141907874015748
20
1.1687050787401574
11
3.1423487795275591
21
1.1697694881889764
0
LINE
8
BLACK
6
CONTINUOUS
10
3.1423487795275591
20
1.1697694881889764
11
3.1431634251968501
21
1.1705841338582677
0
LINE
8
BLACK
6
CONTINUOUS
10
3.1431634251968501
20
1.1705841338582677
11
3.1442278346456694
21
1.1710250393700787
0
LINE
8
BLACK
6
CONTINUOUS
10
3.1442278346456694
20
1.1710250393700787
11
3.1453799606299211
21
1.1710250393700787
0
LINE
8
BLACK
6
CONTINUOUS
10
3.1453799606299211
20
1.1710250393700787
11
3.1464443700787399
21
1.1705841338582677
0
LINE
8
BLACK
6
CONTINUOUS
10
3.1464443700787399
20
1.1705841338582677
11
3.1472590157480314
21
1.1697694881889764
0
LINE
8
BLACK
6
CONTINUOUS
10
3.1472590157480314
20
1.1697694881889764
11
3.1476999212598424
21
1.1687050787401574
0
LINE
8
BLACK
6
CONTINUOUS
10
3.1476999212598424
20
1.1687050787401574
11
3.1477566535433068
21
1.1681290157480315
0
LINE
8
BLACK
6
CONTINUOUS
10
3.1477566535433068
20
1.1681290157480315
11
3.1477566535433068
21
1.1613270078740157
0
LINE
8
BLACK
6
CONTINUOUS
10
3.1477566535433068
20
1.1613270078740157
11
3.1491053937007871
21
1.158629527559055
0
LINE
8
BLACK
6
CONTINUOUS
10
3.1491053937007871
20
1.158629527559055
11
3.1504345275590548
21
1.1573003937007873
0
LINE
8
BLACK
6
CONTINUOUS
10
3.1504345275590548
20
1.1573003937007873
11
3.1553900787401572
21
1.1539966929133858
0
LINE
8
BLACK
6
CONTINUOUS
10
3.1553900787401572
20
1.1539966929133858
11
3.1583072440944879
21
1.1532674015748032
0
LINE
8
BLACK
6
CONTINUOUS
10
3.1583072440944879
20
1.1532674015748032
11
3.1571609842519686
21
1.1555599212598424
0
LINE
8
BLACK
6
CONTINUOUS
10
3.1571609842519686
20
1.1555599212598424
11
3.1569540944881891
21
1.1561005511811024
0
LINE
8
BLACK
6
CONTINUOUS
10
3.1569540944881891
20
1.1561005511811024
11
3.1569465748031496
21
1.1562063779527558
0
LINE
8
BLACK
6
CONTINUOUS
10
3.1569465748031496
20
1.1562063779527558
11
3.1569059842519684
21
1.1563043700787401
0
LINE
8
BLACK
6
CONTINUOUS
10
3.1569059842519684
20
1.1563043700787401
11
3.1568492519685041
21
1.1568804330708662
0
LINE
8
BLACK
6
CONTINUOUS
10
3.1568492519685041
20
1.1568804330708662
11
3.1568492519685041
21
1.1643794881889764
0
LINE
8
BLACK
6
CONTINUOUS
10
3.1568492519685041
20
1.1643794881889764
11
3.1569059842519684
21
1.1649555511811023
0
LINE
8
BLACK
6
CONTINUOUS
10
3.1569059842519684
20
1.1649555511811023
11
3.1569465748031496
21
1.1650535826771653
0
LINE
8
BLACK
6
CONTINUOUS
10
3.1569465748031496
20
1.1650535826771653
11
3.1569540944881891
21
1.1651593700787402
0
LINE
8
BLACK
6
CONTINUOUS
10
3.1569540944881891
20
1.1651593700787402
11
3.1571609842519686
21
1.1657
0
LINE
8
BLACK
6
CONTINUOUS
10
3.1571609842519686
20
1.1657
11
3.1590357480314961
21
1.1694495275590551
0
LINE
8
BLACK
6
CONTINUOUS
10
3.1590357480314961
20
1.1694495275590551
11
3.1591918110236219
21
1.1696975590551182
0
LINE
8
BLACK
6
CONTINUOUS
10
3.1591918110236219
20
1.1696975590551182
11
3.1592216535433071
21
1.1697694881889764
0
LINE
8
BLACK
6
CONTINUOUS
10
3.1592216535433071
20
1.1697694881889764
11
3.1592881102362202
21
1.1698504724409449
0
LINE
8
BLACK
6
CONTINUOUS
10
3.1592881102362202
20
1.1698504724409449
11
3.1593440944881888
21
1.1699394094488189
0
LINE
8
BLACK
6
CONTINUOUS
10
3.1593440944881888
20
1.1699394094488189
11
3.1594030708661416
21
1.1699905905511812
0
LINE
8
BLACK
6
CONTINUOUS
10
3.1594030708661416
20
1.1699905905511812
11
3.1595888582677163
21
1.1702169291338582
0
LINE
8
BLACK
6
CONTINUOUS
10
3.1595888582677163
20
1.1702169291338582
11
3.1614636220472438
21
1.1720916929133858
0
LINE
8
BLACK
6
CONTINUOUS
10
3.1614636220472438
20
1.1720916929133858
11
3.1616899606299214
21
1.1722774803149607
0
LINE
8
BLACK
6
CONTINUOUS
10
3.1616899606299214
20
1.1722774803149607
11
3.1617411417322834
21
1.1723364566929133
0
LINE
8
BLACK
6
CONTINUOUS
10
3.1617411417322834
20
1.1723364566929133
11
3.1618300787401572
21
1.1723924409448818
0
LINE
8
BLACK
6
CONTINUOUS
10
3.1618300787401572
20
1.1723924409448818
11
3.1619110629921261
21
1.1724588976377952
0
LINE
8
BLACK
6
CONTINUOUS
10
3.1619110629921261
20
1.1724588976377952
11
3.1619829921259841
21
1.1724887401574804
0
LINE
8
BLACK
6
CONTINUOUS
10
3.1619829921259841
20
1.1724887401574804
11
3.1622310236220472
21
1.1726448031496062
0
LINE
8
BLACK
6
CONTINUOUS
10
3.1622310236220472
20
1.1726448031496062
11
3.1659805511811023
21
1.1745195669291337
0
LINE
8
BLACK
6
CONTINUOUS
10
3.1659805511811023
20
1.1745195669291337
11
3.1665211417322836
21
1.1747264566929134
0
LINE
8
BLACK
6
CONTINUOUS
10
3.1665211417322836
20
1.1747264566929134
11
3.1666270078740157
21
1.1747340157480315
0
LINE
8
BLACK
6
CONTINUOUS
10
3.1666270078740157
20
1.1747340157480315
11
3.166725
21
1.1747745669291338
0
LINE
8
BLACK
6
CONTINUOUS
10
3.166725
20
1.1747745669291338
11
3.1673010629921259
21
1.1748312992125984
0
LINE
8
BLACK
6
CONTINUOUS
10
3.1673010629921259
20
1.1748312992125984
11
3.1766748818897637
21
1.1748312992125984
0
LINE
8
BLACK
6
CONTINUOUS
10
3.1766748818897637
20
1.1748312992125984
11
3.1772509448818895
21
1.1747745669291338
0
LINE
8
BLACK
6
CONTINUOUS
10
3.1653006299212598
20
1.1675770472440945
11
3.164103503937008
21
1.1663799212598425
0
LINE
8
BLACK
6
CONTINUOUS
10
3.164103503937008
20
1.1663799212598425
11
3.1627547637795277
21
1.1636824409448818
0
LINE
8
BLACK
6
CONTINUOUS
10
3.1627547637795277
20
1.1636824409448818
11
3.1627547637795277
21
1.1575774803149605
0
LINE
8
BLACK
6
CONTINUOUS
10
3.1627547637795277
20
1.1575774803149605
11
3.164103503937008
21
1.1548799999999999
0
LINE
8
BLACK
6
CONTINUOUS
10
3.164103503937008
20
1.1548799999999999
11
3.1653006299212598
21
1.1536828740157481
0
LINE
8
BLACK
6
CONTINUOUS
10
3.1653006299212598
20
1.1536828740157481
11
3.1679981102362205
21
1.1523341338582678
0
LINE
8
BLACK
6
CONTINUOUS
10
3.1679981102362205
20
1.1523341338582678
11
3.1759778346456691
21
1.1523341338582678
0
LINE
8
BLACK
6
CONTINUOUS
10
3.1759778346456691
20
1.1523341338582678
11
3.1786753149606297
21
1.1536829133858268
0
LINE
8
BLACK
6
CONTINUOUS
10
3.1786753149606297
20
1.1536829133858268
11
3.1798724803149607
21
1.1548800393700787
0
LINE
8
BLACK
6
CONTINUOUS
10
3.1798724803149607
20
1.1548800393700787
11
3.181221220472441
21
1.1575774803149605
0
LINE
8
BLACK
6
CONTINUOUS
10
3.181221220472441
20
1.1575774803149605
11
3.181221220472441
21
1.1636824409448818
0
LINE
8
BLACK
6
CONTINUOUS
10
3.181221220472441
20
1.1636824409448818
11
3.1798724803149607
21
1.1663799212598425
0
LINE
8
BLACK
6
CONTINUOUS
10
3.1798724803149607
20
1.1663799212598425
11
3.1786753149606297
21
1.1675770472440945
0
LINE
8
BLACK
6
CONTINUOUS
10
3.1786753149606297
20
1.1675770472440945
11
3.1759778346456691
21
1.1689257874015748
0
LINE
8
BLACK
6
CONTINUOUS
10
3.1759778346456691
20
1.1689257874015748
11
3.1679981102362205
21
1.1689257874015748
0
LINE
8
BLACK
6
CONTINUOUS
10
3.1679981102362205
20
1.1689257874015748
11
3.1653006299212598
21
1.1675770472440945
0
LINE
8
BLACK
6
CONTINUOUS
10
3.1726910629921261
20
1.2137037401574804
11
3.1735057086614171
21
1.2128890944881889
0
LINE
8
BLACK
6
CONTINUOUS
10
3.1735057086614171
20
1.2128890944881889
11
3.1739466141732282
21
1.2118246850393701
0
LINE
8
BLACK
6
CONTINUOUS
10
3.1739466141732282
20
1.2118246850393701
11
3.174003346456693
21
1.211248622047244
0
LINE
8
BLACK
6
CONTINUOUS
10
3.174003346456693
20
1.211248622047244
11
3.174003346456693
21
1.2085770866141732
0
LINE
8
BLACK
6
CONTINUOUS
10
3.174003346456693
20
1.2085770866141732
11
3.1841739763779526
21
1.2085770866141732
0
LINE
8
BLACK
6
CONTINUOUS
10
3.1841739763779526
20
1.2085770866141732
11
3.1847500393700785
21
1.2085203543307086
0
LINE
8
BLACK
6
CONTINUOUS
10
3.1847500393700785
20
1.2085203543307086
11
3.1858144488188977
21
1.2080794488188975
0
LINE
8
BLACK
6
CONTINUOUS
10
3.1858144488188977
20
1.2080794488188975
11
3.1866290944881888
21
1.2072648031496063
0
LINE
8
BLACK
6
CONTINUOUS
10
3.1866290944881888
20
1.2072648031496063
11
3.1870699999999998
21
1.2062003937007875
0
LINE
8
BLACK
6
CONTINUOUS
10
3.1870699999999998
20
1.2062003937007875
11
3.1870699999999998
21
1.2050482677165355
0
LINE
8
BLACK
6
CONTINUOUS
10
3.1870699999999998
20
1.2050482677165355
11
3.1866290944881888
21
1.2039838582677165
0
LINE
8
BLACK
6
CONTINUOUS
10
3.1866290944881888
20
1.2039838582677165
11
3.1858144488188977
21
1.2031692125984252
0
LINE
8
BLACK
6
CONTINUOUS
10
3.1858144488188977
20
1.2031692125984252
11
3.1847500393700785
21
1.2027283070866142
0
LINE
8
BLACK
6
CONTINUOUS
10
3.1847500393700785
20
1.2027283070866142
11
3.1841739763779526
21
1.2026715748031496
0
LINE
8
BLACK
6
CONTINUOUS
10
3.1841739763779526
20
1.2026715748031496
11
3.174003346456693
21
1.2026715748031496
0
LINE
8
BLACK
6
CONTINUOUS
10
3.174003346456693
20
1.2026715748031496
11
3.174003346456693
21
1.1868766929133858
0
LINE
8
BLACK
6
CONTINUOUS
10
3.174003346456693
20
1.1868766929133858
11
3.1739746062992125
21
1.186585157480315
0
LINE
8
BLACK
6
CONTINUOUS
10
3.1739746062992125
20
1.186585157480315
11
3.1739801574803148
21
1.1865074015748032
0
LINE
8
BLACK
6
CONTINUOUS
10
3.1739801574803148
20
1.1865074015748032
11
3.1739614173228348
21
1.1864512992125984
0
LINE
8
BLACK
6
CONTINUOUS
10
3.1739614173228348
20
1.1864512992125984
11
3.1739466141732282
21
1.1863006299212597
0
LINE
8
BLACK
6
CONTINUOUS
10
3.1739466141732282
20
1.1863006299212597
11
3.1737654330708662
21
1.1858632677165355
0
LINE
8
BLACK
6
CONTINUOUS
10
3.1737654330708662
20
1.1858632677165355
11
3.1736158267716537
21
1.1854144094488188
0
LINE
8
BLACK
6
CONTINUOUS
10
3.1736158267716537
20
1.1854144094488188
11
3.1735462992125982
21
1.1853342913385827
0
LINE
8
BLACK
6
CONTINUOUS
10
3.1735462992125982
20
1.1853342913385827
11
3.1735057086614171
21
1.1852362204724409
0
LINE
8
BLACK
6
CONTINUOUS
10
3.1735057086614171
20
1.1852362204724409
11
3.1731709448818899
21
1.184901496062992
0
LINE
8
BLACK
6
CONTINUOUS
10
3.1731709448818899
20
1.184901496062992
11
3.1728609448818896
21
1.1845440157480314
0
LINE
8
BLACK
6
CONTINUOUS
10
3.1728609448818896
20
1.1845440157480314
11
3.1727660629921259
21
1.1844966141732283
0
LINE
8
BLACK
6
CONTINUOUS
10
3.1727660629921259
20
1.1844966141732283
11
3.1726910629921261
21
1.1844215748031495
0
LINE
8
BLACK
6
CONTINUOUS
10
3.1726910629921261
20
1.1844215748031495
11
3.1722535826771652
21
1.1842403937007873
0
LINE
8
BLACK
6
CONTINUOUS
10
3.1722535826771652
20
1.1842403937007873
11
3.171830472440945
21
1.1840288188976378
0
LINE
8
BLACK
6
CONTINUOUS
10
3.171830472440945
20
1.1840288188976378
11
3.1717247244094486
21
1.1840213385826772
0
LINE
8
BLACK
6
CONTINUOUS
10
3.1717247244094486
20
1.1840213385826772
11
3.1716266535433069
21
1.1839806692913386
0
LINE
8
BLACK
6
CONTINUOUS
10
3.1716266535433069
20
1.1839806692913386
11
3.1711531102362205
21
1.1839806692913386
0
LINE
8
BLACK
6
CONTINUOUS
10
3.1711531102362205
20
1.1839806692913386
11
3.1706812598425196
21
1.183947125984252
0
LINE
8
BLACK
6
CONTINUOUS
10
3.1706812598425196
20
1.183947125984252
11
3.1705337401574805
21
1.1839806692913386
0
LINE
8
BLACK
6
CONTINUOUS
10
3.1705337401574805
20
1.1839806692913386
11
3.1704745275590551
21
1.1839806692913386
0
LINE
8
BLACK
6
CONTINUOUS
10
3.1704745275590551
20
1.1839806692913386
11
3.1704024409448817
21
1.1840105511811023
0
LINE
8
BLACK
6
CONTINUOUS
10
3.1704024409448817
20
1.1840105511811023
11
3.1701168110236222
21
1.1840754724409448
0
LINE
8
BLACK
6
CONTINUOUS
10
3.1701168110236222
20
1.1840754724409448
11
3.1419953937007872
21
1.1934492913385826
0
LINE
8
BLACK
6
CONTINUOUS
10
3.1419953937007872
20
1.1934492913385826
11
3.1414668110236219
21
1.1936852755905512
0
LINE
8
BLACK
6
CONTINUOUS
10
3.1414668110236219
20
1.1936852755905512
11
3.1405964566929132
21
1.194440157480315
0
LINE
8
BLACK
6
CONTINUOUS
10
3.1405964566929132
20
1.194440157480315
11
3.1400812598425194
21
1.1954705905511811
0
LINE
8
BLACK
6
CONTINUOUS
10
3.1400812598425194
20
1.1954705905511811
11
3.1399995669291338
21
1.1966198031496063
0
LINE
8
BLACK
6
CONTINUOUS
10
3.1399995669291338
20
1.1966198031496063
11
3.140363897637795
21
1.1977128346456694
0
LINE
8
BLACK
6
CONTINUOUS
10
3.140363897637795
20
1.1977128346456694
11
3.141118779527559
21
1.1985831889763778
0
LINE
8
BLACK
6
CONTINUOUS
10
3.141118779527559
20
1.1985831889763778
11
3.1421492125984249
21
1.1990983858267716
0
LINE
8
BLACK
6
CONTINUOUS
10
3.1421492125984249
20
1.1990983858267716
11
3.1432984251968503
21
1.1991800787401574
0
LINE
8
BLACK
6
CONTINUOUS
10
3.1432984251968503
20
1.1991800787401574
11
3.1438628740157482
21
1.1990517322834646
0
LINE
8
BLACK
6
CONTINUOUS
10
3.1438628740157482
20
1.1990517322834646
11
3.1680978346456694
21
1.1909734251968505
0
LINE
8
BLACK
6
CONTINUOUS
10
3.1680978346456694
20
1.1909734251968505
11
3.1680978346456694
21
1.2026715748031496
0
LINE
8
BLACK
6
CONTINUOUS
10
3.1680978346456694
20
1.2026715748031496
11
3.1579272440944881
21
1.2026715748031496
0
LINE
8
BLACK
6
CONTINUOUS
10
3.1579272440944881
20
1.2026715748031496
11
3.1573511811023622
21
1.2027283070866142
0
LINE
8
BLACK
6
CONTINUOUS
10
3.1573511811023622
20
1.2027283070866142
11
3.1562867716535434
21
1.2031692125984252
0
LINE
8
BLACK
6
CONTINUOUS
10
3.1562867716535434
20
1.2031692125984252
11
3.155472125984252
21
1.2039838582677165
0
LINE
8
BLACK
6
CONTINUOUS
10
3.155472125984252
20
1.2039838582677165
11
3.1550312204724409
21
1.2050482677165355
0
LINE
8
BLACK
6
CONTINUOUS
10
3.1550312204724409
20
1.2050482677165355
11
3.1550312204724409
21
1.2062003937007875
0
LINE
8
BLACK
6
CONTINUOUS
10
3.1550312204724409
20
1.2062003937007875
11
3.155472125984252
21
1.2072648031496063
0
LINE
8
BLACK
6
CONTINUOUS
10
3.155472125984252
20
1.2072648031496063
11
3.1562867716535434
21
1.2080794488188975
0
LINE
8
BLACK
6
CONTINUOUS
10
3.1562867716535434
20
1.2080794488188975
11
3.1573511811023622
21
1.2085203543307086
0
LINE
8
BLACK
6
CONTINUOUS
10
3.1573511811023622
20
1.2085203543307086
11
3.1579272440944881
21
1.2085770866141732
0
LINE
8
BLACK
6
CONTINUOUS
10
3.1579272440944881
20
1.2085770866141732
11
3.1680978346456694
21
1.2085770866141732
0
LINE
8
BLACK
6
CONTINUOUS
10
3.1680978346456694
20
1.2085770866141732
11
3.1680978346456694
21
1.211248622047244
0
LINE
8
BLACK
6
CONTINUOUS
10
3.1680978346456694
20
1.211248622047244
11
3.1681545669291338
21
1.2118246850393701
0
LINE
8
BLACK
6
CONTINUOUS
10
3.1681545669291338
20
1.2118246850393701
11
3.1685954724409449
21
1.2128890944881889
0
LINE
8
BLACK
6
CONTINUOUS
10
3.1685954724409449
20
1.2128890944881889
11
3.1694101181102363
21
1.2137037401574804
0
LINE
8
BLACK
6
CONTINUOUS
10
3.1694101181102363
20
1.2137037401574804
11
3.1704745275590551
21
1.2141446456692913
0
LINE
8
BLACK
6
CONTINUOUS
10
3.1704745275590551
20
1.2141446456692913
11
3.1716266535433069
21
1.2141446456692913
0
LINE
8
BLACK
6
CONTINUOUS
10
3.1716266535433069
20
1.2141446456692913
11
3.1726910629921261
21
1.2137037401574804
0
LINE
8
BLACK
6
CONTINUOUS
10
3.1847500393700785
20
1.2928848425196851
11
3.1858144488188977
21
1.292443937007874
0
LINE
8
BLACK
6
CONTINUOUS
10
3.1858144488188977
20
1.292443937007874
11
3.1866290944881888
21
1.2916292913385827
0
LINE
8
BLACK
6
CONTINUOUS
10
3.1866290944881888
20
1.2916292913385827
11
3.1870699999999998
21
1.2905648818897637
0
LINE
8
BLACK
6
CONTINUOUS
10
3.1870699999999998
20
1.2905648818897637
11
3.1870699999999998
21
1.2894127559055117
0
LINE
8
BLACK
6
CONTINUOUS
10
3.1870699999999998
20
1.2894127559055117
11
3.1866290944881888
21
1.2883483464566929
0
LINE
8
BLACK
6
CONTINUOUS
10
3.1866290944881888
20
1.2883483464566929
11
3.1858144488188977
21
1.2875337007874015
0
LINE
8
BLACK
6
CONTINUOUS
10
3.1858144488188977
20
1.2875337007874015
11
3.1847500393700785
21
1.2870927952755906
0
LINE
8
BLACK
6
CONTINUOUS
10
3.1847500393700785
20
1.2870927952755906
11
3.1841739763779526
21
1.287036062992126
0
LINE
8
BLACK
6
CONTINUOUS
10
3.1841739763779526
20
1.287036062992126
11
3.1642485826771654
21
1.287036062992126
0
LINE
8
BLACK
6
CONTINUOUS
10
3.1642485826771654
20
1.287036062992126
11
3.1620028346456692
21
1.2859132283464567
0
LINE
8
BLACK
6
CONTINUOUS
10
3.1620028346456692
20
1.2859132283464567
11
3.1608800000000001
21
1.2836674803149606
0
LINE
8
BLACK
6
CONTINUOUS
10
3.1608800000000001
20
1.2836674803149606
11
3.1608800000000001
21
1.2794372440944881
0
LINE
8
BLACK
6
CONTINUOUS
10
3.1608800000000001
20
1.2794372440944881
11
3.1620028346456692
21
1.2771915354330707
0
LINE
8
BLACK
6
CONTINUOUS
10
3.1620028346456692
20
1.2771915354330707
11
3.1642485826771654
21
1.2760686614173229
0
LINE
8
BLACK
6
CONTINUOUS
10
3.1642485826771654
20
1.2760686614173229
11
3.1841739763779526
21
1.2760686614173229
0
LINE
8
BLACK
6
CONTINUOUS
10
3.1841739763779526
20
1.2760686614173229
11
3.1847500393700785
21
1.2760119291338583
0
LINE
8
BLACK
6
CONTINUOUS
10
3.1847500393700785
20
1.2760119291338583
11
3.1858144488188977
21
1.2755710236220472
0
LINE
8
BLACK
6
CONTINUOUS
10
3.1858144488188977
20
1.2755710236220472
11
3.1866290944881888
21
1.274756377952756
0
LINE
8
BLACK
6
CONTINUOUS
10
3.1866290944881888
20
1.274756377952756
11
3.1870699999999998
21
1.273691968503937
0
LINE
8
BLACK
6
CONTINUOUS
10
3.1870699999999998
20
1.273691968503937
11
3.1870699999999998
21
1.272539842519685
0
LINE
8
BLACK
6
CONTINUOUS
10
3.1870699999999998
20
1.272539842519685
11
3.1866290944881888
21
1.2714754330708662
0
LINE
8
BLACK
6
CONTINUOUS
10
3.1866290944881888
20
1.2714754330708662
11
3.1858144488188977
21
1.2706607874015747
0
LINE
8
BLACK
6
CONTINUOUS
10
3.1858144488188977
20
1.2706607874015747
11
3.1847500393700785
21
1.2702198818897636
0
LINE
8
BLACK
6
CONTINUOUS
10
3.1847500393700785
20
1.2702198818897636
11
3.1841739763779526
21
1.2701631496062993
0
LINE
8
BLACK
6
CONTINUOUS
10
3.1841739763779526
20
1.2701631496062993
11
3.1642485826771654
21
1.2701631496062993
0
LINE
8
BLACK
6
CONTINUOUS
10
3.1642485826771654
20
1.2701631496062993
11
3.1620028346456692
21
1.26904031496063
0
LINE
8
BLACK
6
CONTINUOUS
10
3.1620028346456692
20
1.26904031496063
11
3.1608800000000001
21
1.2667945669291338
0
LINE
8
BLACK
6
CONTINUOUS
10
3.1608800000000001
20
1.2667945669291338
11
3.1608800000000001
21
1.2625643700787401
0
LINE
8
BLACK
6
CONTINUOUS
10
3.1608800000000001
20
1.2625643700787401
11
3.1622287401574805
21
1.2598668897637795
0
LINE
8
BLACK
6
CONTINUOUS
10
3.1622287401574805
20
1.2598668897637795
11
3.162899842519685
21
1.2591957874015747
0
LINE
8
BLACK
6
CONTINUOUS
10
3.162899842519685
20
1.2591957874015747
11
3.1841739763779526
21
1.2591957874015747
0
LINE
8
BLACK
6
CONTINUOUS
10
3.1841739763779526
20
1.2591957874015747
11
3.1847500393700785
21
1.2591390551181103
0
LINE
8
BLACK
6
CONTINUOUS
10
3.1847500393700785
20
1.2591390551181103
11
3.1858144488188977
21
1.2586981496062992
0
LINE
8
BLACK
6
CONTINUOUS
10
3.1858144488188977
20
1.2586981496062992
11
3.1866290944881888
21
1.2578835039370078
0
LINE
8
BLACK
6
CONTINUOUS
10
3.1866290944881888
20
1.2578835039370078
11
3.1870699999999998
21
1.256819094488189
0
LINE
8
BLACK
6
CONTINUOUS
10
3.1870699999999998
20
1.256819094488189
11
3.1870699999999998
21
1.255666968503937
0
LINE
8
BLACK
6
CONTINUOUS
10
3.1870699999999998
20
1.255666968503937
11
3.1866290944881888
21
1.254602559055118
0
LINE
8
BLACK
6
CONTINUOUS
10
3.1866290944881888
20
1.254602559055118
11
3.1858144488188977
21
1.2537879133858267
0
LINE
8
BLACK
6
CONTINUOUS
10
3.1858144488188977
20
1.2537879133858267
11
3.1847500393700785
21
1.2533470078740157
0
LINE
8
BLACK
6
CONTINUOUS
10
3.1847500393700785
20
1.2533470078740157
11
3.1841739763779526
21
1.2532902755905511
0
LINE
8
BLACK
6
CONTINUOUS
10
3.1841739763779526
20
1.2532902755905511
11
3.1579272440944881
21
1.2532902755905511
0
LINE
8
BLACK
6
CONTINUOUS
10
3.1579272440944881
20
1.2532902755905511
11
3.1573511811023622
21
1.2533470078740157
0
LINE
8
BLACK
6
CONTINUOUS
10
3.1573511811023622
20
1.2533470078740157
11
3.1562867716535434
21
1.2537879133858267
0
LINE
8
BLACK
6
CONTINUOUS
10
3.1562867716535434
20
1.2537879133858267
11
3.155472125984252
21
1.254602559055118
0
LINE
8
BLACK
6
CONTINUOUS
10
3.155472125984252
20
1.254602559055118
11
3.1550312204724409
21
1.255666968503937
0
LINE
8
BLACK
6
CONTINUOUS
10
3.1550312204724409
20
1.255666968503937
11
3.1550312204724409
21
1.256819094488189
0
LINE
8
BLACK
6
CONTINUOUS
10
3.1550312204724409
20
1.256819094488189
11
3.155472125984252
21
1.2578835039370078
0
LINE
8
BLACK
6
CONTINUOUS
10
3.155472125984252
20
1.2578835039370078
11
3.1562359448818897
21
1.2586473622047243
0
LINE
8
BLACK
6
CONTINUOUS
10
3.1562359448818897
20
1.2586473622047243
11
3.155286220472441
21
1.260546811023622
0
LINE
8
BLACK
6
CONTINUOUS
10
3.155286220472441
20
1.260546811023622
11
3.1550793307086615
21
1.2610874409448818
0
LINE
8
BLACK
6
CONTINUOUS
10
3.1550793307086615
20
1.2610874409448818
11
3.155071811023622
21
1.2611932677165354
0
LINE
8
BLACK
6
CONTINUOUS
10
3.155071811023622
20
1.2611932677165354
11
3.1550312204724409
21
1.2612912598425197
0
LINE
8
BLACK
6
CONTINUOUS
10
3.1550312204724409
20
1.2612912598425197
11
3.1549744881889765
21
1.2618673228346455
0
LINE
8
BLACK
6
CONTINUOUS
10
3.1549744881889765
20
1.2618673228346455
11
3.1549744881889765
21
1.2674916141732284
0
LINE
8
BLACK
6
CONTINUOUS
10
3.1549744881889765
20
1.2674916141732284
11
3.1550312204724409
21
1.2680676771653543
0
LINE
8
BLACK
6
CONTINUOUS
10
3.1550312204724409
20
1.2680676771653543
11
3.155071811023622
21
1.2681657086614173
0
LINE
8
BLACK
6
CONTINUOUS
10
3.155071811023622
20
1.2681657086614173
11
3.1550793307086615
21
1.2682714960629922
0
LINE
8
BLACK
6
CONTINUOUS
10
3.1550793307086615
20
1.2682714960629922
11
3.155286220472441
21
1.268812125984252
0
LINE
8
BLACK
6
CONTINUOUS
10
3.155286220472441
20
1.268812125984252
11
3.1571609842519686
21
1.2725616535433071
0
LINE
8
BLACK
6
CONTINUOUS
10
3.1571609842519686
20
1.2725616535433071
11
3.1572216141732281
21
1.2726580314960629
0
LINE
8
BLACK
6
CONTINUOUS
10
3.1572216141732281
20
1.2726580314960629
11
3.1572367716535434
21
1.2727034251968503
0
LINE
8
BLACK
6
CONTINUOUS
10
3.1572367716535434
20
1.2727034251968503
11
3.157285787401575
21
1.2727599999999999
0
LINE
8
BLACK
6
CONTINUOUS
10
3.157285787401575
20
1.2727599999999999
11
3.1574693307086612
21
1.2730515354330709
0
LINE
8
BLACK
6
CONTINUOUS
10
3.1574693307086612
20
1.2730515354330709
11
3.1575435433070864
21
1.2731159055118111
0
LINE
8
BLACK
6
CONTINUOUS
10
3.1575435433070864
20
1.2731159055118111
11
3.1574693307086612
21
1.2731802755905512
0
LINE
8
BLACK
6
CONTINUOUS
10
3.1574693307086612
20
1.2731802755905512
11
3.157285787401575
21
1.2734718503937008
0
LINE
8
BLACK
6
CONTINUOUS
10
3.157285787401575
20
1.2734718503937008
11
3.1572367716535434
21
1.2735283858267716
0
LINE
8
BLACK
6
CONTINUOUS
10
3.1572367716535434
20
1.2735283858267716
11
3.1572216141732281
21
1.2735738188976378
0
LINE
8
BLACK
6
CONTINUOUS
10
3.1572216141732281
20
1.2735738188976378
11
3.1571609842519686
21
1.2736701574803149
0
LINE
8
BLACK
6
CONTINUOUS
10
3.1571609842519686
20
1.2736701574803149
11
3.155286220472441
21
1.27741968503937
0
LINE
8
BLACK
6
CONTINUOUS
10
3.155286220472441
20
1.27741968503937
11
3.1550793307086615
21
1.2779603149606298
0
LINE
8
BLACK
6
CONTINUOUS
10
3.1550793307086615
20
1.2779603149606298
11
3.155071811023622
21
1.2780661417322834
0
LINE
8
BLACK
6
CONTINUOUS
10
3.155071811023622
20
1.2780661417322834
11
3.1550312204724409
21
1.2781641338582677
0
LINE
8
BLACK
6
CONTINUOUS
10
3.1550312204724409
20
1.2781641338582677
11
3.1549744881889765
21
1.2787401968503938
0
LINE
8
BLACK
6
CONTINUOUS
10
3.1549744881889765
20
1.2787401968503938
11
3.1549744881889765
21
1.2843644881889764
0
LINE
8
BLACK
6
CONTINUOUS
10
3.1549744881889765
20
1.2843644881889764
11
3.1550312204724409
21
1.2849405511811023
0
LINE
8
BLACK
6
CONTINUOUS
10
3.1550312204724409
20
1.2849405511811023
11
3.155071811023622
21
1.2850385826771653
0
LINE
8
BLACK
6
CONTINUOUS
10
3.155071811023622
20
1.2850385826771653
11
3.1550793307086615
21
1.2851443700787402
0
LINE
8
BLACK
6
CONTINUOUS
10
3.1550793307086615
20
1.2851443700787402
11
3.155286220472441
21
1.285685
0
LINE
8
BLACK
6
CONTINUOUS
10
3.155286220472441
20
1.285685
11
3.1571609842519686
21
1.2894345669291338
0
LINE
8
BLACK
6
CONTINUOUS
10
3.1571609842519686
20
1.2894345669291338
11
3.1572216141732281
21
1.2895309055118109
0
LINE
8
BLACK
6
CONTINUOUS
10
3.1572216141732281
20
1.2895309055118109
11
3.1572367716535434
21
1.2895763385826771
0
LINE
8
BLACK
6
CONTINUOUS
10
3.1572367716535434
20
1.2895763385826771
11
3.1572858267716533
21
1.2896329527559054
0
LINE
8
BLACK
6
CONTINUOUS
10
3.1572858267716533
20
1.2896329527559054
11
3.1574693307086612
21
1.2899244094488189
0
LINE
8
BLACK
6
CONTINUOUS
10
3.1574693307086612
20
1.2899244094488189
11
3.1577489370078737
21
1.2901669291338582
0
LINE
8
BLACK
6
CONTINUOUS
10
3.1577489370078737
20
1.2901669291338582
11
3.1579916141732283
21
1.2904467322834645
0
LINE
8
BLACK
6
CONTINUOUS
10
3.1579916141732283
20
1.2904467322834645
11
3.1582831496062993
21
1.2906302755905512
0
LINE
8
BLACK
6
CONTINUOUS
10
3.1582831496062993
20
1.2906302755905512
11
3.1583397244094487
21
1.2906792913385827
0
LINE
8
BLACK
6
CONTINUOUS
10
3.1583397244094487
20
1.2906792913385827
11
3.1583851181102363
21
1.2906944488188976
0
LINE
8
BLACK
6
CONTINUOUS
10
3.1583851181102363
20
1.2906944488188976
11
3.1584814960629921
21
1.2907550787401574
0
LINE
8
BLACK
6
CONTINUOUS
10
3.1584814960629921
20
1.2907550787401574
11
3.1622310236220472
21
1.2926298425196849
0
LINE
8
BLACK
6
CONTINUOUS
10
3.1622310236220472
20
1.2926298425196849
11
3.1627716141732285
21
1.2928367322834646
0
LINE
8
BLACK
6
CONTINUOUS
10
3.1627716141732285
20
1.2928367322834646
11
3.1628774803149606
21
1.2928442913385827
0
LINE
8
BLACK
6
CONTINUOUS
10
3.1628774803149606
20
1.2928442913385827
11
3.1629754724409449
21
1.2928848425196851
0
LINE
8
BLACK
6
CONTINUOUS
10
3.1629754724409449
20
1.2928848425196851
11
3.1635515354330708
21
1.2929415748031496
0
LINE
8
BLACK
6
CONTINUOUS
10
3.1635515354330708
20
1.2929415748031496
11
3.1841739763779526
21
1.2929415748031496
0
LINE
8
BLACK
6
CONTINUOUS
10
3.1841739763779526
20
1.2929415748031496
11
3.1847500393700785
21
1.2928848425196851
0
LINE
8
BLACK
6
CONTINUOUS
10
3.1847500393700785
20
1.3453782677165353
11
3.1858144488188977
21
1.3449373622047245
0
LINE
8
BLACK
6
CONTINUOUS
10
3.1858144488188977
20
1.3449373622047245
11
3.1866290944881888
21
1.344122716535433
0
LINE
8
BLACK
6
CONTINUOUS
10
3.1866290944881888
20
1.344122716535433
11
3.1870699999999998
21
1.3430583070866142
0
LINE
8
BLACK
6
CONTINUOUS
10
3.1870699999999998
20
1.3430583070866142
11
3.1870699999999998
21
1.3419061811023623
0
LINE
8
BLACK
6
CONTINUOUS
10
3.1870699999999998
20
1.3419061811023623
11
3.1866290944881888
21
1.3408417716535432
0
LINE
8
BLACK
6
CONTINUOUS
10
3.1866290944881888
20
1.3408417716535432
11
3.1858144488188977
21
1.340027125984252
0
LINE
8
BLACK
6
CONTINUOUS
10
3.1858144488188977
20
1.340027125984252
11
3.1847500393700785
21
1.3395862204724409
0
LINE
8
BLACK
6
CONTINUOUS
10
3.1847500393700785
20
1.3395862204724409
11
3.1841739763779526
21
1.3395294881889763
0
LINE
8
BLACK
6
CONTINUOUS
10
3.1841739763779526
20
1.3395294881889763
11
3.1642485826771654
21
1.3395294881889763
0
LINE
8
BLACK
6
CONTINUOUS
10
3.1642485826771654
20
1.3395294881889763
11
3.1620028346456692
21
1.338406653543307
0
LINE
8
BLACK
6
CONTINUOUS
10
3.1620028346456692
20
1.338406653543307
11
3.1608800000000001
21
1.3361609055118111
0
LINE
8
BLACK
6
CONTINUOUS
10
3.1608800000000001
20
1.3361609055118111
11
3.1608800000000001
21
1.3319306692913386
0
LINE
8
BLACK
6
CONTINUOUS
10
3.1608800000000001
20
1.3319306692913386
11
3.1620028346456692
21
1.3296849606299213
0
LINE
8
BLACK
6
CONTINUOUS
10
3.1620028346456692
20
1.3296849606299213
11
3.1642485826771654
21
1.3285620866141732
0
LINE
8
BLACK
6
CONTINUOUS
10
3.1642485826771654
20
1.3285620866141732
11
3.1841739763779526
21
1.3285620866141732
0
LINE
8
BLACK
6
CONTINUOUS
10
3.1841739763779526
20
1.3285620866141732
11
3.1847500393700785
21
1.3285053543307086
0
LINE
8
BLACK
6
CONTINUOUS
10
3.1847500393700785
20
1.3285053543307086
11
3.1858144488188977
21
1.3280644488188975
0
LINE
8
BLACK
6
CONTINUOUS
10
3.1858144488188977
20
1.3280644488188975
11
3.1866290944881888
21
1.3272498031496063
0
LINE
8
BLACK
6
CONTINUOUS
10
3.1866290944881888
20
1.3272498031496063
11
3.1870699999999998
21
1.3261853937007875
0
LINE
8
BLACK
6
CONTINUOUS
10
3.1870699999999998
20
1.3261853937007875
11
3.1870699999999998
21
1.3250332677165355
0
LINE
8
BLACK
6
CONTINUOUS
10
3.1870699999999998
20
1.3250332677165355
11
3.1866290944881888
21
1.3239688582677165
0
LINE
8
BLACK
6
CONTINUOUS
10
3.1866290944881888
20
1.3239688582677165
11
3.1858144488188977
21
1.3231542125984253
0
LINE
8
BLACK
6
CONTINUOUS
10
3.1858144488188977
20
1.3231542125984253
11
3.1847500393700785
21
1.3227133070866142
0
LINE
8
BLACK
6
CONTINUOUS
10
3.1847500393700785
20
1.3227133070866142
11
3.1841739763779526
21
1.3226565748031496
0
LINE
8
BLACK
6
CONTINUOUS
10
3.1841739763779526
20
1.3226565748031496
11
3.1642485826771654
21
1.3226565748031496
0
LINE
8
BLACK
6
CONTINUOUS
10
3.1642485826771654
20
1.3226565748031496
11
3.1620028346456692
21
1.3215337401574803
0
LINE
8
BLACK
6
CONTINUOUS
10
3.1620028346456692
20
1.3215337401574803
11
3.1608800000000001
21
1.3192879921259841
0
LINE
8
BLACK
6
CONTINUOUS
10
3.1608800000000001
20
1.3192879921259841
11
3.1608800000000001
21
1.3150577952755904
0
LINE
8
BLACK
6
CONTINUOUS
10
3.1608800000000001
20
1.3150577952755904
11
3.1622287401574805
21
1.31236031496063
0
LINE
8
BLACK
6
CONTINUOUS
10
3.1622287401574805
20
1.31236031496063
11
3.162899842519685
21
1.3116892125984252
0
LINE
8
BLACK
6
CONTINUOUS
10
3.162899842519685
20
1.3116892125984252
11
3.1841739763779526
21
1.3116892125984252
0
LINE
8
BLACK
6
CONTINUOUS
10
3.1841739763779526
20
1.3116892125984252
11
3.1847500393700785
21
1.3116324803149606
0
LINE
8
BLACK
6
CONTINUOUS
10
3.1847500393700785
20
1.3116324803149606
11
3.1858144488188977
21
1.3111915748031495
0
LINE
8
BLACK
6
CONTINUOUS
10
3.1858144488188977
20
1.3111915748031495
11
3.1866290944881888
21
1.3103769291338583
0
LINE
8
BLACK
6
CONTINUOUS
10
3.1866290944881888
20
1.3103769291338583
11
3.1870699999999998
21
1.3093125196850393
0
LINE
8
BLACK
6
CONTINUOUS
10
3.1870699999999998
20
1.3093125196850393
11
3.1870699999999998
21
1.3081603937007873
0
LINE
8
BLACK
6
CONTINUOUS
10
3.1870699999999998
20
1.3081603937007873
11
3.1866290944881888
21
1.3070959842519685
0
LINE
8
BLACK
6
CONTINUOUS
10
3.1866290944881888
20
1.3070959842519685
11
3.1858144488188977
21
1.306281338582677
0
LINE
8
BLACK
6
CONTINUOUS
10
3.1858144488188977
20
1.306281338582677
11
3.1847500393700785
21
1.3058404330708662
0
LINE
8
BLACK
6
CONTINUOUS
10
3.1847500393700785
20
1.3058404330708662
11
3.1841739763779526
21
1.3057837007874016
0
LINE
8
BLACK
6
CONTINUOUS
10
3.1841739763779526
20
1.3057837007874016
11
3.1579272440944881
21
1.3057837007874016
0
LINE
8
BLACK
6
CONTINUOUS
10
3.1579272440944881
20
1.3057837007874016
11
3.1573511811023622
21
1.3058404330708662
0
LINE
8
BLACK
6
CONTINUOUS
10
3.1573511811023622
20
1.3058404330708662
11
3.1562867716535434
21
1.306281338582677
0
LINE
8
BLACK
6
CONTINUOUS
10
3.1562867716535434
20
1.306281338582677
11
3.155472125984252
21
1.3070959842519685
0
LINE
8
BLACK
6
CONTINUOUS
10
3.155472125984252
20
1.3070959842519685
11
3.1550312204724409
21
1.3081603937007873
0
LINE
8
BLACK
6
CONTINUOUS
10
3.1550312204724409
20
1.3081603937007873
11
3.1550312204724409
21
1.3093125196850393
0
LINE
8
BLACK
6
CONTINUOUS
10
3.1550312204724409
20
1.3093125196850393
11
3.155472125984252
21
1.3103769291338583
0
LINE
8
BLACK
6
CONTINUOUS
10
3.155472125984252
20
1.3103769291338583
11
3.1562359448818897
21
1.3111407874015748
0
LINE
8
BLACK
6
CONTINUOUS
10
3.1562359448818897
20
1.3111407874015748
11
3.155286220472441
21
1.3130402362204725
0
LINE
8
BLACK
6
CONTINUOUS
10
3.155286220472441
20
1.3130402362204725
11
3.1550793307086615
21
1.3135808661417323
0
LINE
8
BLACK
6
CONTINUOUS
10
3.1550793307086615
20
1.3135808661417323
11
3.155071811023622
21
1.3136866929133857
0
LINE
8
BLACK
6
CONTINUOUS
10
3.155071811023622
20
1.3136866929133857
11
3.1550312204724409
21
1.31378468503937
0
LINE
8
BLACK
6
CONTINUOUS
10
3.1550312204724409
20
1.31378468503937
11
3.1549744881889765
21
1.3143607480314961
0
LINE
8
BLACK
6
CONTINUOUS
10
3.1549744881889765
20
1.3143607480314961
11
3.1549744881889765
21
1.3199850393700787
0
LINE
8
BLACK
6
CONTINUOUS
10
3.1549744881889765
20
1.3199850393700787
11
3.1550312204724409
21
1.3205611023622046
0
LINE
8
BLACK
6
CONTINUOUS
10
3.1550312204724409
20
1.3205611023622046
11
3.155071811023622
21
1.3206591338582676
0
LINE
8
BLACK
6
CONTINUOUS
10
3.155071811023622
20
1.3206591338582676
11
3.1550793307086615
21
1.3207649212598425
0
LINE
8
BLACK
6
CONTINUOUS
10
3.1550793307086615
20
1.3207649212598425
11
3.155286220472441
21
1.3213055511811023
0
LINE
8
BLACK
6
CONTINUOUS
10
3.155286220472441
20
1.3213055511811023
11
3.1571609842519686
21
1.3250550787401574
0
LINE
8
BLACK
6
CONTINUOUS
10
3.1571609842519686
20
1.3250550787401574
11
3.1572216141732281
21
1.3251514566929135
0
LINE
8
BLACK
6
CONTINUOUS
10
3.1572216141732281
20
1.3251514566929135
11
3.1572367716535434
21
1.3251968503937008
0
LINE
8
BLACK
6
CONTINUOUS
10
3.1572367716535434
20
1.3251968503937008
11
3.157285787401575
21
1.3252534251968504
0
LINE
8
BLACK
6
CONTINUOUS
10
3.157285787401575
20
1.3252534251968504
11
3.1574693307086612
21
1.3255449606299212
0
LINE
8
BLACK
6
CONTINUOUS
10
3.1574693307086612
20
1.3255449606299212
11
3.1575435433070864
21
1.3256093307086614
0
LINE
8
BLACK
6
CONTINUOUS
10
3.1575435433070864
20
1.3256093307086614
11
3.1574693307086612
21
1.3256737007874015
0
LINE
8
BLACK
6
CONTINUOUS
10
3.1574693307086612
20
1.3256737007874015
11
3.157285787401575
21
1.3259652755905511
0
LINE
8
BLACK
6
CONTINUOUS
10
3.157285787401575
20
1.3259652755905511
11
3.1572367716535434
21
1.3260218110236219
0
LINE
8
BLACK
6
CONTINUOUS
10
3.1572367716535434
20
1.3260218110236219
11
3.1572216141732281
21
1.3260672440944881
0
LINE
8
BLACK
6
CONTINUOUS
10
3.1572216141732281
20
1.3260672440944881
11
3.1571609842519686
21
1.3261635826771654
0
LINE
8
BLACK
6
CONTINUOUS
10
3.1571609842519686
20
1.3261635826771654
11
3.155286220472441
21
1.3299131102362205
0
LINE
8
BLACK
6
CONTINUOUS
10
3.155286220472441
20
1.3299131102362205
11
3.1550793307086615
21
1.3304537401574803
0
LINE
8
BLACK
6
CONTINUOUS
10
3.1550793307086615
20
1.3304537401574803
11
3.155071811023622
21
1.3305595669291339
0
LINE
8
BLACK
6
CONTINUOUS
10
3.155071811023622
20
1.3305595669291339
11
3.1550312204724409
21
1.3306575590551182
0
LINE
8
BLACK
6
CONTINUOUS
10
3.1550312204724409
20
1.3306575590551182
11
3.1549744881889765
21
1.331233622047244
0
LINE
8
BLACK
6
CONTINUOUS
10
3.1549744881889765
20
1.331233622047244
11
3.1549744881889765
21
1.3368579133858267
0
LINE
8
BLACK
6
CONTINUOUS
10
3.1549744881889765
20
1.3368579133858267
11
3.1550312204724409
21
1.3374339763779528
0
LINE
8
BLACK
6
CONTINUOUS
10
3.1550312204724409
20
1.3374339763779528
11
3.155071811023622
21
1.3375320078740158
0
LINE
8
BLACK
6
CONTINUOUS
10
3.155071811023622
20
1.3375320078740158
11
3.1550793307086615
21
1.3376377952755905
0
LINE
8
BLACK
6
CONTINUOUS
10
3.1550793307086615
20
1.3376377952755905
11
3.155286220472441
21
1.3381784251968503
0
LINE
8
BLACK
6
CONTINUOUS
10
3.155286220472441
20
1.3381784251968503
11
3.1571609842519686
21
1.3419279921259841
0
LINE
8
BLACK
6
CONTINUOUS
10
3.1571609842519686
20
1.3419279921259841
11
3.1572216141732281
21
1.3420243307086615
0
LINE
8
BLACK
6
CONTINUOUS
10
3.1572216141732281
20
1.3420243307086615
11
3.1572367716535434
21
1.3420697637795276
0
LINE
8
BLACK
6
CONTINUOUS
10
3.1572367716535434
20
1.3420697637795276
11
3.1572858267716533
21
1.3421263779527559
0
LINE
8
BLACK
6
CONTINUOUS
10
3.1572858267716533
20
1.3421263779527559
11
3.1574693307086612
21
1.3424178346456692
0
LINE
8
BLACK
6
CONTINUOUS
10
3.1574693307086612
20
1.3424178346456692
11
3.1577489370078737
21
1.3426603543307087
0
LINE
8
BLACK
6
CONTINUOUS
10
3.1577489370078737
20
1.3426603543307087
11
3.1579916141732283
21
1.342940157480315
0
LINE
8
BLACK
6
CONTINUOUS
10
3.1579916141732283
20
1.342940157480315
11
3.1582831496062993
21
1.3431237007874015
0
LINE
8
BLACK
6
CONTINUOUS
10
3.1582831496062993
20
1.3431237007874015
11
3.1583397244094487
21
1.343172716535433
0
LINE
8
BLACK
6
CONTINUOUS
10
3.1583397244094487
20
1.343172716535433
11
3.1583851181102363
21
1.3431878740157479
0
LINE
8
BLACK
6
CONTINUOUS
10
3.1583851181102363
20
1.3431878740157479
11
3.1584814960629921
21
1.3432485039370079
0
LINE
8
BLACK
6
CONTINUOUS
10
3.1584814960629921
20
1.3432485039370079
11
3.1622310236220472
21
1.3451232677165355
0
LINE
8
BLACK
6
CONTINUOUS
10
3.1622310236220472
20
1.3451232677165355
11
3.1627716141732285
21
1.3453301574803149
0
LINE
8
BLACK
6
CONTINUOUS
10
3.1627716141732285
20
1.3453301574803149
11
3.1628774803149606
21
1.345337716535433
0
LINE
8
BLACK
6
CONTINUOUS
10
3.1628774803149606
20
1.345337716535433
11
3.1629754724409449
21
1.3453782677165353
0
LINE
8
BLACK
6
CONTINUOUS
10
3.1629754724409449
20
1.3453782677165353
11
3.1635515354330708
21
1.3454349999999999
0
LINE
8
BLACK
6
CONTINUOUS
10
3.1635515354330708
20
1.3454349999999999
11
3.1841739763779526
21
1.3454349999999999
0
LINE
8
BLACK
6
CONTINUOUS
10
3.1841739763779526
20
1.3454349999999999
11
3.1847500393700785
21
1.3453782677165353
0
LINE
8
BLACK
6
CONTINUOUS
10
2.7564757086614171
20
2.575922244094488
11
2.7570128740157478
21
2.5757065748031494
0
LINE
8
BLACK
6
CONTINUOUS
10
2.7570128740157478
20
2.5757065748031494
11
2.7970472440944882
21
2.5548660236220471
0
LINE
8
BLACK
6
CONTINUOUS
10
2.7970472440944882
20
2.5548660236220471
11
2.7970472440944882
21
2.5730874015748033
0
LINE
8
BLACK
6
CONTINUOUS
10
2.7970472440944882
20
2.5730874015748033
11
2.7971039763779526
21
2.5736634645669292
0
LINE
8
BLACK
6
CONTINUOUS
10
2.7971039763779526
20
2.5736634645669292
11
2.7975448818897637
21
2.574727874015748
0
LINE
8
BLACK
6
CONTINUOUS
10
2.7975448818897637
20
2.574727874015748
11
2.7983595275590551
21
2.5755425196850394
0
LINE
8
BLACK
6
CONTINUOUS
10
2.7983595275590551
20
2.5755425196850394
11
2.799423937007874
21
2.5759834251968505
0
LINE
8
BLACK
6
CONTINUOUS
10
2.799423937007874
20
2.5759834251968505
11
2.8005760629921261
21
2.5759834251968505
0
LINE
8
BLACK
6
CONTINUOUS
10
2.8005760629921261
20
2.5759834251968505
11
2.8016404724409449
21
2.5755425196850394
0
LINE
8
BLACK
6
CONTINUOUS
10
2.8016404724409449
20
2.5755425196850394
11
2.802455118110236
21
2.574727874015748
0
LINE
8
BLACK
6
CONTINUOUS
10
2.802455118110236
20
2.574727874015748
11
2.802896023622047
21
2.5736634645669292
0
LINE
8
BLACK
6
CONTINUOUS
10
2.802896023622047
20
2.5736634645669292
11
2.8029527559055119
21
2.5730874015748033
0
LINE
8
BLACK
6
CONTINUOUS
10
2.8029527559055119
20
2.5730874015748033
11
2.8029527559055119
21
2.2196850393700789
0
LINE
8
BLACK
6
CONTINUOUS
10
2.8029527559055119
20
2.2196850393700789
11
2.802896023622047
21
2.2191089763779526
0
LINE
8
BLACK
6
CONTINUOUS
10
2.802896023622047
20
2.2191089763779526
11
2.802455118110236
21
2.2180445669291338
0
LINE
8
BLACK
6
CONTINUOUS
10
2.802455118110236
20
2.2180445669291338
11
2.8016404724409449
21
2.2172299212598423
0
LINE
8
BLACK
6
CONTINUOUS
10
2.8016404724409449
20
2.2172299212598423
11
2.8005760629921261
21
2.2167890157480317
0
LINE
8
BLACK
6
CONTINUOUS
10
2.8005760629921261
20
2.2167890157480317
11
2.799423937007874
21
2.2167890157480317
0
LINE
8
BLACK
6
CONTINUOUS
10
2.799423937007874
20
2.2167890157480317
11
2.7983595275590551
21
2.2172299212598423
0
LINE
8
BLACK
6
CONTINUOUS
10
2.7983595275590551
20
2.2172299212598423
11
2.7975448818897637
21
2.2180445669291338
0
LINE
8
BLACK
6
CONTINUOUS
10
2.7975448818897637
20
2.2180445669291338
11
2.7971039763779526
21
2.2191089763779526
0
LINE
8
BLACK
6
CONTINUOUS
10
2.7971039763779526
20
2.2191089763779526
11
2.7970472440944882
21
2.2196850393700789
0
LINE
8
BLACK
6
CONTINUOUS
10
2.7970472440944882
20
2.2196850393700789
11
2.7970472440944882
21
2.5451340157480313
0
LINE
8
BLACK
6
CONTINUOUS
10
2.7970472440944882
20
2.5451340157480313
11
2.7570128740157478
21
2.5242934251968503
0
LINE
8
BLACK
6
CONTINUOUS
10
2.7570128740157478
20
2.5242934251968503
11
2.7564757086614171
21
2.5240777559055116
0
LINE
8
BLACK
6
CONTINUOUS
10
2.7564757086614171
20
2.5240777559055116
11
2.7553279921259843
21
2.5239773622047244
0
LINE
8
BLACK
6
CONTINUOUS
10
2.7553279921259843
20
2.5239773622047244
11
2.7542292125984251
21
2.5243237795275588
0
LINE
8
BLACK
6
CONTINUOUS
10
2.7542292125984251
20
2.5243237795275588
11
2.7533466535433071
21
2.5250643307086613
0
LINE
8
BLACK
6
CONTINUOUS
10
2.7533466535433071
20
2.5250643307086613
11
2.7528146456692912
21
2.5260862992125985
0
LINE
8
BLACK
6
CONTINUOUS
10
2.7528146456692912
20
2.5260862992125985
11
2.7527142519685039
21
2.5272340157480313
0
LINE
8
BLACK
6
CONTINUOUS
10
2.7527142519685039
20
2.5272340157480313
11
2.7530606692913384
21
2.5283327952755905
0
LINE
8
BLACK
6
CONTINUOUS
10
2.7530606692913384
20
2.5283327952755905
11
2.7538012204724409
21
2.5292153543307085
0
LINE
8
BLACK
6
CONTINUOUS
10
2.7538012204724409
20
2.5292153543307085
11
2.754286023622047
21
2.5295316929133858
0
LINE
8
BLACK
6
CONTINUOUS
10
2.754286023622047
20
2.5295316929133858
11
2.7879330708661416
21
2.5470472440944882
0
LINE
8
BLACK
6
CONTINUOUS
10
2.7879330708661416
20
2.5470472440944882
11
0.4120669291338583
21
2.5470472440944882
0
LINE
8
BLACK
6
CONTINUOUS
10
0.4120669291338583
20
2.5470472440944882
11
0.4457139763779527
21
2.5295316929133858
0
LINE
8
BLACK
6
CONTINUOUS
10
0.4457139763779527
20
2.5295316929133858
11
0.4461987401574803
21
2.5292153543307085
0
LINE
8
BLACK
6
CONTINUOUS
10
0.4461987401574803
20
2.5292153543307085
11
0.4469392913385827
21
2.5283327952755905
0
LINE
8
BLACK
6
CONTINUOUS
10
0.4469392913385827
20
2.5283327952755905
11
0.4472857480314961
21
2.5272340157480313
0
LINE
8
BLACK
6
CONTINUOUS
10
0.4472857480314961
20
2.5272340157480313
11
0.4471853543307087
21
2.5260862992125985
0
LINE
8
BLACK
6
CONTINUOUS
10
0.4471853543307087
20
2.5260862992125985
11
0.4466533464566929
21
2.5250643700787401
0
LINE
8
BLACK
6
CONTINUOUS
10
0.4466533464566929
20
2.5250643700787401
11
0.4457707874015748
21
2.5243238188976376
0
LINE
8
BLACK
6
CONTINUOUS
10
0.4457707874015748
20
2.5243238188976376
11
0.4446720078740157
21
2.5239773622047244
0
LINE
8
BLACK
6
CONTINUOUS
10
0.4446720078740157
20
2.5239773622047244
11
0.4435242913385827
21
2.5240777559055116
0
LINE
8
BLACK
6
CONTINUOUS
10
0.4435242913385827
20
2.5240777559055116
11
0.4429871259842519
21
2.5242934251968503
0
LINE
8
BLACK
6
CONTINUOUS
10
0.4429871259842519
20
2.5242934251968503
11
0.4029527559055118
21
2.5451340157480313
0
LINE
8
BLACK
6
CONTINUOUS
10
0.4029527559055118
20
2.5451340157480313
11
0.4029527559055118
21
2.2196850393700789
0
LINE
8
BLACK
6
CONTINUOUS
10
0.4029527559055118
20
2.2196850393700789
11
0.4028960236220472
21
2.2191089763779526
0
LINE
8
BLACK
6
CONTINUOUS
10
0.4028960236220472
20
2.2191089763779526
11
0.4024551181102362
21
2.2180445669291338
0
LINE
8
BLACK
6
CONTINUOUS
10
0.4024551181102362
20
2.2180445669291338
11
0.4016404724409449
21
2.2172299212598423
0
LINE
8
BLACK
6
CONTINUOUS
10
0.4016404724409449
20
2.2172299212598423
11
0.4005760629921259
21
2.2167890157480317
0
LINE
8
BLACK
6
CONTINUOUS
10
0.4005760629921259
20
2.2167890157480317
11
0.399423937007874
21
2.2167890157480317
0
LINE
8
BLACK
6
CONTINUOUS
10
0.399423937007874
20
2.2167890157480317
11
0.3983595275590551
21
2.2172299212598423
0
LINE
8
BLACK
6
CONTINUOUS
10
0.3983595275590551
20
2.2172299212598423
11
0.3975448818897638
21
2.2180445669291338
0
LINE
8
BLACK
6
CONTINUOUS
10
0.3975448818897638
20
2.2180445669291338
11
0.3971039763779527
21
2.2191089763779526
0
LINE
8
BLACK
6
CONTINUOUS
10
0.3971039763779527
20
2.2191089763779526
11
0.3970472440944882
21
2.2196850393700789
0
LINE
8
BLACK
6
CONTINUOUS
10
0.3970472440944882
20
2.2196850393700789
11
0.3970472440944882
21
2.5730874015748033
0
LINE
8
BLACK
6
CONTINUOUS
10
0.3970472440944882
20
2.5730874015748033
11
0.3971039763779527
21
2.5736634645669292
0
LINE
8
BLACK
6
CONTINUOUS
10
0.3971039763779527
20
2.5736634645669292
11
0.3975448818897638
21
2.574727874015748
0
LINE
8
BLACK
6
CONTINUOUS
10
0.3975448818897638
20
2.574727874015748
11
0.3983595275590551
21
2.5755425196850394
0
LINE
8
BLACK
6
CONTINUOUS
10
0.3983595275590551
20
2.5755425196850394
11
0.399423937007874
21
2.5759834251968505
0
LINE
8
BLACK
6
CONTINUOUS
10
0.399423937007874
20
2.5759834251968505
11
0.4005760629921259
21
2.5759834251968505
0
LINE
8
BLACK
6
CONTINUOUS
10
0.4005760629921259
20
2.5759834251968505
11
0.4016404724409449
21
2.5755425196850394
0
LINE
8
BLACK
6
CONTINUOUS
10
0.4016404724409449
20
2.5755425196850394
11
0.4024551181102362
21
2.574727874015748
0
LINE
8
BLACK
6
CONTINUOUS
10
0.4024551181102362
20
2.574727874015748
11
0.4028960236220472
21
2.5736634645669292
0
LINE
8
BLACK
6
CONTINUOUS
10
0.4028960236220472
20
2.5736634645669292
11
0.4029527559055118
21
2.5730874015748033
0
LINE
8
BLACK
6
CONTINUOUS
10
0.4029527559055118
20
2.5730874015748033
11
0.4029527559055118
21
2.5548660236220471
0
LINE
8
BLACK
6
CONTINUOUS
10
0.4029527559055118
20
2.5548660236220471
11
0.4429871259842519
21
2.5757065748031494
0
LINE
8
BLACK
6
CONTINUOUS
10
0.4429871259842519
20
2.5757065748031494
11
0.4435242913385827
21
2.575922244094488
0
LINE
8
BLACK
6
CONTINUOUS
10
0.4435242913385827
20
2.575922244094488
11
0.4446720078740157
21
2.5760226377952757
0
LINE
8
BLACK
6
CONTINUOUS
10
0.4446720078740157
20
2.5760226377952757
11
0.4457707874015748
21
2.5756761811023621
0
LINE
8
BLACK
6
CONTINUOUS
10
0.4457707874015748
20
2.5756761811023621
11
0.4466533464566929
21
2.5749356299212596
0
LINE
8
BLACK
6
CONTINUOUS
10
0.4466533464566929
20
2.5749356299212596
11
0.4471853543307087
21
2.5739137007874016
0
LINE
8
BLACK
6
CONTINUOUS
10
0.4471853543307087
20
2.5739137007874016
11
0.4472857480314961
21
2.5727659842519683
0
LINE
8
BLACK
6
CONTINUOUS
10
0.4472857480314961
20
2.5727659842519683
11
0.4469392913385827
21
2.5716672047244096
0
LINE
8
BLACK
6
CONTINUOUS
10
0.4469392913385827
20
2.5716672047244096
11
0.4461987401574803
21
2.5707846456692911
0
LINE
8
BLACK
6
CONTINUOUS
10
0.4461987401574803
20
2.5707846456692911
11
0.4457139763779527
21
2.5704683070866143
0
LINE
8
BLACK
6
CONTINUOUS
10
0.4457139763779527
20
2.5704683070866143
11
0.4120669291338583
21
2.5529527559055119
0
LINE
8
BLACK
6
CONTINUOUS
10
0.4120669291338583
20
2.5529527559055119
11
2.7879330708661416
21
2.5529527559055119
0
LINE
8
BLACK
6
CONTINUOUS
10
2.7879330708661416
20
2.5529527559055119
11
2.754286023622047
21
2.5704683070866143
0
LINE
8
BLACK
6
CONTINUOUS
10
2.754286023622047
20
2.5704683070866143
11
2.7538012204724409
21
2.5707846456692911
0
LINE
8
BLACK
6
CONTINUOUS
10
2.7538012204724409
20
2.5707846456692911
11
2.7530606692913384
21
2.5716672047244096
0
LINE
8
BLACK
6
CONTINUOUS
10
2.7530606692913384
20
2.5716672047244096
11
2.7527142519685039
21
2.5727659842519683
0
LINE
8
BLACK
6
CONTINUOUS
10
2.7527142519685039
20
2.5727659842519683
11
2.7528146456692912
21
2.5739137007874016
0
LINE
8
BLACK
6
CONTINUOUS
10
2.7528146456692912
20
2.5739137007874016
11
2.7533466535433071
21
2.5749356692913383
0
LINE
8
BLACK
6
CONTINUOUS
10
2.7533466535433071
20
2.5749356692913383
11
2.7542292125984251
21
2.5756762204724408
0
LINE
8
BLACK
6
CONTINUOUS
10
2.7542292125984251
20
2.5756762204724408
11
2.7553279921259843
21
2.5760226377952757
0
LINE
8
BLACK
6
CONTINUOUS
10
2.7553279921259843
20
2.5760226377952757
11
2.7564757086614171
21
2.575922244094488
0
LINE
8
BLACK
6
CONTINUOUS
10
1.4749667716535433
20
2.619635433070866
11
1.4760311811023621
21
2.6191945275590549
0
LINE
8
BLACK
6
CONTINUOUS
10
1.4760311811023621
20
2.6191945275590549
11
1.4768458267716535
21
2.6183798818897639
0
LINE
8
BLACK
6
CONTINUOUS
10
1.4768458267716535
20
2.6183798818897639
11
1.4772867322834646
21
2.6173154724409446
0
LINE
8
BLACK
6
CONTINUOUS
10
1.4772867322834646
20
2.6173154724409446
11
1.4772867322834646
21
2.6161633464566929
0
LINE
8
BLACK
6
CONTINUOUS
10
1.4772867322834646
20
2.6161633464566929
11
1.4768458267716535
21
2.6150989370078741
0
LINE
8
BLACK
6
CONTINUOUS
10
1.4768458267716535
20
2.6150989370078741
11
1.4760311811023621
21
2.6142842913385826
0
LINE
8
BLACK
6
CONTINUOUS
10
1.4760311811023621
20
2.6142842913385826
11
1.4749667716535433
21
2.6138433858267716
0
LINE
8
BLACK
6
CONTINUOUS
10
1.4749667716535433
20
2.6138433858267716
11
1.4743907086614172
21
2.6137866535433072
0
LINE
8
BLACK
6
CONTINUOUS
10
1.4743907086614172
20
2.6137866535433072
11
1.4675887007874016
21
2.6137866535433072
0
LINE
8
BLACK
6
CONTINUOUS
10
1.4675887007874016
20
2.6137866535433072
11
1.4648912204724409
21
2.6124379133858269
0
LINE
8
BLACK
6
CONTINUOUS
10
1.4648912204724409
20
2.6124379133858269
11
1.4635620078740157
21
2.6111087401574804
0
LINE
8
BLACK
6
CONTINUOUS
10
1.4635620078740157
20
2.6111087401574804
11
1.4602583858267717
21
2.6061532677165355
0
LINE
8
BLACK
6
CONTINUOUS
10
1.4602583858267717
20
2.6061532677165355
11
1.4595290944881889
21
2.6032360629921261
0
LINE
8
BLACK
6
CONTINUOUS
10
1.4595290944881889
20
2.6032360629921261
11
1.4618216141732283
21
2.6043823228346454
0
LINE
8
BLACK
6
CONTINUOUS
10
1.4618216141732283
20
2.6043823228346454
11
1.4623622047244094
21
2.6045892125984254
0
LINE
8
BLACK
6
CONTINUOUS
10
1.4623622047244094
20
2.6045892125984254
11
1.4624680708661417
21
2.6045967716535432
0
LINE
8
BLACK
6
CONTINUOUS
10
1.4624680708661417
20
2.6045967716535432
11
1.462566062992126
21
2.6046373228346456
0
LINE
8
BLACK
6
CONTINUOUS
10
1.462566062992126
20
2.6046373228346456
11
1.4631421259842519
21
2.6046940551181104
0
LINE
8
BLACK
6
CONTINUOUS
10
1.4631421259842519
20
2.6046940551181104
11
1.4706411811023621
21
2.6046940551181104
0
LINE
8
BLACK
6
CONTINUOUS
10
1.4706411811023621
20
2.6046940551181104
11
1.4712172440944882
21
2.6046373228346456
0
LINE
8
BLACK
6
CONTINUOUS
10
1.4712172440944882
20
2.6046373228346456
11
1.4713152362204724
21
2.6045967322834644
0
LINE
8
BLACK
6
CONTINUOUS
10
1.4713152362204724
20
2.6045967322834644
11
1.471421062992126
21
2.6045892125984254
0
LINE
8
BLACK
6
CONTINUOUS
10
1.471421062992126
20
2.6045892125984254
11
1.4719616929133859
21
2.6043823228346454
0
LINE
8
BLACK
6
CONTINUOUS
10
1.4719616929133859
20
2.6043823228346454
11
1.475711220472441
21
2.6025075590551179
0
LINE
8
BLACK
6
CONTINUOUS
10
1.475711220472441
20
2.6025075590551179
11
1.4759592125984251
21
2.6023514960629921
0
LINE
8
BLACK
6
CONTINUOUS
10
1.4759592125984251
20
2.6023514960629921
11
1.4760311811023621
21
2.6023216535433069
0
LINE
8
BLACK
6
CONTINUOUS
10
1.4760311811023621
20
2.6023216535433069
11
1.476112125984252
21
2.6022551968503937
0
LINE
8
BLACK
6
CONTINUOUS
10
1.476112125984252
20
2.6022551968503937
11
1.4762011023622046
21
2.6021992125984252
0
LINE
8
BLACK
6
CONTINUOUS
10
1.4762011023622046
20
2.6021992125984252
11
1.4762522440944881
21
2.6021402362204724
0
LINE
8
BLACK
6
CONTINUOUS
10
1.4762522440944881
20
2.6021402362204724
11
1.4764786220472441
21
2.6019544488188977
0
LINE
8
BLACK
6
CONTINUOUS
10
1.4764786220472441
20
2.6019544488188977
11
1.4783533858267717
21
2.6000796850393701
0
LINE
8
BLACK
6
CONTINUOUS
10
1.4783533858267717
20
2.6000796850393701
11
1.4785391338582676
21
2.5998533464566926
0
LINE
8
BLACK
6
CONTINUOUS
10
1.4785391338582676
20
2.5998533464566926
11
1.4785981496062992
21
2.5998021653543306
0
LINE
8
BLACK
6
CONTINUOUS
10
1.4785981496062992
20
2.5998021653543306
11
1.478654094488189
21
2.5997132283464568
0
LINE
8
BLACK
6
CONTINUOUS
10
1.478654094488189
20
2.5997132283464568
11
1.4787205905511811
21
2.5996322440944883
0
LINE
8
BLACK
6
CONTINUOUS
10
1.4787205905511811
20
2.5996322440944883
11
1.4787503937007873
21
2.5995603149606299
0
LINE
8
BLACK
6
CONTINUOUS
10
1.4787503937007873
20
2.5995603149606299
11
1.4789064960629921
21
2.5993122834645668
0
LINE
8
BLACK
6
CONTINUOUS
10
1.4789064960629921
20
2.5993122834645668
11
1.4807812598425196
21
2.5955627559055117
0
LINE
8
BLACK
6
CONTINUOUS
10
1.4807812598425196
20
2.5955627559055117
11
1.4809881496062991
21
2.5950221653543308
0
LINE
8
BLACK
6
CONTINUOUS
10
1.4809881496062991
20
2.5950221653543308
11
1.4809956692913386
21
2.5949162992125983
0
LINE
8
BLACK
6
CONTINUOUS
10
1.4809956692913386
20
2.5949162992125983
11
1.4810362598425197
21
2.594818307086614
0
LINE
8
BLACK
6
CONTINUOUS
10
1.4810362598425197
20
2.594818307086614
11
1.4810929921259841
21
2.5942422440944881
0
LINE
8
BLACK
6
CONTINUOUS
10
1.4810929921259841
20
2.5942422440944881
11
1.4810929921259841
21
2.5848684251968503
0
LINE
8
BLACK
6
CONTINUOUS
10
1.4810929921259841
20
2.5848684251968503
11
1.4810362598425197
21
2.5842923622047245
0
LINE
8
BLACK
6
CONTINUOUS
10
1.4810362598425197
20
2.5842923622047245
11
1.4809956692913386
21
2.584194409448819
0
LINE
8
BLACK
6
CONTINUOUS
10
1.4809956692913386
20
2.584194409448819
11
1.4809881496062991
21
2.5840885039370076
0
LINE
8
BLACK
6
CONTINUOUS
10
1.4809881496062991
20
2.5840885039370076
11
1.4807812598425196
21
2.5835479133858268
0
LINE
8
BLACK
6
CONTINUOUS
10
1.4807812598425196
20
2.5835479133858268
11
1.4789064960629921
21
2.5797983858267717
0
LINE
8
BLACK
6
CONTINUOUS
10
1.4789064960629921
20
2.5797983858267717
11
1.4787504330708661
21
2.5795505118110236
0
LINE
8
BLACK
6
CONTINUOUS
10
1.4787504330708661
20
2.5795505118110236
11
1.4787206299212599
21
2.5794784645669289
0
LINE
8
BLACK
6
CONTINUOUS
10
1.4787206299212599
20
2.5794784645669289
11
1.478654094488189
21
2.5793974409448817
0
LINE
8
BLACK
6
CONTINUOUS
10
1.478654094488189
20
2.5793974409448817
11
1.4785981496062992
21
2.5793085039370078
0
LINE
8
BLACK
6
CONTINUOUS
10
1.4785981496062992
20
2.5793085039370078
11
1.4785391338582676
21
2.5792573622047246
0
LINE
8
BLACK
6
CONTINUOUS
10
1.4785391338582676
20
2.5792573622047246
11
1.4783533858267717
21
2.5790309842519683
0
LINE
8
BLACK
6
CONTINUOUS
10
1.4783533858267717
20
2.5790309842519683
11
1.4764786614173229
21
2.5771562204724408
0
LINE
8
BLACK
6
CONTINUOUS
10
1.4764786614173229
20
2.5771562204724408
11
1.4762522834645668
21
2.5769704724409448
0
LINE
8
BLACK
6
CONTINUOUS
10
1.4762522834645668
20
2.5769704724409448
11
1.4762011023622046
21
2.5769114173228345
0
LINE
8
BLACK
6
CONTINUOUS
10
1.4762011023622046
20
2.5769114173228345
11
1.476112125984252
21
2.576855433070866
0
LINE
8
BLACK
6
CONTINUOUS
10
1.476112125984252
20
2.576855433070866
11
1.4760311811023621
21
2.5767889763779528
0
LINE
8
BLACK
6
CONTINUOUS
10
1.4760311811023621
20
2.5767889763779528
11
1.4759592125984251
21
2.5767591732283464
0
LINE
8
BLACK
6
CONTINUOUS
10
1.4759592125984251
20
2.5767591732283464
11
1.475711220472441
21
2.5766030708661418
0
LINE
8
BLACK
6
CONTINUOUS
10
1.475711220472441
20
2.5766030708661418
11
1.4719616929133859
21
2.5747283070866143
0
LINE
8
BLACK
6
CONTINUOUS
10
1.4719616929133859
20
2.5747283070866143
11
1.471421062992126
21
2.5745214173228348
0
LINE
8
BLACK
6
CONTINUOUS
10
1.471421062992126
20
2.5745214173228348
11
1.4713152362204724
21
2.574513937007874
0
LINE
8
BLACK
6
CONTINUOUS
10
1.4713152362204724
20
2.574513937007874
11
1.4712172440944882
21
2.5744733070866141
0
LINE
8
BLACK
6
CONTINUOUS
10
1.4712172440944882
20
2.5744733070866141
11
1.4706411811023621
21
2.5744165748031493
0
LINE
8
BLACK
6
CONTINUOUS
10
1.4706411811023621
20
2.5744165748031493
11
1.4631421259842519
21
2.5744165748031493
0
LINE
8
BLACK
6
CONTINUOUS
10
1.4631421259842519
20
2.5744165748031493
11
1.462566062992126
21
2.5744733070866141
0
LINE
8
BLACK
6
CONTINUOUS
10
1.462566062992126
20
2.5744733070866141
11
1.4624680708661417
21
2.5745138976377953
0
LINE
8
BLACK
6
CONTINUOUS
10
1.4624680708661417
20
2.5745138976377953
11
1.4623622047244094
21
2.5745214173228348
0
LINE
8
BLACK
6
CONTINUOUS
10
1.4623622047244094
20
2.5745214173228348
11
1.4618216141732283
21
2.5747283070866143
0
LINE
8
BLACK
6
CONTINUOUS
10
1.4618216141732283
20
2.5747283070866143
11
1.4580720866141732
21
2.5766030708661418
0
LINE
8
BLACK
6
CONTINUOUS
10
1.4580720866141732
20
2.5766030708661418
11
1.4578240551181103
21
2.5767591732283464
0
LINE
8
BLACK
6
CONTINUOUS
10
1.4578240551181103
20
2.5767591732283464
11
1.4577521259842519
21
2.5767889763779528
0
LINE
8
BLACK
6
CONTINUOUS
10
1.4577521259842519
20
2.5767889763779528
11
1.4576711417322834
21
2.576855433070866
0
LINE
8
BLACK
6
CONTINUOUS
10
1.4576711417322834
20
2.576855433070866
11
1.4575822047244094
21
2.5769114173228345
0
LINE
8
BLACK
6
CONTINUOUS
10
1.4575822047244094
20
2.5769114173228345
11
1.4575309842519684
21
2.5769704724409448
0
LINE
8
BLACK
6
CONTINUOUS
10
1.4575309842519684
20
2.5769704724409448
11
1.4573046456692913
21
2.5771562204724408
0
LINE
8
BLACK
6
CONTINUOUS
10
1.4573046456692913
20
2.5771562204724408
11
1.4554298818897637
21
2.5790310236220471
0
LINE
8
BLACK
6
CONTINUOUS
10
1.4554298818897637
20
2.5790310236220471
11
1.4552441338582678
21
2.5792573622047246
0
LINE
8
BLACK
6
CONTINUOUS
10
1.4552441338582678
20
2.5792573622047246
11
1.455185157480315
21
2.5793085039370078
0
LINE
8
BLACK
6
CONTINUOUS
10
1.455185157480315
20
2.5793085039370078
11
1.4551291732283465
21
2.5793974409448817
0
LINE
8
BLACK
6
CONTINUOUS
10
1.4551291732283465
20
2.5793974409448817
11
1.4550626771653543
21
2.5794784645669289
0
LINE
8
BLACK
6
CONTINUOUS
10
1.4550626771653543
20
2.5794784645669289
11
1.4550328346456693
21
2.5795505118110236
0
LINE
8
BLACK
6
CONTINUOUS
10
1.4550328346456693
20
2.5795505118110236
11
1.4548768110236221
21
2.5797983858267717
0
LINE
8
BLACK
6
CONTINUOUS
10
1.4548768110236221
20
2.5797983858267717
11
1.4530020472440945
21
2.5835479133858268
0
LINE
8
BLACK
6
CONTINUOUS
10
1.4530020472440945
20
2.5835479133858268
11
1.4527951574803148
21
2.5840885433070864
0
LINE
8
BLACK
6
CONTINUOUS
10
1.4527951574803148
20
2.5840885433070864
11
1.4527876377952755
21
2.5841943700787402
0
LINE
8
BLACK
6
CONTINUOUS
10
1.4527876377952755
20
2.5841943700787402
11
1.4527470472440944
21
2.5842923622047245
0
LINE
8
BLACK
6
CONTINUOUS
10
1.4527470472440944
20
2.5842923622047245
11
1.4526903149606298
21
2.5848684251968503
0
LINE
8
BLACK
6
CONTINUOUS
10
1.4526903149606298
20
2.5848684251968503
11
1.4526903149606298
21
2.5998665354330708
0
LINE
8
BLACK
6
CONTINUOUS
10
1.4526903149606298
20
2.5998665354330708
11
1.4527001968503936
21
2.5999670866141731
0
LINE
8
BLACK
6
CONTINUOUS
10
1.4527001968503936
20
2.5999670866141731
11
1.4526938188976377
21
2.6000100787401572
0
LINE
8
BLACK
6
CONTINUOUS
10
1.4526938188976377
20
2.6000100787401572
11
1.4527256692913386
21
2.6002255905511809
0
LINE
8
BLACK
6
CONTINUOUS
10
1.4527256692913386
20
2.6002255905511809
11
1.4527470472440944
21
2.6004425984251966
0
LINE
8
BLACK
6
CONTINUOUS
10
1.4527470472440944
20
2.6004425984251966
11
1.4527636614173227
21
2.6004828346456694
0
LINE
8
BLACK
6
CONTINUOUS
10
1.4527636614173227
20
2.6004828346456694
11
1.4527784645669291
21
2.6005826771653542
0
LINE
8
BLACK
6
CONTINUOUS
10
1.4527784645669291
20
2.6005826771653542
11
1.4546532283464566
21
2.6080817322834644
0
LINE
8
BLACK
6
CONTINUOUS
10
1.4546532283464566
20
2.6080817322834644
11
1.4547744881889764
21
2.6084212204724411
0
LINE
8
BLACK
6
CONTINUOUS
10
1.4547744881889764
20
2.6084212204724411
11
1.4547886614173229
21
2.6084927165354328
0
LINE
8
BLACK
6
CONTINUOUS
10
1.4547886614173229
20
2.6084927165354328
11
1.4548232283464566
21
2.6085575984251967
0
LINE
8
BLACK
6
CONTINUOUS
10
1.4548232283464566
20
2.6085575984251967
11
1.4548479921259843
21
2.6086268503937009
0
LINE
8
BLACK
6
CONTINUOUS
10
1.4548479921259843
20
2.6086268503937009
11
1.4548914173228347
21
2.608685472440945
0
LINE
8
BLACK
6
CONTINUOUS
10
1.4548914173228347
20
2.608685472440945
11
1.4550609842519684
21
2.6090035039370076
0
LINE
8
BLACK
6
CONTINUOUS
10
1.4550609842519684
20
2.6090035039370076
11
1.4588105118110235
21
2.6146277952755903
0
LINE
8
BLACK
6
CONTINUOUS
10
1.4588105118110235
20
2.6146277952755903
11
1.4588118503937006
21
2.6146294881889762
0
LINE
8
BLACK
6
CONTINUOUS
10
1.4588118503937006
20
2.6146294881889762
11
1.4588122440944882
21
2.6146303543307088
0
LINE
8
BLACK
6
CONTINUOUS
10
1.4588122440944882
20
2.6146303543307088
11
1.4589889370078739
21
2.6148456692913387
0
LINE
8
BLACK
6
CONTINUOUS
10
1.4589889370078739
20
2.6148456692913387
11
1.4591772834645669
21
2.6150756299212596
0
LINE
8
BLACK
6
CONTINUOUS
10
1.4591772834645669
20
2.6150756299212596
11
1.4591781102362205
21
2.6150762204724409
0
LINE
8
BLACK
6
CONTINUOUS
10
1.4591781102362205
20
2.6150762204724409
11
1.4591794488188976
21
2.6150777952755906
0
LINE
8
BLACK
6
CONTINUOUS
10
1.4591794488188976
20
2.6150777952755906
11
1.4610542125984252
21
2.6169525590551181
0
LINE
8
BLACK
6
CONTINUOUS
10
1.4610542125984252
20
2.6169525590551181
11
1.4612805511811022
21
2.6171383464566929
0
LINE
8
BLACK
6
CONTINUOUS
10
1.4612805511811022
20
2.6171383464566929
11
1.4613317322834645
21
2.6171973228346457
0
LINE
8
BLACK
6
CONTINUOUS
10
1.4613317322834645
20
2.6171973228346457
11
1.4614206692913385
21
2.6172533070866142
0
LINE
8
BLACK
6
CONTINUOUS
10
1.4614206692913385
20
2.6172533070866142
11
1.461501653543307
21
2.6173197637795274
0
LINE
8
BLACK
6
CONTINUOUS
10
1.461501653543307
20
2.6173197637795274
11
1.4615735826771654
21
2.6173496062992125
0
LINE
8
BLACK
6
CONTINUOUS
10
1.4615735826771654
20
2.6173496062992125
11
1.4618216141732283
21
2.6175056692913383
0
LINE
8
BLACK
6
CONTINUOUS
10
1.4618216141732283
20
2.6175056692913383
11
1.4655711417322834
21
2.6193804330708659
0
LINE
8
BLACK
6
CONTINUOUS
10
1.4655711417322834
20
2.6193804330708659
11
1.4661117322834645
21
2.6195873228346458
0
LINE
8
BLACK
6
CONTINUOUS
10
1.4661117322834645
20
2.6195873228346458
11
1.4662175984251968
21
2.6195948818897636
0
LINE
8
BLACK
6
CONTINUOUS
10
1.4662175984251968
20
2.6195948818897636
11
1.4663155905511811
21
2.619635433070866
0
LINE
8
BLACK
6
CONTINUOUS
10
1.4663155905511811
20
2.619635433070866
11
1.466891653543307
21
2.6196921653543308
0
LINE
8
BLACK
6
CONTINUOUS
10
1.466891653543307
20
2.6196921653543308
11
1.4743907086614172
21
2.6196921653543308
0
LINE
8
BLACK
6
CONTINUOUS
10
1.4743907086614172
20
2.6196921653543308
11
1.4749667716535433
21
2.619635433070866
0
LINE
8
BLACK
6
CONTINUOUS
10
1.4611416929133858
20
2.5974398031496064
11
1.4599445669291338
21
2.5962426771653542
0
LINE
8
BLACK
6
CONTINUOUS
10
1.4599445669291338
20
2.5962426771653542
11
1.4585958267716534
21
2.5935451968503935
0
LINE
8
BLACK
6
CONTINUOUS
10
1.4585958267716534
20
2.5935451968503935
11
1.4585958267716534
21
2.5855654724409449
0
LINE
8
BLACK
6
CONTINUOUS
10
1.4585958267716534
20
2.5855654724409449
11
1.4599445669291338
21
2.5828679921259843
0
LINE
8
BLACK
6
CONTINUOUS
10
1.4599445669291338
20
2.5828679921259843
11
1.4611416929133858
21
2.5816708267716533
0
LINE
8
BLACK
6
CONTINUOUS
10
1.4611416929133858
20
2.5816708267716533
11
1.4638391732283464
21
2.5803220866141729
0
LINE
8
BLACK
6
CONTINUOUS
10
1.4638391732283464
20
2.5803220866141729
11
1.4699441338582677
21
2.5803220866141729
0
LINE
8
BLACK
6
CONTINUOUS
10
1.4699441338582677
20
2.5803220866141729
11
1.4726415748031496
21
2.5816708267716533
0
LINE
8
BLACK
6
CONTINUOUS
10
1.4726415748031496
20
2.5816708267716533
11
1.4738387007874016
21
2.5828679921259843
0
LINE
8
BLACK
6
CONTINUOUS
10
1.4738387007874016
20
2.5828679921259843
11
1.4751874803149605
21
2.5855654724409449
0
LINE
8
BLACK
6
CONTINUOUS
10
1.4751874803149605
20
2.5855654724409449
11
1.4751874803149605
21
2.5935451968503935
0
LINE
8
BLACK
6
CONTINUOUS
10
1.4751874803149605
20
2.5935451968503935
11
1.4738387401574802
21
2.5962426771653542
0
LINE
8
BLACK
6
CONTINUOUS
10
1.4738387401574802
20
2.5962426771653542
11
1.4726416141732284
21
2.5974398031496064
0
LINE
8
BLACK
6
CONTINUOUS
10
1.4726416141732284
20
2.5974398031496064
11
1.4699441338582677
21
2.5987885433070868
0
LINE
8
BLACK
6
CONTINUOUS
10
1.4699441338582677
20
2.5987885433070868
11
1.4638391732283464
21
2.5987885433070868
0
LINE
8
BLACK
6
CONTINUOUS
10
1.4638391732283464
20
2.5987885433070868
11
1.4611416929133858
21
2.5974398031496064
0
LINE
8
BLACK
6
CONTINUOUS
10
1.5068377952755905
20
2.619635433070866
11
1.5069357874015747
21
2.6195948425196849
0
LINE
8
BLACK
6
CONTINUOUS
10
1.5069357874015747
20
2.6195948425196849
11
1.5070416141732283
21
2.6195873228346458
0
LINE
8
BLACK
6
CONTINUOUS
10
1.5070416141732283
20
2.6195873228346458
11
1.5075822440944882
21
2.6193804330708659
0
LINE
8
BLACK
6
CONTINUOUS
10
1.5075822440944882
20
2.6193804330708659
11
1.5113317716535433
21
2.6175056692913383
0
LINE
8
BLACK
6
CONTINUOUS
10
1.5113317716535433
20
2.6175056692913383
11
1.5115797637795276
21
2.6173496062992125
0
LINE
8
BLACK
6
CONTINUOUS
10
1.5115797637795276
20
2.6173496062992125
11
1.5116517322834646
21
2.6173197637795274
0
LINE
8
BLACK
6
CONTINUOUS
10
1.5116517322834646
20
2.6173197637795274
11
1.5117326771653543
21
2.6172533070866142
0
LINE
8
BLACK
6
CONTINUOUS
10
1.5117326771653543
20
2.6172533070866142
11
1.5118216535433071
21
2.6171973228346457
0
LINE
8
BLACK
6
CONTINUOUS
10
1.5118216535433071
20
2.6171973228346457
11
1.5118727952755906
21
2.6171383464566929
0
LINE
8
BLACK
6
CONTINUOUS
10
1.5118727952755906
20
2.6171383464566929
11
1.5120991732283464
21
2.6169525590551181
0
LINE
8
BLACK
6
CONTINUOUS
10
1.5120991732283464
20
2.6169525590551181
11
1.513973937007874
21
2.6150777952755906
0
LINE
8
BLACK
6
CONTINUOUS
10
1.513973937007874
20
2.6150777952755906
11
1.5141596850393702
21
2.6148514566929135
0
LINE
8
BLACK
6
CONTINUOUS
10
1.5141596850393702
20
2.6148514566929135
11
1.5142187007874015
21
2.6148002755905511
0
LINE
8
BLACK
6
CONTINUOUS
10
1.5142187007874015
20
2.6148002755905511
11
1.5142746456692913
21
2.6147113385826772
0
LINE
8
BLACK
6
CONTINUOUS
10
1.5142746456692913
20
2.6147113385826772
11
1.5143411417322834
21
2.6146303543307088
0
LINE
8
BLACK
6
CONTINUOUS
10
1.5143411417322834
20
2.6146303543307088
11
1.5143709448818898
21
2.6145584251968503
0
LINE
8
BLACK
6
CONTINUOUS
10
1.5143709448818898
20
2.6145584251968503
11
1.5145270472440944
21
2.6143103937007872
0
LINE
8
BLACK
6
CONTINUOUS
10
1.5145270472440944
20
2.6143103937007872
11
1.5164018110236219
21
2.6105608661417321
0
LINE
8
BLACK
6
CONTINUOUS
10
1.5164018110236219
20
2.6105608661417321
11
1.5164179133858267
21
2.6105187795275588
0
LINE
8
BLACK
6
CONTINUOUS
10
1.5164179133858267
20
2.6105187795275588
11
1.5164306299212598
21
2.6105016141732285
0
LINE
8
BLACK
6
CONTINUOUS
10
1.5164306299212598
20
2.6105016141732285
11
1.5165169291338583
21
2.6102600393700786
0
LINE
8
BLACK
6
CONTINUOUS
10
1.5165169291338583
20
2.6102600393700786
11
1.5166087007874016
21
2.6100202755905513
0
LINE
8
BLACK
6
CONTINUOUS
10
1.5166087007874016
20
2.6100202755905513
11
1.5166101968503938
21
2.6099990157480315
0
LINE
8
BLACK
6
CONTINUOUS
10
1.5166101968503938
20
2.6099990157480315
11
1.5166253937007874
21
2.609956496062992
0
LINE
8
BLACK
6
CONTINUOUS
10
1.5166253937007874
20
2.609956496062992
11
1.518500157480315
21
2.6024574409448817
0
LINE
8
BLACK
6
CONTINUOUS
10
1.518500157480315
20
2.6024574409448817
11
1.5185149212598426
21
2.602357598425197
0
LINE
8
BLACK
6
CONTINUOUS
10
1.5185149212598426
20
2.602357598425197
11
1.5185315748031496
21
2.6023173622047242
0
LINE
8
BLACK
6
CONTINUOUS
10
1.5185315748031496
20
2.6023173622047242
11
1.5185529133858267
21
2.6021003543307084
0
LINE
8
BLACK
6
CONTINUOUS
10
1.5185529133858267
20
2.6021003543307084
11
1.5185848031496063
21
2.6018848425196848
0
LINE
8
BLACK
6
CONTINUOUS
10
1.5185848031496063
20
2.6018848425196848
11
1.5185783858267716
21
2.6018418503937006
0
LINE
8
BLACK
6
CONTINUOUS
10
1.5185783858267716
20
2.6018418503937006
11
1.5185883070866142
21
2.6017412992125983
0
LINE
8
BLACK
6
CONTINUOUS
10
1.5185883070866142
20
2.6017412992125983
11
1.5185883070866142
21
2.5923674803149606
0
LINE
8
BLACK
6
CONTINUOUS
10
1.5185883070866142
20
2.5923674803149606
11
1.5185783858267716
21
2.592266968503937
0
LINE
8
BLACK
6
CONTINUOUS
10
1.5185783858267716
20
2.592266968503937
11
1.5185848031496063
21
2.5922239370078741
0
LINE
8
BLACK
6
CONTINUOUS
10
1.5185848031496063
20
2.5922239370078741
11
1.5185529133858267
21
2.5920084645669292
0
LINE
8
BLACK
6
CONTINUOUS
10
1.5185529133858267
20
2.5920084645669292
11
1.5185315748031496
21
2.5917914173228347
0
LINE
8
BLACK
6
CONTINUOUS
10
1.5185315748031496
20
2.5917914173228347
11
1.5185149212598426
21
2.5917512204724407
0
LINE
8
BLACK
6
CONTINUOUS
10
1.5185149212598426
20
2.5917512204724407
11
1.518500157480315
21
2.5916513385826772
0
LINE
8
BLACK
6
CONTINUOUS
10
1.518500157480315
20
2.5916513385826772
11
1.5166253937007874
21
2.5841522834645669
0
LINE
8
BLACK
6
CONTINUOUS
10
1.5166253937007874
20
2.5841522834645669
11
1.5166101968503938
21
2.5841098031496061
0
LINE
8
BLACK
6
CONTINUOUS
10
1.5166101968503938
20
2.5841098031496061
11
1.5166087007874016
21
2.5840885039370076
0
LINE
8
BLACK
6
CONTINUOUS
10
1.5166087007874016
20
2.5840885039370076
11
1.5165169291338583
21
2.5838487795275591
0
LINE
8
BLACK
6
CONTINUOUS
10
1.5165169291338583
20
2.5838487795275591
11
1.5164306299212598
21
2.5836071653543304
0
LINE
8
BLACK
6
CONTINUOUS
10
1.5164306299212598
20
2.5836071653543304
11
1.5164179133858267
21
2.5835900393700788
0
LINE
8
BLACK
6
CONTINUOUS
10
1.5164179133858267
20
2.5835900393700788
11
1.5164018110236219
21
2.5835479133858268
0
LINE
8
BLACK
6
CONTINUOUS
10
1.5164018110236219
20
2.5835479133858268
11
1.5145270472440944
21
2.5797983858267717
0
LINE
8
BLACK
6
CONTINUOUS
10
1.5145270472440944
20
2.5797983858267717
11
1.5143709842519684
21
2.5795505118110236
0
LINE
8
BLACK
6
CONTINUOUS
10
1.5143709842519684
20
2.5795505118110236
11
1.5143411811023622
21
2.5794784645669289
0
LINE
8
BLACK
6
CONTINUOUS
10
1.5143411811023622
20
2.5794784645669289
11
1.5142746456692913
21
2.5793974409448817
0
LINE
8
BLACK
6
CONTINUOUS
10
1.5142746456692913
20
2.5793974409448817
11
1.5142187007874015
21
2.5793085039370078
0
LINE
8
BLACK
6
CONTINUOUS
10
1.5142187007874015
20
2.5793085039370078
11
1.5141596850393702
21
2.5792573622047246
0
LINE
8
BLACK
6
CONTINUOUS
10
1.5141596850393702
20
2.5792573622047246
11
1.513973937007874
21
2.5790309842519683
0
LINE
8
BLACK
6
CONTINUOUS
10
1.513973937007874
20
2.5790309842519683
11
1.5120992125984252
21
2.5771562204724408
0
LINE
8
BLACK
6
CONTINUOUS
10
1.5120992125984252
20
2.5771562204724408
11
1.5118728346456694
21
2.5769704724409448
0
LINE
8
BLACK
6
CONTINUOUS
10
1.5118728346456694
20
2.5769704724409448
11
1.5118216535433071
21
2.5769114173228345
0
LINE
8
BLACK
6
CONTINUOUS
10
1.5118216535433071
20
2.5769114173228345
11
1.5117326771653543
21
2.576855433070866
0
LINE
8
BLACK
6
CONTINUOUS
10
1.5117326771653543
20
2.576855433070866
11
1.5116517322834646
21
2.5767889763779528
0
LINE
8
BLACK
6
CONTINUOUS
10
1.5116517322834646
20
2.5767889763779528
11
1.5115797637795276
21
2.5767591732283464
0
LINE
8
BLACK
6
CONTINUOUS
10
1.5115797637795276
20
2.5767591732283464
11
1.5113317716535433
21
2.5766030708661418
0
LINE
8
BLACK
6
CONTINUOUS
10
1.5113317716535433
20
2.5766030708661418
11
1.5075822440944882
21
2.5747283070866143
0
LINE
8
BLACK
6
CONTINUOUS
10
1.5075822440944882
20
2.5747283070866143
11
1.5070416141732283
21
2.5745214173228348
0
LINE
8
BLACK
6
CONTINUOUS
10
1.5070416141732283
20
2.5745214173228348
11
1.5069357874015747
21
2.574513937007874
0
LINE
8
BLACK
6
CONTINUOUS
10
1.5069357874015747
20
2.574513937007874
11
1.5068377952755905
21
2.5744733070866141
0
LINE
8
BLACK
6
CONTINUOUS
10
1.5068377952755905
20
2.5744733070866141
11
1.5062617322834646
21
2.5744165748031493
0
LINE
8
BLACK
6
CONTINUOUS
10
1.5062617322834646
20
2.5744165748031493
11
1.5025122047244095
21
2.5744165748031493
0
LINE
8
BLACK
6
CONTINUOUS
10
1.5025122047244095
20
2.5744165748031493
11
1.5019361417322834
21
2.5744733070866141
0
LINE
8
BLACK
6
CONTINUOUS
10
1.5019361417322834
20
2.5744733070866141
11
1.5018381496062991
21
2.5745138976377953
0
LINE
8
BLACK
6
CONTINUOUS
10
1.5018381496062991
20
2.5745138976377953
11
1.501732283464567
21
2.5745214173228348
0
LINE
8
BLACK
6
CONTINUOUS
10
1.501732283464567
20
2.5745214173228348
11
1.5011916929133857
21
2.5747283070866143
0
LINE
8
BLACK
6
CONTINUOUS
10
1.5011916929133857
20
2.5747283070866143
11
1.4974421653543306
21
2.5766030708661418
0
LINE
8
BLACK
6
CONTINUOUS
10
1.4974421653543306
20
2.5766030708661418
11
1.4971941338582677
21
2.5767591732283464
0
LINE
8
BLACK
6
CONTINUOUS
10
1.4971941338582677
20
2.5767591732283464
11
1.4971222047244095
21
2.5767889763779528
0
LINE
8
BLACK
6
CONTINUOUS
10
1.4971222047244095
20
2.5767889763779528
11
1.4970412204724408
21
2.576855433070866
0
LINE
8
BLACK
6
CONTINUOUS
10
1.4970412204724408
20
2.576855433070866
11
1.496952283464567
21
2.5769114173228345
0
LINE
8
BLACK
6
CONTINUOUS
10
1.496952283464567
20
2.5769114173228345
11
1.496901062992126
21
2.5769704724409448
0
LINE
8
BLACK
6
CONTINUOUS
10
1.496901062992126
20
2.5769704724409448
11
1.4966747244094487
21
2.5771562204724408
0
LINE
8
BLACK
6
CONTINUOUS
10
1.4966747244094487
20
2.5771562204724408
11
1.4947999606299212
21
2.5790310236220471
0
LINE
8
BLACK
6
CONTINUOUS
10
1.4947999606299212
20
2.5790310236220471
11
1.4946142125984252
21
2.5792573622047246
0
LINE
8
BLACK
6
CONTINUOUS
10
1.4946142125984252
20
2.5792573622047246
11
1.4945552362204724
21
2.5793085039370078
0
LINE
8
BLACK
6
CONTINUOUS
10
1.4945552362204724
20
2.5793085039370078
11
1.4944992519685039
21
2.5793974409448817
0
LINE
8
BLACK
6
CONTINUOUS
10
1.4944992519685039
20
2.5793974409448817
11
1.4944327559055117
21
2.5794784645669289
0
LINE
8
BLACK
6
CONTINUOUS
10
1.4944327559055117
20
2.5794784645669289
11
1.4944029133858268
21
2.5795505118110236
0
LINE
8
BLACK
6
CONTINUOUS
10
1.4944029133858268
20
2.5795505118110236
11
1.4942468897637795
21
2.5797983858267717
0
LINE
8
BLACK
6
CONTINUOUS
10
1.4942468897637795
20
2.5797983858267717
11
1.492372125984252
21
2.5835479133858268
0
LINE
8
BLACK
6
CONTINUOUS
10
1.492372125984252
20
2.5835479133858268
11
1.4923559842519685
21
2.5835900393700788
0
LINE
8
BLACK
6
CONTINUOUS
10
1.4923559842519685
20
2.5835900393700788
11
1.4923433070866141
21
2.5836071653543304
0
LINE
8
BLACK
6
CONTINUOUS
10
1.4923433070866141
20
2.5836071653543304
11
1.4922568503937008
21
2.5838491338582679
0
LINE
8
BLACK
6
CONTINUOUS
10
1.4922568503937008
20
2.5838491338582679
11
1.4921652362204725
21
2.5840885433070864
0
LINE
8
BLACK
6
CONTINUOUS
10
1.4921652362204725
20
2.5840885433070864
11
1.4921637007874016
21
2.5841098031496061
0
LINE
8
BLACK
6
CONTINUOUS
10
1.4921637007874016
20
2.5841098031496061
11
1.4921485433070867
21
2.5841522834645669
0
LINE
8
BLACK
6
CONTINUOUS
10
1.4921485433070867
20
2.5841522834645669
11
1.4902737795275591
21
2.5916513385826772
0
LINE
8
BLACK
6
CONTINUOUS
10
1.4902737795275591
20
2.5916513385826772
11
1.4902589763779528
21
2.5917512204724407
0
LINE
8
BLACK
6
CONTINUOUS
10
1.4902589763779528
20
2.5917512204724407
11
1.4902423622047243
21
2.5917914173228347
0
LINE
8
BLACK
6
CONTINUOUS
10
1.4902423622047243
20
2.5917914173228347
11
1.4902209842519685
21
2.5920084645669292
0
LINE
8
BLACK
6
CONTINUOUS
10
1.4902209842519685
20
2.5920084645669292
11
1.4901891338582678
21
2.5922239370078741
0
LINE
8
BLACK
6
CONTINUOUS
10
1.4901891338582678
20
2.5922239370078741
11
1.4901955118110235
21
2.592266968503937
0
LINE
8
BLACK
6
CONTINUOUS
10
1.4901955118110235
20
2.592266968503937
11
1.4901856299212599
21
2.5923674803149606
0
LINE
8
BLACK
6
CONTINUOUS
10
1.4901856299212599
20
2.5923674803149606
11
1.4901856299212599
21
2.6017412992125983
0
LINE
8
BLACK
6
CONTINUOUS
10
1.4901856299212599
20
2.6017412992125983
11
1.4901955118110235
21
2.6018418503937006
0
LINE
8
BLACK
6
CONTINUOUS
10
1.4901955118110235
20
2.6018418503937006
11
1.4901891338582678
21
2.6018848425196848
0
LINE
8
BLACK
6
CONTINUOUS
10
1.4901891338582678
20
2.6018848425196848
11
1.4902209842519685
21
2.6021003543307084
0
LINE
8
BLACK
6
CONTINUOUS
10
1.4902209842519685
20
2.6021003543307084
11
1.4902423622047243
21
2.6023173622047242
0
LINE
8
BLACK
6
CONTINUOUS
10
1.4902423622047243
20
2.6023173622047242
11
1.4902589763779528
21
2.602357598425197
0
LINE
8
BLACK
6
CONTINUOUS
10
1.4902589763779528
20
2.602357598425197
11
1.4902737795275591
21
2.6024574409448817
0
LINE
8
BLACK
6
CONTINUOUS
10
1.4902737795275591
20
2.6024574409448817
11
1.4921485433070867
21
2.609956496062992
0
LINE
8
BLACK
6
CONTINUOUS
10
1.4921485433070867
20
2.609956496062992
11
1.4921637007874016
21
2.6099990157480315
0
LINE
8
BLACK
6
CONTINUOUS
10
1.4921637007874016
20
2.6099990157480315
11
1.4921652362204725
21
2.6100202362204725
0
LINE
8
BLACK
6
CONTINUOUS
10
1.4921652362204725
20
2.6100202362204725
11
1.4922568503937008
21
2.6102596850393702
0
LINE
8
BLACK
6
CONTINUOUS
10
1.4922568503937008
20
2.6102596850393702
11
1.4923433070866141
21
2.6105016141732285
0
LINE
8
BLACK
6
CONTINUOUS
10
1.4923433070866141
20
2.6105016141732285
11
1.4923559842519685
21
2.6105187795275588
0
LINE
8
BLACK
6
CONTINUOUS
10
1.4923559842519685
20
2.6105187795275588
11
1.492372125984252
21
2.6105608661417321
0
LINE
8
BLACK
6
CONTINUOUS
10
1.492372125984252
20
2.6105608661417321
11
1.4942468897637795
21
2.6143103937007872
0
LINE
8
BLACK
6
CONTINUOUS
10
1.4942468897637795
20
2.6143103937007872
11
1.4944029527559055
21
2.6145584251968503
0
LINE
8
BLACK
6
CONTINUOUS
10
1.4944029527559055
20
2.6145584251968503
11
1.4944327952755905
21
2.6146303543307088
0
LINE
8
BLACK
6
CONTINUOUS
10
1.4944327952755905
20
2.6146303543307088
11
1.4944992519685039
21
2.6147113385826772
0
LINE
8
BLACK
6
CONTINUOUS
10
1.4944992519685039
20
2.6147113385826772
11
1.4945552362204724
21
2.6148002755905511
0
LINE
8
BLACK
6
CONTINUOUS
10
1.4945552362204724
20
2.6148002755905511
11
1.4946142125984252
21
2.6148514566929135
0
LINE
8
BLACK
6
CONTINUOUS
10
1.4946142125984252
20
2.6148514566929135
11
1.4947999999999999
21
2.6150777952755906
0
LINE
8
BLACK
6
CONTINUOUS
10
1.4947999999999999
20
2.6150777952755906
11
1.4966747637795275
21
2.6169525590551181
0
LINE
8
BLACK
6
CONTINUOUS
10
1.4966747637795275
20
2.6169525590551181
11
1.4969011023622047
21
2.6171383464566929
0
LINE
8
BLACK
6
CONTINUOUS
10
1.4969011023622047
20
2.6171383464566929
11
1.496952283464567
21
2.6171973228346457
0
LINE
8
BLACK
6
CONTINUOUS
10
1.496952283464567
20
2.6171973228346457
11
1.4970412204724408
21
2.6172533070866142
0
LINE
8
BLACK
6
CONTINUOUS
10
1.4970412204724408
20
2.6172533070866142
11
1.4971222047244095
21
2.6173197637795274
0
LINE
8
BLACK
6
CONTINUOUS
10
1.4971222047244095
20
2.6173197637795274
11
1.4971941338582677
21
2.6173496062992125
0
LINE
8
BLACK
6
CONTINUOUS
10
1.4971941338582677
20
2.6173496062992125
11
1.4974421653543306
21
2.6175056692913383
0
LINE
8
BLACK
6
CONTINUOUS
10
1.4974421653543306
20
2.6175056692913383
11
1.5011916929133857
21
2.6193804330708659
0
LINE
8
BLACK
6
CONTINUOUS
10
1.5011916929133857
20
2.6193804330708659
11
1.501732283464567
21
2.6195873228346458
0
LINE
8
BLACK
6
CONTINUOUS
10
1.501732283464567
20
2.6195873228346458
11
1.5018381496062991
21
2.6195948818897636
0
LINE
8
BLACK
6
CONTINUOUS
10
1.5018381496062991
20
2.6195948818897636
11
1.5019361417322834
21
2.619635433070866
0
LINE
8
BLACK
6
CONTINUOUS
10
1.5019361417322834
20
2.619635433070866
11
1.5025122047244095
21
2.6196921653543308
0
LINE
8
BLACK
6
CONTINUOUS
10
1.5025122047244095
20
2.6196921653543308
11
1.5062617322834646
21
2.6196921653543308
0
LINE
8
BLACK
6
CONTINUOUS
10
1.5062617322834646
20
2.6196921653543308
11
1.5068377952755905
21
2.619635433070866
0
LINE
8
BLACK
6
CONTINUOUS
10
1.5005117716535432
20
2.6124379133858269
11
1.4993146456692914
21
2.6112407874015746
0
LINE
8
BLACK
6
CONTINUOUS
10
1.4993146456692914
20
2.6112407874015746
11
1.4977991338582677
21
2.6082098031496064
0
LINE
8
BLACK
6
CONTINUOUS
10
1.4977991338582677
20
2.6082098031496064
11
1.4960911417322835
21
2.6013777559055118
0
LINE
8
BLACK
6
CONTINUOUS
10
1.4960911417322835
20
2.6013777559055118
11
1.4960911417322835
21
2.5927310236220471
0
LINE
8
BLACK
6
CONTINUOUS
10
1.4960911417322835
20
2.5927310236220471
11
1.4977991338582677
21
2.5858989763779525
0
LINE
8
BLACK
6
CONTINUOUS
10
1.4977991338582677
20
2.5858989763779525
11
1.4993146456692914
21
2.5828679921259843
0
LINE
8
BLACK
6
CONTINUOUS
10
1.4993146456692914
20
2.5828679921259843
11
1.5005117716535432
21
2.5816708267716533
0
LINE
8
BLACK
6
CONTINUOUS
10
1.5005117716535432
20
2.5816708267716533
11
1.5032092519685039
21
2.5803220866141729
0
LINE
8
BLACK
6
CONTINUOUS
10
1.5032092519685039
20
2.5803220866141729
11
1.50556468503937
21
2.5803220866141729
0
LINE
8
BLACK
6
CONTINUOUS
10
1.50556468503937
20
2.5803220866141729
11
1.5082621259842519
21
2.5816708267716533
0
LINE
8
BLACK
6
CONTINUOUS
10
1.5082621259842519
20
2.5816708267716533
11
1.5094592519685039
21
2.5828679921259843
0
LINE
8
BLACK
6
CONTINUOUS
10
1.5094592519685039
20
2.5828679921259843
11
1.5109747637795274
21
2.5858989763779525
0
LINE
8
BLACK
6
CONTINUOUS
10
1.5109747637795274
20
2.5858989763779525
11
1.5126827952755906
21
2.5927310236220471
0
LINE
8
BLACK
6
CONTINUOUS
10
1.5126827952755906
20
2.5927310236220471
11
1.5126827952755906
21
2.6013777559055118
0
LINE
8
BLACK
6
CONTINUOUS
10
1.5126827952755906
20
2.6013777559055118
11
1.5109747637795274
21
2.6082098031496064
0
LINE
8
BLACK
6
CONTINUOUS
10
1.5109747637795274
20
2.6082098031496064
11
1.5094592913385827
21
2.6112407874015746
0
LINE
8
BLACK
6
CONTINUOUS
10
1.5094592913385827
20
2.6112407874015746
11
1.5082621653543307
21
2.6124379133858269
0
LINE
8
BLACK
6
CONTINUOUS
10
1.5082621653543307
20
2.6124379133858269
11
1.50556468503937
21
2.6137866535433072
0
LINE
8
BLACK
6
CONTINUOUS
10
1.50556468503937
20
2.6137866535433072
11
1.5032092519685039
21
2.6137866535433072
0
LINE
8
BLACK
6
CONTINUOUS
10
1.5032092519685039
20
2.6137866535433072
11
1.5005117716535432
21
2.6124379133858269
0
LINE
8
BLACK
6
CONTINUOUS
10
1.5649555118110237
20
2.619635433070866
11
1.5650535039370079
21
2.6195948425196849
0
LINE
8
BLACK
6
CONTINUOUS
10
1.5650535039370079
20
2.6195948425196849
11
1.5651593307086613
21
2.6195873228346458
0
LINE
8
BLACK
6
CONTINUOUS
10
1.5651593307086613
20
2.6195873228346458
11
1.5656999606299211
21
2.6193804330708659
0
LINE
8
BLACK
6
CONTINUOUS
10
1.5656999606299211
20
2.6193804330708659
11
1.5694494881889764
21
2.6175056692913383
0
LINE
8
BLACK
6
CONTINUOUS
10
1.5694494881889764
20
2.6175056692913383
11
1.5696974803149606
21
2.6173496062992125
0
LINE
8
BLACK
6
CONTINUOUS
10
1.5696974803149606
20
2.6173496062992125
11
1.5697694488188976
21
2.6173197637795274
0
LINE
8
BLACK
6
CONTINUOUS
10
1.5697694488188976
20
2.6173197637795274
11
1.5698503937007873
21
2.6172533070866142
0
LINE
8
BLACK
6
CONTINUOUS
10
1.5698503937007873
20
2.6172533070866142
11
1.5699393700787401
21
2.6171973228346457
0
LINE
8
BLACK
6
CONTINUOUS
10
1.5699393700787401
20
2.6171973228346457
11
1.5699905118110236
21
2.6171383464566929
0
LINE
8
BLACK
6
CONTINUOUS
10
1.5699905118110236
20
2.6171383464566929
11
1.5702168897637796
21
2.6169525590551181
0
LINE
8
BLACK
6
CONTINUOUS
10
1.5702168897637796
20
2.6169525590551181
11
1.5720916535433072
21
2.6150777952755906
0
LINE
8
BLACK
6
CONTINUOUS
10
1.5720916535433072
20
2.6150777952755906
11
1.5722774015748031
21
2.6148514566929135
0
LINE
8
BLACK
6
CONTINUOUS
10
1.5722774015748031
20
2.6148514566929135
11
1.5723364173228347
21
2.6148002755905511
0
LINE
8
BLACK
6
CONTINUOUS
10
1.5723364173228347
20
2.6148002755905511
11
1.5723923622047244
21
2.6147113385826772
0
LINE
8
BLACK
6
CONTINUOUS
10
1.5723923622047244
20
2.6147113385826772
11
1.5724588582677166
21
2.6146303543307088
0
LINE
8
BLACK
6
CONTINUOUS
10
1.5724588582677166
20
2.6146303543307088
11
1.5724886614173228
21
2.6145584251968503
0
LINE
8
BLACK
6
CONTINUOUS
10
1.5724886614173228
20
2.6145584251968503
11
1.5726447637795276
21
2.6143103937007872
0
LINE
8
BLACK
6
CONTINUOUS
10
1.5726447637795276
20
2.6143103937007872
11
1.5745195275590551
21
2.6105608661417321
0
LINE
8
BLACK
6
CONTINUOUS
10
1.5745195275590551
20
2.6105608661417321
11
1.5747264173228346
21
2.6100202755905513
0
LINE
8
BLACK
6
CONTINUOUS
10
1.5747264173228346
20
2.6100202755905513
11
1.5747339370078739
21
2.6099144094488187
0
LINE
8
BLACK
6
CONTINUOUS
10
1.5747339370078739
20
2.6099144094488187
11
1.574774527559055
21
2.6098164173228344
0
LINE
8
BLACK
6
CONTINUOUS
10
1.574774527559055
20
2.6098164173228344
11
1.5748312598425196
21
2.6092403543307086
0
LINE
8
BLACK
6
CONTINUOUS
10
1.5748312598425196
20
2.6092403543307086
11
1.5748312598425196
21
2.5942422440944881
0
LINE
8
BLACK
6
CONTINUOUS
10
1.5748312598425196
20
2.5942422440944881
11
1.574821338582677
21
2.5941417322834646
0
LINE
8
BLACK
6
CONTINUOUS
10
1.574821338582677
20
2.5941417322834646
11
1.5748277559055117
21
2.5940987007874017
0
LINE
8
BLACK
6
CONTINUOUS
10
1.5748277559055117
20
2.5940987007874017
11
1.5747958661417323
21
2.5938832283464568
0
LINE
8
BLACK
6
CONTINUOUS
10
1.5747958661417323
20
2.5938832283464568
11
1.574774527559055
21
2.5936661811023622
0
LINE
8
BLACK
6
CONTINUOUS
10
1.574774527559055
20
2.5936661811023622
11
1.574757874015748
21
2.5936259842519687
0
LINE
8
BLACK
6
CONTINUOUS
10
1.574757874015748
20
2.5936259842519687
11
1.5747431102362204
21
2.5935261023622047
0
LINE
8
BLACK
6
CONTINUOUS
10
1.5747431102362204
20
2.5935261023622047
11
1.5728683464566928
21
2.5860270472440945
0
LINE
8
BLACK
6
CONTINUOUS
10
1.5728683464566928
20
2.5860270472440945
11
1.5727470078740158
21
2.5856875590551183
0
LINE
8
BLACK
6
CONTINUOUS
10
1.5727470078740158
20
2.5856875590551183
11
1.5727329133858268
21
2.5856161023622048
0
LINE
8
BLACK
6
CONTINUOUS
10
1.5727329133858268
20
2.5856161023622048
11
1.5726983464566928
21
2.5855513385826772
0
LINE
8
BLACK
6
CONTINUOUS
10
1.5726983464566928
20
2.5855513385826772
11
1.5726735826771654
21
2.585481929133858
0
LINE
8
BLACK
6
CONTINUOUS
10
1.5726735826771654
20
2.585481929133858
11
1.5726300393700787
21
2.5854232283464564
0
LINE
8
BLACK
6
CONTINUOUS
10
1.5726300393700787
20
2.5854232283464564
11
1.572460590551181
21
2.58510531496063
0
LINE
8
BLACK
6
CONTINUOUS
10
1.572460590551181
20
2.58510531496063
11
1.5687110629921259
21
2.5794809842519686
0
LINE
8
BLACK
6
CONTINUOUS
10
1.5687110629921259
20
2.5794809842519686
11
1.5687097244094488
21
2.5794794094488189
0
LINE
8
BLACK
6
CONTINUOUS
10
1.5687097244094488
20
2.5794794094488189
11
1.5687093700787402
21
2.5794784645669289
0
LINE
8
BLACK
6
CONTINUOUS
10
1.5687093700787402
20
2.5794784645669289
11
1.5685308661417323
21
2.5792609842519685
0
LINE
8
BLACK
6
CONTINUOUS
10
1.5685308661417323
20
2.5792609842519685
11
1.5683442913385826
21
2.5790331496062993
0
LINE
8
BLACK
6
CONTINUOUS
10
1.5683442913385826
20
2.5790331496062993
11
1.5683434251968504
21
2.5790325984251967
0
LINE
8
BLACK
6
CONTINUOUS
10
1.5683434251968504
20
2.5790325984251967
11
1.5683421259842518
21
2.5790309842519683
0
LINE
8
BLACK
6
CONTINUOUS
10
1.5683421259842518
20
2.5790309842519683
11
1.566467401574803
21
2.5771562204724408
0
LINE
8
BLACK
6
CONTINUOUS
10
1.566467401574803
20
2.5771562204724408
11
1.5662410236220472
21
2.5769704724409448
0
LINE
8
BLACK
6
CONTINUOUS
10
1.5662410236220472
20
2.5769704724409448
11
1.566189842519685
21
2.5769114173228345
0
LINE
8
BLACK
6
CONTINUOUS
10
1.566189842519685
20
2.5769114173228345
11
1.5661008661417322
21
2.576855433070866
0
LINE
8
BLACK
6
CONTINUOUS
10
1.5661008661417322
20
2.576855433070866
11
1.5660199212598425
21
2.5767889763779528
0
LINE
8
BLACK
6
CONTINUOUS
10
1.5660199212598425
20
2.5767889763779528
11
1.5659479527559055
21
2.5767591732283464
0
LINE
8
BLACK
6
CONTINUOUS
10
1.5659479527559055
20
2.5767591732283464
11
1.5656999606299211
21
2.5766030708661418
0
LINE
8
BLACK
6
CONTINUOUS
10
1.5656999606299211
20
2.5766030708661418
11
1.561950433070866
21
2.5747283070866143
0
LINE
8
BLACK
6
CONTINUOUS
10
1.561950433070866
20
2.5747283070866143
11
1.5614098031496062
21
2.5745214173228348
0
LINE
8
BLACK
6
CONTINUOUS
10
1.5614098031496062
20
2.5745214173228348
11
1.5613039763779528
21
2.574513937007874
0
LINE
8
BLACK
6
CONTINUOUS
10
1.5613039763779528
20
2.574513937007874
11
1.5612059842519685
21
2.5744733070866141
0
LINE
8
BLACK
6
CONTINUOUS
10
1.5612059842519685
20
2.5744733070866141
11
1.5606299212598425
21
2.5744165748031493
0
LINE
8
BLACK
6
CONTINUOUS
10
1.5606299212598425
20
2.5744165748031493
11
1.5531308661417322
21
2.5744165748031493
0
LINE
8
BLACK
6
CONTINUOUS
10
1.5531308661417322
20
2.5744165748031493
11
1.5525548031496064
21
2.5744733070866141
0
LINE
8
BLACK
6
CONTINUOUS
10
1.5525548031496064
20
2.5744733070866141
11
1.5514903937007873
21
2.5749142125984252
0
LINE
8
BLACK
6
CONTINUOUS
10
1.5514903937007873
20
2.5749142125984252
11
1.5506757480314961
21
2.5757288582677167
0
LINE
8
BLACK
6
CONTINUOUS
10
1.5506757480314961
20
2.5757288582677167
11
1.550234842519685
21
2.5767932677165355
0
LINE
8
BLACK
6
CONTINUOUS
10
1.550234842519685
20
2.5767932677165355
11
1.550234842519685
21
2.5779453937007872
0
LINE
8
BLACK
6
CONTINUOUS
10
1.550234842519685
20
2.5779453937007872
11
1.5506757480314961
21
2.579009803149606
0
LINE
8
BLACK
6
CONTINUOUS
10
1.5506757480314961
20
2.579009803149606
11
1.5514903937007873
21
2.5798244488188975
0
LINE
8
BLACK
6
CONTINUOUS
10
1.5514903937007873
20
2.5798244488188975
11
1.5525548031496064
21
2.5802653543307086
0
LINE
8
BLACK
6
CONTINUOUS
10
1.5525548031496064
20
2.5802653543307086
11
1.5531308661417322
21
2.5803220866141729
0
LINE
8
BLACK
6
CONTINUOUS
10
1.5531308661417322
20
2.5803220866141729
11
1.5599328740157481
21
2.5803220866141729
0
LINE
8
BLACK
6
CONTINUOUS
10
1.5599328740157481
20
2.5803220866141729
11
1.56263031496063
21
2.5816708267716533
0
LINE
8
BLACK
6
CONTINUOUS
10
1.56263031496063
20
2.5816708267716533
11
1.5639594488188977
21
2.5829999999999997
0
LINE
8
BLACK
6
CONTINUOUS
10
1.5639594488188977
20
2.5829999999999997
11
1.567263188976378
21
2.5879555511811021
0
LINE
8
BLACK
6
CONTINUOUS
10
1.567263188976378
20
2.5879555511811021
11
1.5679924803149605
21
2.5908727165354328
0
LINE
8
BLACK
6
CONTINUOUS
10
1.5679924803149605
20
2.5908727165354328
11
1.5656999606299211
21
2.5897264566929135
0
LINE
8
BLACK
6
CONTINUOUS
10
1.5656999606299211
20
2.5897264566929135
11
1.5651593307086613
21
2.589519566929134
0
LINE
8
BLACK
6
CONTINUOUS
10
1.5651593307086613
20
2.589519566929134
11
1.5650535039370079
21
2.5895120866141732
0
LINE
8
BLACK
6
CONTINUOUS
10
1.5650535039370079
20
2.5895120866141732
11
1.5649555118110237
21
2.5894714566929133
0
LINE
8
BLACK
6
CONTINUOUS
10
1.5649555118110237
20
2.5894714566929133
11
1.5643794488188976
21
2.589414724409449
0
LINE
8
BLACK
6
CONTINUOUS
10
1.5643794488188976
20
2.589414724409449
11
1.5568803937007873
21
2.589414724409449
0
LINE
8
BLACK
6
CONTINUOUS
10
1.5568803937007873
20
2.589414724409449
11
1.5563043307086615
21
2.5894714566929133
0
LINE
8
BLACK
6
CONTINUOUS
10
1.5563043307086615
20
2.5894714566929133
11
1.5562063385826772
21
2.5895120472440945
0
LINE
8
BLACK
6
CONTINUOUS
10
1.5562063385826772
20
2.5895120472440945
11
1.5561004724409448
21
2.589519566929134
0
LINE
8
BLACK
6
CONTINUOUS
10
1.5561004724409448
20
2.589519566929134
11
1.5555598818897638
21
2.5897264566929135
0
LINE
8
BLACK
6
CONTINUOUS
10
1.5555598818897638
20
2.5897264566929135
11
1.5518103543307087
21
2.591601220472441
0
LINE
8
BLACK
6
CONTINUOUS
10
1.5518103543307087
20
2.591601220472441
11
1.5515623228346456
21
2.5917573228346455
0
LINE
8
BLACK
6
CONTINUOUS
10
1.5515623228346456
20
2.5917573228346455
11
1.5514903937007873
21
2.591787125984252
0
LINE
8
BLACK
6
CONTINUOUS
10
1.5514903937007873
20
2.591787125984252
11
1.5514094094488189
21
2.5918536220472439
0
LINE
8
BLACK
6
CONTINUOUS
10
1.5514094094488189
20
2.5918536220472439
11
1.5513204724409448
21
2.5919095669291337
0
LINE
8
BLACK
6
CONTINUOUS
10
1.5513204724409448
20
2.5919095669291337
11
1.5512692913385826
21
2.5919685826771652
0
LINE
8
BLACK
6
CONTINUOUS
10
1.5512692913385826
20
2.5919685826771652
11
1.5510429527559055
21
2.5921543307086612
0
LINE
8
BLACK
6
CONTINUOUS
10
1.5510429527559055
20
2.5921543307086612
11
1.549168188976378
21
2.5940290944881887
0
LINE
8
BLACK
6
CONTINUOUS
10
1.549168188976378
20
2.5940290944881887
11
1.548982401574803
21
2.594255472440945
0
LINE
8
BLACK
6
CONTINUOUS
10
1.548982401574803
20
2.594255472440945
11
1.5489234251968504
21
2.5943066141732283
0
LINE
8
BLACK
6
CONTINUOUS
10
1.5489234251968504
20
2.5943066141732283
11
1.5488674409448819
21
2.5943955905511809
0
LINE
8
BLACK
6
CONTINUOUS
10
1.5488674409448819
20
2.5943955905511809
11
1.5488009842519685
21
2.594476535433071
0
LINE
8
BLACK
6
CONTINUOUS
10
1.5488009842519685
20
2.594476535433071
11
1.5487711417322834
21
2.5945485039370078
0
LINE
8
BLACK
6
CONTINUOUS
10
1.5487711417322834
20
2.5945485039370078
11
1.5486150787401574
21
2.5947964960629921
0
LINE
8
BLACK
6
CONTINUOUS
10
1.5486150787401574
20
2.5947964960629921
11
1.5467403149606298
21
2.5985460236220472
0
LINE
8
BLACK
6
CONTINUOUS
10
1.5467403149606298
20
2.5985460236220472
11
1.5465334251968503
21
2.5990866535433068
0
LINE
8
BLACK
6
CONTINUOUS
10
1.5465334251968503
20
2.5990866535433068
11
1.546525905511811
21
2.5991924803149606
0
LINE
8
BLACK
6
CONTINUOUS
10
1.546525905511811
20
2.5991924803149606
11
1.5464853149606299
21
2.5992904724409449
0
LINE
8
BLACK
6
CONTINUOUS
10
1.5464853149606299
20
2.5992904724409449
11
1.5464285826771653
21
2.5998665354330708
0
LINE
8
BLACK
6
CONTINUOUS
10
1.5464285826771653
20
2.5998665354330708
11
1.5464285826771653
21
2.6092403543307086
0
LINE
8
BLACK
6
CONTINUOUS
10
1.5464285826771653
20
2.6092403543307086
11
1.5464853149606299
21
2.6098164173228344
0
LINE
8
BLACK
6
CONTINUOUS
10
1.5464853149606299
20
2.6098164173228344
11
1.546525905511811
21
2.6099144488188974
0
LINE
8
BLACK
6
CONTINUOUS
10
1.546525905511811
20
2.6099144488188974
11
1.5465334251968503
21
2.6100202362204725
0
LINE
8
BLACK
6
CONTINUOUS
10
1.5465334251968503
20
2.6100202362204725
11
1.5467403149606298
21
2.6105608661417321
0
LINE
8
BLACK
6
CONTINUOUS
10
1.5467403149606298
20
2.6105608661417321
11
1.5486150787401574
21
2.6143103937007872
0
LINE
8
BLACK
6
CONTINUOUS
10
1.5486150787401574
20
2.6143103937007872
11
1.5487711417322834
21
2.6145584251968503
0
LINE
8
BLACK
6
CONTINUOUS
10
1.5487711417322834
20
2.6145584251968503
11
1.5488009842519685
21
2.6146303543307088
0
LINE
8
BLACK
6
CONTINUOUS
10
1.5488009842519685
20
2.6146303543307088
11
1.5488674409448819
21
2.6147113385826772
0
LINE
8
BLACK
6
CONTINUOUS
10
1.5488674409448819
20
2.6147113385826772
11
1.5489234251968504
21
2.6148002755905511
0
LINE
8
BLACK
6
CONTINUOUS
10
1.5489234251968504
20
2.6148002755905511
11
1.548982401574803
21
2.6148514566929135
0
LINE
8
BLACK
6
CONTINUOUS
10
1.548982401574803
20
2.6148514566929135
11
1.549168188976378
21
2.6150777952755906
0
LINE
8
BLACK
6
CONTINUOUS
10
1.549168188976378
20
2.6150777952755906
11
1.5510429527559055
21
2.6169525590551181
0
LINE
8
BLACK
6
CONTINUOUS
10
1.5510429527559055
20
2.6169525590551181
11
1.5512692913385826
21
2.6171383464566929
0
LINE
8
BLACK
6
CONTINUOUS
10
1.5512692913385826
20
2.6171383464566929
11
1.5513204724409448
21
2.6171973228346457
0
LINE
8
BLACK
6
CONTINUOUS
10
1.5513204724409448
20
2.6171973228346457
11
1.5514094094488189
21
2.6172533070866142
0
LINE
8
BLACK
6
CONTINUOUS
10
1.5514094094488189
20
2.6172533070866142
11
1.5514903937007873
21
2.6173197637795274
0
LINE
8
BLACK
6
CONTINUOUS
10
1.5514903937007873
20
2.6173197637795274
11
1.5515623228346456
21
2.6173496062992125
0
LINE
8
BLACK
6
CONTINUOUS
10
1.5515623228346456
20
2.6173496062992125
11
1.5518103543307087
21
2.6175056692913383
0
LINE
8
BLACK
6
CONTINUOUS
10
1.5518103543307087
20
2.6175056692913383
11
1.5555598818897638
21
2.6193804330708659
0
LINE
8
BLACK
6
CONTINUOUS
10
1.5555598818897638
20
2.6193804330708659
11
1.5561004724409448
21
2.6195873228346458
0
LINE
8
BLACK
6
CONTINUOUS
10
1.5561004724409448
20
2.6195873228346458
11
1.5562063385826772
21
2.6195948818897636
0
LINE
8
BLACK
6
CONTINUOUS
10
1.5562063385826772
20
2.6195948818897636
11
1.5563043307086615
21
2.619635433070866
0
LINE
8
BLACK
6
CONTINUOUS
10
1.5563043307086615
20
2.619635433070866
11
1.5568803937007873
21
2.6196921653543308
0
LINE
8
BLACK
6
CONTINUOUS
10
1.5568803937007873
20
2.6196921653543308
11
1.5643794488188976
21
2.6196921653543308
0
LINE
8
BLACK
6
CONTINUOUS
10
1.5643794488188976
20
2.6196921653543308
11
1.5649555118110237
21
2.619635433070866
0
LINE
8
BLACK
6
CONTINUOUS
10
1.5548799606299213
20
2.6124379133858269
11
1.5536828346456693
21
2.6112407874015746
0
LINE
8
BLACK
6
CONTINUOUS
10
1.5536828346456693
20
2.6112407874015746
11
1.5523340944881889
21
2.608543307086614
0
LINE
8
BLACK
6
CONTINUOUS
10
1.5523340944881889
20
2.608543307086614
11
1.5523340944881889
21
2.6005635826771654
0
LINE
8
BLACK
6
CONTINUOUS
10
1.5523340944881889
20
2.6005635826771654
11
1.5536828346456693
21
2.5978661023622047
0
LINE
8
BLACK
6
CONTINUOUS
10
1.5536828346456693
20
2.5978661023622047
11
1.5548799606299213
21
2.5966689763779529
0
LINE
8
BLACK
6
CONTINUOUS
10
1.5548799606299213
20
2.5966689763779529
11
1.5575774409448819
21
2.5953202362204726
0
LINE
8
BLACK
6
CONTINUOUS
10
1.5575774409448819
20
2.5953202362204726
11
1.5636824015748032
21
2.5953202362204726
0
LINE
8
BLACK
6
CONTINUOUS
10
1.5636824015748032
20
2.5953202362204726
11
1.5663798818897638
21
2.5966689763779529
0
LINE
8
BLACK
6
CONTINUOUS
10
1.5663798818897638
20
2.5966689763779529
11
1.5675770078740157
21
2.5978661023622047
0
LINE
8
BLACK
6
CONTINUOUS
10
1.5675770078740157
20
2.5978661023622047
11
1.568925748031496
21
2.6005635826771654
0
LINE
8
BLACK
6
CONTINUOUS
10
1.568925748031496
20
2.6005635826771654
11
1.568925748031496
21
2.608543307086614
0
LINE
8
BLACK
6
CONTINUOUS
10
1.568925748031496
20
2.608543307086614
11
1.5675770078740157
21
2.6112407874015746
0
LINE
8
BLACK
6
CONTINUOUS
10
1.5675770078740157
20
2.6112407874015746
11
1.5663798818897638
21
2.6124379133858269
0
LINE
8
BLACK
6
CONTINUOUS
10
1.5663798818897638
20
2.6124379133858269
11
1.5636824015748032
21
2.6137866535433072
0
LINE
8
BLACK
6
CONTINUOUS
10
1.5636824015748032
20
2.6137866535433072
11
1.5575774409448819
21
2.6137866535433072
0
LINE
8
BLACK
6
CONTINUOUS
10
1.5575774409448819
20
2.6137866535433072
11
1.5548799606299213
21
2.6124379133858269
0
LINE
8
BLACK
6
CONTINUOUS
10
1.6062003543307086
20
2.619635433070866
11
1.6072647637795274
21
2.6191945275590549
0
LINE
8
BLACK
6
CONTINUOUS
10
1.6072647637795274
20
2.6191945275590549
11
1.6080794094488189
21
2.6183798818897639
0
LINE
8
BLACK
6
CONTINUOUS
10
1.6080794094488189
20
2.6183798818897639
11
1.60852031496063
21
2.6173154724409446
0
LINE
8
BLACK
6
CONTINUOUS
10
1.60852031496063
20
2.6173154724409446
11
1.60852031496063
21
2.6161633464566929
0
LINE
8
BLACK
6
CONTINUOUS
10
1.60852031496063
20
2.6161633464566929
11
1.6080794094488189
21
2.6150989370078741
0
LINE
8
BLACK
6
CONTINUOUS
10
1.6080794094488189
20
2.6150989370078741
11
1.6072647637795274
21
2.6142842913385826
0
LINE
8
BLACK
6
CONTINUOUS
10
1.6072647637795274
20
2.6142842913385826
11
1.6062003543307086
21
2.6138433858267716
0
LINE
8
BLACK
6
CONTINUOUS
10
1.6062003543307086
20
2.6138433858267716
11
1.6056242913385825
21
2.6137866535433072
0
LINE
8
BLACK
6
CONTINUOUS
10
1.6056242913385825
20
2.6137866535433072
11
1.5988222834645669
21
2.6137866535433072
0
LINE
8
BLACK
6
CONTINUOUS
10
1.5988222834645669
20
2.6137866535433072
11
1.5961248031496063
21
2.6124379133858269
0
LINE
8
BLACK
6
CONTINUOUS
10
1.5961248031496063
20
2.6124379133858269
11
1.594795590551181
21
2.6111087401574804
0
LINE
8
BLACK
6
CONTINUOUS
10
1.594795590551181
20
2.6111087401574804
11
1.591491968503937
21
2.6061532677165355
0
LINE
8
BLACK
6
CONTINUOUS
10
1.591491968503937
20
2.6061532677165355
11
1.5907626771653542
21
2.6032360629921261
0
LINE
8
BLACK
6
CONTINUOUS
10
1.5907626771653542
20
2.6032360629921261
11
1.5930551968503937
21
2.6043823228346454
0
LINE
8
BLACK
6
CONTINUOUS
10
1.5930551968503937
20
2.6043823228346454
11
1.5935957874015747
21
2.6045892125984254
0
LINE
8
BLACK
6
CONTINUOUS
10
1.5935957874015747
20
2.6045892125984254
11
1.5937016535433071
21
2.6045967716535432
0
LINE
8
BLACK
6
CONTINUOUS
10
1.5937016535433071
20
2.6045967716535432
11
1.5937996456692913
21
2.6046373228346456
0
LINE
8
BLACK
6
CONTINUOUS
10
1.5937996456692913
20
2.6046373228346456
11
1.5943757086614172
21
2.6046940551181104
0
LINE
8
BLACK
6
CONTINUOUS
10
1.5943757086614172
20
2.6046940551181104
11
1.6018747637795274
21
2.6046940551181104
0
LINE
8
BLACK
6
CONTINUOUS
10
1.6018747637795274
20
2.6046940551181104
11
1.6024508267716535
21
2.6046373228346456
0
LINE
8
BLACK
6
CONTINUOUS
10
1.6024508267716535
20
2.6046373228346456
11
1.6025488188976378
21
2.6045967322834644
0
LINE
8
BLACK
6
CONTINUOUS
10
1.6025488188976378
20
2.6045967322834644
11
1.6026546456692914
21
2.6045892125984254
0
LINE
8
BLACK
6
CONTINUOUS
10
1.6026546456692914
20
2.6045892125984254
11
1.6031952755905512
21
2.6043823228346454
0
LINE
8
BLACK
6
CONTINUOUS
10
1.6031952755905512
20
2.6043823228346454
11
1.6069448031496063
21
2.6025075590551179
0
LINE
8
BLACK
6
CONTINUOUS
10
1.6069448031496063
20
2.6025075590551179
11
1.6071927952755904
21
2.6023514960629921
0
LINE
8
BLACK
6
CONTINUOUS
10
1.6071927952755904
20
2.6023514960629921
11
1.6072647637795274
21
2.6023216535433069
0
LINE
8
BLACK
6
CONTINUOUS
10
1.6072647637795274
20
2.6023216535433069
11
1.6073457086614173
21
2.6022551968503937
0
LINE
8
BLACK
6
CONTINUOUS
10
1.6073457086614173
20
2.6022551968503937
11
1.6074346850393701
21
2.6021992125984252
0
LINE
8
BLACK
6
CONTINUOUS
10
1.6074346850393701
20
2.6021992125984252
11
1.6074858267716534
21
2.6021402362204724
0
LINE
8
BLACK
6
CONTINUOUS
10
1.6074858267716534
20
2.6021402362204724
11
1.6077122047244095
21
2.6019544488188977
0
LINE
8
BLACK
6
CONTINUOUS
10
1.6077122047244095
20
2.6019544488188977
11
1.609586968503937
21
2.6000796850393701
0
LINE
8
BLACK
6
CONTINUOUS
10
1.609586968503937
20
2.6000796850393701
11
1.609772716535433
21
2.5998533464566926
0
LINE
8
BLACK
6
CONTINUOUS
10
1.609772716535433
20
2.5998533464566926
11
1.6098317322834645
21
2.5998021653543306
0
LINE
8
BLACK
6
CONTINUOUS
10
1.6098317322834645
20
2.5998021653543306
11
1.6098876771653543
21
2.5997132283464568
0
LINE
8
BLACK
6
CONTINUOUS
10
1.6098876771653543
20
2.5997132283464568
11
1.6099541732283464
21
2.5996322440944883
0
LINE
8
BLACK
6
CONTINUOUS
10
1.6099541732283464
20
2.5996322440944883
11
1.6099839763779527
21
2.5995603149606299
0
LINE
8
BLACK
6
CONTINUOUS
10
1.6099839763779527
20
2.5995603149606299
11
1.6101400787401574
21
2.5993122834645668
0
LINE
8
BLACK
6
CONTINUOUS
10
1.6101400787401574
20
2.5993122834645668
11
1.612014842519685
21
2.5955627559055117
0
LINE
8
BLACK
6
CONTINUOUS
10
1.612014842519685
20
2.5955627559055117
11
1.6122217322834644
21
2.5950221653543308
0
LINE
8
BLACK
6
CONTINUOUS
10
1.6122217322834644
20
2.5950221653543308
11
1.612229251968504
21
2.5949162992125983
0
LINE
8
BLACK
6
CONTINUOUS
10
1.612229251968504
20
2.5949162992125983
11
1.6122698425196851
21
2.594818307086614
0
LINE
8
BLACK
6
CONTINUOUS
10
1.6122698425196851
20
2.594818307086614
11
1.6123265748031497
21
2.5942422440944881
0
LINE
8
BLACK
6
CONTINUOUS
10
1.6123265748031497
20
2.5942422440944881
11
1.6123265748031497
21
2.5848684251968503
0
LINE
8
BLACK
6
CONTINUOUS
10
1.6123265748031497
20
2.5848684251968503
11
1.6122698425196851
21
2.5842923622047245
0
LINE
8
BLACK
6
CONTINUOUS
10
1.6122698425196851
20
2.5842923622047245
11
1.612229251968504
21
2.584194409448819
0
LINE
8
BLACK
6
CONTINUOUS
10
1.612229251968504
20
2.584194409448819
11
1.6122217322834644
21
2.5840885039370076
0
LINE
8
BLACK
6
CONTINUOUS
10
1.6122217322834644
20
2.5840885039370076
11
1.612014842519685
21
2.5835479133858268
0
LINE
8
BLACK
6
CONTINUOUS
10
1.612014842519685
20
2.5835479133858268
11
1.6101400787401574
21
2.5797983858267717
0
LINE
8
BLACK
6
CONTINUOUS
10
1.6101400787401574
20
2.5797983858267717
11
1.6099840157480314
21
2.5795505118110236
0
LINE
8
BLACK
6
CONTINUOUS
10
1.6099840157480314
20
2.5795505118110236
11
1.6099542125984252
21
2.5794784645669289
0
LINE
8
BLACK
6
CONTINUOUS
10
1.6099542125984252
20
2.5794784645669289
11
1.6098876771653543
21
2.5793974409448817
0
LINE
8
BLACK
6
CONTINUOUS
10
1.6098876771653543
20
2.5793974409448817
11
1.6098317322834645
21
2.5793085039370078
0
LINE
8
BLACK
6
CONTINUOUS
10
1.6098317322834645
20
2.5793085039370078
11
1.609772716535433
21
2.5792573622047246
0
LINE
8
BLACK
6
CONTINUOUS
10
1.609772716535433
20
2.5792573622047246
11
1.609586968503937
21
2.5790309842519683
0
LINE
8
BLACK
6
CONTINUOUS
10
1.609586968503937
20
2.5790309842519683
11
1.6077122440944882
21
2.5771562204724408
0
LINE
8
BLACK
6
CONTINUOUS
10
1.6077122440944882
20
2.5771562204724408
11
1.6074858661417322
21
2.5769704724409448
0
LINE
8
BLACK
6
CONTINUOUS
10
1.6074858661417322
20
2.5769704724409448
11
1.6074346850393701
21
2.5769114173228345
0
LINE
8
BLACK
6
CONTINUOUS
10
1.6074346850393701
20
2.5769114173228345
11
1.6073457086614173
21
2.576855433070866
0
LINE
8
BLACK
6
CONTINUOUS
10
1.6073457086614173
20
2.576855433070866
11
1.6072647637795274
21
2.5767889763779528
0
LINE
8
BLACK
6
CONTINUOUS
10
1.6072647637795274
20
2.5767889763779528
11
1.6071927952755904
21
2.5767591732283464
0
LINE
8
BLACK
6
CONTINUOUS
10
1.6071927952755904
20
2.5767591732283464
11
1.6069448031496063
21
2.5766030708661418
0
LINE
8
BLACK
6
CONTINUOUS
10
1.6069448031496063
20
2.5766030708661418
11
1.6031952755905512
21
2.5747283070866143
0
LINE
8
BLACK
6
CONTINUOUS
10
1.6031952755905512
20
2.5747283070866143
11
1.6026546456692914
21
2.5745214173228348
0
LINE
8
BLACK
6
CONTINUOUS
10
1.6026546456692914
20
2.5745214173228348
11
1.6025488188976378
21
2.574513937007874
0
LINE
8
BLACK
6
CONTINUOUS
10
1.6025488188976378
20
2.574513937007874
11
1.6024508267716535
21
2.5744733070866141
0
LINE
8
BLACK
6
CONTINUOUS
10
1.6024508267716535
20
2.5744733070866141
11
1.6018747637795274
21
2.5744165748031493
0
LINE
8
BLACK
6
CONTINUOUS
10
1.6018747637795274
20
2.5744165748031493
11
1.5943757086614172
21
2.5744165748031493
0
LINE
8
BLACK
6
CONTINUOUS
10
1.5943757086614172
20
2.5744165748031493
11
1.5937996456692913
21
2.5744733070866141
0
LINE
8
BLACK
6
CONTINUOUS
10
1.5937996456692913
20
2.5744733070866141
11
1.5937016535433071
21
2.5745138976377953
0
LINE
8
BLACK
6
CONTINUOUS
10
1.5937016535433071
20
2.5745138976377953
11
1.5935957874015747
21
2.5745214173228348
0
LINE
8
BLACK
6
CONTINUOUS
10
1.5935957874015747
20
2.5745214173228348
11
1.5930551968503937
21
2.5747283070866143
0
LINE
8
BLACK
6
CONTINUOUS
10
1.5930551968503937
20
2.5747283070866143
11
1.5893056692913385
21
2.5766030708661418
0
LINE
8
BLACK
6
CONTINUOUS
10
1.5893056692913385
20
2.5766030708661418
11
1.5890576377952756
21
2.5767591732283464
0
LINE
8
BLACK
6
CONTINUOUS
10
1.5890576377952756
20
2.5767591732283464
11
1.5889857086614172
21
2.5767889763779528
0
LINE
8
BLACK
6
CONTINUOUS
10
1.5889857086614172
20
2.5767889763779528
11
1.5889047244094487
21
2.576855433070866
0
LINE
8
BLACK
6
CONTINUOUS
10
1.5889047244094487
20
2.576855433070866
11
1.5888157874015747
21
2.5769114173228345
0
LINE
8
BLACK
6
CONTINUOUS
10
1.5888157874015747
20
2.5769114173228345
11
1.5887645669291339
21
2.5769704724409448
0
LINE
8
BLACK
6
CONTINUOUS
10
1.5887645669291339
20
2.5769704724409448
11
1.5885382283464566
21
2.5771562204724408
0
LINE
8
BLACK
6
CONTINUOUS
10
1.5885382283464566
20
2.5771562204724408
11
1.5866634645669291
21
2.5790310236220471
0
LINE
8
BLACK
6
CONTINUOUS
10
1.5866634645669291
20
2.5790310236220471
11
1.5864777165354331
21
2.5792573622047246
0
LINE
8
BLACK
6
CONTINUOUS
10
1.5864777165354331
20
2.5792573622047246
11
1.5864187401574803
21
2.5793085039370078
0
LINE
8
BLACK
6
CONTINUOUS
10
1.5864187401574803
20
2.5793085039370078
11
1.5863627559055118
21
2.5793974409448817
0
LINE
8
BLACK
6
CONTINUOUS
10
1.5863627559055118
20
2.5793974409448817
11
1.5862962598425197
21
2.5794784645669289
0
LINE
8
BLACK
6
CONTINUOUS
10
1.5862962598425197
20
2.5794784645669289
11
1.5862664173228347
21
2.5795505118110236
0
LINE
8
BLACK
6
CONTINUOUS
10
1.5862664173228347
20
2.5795505118110236
11
1.5861103937007874
21
2.5797983858267717
0
LINE
8
BLACK
6
CONTINUOUS
10
1.5861103937007874
20
2.5797983858267717
11
1.5842356299212599
21
2.5835479133858268
0
LINE
8
BLACK
6
CONTINUOUS
10
1.5842356299212599
20
2.5835479133858268
11
1.5840287401574802
21
2.5840885433070864
0
LINE
8
BLACK
6
CONTINUOUS
10
1.5840287401574802
20
2.5840885433070864
11
1.5840212204724409
21
2.5841943700787402
0
LINE
8
BLACK
6
CONTINUOUS
10
1.5840212204724409
20
2.5841943700787402
11
1.5839806299212598
21
2.5842923622047245
0
LINE
8
BLACK
6
CONTINUOUS
10
1.5839806299212598
20
2.5842923622047245
11
1.5839238976377952
21
2.5848684251968503
0
LINE
8
BLACK
6
CONTINUOUS
10
1.5839238976377952
20
2.5848684251968503
11
1.5839238976377952
21
2.5998665354330708
0
LINE
8
BLACK
6
CONTINUOUS
10
1.5839238976377952
20
2.5998665354330708
11
1.583933779527559
21
2.5999670866141731
0
LINE
8
BLACK
6
CONTINUOUS
10
1.583933779527559
20
2.5999670866141731
11
1.5839274015748031
21
2.6000100787401572
0
LINE
8
BLACK
6
CONTINUOUS
10
1.5839274015748031
20
2.6000100787401572
11
1.583959251968504
21
2.6002255905511809
0
LINE
8
BLACK
6
CONTINUOUS
10
1.583959251968504
20
2.6002255905511809
11
1.5839806299212598
21
2.6004425984251966
0
LINE
8
BLACK
6
CONTINUOUS
10
1.5839806299212598
20
2.6004425984251966
11
1.5839972440944881
21
2.6004828346456694
0
LINE
8
BLACK
6
CONTINUOUS
10
1.5839972440944881
20
2.6004828346456694
11
1.5840120472440944
21
2.6005826771653542
0
LINE
8
BLACK
6
CONTINUOUS
10
1.5840120472440944
20
2.6005826771653542
11
1.5858868110236219
21
2.6080817322834644
0
LINE
8
BLACK
6
CONTINUOUS
10
1.5858868110236219
20
2.6080817322834644
11
1.5860080708661417
21
2.6084212204724411
0
LINE
8
BLACK
6
CONTINUOUS
10
1.5860080708661417
20
2.6084212204724411
11
1.5860222440944882
21
2.6084927165354328
0
LINE
8
BLACK
6
CONTINUOUS
10
1.5860222440944882
20
2.6084927165354328
11
1.5860568110236219
21
2.6085575984251967
0
LINE
8
BLACK
6
CONTINUOUS
10
1.5860568110236219
20
2.6085575984251967
11
1.5860815748031496
21
2.6086268503937009
0
LINE
8
BLACK
6
CONTINUOUS
10
1.5860815748031496
20
2.6086268503937009
11
1.586125
21
2.608685472440945
0
LINE
8
BLACK
6
CONTINUOUS
10
1.586125
20
2.608685472440945
11
1.5862945669291337
21
2.6090035039370076
0
LINE
8
BLACK
6
CONTINUOUS
10
1.5862945669291337
20
2.6090035039370076
11
1.5900440944881888
21
2.6146277952755903
0
LINE
8
BLACK
6
CONTINUOUS
10
1.5900440944881888
20
2.6146277952755903
11
1.5900454330708662
21
2.6146294881889762
0
LINE
8
BLACK
6
CONTINUOUS
10
1.5900454330708662
20
2.6146294881889762
11
1.5900458267716535
21
2.6146303543307088
0
LINE
8
BLACK
6
CONTINUOUS
10
1.5900458267716535
20
2.6146303543307088
11
1.5902225196850392
21
2.6148456692913387
0
LINE
8
BLACK
6
CONTINUOUS
10
1.5902225196850392
20
2.6148456692913387
11
1.5904108661417322
21
2.6150756299212596
0
LINE
8
BLACK
6
CONTINUOUS
10
1.5904108661417322
20
2.6150756299212596
11
1.5904116929133858
21
2.6150762204724409
0
LINE
8
BLACK
6
CONTINUOUS
10
1.5904116929133858
20
2.6150762204724409
11
1.5904130314960629
21
2.6150777952755906
0
LINE
8
BLACK
6
CONTINUOUS
10
1.5904130314960629
20
2.6150777952755906
11
1.5922877952755905
21
2.6169525590551181
0
LINE
8
BLACK
6
CONTINUOUS
10
1.5922877952755905
20
2.6169525590551181
11
1.5925141338582678
21
2.6171383464566929
0
LINE
8
BLACK
6
CONTINUOUS
10
1.5925141338582678
20
2.6171383464566929
11
1.5925653149606298
21
2.6171973228346457
0
LINE
8
BLACK
6
CONTINUOUS
10
1.5925653149606298
20
2.6171973228346457
11
1.5926542519685039
21
2.6172533070866142
0
LINE
8
BLACK
6
CONTINUOUS
10
1.5926542519685039
20
2.6172533070866142
11
1.5927352362204723
21
2.6173197637795274
0
LINE
8
BLACK
6
CONTINUOUS
10
1.5927352362204723
20
2.6173197637795274
11
1.5928071653543308
21
2.6173496062992125
0
LINE
8
BLACK
6
CONTINUOUS
10
1.5928071653543308
20
2.6173496062992125
11
1.5930551968503937
21
2.6175056692913383
0
LINE
8
BLACK
6
CONTINUOUS
10
1.5930551968503937
20
2.6175056692913383
11
1.5968047244094488
21
2.6193804330708659
0
LINE
8
BLACK
6
CONTINUOUS
10
1.5968047244094488
20
2.6193804330708659
11
1.5973453149606298
21
2.6195873228346458
0
LINE
8
BLACK
6
CONTINUOUS
10
1.5973453149606298
20
2.6195873228346458
11
1.5974511811023622
21
2.6195948818897636
0
LINE
8
BLACK
6
CONTINUOUS
10
1.5974511811023622
20
2.6195948818897636
11
1.5975491732283464
21
2.619635433070866
0
LINE
8
BLACK
6
CONTINUOUS
10
1.5975491732283464
20
2.619635433070866
11
1.5981252362204723
21
2.6196921653543308
0
LINE
8
BLACK
6
CONTINUOUS
10
1.5981252362204723
20
2.6196921653543308
11
1.6056242913385825
21
2.6196921653543308
0
LINE
8
BLACK
6
CONTINUOUS
10
1.6056242913385825
20
2.6196921653543308
11
1.6062003543307086
21
2.619635433070866
0
LINE
8
BLACK
6
CONTINUOUS
10
1.5923752755905511
20
2.5974398031496064
11
1.5911781496062991
21
2.5962426771653542
0
LINE
8
BLACK
6
CONTINUOUS
10
1.5911781496062991
20
2.5962426771653542
11
1.5898294094488188
21
2.5935451968503935
0
LINE
8
BLACK
6
CONTINUOUS
10
1.5898294094488188
20
2.5935451968503935
11
1.5898294094488188
21
2.5855654724409449
0
LINE
8
BLACK
6
CONTINUOUS
10
1.5898294094488188
20
2.5855654724409449
11
1.5911781496062991
21
2.5828679921259843
0
LINE
8
BLACK
6
CONTINUOUS
10
1.5911781496062991
20
2.5828679921259843
11
1.5923752755905511
21
2.5816708267716533
0
LINE
8
BLACK
6
CONTINUOUS
10
1.5923752755905511
20
2.5816708267716533
11
1.5950727559055118
21
2.5803220866141729
0
LINE
8
BLACK
6
CONTINUOUS
10
1.5950727559055118
20
2.5803220866141729
11
1.6011777165354331
21
2.5803220866141729
0
LINE
8
BLACK
6
CONTINUOUS
10
1.6011777165354331
20
2.5803220866141729
11
1.603875157480315
21
2.5816708267716533
0
LINE
8
BLACK
6
CONTINUOUS
10
1.603875157480315
20
2.5816708267716533
11
1.605072283464567
21
2.5828679921259843
0
LINE
8
BLACK
6
CONTINUOUS
10
1.605072283464567
20
2.5828679921259843
11
1.6064210629921261
21
2.5855654724409449
0
LINE
8
BLACK
6
CONTINUOUS
10
1.6064210629921261
20
2.5855654724409449
11
1.6064210629921261
21
2.5935451968503935
0
LINE
8
BLACK
6
CONTINUOUS
10
1.6064210629921261
20
2.5935451968503935
11
1.6050723228346457
21
2.5962426771653542
0
LINE
8
BLACK
6
CONTINUOUS
10
1.6050723228346457
20
2.5962426771653542
11
1.6038751968503937
21
2.5974398031496064
0
LINE
8
BLACK
6
CONTINUOUS
10
1.6038751968503937
20
2.5974398031496064
11
1.6011777165354331
21
2.5987885433070868
0
LINE
8
BLACK
6
CONTINUOUS
10
1.6011777165354331
20
2.5987885433070868
11
1.5950727559055118
21
2.5987885433070868
0
LINE
8
BLACK
6
CONTINUOUS
10
1.5950727559055118
20
2.5987885433070868
11
1.5923752755905511
21
2.5974398031496064
0
LINE
8
BLACK
6
CONTINUOUS
10
1.5334285826771654
20
2.5838724015748031
11
1.5341488976377953
21
2.5835740551181101
0
LINE
8
BLACK
6
CONTINUOUS
10
1.5341488976377953
20
2.5835740551181101
11
1.534148937007874
21
2.5835740157480314
0
LINE
8
BLACK
6
CONTINUOUS
10
1.534148937007874
20
2.5835740157480314
11
1.5345964173228346
21
2.5832067716535434
0
LINE
8
BLACK
6
CONTINUOUS
10
1.5345964173228346
20
2.5832067716535434
11
1.5364711417322834
21
2.5813320078740158
0
LINE
8
BLACK
6
CONTINUOUS
10
1.5364711417322834
20
2.5813320078740158
11
1.5368383858267716
21
2.5808845275590548
0
LINE
8
BLACK
6
CONTINUOUS
10
1.5368383858267716
20
2.5808845275590548
11
1.5372105118110235
21
2.5799861023622048
0
LINE
8
BLACK
6
CONTINUOUS
10
1.5372105118110235
20
2.5799861023622048
11
1.5372792519685039
21
2.579820118110236
0
LINE
8
BLACK
6
CONTINUOUS
10
1.5372792519685039
20
2.579820118110236
11
1.5372792519685039
21
2.5786680314960631
0
LINE
8
BLACK
6
CONTINUOUS
10
1.5372792519685039
20
2.5786680314960631
11
1.5368383464566928
21
2.5776036220472442
0
LINE
8
BLACK
6
CONTINUOUS
10
1.5368383464566928
20
2.5776036220472442
11
1.5364711417322834
21
2.577156181102362
0
LINE
8
BLACK
6
CONTINUOUS
10
1.5364711417322834
20
2.577156181102362
11
1.5345963779527558
21
2.5752814173228344
0
LINE
8
BLACK
6
CONTINUOUS
10
1.5345963779527558
20
2.5752814173228344
11
1.534148937007874
21
2.5749142125984252
0
LINE
8
BLACK
6
CONTINUOUS
10
1.534148937007874
20
2.5749142125984252
11
1.533084527559055
21
2.5744733070866141
0
LINE
8
BLACK
6
CONTINUOUS
10
1.533084527559055
20
2.5744733070866141
11
1.5330844881889762
21
2.5744733070866141
0
LINE
8
BLACK
6
CONTINUOUS
10
1.5330844881889762
20
2.5744733070866141
11
1.5319324409448818
21
2.5744733070866141
0
LINE
8
BLACK
6
CONTINUOUS
10
1.5319324409448818
20
2.5744733070866141
11
1.531932401574803
21
2.5744733070866141
0
LINE
8
BLACK
6
CONTINUOUS
10
1.531932401574803
20
2.5744733070866141
11
1.5308679921259842
21
2.5749142125984252
0
LINE
8
BLACK
6
CONTINUOUS
10
1.5308679921259842
20
2.5749142125984252
11
1.5304205511811024
21
2.5752814173228344
0
LINE
8
BLACK
6
CONTINUOUS
10
1.5304205511811024
20
2.5752814173228344
11
1.5285457874015749
21
2.577156181102362
0
LINE
8
BLACK
6
CONTINUOUS
10
1.5285457874015749
20
2.577156181102362
11
1.5281785826771652
21
2.5776036220472442
0
LINE
8
BLACK
6
CONTINUOUS
10
1.5281785826771652
20
2.5776036220472442
11
1.5279359842519684
21
2.5781893307086614
0
LINE
8
BLACK
6
CONTINUOUS
10
1.5279359842519684
20
2.5781893307086614
11
1.5277376771653544
21
2.5786680314960631
0
LINE
8
BLACK
6
CONTINUOUS
10
1.5277376771653544
20
2.5786680314960631
11
1.5277376771653544
21
2.579820118110236
0
LINE
8
BLACK
6
CONTINUOUS
10
1.5277376771653544
20
2.579820118110236
11
1.5281785433070867
21
2.5808845275590548
0
LINE
8
BLACK
6
CONTINUOUS
10
1.5281785433070867
20
2.5808845275590548
11
1.5285457480314961
21
2.5813319685039371
0
LINE
8
BLACK
6
CONTINUOUS
10
1.5285457480314961
20
2.5813319685039371
11
1.5304205118110237
21
2.5832067716535434
0
LINE
8
BLACK
6
CONTINUOUS
10
1.5304205118110237
20
2.5832067716535434
11
1.5308679921259842
21
2.5835740157480314
0
LINE
8
BLACK
6
CONTINUOUS
10
1.5308679921259842
20
2.5835740157480314
11
1.530868031496063
21
2.5835740551181101
0
LINE
8
BLACK
6
CONTINUOUS
10
1.530868031496063
20
2.5835740551181101
11
1.5315883464566928
21
2.5838724015748031
0
LINE
8
BLACK
6
CONTINUOUS
10
1.5315883464566928
20
2.5838724015748031
11
1.531932401574803
21
2.5840149212598424
0
LINE
8
BLACK
6
CONTINUOUS
10
1.531932401574803
20
2.5840149212598424
11
1.5330844881889762
21
2.5840149212598424
0
LINE
8
BLACK
6
CONTINUOUS
10
1.5330844881889762
20
2.5840149212598424
11
1.533084527559055
21
2.5840149212598424
0
LINE
8
BLACK
6
CONTINUOUS
10
1.533084527559055
20
2.5840149212598424
11
1.5334285826771654
21
2.5838724015748031
0
LINE
8
BLACK
6
CONTINUOUS
10
1.6680676377952754
20
2.6065120866141731
11
1.6681656299212597
21
2.606471496062992
0
LINE
8
BLACK
6
CONTINUOUS
10
1.6681656299212597
20
2.606471496062992
11
1.6682714566929133
21
2.6064639763779529
0
LINE
8
BLACK
6
CONTINUOUS
10
1.6682714566929133
20
2.6064639763779529
11
1.6688120866141731
21
2.606257086614173
0
LINE
8
BLACK
6
CONTINUOUS
10
1.6688120866141731
20
2.606257086614173
11
1.6725616141732282
21
2.6043823228346454
0
LINE
8
BLACK
6
CONTINUOUS
10
1.6725616141732282
20
2.6043823228346454
11
1.6726579527559056
21
2.6043216929133859
0
LINE
8
BLACK
6
CONTINUOUS
10
1.6726579527559056
20
2.6043216929133859
11
1.6727033858267717
21
2.604306535433071
0
LINE
8
BLACK
6
CONTINUOUS
10
1.6727033858267717
20
2.604306535433071
11
1.6727599212598425
21
2.6042575196850395
0
LINE
8
BLACK
6
CONTINUOUS
10
1.6727599212598425
20
2.6042575196850395
11
1.6730514960629921
21
2.6040739763779528
0
LINE
8
BLACK
6
CONTINUOUS
10
1.6730514960629921
20
2.6040739763779528
11
1.6731158661417322
21
2.6039997637795276
0
LINE
8
BLACK
6
CONTINUOUS
10
1.6731158661417322
20
2.6039997637795276
11
1.6731802362204724
21
2.6040739763779528
0
LINE
8
BLACK
6
CONTINUOUS
10
1.6731802362204724
20
2.6040739763779528
11
1.6734717716535432
21
2.6042575196850395
0
LINE
8
BLACK
6
CONTINUOUS
10
1.6734717716535432
20
2.6042575196850395
11
1.6735283464566928
21
2.604306535433071
0
LINE
8
BLACK
6
CONTINUOUS
10
1.6735283464566928
20
2.604306535433071
11
1.6735737401574802
21
2.6043216929133859
0
LINE
8
BLACK
6
CONTINUOUS
10
1.6735737401574802
20
2.6043216929133859
11
1.6736701181102362
21
2.6043823228346454
0
LINE
8
BLACK
6
CONTINUOUS
10
1.6736701181102362
20
2.6043823228346454
11
1.6774196456692914
21
2.606257086614173
0
LINE
8
BLACK
6
CONTINUOUS
10
1.6774196456692914
20
2.606257086614173
11
1.6779602362204724
21
2.6064639763779529
0
LINE
8
BLACK
6
CONTINUOUS
10
1.6779602362204724
20
2.6064639763779529
11
1.6780661023622048
21
2.6064715354330708
0
LINE
8
BLACK
6
CONTINUOUS
10
1.6780661023622048
20
2.6064715354330708
11
1.678164094488189
21
2.6065120866141731
0
LINE
8
BLACK
6
CONTINUOUS
10
1.678164094488189
20
2.6065120866141731
11
1.6787401574803149
21
2.6065688188976379
0
LINE
8
BLACK
6
CONTINUOUS
10
1.6787401574803149
20
2.6065688188976379
11
1.6843644488188976
21
2.6065688188976379
0
LINE
8
BLACK
6
CONTINUOUS
10
1.6843644488188976
20
2.6065688188976379
11
1.6849405118110237
21
2.6065120866141731
0
LINE
8
BLACK
6
CONTINUOUS
10
1.6849405118110237
20
2.6065120866141731
11
1.6850385039370079
21
2.606471496062992
0
LINE
8
BLACK
6
CONTINUOUS
10
1.6850385039370079
20
2.606471496062992
11
1.6851443307086613
21
2.6064639763779529
0
LINE
8
BLACK
6
CONTINUOUS
10
1.6851443307086613
20
2.6064639763779529
11
1.6856849606299211
21
2.606257086614173
0
LINE
8
BLACK
6
CONTINUOUS
10
1.6856849606299211
20
2.606257086614173
11
1.689434527559055
21
2.6043823228346454
0
LINE
8
BLACK
6
CONTINUOUS
10
1.689434527559055
20
2.6043823228346454
11
1.6895308267716536
21
2.6043216929133859
0
LINE
8
BLACK
6
CONTINUOUS
10
1.6895308267716536
20
2.6043216929133859
11
1.6895762992125984
21
2.604306535433071
0
LINE
8
BLACK
6
CONTINUOUS
10
1.6895762992125984
20
2.604306535433071
11
1.689632874015748
21
2.6042574803149607
0
LINE
8
BLACK
6
CONTINUOUS
10
1.689632874015748
20
2.6042574803149607
11
1.6899243700787401
21
2.6040739763779528
0
LINE
8
BLACK
6
CONTINUOUS
10
1.6899243700787401
20
2.6040739763779528
11
1.6901668503937008
21
2.6037943700787403
0
LINE
8
BLACK
6
CONTINUOUS
10
1.6901668503937008
20
2.6037943700787403
11
1.6904466929133859
21
2.6035516929133857
0
LINE
8
BLACK
6
CONTINUOUS
10
1.6904466929133859
20
2.6035516929133857
11
1.6906301968503936
21
2.6032601574803147
0
LINE
8
BLACK
6
CONTINUOUS
10
1.6906301968503936
20
2.6032601574803147
11
1.6906792519685039
21
2.6032035826771653
0
LINE
8
BLACK
6
CONTINUOUS
10
1.6906792519685039
20
2.6032035826771653
11
1.69069437007874
21
2.6031581889763777
0
LINE
8
BLACK
6
CONTINUOUS
10
1.69069437007874
20
2.6031581889763777
11
1.6907550393700788
21
2.6030618110236219
0
LINE
8
BLACK
6
CONTINUOUS
10
1.6907550393700788
20
2.6030618110236219
11
1.6926298031496063
21
2.5993122834645668
0
LINE
8
BLACK
6
CONTINUOUS
10
1.6926298031496063
20
2.5993122834645668
11
1.6928366929133858
21
2.5987716929133859
0
LINE
8
BLACK
6
CONTINUOUS
10
1.6928366929133858
20
2.5987716929133859
11
1.6928442125984251
21
2.5986658267716534
0
LINE
8
BLACK
6
CONTINUOUS
10
1.6928442125984251
20
2.5986658267716534
11
1.6928848031496062
21
2.5985678346456691
0
LINE
8
BLACK
6
CONTINUOUS
10
1.6928848031496062
20
2.5985678346456691
11
1.6929415354330708
21
2.5979917716535432
0
LINE
8
BLACK
6
CONTINUOUS
10
1.6929415354330708
20
2.5979917716535432
11
1.6929415354330708
21
2.5773693307086614
0
LINE
8
BLACK
6
CONTINUOUS
10
1.6929415354330708
20
2.5773693307086614
11
1.6928848031496062
21
2.5767932677165355
0
LINE
8
BLACK
6
CONTINUOUS
10
1.6928848031496062
20
2.5767932677165355
11
1.6924438976377953
21
2.5757288582677167
0
LINE
8
BLACK
6
CONTINUOUS
10
1.6924438976377953
20
2.5757288582677167
11
1.6916292519685039
21
2.5749142125984252
0
LINE
8
BLACK
6
CONTINUOUS
10
1.6916292519685039
20
2.5749142125984252
11
1.6905648425196851
21
2.5744733070866141
0
LINE
8
BLACK
6
CONTINUOUS
10
1.6905648425196851
20
2.5744733070866141
11
1.6894127165354331
21
2.5744733070866141
0
LINE
8
BLACK
6
CONTINUOUS
10
1.6894127165354331
20
2.5744733070866141
11
1.6883483070866141
21
2.5749142125984252
0
LINE
8
BLACK
6
CONTINUOUS
10
1.6883483070866141
20
2.5749142125984252
11
1.6875336614173229
21
2.5757288582677167
0
LINE
8
BLACK
6
CONTINUOUS
10
1.6875336614173229
20
2.5757288582677167
11
1.6870927559055118
21
2.5767932677165355
0
LINE
8
BLACK
6
CONTINUOUS
10
1.6870927559055118
20
2.5767932677165355
11
1.6870360236220472
21
2.5773693307086614
0
LINE
8
BLACK
6
CONTINUOUS
10
1.6870360236220472
20
2.5773693307086614
11
1.6870360236220472
21
2.5972947244094486
0
LINE
8
BLACK
6
CONTINUOUS
10
1.6870360236220472
20
2.5972947244094486
11
1.6859131496062991
21
2.5995404724409448
0
LINE
8
BLACK
6
CONTINUOUS
10
1.6859131496062991
20
2.5995404724409448
11
1.6836674015748032
21
2.6006633070866143
0
LINE
8
BLACK
6
CONTINUOUS
10
1.6836674015748032
20
2.6006633070866143
11
1.6794372047244095
21
2.6006633070866143
0
LINE
8
BLACK
6
CONTINUOUS
10
1.6794372047244095
20
2.6006633070866143
11
1.6771914566929134
21
2.5995404724409448
0
LINE
8
BLACK
6
CONTINUOUS
10
1.6771914566929134
20
2.5995404724409448
11
1.676068622047244
21
2.5972947244094486
0
LINE
8
BLACK
6
CONTINUOUS
10
1.676068622047244
20
2.5972947244094486
11
1.676068622047244
21
2.5773693307086614
0
LINE
8
BLACK
6
CONTINUOUS
10
1.676068622047244
20
2.5773693307086614
11
1.6760118897637795
21
2.5767932677165355
0
LINE
8
BLACK
6
CONTINUOUS
10
1.6760118897637795
20
2.5767932677165355
11
1.6755709842519684
21
2.5757288582677167
0
LINE
8
BLACK
6
CONTINUOUS
10
1.6755709842519684
20
2.5757288582677167
11
1.6747563385826771
21
2.5749142125984252
0
LINE
8
BLACK
6
CONTINUOUS
10
1.6747563385826771
20
2.5749142125984252
11
1.6736919291338583
21
2.5744733070866141
0
LINE
8
BLACK
6
CONTINUOUS
10
1.6736919291338583
20
2.5744733070866141
11
1.6725398031496062
21
2.5744733070866141
0
LINE
8
BLACK
6
CONTINUOUS
10
1.6725398031496062
20
2.5744733070866141
11
1.6714753937007873
21
2.5749142125984252
0
LINE
8
BLACK
6
CONTINUOUS
10
1.6714753937007873
20
2.5749142125984252
11
1.6706607480314961
21
2.5757288582677167
0
LINE
8
BLACK
6
CONTINUOUS
10
1.6706607480314961
20
2.5757288582677167
11
1.670219842519685
21
2.5767932677165355
0
LINE
8
BLACK
6
CONTINUOUS
10
1.670219842519685
20
2.5767932677165355
11
1.6701631102362204
21
2.5773693307086614
0
LINE
8
BLACK
6
CONTINUOUS
10
1.6701631102362204
20
2.5773693307086614
11
1.6701631102362204
21
2.5972947244094486
0
LINE
8
BLACK
6
CONTINUOUS
10
1.6701631102362204
20
2.5972947244094486
11
1.6690402362204724
21
2.5995404724409448
0
LINE
8
BLACK
6
CONTINUOUS
10
1.6690402362204724
20
2.5995404724409448
11
1.666794527559055
21
2.6006633070866143
0
LINE
8
BLACK
6
CONTINUOUS
10
1.666794527559055
20
2.6006633070866143
11
1.6625643307086613
21
2.6006633070866143
0
LINE
8
BLACK
6
CONTINUOUS
10
1.6625643307086613
20
2.6006633070866143
11
1.6598668503937009
21
2.599314566929134
0
LINE
8
BLACK
6
CONTINUOUS
10
1.6598668503937009
20
2.599314566929134
11
1.6591957480314961
21
2.598643464566929
0
LINE
8
BLACK
6
CONTINUOUS
10
1.6591957480314961
20
2.598643464566929
11
1.6591957480314961
21
2.5773693307086614
0
LINE
8
BLACK
6
CONTINUOUS
10
1.6591957480314961
20
2.5773693307086614
11
1.6591390157480315
21
2.5767932677165355
0
LINE
8
BLACK
6
CONTINUOUS
10
1.6591390157480315
20
2.5767932677165355
11
1.6586981102362204
21
2.5757288582677167
0
LINE
8
BLACK
6
CONTINUOUS
10
1.6586981102362204
20
2.5757288582677167
11
1.6578834645669291
21
2.5749142125984252
0
LINE
8
BLACK
6
CONTINUOUS
10
1.6578834645669291
20
2.5749142125984252
11
1.6568190551181101
21
2.5744733070866141
0
LINE
8
BLACK
6
CONTINUOUS
10
1.6568190551181101
20
2.5744733070866141
11
1.6556669291338582
21
2.5744733070866141
0
LINE
8
BLACK
6
CONTINUOUS
10
1.6556669291338582
20
2.5744733070866141
11
1.6546025196850394
21
2.5749142125984252
0
LINE
8
BLACK
6
CONTINUOUS
10
1.6546025196850394
20
2.5749142125984252
11
1.6537878740157479
21
2.5757288582677167
0
LINE
8
BLACK
6
CONTINUOUS
10
1.6537878740157479
20
2.5757288582677167
11
1.653346968503937
21
2.5767932677165355
0
LINE
8
BLACK
6
CONTINUOUS
10
1.653346968503937
20
2.5767932677165355
11
1.6532902362204724
21
2.5773693307086614
0
LINE
8
BLACK
6
CONTINUOUS
10
1.6532902362204724
20
2.5773693307086614
11
1.6532902362204724
21
2.6036160629921259
0
LINE
8
BLACK
6
CONTINUOUS
10
1.6532902362204724
20
2.6036160629921259
11
1.653346968503937
21
2.6041921259842518
0
LINE
8
BLACK
6
CONTINUOUS
10
1.653346968503937
20
2.6041921259842518
11
1.6537878740157479
21
2.605256535433071
0
LINE
8
BLACK
6
CONTINUOUS
10
1.6537878740157479
20
2.605256535433071
11
1.6546025196850394
21
2.606071181102362
0
LINE
8
BLACK
6
CONTINUOUS
10
1.6546025196850394
20
2.606071181102362
11
1.6556669291338582
21
2.6065120866141731
0
LINE
8
BLACK
6
CONTINUOUS
10
1.6556669291338582
20
2.6065120866141731
11
1.6568190551181101
21
2.6065120866141731
0
LINE
8
BLACK
6
CONTINUOUS
10
1.6568190551181101
20
2.6065120866141731
11
1.6578834645669291
21
2.606071181102362
0
LINE
8
BLACK
6
CONTINUOUS
10
1.6578834645669291
20
2.606071181102362
11
1.6586472834645669
21
2.6053073622047243
0
LINE
8
BLACK
6
CONTINUOUS
10
1.6586472834645669
20
2.6053073622047243
11
1.6605467716535434
21
2.606257086614173
0
LINE
8
BLACK
6
CONTINUOUS
10
1.6605467716535434
20
2.606257086614173
11
1.6610873622047244
21
2.6064639763779529
0
LINE
8
BLACK
6
CONTINUOUS
10
1.6610873622047244
20
2.6064639763779529
11
1.6611932283464566
21
2.6064715354330708
0
LINE
8
BLACK
6
CONTINUOUS
10
1.6611932283464566
20
2.6064715354330708
11
1.6612912204724408
21
2.6065120866141731
0
LINE
8
BLACK
6
CONTINUOUS
10
1.6612912204724408
20
2.6065120866141731
11
1.6618672834645669
21
2.6065688188976379
0
LINE
8
BLACK
6
CONTINUOUS
10
1.6618672834645669
20
2.6065688188976379
11
1.6674915748031496
21
2.6065688188976379
0
LINE
8
BLACK
6
CONTINUOUS
10
1.6674915748031496
20
2.6065688188976379
11
1.6680676377952754
21
2.6065120866141731
0
LINE
8
BLACK
6
CONTINUOUS
10
1.720561062992126
20
2.6065120866141731
11
1.7206590551181102
21
2.606471496062992
0
LINE
8
BLACK
6
CONTINUOUS
10
1.7206590551181102
20
2.606471496062992
11
1.7207648818897638
21
2.6064639763779529
0
LINE
8
BLACK
6
CONTINUOUS
10
1.7207648818897638
20
2.6064639763779529
11
1.7213055118110236
21
2.606257086614173
0
LINE
8
BLACK
6
CONTINUOUS
10
1.7213055118110236
20
2.606257086614173
11
1.7250550393700788
21
2.6043823228346454
0
LINE
8
BLACK
6
CONTINUOUS
10
1.7250550393700788
20
2.6043823228346454
11
1.7251513779527559
21
2.6043216929133859
0
LINE
8
BLACK
6
CONTINUOUS
10
1.7251513779527559
20
2.6043216929133859
11
1.725196811023622
21
2.604306535433071
0
LINE
8
BLACK
6
CONTINUOUS
10
1.725196811023622
20
2.604306535433071
11
1.7252533464566928
21
2.6042575196850395
0
LINE
8
BLACK
6
CONTINUOUS
10
1.7252533464566928
20
2.6042575196850395
11
1.7255449212598424
21
2.6040739763779528
0
LINE
8
BLACK
6
CONTINUOUS
10
1.7255449212598424
20
2.6040739763779528
11
1.7256092913385825
21
2.6039997637795276
0
LINE
8
BLACK
6
CONTINUOUS
10
1.7256092913385825
20
2.6039997637795276
11
1.7256736614173227
21
2.6040739763779528
0
LINE
8
BLACK
6
CONTINUOUS
10
1.7256736614173227
20
2.6040739763779528
11
1.7259651968503937
21
2.6042575196850395
0
LINE
8
BLACK
6
CONTINUOUS
10
1.7259651968503937
20
2.6042575196850395
11
1.7260217716535433
21
2.604306535433071
0
LINE
8
BLACK
6
CONTINUOUS
10
1.7260217716535433
20
2.604306535433071
11
1.7260671653543307
21
2.6043216929133859
0
LINE
8
BLACK
6
CONTINUOUS
10
1.7260671653543307
20
2.6043216929133859
11
1.7261635433070865
21
2.6043823228346454
0
LINE
8
BLACK
6
CONTINUOUS
10
1.7261635433070865
20
2.6043823228346454
11
1.7299130708661417
21
2.606257086614173
0
LINE
8
BLACK
6
CONTINUOUS
10
1.7299130708661417
20
2.606257086614173
11
1.7304536614173227
21
2.6064639763779529
0
LINE
8
BLACK
6
CONTINUOUS
10
1.7304536614173227
20
2.6064639763779529
11
1.7305595275590551
21
2.6064715354330708
0
LINE
8
BLACK
6
CONTINUOUS
10
1.7305595275590551
20
2.6064715354330708
11
1.7306575196850393
21
2.6065120866141731
0
LINE
8
BLACK
6
CONTINUOUS
10
1.7306575196850393
20
2.6065120866141731
11
1.7312335826771652
21
2.6065688188976379
0
LINE
8
BLACK
6
CONTINUOUS
10
1.7312335826771652
20
2.6065688188976379
11
1.7368578740157481
21
2.6065688188976379
0
LINE
8
BLACK
6
CONTINUOUS
10
1.7368578740157481
20
2.6065688188976379
11
1.737433937007874
21
2.6065120866141731
0
LINE
8
BLACK
6
CONTINUOUS
10
1.737433937007874
20
2.6065120866141731
11
1.7375319291338582
21
2.606471496062992
0
LINE
8
BLACK
6
CONTINUOUS
10
1.7375319291338582
20
2.606471496062992
11
1.7376377559055118
21
2.6064639763779529
0
LINE
8
BLACK
6
CONTINUOUS
10
1.7376377559055118
20
2.6064639763779529
11
1.7381783858267716
21
2.606257086614173
0
LINE
8
BLACK
6
CONTINUOUS
10
1.7381783858267716
20
2.606257086614173
11
1.7419279527559055
21
2.6043823228346454
0
LINE
8
BLACK
6
CONTINUOUS
10
1.7419279527559055
20
2.6043823228346454
11
1.7420242519685039
21
2.6043216929133859
0
LINE
8
BLACK
6
CONTINUOUS
10
1.7420242519685039
20
2.6043216929133859
11
1.7420697244094487
21
2.604306535433071
0
LINE
8
BLACK
6
CONTINUOUS
10
1.7420697244094487
20
2.604306535433071
11
1.7421262992125983
21
2.6042574803149607
0
LINE
8
BLACK
6
CONTINUOUS
10
1.7421262992125983
20
2.6042574803149607
11
1.7424177952755906
21
2.6040739763779528
0
LINE
8
BLACK
6
CONTINUOUS
10
1.7424177952755906
20
2.6040739763779528
11
1.7426602755905511
21
2.6037943700787403
0
LINE
8
BLACK
6
CONTINUOUS
10
1.7426602755905511
20
2.6037943700787403
11
1.7429401181102362
21
2.6035516929133857
0
LINE
8
BLACK
6
CONTINUOUS
10
1.7429401181102362
20
2.6035516929133857
11
1.7431236220472441
21
2.6032601574803147
0
LINE
8
BLACK
6
CONTINUOUS
10
1.7431236220472441
20
2.6032601574803147
11
1.7431726771653544
21
2.6032035826771653
0
LINE
8
BLACK
6
CONTINUOUS
10
1.7431726771653544
20
2.6032035826771653
11
1.7431877952755905
21
2.6031581889763777
0
LINE
8
BLACK
6
CONTINUOUS
10
1.7431877952755905
20
2.6031581889763777
11
1.7432484645669291
21
2.6030618110236219
0
LINE
8
BLACK
6
CONTINUOUS
10
1.7432484645669291
20
2.6030618110236219
11
1.7451232283464566
21
2.5993122834645668
0
LINE
8
BLACK
6
CONTINUOUS
10
1.7451232283464566
20
2.5993122834645668
11
1.7453301181102361
21
2.5987716929133859
0
LINE
8
BLACK
6
CONTINUOUS
10
1.7453301181102361
20
2.5987716929133859
11
1.7453376377952756
21
2.5986658267716534
0
LINE
8
BLACK
6
CONTINUOUS
10
1.7453376377952756
20
2.5986658267716534
11
1.7453782283464567
21
2.5985678346456691
0
LINE
8
BLACK
6
CONTINUOUS
10
1.7453782283464567
20
2.5985678346456691
11
1.7454349606299213
21
2.5979917716535432
0
LINE
8
BLACK
6
CONTINUOUS
10
1.7454349606299213
20
2.5979917716535432
11
1.7454349606299213
21
2.5773693307086614
0
LINE
8
BLACK
6
CONTINUOUS
10
1.7454349606299213
20
2.5773693307086614
11
1.7453782283464567
21
2.5767932677165355
0
LINE
8
BLACK
6
CONTINUOUS
10
1.7453782283464567
20
2.5767932677165355
11
1.7449373228346456
21
2.5757288582677167
0
LINE
8
BLACK
6
CONTINUOUS
10
1.7449373228346456
20
2.5757288582677167
11
1.7441226771653542
21
2.5749142125984252
0
LINE
8
BLACK
6
CONTINUOUS
10
1.7441226771653542
20
2.5749142125984252
11
1.7430582677165354
21
2.5744733070866141
0
LINE
8
BLACK
6
CONTINUOUS
10
1.7430582677165354
20
2.5744733070866141
11
1.7419061417322834
21
2.5744733070866141
0
LINE
8
BLACK
6
CONTINUOUS
10
1.7419061417322834
20
2.5744733070866141
11
1.7408417322834646
21
2.5749142125984252
0
LINE
8
BLACK
6
CONTINUOUS
10
1.7408417322834646
20
2.5749142125984252
11
1.7400270866141732
21
2.5757288582677167
0
LINE
8
BLACK
6
CONTINUOUS
10
1.7400270866141732
20
2.5757288582677167
11
1.7395861811023621
21
2.5767932677165355
0
LINE
8
BLACK
6
CONTINUOUS
10
1.7395861811023621
20
2.5767932677165355
11
1.7395294488188977
21
2.5773693307086614
0
LINE
8
BLACK
6
CONTINUOUS
10
1.7395294488188977
20
2.5773693307086614
11
1.7395294488188977
21
2.5972947244094486
0
LINE
8
BLACK
6
CONTINUOUS
10
1.7395294488188977
20
2.5972947244094486
11
1.7384065748031496
21
2.5995404724409448
0
LINE
8
BLACK
6
CONTINUOUS
10
1.7384065748031496
20
2.5995404724409448
11
1.7361608267716535
21
2.6006633070866143
0
LINE
8
BLACK
6
CONTINUOUS
10
1.7361608267716535
20
2.6006633070866143
11
1.7319306299212598
21
2.6006633070866143
0
LINE
8
BLACK
6
CONTINUOUS
10
1.7319306299212598
20
2.6006633070866143
11
1.7296848818897637
21
2.5995404724409448
0
LINE
8
BLACK
6
CONTINUOUS
10
1.7296848818897637
20
2.5995404724409448
11
1.7285620472440943
21
2.5972947244094486
0
LINE
8
BLACK
6
CONTINUOUS
10
1.7285620472440943
20
2.5972947244094486
11
1.7285620472440943
21
2.5773693307086614
0
LINE
8
BLACK
6
CONTINUOUS
10
1.7285620472440943
20
2.5773693307086614
11
1.72850531496063
21
2.5767932677165355
0
LINE
8
BLACK
6
CONTINUOUS
10
1.72850531496063
20
2.5767932677165355
11
1.7280644094488189
21
2.5757288582677167
0
LINE
8
BLACK
6
CONTINUOUS
10
1.7280644094488189
20
2.5757288582677167
11
1.7272497637795274
21
2.5749142125984252
0
LINE
8
BLACK
6
CONTINUOUS
10
1.7272497637795274
20
2.5749142125984252
11
1.7261853543307086
21
2.5744733070866141
0
LINE
8
BLACK
6
CONTINUOUS
10
1.7261853543307086
20
2.5744733070866141
11
1.7250332283464567
21
2.5744733070866141
0
LINE
8
BLACK
6
CONTINUOUS
10
1.7250332283464567
20
2.5744733070866141
11
1.7239688188976379
21
2.5749142125984252
0
LINE
8
BLACK
6
CONTINUOUS
10
1.7239688188976379
20
2.5749142125984252
11
1.7231541732283464
21
2.5757288582677167
0
LINE
8
BLACK
6
CONTINUOUS
10
1.7231541732283464
20
2.5757288582677167
11
1.7227132677165353
21
2.5767932677165355
0
LINE
8
BLACK
6
CONTINUOUS
10
1.7227132677165353
20
2.5767932677165355
11
1.7226565354330707
21
2.5773693307086614
0
LINE
8
BLACK
6
CONTINUOUS
10
1.7226565354330707
20
2.5773693307086614
11
1.7226565354330707
21
2.5972947244094486
0
LINE
8
BLACK
6
CONTINUOUS
10
1.7226565354330707
20
2.5972947244094486
11
1.7215336614173229
21
2.5995404724409448
0
LINE
8
BLACK
6
CONTINUOUS
10
1.7215336614173229
20
2.5995404724409448
11
1.7192879527559055
21
2.6006633070866143
0
LINE
8
BLACK
6
CONTINUOUS
10
1.7192879527559055
20
2.6006633070866143
11
1.7150577559055118
21
2.6006633070866143
0
LINE
8
BLACK
6
CONTINUOUS
10
1.7150577559055118
20
2.6006633070866143
11
1.7123602755905512
21
2.599314566929134
0
LINE
8
BLACK
6
CONTINUOUS
10
1.7123602755905512
20
2.599314566929134
11
1.7116891732283464
21
2.598643464566929
0
LINE
8
BLACK
6
CONTINUOUS
10
1.7116891732283464
20
2.598643464566929
11
1.7116891732283464
21
2.5773693307086614
0
LINE
8
BLACK
6
CONTINUOUS
10
1.7116891732283464
20
2.5773693307086614
11
1.7116324409448818
21
2.5767932677165355
0
LINE
8
BLACK
6
CONTINUOUS
10
1.7116324409448818
20
2.5767932677165355
11
1.7111915354330709
21
2.5757288582677167
0
LINE
8
BLACK
6
CONTINUOUS
10
1.7111915354330709
20
2.5757288582677167
11
1.7103768897637794
21
2.5749142125984252
0
LINE
8
BLACK
6
CONTINUOUS
10
1.7103768897637794
20
2.5749142125984252
11
1.7093124803149606
21
2.5744733070866141
0
LINE
8
BLACK
6
CONTINUOUS
10
1.7093124803149606
20
2.5744733070866141
11
1.7081603543307087
21
2.5744733070866141
0
LINE
8
BLACK
6
CONTINUOUS
10
1.7081603543307087
20
2.5744733070866141
11
1.7070959448818896
21
2.5749142125984252
0
LINE
8
BLACK
6
CONTINUOUS
10
1.7070959448818896
20
2.5749142125984252
11
1.7062812992125984
21
2.5757288582677167
0
LINE
8
BLACK
6
CONTINUOUS
10
1.7062812992125984
20
2.5757288582677167
11
1.7058403937007873
21
2.5767932677165355
0
LINE
8
BLACK
6
CONTINUOUS
10
1.7058403937007873
20
2.5767932677165355
11
1.7057836614173227
21
2.5773693307086614
0
LINE
8
BLACK
6
CONTINUOUS
10
1.7057836614173227
20
2.5773693307086614
11
1.7057836614173227
21
2.6036160629921259
0
LINE
8
BLACK
6
CONTINUOUS
10
1.7057836614173227
20
2.6036160629921259
11
1.7058403937007873
21
2.6041921259842518
0
LINE
8
BLACK
6
CONTINUOUS
10
1.7058403937007873
20
2.6041921259842518
11
1.7062812992125984
21
2.605256535433071
0
LINE
8
BLACK
6
CONTINUOUS
10
1.7062812992125984
20
2.605256535433071
11
1.7070959448818896
21
2.606071181102362
0
LINE
8
BLACK
6
CONTINUOUS
10
1.7070959448818896
20
2.606071181102362
11
1.7081603543307087
21
2.6065120866141731
0
LINE
8
BLACK
6
CONTINUOUS
10
1.7081603543307087
20
2.6065120866141731
11
1.7093124803149606
21
2.6065120866141731
0
LINE
8
BLACK
6
CONTINUOUS
10
1.7093124803149606
20
2.6065120866141731
11
1.7103768897637794
21
2.606071181102362
0
LINE
8
BLACK
6
CONTINUOUS
10
1.7103768897637794
20
2.606071181102362
11
1.7111407086614172
21
2.6053073622047243
0
LINE
8
BLACK
6
CONTINUOUS
10
1.7111407086614172
20
2.6053073622047243
11
1.7130401968503937
21
2.606257086614173
0
LINE
8
BLACK
6
CONTINUOUS
10
1.7130401968503937
20
2.606257086614173
11
1.7135807874015747
21
2.6064639763779529
0
LINE
8
BLACK
6
CONTINUOUS
10
1.7135807874015747
20
2.6064639763779529
11
1.7136866535433071
21
2.6064715354330708
0
LINE
8
BLACK
6
CONTINUOUS
10
1.7136866535433071
20
2.6064715354330708
11
1.7137846456692913
21
2.6065120866141731
0
LINE
8
BLACK
6
CONTINUOUS
10
1.7137846456692913
20
2.6065120866141731
11
1.7143607086614172
21
2.6065688188976379
0
LINE
8
BLACK
6
CONTINUOUS
10
1.7143607086614172
20
2.6065688188976379
11
1.7199849999999999
21
2.6065688188976379
0
LINE
8
BLACK
6
CONTINUOUS
10
1.7199849999999999
20
2.6065688188976379
11
1.720561062992126
21
2.6065120866141731
0
CIRCLE
8
BLACK
10
0.4
20
2.
40
0.0068897637795276
0
CIRCLE
8
BLACK
10
2.7999999999999998
20
2.
40
0.0068897637795276
0
CIRCLE
8
BLACK
10
0.4
20
0.4
40
0.0068897637795276
0
CIRCLE
8
BLACK
10
2.7999999999999998
20
0.4
40
0.0068897637795276
0
CIRCLE
8
BLACK
10
2.3395433070866143
20
0.9159999999999999
40
0.0068897637795276
0
CIRCLE
8
BLACK
10
2.3395433070866143
20
1.1128503937007874
40
0.0068897637795276
0
CIRCLE
8
BLACK
10
0.9
20
2.1000000000000001
40
0.0068897637795276
0
CIRCLE
8
BLACK
10
0.9
20
2.
40
0.0068897637795276
0
CIRCLE
8
BLACK
10
1.
20
2.1000000000000001
40
0.0068897637795276
0
CIRCLE
8
BLACK
10
1.
20
2.
40
0.0068897637795276
0
CIRCLE
8
BLACK
10
1.0999999999999999
20
2.1000000000000001
40
0.0068897637795276
0
CIRCLE
8
BLACK
10
1.0999999999999999
20
2.
40
0.0068897637795276
0
CIRCLE
8
BLACK
10
1.2
20
2.1000000000000001
40
0.0068897637795276
0
CIRCLE
8
BLACK
10
1.2
20
2.
40
0.0068897637795276
0
CIRCLE
8
BLACK
10
1.3
20
2.1000000000000001
40
0.0068897637795276
0
CIRCLE
8
BLACK
10
1.3
20
2.
40
0.0068897637795276
0
CIRCLE
8
BLACK
10
1.3999999999999999
20
2.1000000000000001
40
0.0068897637795276
0
CIRCLE
8
BLACK
10
1.3999999999999999
20
2.
40
0.0068897637795276
0
CIRCLE
8
BLACK
10
1.5
20
2.1000000000000001
40
0.0068897637795276
0
CIRCLE
8
BLACK
10
1.5
20
2.
40
0.0068897637795276
0
CIRCLE
8
BLACK
10
1.5999999999999999
20
2.1000000000000001
40
0.0068897637795276
0
CIRCLE
8
BLACK
10
1.5999999999999999
20
2.
40
0.0068897637795276
0
CIRCLE
8
BLACK
10
1.7
20
2.1000000000000001
40
0.0068897637795276
0
CIRCLE
8
BLACK
10
1.7
20
2.
40
0.0068897637795276
0
CIRCLE
8
BLACK
10
1.8
20
2.1000000000000001
40
0.0068897637795276
0
CIRCLE
8
BLACK
10
1.8
20
2.
40
0.0068897637795276
0
CIRCLE
8
BLACK
10
1.8999999999999999
20
2.1000000000000001
40
0.0068897637795276
0
CIRCLE
8
BLACK
10
1.8999999999999999
20
2.
40
0.0068897637795276
0
CIRCLE
8
BLACK
10
2.
20
2.1000000000000001
40
0.0068897637795276
0
CIRCLE
8
BLACK
10
2.
20
2.
40
0.0068897637795276
0
CIRCLE
8
BLACK
10
2.1000000000000001
20
2.1000000000000001
40
0.0068897637795276
0
CIRCLE
8
BLACK
10
2.1000000000000001
20
2.
40
0.0068897637795276
0
CIRCLE
8
BLACK
10
2.1999999999999997
20
2.1000000000000001
40
0.0068897637795276
0
CIRCLE
8
BLACK
10
2.1999999999999997
20
2.
40
0.0068897637795276
0
CIRCLE
8
BLACK
10
2.2999999999999998
20
2.1000000000000001
40
0.0068897637795276
0
CIRCLE
8
BLACK
10
2.2999999999999998
20
2.
40
0.0068897637795276
0
CIRCLE
8
BLACK
10
0.4
20
2.
40
0.0068897637795276
0
CIRCLE
8
BLACK
10
2.7999999999999998
20
2.
40
0.0068897637795276
0
CIRCLE
8
BLACK
10
0.4
20
0.4
40
0.0068897637795276
0
CIRCLE
8
BLACK
10
2.7999999999999998
20
0.4
40
0.0068897637795276
0
CIRCLE
8
BLACK
10
2.3395433070866143
20
0.9159999999999999
40
0.0068897637795276
0
CIRCLE
8
BLACK
10
2.3395433070866143
20
1.1128503937007874
40
0.0068897637795276
0
CIRCLE
8
BLACK
10
0.9
20
2.1000000000000001
40
0.0068897637795276
0
CIRCLE
8
BLACK
10
0.9
20
2.
40
0.0068897637795276
0
CIRCLE
8
BLACK
10
1.
20
2.1000000000000001
40
0.0068897637795276
0
CIRCLE
8
BLACK
10
1.
20
2.
40
0.0068897637795276
0
CIRCLE
8
BLACK
10
1.0999999999999999
20
2.1000000000000001
40
0.0068897637795276
0
CIRCLE
8
BLACK
10
1.0999999999999999
20
2.
40
0.0068897637795276
0
CIRCLE
8
BLACK
10
1.2
20
2.1000000000000001
40
0.0068897637795276
0
CIRCLE
8
BLACK
10
1.2
20
2.
40
0.0068897637795276
0
CIRCLE
8
BLACK
10
1.3
20
2.1000000000000001
40
0.0068897637795276
0
CIRCLE
8
BLACK
10
1.3
20
2.
40
0.0068897637795276
0
CIRCLE
8
BLACK
10
1.3999999999999999
20
2.1000000000000001
40
0.0068897637795276
0
CIRCLE
8
BLACK
10
1.3999999999999999
20
2.
40
0.0068897637795276
0
CIRCLE
8
BLACK
10
1.5
20
2.1000000000000001
40
0.0068897637795276
0
CIRCLE
8
BLACK
10
1.5
20
2.
40
0.0068897637795276
0
CIRCLE
8
BLACK
10
1.5999999999999999
20
2.1000000000000001
40
0.0068897637795276
0
CIRCLE
8
BLACK
10
1.5999999999999999
20
2.
40
0.0068897637795276
0
CIRCLE
8
BLACK
10
1.7
20
2.1000000000000001
40
0.0068897637795276
0
CIRCLE
8
BLACK
10
1.7
20
2.
40
0.0068897637795276
0
CIRCLE
8
BLACK
10
1.8
20
2.1000000000000001
40
0.0068897637795276
0
CIRCLE
8
BLACK
10
1.8
20
2.
40
0.0068897637795276
0
CIRCLE
8
BLACK
10
1.8999999999999999
20
2.1000000000000001
40
0.0068897637795276
0
CIRCLE
8
BLACK
10
1.8999999999999999
20
2.
40
0.0068897637795276
0
CIRCLE
8
BLACK
10
2.
20
2.1000000000000001
40
0.0068897637795276
0
CIRCLE
8
BLACK
10
2.
20
2.
40
0.0068897637795276
0
CIRCLE
8
BLACK
10
2.1000000000000001
20
2.1000000000000001
40
0.0068897637795276
0
CIRCLE
8
BLACK
10
2.1000000000000001
20
2.
40
0.0068897637795276
0
CIRCLE
8
BLACK
10
2.1999999999999997
20
2.1000000000000001
40
0.0068897637795276
0
CIRCLE
8
BLACK
10
2.1999999999999997
20
2.
40
0.0068897637795276
0
CIRCLE
8
BLACK
10
2.2999999999999998
20
2.1000000000000001
40
0.0068897637795276
0
CIRCLE
8
BLACK
10
2.2999999999999998
20
2.
40
0.0068897637795276
  0
ENDSEC
  0
EOF
