%TF.GenerationSoftware,KiCad,Pcbnew,9.0.7+1*%
%TF.CreationDate,2026-05-16T01:31:53+00:00*%
%TF.ProjectId,USTSIPIN03,55535453-4950-4494-9e30-332e6b696361,REV*%
%TF.SameCoordinates,PX66dd020PY81342c0*%
%TF.FileFunction,Soldermask,Bot*%
%TF.FilePolarity,Negative*%
%FSLAX46Y46*%
G04 Gerber Fmt 4.6, Leading zero omitted, Abs format (unit mm)*
G04 Created by KiCad (PCBNEW 9.0.7+1) date 2026-05-16 01:31:53*
%MOMM*%
%LPD*%
G01*
G04 APERTURE LIST*
G04 Aperture macros list*
%AMRoundRect*
0 Rectangle with rounded corners*
0 $1 Rounding radius*
0 $2 $3 $4 $5 $6 $7 $8 $9 X,Y pos of 4 corners*
0 Add a 4 corners polygon primitive as box body*
4,1,4,$2,$3,$4,$5,$6,$7,$8,$9,$2,$3,0*
0 Add four circle primitives for the rounded corners*
1,1,$1+$1,$2,$3*
1,1,$1+$1,$4,$5*
1,1,$1+$1,$6,$7*
1,1,$1+$1,$8,$9*
0 Add four rect primitives between the rounded corners*
20,1,$1+$1,$2,$3,$4,$5,0*
20,1,$1+$1,$4,$5,$6,$7,0*
20,1,$1+$1,$6,$7,$8,$9,0*
20,1,$1+$1,$8,$9,$2,$3,0*%
%AMFreePoly0*
4,1,43,0.601423,0.811284,0.628785,0.763892,0.630000,0.750000,0.630000,-0.750000,0.611284,-0.801423,0.563892,-0.828785,0.550000,-0.830000,0.000000,-0.830000,-0.011754,-0.825722,-0.065263,-0.825722,-0.085968,-0.822996,-0.212047,-0.789214,-0.231342,-0.781222,-0.344381,-0.715959,-0.360950,-0.703246,-0.453246,-0.610950,-0.465959,-0.594381,-0.531222,-0.481342,-0.539214,-0.462047,-0.572996,-0.335968,
-0.575722,-0.315263,-0.575722,-0.269197,-0.578785,-0.263892,-0.580000,-0.250000,-0.580000,0.250000,-0.575722,0.261753,-0.575722,0.315263,-0.572996,0.335968,-0.539214,0.462047,-0.531222,0.481342,-0.465959,0.594381,-0.453246,0.610950,-0.360950,0.703246,-0.344381,0.715959,-0.231342,0.781222,-0.212047,0.789214,-0.085968,0.822996,-0.065263,0.825722,-0.019197,0.825722,-0.013892,0.828785,
0.000000,0.830000,0.550000,0.830000,0.601423,0.811284,0.601423,0.811284,$1*%
%AMFreePoly1*
4,1,43,0.011754,0.825722,0.065263,0.825722,0.085968,0.822996,0.212047,0.789214,0.231342,0.781222,0.344381,0.715959,0.360950,0.703246,0.453246,0.610950,0.465959,0.594381,0.531222,0.481342,0.539214,0.462047,0.572996,0.335968,0.575722,0.315263,0.575722,0.269197,0.578785,0.263892,0.580000,0.250000,0.580000,-0.250000,0.575722,-0.261753,0.575722,-0.315263,0.572996,-0.335968,
0.539214,-0.462047,0.531222,-0.481342,0.465959,-0.594381,0.453246,-0.610950,0.360950,-0.703246,0.344381,-0.715959,0.231342,-0.781222,0.212047,-0.789214,0.085968,-0.822996,0.065263,-0.825722,0.019197,-0.825722,0.013892,-0.828785,0.000000,-0.830000,-0.550000,-0.830000,-0.601423,-0.811284,-0.628785,-0.763892,-0.630000,-0.750000,-0.630000,0.750000,-0.611284,0.801423,-0.563892,0.828785,
-0.550000,0.830000,0.000000,0.830000,0.011754,0.825722,0.011754,0.825722,$1*%
%AMFreePoly2*
4,1,19,0.551423,0.911284,0.578785,0.863892,0.580000,0.850000,0.580000,-0.850000,0.561284,-0.901423,0.513892,-0.928785,0.500000,-0.930000,-0.200000,-0.930000,-0.251423,-0.911284,-0.256569,-0.906569,-0.556569,-0.606569,-0.579696,-0.556972,-0.580000,-0.550000,-0.580000,0.850000,-0.561284,0.901423,-0.513892,0.928785,-0.500000,0.930000,0.500000,0.930000,0.551423,0.911284,0.551423,0.911284,
$1*%
G04 Aperture macros list end*
%ADD10C,6.160000*%
%ADD11C,1.684000*%
%ADD12RoundRect,0.290000X-0.515000X0.290000X-0.515000X-0.290000X0.515000X-0.290000X0.515000X0.290000X0*%
%ADD13RoundRect,0.190000X0.552500X0.190000X-0.552500X0.190000X-0.552500X-0.190000X0.552500X-0.190000X0*%
%ADD14RoundRect,0.279630X-0.500370X-0.475370X0.500370X-0.475370X0.500370X0.475370X-0.500370X0.475370X0*%
%ADD15RoundRect,0.290000X0.290000X0.515000X-0.290000X0.515000X-0.290000X-0.515000X0.290000X-0.515000X0*%
%ADD16RoundRect,0.290000X-0.290000X-0.515000X0.290000X-0.515000X0.290000X0.515000X-0.290000X0.515000X0*%
%ADD17RoundRect,0.290000X0.515000X-0.290000X0.515000X0.290000X-0.515000X0.290000X-0.515000X-0.290000X0*%
%ADD18RoundRect,0.289024X-0.303476X-0.490976X0.303476X-0.490976X0.303476X0.490976X-0.303476X0.490976X0*%
%ADD19RoundRect,0.289024X-0.490976X0.303476X-0.490976X-0.303476X0.490976X-0.303476X0.490976X0.303476X0*%
%ADD20RoundRect,0.080000X-0.500000X-0.500000X0.500000X-0.500000X0.500000X0.500000X-0.500000X0.500000X0*%
%ADD21RoundRect,0.080000X-0.500000X-0.775000X0.500000X-0.775000X0.500000X0.775000X-0.500000X0.775000X0*%
%ADD22RoundRect,0.080000X-0.500000X-1.900000X0.500000X-1.900000X0.500000X1.900000X-0.500000X1.900000X0*%
%ADD23RoundRect,0.080000X-1.150000X-0.500000X1.150000X-0.500000X1.150000X0.500000X-1.150000X0.500000X0*%
%ADD24RoundRect,0.080000X-1.900000X-0.500000X1.900000X-0.500000X1.900000X0.500000X-1.900000X0.500000X0*%
%ADD25RoundRect,0.190000X-0.190000X0.552500X-0.190000X-0.552500X0.190000X-0.552500X0.190000X0.552500X0*%
%ADD26RoundRect,0.284783X0.370217X1.145217X-0.370217X1.145217X-0.370217X-1.145217X0.370217X-1.145217X0*%
%ADD27RoundRect,0.080000X-0.400000X0.150000X-0.400000X-0.150000X0.400000X-0.150000X0.400000X0.150000X0*%
%ADD28FreePoly0,180.000000*%
%ADD29RoundRect,0.080000X0.500000X0.750000X-0.500000X0.750000X-0.500000X-0.750000X0.500000X-0.750000X0*%
%ADD30FreePoly1,180.000000*%
%ADD31RoundRect,0.279630X0.500370X0.475370X-0.500370X0.475370X-0.500370X-0.475370X0.500370X-0.475370X0*%
%ADD32RoundRect,0.080000X0.400000X-0.150000X0.400000X0.150000X-0.400000X0.150000X-0.400000X-0.150000X0*%
%ADD33FreePoly0,0.000000*%
%ADD34RoundRect,0.080000X-0.500000X-0.750000X0.500000X-0.750000X0.500000X0.750000X-0.500000X0.750000X0*%
%ADD35FreePoly1,0.000000*%
%ADD36RoundRect,0.080000X0.700000X0.150000X-0.700000X0.150000X-0.700000X-0.150000X0.700000X-0.150000X0*%
%ADD37RoundRect,0.289024X0.303476X0.490976X-0.303476X0.490976X-0.303476X-0.490976X0.303476X-0.490976X0*%
%ADD38RoundRect,0.080000X0.750000X-0.650000X0.750000X0.650000X-0.750000X0.650000X-0.750000X-0.650000X0*%
%ADD39RoundRect,0.080000X1.500000X-0.350000X1.500000X0.350000X-1.500000X0.350000X-1.500000X-0.350000X0*%
%ADD40RoundRect,0.190000X0.190000X-0.627500X0.190000X0.627500X-0.190000X0.627500X-0.190000X-0.627500X0*%
%ADD41RoundRect,0.289024X0.490976X-0.303476X0.490976X0.303476X-0.490976X0.303476X-0.490976X-0.303476X0*%
%ADD42RoundRect,0.279630X0.475370X-0.500370X0.475370X0.500370X-0.475370X0.500370X-0.475370X-0.500370X0*%
%ADD43C,2.000000*%
%ADD44RoundRect,0.284783X-0.370217X-1.145217X0.370217X-1.145217X0.370217X1.145217X-0.370217X1.145217X0*%
%ADD45RoundRect,0.190000X-0.552500X-0.190000X0.552500X-0.190000X0.552500X0.190000X-0.552500X0.190000X0*%
%ADD46RoundRect,0.277500X0.327500X0.277500X-0.327500X0.277500X-0.327500X-0.277500X0.327500X-0.277500X0*%
%ADD47RoundRect,0.080000X0.275000X0.125000X-0.275000X0.125000X-0.275000X-0.125000X0.275000X-0.125000X0*%
%ADD48RoundRect,0.080000X-0.275000X-0.125000X0.275000X-0.125000X0.275000X0.125000X-0.275000X0.125000X0*%
%ADD49FreePoly2,180.000000*%
%ADD50RoundRect,0.190000X-0.627500X-0.190000X0.627500X-0.190000X0.627500X0.190000X-0.627500X0.190000X0*%
%ADD51RoundRect,0.080000X-0.762000X0.762000X-0.762000X-0.762000X0.762000X-0.762000X0.762000X0.762000X0*%
%ADD52RoundRect,0.190000X-0.190000X0.865000X-0.190000X-0.865000X0.190000X-0.865000X0.190000X0.865000X0*%
G04 APERTURE END LIST*
D10*
%TO.C,M1*%
X10160000Y50800000D03*
%TD*%
%TO.C,M2*%
X71120000Y50800000D03*
%TD*%
%TO.C,M3*%
X10160000Y10160000D03*
%TD*%
%TO.C,M4*%
X71120000Y10160000D03*
%TD*%
D11*
%TO.C,D1*%
X59424400Y23266400D03*
X59424400Y28266400D03*
%TD*%
D12*
%TO.C,C2*%
X24841200Y38237200D03*
X24841200Y36337200D03*
%TD*%
D13*
%TO.C,U2*%
X34944900Y33545200D03*
X34944900Y32595200D03*
X34944900Y31645200D03*
X32669900Y31645200D03*
X32669900Y33545200D03*
%TD*%
D14*
%TO.C,C3*%
X32127200Y37729800D03*
X34827200Y37729800D03*
%TD*%
D15*
%TO.C,C8*%
X30566400Y29464000D03*
X28666400Y29464000D03*
%TD*%
D16*
%TO.C,C4*%
X31892200Y35490800D03*
X33792200Y35490800D03*
%TD*%
D15*
%TO.C,C7*%
X23860800Y15392400D03*
X21960800Y15392400D03*
%TD*%
D17*
%TO.C,C16*%
X37148600Y31685401D03*
X37148600Y33585399D03*
%TD*%
D18*
%TO.C,R6*%
X29694500Y27305000D03*
X31519500Y27305000D03*
%TD*%
D19*
%TO.C,R3*%
X38862000Y16381100D03*
X38862000Y14556100D03*
%TD*%
D18*
%TO.C,R2*%
X25859100Y13208000D03*
X27684100Y13208000D03*
%TD*%
D19*
%TO.C,R5*%
X36564400Y29636300D03*
X36564400Y27811300D03*
%TD*%
D20*
%TO.C,M5*%
X18740000Y40916400D03*
D21*
X18740000Y39641400D03*
D22*
X18740000Y34766400D03*
X18740000Y28766400D03*
X18740000Y22766400D03*
X18740000Y16766400D03*
D21*
X18740000Y11891400D03*
D20*
X18740000Y10616400D03*
D23*
X20390000Y40916400D03*
X20390000Y10616400D03*
D24*
X25640000Y40916400D03*
X25640000Y10616400D03*
X31640000Y40916400D03*
X31640000Y10616400D03*
X37640000Y40916400D03*
X37640000Y10616400D03*
X43640000Y40916400D03*
X43640000Y10616400D03*
X49640000Y40916400D03*
X49640000Y10616400D03*
X55640000Y40916400D03*
X55640000Y10616400D03*
D23*
X60890000Y40916400D03*
X60890000Y10616400D03*
D20*
X62540000Y40916400D03*
D21*
X62540000Y39641400D03*
D22*
X62540000Y34766400D03*
X62540000Y28766400D03*
X62540000Y22766400D03*
X62540000Y16766400D03*
D21*
X62540000Y11891400D03*
D20*
X62540000Y10616400D03*
%TD*%
D25*
%TO.C,U6*%
X23637200Y20314500D03*
X24587200Y20314500D03*
X25537200Y20314500D03*
X25537200Y18039500D03*
X23637200Y18039500D03*
%TD*%
D26*
%TO.C,C32*%
X49811200Y25628600D03*
X46861200Y25628600D03*
%TD*%
D15*
%TO.C,C12*%
X23429000Y29514800D03*
X21529000Y29514800D03*
%TD*%
D17*
%TO.C,C49*%
X20130600Y51599000D03*
X20130600Y53499000D03*
%TD*%
D16*
%TO.C,C46*%
X10530800Y22479000D03*
X12430800Y22479000D03*
%TD*%
%TO.C,C18*%
X10505400Y19558000D03*
X12405400Y19558000D03*
%TD*%
D12*
%TO.C,C38*%
X12536000Y40011600D03*
X12536000Y38111600D03*
%TD*%
D27*
%TO.C,U5*%
X13488000Y17793400D03*
X13488000Y17293400D03*
X13488000Y16793400D03*
X13488000Y16293400D03*
X10388000Y16293400D03*
X10388000Y16793400D03*
X10388000Y17293400D03*
X10388000Y17793400D03*
%TD*%
D28*
%TO.C,JP3*%
X69690600Y40677300D03*
D29*
X68390600Y40677300D03*
D30*
X67090600Y40677300D03*
%TD*%
D31*
%TO.C,C13*%
X36630600Y16484600D03*
X33930600Y16484600D03*
%TD*%
D19*
%TO.C,R16*%
X59744800Y14704300D03*
X59744800Y12879300D03*
%TD*%
%TO.C,R19*%
X52070000Y16965300D03*
X52070000Y15140300D03*
%TD*%
D32*
%TO.C,U12*%
X10997600Y30212600D03*
X10997600Y30712600D03*
X10997600Y31212600D03*
X10997600Y31712600D03*
X14097600Y31712600D03*
X14097600Y31212600D03*
X14097600Y30712600D03*
X14097600Y30212600D03*
%TD*%
D31*
%TO.C,C34*%
X49686200Y22860000D03*
X46986200Y22860000D03*
%TD*%
D33*
%TO.C,JP2*%
X65846000Y37715400D03*
D34*
X67146000Y37715400D03*
D35*
X68446000Y37715400D03*
%TD*%
D36*
%TO.C,U3*%
X27650800Y27263600D03*
X27650800Y26763600D03*
X27650800Y26263600D03*
X27650800Y25763600D03*
X27650800Y25263600D03*
X23250800Y25263600D03*
X23250800Y25763600D03*
X23250800Y26263600D03*
X23250800Y26763600D03*
X23250800Y27263600D03*
%TD*%
D16*
%TO.C,C41*%
X65877400Y26822400D03*
X67777400Y26822400D03*
%TD*%
D12*
%TO.C,C15*%
X34925000Y23657600D03*
X34925000Y21757600D03*
%TD*%
%TO.C,C5*%
X51231800Y35849600D03*
X51231800Y33949600D03*
%TD*%
D26*
%TO.C,C29*%
X53519600Y19786600D03*
X50569600Y19786600D03*
%TD*%
D37*
%TO.C,R12*%
X56995700Y23012400D03*
X55170700Y23012400D03*
%TD*%
D12*
%TO.C,C48*%
X29870400Y25232400D03*
X29870400Y23332400D03*
%TD*%
%TO.C,C47*%
X15519400Y23987800D03*
X15519400Y22087800D03*
%TD*%
D37*
%TO.C,R21*%
X44958000Y17272000D03*
X43133000Y17272000D03*
%TD*%
D17*
%TO.C,C28*%
X57458800Y12841800D03*
X57458800Y14741800D03*
%TD*%
D16*
%TO.C,C10*%
X25085000Y29489400D03*
X26985000Y29489400D03*
%TD*%
D38*
%TO.C,C37*%
X15431600Y37635400D03*
D39*
X15431600Y38985400D03*
D38*
X15431600Y40335400D03*
%TD*%
D13*
%TO.C,U15*%
X20252100Y49866800D03*
X20252100Y48916800D03*
X20252100Y47966800D03*
X17977100Y47966800D03*
X17977100Y49866800D03*
%TD*%
D37*
%TO.C,R17*%
X60145300Y16840200D03*
X58320300Y16840200D03*
%TD*%
D31*
%TO.C,C6*%
X23676600Y13233400D03*
X20976600Y13233400D03*
%TD*%
D40*
%TO.C,U1*%
X29956800Y31853900D03*
X28056800Y31853900D03*
X29006800Y33728900D03*
%TD*%
D16*
%TO.C,C33*%
X51592200Y23030200D03*
X53492200Y23030200D03*
%TD*%
D15*
%TO.C,C20*%
X57123200Y28749200D03*
X55223200Y28749200D03*
%TD*%
D18*
%TO.C,R13*%
X51782100Y28745200D03*
X53607100Y28745200D03*
%TD*%
D12*
%TO.C,C43*%
X15976600Y29779000D03*
X15976600Y27879000D03*
%TD*%
D41*
%TO.C,R10*%
X57632600Y33275900D03*
X57632600Y35100900D03*
%TD*%
D17*
%TO.C,C19*%
X55517800Y36908801D03*
X55517800Y38808801D03*
%TD*%
D15*
%TO.C,C14*%
X36840200Y18846800D03*
X34940200Y18846800D03*
%TD*%
D12*
%TO.C,C51*%
X15939600Y49841400D03*
X15939600Y47941400D03*
%TD*%
D15*
%TO.C,C39*%
X25334000Y48209200D03*
X23434000Y48209200D03*
%TD*%
D16*
%TO.C,C50*%
X26978400Y48205600D03*
X28878400Y48205600D03*
%TD*%
D42*
%TO.C,C9*%
X26162000Y31847800D03*
X26162000Y34547800D03*
%TD*%
D16*
%TO.C,C40*%
X65877400Y24485600D03*
X67777400Y24485600D03*
%TD*%
D43*
%TO.C,FID4*%
X73089600Y16074600D03*
%TD*%
D44*
%TO.C,C22*%
X57376800Y19685000D03*
X60326800Y19685000D03*
%TD*%
D37*
%TO.C,R1*%
X29665300Y37693600D03*
X27840300Y37693600D03*
%TD*%
D31*
%TO.C,C11*%
X23803600Y33172400D03*
X21103600Y33172400D03*
%TD*%
D12*
%TO.C,C36*%
X46863000Y17485400D03*
X46863000Y15585400D03*
%TD*%
D43*
%TO.C,FID2*%
X15711000Y7667200D03*
%TD*%
D16*
%TO.C,C30*%
X48097400Y28752800D03*
X49997400Y28752800D03*
%TD*%
D31*
%TO.C,C21*%
X57294600Y31314600D03*
X54594600Y31314600D03*
%TD*%
D41*
%TO.C,R7*%
X40894000Y23293700D03*
X40894000Y25118700D03*
%TD*%
D16*
%TO.C,C44*%
X40719800Y47037200D03*
X42619800Y47037200D03*
%TD*%
D37*
%TO.C,R14*%
X46933300Y13029800D03*
X45108300Y13029800D03*
%TD*%
D19*
%TO.C,R4*%
X32904400Y23635101D03*
X32904400Y21810101D03*
%TD*%
D16*
%TO.C,C42*%
X10976400Y28495200D03*
X12876400Y28495200D03*
%TD*%
D43*
%TO.C,FID1*%
X73101200Y44653200D03*
%TD*%
D45*
%TO.C,U8*%
X51923100Y24856400D03*
X51923100Y25806400D03*
X51923100Y26756400D03*
X54198100Y26756400D03*
X54198100Y24856400D03*
%TD*%
D17*
%TO.C,C1*%
X42803000Y12968800D03*
X42803000Y14868800D03*
%TD*%
D46*
%TO.C,L1*%
X22185600Y37602800D03*
X20435600Y37602800D03*
%TD*%
D17*
%TO.C,C17*%
X43905000Y30618601D03*
X43905000Y32518599D03*
%TD*%
D42*
%TO.C,C26*%
X49043400Y12975200D03*
X49043400Y15675200D03*
%TD*%
D37*
%TO.C,R15*%
X52910300Y12902800D03*
X51085300Y12902800D03*
%TD*%
D32*
%TO.C,U14*%
X10489600Y24269000D03*
X10489600Y24769000D03*
X10489600Y25269000D03*
X10489600Y25769000D03*
X13589600Y25769000D03*
X13589600Y25269000D03*
X13589600Y24769000D03*
X13589600Y24269000D03*
%TD*%
D18*
%TO.C,R29*%
X65965700Y43408600D03*
X67790700Y43408600D03*
%TD*%
D16*
%TO.C,C25*%
X51744600Y28745200D03*
X53644600Y28745200D03*
%TD*%
D47*
%TO.C,U7*%
X59664600Y38481800D03*
X59664600Y37981800D03*
X59664600Y37481800D03*
D48*
X59664600Y36981800D03*
D47*
X57314600Y36981800D03*
X57314600Y37481800D03*
X57314600Y37981800D03*
X57314600Y38481800D03*
D49*
X58489600Y37731800D03*
%TD*%
D50*
%TO.C,Q1*%
X56364900Y24856400D03*
X56364900Y26756400D03*
X58239900Y25806400D03*
%TD*%
D43*
%TO.C,FID3*%
X14517200Y53819000D03*
%TD*%
D51*
%TO.C,J1*%
X22860000Y53340000D03*
X22860000Y50800000D03*
X25400000Y53340000D03*
X25400000Y50800000D03*
X27940000Y53340000D03*
X27940000Y50800000D03*
X30480000Y53340000D03*
X30480000Y50800000D03*
X33020000Y53340000D03*
X33020000Y50800000D03*
X35560000Y53340000D03*
X35560000Y50800000D03*
X38100000Y53340000D03*
X38100000Y50800000D03*
X40640000Y53340000D03*
X40640000Y50800000D03*
X43180000Y53340000D03*
X43180000Y50800000D03*
X45720000Y53340000D03*
X45720000Y50800000D03*
X48260000Y53340000D03*
X48260000Y50800000D03*
X50800000Y53340000D03*
X50800000Y50800000D03*
X53340000Y53340000D03*
X53340000Y50800000D03*
X55880000Y53340000D03*
X55880000Y50800000D03*
X58420000Y53340000D03*
X58420000Y50800000D03*
%TD*%
D52*
%TO.C,U11*%
X65938400Y34569400D03*
X67208400Y34569400D03*
X68478400Y34569400D03*
X69748400Y34569400D03*
X69748400Y29619400D03*
X68478400Y29619400D03*
X67208400Y29619400D03*
X65938400Y29619400D03*
%TD*%
D50*
%TO.C,U10*%
X44350700Y19065200D03*
X44350700Y20965200D03*
X46225700Y20015200D03*
%TD*%
D42*
%TO.C,C27*%
X55045800Y12949800D03*
X55045800Y15649800D03*
%TD*%
D19*
%TO.C,R30*%
X58623200Y48029500D03*
X58623200Y46204500D03*
%TD*%
D17*
%TO.C,C45*%
X33401000Y46852800D03*
X33401000Y48752800D03*
%TD*%
D16*
%TO.C,C52*%
X16158000Y51812400D03*
X18058000Y51812400D03*
%TD*%
D25*
%TO.C,U4*%
X36856600Y24328101D03*
X37806600Y24328101D03*
X38756600Y24328101D03*
X38756600Y22053101D03*
X36856600Y22053101D03*
%TD*%
D27*
%TO.C,U13*%
X38735600Y46876400D03*
X38735600Y46376400D03*
X38735600Y45876400D03*
X38735600Y45376400D03*
X35635600Y45376400D03*
X35635600Y45876400D03*
X35635600Y46376400D03*
X35635600Y46876400D03*
%TD*%
M02*
