%TF.GenerationSoftware,KiCad,Pcbnew,9.0.1+1*%
%TF.CreationDate,2025-08-18T01:05:54+00:00*%
%TF.ProjectId,USTSIPIN03,55535453-4950-4494-9e30-332e6b696361,REV*%
%TF.SameCoordinates,PX66dd020PY81342c0*%
%TF.FileFunction,Copper,L1,Top*%
%TF.FilePolarity,Positive*%
%FSLAX46Y46*%
G04 Gerber Fmt 4.6, Leading zero omitted, Abs format (unit mm)*
G04 Created by KiCad (PCBNEW 9.0.1+1) date 2025-08-18 01:05:54*
%MOMM*%
%LPD*%
G01*
G04 APERTURE LIST*
%ADD10C,0.200000*%
%ADD11C,0.300000*%
%TA.AperFunction,ComponentPad*%
%ADD12C,6.000000*%
%TD*%
%TA.AperFunction,SMDPad,CuDef*%
%ADD13C,1.000000*%
%TD*%
%TA.AperFunction,ComponentPad*%
%ADD14R,1.524000X1.524000*%
%TD*%
%TA.AperFunction,ViaPad*%
%ADD15C,0.800000*%
%TD*%
%TA.AperFunction,Conductor*%
%ADD16C,0.300000*%
%TD*%
%TA.AperFunction,Conductor*%
%ADD17C,0.600000*%
%TD*%
%TA.AperFunction,Conductor*%
%ADD18C,0.400000*%
%TD*%
%TA.AperFunction,Conductor*%
%ADD19C,0.700000*%
%TD*%
%TA.AperFunction,Conductor*%
%ADD20C,0.450000*%
%TD*%
G04 APERTURE END LIST*
D10*
G36*
X74612928Y19774623D02*
G01*
X74612928Y19464693D01*
X74566964Y19372765D01*
X74475035Y19326801D01*
X74379392Y19326801D01*
X74287463Y19372765D01*
X74241500Y19464693D01*
X74241500Y19798229D01*
X74239579Y19817738D01*
X74238203Y19821059D01*
X74237949Y19824642D01*
X74231657Y19841086D01*
X74579696Y19841086D01*
X74612928Y19774623D01*
G37*
G36*
X74979595Y17817276D02*
G01*
X72948182Y17817276D01*
X72948182Y18103452D01*
X73114849Y18103452D01*
X73114849Y18064434D01*
X73129781Y18028386D01*
X73157371Y18000796D01*
X73193419Y17985864D01*
X73212928Y17983943D01*
X74712928Y17983943D01*
X74732437Y17985864D01*
X74768485Y18000796D01*
X74796075Y18028386D01*
X74811007Y18064434D01*
X74811007Y18103452D01*
X74796075Y18139500D01*
X74768485Y18167090D01*
X74732437Y18182022D01*
X74712928Y18183943D01*
X74325778Y18183943D01*
X74293740Y18215981D01*
X74772928Y18575372D01*
X74787383Y18588615D01*
X74807262Y18622189D01*
X74812780Y18660815D01*
X74803097Y18698613D01*
X74779686Y18729827D01*
X74746112Y18749706D01*
X74707486Y18755224D01*
X74669688Y18745541D01*
X74652928Y18735372D01*
X74150883Y18358838D01*
X73783639Y18726083D01*
X73768485Y18738519D01*
X73732437Y18753451D01*
X73693419Y18753451D01*
X73657371Y18738519D01*
X73629781Y18710929D01*
X73614849Y18674881D01*
X73614849Y18635863D01*
X73629781Y18599815D01*
X73642217Y18584661D01*
X74042936Y18183943D01*
X73212928Y18183943D01*
X73193419Y18182022D01*
X73157371Y18167090D01*
X73129781Y18139500D01*
X73114849Y18103452D01*
X72948182Y18103452D01*
X72948182Y19726801D01*
X73612928Y19726801D01*
X73612928Y19441086D01*
X73614849Y19421577D01*
X73616224Y19418257D01*
X73616479Y19414673D01*
X73623485Y19396364D01*
X73694914Y19253508D01*
X73705357Y19236917D01*
X73734834Y19211353D01*
X73771850Y19199014D01*
X73810770Y19201780D01*
X73845669Y19219230D01*
X73871233Y19248706D01*
X73883572Y19285722D01*
X73880806Y19324642D01*
X73873800Y19342951D01*
X73812928Y19464695D01*
X73812928Y19703193D01*
X73858893Y19795123D01*
X73950821Y19841086D01*
X74008267Y19841086D01*
X74041500Y19774622D01*
X74041500Y19441086D01*
X74043421Y19421577D01*
X74044796Y19418257D01*
X74045051Y19414673D01*
X74052057Y19396365D01*
X74123485Y19253508D01*
X74125539Y19250245D01*
X74126052Y19248706D01*
X74127713Y19246791D01*
X74133928Y19236917D01*
X74143403Y19228700D01*
X74151617Y19219229D01*
X74161488Y19213016D01*
X74163405Y19211353D01*
X74164943Y19210840D01*
X74168207Y19208786D01*
X74311064Y19137358D01*
X74329373Y19130352D01*
X74332955Y19130098D01*
X74336276Y19128722D01*
X74355785Y19126801D01*
X74498642Y19126801D01*
X74518151Y19128722D01*
X74521471Y19130098D01*
X74525054Y19130352D01*
X74543363Y19137358D01*
X74686221Y19208786D01*
X74689484Y19210841D01*
X74691023Y19211353D01*
X74692938Y19213015D01*
X74702812Y19219229D01*
X74711029Y19228705D01*
X74720500Y19236918D01*
X74726713Y19246790D01*
X74728376Y19248706D01*
X74728889Y19250246D01*
X74730943Y19253508D01*
X74802371Y19396365D01*
X74809377Y19414674D01*
X74809631Y19418257D01*
X74811007Y19421577D01*
X74812928Y19441086D01*
X74812928Y19798229D01*
X74811007Y19817738D01*
X74809631Y19821059D01*
X74809377Y19824641D01*
X74802371Y19842950D01*
X74786079Y19875534D01*
X74796075Y19885529D01*
X74811007Y19921577D01*
X74811007Y19960595D01*
X74796075Y19996643D01*
X74768485Y20024233D01*
X74732437Y20039165D01*
X74712928Y20041086D01*
X73927214Y20041086D01*
X73907705Y20039165D01*
X73904384Y20037790D01*
X73900802Y20037535D01*
X73882493Y20030529D01*
X73739636Y19959101D01*
X73736372Y19957048D01*
X73734834Y19956534D01*
X73732917Y19954872D01*
X73723046Y19948658D01*
X73714832Y19939188D01*
X73705357Y19930970D01*
X73699142Y19921097D01*
X73697481Y19919181D01*
X73696968Y19917643D01*
X73694914Y19914379D01*
X73623485Y19771523D01*
X73616479Y19753214D01*
X73616224Y19749631D01*
X73614849Y19746310D01*
X73612928Y19726801D01*
X72948182Y19726801D01*
X72948182Y20674881D01*
X73114849Y20674881D01*
X73114849Y20635863D01*
X73129781Y20599815D01*
X73157371Y20572225D01*
X73193419Y20557293D01*
X73212928Y20555372D01*
X74712928Y20555372D01*
X74732437Y20557293D01*
X74768485Y20572225D01*
X74796075Y20599815D01*
X74811007Y20635863D01*
X74811007Y20674881D01*
X74796075Y20710929D01*
X74768485Y20738519D01*
X74732437Y20753451D01*
X74712928Y20755372D01*
X74325778Y20755372D01*
X74293740Y20787410D01*
X74772928Y21146801D01*
X74787383Y21160044D01*
X74807262Y21193618D01*
X74812780Y21232244D01*
X74803097Y21270042D01*
X74779686Y21301256D01*
X74746112Y21321135D01*
X74707486Y21326653D01*
X74669688Y21316970D01*
X74652928Y21306801D01*
X74150883Y20930267D01*
X73783639Y21297512D01*
X73768485Y21309948D01*
X73732437Y21324880D01*
X73693419Y21324880D01*
X73657371Y21309948D01*
X73629781Y21282358D01*
X73614849Y21246310D01*
X73614849Y21207292D01*
X73629781Y21171244D01*
X73642217Y21156090D01*
X74042936Y20755372D01*
X73212928Y20755372D01*
X73193419Y20753451D01*
X73157371Y20738519D01*
X73129781Y20710929D01*
X73114849Y20674881D01*
X72948182Y20674881D01*
X72948182Y21889167D01*
X73114849Y21889167D01*
X73114849Y21850149D01*
X73129781Y21814101D01*
X73157371Y21786511D01*
X73193419Y21771579D01*
X73212928Y21769658D01*
X74498642Y21769658D01*
X74518151Y21771579D01*
X74521471Y21772955D01*
X74525055Y21773209D01*
X74543363Y21780215D01*
X74686221Y21851644D01*
X74689484Y21853699D01*
X74691023Y21854211D01*
X74692938Y21855873D01*
X74702812Y21862087D01*
X74711029Y21871563D01*
X74720500Y21879776D01*
X74726713Y21889648D01*
X74728376Y21891564D01*
X74728889Y21893103D01*
X74730943Y21896366D01*
X74802371Y22039223D01*
X74809377Y22057532D01*
X74812143Y22096452D01*
X74799804Y22133468D01*
X74774240Y22162944D01*
X74739341Y22180394D01*
X74700421Y22183159D01*
X74663405Y22170820D01*
X74633928Y22145256D01*
X74623485Y22128665D01*
X74566964Y22015623D01*
X74475035Y21969658D01*
X73212928Y21969658D01*
X73193419Y21967737D01*
X73157371Y21952805D01*
X73129781Y21925215D01*
X73114849Y21889167D01*
X72948182Y21889167D01*
X72948182Y22674881D01*
X73114849Y22674881D01*
X73114849Y22635863D01*
X73123596Y22614746D01*
X73129781Y22599814D01*
X73142218Y22584661D01*
X73213647Y22513233D01*
X73228800Y22500796D01*
X73254290Y22490239D01*
X73264848Y22485865D01*
X73264849Y22485865D01*
X73303866Y22485865D01*
X73324983Y22494613D01*
X73339915Y22500797D01*
X73339919Y22500802D01*
X73355068Y22513233D01*
X73426495Y22584661D01*
X73438932Y22599814D01*
X73443305Y22610373D01*
X73453864Y22635863D01*
X73453864Y22674881D01*
X73614849Y22674881D01*
X73614849Y22635863D01*
X73629781Y22599815D01*
X73657371Y22572225D01*
X73693419Y22557293D01*
X73712928Y22555372D01*
X74712928Y22555372D01*
X74732437Y22557293D01*
X74768485Y22572225D01*
X74796075Y22599815D01*
X74811007Y22635863D01*
X74811007Y22674881D01*
X74796075Y22710929D01*
X74768485Y22738519D01*
X74732437Y22753451D01*
X74712928Y22755372D01*
X73712928Y22755372D01*
X73693419Y22753451D01*
X73657371Y22738519D01*
X73629781Y22710929D01*
X73614849Y22674881D01*
X73453864Y22674881D01*
X73440439Y22707292D01*
X73438933Y22710929D01*
X73426496Y22726082D01*
X73355068Y22797511D01*
X73339915Y22809948D01*
X73324983Y22816133D01*
X73303866Y22824880D01*
X73264848Y22824880D01*
X73254290Y22820507D01*
X73228800Y22809949D01*
X73228794Y22809944D01*
X73213646Y22797512D01*
X73142217Y22726083D01*
X73129785Y22710935D01*
X73129780Y22710929D01*
X73128274Y22707292D01*
X73114849Y22674881D01*
X72948182Y22674881D01*
X72948182Y23389167D01*
X73114849Y23389167D01*
X73114849Y23350149D01*
X73129781Y23314101D01*
X73157371Y23286511D01*
X73193419Y23271579D01*
X73212928Y23269658D01*
X74712928Y23269658D01*
X74732437Y23271579D01*
X74768485Y23286511D01*
X74796075Y23314101D01*
X74811007Y23350149D01*
X74811007Y23389167D01*
X74796075Y23425215D01*
X74768485Y23452805D01*
X74732437Y23467737D01*
X74712928Y23469658D01*
X74325778Y23469658D01*
X74293740Y23501696D01*
X74772928Y23861087D01*
X74787383Y23874330D01*
X74807262Y23907904D01*
X74812780Y23946530D01*
X74803097Y23984328D01*
X74779686Y24015542D01*
X74746112Y24035421D01*
X74707486Y24040939D01*
X74669688Y24031256D01*
X74652928Y24021087D01*
X74150883Y23644553D01*
X73783639Y24011798D01*
X73768485Y24024234D01*
X73732437Y24039166D01*
X73693419Y24039166D01*
X73657371Y24024234D01*
X73629781Y23996644D01*
X73614849Y23960596D01*
X73614849Y23921578D01*
X73629781Y23885530D01*
X73642217Y23870376D01*
X74042936Y23469658D01*
X73212928Y23469658D01*
X73193419Y23467737D01*
X73157371Y23452805D01*
X73129781Y23425215D01*
X73114849Y23389167D01*
X72948182Y23389167D01*
X72948182Y24207606D01*
X74979595Y24207606D01*
X74979595Y17817276D01*
G37*
D11*
G36*
X67292766Y52798605D02*
G01*
X60588446Y52798605D01*
X60588446Y54115272D01*
X60755113Y54115272D01*
X60755113Y53329558D01*
X60757995Y53300294D01*
X60760056Y53295317D01*
X60760439Y53289939D01*
X60770949Y53262476D01*
X60842378Y53119618D01*
X60845458Y53114724D01*
X60846228Y53112416D01*
X60848720Y53109543D01*
X60858043Y53094732D01*
X60872254Y53082408D01*
X60884575Y53068201D01*
X60899382Y53058880D01*
X60902258Y53056386D01*
X60904566Y53055617D01*
X60909460Y53052536D01*
X61052318Y52981108D01*
X61079781Y52970598D01*
X61085156Y52970217D01*
X61090135Y52968154D01*
X61119399Y52965272D01*
X61333685Y52965272D01*
X61362949Y52968154D01*
X61367927Y52970217D01*
X61373303Y52970598D01*
X61400767Y52981108D01*
X61449641Y53005546D01*
X61464635Y52990552D01*
X61518707Y52968154D01*
X61577235Y52968154D01*
X61631307Y52990552D01*
X61672691Y53031936D01*
X61695089Y53086008D01*
X61697971Y53115272D01*
X61697971Y53900986D01*
X62040828Y53900986D01*
X62040828Y53829558D01*
X62043710Y53800294D01*
X62045772Y53795316D01*
X62046154Y53789940D01*
X62056664Y53762477D01*
X62128092Y53619618D01*
X62131171Y53614726D01*
X62131942Y53612415D01*
X62134437Y53609538D01*
X62143757Y53594733D01*
X62157963Y53582412D01*
X62170289Y53568200D01*
X62185093Y53558882D01*
X62187971Y53556386D01*
X62190282Y53555616D01*
X62195175Y53552536D01*
X62338033Y53481107D01*
X62365496Y53470598D01*
X62370871Y53470217D01*
X62375850Y53468154D01*
X62405114Y53465272D01*
X62583989Y53465272D01*
X62650453Y53432040D01*
X62683685Y53365576D01*
X62683685Y53364968D01*
X62650452Y53298504D01*
X62583989Y53265272D01*
X62369095Y53265272D01*
X62257910Y53320864D01*
X62230446Y53331374D01*
X62172066Y53335522D01*
X62116544Y53317014D01*
X62072329Y53278667D01*
X62046154Y53226318D01*
X62042006Y53167938D01*
X62060514Y53112416D01*
X62098861Y53068201D01*
X62123746Y53052536D01*
X62266604Y52981108D01*
X62294067Y52970598D01*
X62299442Y52970217D01*
X62304421Y52968154D01*
X62333685Y52965272D01*
X62619399Y52965272D01*
X62648663Y52968154D01*
X62653641Y52970217D01*
X62659017Y52970598D01*
X62686481Y52981108D01*
X62829338Y53052536D01*
X62834232Y53055617D01*
X62836540Y53056386D01*
X62839414Y53058879D01*
X62854224Y53068201D01*
X62866546Y53082410D01*
X62880755Y53094732D01*
X62890077Y53109542D01*
X62892570Y53112416D01*
X62893339Y53114724D01*
X62896420Y53119618D01*
X62967849Y53262476D01*
X62978359Y53289939D01*
X62978741Y53295317D01*
X62980803Y53300294D01*
X62983685Y53329558D01*
X62983685Y53400986D01*
X62980803Y53430250D01*
X62978739Y53435231D01*
X62978358Y53440605D01*
X62967849Y53468069D01*
X62896420Y53610925D01*
X62893339Y53615820D01*
X62892570Y53618127D01*
X62890077Y53621002D01*
X62880755Y53635811D01*
X62866545Y53648135D01*
X62854224Y53662342D01*
X62839418Y53671662D01*
X62836540Y53674158D01*
X62834228Y53674929D01*
X62829338Y53678007D01*
X62686481Y53749436D01*
X62659018Y53759945D01*
X62653643Y53760327D01*
X62648663Y53762390D01*
X62619399Y53765272D01*
X62440523Y53765272D01*
X62374060Y53798503D01*
X62340828Y53864967D01*
X62340828Y53865577D01*
X62374059Y53932040D01*
X62440524Y53965272D01*
X62583989Y53965272D01*
X62695173Y53909679D01*
X62722637Y53899170D01*
X62781017Y53895021D01*
X62836539Y53913528D01*
X62880755Y53951875D01*
X62906929Y54004224D01*
X62911078Y54062604D01*
X62892570Y54118127D01*
X62869666Y54144536D01*
X63115139Y54144536D01*
X63115139Y54086008D01*
X63137537Y54031936D01*
X63178921Y53990552D01*
X63232993Y53968154D01*
X63262257Y53965272D01*
X63326542Y53965272D01*
X63326542Y53329558D01*
X63329424Y53300294D01*
X63331485Y53295317D01*
X63331868Y53289939D01*
X63342378Y53262476D01*
X63413807Y53119618D01*
X63416887Y53114724D01*
X63417657Y53112416D01*
X63420149Y53109543D01*
X63429472Y53094732D01*
X63443683Y53082408D01*
X63456004Y53068201D01*
X63470811Y53058880D01*
X63473687Y53056386D01*
X63475995Y53055617D01*
X63480889Y53052536D01*
X63623747Y52981108D01*
X63651210Y52970598D01*
X63656585Y52970217D01*
X63661564Y52968154D01*
X63690828Y52965272D01*
X63833685Y52965272D01*
X63862949Y52968154D01*
X63917021Y52990552D01*
X63958405Y53031936D01*
X63980803Y53086008D01*
X63980803Y53144536D01*
X63958405Y53198608D01*
X63941051Y53215962D01*
X64115139Y53215962D01*
X64115139Y53157436D01*
X64117365Y53152063D01*
X64137536Y53103365D01*
X64156191Y53080634D01*
X64227619Y53009206D01*
X64250349Y52990551D01*
X64272175Y52981511D01*
X64304421Y52968154D01*
X64362949Y52968154D01*
X64403516Y52984958D01*
X64417020Y52990551D01*
X64417024Y52990556D01*
X64439750Y53009205D01*
X64511179Y53080633D01*
X64529834Y53103364D01*
X64529835Y53103365D01*
X64552232Y53157437D01*
X64552232Y53215963D01*
X64529835Y53270035D01*
X64511180Y53292766D01*
X64439751Y53364195D01*
X64417020Y53382850D01*
X64385346Y53395970D01*
X64362949Y53405247D01*
X64304421Y53405247D01*
X64282024Y53395970D01*
X64250350Y53382850D01*
X64250349Y53382849D01*
X64227618Y53364194D01*
X64156190Y53292765D01*
X64137540Y53270040D01*
X64137536Y53270035D01*
X64117366Y53221338D01*
X64115139Y53215962D01*
X63941051Y53215962D01*
X63917021Y53239992D01*
X63862949Y53262390D01*
X63833685Y53265272D01*
X63726238Y53265272D01*
X63659774Y53298504D01*
X63626542Y53364968D01*
X63626542Y53829558D01*
X64826543Y53829558D01*
X64826543Y53400986D01*
X64829425Y53371722D01*
X64831487Y53366744D01*
X64831869Y53361368D01*
X64842379Y53333904D01*
X64913807Y53191047D01*
X64921734Y53178454D01*
X64923250Y53174794D01*
X64926631Y53170675D01*
X64929472Y53166161D01*
X64932465Y53163565D01*
X64941905Y53152063D01*
X65013334Y53080634D01*
X65024838Y53071193D01*
X65027433Y53068201D01*
X65031942Y53065363D01*
X65036065Y53061979D01*
X65039726Y53060463D01*
X65052318Y53052536D01*
X65195176Y52981108D01*
X65222639Y52970598D01*
X65228014Y52970217D01*
X65232993Y52968154D01*
X65262257Y52965272D01*
X65547971Y52965272D01*
X65577235Y52968154D01*
X65582213Y52970217D01*
X65587589Y52970598D01*
X65615052Y52981108D01*
X65757911Y53052536D01*
X65782796Y53068201D01*
X65821143Y53112415D01*
X65825937Y53126798D01*
X66041272Y53126798D01*
X66043710Y53106482D01*
X66043710Y53086008D01*
X66047168Y53077659D01*
X66048245Y53068689D01*
X66058275Y53050846D01*
X66066108Y53031936D01*
X66072495Y53025549D01*
X66076924Y53017670D01*
X66093022Y53005022D01*
X66107492Y52990552D01*
X66115840Y52987094D01*
X66122946Y52981511D01*
X66142651Y52975989D01*
X66161564Y52968154D01*
X66175500Y52966782D01*
X66179302Y52965716D01*
X66182465Y52966096D01*
X66190828Y52965272D01*
X66976543Y52965272D01*
X67005807Y52968154D01*
X67059879Y52990552D01*
X67101263Y53031936D01*
X67123661Y53086008D01*
X67123661Y53144536D01*
X67101263Y53198608D01*
X67059879Y53239992D01*
X67005807Y53262390D01*
X66976543Y53265272D01*
X66499448Y53265272D01*
X67094491Y54022599D01*
X67099008Y54029682D01*
X67101263Y54031936D01*
X67102775Y54035587D01*
X67110304Y54047390D01*
X67115826Y54067096D01*
X67123661Y54086008D01*
X67123661Y54095048D01*
X67126099Y54103746D01*
X67123661Y54124063D01*
X67123661Y54144536D01*
X67120202Y54152886D01*
X67119126Y54161855D01*
X67109095Y54179699D01*
X67101263Y54198608D01*
X67094875Y54204996D01*
X67090447Y54212874D01*
X67074348Y54225523D01*
X67059879Y54239992D01*
X67051530Y54243451D01*
X67044425Y54249033D01*
X67024719Y54254556D01*
X67005807Y54262390D01*
X66991870Y54263763D01*
X66988069Y54264828D01*
X66984905Y54264449D01*
X66976543Y54265272D01*
X66190828Y54265272D01*
X66161564Y54262390D01*
X66107492Y54239992D01*
X66066108Y54198608D01*
X66043710Y54144536D01*
X66043710Y54086008D01*
X66066108Y54031936D01*
X66107492Y53990552D01*
X66161564Y53968154D01*
X66190828Y53965272D01*
X66667923Y53965272D01*
X66072880Y53207945D01*
X66068362Y53200863D01*
X66066108Y53198608D01*
X66064595Y53194958D01*
X66057067Y53183154D01*
X66051544Y53163449D01*
X66043710Y53144536D01*
X66043710Y53135497D01*
X66041272Y53126798D01*
X65825937Y53126798D01*
X65839651Y53167938D01*
X65835503Y53226318D01*
X65809329Y53278667D01*
X65765114Y53317014D01*
X65709592Y53335522D01*
X65651211Y53331374D01*
X65623748Y53320865D01*
X65512562Y53265272D01*
X65297667Y53265272D01*
X65208253Y53309979D01*
X65171248Y53346984D01*
X65126543Y53436396D01*
X65126543Y53794149D01*
X65171248Y53883560D01*
X65208253Y53920565D01*
X65297667Y53965272D01*
X65512561Y53965272D01*
X65623747Y53909679D01*
X65651210Y53899169D01*
X65709590Y53895021D01*
X65765113Y53913529D01*
X65809328Y53951875D01*
X65835503Y54004224D01*
X65839651Y54062605D01*
X65821143Y54118127D01*
X65782797Y54162342D01*
X65757911Y54178007D01*
X65615053Y54249436D01*
X65587590Y54259946D01*
X65582212Y54260329D01*
X65577235Y54262390D01*
X65547971Y54265272D01*
X65262257Y54265272D01*
X65232993Y54262390D01*
X65228012Y54260327D01*
X65222638Y54259945D01*
X65195174Y54249436D01*
X65052318Y54178007D01*
X65039724Y54170080D01*
X65036065Y54168564D01*
X65031944Y54165183D01*
X65027432Y54162342D01*
X65024835Y54159349D01*
X65013335Y54149910D01*
X64941906Y54078482D01*
X64932466Y54066980D01*
X64929472Y54064383D01*
X64926630Y54059869D01*
X64923251Y54055751D01*
X64921735Y54052093D01*
X64913807Y54039497D01*
X64842379Y53896640D01*
X64831869Y53869176D01*
X64831487Y53863801D01*
X64829425Y53858822D01*
X64826543Y53829558D01*
X63626542Y53829558D01*
X63626542Y53965272D01*
X63833685Y53965272D01*
X63862949Y53968154D01*
X63917021Y53990552D01*
X63958405Y54031936D01*
X63980803Y54086008D01*
X63980803Y54144536D01*
X63958405Y54198608D01*
X63917021Y54239992D01*
X63862949Y54262390D01*
X63833685Y54265272D01*
X63626542Y54265272D01*
X63626542Y54615272D01*
X63623660Y54644536D01*
X63601262Y54698608D01*
X63559878Y54739992D01*
X63505806Y54762390D01*
X63447278Y54762390D01*
X63393206Y54739992D01*
X63351822Y54698608D01*
X63329424Y54644536D01*
X63326542Y54615272D01*
X63326542Y54265272D01*
X63262257Y54265272D01*
X63232993Y54262390D01*
X63178921Y54239992D01*
X63137537Y54198608D01*
X63115139Y54144536D01*
X62869666Y54144536D01*
X62854224Y54162342D01*
X62829338Y54178007D01*
X62686481Y54249436D01*
X62659018Y54259945D01*
X62653643Y54260327D01*
X62648663Y54262390D01*
X62619399Y54265272D01*
X62405114Y54265272D01*
X62375850Y54262390D01*
X62370872Y54260329D01*
X62365495Y54259946D01*
X62338032Y54249436D01*
X62195174Y54178007D01*
X62190279Y54174927D01*
X62187972Y54174157D01*
X62185097Y54171665D01*
X62170288Y54162342D01*
X62157965Y54148134D01*
X62143757Y54135811D01*
X62134434Y54121002D01*
X62131942Y54118127D01*
X62131172Y54115820D01*
X62128092Y54110925D01*
X62056664Y53968068D01*
X62046154Y53940604D01*
X62045772Y53935229D01*
X62043710Y53930250D01*
X62040828Y53900986D01*
X61697971Y53900986D01*
X61697971Y54115272D01*
X61695089Y54144536D01*
X61672691Y54198608D01*
X61631307Y54239992D01*
X61577235Y54262390D01*
X61518707Y54262390D01*
X61464635Y54239992D01*
X61423251Y54198608D01*
X61400853Y54144536D01*
X61397971Y54115272D01*
X61397971Y53320261D01*
X61387687Y53309978D01*
X61298275Y53265272D01*
X61154809Y53265272D01*
X61088345Y53298504D01*
X61055113Y53364968D01*
X61055113Y54115272D01*
X61052231Y54144536D01*
X61029833Y54198608D01*
X60988449Y54239992D01*
X60934377Y54262390D01*
X60875849Y54262390D01*
X60821777Y54239992D01*
X60780393Y54198608D01*
X60757995Y54144536D01*
X60755113Y54115272D01*
X60588446Y54115272D01*
X60588446Y54929057D01*
X67292766Y54929057D01*
X67292766Y52798605D01*
G37*
D10*
G36*
X74468507Y36527308D02*
G01*
X74587037Y36468042D01*
X74635514Y36419566D01*
X74689128Y36312338D01*
X74689128Y36216694D01*
X74635513Y36109465D01*
X74587037Y36060989D01*
X74468507Y36001723D01*
X74205391Y35935944D01*
X73872866Y35935944D01*
X73609747Y36001723D01*
X73491219Y36060988D01*
X73442742Y36109466D01*
X73389128Y36216694D01*
X73389128Y36312336D01*
X73442743Y36419566D01*
X73491219Y36468043D01*
X73609746Y36527307D01*
X73872866Y36593087D01*
X74205390Y36593087D01*
X74468507Y36527308D01*
G37*
G36*
X75055795Y34071198D02*
G01*
X73022461Y34071198D01*
X73022461Y34978801D01*
X73189128Y34978801D01*
X73189128Y34621658D01*
X73191049Y34602149D01*
X73192424Y34598829D01*
X73192679Y34595245D01*
X73199685Y34576936D01*
X73271114Y34434080D01*
X73276400Y34425682D01*
X73277410Y34423244D01*
X73279661Y34420501D01*
X73281557Y34417489D01*
X73283554Y34415757D01*
X73289846Y34408090D01*
X73361274Y34336663D01*
X73376427Y34324226D01*
X73412476Y34309295D01*
X73451494Y34309295D01*
X73487542Y34324226D01*
X73515132Y34351816D01*
X73530063Y34387864D01*
X73530063Y34426882D01*
X73515132Y34462931D01*
X73502695Y34478084D01*
X73442743Y34538037D01*
X73389128Y34645267D01*
X73389128Y34955193D01*
X73442744Y35062425D01*
X73491219Y35110901D01*
X73598449Y35164516D01*
X73701473Y35164516D01*
X73877965Y35105685D01*
X74718417Y34265234D01*
X74733570Y34252797D01*
X74744128Y34248424D01*
X74769619Y34237865D01*
X74808637Y34237865D01*
X74844685Y34252797D01*
X74872275Y34280387D01*
X74887207Y34316435D01*
X74889128Y34335944D01*
X74889128Y35264516D01*
X74887207Y35284025D01*
X74872275Y35320073D01*
X74844685Y35347663D01*
X74808637Y35362595D01*
X74769619Y35362595D01*
X74733571Y35347663D01*
X74705981Y35320073D01*
X74691049Y35284025D01*
X74689128Y35264516D01*
X74689128Y34577366D01*
X74002696Y35263798D01*
X73987542Y35276234D01*
X73984223Y35277609D01*
X73981508Y35279964D01*
X73963608Y35287955D01*
X73749323Y35359384D01*
X73739650Y35361584D01*
X73737209Y35362595D01*
X73733671Y35362944D01*
X73730208Y35363731D01*
X73727573Y35363544D01*
X73717700Y35364516D01*
X73574842Y35364516D01*
X73555333Y35362595D01*
X73552012Y35361220D01*
X73548429Y35360965D01*
X73530120Y35353959D01*
X73387263Y35282530D01*
X73378865Y35277245D01*
X73376427Y35276234D01*
X73373682Y35273982D01*
X73370673Y35272087D01*
X73368940Y35270090D01*
X73361274Y35263797D01*
X73289846Y35192368D01*
X73283553Y35184702D01*
X73281557Y35182970D01*
X73279663Y35179963D01*
X73277409Y35177215D01*
X73276397Y35174774D01*
X73271114Y35166379D01*
X73199685Y35023523D01*
X73192679Y35005214D01*
X73192424Y35001631D01*
X73191049Y34998310D01*
X73189128Y34978801D01*
X73022461Y34978801D01*
X73022461Y36335944D01*
X73189128Y36335944D01*
X73189128Y36193087D01*
X73191049Y36173578D01*
X73192424Y36170258D01*
X73192679Y36166674D01*
X73199685Y36148366D01*
X73271114Y36005508D01*
X73276400Y35997110D01*
X73277410Y35994672D01*
X73279661Y35991929D01*
X73281557Y35988917D01*
X73283554Y35987185D01*
X73289846Y35979518D01*
X73361274Y35908091D01*
X73368940Y35901799D01*
X73370673Y35899801D01*
X73373682Y35897907D01*
X73376427Y35895654D01*
X73378865Y35894644D01*
X73387263Y35889358D01*
X73530120Y35817929D01*
X73531548Y35817383D01*
X73532128Y35816953D01*
X73540298Y35814035D01*
X73548429Y35810923D01*
X73549151Y35810872D01*
X73550589Y35810358D01*
X73836304Y35738930D01*
X73839683Y35738431D01*
X73841048Y35737865D01*
X73848399Y35737142D01*
X73855696Y35736062D01*
X73857154Y35736280D01*
X73860557Y35735944D01*
X74217700Y35735944D01*
X74221102Y35736280D01*
X74222561Y35736062D01*
X74229857Y35737142D01*
X74237209Y35737865D01*
X74238573Y35738431D01*
X74241953Y35738930D01*
X74527667Y35810358D01*
X74529104Y35810872D01*
X74529827Y35810923D01*
X74537957Y35814035D01*
X74546128Y35816953D01*
X74546707Y35817383D01*
X74548136Y35817929D01*
X74690992Y35889358D01*
X74699386Y35894642D01*
X74701828Y35895653D01*
X74704575Y35897908D01*
X74707583Y35899801D01*
X74709314Y35901798D01*
X74716981Y35908090D01*
X74788410Y35979518D01*
X74794704Y35987188D01*
X74796700Y35988918D01*
X74798591Y35991924D01*
X74800847Y35994671D01*
X74801858Y35997113D01*
X74807143Y36005508D01*
X74878571Y36148366D01*
X74885578Y36166675D01*
X74885832Y36170261D01*
X74887207Y36173578D01*
X74889128Y36193087D01*
X74889128Y36335944D01*
X74887207Y36355453D01*
X74885831Y36358774D01*
X74885577Y36362356D01*
X74878571Y36380665D01*
X74807143Y36523522D01*
X74801858Y36531918D01*
X74800847Y36534359D01*
X74798591Y36537107D01*
X74796700Y36540112D01*
X74794705Y36541843D01*
X74788410Y36549512D01*
X74716981Y36620940D01*
X74709314Y36627233D01*
X74707583Y36629229D01*
X74704575Y36631123D01*
X74701828Y36633377D01*
X74699386Y36634389D01*
X74690992Y36639672D01*
X74548136Y36711101D01*
X74546707Y36711648D01*
X74546128Y36712077D01*
X74537957Y36714996D01*
X74529827Y36718107D01*
X74529104Y36718159D01*
X74527667Y36718672D01*
X74241954Y36790101D01*
X74238572Y36790602D01*
X74237209Y36791166D01*
X74229858Y36791890D01*
X74222561Y36792969D01*
X74221102Y36792752D01*
X74217700Y36793087D01*
X73860557Y36793087D01*
X73857153Y36792752D01*
X73855695Y36792969D01*
X73848396Y36791890D01*
X73841048Y36791166D01*
X73839684Y36790602D01*
X73836303Y36790101D01*
X73550588Y36718672D01*
X73549149Y36718159D01*
X73548429Y36718107D01*
X73540304Y36714999D01*
X73532128Y36712077D01*
X73531548Y36711648D01*
X73530120Y36711101D01*
X73387263Y36639672D01*
X73378865Y36634387D01*
X73376427Y36633376D01*
X73373682Y36631124D01*
X73370673Y36629229D01*
X73368940Y36627232D01*
X73361274Y36620939D01*
X73289846Y36549512D01*
X73283554Y36541846D01*
X73281557Y36540113D01*
X73279661Y36537102D01*
X73277410Y36534358D01*
X73276400Y36531921D01*
X73271114Y36523522D01*
X73199685Y36380666D01*
X73192679Y36362357D01*
X73192424Y36358774D01*
X73191049Y36355453D01*
X73189128Y36335944D01*
X73022461Y36335944D01*
X73022461Y37835943D01*
X73189128Y37835943D01*
X73189128Y37478800D01*
X73191049Y37459291D01*
X73192424Y37455971D01*
X73192679Y37452387D01*
X73199685Y37434078D01*
X73271114Y37291222D01*
X73276400Y37282824D01*
X73277410Y37280386D01*
X73279661Y37277643D01*
X73281557Y37274631D01*
X73283554Y37272899D01*
X73289846Y37265232D01*
X73361274Y37193805D01*
X73376427Y37181368D01*
X73412476Y37166437D01*
X73451494Y37166437D01*
X73487542Y37181368D01*
X73515132Y37208958D01*
X73530063Y37245006D01*
X73530063Y37284024D01*
X73515132Y37320073D01*
X73502695Y37335226D01*
X73442743Y37395179D01*
X73389128Y37502409D01*
X73389128Y37812335D01*
X73442744Y37919567D01*
X73491219Y37968043D01*
X73598449Y38021658D01*
X73701473Y38021658D01*
X73877965Y37962827D01*
X74718417Y37122376D01*
X74733570Y37109939D01*
X74744128Y37105566D01*
X74769619Y37095007D01*
X74808637Y37095007D01*
X74844685Y37109939D01*
X74872275Y37137529D01*
X74887207Y37173577D01*
X74889128Y37193086D01*
X74889128Y38121658D01*
X74887207Y38141167D01*
X74872275Y38177215D01*
X74844685Y38204805D01*
X74808637Y38219737D01*
X74769619Y38219737D01*
X74733571Y38204805D01*
X74705981Y38177215D01*
X74691049Y38141167D01*
X74689128Y38121658D01*
X74689128Y37434508D01*
X74002696Y38120940D01*
X73987542Y38133376D01*
X73984223Y38134751D01*
X73981508Y38137106D01*
X73963608Y38145097D01*
X73749323Y38216526D01*
X73739650Y38218726D01*
X73737209Y38219737D01*
X73733671Y38220086D01*
X73730208Y38220873D01*
X73727573Y38220686D01*
X73717700Y38221658D01*
X73574842Y38221658D01*
X73555333Y38219737D01*
X73552012Y38218362D01*
X73548429Y38218107D01*
X73530120Y38211101D01*
X73387263Y38139672D01*
X73378865Y38134387D01*
X73376427Y38133376D01*
X73373682Y38131124D01*
X73370673Y38129229D01*
X73368940Y38127232D01*
X73361274Y38120939D01*
X73289846Y38049510D01*
X73283553Y38041844D01*
X73281557Y38040112D01*
X73279663Y38037105D01*
X73277409Y38034357D01*
X73276397Y38031916D01*
X73271114Y38023521D01*
X73199685Y37880665D01*
X73192679Y37862356D01*
X73192424Y37858773D01*
X73191049Y37855452D01*
X73189128Y37835943D01*
X73022461Y37835943D01*
X73022461Y39478800D01*
X73189128Y39478800D01*
X73189128Y38764514D01*
X73189838Y38757298D01*
X73189595Y38754861D01*
X73190312Y38752483D01*
X73191049Y38745005D01*
X73196645Y38731496D01*
X73200866Y38717506D01*
X73204053Y38713610D01*
X73205981Y38708957D01*
X73216317Y38698621D01*
X73225573Y38687308D01*
X73230010Y38684928D01*
X73233571Y38681367D01*
X73247076Y38675773D01*
X73259957Y38668863D01*
X73267321Y38667387D01*
X73269619Y38666435D01*
X73272069Y38666435D01*
X73279178Y38665010D01*
X73993463Y38593582D01*
X74013067Y38593553D01*
X74017888Y38595008D01*
X74022924Y38595008D01*
X74036432Y38600604D01*
X74050421Y38604824D01*
X74054315Y38608011D01*
X74058972Y38609939D01*
X74069314Y38620282D01*
X74080620Y38629531D01*
X74082999Y38633967D01*
X74086562Y38637529D01*
X74092157Y38651038D01*
X74099065Y38663915D01*
X74099565Y38668926D01*
X74101493Y38673578D01*
X74101492Y38688194D01*
X74102947Y38702739D01*
X74101492Y38707561D01*
X74101492Y38712596D01*
X74095897Y38726103D01*
X74091676Y38740094D01*
X74088489Y38743990D01*
X74086561Y38748644D01*
X74074124Y38763797D01*
X74014170Y38823750D01*
X73960557Y38930978D01*
X73960557Y39240908D01*
X74014170Y39348135D01*
X74062650Y39396615D01*
X74169878Y39450229D01*
X74479806Y39450229D01*
X74587034Y39396615D01*
X74635514Y39348135D01*
X74689128Y39240908D01*
X74689128Y38930978D01*
X74635514Y38823750D01*
X74575561Y38763797D01*
X74563124Y38748644D01*
X74548193Y38712596D01*
X74548192Y38673578D01*
X74563123Y38637529D01*
X74590713Y38609939D01*
X74626761Y38595008D01*
X74665779Y38595007D01*
X74701828Y38609938D01*
X74716981Y38622375D01*
X74788410Y38693803D01*
X74794705Y38701473D01*
X74796700Y38703203D01*
X74798591Y38706209D01*
X74800847Y38708956D01*
X74801858Y38711398D01*
X74807143Y38719793D01*
X74878571Y38862650D01*
X74885577Y38880959D01*
X74885831Y38884542D01*
X74887207Y38887862D01*
X74889128Y38907371D01*
X74889128Y39264514D01*
X74887207Y39284023D01*
X74885831Y39287344D01*
X74885577Y39290926D01*
X74878571Y39309235D01*
X74807143Y39452092D01*
X74801857Y39460489D01*
X74800847Y39462928D01*
X74798593Y39465675D01*
X74796700Y39468682D01*
X74794705Y39470412D01*
X74788411Y39478082D01*
X74716982Y39549511D01*
X74709315Y39555803D01*
X74707583Y39557800D01*
X74704571Y39559696D01*
X74701828Y39561947D01*
X74699390Y39562957D01*
X74690992Y39568243D01*
X74548136Y39639672D01*
X74529827Y39646678D01*
X74526243Y39646933D01*
X74522923Y39648308D01*
X74503414Y39650229D01*
X74146271Y39650229D01*
X74126762Y39648308D01*
X74123441Y39646933D01*
X74119858Y39646678D01*
X74101549Y39639672D01*
X73958692Y39568243D01*
X73950293Y39562957D01*
X73947857Y39561947D01*
X73945113Y39559696D01*
X73942102Y39557800D01*
X73940369Y39555803D01*
X73932703Y39549511D01*
X73861274Y39478082D01*
X73854982Y39470416D01*
X73852985Y39468683D01*
X73851089Y39465672D01*
X73848838Y39462928D01*
X73847828Y39460491D01*
X73842542Y39452092D01*
X73771114Y39309235D01*
X73764108Y39290927D01*
X73763853Y39287344D01*
X73762478Y39284023D01*
X73760557Y39264514D01*
X73760557Y38907371D01*
X73762478Y38887862D01*
X73763853Y38884542D01*
X73764108Y38880958D01*
X73771114Y38862650D01*
X73795237Y38814403D01*
X73389128Y38855014D01*
X73389128Y39478800D01*
X73387207Y39498309D01*
X73372275Y39534357D01*
X73344685Y39561947D01*
X73308637Y39576879D01*
X73269619Y39576879D01*
X73233571Y39561947D01*
X73205981Y39534357D01*
X73191049Y39498309D01*
X73189128Y39478800D01*
X73022461Y39478800D01*
X73022461Y39816896D01*
X75055795Y39816896D01*
X75055795Y34071198D01*
G37*
D12*
%TO.P,M1,1*%
%TO.N,GND*%
X10160000Y50800000D03*
%TD*%
%TO.P,M2,1*%
%TO.N,GND*%
X71120000Y50800000D03*
%TD*%
%TO.P,M3,1*%
%TO.N,GND*%
X10160000Y10160000D03*
%TD*%
%TO.P,M4,1*%
%TO.N,GND*%
X71120000Y10160000D03*
%TD*%
D13*
%TO.P,TP3,1,1*%
%TO.N,Net-(U2--)*%
X25439200Y20265600D03*
%TD*%
%TO.P,TP2,1,1*%
%TO.N,GNDA*%
X25439200Y22602400D03*
%TD*%
%TO.P,TP1,1,1*%
%TO.N,Net-(U6--)*%
X25693200Y16506400D03*
%TD*%
D14*
%TO.P,J1,1*%
%TO.N,GND*%
X22860000Y53340000D03*
%TO.P,J1,2*%
X22860000Y50800000D03*
%TO.P,J1,3*%
%TO.N,+5VD*%
X25400000Y53340000D03*
%TO.P,J1,4*%
X25400000Y50800000D03*
%TO.P,J1,5*%
%TO.N,/interface/3v3*%
X27940000Y53340000D03*
%TO.P,J1,6*%
X27940000Y50800000D03*
%TO.P,J1,7*%
%TO.N,Net-(J1-Pad7)*%
X30480000Y53340000D03*
%TO.P,J1,8*%
X30480000Y50800000D03*
%TO.P,J1,9*%
%TO.N,/interface/A0*%
X33020000Y53340000D03*
%TO.P,J1,10*%
%TO.N,unconnected-(J1-Pad10)*%
X33020000Y50800000D03*
%TO.P,J1,11*%
%TO.N,/interface/A1*%
X35560000Y53340000D03*
%TO.P,J1,12*%
%TO.N,/interface/RX*%
X35560000Y50800000D03*
%TO.P,J1,13*%
%TO.N,/interface/B1*%
X38100000Y53340000D03*
%TO.P,J1,14*%
%TO.N,/interface/TX*%
X38100000Y50800000D03*
%TO.P,J1,15*%
%TO.N,/interface/B0*%
X40640000Y53340000D03*
%TO.P,J1,16*%
%TO.N,/interface/SOCKET_MOSI*%
X40640000Y50800000D03*
%TO.P,J1,17*%
%TO.N,/interface/C1*%
X43180000Y53340000D03*
%TO.P,J1,18*%
%TO.N,/interface/SOCKET_MISO*%
X43180000Y50800000D03*
%TO.P,J1,19*%
%TO.N,/interface/C0*%
X45720000Y53340000D03*
%TO.P,J1,20*%
%TO.N,/interface/SOCKET_SCLK*%
X45720000Y50800000D03*
%TO.P,J1,21*%
%TO.N,GND*%
X48260000Y53340000D03*
%TO.P,J1,22*%
X48260000Y50800000D03*
%TO.P,J1,23*%
%TO.N,/interface/SCL*%
X50800000Y53340000D03*
%TO.P,J1,24*%
X50800000Y50800000D03*
%TO.P,J1,25*%
%TO.N,VDD*%
X53340000Y53340000D03*
%TO.P,J1,26*%
X53340000Y50800000D03*
%TO.P,J1,27*%
%TO.N,/interface/SDA*%
X55880000Y53340000D03*
%TO.P,J1,28*%
X55880000Y50800000D03*
%TO.P,J1,29*%
%TO.N,GND*%
X58420000Y53340000D03*
%TO.P,J1,30*%
X58420000Y50800000D03*
%TD*%
D15*
%TO.N,GND*%
X17209600Y34845200D03*
X13120200Y21992800D03*
X11367600Y32813200D03*
X12561400Y36470800D03*
X68492200Y37690000D03*
X69469000Y26771600D03*
X18759000Y30948800D03*
X39124728Y43574825D03*
X26339552Y24419848D03*
X21240000Y31351375D03*
X13792200Y19608800D03*
X35243600Y48713600D03*
X17387400Y40382400D03*
X43337200Y48476000D03*
X10312400Y26746200D03*
X29909600Y48205600D03*
X15954550Y27049233D03*
X13411200Y15367000D03*
X17514400Y38807600D03*
X13487400Y26568400D03*
X15544800Y20777200D03*
X19775000Y33194200D03*
%TO.N,GNDA*%
X50165000Y30505400D03*
X51418300Y25823100D03*
X47675800Y24942800D03*
X25820200Y35708800D03*
X54229000Y23012400D03*
X37806600Y25320200D03*
X38887400Y19050000D03*
X24931200Y23669200D03*
X26353600Y28342798D03*
X35382200Y20243800D03*
%TO.N,Net-(U6--)*%
X26252000Y17827000D03*
%TO.N,/PIN_detector/REF*%
X38756600Y27072800D03*
X33096200Y25654000D03*
%TO.N,VDD*%
X52654200Y42519600D03*
X58814800Y42541400D03*
%TO.N,/interface/C0*%
X40044200Y44497200D03*
%TO.N,/interface/SDA*%
X55893800Y44344800D03*
X69528500Y43628500D03*
X71120006Y29718000D03*
%TO.N,Net-(U2--)*%
X26353600Y20527000D03*
%TO.N,/analogue_backend/Set*%
X8700600Y18970200D03*
X10935798Y45741800D03*
%TO.N,/analogue_backend/SDO*%
X16600000Y25650400D03*
X20687939Y26156939D03*
%TO.N,+5VD*%
X12584994Y17269571D03*
X14732000Y29235400D03*
X10505400Y18563800D03*
X14196386Y22957709D03*
X15431600Y41550800D03*
X20765386Y46859186D03*
%TO.N,+3.3V*%
X40719797Y47969882D03*
X15798800Y32461200D03*
X34748309Y44815698D03*
X17206106Y48886960D03*
%TD*%
D16*
%TO.N,GND*%
X26339552Y24038848D02*
X26339552Y24419848D01*
X26582200Y23796200D02*
X26339552Y24038848D01*
D17*
%TO.N,GNDA*%
X37693600Y20243800D02*
X38887400Y19050000D01*
X50165000Y26314400D02*
X50165000Y30505400D01*
X24931200Y23669200D02*
X24931200Y26920398D01*
X24931200Y23669200D02*
X24931200Y23110400D01*
X51418300Y25823100D02*
X50952400Y26289000D01*
X37806600Y25320200D02*
X37806600Y20356800D01*
X35382200Y20243800D02*
X37693600Y20243800D01*
X26379000Y28368198D02*
X26353600Y28342798D01*
X49022000Y26289000D02*
X47675800Y24942800D01*
X26379000Y35150000D02*
X26379000Y28368198D01*
X24931200Y26920398D02*
X26353600Y28342798D01*
X37806600Y20356800D02*
X37693600Y20243800D01*
X24931200Y23110400D02*
X25439200Y22602400D01*
X54229000Y23012400D02*
X51418300Y25823100D01*
X25820200Y35708800D02*
X26379000Y35150000D01*
X50952400Y26289000D02*
X49022000Y26289000D01*
D18*
%TO.N,Net-(U6--)*%
X25693200Y16506400D02*
X26252000Y17065200D01*
X26252000Y17065200D02*
X26252000Y17827000D01*
D17*
%TO.N,/PIN_detector/REF*%
X33096200Y25654000D02*
X34515000Y27072800D01*
X34515000Y27072800D02*
X38756600Y27072800D01*
D19*
%TO.N,VDD*%
X52642600Y42531200D02*
X52654200Y42519600D01*
X52642600Y50102600D02*
X52642600Y42531200D01*
X53340000Y50800000D02*
X52642600Y50102600D01*
X58793000Y42519600D02*
X58814800Y42541400D01*
X52654200Y42519600D02*
X58793000Y42519600D01*
D20*
%TO.N,/interface/C0*%
X42711200Y44497200D02*
X40044200Y44497200D01*
X44413000Y46199000D02*
X42711200Y44497200D01*
X44413000Y52033000D02*
X44413000Y46199000D01*
X45720000Y53340000D02*
X44413000Y52033000D01*
D16*
%TO.N,/interface/SDA*%
X55880000Y44358600D02*
X55893800Y44344800D01*
D20*
X55885000Y50800000D02*
X55885000Y44353600D01*
X69528500Y43628500D02*
X71120006Y42036994D01*
X71120006Y38100000D02*
X71120006Y29718000D01*
X55893800Y44344800D02*
X68812200Y44344800D01*
X55880000Y50800000D02*
X55880000Y44358600D01*
X68812200Y44344800D02*
X69528500Y43628500D01*
X55885000Y44353600D02*
X55893800Y44344800D01*
X71120006Y42036994D02*
X71120006Y38100000D01*
D18*
%TO.N,Net-(U2--)*%
X26092200Y20265600D02*
X26353600Y20527000D01*
X25439200Y20265600D02*
X26092200Y20265600D01*
D20*
%TO.N,/analogue_backend/Set*%
X8751400Y19021000D02*
X8700600Y18970200D01*
X8751400Y43557402D02*
X8751400Y19021000D01*
X10935798Y45741800D02*
X8751400Y43557402D01*
D16*
%TO.N,/analogue_backend/SDO*%
X20687939Y26156939D02*
X20027539Y26156939D01*
X20027539Y26156939D02*
X19521000Y25650400D01*
X19521000Y25650400D02*
X16600000Y25650400D01*
D20*
%TO.N,+5VD*%
X12560229Y17269571D02*
X11266000Y18563800D01*
X11266000Y18563800D02*
X10505400Y18563800D01*
D16*
X12584994Y17269571D02*
X12560229Y17269571D01*
D20*
X14224000Y21521800D02*
X11266000Y18563800D01*
X20739986Y46859186D02*
X20765386Y46859186D01*
X14732000Y23493323D02*
X14732000Y29235400D01*
X15431600Y41550800D02*
X20739986Y46859186D01*
X14732000Y40851200D02*
X15431600Y41550800D01*
X14196386Y22957709D02*
X14732000Y23493323D01*
X14732000Y29235400D02*
X14732000Y40851200D01*
X14196386Y22957709D02*
X14196386Y22743948D01*
X14224000Y22716334D02*
X14224000Y21521800D01*
X14196386Y22743948D02*
X14224000Y22716334D01*
%TO.N,+3.3V*%
X22086400Y47697600D02*
X22086400Y47342000D01*
X22086400Y47342000D02*
X22086400Y46757800D01*
X37594098Y44815698D02*
X40719797Y47941397D01*
X40719797Y47941397D02*
X40719797Y47969882D01*
X34748309Y44815698D02*
X23991400Y44815698D01*
X20897040Y48886960D02*
X22086400Y47697600D01*
X22086400Y46859400D02*
X22086400Y46720698D01*
X17206106Y48886960D02*
X20897040Y48886960D01*
X15798800Y40470200D02*
X15798800Y32461200D01*
X22086400Y46859400D02*
X22086400Y47342000D01*
X22086400Y46757800D02*
X15798800Y40470200D01*
X22086400Y46720698D02*
X23991400Y44815698D01*
X22086400Y46681600D02*
X22086400Y46859400D01*
X34748309Y44815698D02*
X37594098Y44815698D01*
%TD*%
%TA.AperFunction,Conductor*%
%TO.N,GND*%
G36*
X75387621Y55105498D02*
G01*
X75434114Y55051842D01*
X75445500Y54999500D01*
X75445500Y5960501D01*
X75425498Y5892380D01*
X75371842Y5845887D01*
X75319500Y5834501D01*
X5960500Y5834501D01*
X5892379Y5854503D01*
X5845886Y5908159D01*
X5834500Y5960501D01*
X5834500Y19049045D01*
X7900100Y19049045D01*
X7900100Y18891356D01*
X7915324Y18814821D01*
X7930863Y18736703D01*
X7991206Y18591021D01*
X8078811Y18459911D01*
X8190311Y18348411D01*
X8321421Y18260806D01*
X8467103Y18200463D01*
X8621758Y18169700D01*
X8621759Y18169700D01*
X8779441Y18169700D01*
X8779442Y18169700D01*
X8934097Y18200463D01*
X9079779Y18260806D01*
X9210889Y18348411D01*
X9322389Y18459911D01*
X9409994Y18591021D01*
X9431379Y18642650D01*
X9704900Y18642650D01*
X9704900Y18484956D01*
X9712095Y18448787D01*
X9735663Y18330303D01*
X9796006Y18184621D01*
X9883611Y18053511D01*
X9995111Y17942011D01*
X10126221Y17854406D01*
X10271903Y17794063D01*
X10426558Y17763300D01*
X10426559Y17763300D01*
X10584241Y17763300D01*
X10584242Y17763300D01*
X10738897Y17794063D01*
X10884579Y17854406D01*
X10922221Y17879559D01*
X10989973Y17900775D01*
X11058440Y17881994D01*
X11081320Y17863890D01*
X11764918Y17180292D01*
X11798944Y17117980D01*
X11799402Y17115780D01*
X11815257Y17036072D01*
X11815258Y17036071D01*
X11875600Y16890392D01*
X11963205Y16759282D01*
X12074705Y16647782D01*
X12205815Y16560177D01*
X12351497Y16499834D01*
X12506152Y16469071D01*
X12506153Y16469071D01*
X12663835Y16469071D01*
X12663836Y16469071D01*
X12818491Y16499834D01*
X12964173Y16560177D01*
X13016430Y16595094D01*
X24792700Y16595094D01*
X24792700Y16595091D01*
X24792700Y16417709D01*
X24827306Y16243734D01*
X24895187Y16079853D01*
X24961035Y15981305D01*
X24993735Y15932366D01*
X24993740Y15932360D01*
X25119159Y15806941D01*
X25119165Y15806936D01*
X25266653Y15708387D01*
X25430534Y15640506D01*
X25604509Y15605900D01*
X25604510Y15605900D01*
X25781890Y15605900D01*
X25781891Y15605900D01*
X25955866Y15640506D01*
X26119747Y15708387D01*
X26267235Y15806936D01*
X26392664Y15932365D01*
X26491213Y16079853D01*
X26559094Y16243734D01*
X26593700Y16417709D01*
X26593700Y16505474D01*
X26613702Y16573595D01*
X26630605Y16594570D01*
X26631129Y16595094D01*
X26732520Y16696484D01*
X26811577Y16833416D01*
X26852501Y16986143D01*
X26852501Y17144258D01*
X26852501Y17151975D01*
X26852500Y17151993D01*
X26852500Y17246629D01*
X26872502Y17314750D01*
X26873735Y17316631D01*
X26873787Y17316710D01*
X26873789Y17316711D01*
X26961394Y17447821D01*
X27021737Y17593503D01*
X27052500Y17748158D01*
X27052500Y17905842D01*
X27037959Y17978943D01*
X73107928Y17978943D01*
X74819686Y17978943D01*
X74819686Y24047845D01*
X73107928Y24047845D01*
X73107928Y17978943D01*
X27037959Y17978943D01*
X27021737Y18060497D01*
X26961394Y18206179D01*
X26873789Y18337289D01*
X26762289Y18448789D01*
X26631179Y18536394D01*
X26485497Y18596737D01*
X26330844Y18627500D01*
X26330842Y18627500D01*
X26173158Y18627500D01*
X26173155Y18627500D01*
X26018502Y18596737D01*
X26018497Y18596735D01*
X25872820Y18536394D01*
X25741715Y18448792D01*
X25741708Y18448787D01*
X25630213Y18337292D01*
X25630208Y18337285D01*
X25542606Y18206180D01*
X25482265Y18060503D01*
X25482263Y18060498D01*
X25451500Y17905845D01*
X25451500Y17748156D01*
X25482263Y17593503D01*
X25482265Y17593498D01*
X25504688Y17539362D01*
X25512276Y17468773D01*
X25480495Y17405286D01*
X25435270Y17377037D01*
X25436253Y17374663D01*
X25266653Y17304413D01*
X25119165Y17205865D01*
X25119159Y17205860D01*
X24993740Y17080441D01*
X24993735Y17080435D01*
X24895187Y16932947D01*
X24827308Y16769072D01*
X24827306Y16769067D01*
X24792700Y16595094D01*
X13016430Y16595094D01*
X13095283Y16647782D01*
X13206783Y16759282D01*
X13294388Y16890392D01*
X13354731Y17036074D01*
X13385494Y17190729D01*
X13385494Y17348413D01*
X13354731Y17503068D01*
X13294388Y17648750D01*
X13206783Y17779860D01*
X13095283Y17891360D01*
X12964173Y17978965D01*
X12818491Y18039308D01*
X12676958Y18067461D01*
X12614048Y18100369D01*
X12612445Y18101945D01*
X12239685Y18474705D01*
X12205659Y18537017D01*
X12210724Y18607832D01*
X12239685Y18652895D01*
X13425844Y19839054D01*
X13941084Y20354294D01*
X24538700Y20354294D01*
X24538700Y20176907D01*
X24544486Y20147821D01*
X24573306Y20002934D01*
X24641187Y19839053D01*
X24652007Y19822860D01*
X24739735Y19691566D01*
X24739740Y19691560D01*
X24865159Y19566141D01*
X24865165Y19566136D01*
X25012653Y19467587D01*
X25176534Y19399706D01*
X25350509Y19365100D01*
X25350510Y19365100D01*
X25527890Y19365100D01*
X25527891Y19365100D01*
X25701866Y19399706D01*
X25865747Y19467587D01*
X26013235Y19566136D01*
X26075294Y19628196D01*
X26131733Y19660794D01*
X26147777Y19665099D01*
X26171257Y19665099D01*
X26323985Y19706023D01*
X26344560Y19717903D01*
X26360558Y19722195D01*
X26375812Y19721838D01*
X26393213Y19726500D01*
X26432441Y19726500D01*
X26432442Y19726500D01*
X26587097Y19757263D01*
X26732779Y19817606D01*
X26863889Y19905211D01*
X26975389Y20016711D01*
X27062994Y20147821D01*
X27123337Y20293503D01*
X27129134Y20322645D01*
X34581700Y20322645D01*
X34581700Y20164956D01*
X34611187Y20016716D01*
X34612463Y20010303D01*
X34672806Y19864621D01*
X34760411Y19733511D01*
X34871911Y19622011D01*
X35003021Y19534406D01*
X35148703Y19474063D01*
X35303358Y19443300D01*
X35303359Y19443300D01*
X35461041Y19443300D01*
X35461042Y19443300D01*
X35615697Y19474063D01*
X35759697Y19533710D01*
X35807913Y19543300D01*
X37351253Y19543300D01*
X37419374Y19523298D01*
X37440348Y19506395D01*
X38091045Y18855698D01*
X38118359Y18814821D01*
X38119075Y18813093D01*
X38178006Y18670821D01*
X38265611Y18539711D01*
X38377111Y18428211D01*
X38508221Y18340606D01*
X38653903Y18280263D01*
X38808558Y18249500D01*
X38808559Y18249500D01*
X38966241Y18249500D01*
X38966242Y18249500D01*
X39120897Y18280263D01*
X39266579Y18340606D01*
X39397689Y18428211D01*
X39509189Y18539711D01*
X39596794Y18670821D01*
X39657137Y18816503D01*
X39687900Y18971158D01*
X39687900Y19128842D01*
X39657137Y19283497D01*
X39596794Y19429179D01*
X39509189Y19560289D01*
X39397689Y19671789D01*
X39266579Y19759394D01*
X39213137Y19781531D01*
X39122579Y19819041D01*
X39081702Y19846355D01*
X38544005Y20384052D01*
X38509979Y20446364D01*
X38507100Y20473147D01*
X38507100Y24894486D01*
X38508752Y24902796D01*
X38507822Y24907955D01*
X38516691Y24942704D01*
X38549390Y25021645D01*
X46875300Y25021645D01*
X46875300Y25021642D01*
X46875300Y24863958D01*
X46906063Y24709303D01*
X46966406Y24563621D01*
X47054011Y24432511D01*
X47165511Y24321011D01*
X47296621Y24233406D01*
X47442303Y24173063D01*
X47596958Y24142300D01*
X47596959Y24142300D01*
X47754641Y24142300D01*
X47754642Y24142300D01*
X47909297Y24173063D01*
X48054979Y24233406D01*
X48186089Y24321011D01*
X48297589Y24432511D01*
X48385194Y24563621D01*
X48444840Y24707623D01*
X48472149Y24748494D01*
X49275253Y25551596D01*
X49337565Y25585621D01*
X49364348Y25588500D01*
X50564829Y25588500D01*
X50632950Y25568498D01*
X50679443Y25514842D01*
X50681238Y25510718D01*
X50708906Y25443921D01*
X50796511Y25312811D01*
X50908011Y25201311D01*
X51039121Y25113706D01*
X51183120Y25054060D01*
X51223996Y25026747D01*
X53432645Y22818098D01*
X53459959Y22777221D01*
X53495634Y22691094D01*
X53519606Y22633221D01*
X53607211Y22502111D01*
X53718711Y22390611D01*
X53849821Y22303006D01*
X53995503Y22242663D01*
X54150158Y22211900D01*
X54150159Y22211900D01*
X54307841Y22211900D01*
X54307842Y22211900D01*
X54462497Y22242663D01*
X54608179Y22303006D01*
X54739289Y22390611D01*
X54850789Y22502111D01*
X54938394Y22633221D01*
X54998737Y22778903D01*
X55029500Y22933558D01*
X55029500Y23091242D01*
X54998737Y23245897D01*
X54985974Y23276711D01*
X54963131Y23331859D01*
X54957381Y23345739D01*
X54945209Y23375126D01*
X58042900Y23375126D01*
X58042900Y23157674D01*
X58076917Y22942898D01*
X58144114Y22736088D01*
X58224394Y22578529D01*
X58242837Y22542333D01*
X58370652Y22366411D01*
X58524410Y22212653D01*
X58575061Y22175853D01*
X58700336Y22084835D01*
X58894088Y21986114D01*
X59100898Y21918917D01*
X59315674Y21884900D01*
X59315677Y21884900D01*
X59533123Y21884900D01*
X59533126Y21884900D01*
X59747902Y21918917D01*
X59954712Y21986114D01*
X60148464Y22084835D01*
X60324387Y22212651D01*
X60478149Y22366413D01*
X60605965Y22542336D01*
X60704686Y22736088D01*
X60771883Y22942898D01*
X60805900Y23157674D01*
X60805900Y23375126D01*
X60771883Y23589902D01*
X60704686Y23796712D01*
X60605965Y23990464D01*
X60530077Y24094914D01*
X60478147Y24166390D01*
X60324389Y24320148D01*
X60148467Y24447963D01*
X60148466Y24447964D01*
X60148464Y24447965D01*
X59954712Y24546686D01*
X59747902Y24613883D01*
X59533126Y24647900D01*
X59315674Y24647900D01*
X59100898Y24613883D01*
X59100895Y24613883D01*
X59100894Y24613882D01*
X58894088Y24546686D01*
X58894086Y24546685D01*
X58700332Y24447963D01*
X58524410Y24320148D01*
X58370652Y24166390D01*
X58242837Y23990468D01*
X58144115Y23796714D01*
X58144114Y23796712D01*
X58077065Y23590356D01*
X58076917Y23589902D01*
X58042900Y23375126D01*
X54945209Y23375126D01*
X54938394Y23391579D01*
X54850789Y23522689D01*
X54739289Y23634189D01*
X54608179Y23721794D01*
X54544803Y23748045D01*
X54464179Y23781441D01*
X54423302Y23808755D01*
X52214653Y26017404D01*
X52187339Y26058281D01*
X52179131Y26078097D01*
X52127694Y26202279D01*
X52040089Y26333389D01*
X51928589Y26444889D01*
X51797479Y26532494D01*
X51724999Y26562516D01*
X51653479Y26592141D01*
X51612602Y26619455D01*
X51398947Y26833110D01*
X51398943Y26833114D01*
X51284211Y26909775D01*
X51169140Y26957439D01*
X51156731Y26962579D01*
X51156728Y26962580D01*
X51021397Y26989500D01*
X51021394Y26989500D01*
X51021393Y26989500D01*
X50991500Y26989500D01*
X50923379Y27009502D01*
X50876886Y27063158D01*
X50865500Y27115500D01*
X50865500Y28375126D01*
X58042900Y28375126D01*
X58042900Y28157674D01*
X58076917Y27942898D01*
X58144114Y27736088D01*
X58240742Y27546444D01*
X58242837Y27542333D01*
X58370652Y27366411D01*
X58524410Y27212653D01*
X58524413Y27212651D01*
X58700336Y27084835D01*
X58894088Y26986114D01*
X59100898Y26918917D01*
X59315674Y26884900D01*
X59315677Y26884900D01*
X59533123Y26884900D01*
X59533126Y26884900D01*
X59747902Y26918917D01*
X59954712Y26986114D01*
X60148464Y27084835D01*
X60324387Y27212651D01*
X60478149Y27366413D01*
X60605965Y27542336D01*
X60704686Y27736088D01*
X60771883Y27942898D01*
X60805900Y28157674D01*
X60805900Y28375126D01*
X60771883Y28589902D01*
X60704686Y28796712D01*
X60605965Y28990464D01*
X60562110Y29050825D01*
X60478147Y29166390D01*
X60324389Y29320148D01*
X60148467Y29447963D01*
X60148466Y29447964D01*
X60148464Y29447965D01*
X59954712Y29546686D01*
X59747902Y29613883D01*
X59533126Y29647900D01*
X59315674Y29647900D01*
X59100898Y29613883D01*
X59100895Y29613883D01*
X59100894Y29613882D01*
X58894088Y29546686D01*
X58894086Y29546685D01*
X58700332Y29447963D01*
X58524410Y29320148D01*
X58370652Y29166390D01*
X58242837Y28990468D01*
X58242835Y28990464D01*
X58144114Y28796712D01*
X58076917Y28589902D01*
X58042900Y28375126D01*
X50865500Y28375126D01*
X50865500Y30079686D01*
X50875091Y30127904D01*
X50901987Y30192837D01*
X50934737Y30271903D01*
X50965500Y30426558D01*
X50965500Y30584242D01*
X50934737Y30738897D01*
X50874394Y30884579D01*
X50786789Y31015689D01*
X50675289Y31127189D01*
X50544179Y31214794D01*
X50398497Y31275137D01*
X50243844Y31305900D01*
X50243842Y31305900D01*
X50086158Y31305900D01*
X50086155Y31305900D01*
X49931502Y31275137D01*
X49931497Y31275135D01*
X49785820Y31214794D01*
X49654715Y31127192D01*
X49654708Y31127187D01*
X49543213Y31015692D01*
X49543208Y31015685D01*
X49455606Y30884580D01*
X49395265Y30738903D01*
X49395263Y30738898D01*
X49364500Y30584245D01*
X49364500Y30426556D01*
X49395263Y30271903D01*
X49395265Y30271898D01*
X49454909Y30127904D01*
X49464500Y30079686D01*
X49464500Y27115500D01*
X49444498Y27047379D01*
X49390842Y27000886D01*
X49338500Y26989500D01*
X48953001Y26989500D01*
X48844591Y26967936D01*
X48844591Y26967935D01*
X48817671Y26962580D01*
X48805260Y26957439D01*
X48690189Y26909775D01*
X48625174Y26866333D01*
X48618977Y26862193D01*
X48618976Y26862192D01*
X48575455Y26833114D01*
X47481495Y25739154D01*
X47440619Y25711840D01*
X47296619Y25652193D01*
X47165515Y25564592D01*
X47165508Y25564587D01*
X47054013Y25453092D01*
X47054008Y25453085D01*
X46966406Y25321980D01*
X46906065Y25176303D01*
X46906063Y25176298D01*
X46875300Y25021645D01*
X38549390Y25021645D01*
X38571925Y25076050D01*
X38571925Y25076051D01*
X38576333Y25086694D01*
X38576337Y25086703D01*
X38607100Y25241358D01*
X38607100Y25399042D01*
X38576337Y25553697D01*
X38515994Y25699379D01*
X38428389Y25830489D01*
X38316889Y25941989D01*
X38185779Y26029594D01*
X38158489Y26040898D01*
X38040102Y26089935D01*
X38040097Y26089937D01*
X37887454Y26120300D01*
X37887453Y26120300D01*
X37885442Y26120700D01*
X37727758Y26120700D01*
X37725747Y26120300D01*
X37725746Y26120300D01*
X37573102Y26089937D01*
X37573097Y26089935D01*
X37427420Y26029594D01*
X37296315Y25941992D01*
X37296308Y25941987D01*
X37184813Y25830492D01*
X37184808Y25830485D01*
X37097206Y25699380D01*
X37036865Y25553703D01*
X37036863Y25553698D01*
X37006100Y25399045D01*
X37006100Y25241356D01*
X37036863Y25086703D01*
X37036865Y25086698D01*
X37096509Y24942704D01*
X37106100Y24894486D01*
X37106100Y21070300D01*
X37086098Y21002179D01*
X37032442Y20955686D01*
X36980100Y20944300D01*
X35807913Y20944300D01*
X35759697Y20953891D01*
X35615697Y21013537D01*
X35461044Y21044300D01*
X35461042Y21044300D01*
X35303358Y21044300D01*
X35303355Y21044300D01*
X35148702Y21013537D01*
X35148697Y21013535D01*
X35003020Y20953194D01*
X34871915Y20865592D01*
X34871908Y20865587D01*
X34760413Y20754092D01*
X34760408Y20754085D01*
X34672806Y20622980D01*
X34612465Y20477303D01*
X34612463Y20477298D01*
X34581700Y20322645D01*
X27129134Y20322645D01*
X27154100Y20448158D01*
X27154100Y20605842D01*
X27123337Y20760497D01*
X27062994Y20906179D01*
X26975389Y21037289D01*
X26863889Y21148789D01*
X26732779Y21236394D01*
X26587097Y21296737D01*
X26432444Y21327500D01*
X26432442Y21327500D01*
X26274758Y21327500D01*
X26274755Y21327500D01*
X26120102Y21296737D01*
X26120097Y21296735D01*
X25974421Y21236394D01*
X25843306Y21148786D01*
X25840231Y21146262D01*
X25838307Y21145446D01*
X25838165Y21145350D01*
X25838146Y21145378D01*
X25774881Y21118515D01*
X25712091Y21127259D01*
X25701871Y21131492D01*
X25701866Y21131494D01*
X25527893Y21166100D01*
X25527891Y21166100D01*
X25350509Y21166100D01*
X25350506Y21166100D01*
X25176533Y21131494D01*
X25176528Y21131492D01*
X25012653Y21063613D01*
X24865165Y20965065D01*
X24865159Y20965060D01*
X24739740Y20839641D01*
X24739735Y20839635D01*
X24641187Y20692147D01*
X24573308Y20528272D01*
X24573306Y20528267D01*
X24538700Y20354294D01*
X13941084Y20354294D01*
X14709858Y21123067D01*
X14778312Y21225515D01*
X14825463Y21339349D01*
X14849500Y21460194D01*
X14849500Y21583407D01*
X14849500Y22456081D01*
X14869502Y22524202D01*
X14870736Y22526084D01*
X14879305Y22538908D01*
X14905780Y22578530D01*
X14966123Y22724212D01*
X14988125Y22834831D01*
X15021032Y22897738D01*
X15022541Y22899276D01*
X15217858Y23094590D01*
X15286312Y23197038D01*
X15316801Y23270645D01*
X15333463Y23310871D01*
X15340333Y23345411D01*
X15357501Y23431717D01*
X15357501Y23554930D01*
X15357500Y23554936D01*
X15357500Y23748045D01*
X24130700Y23748045D01*
X24130700Y23590356D01*
X24161463Y23435703D01*
X24161465Y23435698D01*
X24221109Y23291704D01*
X24230700Y23243486D01*
X24230700Y23041403D01*
X24252153Y22933556D01*
X24257620Y22906072D01*
X24310425Y22778589D01*
X24387086Y22663857D01*
X24387090Y22663853D01*
X24512035Y22538908D01*
X24546061Y22476596D01*
X24546519Y22474396D01*
X24573306Y22339732D01*
X24573307Y22339731D01*
X24641187Y22175853D01*
X24702002Y22084838D01*
X24739735Y22028366D01*
X24739740Y22028360D01*
X24865159Y21902941D01*
X24865165Y21902936D01*
X25012653Y21804387D01*
X25176534Y21736506D01*
X25350509Y21701900D01*
X25350510Y21701900D01*
X25527890Y21701900D01*
X25527891Y21701900D01*
X25701866Y21736506D01*
X25865747Y21804387D01*
X26013235Y21902936D01*
X26138664Y22028365D01*
X26237213Y22175853D01*
X26305094Y22339734D01*
X26339700Y22513709D01*
X26339700Y22691091D01*
X26305094Y22865066D01*
X26237213Y23028947D01*
X26138664Y23176435D01*
X26138659Y23176441D01*
X26013240Y23301860D01*
X26013234Y23301865D01*
X25865746Y23400414D01*
X25865742Y23400416D01*
X25802531Y23426599D01*
X25747250Y23471147D01*
X25724830Y23538511D01*
X25727171Y23567590D01*
X25729539Y23579496D01*
X25731700Y23590358D01*
X25731700Y23748042D01*
X25700937Y23902697D01*
X25641290Y24046697D01*
X25631700Y24094914D01*
X25631700Y25732845D01*
X32295700Y25732845D01*
X32295700Y25575156D01*
X32308518Y25510718D01*
X32326463Y25420503D01*
X32386806Y25274821D01*
X32474411Y25143711D01*
X32585911Y25032211D01*
X32717021Y24944606D01*
X32862703Y24884263D01*
X33017358Y24853500D01*
X33017359Y24853500D01*
X33175041Y24853500D01*
X33175042Y24853500D01*
X33329697Y24884263D01*
X33475379Y24944606D01*
X33606489Y25032211D01*
X33717989Y25143711D01*
X33805594Y25274821D01*
X33865240Y25418823D01*
X33892549Y25459694D01*
X34768253Y26335396D01*
X34830565Y26369421D01*
X34857348Y26372300D01*
X38330887Y26372300D01*
X38379102Y26362710D01*
X38523103Y26303063D01*
X38677758Y26272300D01*
X38677759Y26272300D01*
X38835441Y26272300D01*
X38835442Y26272300D01*
X38990097Y26303063D01*
X39135779Y26363406D01*
X39266889Y26451011D01*
X39378389Y26562511D01*
X39465994Y26693621D01*
X39526337Y26839303D01*
X39557100Y26993958D01*
X39557100Y27151642D01*
X39526337Y27306297D01*
X39465994Y27451979D01*
X39378389Y27583089D01*
X39266889Y27694589D01*
X39135779Y27782194D01*
X38990097Y27842537D01*
X38835444Y27873300D01*
X38835442Y27873300D01*
X38677758Y27873300D01*
X38677755Y27873300D01*
X38523102Y27842537D01*
X38523097Y27842535D01*
X38454295Y27814037D01*
X38379102Y27782891D01*
X38330887Y27773300D01*
X34446001Y27773300D01*
X34337590Y27751735D01*
X34337589Y27751736D01*
X34310678Y27746382D01*
X34310671Y27746380D01*
X34183188Y27693575D01*
X34068455Y27616913D01*
X34068449Y27616908D01*
X32901895Y26450354D01*
X32861019Y26423040D01*
X32752219Y26377974D01*
X32717053Y26363407D01*
X32717019Y26363393D01*
X32585915Y26275792D01*
X32585908Y26275787D01*
X32474413Y26164292D01*
X32474408Y26164285D01*
X32386806Y26033180D01*
X32326465Y25887503D01*
X32326463Y25887498D01*
X32295700Y25732845D01*
X25631700Y25732845D01*
X25631700Y26578052D01*
X25651702Y26646173D01*
X25668599Y26667142D01*
X26547906Y27546449D01*
X26588777Y27573758D01*
X26732779Y27633404D01*
X26863889Y27721009D01*
X26975389Y27832509D01*
X27062994Y27963619D01*
X27123337Y28109301D01*
X27154100Y28263956D01*
X27154100Y28421640D01*
X27123337Y28576295D01*
X27123333Y28576305D01*
X27089091Y28658975D01*
X27079500Y28707192D01*
X27079500Y35218992D01*
X27079499Y35218996D01*
X27052580Y35354328D01*
X26999775Y35481811D01*
X26984635Y35504469D01*
X26984634Y35504473D01*
X26984633Y35504472D01*
X26923114Y35596543D01*
X26889699Y35629958D01*
X26616550Y35903107D01*
X26589239Y35943981D01*
X26529594Y36087979D01*
X26441989Y36219089D01*
X26330489Y36330589D01*
X26199379Y36418194D01*
X26053697Y36478537D01*
X25899044Y36509300D01*
X25899042Y36509300D01*
X25741358Y36509300D01*
X25741355Y36509300D01*
X25586702Y36478537D01*
X25586697Y36478535D01*
X25441020Y36418194D01*
X25309915Y36330592D01*
X25309908Y36330587D01*
X25198413Y36219092D01*
X25198408Y36219085D01*
X25110806Y36087980D01*
X25050465Y35942303D01*
X25050463Y35942298D01*
X25019700Y35787645D01*
X25019700Y35629956D01*
X25044661Y35504473D01*
X25050463Y35475303D01*
X25110806Y35329621D01*
X25198411Y35198511D01*
X25309911Y35087011D01*
X25441021Y34999406D01*
X25585020Y34939760D01*
X25592062Y34935055D01*
X25597186Y34933940D01*
X25625896Y34912447D01*
X25641595Y34896748D01*
X25675621Y34834436D01*
X25678500Y34807653D01*
X25678500Y28811523D01*
X25658498Y28743402D01*
X25657265Y28741521D01*
X25644207Y28721979D01*
X25584560Y28577979D01*
X25557246Y28537103D01*
X24387092Y27366949D01*
X24387087Y27366943D01*
X24310425Y27252209D01*
X24257622Y27124732D01*
X24257620Y27124727D01*
X24230740Y26989591D01*
X24230700Y26989392D01*
X24230700Y24094914D01*
X24221109Y24046696D01*
X24161465Y23902703D01*
X24161463Y23902698D01*
X24130700Y23748045D01*
X15357500Y23748045D01*
X15357500Y25729245D01*
X15799500Y25729245D01*
X15799500Y25571556D01*
X15830263Y25416903D01*
X15830265Y25416898D01*
X15873377Y25312816D01*
X15890606Y25271221D01*
X15978211Y25140111D01*
X16089711Y25028611D01*
X16220821Y24941006D01*
X16366503Y24880663D01*
X16521158Y24849900D01*
X16521159Y24849900D01*
X16678841Y24849900D01*
X16678842Y24849900D01*
X16833497Y24880663D01*
X16979179Y24941006D01*
X17110289Y25028611D01*
X17144673Y25062995D01*
X17206985Y25097021D01*
X17233768Y25099900D01*
X19593472Y25099900D01*
X19593474Y25099900D01*
X19593475Y25099900D01*
X19733485Y25137416D01*
X19754448Y25149519D01*
X19754449Y25149519D01*
X19844152Y25201309D01*
X19859015Y25209890D01*
X20108503Y25459380D01*
X20170813Y25493403D01*
X20241629Y25488339D01*
X20267599Y25475048D01*
X20308760Y25447545D01*
X20454442Y25387202D01*
X20609097Y25356439D01*
X20609098Y25356439D01*
X20766780Y25356439D01*
X20766781Y25356439D01*
X20921436Y25387202D01*
X21067118Y25447545D01*
X21198228Y25535150D01*
X21309728Y25646650D01*
X21397333Y25777760D01*
X21457676Y25923442D01*
X21488439Y26078097D01*
X21488439Y26235781D01*
X21457676Y26390436D01*
X21397333Y26536118D01*
X21309728Y26667228D01*
X21198228Y26778728D01*
X21067118Y26866333D01*
X20921436Y26926676D01*
X20766783Y26957439D01*
X20766781Y26957439D01*
X20609097Y26957439D01*
X20609094Y26957439D01*
X20454441Y26926676D01*
X20454436Y26926674D01*
X20308759Y26866333D01*
X20177654Y26778731D01*
X20177647Y26778726D01*
X20143266Y26744344D01*
X20080954Y26710318D01*
X20054171Y26707439D01*
X19955064Y26707439D01*
X19815054Y26669923D01*
X19815052Y26669923D01*
X19815048Y26669921D01*
X19689527Y26597452D01*
X19689521Y26597447D01*
X19543089Y26451014D01*
X19329878Y26237804D01*
X19267568Y26203780D01*
X19240785Y26200900D01*
X17233768Y26200900D01*
X17165647Y26220902D01*
X17144673Y26237805D01*
X17110291Y26272187D01*
X17110289Y26272189D01*
X16979179Y26359794D01*
X16833497Y26420137D01*
X16815399Y26423737D01*
X16678844Y26450900D01*
X16678842Y26450900D01*
X16521158Y26450900D01*
X16521155Y26450900D01*
X16366502Y26420137D01*
X16366497Y26420135D01*
X16220820Y26359794D01*
X16089715Y26272192D01*
X16089708Y26272187D01*
X15978213Y26160692D01*
X15978208Y26160685D01*
X15890606Y26029580D01*
X15830265Y25883903D01*
X15830263Y25883898D01*
X15799500Y25729245D01*
X15357500Y25729245D01*
X15357500Y28692444D01*
X15377502Y28760565D01*
X15378735Y28762446D01*
X15385989Y28773302D01*
X15441394Y28856221D01*
X15501737Y29001903D01*
X15532500Y29156558D01*
X15532500Y29314242D01*
X15501737Y29468897D01*
X15441394Y29614579D01*
X15378734Y29708357D01*
X15357520Y29776110D01*
X15357500Y29778358D01*
X15357500Y31588966D01*
X15377502Y31657087D01*
X15431158Y31703580D01*
X15501432Y31713684D01*
X15531715Y31705376D01*
X15565303Y31691463D01*
X15719958Y31660700D01*
X15719959Y31660700D01*
X15877641Y31660700D01*
X15877642Y31660700D01*
X16032297Y31691463D01*
X16177979Y31751806D01*
X16309089Y31839411D01*
X16420589Y31950911D01*
X16508194Y32082021D01*
X16568537Y32227703D01*
X16599300Y32382358D01*
X16599300Y32540042D01*
X16568537Y32694697D01*
X16508194Y32840379D01*
X16445534Y32934157D01*
X16424320Y33001910D01*
X16424300Y33004158D01*
X16424300Y40158920D01*
X16444302Y40227041D01*
X16461205Y40248015D01*
X21978754Y45765564D01*
X22041066Y45799590D01*
X22111881Y45794525D01*
X22156944Y45765564D01*
X23505539Y44416969D01*
X23505542Y44416965D01*
X23592667Y44329840D01*
X23649309Y44291993D01*
X23655848Y44287624D01*
X23655850Y44287622D01*
X23676940Y44273530D01*
X23695115Y44261386D01*
X23761797Y44233766D01*
X23808948Y44214235D01*
X23869371Y44202217D01*
X23929793Y44190198D01*
X23929794Y44190198D01*
X34205352Y44190198D01*
X34273473Y44170196D01*
X34275354Y44168963D01*
X34369130Y44106304D01*
X34514812Y44045961D01*
X34669467Y44015198D01*
X34669468Y44015198D01*
X34827150Y44015198D01*
X34827151Y44015198D01*
X34981806Y44045961D01*
X35127488Y44106304D01*
X35221264Y44168963D01*
X35289017Y44190178D01*
X35291266Y44190198D01*
X37655700Y44190198D01*
X37655705Y44190198D01*
X37716127Y44202217D01*
X37776550Y44214235D01*
X37812196Y44229000D01*
X37890384Y44261386D01*
X37956267Y44305409D01*
X37992831Y44329840D01*
X38079956Y44416965D01*
X38087129Y44424138D01*
X38087140Y44424152D01*
X40813721Y47150733D01*
X40876031Y47184757D01*
X40878234Y47185215D01*
X40953289Y47200144D01*
X40953289Y47200145D01*
X40953294Y47200145D01*
X41098976Y47260488D01*
X41230086Y47348093D01*
X41341586Y47459593D01*
X41429191Y47590703D01*
X41489534Y47736385D01*
X41520297Y47891040D01*
X41520297Y48048724D01*
X41489534Y48203379D01*
X41429191Y48349061D01*
X41341586Y48480171D01*
X41230086Y48591671D01*
X41098976Y48679276D01*
X40953294Y48739619D01*
X40798641Y48770382D01*
X40798639Y48770382D01*
X40640955Y48770382D01*
X40640952Y48770382D01*
X40486299Y48739619D01*
X40486294Y48739617D01*
X40340617Y48679276D01*
X40209512Y48591674D01*
X40209505Y48591669D01*
X40098010Y48480174D01*
X40098005Y48480167D01*
X40010403Y48349062D01*
X39950062Y48203385D01*
X39950060Y48203380D01*
X39920983Y48057203D01*
X39888075Y47994293D01*
X39886499Y47992690D01*
X37371913Y45478103D01*
X37309601Y45444078D01*
X37282818Y45441198D01*
X35291266Y45441198D01*
X35223145Y45461200D01*
X35221264Y45462433D01*
X35127488Y45525092D01*
X34981811Y45585433D01*
X34981806Y45585435D01*
X34827153Y45616198D01*
X34827151Y45616198D01*
X34669467Y45616198D01*
X34669464Y45616198D01*
X34514811Y45585435D01*
X34514806Y45585433D01*
X34369129Y45525092D01*
X34275354Y45462433D01*
X34207601Y45441218D01*
X34205352Y45441198D01*
X24302680Y45441198D01*
X24234559Y45461200D01*
X24213585Y45478103D01*
X22748805Y46942883D01*
X22714779Y47005195D01*
X22711900Y47031978D01*
X22711900Y47759205D01*
X22711899Y47759212D01*
X22705202Y47792879D01*
X22687863Y47880052D01*
X22651641Y47967500D01*
X22640712Y47993886D01*
X22621908Y48022027D01*
X22608537Y48042039D01*
X22608535Y48042042D01*
X22603926Y48048939D01*
X22572258Y48096333D01*
X22485133Y48183458D01*
X22485129Y48183461D01*
X21387308Y49281282D01*
X21387288Y49281304D01*
X21295778Y49372814D01*
X21295772Y49372819D01*
X21250458Y49403097D01*
X21250456Y49403098D01*
X21244549Y49407045D01*
X21193326Y49441272D01*
X21112832Y49474613D01*
X21107957Y49476632D01*
X21107950Y49476636D01*
X21079499Y49488421D01*
X21079493Y49488423D01*
X21049280Y49494433D01*
X21019069Y49500442D01*
X21019068Y49500443D01*
X20958651Y49512460D01*
X20958647Y49512460D01*
X20958646Y49512460D01*
X17749063Y49512460D01*
X17680942Y49532462D01*
X17679061Y49533695D01*
X17585285Y49596354D01*
X17439608Y49656695D01*
X17439603Y49656697D01*
X17284950Y49687460D01*
X17284948Y49687460D01*
X17127264Y49687460D01*
X17127261Y49687460D01*
X16972608Y49656697D01*
X16972603Y49656695D01*
X16826926Y49596354D01*
X16695821Y49508752D01*
X16695814Y49508747D01*
X16584319Y49397252D01*
X16584314Y49397245D01*
X16496712Y49266140D01*
X16436371Y49120463D01*
X16436369Y49120458D01*
X16405606Y48965805D01*
X16405606Y48965802D01*
X16405606Y48808118D01*
X16436369Y48653463D01*
X16496712Y48507781D01*
X16584317Y48376671D01*
X16695817Y48265171D01*
X16826927Y48177566D01*
X16972609Y48117223D01*
X17127264Y48086460D01*
X17127265Y48086460D01*
X17284947Y48086460D01*
X17284948Y48086460D01*
X17439603Y48117223D01*
X17585285Y48177566D01*
X17679061Y48240225D01*
X17746814Y48261440D01*
X17749063Y48261460D01*
X20585760Y48261460D01*
X20653881Y48241458D01*
X20674855Y48224555D01*
X21044219Y47855191D01*
X21078245Y47792879D01*
X21073180Y47722064D01*
X21030633Y47665228D01*
X20964113Y47640417D01*
X20930542Y47642517D01*
X20844230Y47659686D01*
X20844228Y47659686D01*
X20686544Y47659686D01*
X20686541Y47659686D01*
X20531888Y47628923D01*
X20531883Y47628921D01*
X20386206Y47568580D01*
X20255101Y47480978D01*
X20255094Y47480973D01*
X20143599Y47369478D01*
X20143594Y47369471D01*
X20055992Y47238366D01*
X19995650Y47092687D01*
X19995649Y47092686D01*
X19979952Y47013773D01*
X19947043Y46950864D01*
X19945468Y46949261D01*
X15373233Y42377025D01*
X15310921Y42342999D01*
X15308721Y42342541D01*
X15262170Y42333281D01*
X15198103Y42320537D01*
X15198101Y42320537D01*
X15198100Y42320536D01*
X15198099Y42320536D01*
X15052420Y42260194D01*
X14921315Y42172592D01*
X14921308Y42172587D01*
X14809813Y42061092D01*
X14809808Y42061085D01*
X14722206Y41929980D01*
X14661864Y41784301D01*
X14661864Y41784300D01*
X14661863Y41784297D01*
X14655014Y41749866D01*
X14639859Y41673679D01*
X14606951Y41610770D01*
X14605376Y41609167D01*
X14333270Y41337061D01*
X14333267Y41337058D01*
X14289704Y41293495D01*
X14246141Y41249933D01*
X14211915Y41198710D01*
X14177688Y41147487D01*
X14156238Y41095700D01*
X14130539Y41033658D01*
X14130537Y41033651D01*
X14106500Y40912812D01*
X14106500Y29778358D01*
X14086498Y29710237D01*
X14085266Y29708357D01*
X14022605Y29614578D01*
X13962265Y29468903D01*
X13962263Y29468898D01*
X13931500Y29314245D01*
X13931500Y29314242D01*
X13931500Y29156558D01*
X13962263Y29001903D01*
X14022606Y28856221D01*
X14062369Y28796712D01*
X14085265Y28762446D01*
X14106480Y28694693D01*
X14106500Y28692444D01*
X14106500Y23859418D01*
X14086498Y23791297D01*
X14032842Y23744804D01*
X14005084Y23735840D01*
X13994448Y23733724D01*
X13962886Y23727446D01*
X13962885Y23727445D01*
X13817206Y23667103D01*
X13686101Y23579501D01*
X13686094Y23579496D01*
X13574599Y23468001D01*
X13574594Y23467994D01*
X13486992Y23336889D01*
X13426651Y23191212D01*
X13426649Y23191207D01*
X13395886Y23036554D01*
X13395886Y22878865D01*
X13426649Y22724212D01*
X13426651Y22724207D01*
X13486992Y22578530D01*
X13577265Y22443427D01*
X13598480Y22375674D01*
X13598500Y22373425D01*
X13598500Y21833081D01*
X13578498Y21764960D01*
X13561595Y21743986D01*
X11081319Y19263711D01*
X11019007Y19229685D01*
X10948191Y19234750D01*
X10922221Y19248042D01*
X10884580Y19273194D01*
X10738902Y19333535D01*
X10738897Y19333537D01*
X10584244Y19364300D01*
X10584242Y19364300D01*
X10426558Y19364300D01*
X10426555Y19364300D01*
X10271902Y19333537D01*
X10271897Y19333535D01*
X10126220Y19273194D01*
X9995115Y19185592D01*
X9995108Y19185587D01*
X9883613Y19074092D01*
X9883608Y19074085D01*
X9796006Y18942980D01*
X9742205Y18813093D01*
X9742204Y18813089D01*
X9735663Y18797297D01*
X9707778Y18657114D01*
X9707765Y18657052D01*
X9704900Y18642650D01*
X9431379Y18642650D01*
X9470337Y18736703D01*
X9501100Y18891358D01*
X9501100Y19049042D01*
X9470337Y19203697D01*
X9409994Y19349379D01*
X9409992Y19349381D01*
X9409992Y19349383D01*
X9398134Y19367130D01*
X9376920Y19434883D01*
X9376900Y19437130D01*
X9376900Y43246123D01*
X9396902Y43314244D01*
X9413800Y43335213D01*
X10994165Y44915579D01*
X11056475Y44949602D01*
X11058619Y44950049D01*
X11169295Y44972063D01*
X11314977Y45032406D01*
X11446087Y45120011D01*
X11557587Y45231511D01*
X11645192Y45362621D01*
X11705535Y45508303D01*
X11736298Y45662958D01*
X11736298Y45820642D01*
X11705535Y45975297D01*
X11645192Y46120979D01*
X11557587Y46252089D01*
X11446087Y46363589D01*
X11314977Y46451194D01*
X11169295Y46511537D01*
X11014642Y46542300D01*
X11014640Y46542300D01*
X10856956Y46542300D01*
X10856953Y46542300D01*
X10702300Y46511537D01*
X10702295Y46511535D01*
X10556618Y46451194D01*
X10425513Y46363592D01*
X10425506Y46363587D01*
X10314011Y46252092D01*
X10314006Y46252085D01*
X10226404Y46120980D01*
X10166062Y45975301D01*
X10166062Y45975300D01*
X10166062Y45975298D01*
X10144057Y45864679D01*
X10111149Y45801770D01*
X10109573Y45800167D01*
X9224984Y44915577D01*
X8352670Y44043263D01*
X8352667Y44043260D01*
X8324606Y44015199D01*
X8265541Y43956135D01*
X8231315Y43904912D01*
X8197086Y43853686D01*
X8163747Y43773195D01*
X8163747Y43773194D01*
X8149935Y43739851D01*
X8125900Y43619014D01*
X8125900Y19579768D01*
X8105898Y19511647D01*
X8088995Y19490673D01*
X8078813Y19480492D01*
X8078808Y19480485D01*
X7991206Y19349380D01*
X7930865Y19203703D01*
X7930863Y19203698D01*
X7900100Y19049045D01*
X5834500Y19049045D01*
X5834500Y54133519D01*
X24237500Y54133519D01*
X24237500Y54133516D01*
X24237500Y52546484D01*
X24252353Y52452698D01*
X24309949Y52339658D01*
X24399657Y52249950D01*
X24457253Y52220604D01*
X24512696Y52192354D01*
X24512700Y52192354D01*
X24520448Y52189836D01*
X24579055Y52149766D01*
X24606696Y52084371D01*
X24594593Y52014413D01*
X24546590Y51962105D01*
X24520460Y51950170D01*
X24512701Y51947649D01*
X24399657Y51890051D01*
X24309949Y51800343D01*
X24252355Y51687306D01*
X24252354Y51687304D01*
X24237500Y51593519D01*
X24237500Y51593516D01*
X24237500Y50006484D01*
X24252353Y49912698D01*
X24309949Y49799658D01*
X24399657Y49709950D01*
X24438299Y49690262D01*
X24512696Y49652354D01*
X24606481Y49637500D01*
X26193518Y49637501D01*
X26287304Y49652354D01*
X26400342Y49709950D01*
X26490050Y49799658D01*
X26547646Y49912696D01*
X26547647Y49912709D01*
X26550163Y49920447D01*
X26590232Y49979055D01*
X26655627Y50006697D01*
X26725585Y49994595D01*
X26777894Y49946593D01*
X26789831Y49920459D01*
X26792352Y49912699D01*
X26849949Y49799658D01*
X26939657Y49709950D01*
X26978299Y49690262D01*
X27052696Y49652354D01*
X27146481Y49637500D01*
X28733518Y49637501D01*
X28827304Y49652354D01*
X28940342Y49709950D01*
X29030050Y49799658D01*
X29087646Y49912696D01*
X29087647Y49912709D01*
X29090163Y49920447D01*
X29130232Y49979055D01*
X29195627Y50006697D01*
X29265585Y49994595D01*
X29317894Y49946593D01*
X29329831Y49920459D01*
X29332352Y49912699D01*
X29389949Y49799658D01*
X29479657Y49709950D01*
X29518299Y49690262D01*
X29592696Y49652354D01*
X29686481Y49637500D01*
X31273518Y49637501D01*
X31367304Y49652354D01*
X31480342Y49709950D01*
X31570050Y49799658D01*
X31627646Y49912696D01*
X31627647Y49912709D01*
X31630163Y49920447D01*
X31670232Y49979055D01*
X31735627Y50006697D01*
X31805585Y49994595D01*
X31857894Y49946593D01*
X31869831Y49920459D01*
X31872352Y49912699D01*
X31929949Y49799658D01*
X32019657Y49709950D01*
X32058299Y49690262D01*
X32132696Y49652354D01*
X32226481Y49637500D01*
X33813518Y49637501D01*
X33907304Y49652354D01*
X34020342Y49709950D01*
X34110050Y49799658D01*
X34167646Y49912696D01*
X34167647Y49912709D01*
X34170163Y49920447D01*
X34210232Y49979055D01*
X34275627Y50006697D01*
X34345585Y49994595D01*
X34397894Y49946593D01*
X34409831Y49920459D01*
X34412352Y49912699D01*
X34469949Y49799658D01*
X34559657Y49709950D01*
X34598299Y49690262D01*
X34672696Y49652354D01*
X34766481Y49637500D01*
X36353518Y49637501D01*
X36447304Y49652354D01*
X36560342Y49709950D01*
X36650050Y49799658D01*
X36707646Y49912696D01*
X36707647Y49912709D01*
X36710163Y49920447D01*
X36750232Y49979055D01*
X36815627Y50006697D01*
X36885585Y49994595D01*
X36937894Y49946593D01*
X36949831Y49920459D01*
X36952352Y49912699D01*
X37009949Y49799658D01*
X37099657Y49709950D01*
X37138299Y49690262D01*
X37212696Y49652354D01*
X37306481Y49637500D01*
X38893518Y49637501D01*
X38987304Y49652354D01*
X39100342Y49709950D01*
X39190050Y49799658D01*
X39247646Y49912696D01*
X39247647Y49912709D01*
X39250163Y49920447D01*
X39290232Y49979055D01*
X39355627Y50006697D01*
X39425585Y49994595D01*
X39477894Y49946593D01*
X39489831Y49920459D01*
X39492352Y49912699D01*
X39549949Y49799658D01*
X39639657Y49709950D01*
X39678299Y49690262D01*
X39752696Y49652354D01*
X39846481Y49637500D01*
X41433518Y49637501D01*
X41527304Y49652354D01*
X41640342Y49709950D01*
X41730050Y49799658D01*
X41787646Y49912696D01*
X41787647Y49912709D01*
X41790163Y49920447D01*
X41830232Y49979055D01*
X41895627Y50006697D01*
X41965585Y49994595D01*
X42017894Y49946593D01*
X42029831Y49920459D01*
X42032352Y49912699D01*
X42089949Y49799658D01*
X42179657Y49709950D01*
X42218299Y49690262D01*
X42292696Y49652354D01*
X42386481Y49637500D01*
X43661500Y49637501D01*
X43729621Y49617499D01*
X43776114Y49563843D01*
X43787500Y49511501D01*
X43787500Y46510281D01*
X43767498Y46442160D01*
X43750595Y46421186D01*
X42489015Y45159605D01*
X42426703Y45125580D01*
X42399920Y45122700D01*
X40587157Y45122700D01*
X40519036Y45142702D01*
X40517155Y45143935D01*
X40423379Y45206594D01*
X40277702Y45266935D01*
X40277697Y45266937D01*
X40123044Y45297700D01*
X40123042Y45297700D01*
X39965358Y45297700D01*
X39965355Y45297700D01*
X39810702Y45266937D01*
X39810697Y45266935D01*
X39665020Y45206594D01*
X39533915Y45118992D01*
X39533908Y45118987D01*
X39422413Y45007492D01*
X39422408Y45007485D01*
X39334806Y44876380D01*
X39274465Y44730703D01*
X39274463Y44730698D01*
X39243700Y44576045D01*
X39243700Y44418356D01*
X39268836Y44291993D01*
X39274463Y44263703D01*
X39334806Y44118021D01*
X39422411Y43986911D01*
X39533911Y43875411D01*
X39665021Y43787806D01*
X39810703Y43727463D01*
X39965358Y43696700D01*
X39965359Y43696700D01*
X40123041Y43696700D01*
X40123042Y43696700D01*
X40277697Y43727463D01*
X40423379Y43787806D01*
X40517155Y43850465D01*
X40584908Y43871680D01*
X40587157Y43871700D01*
X42772802Y43871700D01*
X42772807Y43871700D01*
X42833229Y43883719D01*
X42893652Y43895737D01*
X42926992Y43909548D01*
X43007486Y43942888D01*
X43073369Y43986911D01*
X43109933Y44011342D01*
X43197058Y44098467D01*
X43207424Y44108833D01*
X43207431Y44108843D01*
X44898858Y45800267D01*
X44967312Y45902715D01*
X45014463Y46016549D01*
X45038501Y46137394D01*
X45038501Y46260607D01*
X45038501Y46265799D01*
X45038500Y46265825D01*
X45038500Y49511501D01*
X45058502Y49579622D01*
X45112158Y49626115D01*
X45164500Y49637501D01*
X46513516Y49637501D01*
X46513518Y49637501D01*
X46607304Y49652354D01*
X46720342Y49709950D01*
X46810050Y49799658D01*
X46867646Y49912696D01*
X46882500Y50006481D01*
X46882499Y51593518D01*
X46867646Y51687304D01*
X46838848Y51743823D01*
X46810050Y51800343D01*
X46720342Y51890051D01*
X46607304Y51947646D01*
X46599547Y51950166D01*
X46540941Y51990239D01*
X46513303Y52055635D01*
X46525408Y52125592D01*
X46573413Y52177899D01*
X46599547Y52189834D01*
X46607297Y52192354D01*
X46607304Y52192354D01*
X46720342Y52249950D01*
X46810050Y52339658D01*
X46867646Y52452696D01*
X46882500Y52546481D01*
X46882499Y54133518D01*
X46882499Y54133519D01*
X49637500Y54133519D01*
X49637500Y54133516D01*
X49637500Y52546484D01*
X49652353Y52452698D01*
X49709949Y52339658D01*
X49799657Y52249950D01*
X49857253Y52220604D01*
X49912696Y52192354D01*
X49912700Y52192354D01*
X49920448Y52189836D01*
X49979055Y52149766D01*
X50006696Y52084371D01*
X49994593Y52014413D01*
X49946590Y51962105D01*
X49920460Y51950170D01*
X49912701Y51947649D01*
X49799657Y51890051D01*
X49709949Y51800343D01*
X49652355Y51687306D01*
X49652354Y51687304D01*
X49637500Y51593519D01*
X49637500Y51593516D01*
X49637500Y50006484D01*
X49652353Y49912698D01*
X49709949Y49799658D01*
X49799657Y49709950D01*
X49838299Y49690262D01*
X49912696Y49652354D01*
X50006481Y49637500D01*
X51593518Y49637501D01*
X51687304Y49652354D01*
X51708897Y49663357D01*
X51778672Y49676461D01*
X51844457Y49649762D01*
X51885364Y49591735D01*
X51892100Y49551090D01*
X51892100Y42796597D01*
X51884720Y42759491D01*
X51886261Y42759023D01*
X51884463Y42753097D01*
X51853700Y42598445D01*
X51853700Y42440756D01*
X51866377Y42377025D01*
X51884463Y42286103D01*
X51884464Y42286099D01*
X51884465Y42286098D01*
X51935776Y42162221D01*
X51944806Y42140421D01*
X52032411Y42009311D01*
X52143911Y41897811D01*
X52275021Y41810206D01*
X52420703Y41749863D01*
X52575358Y41719100D01*
X52575359Y41719100D01*
X52733041Y41719100D01*
X52733042Y41719100D01*
X52887697Y41749863D01*
X52887707Y41749867D01*
X52910983Y41759508D01*
X52959202Y41769100D01*
X58581777Y41769100D01*
X58606359Y41766679D01*
X58735958Y41740900D01*
X58735959Y41740900D01*
X58893641Y41740900D01*
X58893642Y41740900D01*
X59048297Y41771663D01*
X59193979Y41832006D01*
X59325089Y41919611D01*
X59436589Y42031111D01*
X59524194Y42162221D01*
X59584537Y42307903D01*
X59615300Y42462558D01*
X59615300Y42620242D01*
X59584537Y42774897D01*
X59524194Y42920579D01*
X59436589Y43051689D01*
X59325089Y43163189D01*
X59193979Y43250794D01*
X59048297Y43311137D01*
X59032677Y43314244D01*
X58893644Y43341900D01*
X58893642Y43341900D01*
X58735958Y43341900D01*
X58735955Y43341900D01*
X58581302Y43311137D01*
X58581297Y43311135D01*
X58505385Y43279691D01*
X58457167Y43270100D01*
X53519100Y43270100D01*
X53450979Y43290102D01*
X53404486Y43343758D01*
X53393100Y43396100D01*
X53393100Y49511501D01*
X53413102Y49579622D01*
X53466758Y49626115D01*
X53519100Y49637501D01*
X54133516Y49637501D01*
X54133518Y49637501D01*
X54227304Y49652354D01*
X54340342Y49709950D01*
X54430050Y49799658D01*
X54487646Y49912696D01*
X54487647Y49912709D01*
X54490163Y49920447D01*
X54530232Y49979055D01*
X54595627Y50006697D01*
X54665585Y49994595D01*
X54717894Y49946593D01*
X54729831Y49920459D01*
X54732352Y49912699D01*
X54789949Y49799658D01*
X54879657Y49709950D01*
X54918299Y49690262D01*
X54992696Y49652354D01*
X55086481Y49637500D01*
X55128499Y49637501D01*
X55196618Y49617500D01*
X55243113Y49563846D01*
X55254500Y49511501D01*
X55254500Y44867104D01*
X55234498Y44798983D01*
X55233265Y44797102D01*
X55184406Y44723980D01*
X55124065Y44578303D01*
X55124063Y44578298D01*
X55093300Y44423645D01*
X55093300Y44265956D01*
X55124063Y44111303D01*
X55124065Y44111298D01*
X55163870Y44015199D01*
X55184406Y43965621D01*
X55272011Y43834511D01*
X55383511Y43723011D01*
X55514621Y43635406D01*
X55660303Y43575063D01*
X55814958Y43544300D01*
X55814959Y43544300D01*
X55972641Y43544300D01*
X55972642Y43544300D01*
X56127297Y43575063D01*
X56272979Y43635406D01*
X56364712Y43696700D01*
X56366755Y43698065D01*
X56434508Y43719280D01*
X56436757Y43719300D01*
X68500920Y43719300D01*
X68530835Y43710517D01*
X68561305Y43703888D01*
X68566400Y43700074D01*
X68569041Y43699298D01*
X68590015Y43682395D01*
X68702275Y43570135D01*
X68736301Y43507823D01*
X68736759Y43505622D01*
X68758763Y43395003D01*
X68758764Y43395000D01*
X68792214Y43314244D01*
X68819106Y43249321D01*
X68906711Y43118211D01*
X69018211Y43006711D01*
X69149321Y42919106D01*
X69295003Y42858763D01*
X69405620Y42836761D01*
X69468529Y42803854D01*
X69470133Y42802277D01*
X70457601Y41814809D01*
X70491627Y41752497D01*
X70494506Y41725714D01*
X70494506Y30260958D01*
X70474504Y30192837D01*
X70473272Y30190957D01*
X70410611Y30097178D01*
X70350271Y29951503D01*
X70350269Y29951498D01*
X70319506Y29796845D01*
X70319506Y29639156D01*
X70337900Y29546686D01*
X70350269Y29484503D01*
X70410612Y29338821D01*
X70498217Y29207711D01*
X70609717Y29096211D01*
X70740827Y29008606D01*
X70886509Y28948263D01*
X71041164Y28917500D01*
X71041165Y28917500D01*
X71198847Y28917500D01*
X71198848Y28917500D01*
X71353503Y28948263D01*
X71499185Y29008606D01*
X71630295Y29096211D01*
X71741795Y29207711D01*
X71829400Y29338821D01*
X71889743Y29484503D01*
X71920506Y29639158D01*
X71920506Y29796842D01*
X71889743Y29951497D01*
X71829400Y30097179D01*
X71766740Y30190957D01*
X71745526Y30258710D01*
X71745506Y30260958D01*
X71745506Y34230944D01*
X73182670Y34230944D01*
X74895273Y34230944D01*
X74895273Y39656374D01*
X73182670Y39656374D01*
X73182670Y34230944D01*
X71745506Y34230944D01*
X71745506Y42098598D01*
X71745505Y42098605D01*
X71744144Y42105444D01*
X71743163Y42110377D01*
X71721469Y42219445D01*
X71693858Y42286103D01*
X71674317Y42333280D01*
X71605864Y42435727D01*
X71518739Y42522852D01*
X71518738Y42522853D01*
X70354722Y43686868D01*
X70320698Y43749179D01*
X70320249Y43751329D01*
X70298237Y43861997D01*
X70237894Y44007679D01*
X70150289Y44138789D01*
X70038789Y44250289D01*
X69907679Y44337894D01*
X69762000Y44398236D01*
X69761997Y44398237D01*
X69651378Y44420241D01*
X69588468Y44453149D01*
X69586865Y44454725D01*
X69305976Y44735614D01*
X69298060Y44743530D01*
X69298058Y44743533D01*
X69210933Y44830658D01*
X69142507Y44876379D01*
X69136326Y44880509D01*
X69136324Y44880511D01*
X69108483Y44899114D01*
X69027992Y44932453D01*
X69027990Y44932455D01*
X69027990Y44932454D01*
X68994659Y44946261D01*
X68994653Y44946263D01*
X68964440Y44952273D01*
X68934229Y44958282D01*
X68934228Y44958283D01*
X68873811Y44970300D01*
X68873807Y44970300D01*
X68873806Y44970300D01*
X56636500Y44970300D01*
X56568379Y44990302D01*
X56521886Y45043958D01*
X56510500Y45096300D01*
X56510500Y49511501D01*
X56530502Y49579622D01*
X56584158Y49626115D01*
X56636500Y49637501D01*
X56673516Y49637501D01*
X56673518Y49637501D01*
X56767304Y49652354D01*
X56880342Y49709950D01*
X56970050Y49799658D01*
X57027646Y49912696D01*
X57042500Y50006481D01*
X57042499Y51593518D01*
X57027646Y51687304D01*
X56998848Y51743823D01*
X56970050Y51800343D01*
X56880342Y51890051D01*
X56767304Y51947646D01*
X56759547Y51950166D01*
X56700941Y51990239D01*
X56673303Y52055635D01*
X56685408Y52125592D01*
X56733413Y52177899D01*
X56759547Y52189834D01*
X56767297Y52192354D01*
X56767304Y52192354D01*
X56880342Y52249950D01*
X56970050Y52339658D01*
X57027646Y52452696D01*
X57042500Y52546481D01*
X57042500Y52957822D01*
X60748388Y52957822D01*
X67133993Y52957822D01*
X67133993Y54770272D01*
X60748388Y54770272D01*
X60748388Y52957822D01*
X57042500Y52957822D01*
X57042499Y54133518D01*
X57027646Y54227304D01*
X56998848Y54283823D01*
X56970050Y54340343D01*
X56880342Y54430051D01*
X56804502Y54468693D01*
X56767304Y54487646D01*
X56673519Y54502500D01*
X56673515Y54502500D01*
X55086483Y54502500D01*
X54992697Y54487647D01*
X54879657Y54430051D01*
X54789949Y54340343D01*
X54732352Y54227302D01*
X54729833Y54219546D01*
X54689760Y54160940D01*
X54624363Y54133303D01*
X54554406Y54145410D01*
X54502100Y54193416D01*
X54490167Y54219546D01*
X54487647Y54227302D01*
X54430050Y54340343D01*
X54340342Y54430051D01*
X54264502Y54468693D01*
X54227304Y54487646D01*
X54133519Y54502500D01*
X54133515Y54502500D01*
X52546483Y54502500D01*
X52452697Y54487647D01*
X52339657Y54430051D01*
X52249949Y54340343D01*
X52192352Y54227302D01*
X52189833Y54219546D01*
X52149760Y54160940D01*
X52084363Y54133303D01*
X52014406Y54145410D01*
X51962100Y54193416D01*
X51950167Y54219546D01*
X51947647Y54227302D01*
X51890050Y54340343D01*
X51800342Y54430051D01*
X51724502Y54468693D01*
X51687304Y54487646D01*
X51593519Y54502500D01*
X51593515Y54502500D01*
X50006483Y54502500D01*
X49912697Y54487647D01*
X49799657Y54430051D01*
X49709949Y54340343D01*
X49652355Y54227306D01*
X49652354Y54227304D01*
X49637500Y54133519D01*
X46882499Y54133519D01*
X46867646Y54227304D01*
X46838848Y54283823D01*
X46810050Y54340343D01*
X46720342Y54430051D01*
X46644502Y54468693D01*
X46607304Y54487646D01*
X46513519Y54502500D01*
X46513515Y54502500D01*
X44926483Y54502500D01*
X44832697Y54487647D01*
X44719657Y54430051D01*
X44629949Y54340343D01*
X44572352Y54227302D01*
X44569833Y54219546D01*
X44529760Y54160940D01*
X44464363Y54133303D01*
X44394406Y54145410D01*
X44342100Y54193416D01*
X44330167Y54219546D01*
X44327647Y54227302D01*
X44270050Y54340343D01*
X44180342Y54430051D01*
X44104502Y54468693D01*
X44067304Y54487646D01*
X43973519Y54502500D01*
X43973515Y54502500D01*
X42386483Y54502500D01*
X42292697Y54487647D01*
X42179657Y54430051D01*
X42089949Y54340343D01*
X42032352Y54227302D01*
X42029833Y54219546D01*
X41989760Y54160940D01*
X41924363Y54133303D01*
X41854406Y54145410D01*
X41802100Y54193416D01*
X41790167Y54219546D01*
X41787647Y54227302D01*
X41730050Y54340343D01*
X41640342Y54430051D01*
X41564502Y54468693D01*
X41527304Y54487646D01*
X41433519Y54502500D01*
X41433515Y54502500D01*
X39846483Y54502500D01*
X39752697Y54487647D01*
X39639657Y54430051D01*
X39549949Y54340343D01*
X39492352Y54227302D01*
X39489833Y54219546D01*
X39449760Y54160940D01*
X39384363Y54133303D01*
X39314406Y54145410D01*
X39262100Y54193416D01*
X39250167Y54219546D01*
X39247647Y54227302D01*
X39190050Y54340343D01*
X39100342Y54430051D01*
X39024502Y54468693D01*
X38987304Y54487646D01*
X38893519Y54502500D01*
X38893515Y54502500D01*
X37306483Y54502500D01*
X37212697Y54487647D01*
X37099657Y54430051D01*
X37009949Y54340343D01*
X36952352Y54227302D01*
X36949833Y54219546D01*
X36909760Y54160940D01*
X36844363Y54133303D01*
X36774406Y54145410D01*
X36722100Y54193416D01*
X36710167Y54219546D01*
X36707647Y54227302D01*
X36650050Y54340343D01*
X36560342Y54430051D01*
X36484502Y54468693D01*
X36447304Y54487646D01*
X36353519Y54502500D01*
X36353515Y54502500D01*
X34766483Y54502500D01*
X34672697Y54487647D01*
X34559657Y54430051D01*
X34469949Y54340343D01*
X34412352Y54227302D01*
X34409833Y54219546D01*
X34369760Y54160940D01*
X34304363Y54133303D01*
X34234406Y54145410D01*
X34182100Y54193416D01*
X34170167Y54219546D01*
X34167647Y54227302D01*
X34110050Y54340343D01*
X34020342Y54430051D01*
X33944502Y54468693D01*
X33907304Y54487646D01*
X33813519Y54502500D01*
X33813515Y54502500D01*
X32226483Y54502500D01*
X32132697Y54487647D01*
X32019657Y54430051D01*
X31929949Y54340343D01*
X31872352Y54227302D01*
X31869833Y54219546D01*
X31829760Y54160940D01*
X31764363Y54133303D01*
X31694406Y54145410D01*
X31642100Y54193416D01*
X31630167Y54219546D01*
X31627647Y54227302D01*
X31570050Y54340343D01*
X31480342Y54430051D01*
X31404502Y54468693D01*
X31367304Y54487646D01*
X31273519Y54502500D01*
X31273515Y54502500D01*
X29686483Y54502500D01*
X29592697Y54487647D01*
X29479657Y54430051D01*
X29389949Y54340343D01*
X29332352Y54227302D01*
X29329833Y54219546D01*
X29289760Y54160940D01*
X29224363Y54133303D01*
X29154406Y54145410D01*
X29102100Y54193416D01*
X29090167Y54219546D01*
X29087647Y54227302D01*
X29030050Y54340343D01*
X28940342Y54430051D01*
X28864502Y54468693D01*
X28827304Y54487646D01*
X28733519Y54502500D01*
X28733515Y54502500D01*
X27146483Y54502500D01*
X27052697Y54487647D01*
X26939657Y54430051D01*
X26849949Y54340343D01*
X26792352Y54227302D01*
X26789833Y54219546D01*
X26749760Y54160940D01*
X26684363Y54133303D01*
X26614406Y54145410D01*
X26562100Y54193416D01*
X26550167Y54219546D01*
X26547647Y54227302D01*
X26490050Y54340343D01*
X26400342Y54430051D01*
X26324502Y54468693D01*
X26287304Y54487646D01*
X26193519Y54502500D01*
X26193515Y54502500D01*
X24606483Y54502500D01*
X24512697Y54487647D01*
X24399657Y54430051D01*
X24309949Y54340343D01*
X24252355Y54227306D01*
X24252354Y54227304D01*
X24237500Y54133519D01*
X5834500Y54133519D01*
X5834500Y54999500D01*
X5854502Y55067621D01*
X5908158Y55114114D01*
X5960500Y55125500D01*
X75319500Y55125500D01*
X75387621Y55105498D01*
G37*
%TD.AperFunction*%
%TD*%
M02*
