M48
; DRILL file {KiCad 9.0.1+1} date 2025-08-18T01:05:54+0000
; FORMAT={3:3/ absolute / metric / suppress leading zeros}
; #@! TF.CreationDate,2025-08-18T01:05:54+00:00
; #@! TF.GenerationSoftware,Kicad,Pcbnew,9.0.1+1
; #@! TF.FileFunction,Plated,1,2,PTH
FMAT,2
METRIC,TZ
; #@! TA.AperFunction,Plated,PTH,ViaDrill
T1C0.400
; #@! TA.AperFunction,Plated,PTH,ComponentDrill
T2C0.762
; #@! TA.AperFunction,Plated,PTH,ComponentDrill
T3C0.889
; #@! TA.AperFunction,Plated,PTH,ComponentDrill
T4C3.000
%
G90
G05
T1
X8701Y18970
X10312Y26746
X10505Y18564
X10936Y45742
X11368Y32813
X12561Y36471
X12585Y17270
X13120Y21993
X13411Y15367
X13487Y26568
X13792Y19609
X14196Y22958
X14732Y29235
X15432Y41551
X15545Y20777
X15799Y32461
X15955Y27049
X16600Y25650
X17206Y48887
X17210Y34845
X17387Y40382
X17514Y38808
X18759Y30949
X19775Y33194
X20688Y26157
X20765Y46859
X21240Y31351
X24931Y23669
X25820Y35709
X26252Y17827
X26340Y24420
X26354Y28343
X26354Y20527
X29910Y48206
X33096Y25654
X34748Y44816
X35244Y48714
X35382Y20244
X37807Y25320
X38757Y27073
X38887Y19050
X39125Y43575
X40044Y44497
X40720Y47970
X43337Y48476
X47676Y24943
X50165Y30505
X51418Y25823
X52654Y42520
X54229Y23012
X55894Y44345
X58815Y42541
X68492Y37690
X69469Y26772
X69529Y43628
X71120Y29718
T2
X59424Y28266
X59424Y23266
T3
X22860Y53340
X22860Y50800
X25400Y53340
X25400Y50800
X27940Y53340
X27940Y50800
X30480Y53340
X30480Y50800
X33020Y53340
X33020Y50800
X35560Y53340
X35560Y50800
X38100Y53340
X38100Y50800
X40640Y53340
X40640Y50800
X43180Y53340
X43180Y50800
X45720Y53340
X45720Y50800
X48260Y53340
X48260Y50800
X50800Y53340
X50800Y50800
X53340Y53340
X53340Y50800
X55880Y53340
X55880Y50800
X58420Y53340
X58420Y50800
T4
X10160Y50800
X10160Y10160
X71120Y50800
X71120Y10160
M30
