%TF.GenerationSoftware,KiCad,Pcbnew,9.0.7+1*%
%TF.CreationDate,2026-05-16T01:31:53+00:00*%
%TF.ProjectId,USTSIPIN03,55535453-4950-4494-9e30-332e6b696361,REV*%
%TF.SameCoordinates,PX66dd020PY81342c0*%
%TF.FileFunction,Legend,Bot*%
%TF.FilePolarity,Positive*%
%FSLAX46Y46*%
G04 Gerber Fmt 4.6, Leading zero omitted, Abs format (unit mm)*
G04 Created by KiCad (PCBNEW 9.0.7+1) date 2026-05-16 01:31:53*
%MOMM*%
%LPD*%
G01*
G04 APERTURE LIST*
%ADD10C,0.150000*%
%ADD11C,0.120000*%
G04 APERTURE END LIST*
D10*
X61454019Y22280105D02*
X60454019Y22280105D01*
X61454019Y21708677D02*
X60882590Y22137248D01*
X60454019Y21708677D02*
X61025447Y22280105D01*
X23436580Y35900867D02*
X23484200Y35948486D01*
X23484200Y35948486D02*
X23531819Y36091343D01*
X23531819Y36091343D02*
X23531819Y36186581D01*
X23531819Y36186581D02*
X23484200Y36329438D01*
X23484200Y36329438D02*
X23388961Y36424676D01*
X23388961Y36424676D02*
X23293723Y36472295D01*
X23293723Y36472295D02*
X23103247Y36519914D01*
X23103247Y36519914D02*
X22960390Y36519914D01*
X22960390Y36519914D02*
X22769914Y36472295D01*
X22769914Y36472295D02*
X22674676Y36424676D01*
X22674676Y36424676D02*
X22579438Y36329438D01*
X22579438Y36329438D02*
X22531819Y36186581D01*
X22531819Y36186581D02*
X22531819Y36091343D01*
X22531819Y36091343D02*
X22579438Y35948486D01*
X22579438Y35948486D02*
X22627057Y35900867D01*
X22627057Y35519914D02*
X22579438Y35472295D01*
X22579438Y35472295D02*
X22531819Y35377057D01*
X22531819Y35377057D02*
X22531819Y35138962D01*
X22531819Y35138962D02*
X22579438Y35043724D01*
X22579438Y35043724D02*
X22627057Y34996105D01*
X22627057Y34996105D02*
X22722295Y34948486D01*
X22722295Y34948486D02*
X22817533Y34948486D01*
X22817533Y34948486D02*
X22960390Y34996105D01*
X22960390Y34996105D02*
X23531819Y35567533D01*
X23531819Y35567533D02*
X23531819Y34948486D01*
X34532304Y30488181D02*
X34532304Y29678658D01*
X34532304Y29678658D02*
X34484685Y29583420D01*
X34484685Y29583420D02*
X34437066Y29535800D01*
X34437066Y29535800D02*
X34341828Y29488181D01*
X34341828Y29488181D02*
X34151352Y29488181D01*
X34151352Y29488181D02*
X34056114Y29535800D01*
X34056114Y29535800D02*
X34008495Y29583420D01*
X34008495Y29583420D02*
X33960876Y29678658D01*
X33960876Y29678658D02*
X33960876Y30488181D01*
X33532304Y30392943D02*
X33484685Y30440562D01*
X33484685Y30440562D02*
X33389447Y30488181D01*
X33389447Y30488181D02*
X33151352Y30488181D01*
X33151352Y30488181D02*
X33056114Y30440562D01*
X33056114Y30440562D02*
X33008495Y30392943D01*
X33008495Y30392943D02*
X32960876Y30297705D01*
X32960876Y30297705D02*
X32960876Y30202467D01*
X32960876Y30202467D02*
X33008495Y30059610D01*
X33008495Y30059610D02*
X33579923Y29488181D01*
X33579923Y29488181D02*
X32960876Y29488181D01*
X37199866Y37544220D02*
X37247485Y37496600D01*
X37247485Y37496600D02*
X37390342Y37448981D01*
X37390342Y37448981D02*
X37485580Y37448981D01*
X37485580Y37448981D02*
X37628437Y37496600D01*
X37628437Y37496600D02*
X37723675Y37591839D01*
X37723675Y37591839D02*
X37771294Y37687077D01*
X37771294Y37687077D02*
X37818913Y37877553D01*
X37818913Y37877553D02*
X37818913Y38020410D01*
X37818913Y38020410D02*
X37771294Y38210886D01*
X37771294Y38210886D02*
X37723675Y38306124D01*
X37723675Y38306124D02*
X37628437Y38401362D01*
X37628437Y38401362D02*
X37485580Y38448981D01*
X37485580Y38448981D02*
X37390342Y38448981D01*
X37390342Y38448981D02*
X37247485Y38401362D01*
X37247485Y38401362D02*
X37199866Y38353743D01*
X36866532Y38448981D02*
X36247485Y38448981D01*
X36247485Y38448981D02*
X36580818Y38068029D01*
X36580818Y38068029D02*
X36437961Y38068029D01*
X36437961Y38068029D02*
X36342723Y38020410D01*
X36342723Y38020410D02*
X36295104Y37972791D01*
X36295104Y37972791D02*
X36247485Y37877553D01*
X36247485Y37877553D02*
X36247485Y37639458D01*
X36247485Y37639458D02*
X36295104Y37544220D01*
X36295104Y37544220D02*
X36342723Y37496600D01*
X36342723Y37496600D02*
X36437961Y37448981D01*
X36437961Y37448981D02*
X36723675Y37448981D01*
X36723675Y37448981D02*
X36818913Y37496600D01*
X36818913Y37496600D02*
X36866532Y37544220D01*
X25951180Y15707867D02*
X25998800Y15755486D01*
X25998800Y15755486D02*
X26046419Y15898343D01*
X26046419Y15898343D02*
X26046419Y15993581D01*
X26046419Y15993581D02*
X25998800Y16136438D01*
X25998800Y16136438D02*
X25903561Y16231676D01*
X25903561Y16231676D02*
X25808323Y16279295D01*
X25808323Y16279295D02*
X25617847Y16326914D01*
X25617847Y16326914D02*
X25474990Y16326914D01*
X25474990Y16326914D02*
X25284514Y16279295D01*
X25284514Y16279295D02*
X25189276Y16231676D01*
X25189276Y16231676D02*
X25094038Y16136438D01*
X25094038Y16136438D02*
X25046419Y15993581D01*
X25046419Y15993581D02*
X25046419Y15898343D01*
X25046419Y15898343D02*
X25094038Y15755486D01*
X25094038Y15755486D02*
X25141657Y15707867D01*
X25046419Y15374533D02*
X25046419Y14707867D01*
X25046419Y14707867D02*
X26046419Y15136438D01*
X40067230Y35604307D02*
X40134574Y35604307D01*
X40134574Y35604307D02*
X40269261Y35671651D01*
X40269261Y35671651D02*
X40336604Y35738994D01*
X40336604Y35738994D02*
X40403948Y35873681D01*
X40403948Y35873681D02*
X40403948Y36008368D01*
X40403948Y36008368D02*
X40370276Y36109383D01*
X40370276Y36109383D02*
X40269261Y36277742D01*
X40269261Y36277742D02*
X40168246Y36378757D01*
X40168246Y36378757D02*
X39999887Y36479773D01*
X39999887Y36479773D02*
X39898872Y36513444D01*
X39898872Y36513444D02*
X39764185Y36513444D01*
X39764185Y36513444D02*
X39629498Y36446101D01*
X39629498Y36446101D02*
X39562154Y36378757D01*
X39562154Y36378757D02*
X39494811Y36244070D01*
X39494811Y36244070D02*
X39494811Y36176727D01*
X39461139Y34863529D02*
X39865200Y35267590D01*
X39663169Y35065559D02*
X38956063Y35772666D01*
X38956063Y35772666D02*
X39124421Y35738994D01*
X39124421Y35738994D02*
X39259108Y35738994D01*
X39259108Y35738994D02*
X39360124Y35772666D01*
X38147940Y34964544D02*
X38282627Y35099231D01*
X38282627Y35099231D02*
X38383643Y35132902D01*
X38383643Y35132902D02*
X38450986Y35132902D01*
X38450986Y35132902D02*
X38619345Y35099231D01*
X38619345Y35099231D02*
X38787704Y34998215D01*
X38787704Y34998215D02*
X39057078Y34728841D01*
X39057078Y34728841D02*
X39090749Y34627826D01*
X39090749Y34627826D02*
X39090749Y34560483D01*
X39090749Y34560483D02*
X39057078Y34459467D01*
X39057078Y34459467D02*
X38922391Y34324780D01*
X38922391Y34324780D02*
X38821375Y34291109D01*
X38821375Y34291109D02*
X38754032Y34291109D01*
X38754032Y34291109D02*
X38653017Y34324780D01*
X38653017Y34324780D02*
X38484658Y34493139D01*
X38484658Y34493139D02*
X38450986Y34594154D01*
X38450986Y34594154D02*
X38450986Y34661498D01*
X38450986Y34661498D02*
X38484658Y34762513D01*
X38484658Y34762513D02*
X38619345Y34897200D01*
X38619345Y34897200D02*
X38720360Y34930872D01*
X38720360Y34930872D02*
X38787704Y34930872D01*
X38787704Y34930872D02*
X38888719Y34897200D01*
X39279819Y12837667D02*
X38803628Y13171000D01*
X39279819Y13409095D02*
X38279819Y13409095D01*
X38279819Y13409095D02*
X38279819Y13028143D01*
X38279819Y13028143D02*
X38327438Y12932905D01*
X38327438Y12932905D02*
X38375057Y12885286D01*
X38375057Y12885286D02*
X38470295Y12837667D01*
X38470295Y12837667D02*
X38613152Y12837667D01*
X38613152Y12837667D02*
X38708390Y12885286D01*
X38708390Y12885286D02*
X38756009Y12932905D01*
X38756009Y12932905D02*
X38803628Y13028143D01*
X38803628Y13028143D02*
X38803628Y13409095D01*
X38279819Y12504333D02*
X38279819Y11885286D01*
X38279819Y11885286D02*
X38660771Y12218619D01*
X38660771Y12218619D02*
X38660771Y12075762D01*
X38660771Y12075762D02*
X38708390Y11980524D01*
X38708390Y11980524D02*
X38756009Y11932905D01*
X38756009Y11932905D02*
X38851247Y11885286D01*
X38851247Y11885286D02*
X39089342Y11885286D01*
X39089342Y11885286D02*
X39184580Y11932905D01*
X39184580Y11932905D02*
X39232200Y11980524D01*
X39232200Y11980524D02*
X39279819Y12075762D01*
X39279819Y12075762D02*
X39279819Y12361476D01*
X39279819Y12361476D02*
X39232200Y12456714D01*
X39232200Y12456714D02*
X39184580Y12504333D01*
X29732266Y12626181D02*
X30065599Y13102372D01*
X30303694Y12626181D02*
X30303694Y13626181D01*
X30303694Y13626181D02*
X29922742Y13626181D01*
X29922742Y13626181D02*
X29827504Y13578562D01*
X29827504Y13578562D02*
X29779885Y13530943D01*
X29779885Y13530943D02*
X29732266Y13435705D01*
X29732266Y13435705D02*
X29732266Y13292848D01*
X29732266Y13292848D02*
X29779885Y13197610D01*
X29779885Y13197610D02*
X29827504Y13149991D01*
X29827504Y13149991D02*
X29922742Y13102372D01*
X29922742Y13102372D02*
X30303694Y13102372D01*
X29351313Y13530943D02*
X29303694Y13578562D01*
X29303694Y13578562D02*
X29208456Y13626181D01*
X29208456Y13626181D02*
X28970361Y13626181D01*
X28970361Y13626181D02*
X28875123Y13578562D01*
X28875123Y13578562D02*
X28827504Y13530943D01*
X28827504Y13530943D02*
X28779885Y13435705D01*
X28779885Y13435705D02*
X28779885Y13340467D01*
X28779885Y13340467D02*
X28827504Y13197610D01*
X28827504Y13197610D02*
X29398932Y12626181D01*
X29398932Y12626181D02*
X28779885Y12626181D01*
X39000419Y28941267D02*
X38524228Y29274600D01*
X39000419Y29512695D02*
X38000419Y29512695D01*
X38000419Y29512695D02*
X38000419Y29131743D01*
X38000419Y29131743D02*
X38048038Y29036505D01*
X38048038Y29036505D02*
X38095657Y28988886D01*
X38095657Y28988886D02*
X38190895Y28941267D01*
X38190895Y28941267D02*
X38333752Y28941267D01*
X38333752Y28941267D02*
X38428990Y28988886D01*
X38428990Y28988886D02*
X38476609Y29036505D01*
X38476609Y29036505D02*
X38524228Y29131743D01*
X38524228Y29131743D02*
X38524228Y29512695D01*
X38000419Y28036505D02*
X38000419Y28512695D01*
X38000419Y28512695D02*
X38476609Y28560314D01*
X38476609Y28560314D02*
X38428990Y28512695D01*
X38428990Y28512695D02*
X38381371Y28417457D01*
X38381371Y28417457D02*
X38381371Y28179362D01*
X38381371Y28179362D02*
X38428990Y28084124D01*
X38428990Y28084124D02*
X38476609Y28036505D01*
X38476609Y28036505D02*
X38571847Y27988886D01*
X38571847Y27988886D02*
X38809942Y27988886D01*
X38809942Y27988886D02*
X38905180Y28036505D01*
X38905180Y28036505D02*
X38952800Y28084124D01*
X38952800Y28084124D02*
X39000419Y28179362D01*
X39000419Y28179362D02*
X39000419Y28417457D01*
X39000419Y28417457D02*
X38952800Y28512695D01*
X38952800Y28512695D02*
X38905180Y28560314D01*
X63205723Y8304581D02*
X63205723Y9304581D01*
X63205723Y9304581D02*
X62872390Y8590296D01*
X62872390Y8590296D02*
X62539057Y9304581D01*
X62539057Y9304581D02*
X62539057Y8304581D01*
X61586676Y9304581D02*
X62062866Y9304581D01*
X62062866Y9304581D02*
X62110485Y8828391D01*
X62110485Y8828391D02*
X62062866Y8876010D01*
X62062866Y8876010D02*
X61967628Y8923629D01*
X61967628Y8923629D02*
X61729533Y8923629D01*
X61729533Y8923629D02*
X61634295Y8876010D01*
X61634295Y8876010D02*
X61586676Y8828391D01*
X61586676Y8828391D02*
X61539057Y8733153D01*
X61539057Y8733153D02*
X61539057Y8495058D01*
X61539057Y8495058D02*
X61586676Y8399820D01*
X61586676Y8399820D02*
X61634295Y8352200D01*
X61634295Y8352200D02*
X61729533Y8304581D01*
X61729533Y8304581D02*
X61967628Y8304581D01*
X61967628Y8304581D02*
X62062866Y8352200D01*
X62062866Y8352200D02*
X62110485Y8399820D01*
X21642019Y19938905D02*
X22451542Y19938905D01*
X22451542Y19938905D02*
X22546780Y19891286D01*
X22546780Y19891286D02*
X22594400Y19843667D01*
X22594400Y19843667D02*
X22642019Y19748429D01*
X22642019Y19748429D02*
X22642019Y19557953D01*
X22642019Y19557953D02*
X22594400Y19462715D01*
X22594400Y19462715D02*
X22546780Y19415096D01*
X22546780Y19415096D02*
X22451542Y19367477D01*
X22451542Y19367477D02*
X21642019Y19367477D01*
X21642019Y18462715D02*
X21642019Y18653191D01*
X21642019Y18653191D02*
X21689638Y18748429D01*
X21689638Y18748429D02*
X21737257Y18796048D01*
X21737257Y18796048D02*
X21880114Y18891286D01*
X21880114Y18891286D02*
X22070590Y18938905D01*
X22070590Y18938905D02*
X22451542Y18938905D01*
X22451542Y18938905D02*
X22546780Y18891286D01*
X22546780Y18891286D02*
X22594400Y18843667D01*
X22594400Y18843667D02*
X22642019Y18748429D01*
X22642019Y18748429D02*
X22642019Y18557953D01*
X22642019Y18557953D02*
X22594400Y18462715D01*
X22594400Y18462715D02*
X22546780Y18415096D01*
X22546780Y18415096D02*
X22451542Y18367477D01*
X22451542Y18367477D02*
X22213447Y18367477D01*
X22213447Y18367477D02*
X22118209Y18415096D01*
X22118209Y18415096D02*
X22070590Y18462715D01*
X22070590Y18462715D02*
X22022971Y18557953D01*
X22022971Y18557953D02*
X22022971Y18748429D01*
X22022971Y18748429D02*
X22070590Y18843667D01*
X22070590Y18843667D02*
X22118209Y18891286D01*
X22118209Y18891286D02*
X22213447Y18938905D01*
X45208257Y23512820D02*
X45255876Y23465200D01*
X45255876Y23465200D02*
X45398733Y23417581D01*
X45398733Y23417581D02*
X45493971Y23417581D01*
X45493971Y23417581D02*
X45636828Y23465200D01*
X45636828Y23465200D02*
X45732066Y23560439D01*
X45732066Y23560439D02*
X45779685Y23655677D01*
X45779685Y23655677D02*
X45827304Y23846153D01*
X45827304Y23846153D02*
X45827304Y23989010D01*
X45827304Y23989010D02*
X45779685Y24179486D01*
X45779685Y24179486D02*
X45732066Y24274724D01*
X45732066Y24274724D02*
X45636828Y24369962D01*
X45636828Y24369962D02*
X45493971Y24417581D01*
X45493971Y24417581D02*
X45398733Y24417581D01*
X45398733Y24417581D02*
X45255876Y24369962D01*
X45255876Y24369962D02*
X45208257Y24322343D01*
X44874923Y24417581D02*
X44255876Y24417581D01*
X44255876Y24417581D02*
X44589209Y24036629D01*
X44589209Y24036629D02*
X44446352Y24036629D01*
X44446352Y24036629D02*
X44351114Y23989010D01*
X44351114Y23989010D02*
X44303495Y23941391D01*
X44303495Y23941391D02*
X44255876Y23846153D01*
X44255876Y23846153D02*
X44255876Y23608058D01*
X44255876Y23608058D02*
X44303495Y23512820D01*
X44303495Y23512820D02*
X44351114Y23465200D01*
X44351114Y23465200D02*
X44446352Y23417581D01*
X44446352Y23417581D02*
X44732066Y23417581D01*
X44732066Y23417581D02*
X44827304Y23465200D01*
X44827304Y23465200D02*
X44874923Y23512820D01*
X43874923Y24322343D02*
X43827304Y24369962D01*
X43827304Y24369962D02*
X43732066Y24417581D01*
X43732066Y24417581D02*
X43493971Y24417581D01*
X43493971Y24417581D02*
X43398733Y24369962D01*
X43398733Y24369962D02*
X43351114Y24322343D01*
X43351114Y24322343D02*
X43303495Y24227105D01*
X43303495Y24227105D02*
X43303495Y24131867D01*
X43303495Y24131867D02*
X43351114Y23989010D01*
X43351114Y23989010D02*
X43922542Y23417581D01*
X43922542Y23417581D02*
X43303495Y23417581D01*
X21499830Y27476307D02*
X21567174Y27476307D01*
X21567174Y27476307D02*
X21701861Y27543651D01*
X21701861Y27543651D02*
X21769204Y27610994D01*
X21769204Y27610994D02*
X21836548Y27745681D01*
X21836548Y27745681D02*
X21836548Y27880368D01*
X21836548Y27880368D02*
X21802876Y27981383D01*
X21802876Y27981383D02*
X21701861Y28149742D01*
X21701861Y28149742D02*
X21600846Y28250757D01*
X21600846Y28250757D02*
X21432487Y28351773D01*
X21432487Y28351773D02*
X21331472Y28385444D01*
X21331472Y28385444D02*
X21196785Y28385444D01*
X21196785Y28385444D02*
X21062098Y28318101D01*
X21062098Y28318101D02*
X20994754Y28250757D01*
X20994754Y28250757D02*
X20927411Y28116070D01*
X20927411Y28116070D02*
X20927411Y28048727D01*
X20893739Y26735529D02*
X21297800Y27139590D01*
X21095769Y26937559D02*
X20388663Y27644666D01*
X20388663Y27644666D02*
X20557021Y27610994D01*
X20557021Y27610994D02*
X20691708Y27610994D01*
X20691708Y27610994D02*
X20792724Y27644666D01*
X19984601Y27105918D02*
X19917258Y27105918D01*
X19917258Y27105918D02*
X19816243Y27072246D01*
X19816243Y27072246D02*
X19647884Y26903887D01*
X19647884Y26903887D02*
X19614212Y26802872D01*
X19614212Y26802872D02*
X19614212Y26735528D01*
X19614212Y26735528D02*
X19647884Y26634513D01*
X19647884Y26634513D02*
X19715227Y26567170D01*
X19715227Y26567170D02*
X19849914Y26499826D01*
X19849914Y26499826D02*
X20658036Y26499826D01*
X20658036Y26499826D02*
X20220304Y26062093D01*
X20798857Y54500820D02*
X20846476Y54453200D01*
X20846476Y54453200D02*
X20989333Y54405581D01*
X20989333Y54405581D02*
X21084571Y54405581D01*
X21084571Y54405581D02*
X21227428Y54453200D01*
X21227428Y54453200D02*
X21322666Y54548439D01*
X21322666Y54548439D02*
X21370285Y54643677D01*
X21370285Y54643677D02*
X21417904Y54834153D01*
X21417904Y54834153D02*
X21417904Y54977010D01*
X21417904Y54977010D02*
X21370285Y55167486D01*
X21370285Y55167486D02*
X21322666Y55262724D01*
X21322666Y55262724D02*
X21227428Y55357962D01*
X21227428Y55357962D02*
X21084571Y55405581D01*
X21084571Y55405581D02*
X20989333Y55405581D01*
X20989333Y55405581D02*
X20846476Y55357962D01*
X20846476Y55357962D02*
X20798857Y55310343D01*
X19941714Y55072248D02*
X19941714Y54405581D01*
X20179809Y55453200D02*
X20417904Y54738915D01*
X20417904Y54738915D02*
X19798857Y54738915D01*
X19370285Y54405581D02*
X19179809Y54405581D01*
X19179809Y54405581D02*
X19084571Y54453200D01*
X19084571Y54453200D02*
X19036952Y54500820D01*
X19036952Y54500820D02*
X18941714Y54643677D01*
X18941714Y54643677D02*
X18894095Y54834153D01*
X18894095Y54834153D02*
X18894095Y55215105D01*
X18894095Y55215105D02*
X18941714Y55310343D01*
X18941714Y55310343D02*
X18989333Y55357962D01*
X18989333Y55357962D02*
X19084571Y55405581D01*
X19084571Y55405581D02*
X19275047Y55405581D01*
X19275047Y55405581D02*
X19370285Y55357962D01*
X19370285Y55357962D02*
X19417904Y55310343D01*
X19417904Y55310343D02*
X19465523Y55215105D01*
X19465523Y55215105D02*
X19465523Y54977010D01*
X19465523Y54977010D02*
X19417904Y54881772D01*
X19417904Y54881772D02*
X19370285Y54834153D01*
X19370285Y54834153D02*
X19275047Y54786534D01*
X19275047Y54786534D02*
X19084571Y54786534D01*
X19084571Y54786534D02*
X18989333Y54834153D01*
X18989333Y54834153D02*
X18941714Y54881772D01*
X18941714Y54881772D02*
X18894095Y54977010D01*
X8835457Y22065020D02*
X8883076Y22017400D01*
X8883076Y22017400D02*
X9025933Y21969781D01*
X9025933Y21969781D02*
X9121171Y21969781D01*
X9121171Y21969781D02*
X9264028Y22017400D01*
X9264028Y22017400D02*
X9359266Y22112639D01*
X9359266Y22112639D02*
X9406885Y22207877D01*
X9406885Y22207877D02*
X9454504Y22398353D01*
X9454504Y22398353D02*
X9454504Y22541210D01*
X9454504Y22541210D02*
X9406885Y22731686D01*
X9406885Y22731686D02*
X9359266Y22826924D01*
X9359266Y22826924D02*
X9264028Y22922162D01*
X9264028Y22922162D02*
X9121171Y22969781D01*
X9121171Y22969781D02*
X9025933Y22969781D01*
X9025933Y22969781D02*
X8883076Y22922162D01*
X8883076Y22922162D02*
X8835457Y22874543D01*
X7978314Y22636448D02*
X7978314Y21969781D01*
X8216409Y23017400D02*
X8454504Y22303115D01*
X8454504Y22303115D02*
X7835457Y22303115D01*
X7025933Y22969781D02*
X7216409Y22969781D01*
X7216409Y22969781D02*
X7311647Y22922162D01*
X7311647Y22922162D02*
X7359266Y22874543D01*
X7359266Y22874543D02*
X7454504Y22731686D01*
X7454504Y22731686D02*
X7502123Y22541210D01*
X7502123Y22541210D02*
X7502123Y22160258D01*
X7502123Y22160258D02*
X7454504Y22065020D01*
X7454504Y22065020D02*
X7406885Y22017400D01*
X7406885Y22017400D02*
X7311647Y21969781D01*
X7311647Y21969781D02*
X7121171Y21969781D01*
X7121171Y21969781D02*
X7025933Y22017400D01*
X7025933Y22017400D02*
X6978314Y22065020D01*
X6978314Y22065020D02*
X6930695Y22160258D01*
X6930695Y22160258D02*
X6930695Y22398353D01*
X6930695Y22398353D02*
X6978314Y22493591D01*
X6978314Y22493591D02*
X7025933Y22541210D01*
X7025933Y22541210D02*
X7121171Y22588829D01*
X7121171Y22588829D02*
X7311647Y22588829D01*
X7311647Y22588829D02*
X7406885Y22541210D01*
X7406885Y22541210D02*
X7454504Y22493591D01*
X7454504Y22493591D02*
X7502123Y22398353D01*
X8937057Y19220220D02*
X8984676Y19172600D01*
X8984676Y19172600D02*
X9127533Y19124981D01*
X9127533Y19124981D02*
X9222771Y19124981D01*
X9222771Y19124981D02*
X9365628Y19172600D01*
X9365628Y19172600D02*
X9460866Y19267839D01*
X9460866Y19267839D02*
X9508485Y19363077D01*
X9508485Y19363077D02*
X9556104Y19553553D01*
X9556104Y19553553D02*
X9556104Y19696410D01*
X9556104Y19696410D02*
X9508485Y19886886D01*
X9508485Y19886886D02*
X9460866Y19982124D01*
X9460866Y19982124D02*
X9365628Y20077362D01*
X9365628Y20077362D02*
X9222771Y20124981D01*
X9222771Y20124981D02*
X9127533Y20124981D01*
X9127533Y20124981D02*
X8984676Y20077362D01*
X8984676Y20077362D02*
X8937057Y20029743D01*
X7984676Y19124981D02*
X8556104Y19124981D01*
X8270390Y19124981D02*
X8270390Y20124981D01*
X8270390Y20124981D02*
X8365628Y19982124D01*
X8365628Y19982124D02*
X8460866Y19886886D01*
X8460866Y19886886D02*
X8556104Y19839267D01*
X7413247Y19696410D02*
X7508485Y19744029D01*
X7508485Y19744029D02*
X7556104Y19791648D01*
X7556104Y19791648D02*
X7603723Y19886886D01*
X7603723Y19886886D02*
X7603723Y19934505D01*
X7603723Y19934505D02*
X7556104Y20029743D01*
X7556104Y20029743D02*
X7508485Y20077362D01*
X7508485Y20077362D02*
X7413247Y20124981D01*
X7413247Y20124981D02*
X7222771Y20124981D01*
X7222771Y20124981D02*
X7127533Y20077362D01*
X7127533Y20077362D02*
X7079914Y20029743D01*
X7079914Y20029743D02*
X7032295Y19934505D01*
X7032295Y19934505D02*
X7032295Y19886886D01*
X7032295Y19886886D02*
X7079914Y19791648D01*
X7079914Y19791648D02*
X7127533Y19744029D01*
X7127533Y19744029D02*
X7222771Y19696410D01*
X7222771Y19696410D02*
X7413247Y19696410D01*
X7413247Y19696410D02*
X7508485Y19648791D01*
X7508485Y19648791D02*
X7556104Y19601172D01*
X7556104Y19601172D02*
X7603723Y19505934D01*
X7603723Y19505934D02*
X7603723Y19315458D01*
X7603723Y19315458D02*
X7556104Y19220220D01*
X7556104Y19220220D02*
X7508485Y19172600D01*
X7508485Y19172600D02*
X7413247Y19124981D01*
X7413247Y19124981D02*
X7222771Y19124981D01*
X7222771Y19124981D02*
X7127533Y19172600D01*
X7127533Y19172600D02*
X7079914Y19220220D01*
X7079914Y19220220D02*
X7032295Y19315458D01*
X7032295Y19315458D02*
X7032295Y19505934D01*
X7032295Y19505934D02*
X7079914Y19601172D01*
X7079914Y19601172D02*
X7127533Y19648791D01*
X7127533Y19648791D02*
X7222771Y19696410D01*
X11215580Y39704458D02*
X11263200Y39752077D01*
X11263200Y39752077D02*
X11310819Y39894934D01*
X11310819Y39894934D02*
X11310819Y39990172D01*
X11310819Y39990172D02*
X11263200Y40133029D01*
X11263200Y40133029D02*
X11167961Y40228267D01*
X11167961Y40228267D02*
X11072723Y40275886D01*
X11072723Y40275886D02*
X10882247Y40323505D01*
X10882247Y40323505D02*
X10739390Y40323505D01*
X10739390Y40323505D02*
X10548914Y40275886D01*
X10548914Y40275886D02*
X10453676Y40228267D01*
X10453676Y40228267D02*
X10358438Y40133029D01*
X10358438Y40133029D02*
X10310819Y39990172D01*
X10310819Y39990172D02*
X10310819Y39894934D01*
X10310819Y39894934D02*
X10358438Y39752077D01*
X10358438Y39752077D02*
X10406057Y39704458D01*
X10310819Y39371124D02*
X10310819Y38752077D01*
X10310819Y38752077D02*
X10691771Y39085410D01*
X10691771Y39085410D02*
X10691771Y38942553D01*
X10691771Y38942553D02*
X10739390Y38847315D01*
X10739390Y38847315D02*
X10787009Y38799696D01*
X10787009Y38799696D02*
X10882247Y38752077D01*
X10882247Y38752077D02*
X11120342Y38752077D01*
X11120342Y38752077D02*
X11215580Y38799696D01*
X11215580Y38799696D02*
X11263200Y38847315D01*
X11263200Y38847315D02*
X11310819Y38942553D01*
X11310819Y38942553D02*
X11310819Y39228267D01*
X11310819Y39228267D02*
X11263200Y39323505D01*
X11263200Y39323505D02*
X11215580Y39371124D01*
X10739390Y38180648D02*
X10691771Y38275886D01*
X10691771Y38275886D02*
X10644152Y38323505D01*
X10644152Y38323505D02*
X10548914Y38371124D01*
X10548914Y38371124D02*
X10501295Y38371124D01*
X10501295Y38371124D02*
X10406057Y38323505D01*
X10406057Y38323505D02*
X10358438Y38275886D01*
X10358438Y38275886D02*
X10310819Y38180648D01*
X10310819Y38180648D02*
X10310819Y37990172D01*
X10310819Y37990172D02*
X10358438Y37894934D01*
X10358438Y37894934D02*
X10406057Y37847315D01*
X10406057Y37847315D02*
X10501295Y37799696D01*
X10501295Y37799696D02*
X10548914Y37799696D01*
X10548914Y37799696D02*
X10644152Y37847315D01*
X10644152Y37847315D02*
X10691771Y37894934D01*
X10691771Y37894934D02*
X10739390Y37990172D01*
X10739390Y37990172D02*
X10739390Y38180648D01*
X10739390Y38180648D02*
X10787009Y38275886D01*
X10787009Y38275886D02*
X10834628Y38323505D01*
X10834628Y38323505D02*
X10929866Y38371124D01*
X10929866Y38371124D02*
X11120342Y38371124D01*
X11120342Y38371124D02*
X11215580Y38323505D01*
X11215580Y38323505D02*
X11263200Y38275886D01*
X11263200Y38275886D02*
X11310819Y38180648D01*
X11310819Y38180648D02*
X11310819Y37990172D01*
X11310819Y37990172D02*
X11263200Y37894934D01*
X11263200Y37894934D02*
X11215580Y37847315D01*
X11215580Y37847315D02*
X11120342Y37799696D01*
X11120342Y37799696D02*
X10929866Y37799696D01*
X10929866Y37799696D02*
X10834628Y37847315D01*
X10834628Y37847315D02*
X10787009Y37894934D01*
X10787009Y37894934D02*
X10739390Y37990172D01*
X8358619Y17827105D02*
X9168142Y17827105D01*
X9168142Y17827105D02*
X9263380Y17779486D01*
X9263380Y17779486D02*
X9311000Y17731867D01*
X9311000Y17731867D02*
X9358619Y17636629D01*
X9358619Y17636629D02*
X9358619Y17446153D01*
X9358619Y17446153D02*
X9311000Y17350915D01*
X9311000Y17350915D02*
X9263380Y17303296D01*
X9263380Y17303296D02*
X9168142Y17255677D01*
X9168142Y17255677D02*
X8358619Y17255677D01*
X8358619Y16303296D02*
X8358619Y16779486D01*
X8358619Y16779486D02*
X8834809Y16827105D01*
X8834809Y16827105D02*
X8787190Y16779486D01*
X8787190Y16779486D02*
X8739571Y16684248D01*
X8739571Y16684248D02*
X8739571Y16446153D01*
X8739571Y16446153D02*
X8787190Y16350915D01*
X8787190Y16350915D02*
X8834809Y16303296D01*
X8834809Y16303296D02*
X8930047Y16255677D01*
X8930047Y16255677D02*
X9168142Y16255677D01*
X9168142Y16255677D02*
X9263380Y16303296D01*
X9263380Y16303296D02*
X9311000Y16350915D01*
X9311000Y16350915D02*
X9358619Y16446153D01*
X9358619Y16446153D02*
X9358619Y16684248D01*
X9358619Y16684248D02*
X9311000Y16779486D01*
X9311000Y16779486D02*
X9263380Y16827105D01*
X72983133Y41054581D02*
X72983133Y40340296D01*
X72983133Y40340296D02*
X73030752Y40197439D01*
X73030752Y40197439D02*
X73125990Y40102200D01*
X73125990Y40102200D02*
X73268847Y40054581D01*
X73268847Y40054581D02*
X73364085Y40054581D01*
X72506942Y40054581D02*
X72506942Y41054581D01*
X72506942Y41054581D02*
X72125990Y41054581D01*
X72125990Y41054581D02*
X72030752Y41006962D01*
X72030752Y41006962D02*
X71983133Y40959343D01*
X71983133Y40959343D02*
X71935514Y40864105D01*
X71935514Y40864105D02*
X71935514Y40721248D01*
X71935514Y40721248D02*
X71983133Y40626010D01*
X71983133Y40626010D02*
X72030752Y40578391D01*
X72030752Y40578391D02*
X72125990Y40530772D01*
X72125990Y40530772D02*
X72506942Y40530772D01*
X71602180Y41054581D02*
X70983133Y41054581D01*
X70983133Y41054581D02*
X71316466Y40673629D01*
X71316466Y40673629D02*
X71173609Y40673629D01*
X71173609Y40673629D02*
X71078371Y40626010D01*
X71078371Y40626010D02*
X71030752Y40578391D01*
X71030752Y40578391D02*
X70983133Y40483153D01*
X70983133Y40483153D02*
X70983133Y40245058D01*
X70983133Y40245058D02*
X71030752Y40149820D01*
X71030752Y40149820D02*
X71078371Y40102200D01*
X71078371Y40102200D02*
X71173609Y40054581D01*
X71173609Y40054581D02*
X71459323Y40054581D01*
X71459323Y40054581D02*
X71554561Y40102200D01*
X71554561Y40102200D02*
X71602180Y40149820D01*
X36304457Y14093020D02*
X36352076Y14045400D01*
X36352076Y14045400D02*
X36494933Y13997781D01*
X36494933Y13997781D02*
X36590171Y13997781D01*
X36590171Y13997781D02*
X36733028Y14045400D01*
X36733028Y14045400D02*
X36828266Y14140639D01*
X36828266Y14140639D02*
X36875885Y14235877D01*
X36875885Y14235877D02*
X36923504Y14426353D01*
X36923504Y14426353D02*
X36923504Y14569210D01*
X36923504Y14569210D02*
X36875885Y14759686D01*
X36875885Y14759686D02*
X36828266Y14854924D01*
X36828266Y14854924D02*
X36733028Y14950162D01*
X36733028Y14950162D02*
X36590171Y14997781D01*
X36590171Y14997781D02*
X36494933Y14997781D01*
X36494933Y14997781D02*
X36352076Y14950162D01*
X36352076Y14950162D02*
X36304457Y14902543D01*
X35352076Y13997781D02*
X35923504Y13997781D01*
X35637790Y13997781D02*
X35637790Y14997781D01*
X35637790Y14997781D02*
X35733028Y14854924D01*
X35733028Y14854924D02*
X35828266Y14759686D01*
X35828266Y14759686D02*
X35923504Y14712067D01*
X35018742Y14997781D02*
X34399695Y14997781D01*
X34399695Y14997781D02*
X34733028Y14616829D01*
X34733028Y14616829D02*
X34590171Y14616829D01*
X34590171Y14616829D02*
X34494933Y14569210D01*
X34494933Y14569210D02*
X34447314Y14521591D01*
X34447314Y14521591D02*
X34399695Y14426353D01*
X34399695Y14426353D02*
X34399695Y14188258D01*
X34399695Y14188258D02*
X34447314Y14093020D01*
X34447314Y14093020D02*
X34494933Y14045400D01*
X34494933Y14045400D02*
X34590171Y13997781D01*
X34590171Y13997781D02*
X34875885Y13997781D01*
X34875885Y13997781D02*
X34971123Y14045400D01*
X34971123Y14045400D02*
X35018742Y14093020D01*
X14307494Y33434581D02*
X14307494Y32625058D01*
X14307494Y32625058D02*
X14259875Y32529820D01*
X14259875Y32529820D02*
X14212256Y32482200D01*
X14212256Y32482200D02*
X14117018Y32434581D01*
X14117018Y32434581D02*
X13926542Y32434581D01*
X13926542Y32434581D02*
X13831304Y32482200D01*
X13831304Y32482200D02*
X13783685Y32529820D01*
X13783685Y32529820D02*
X13736066Y32625058D01*
X13736066Y32625058D02*
X13736066Y33434581D01*
X12736066Y32434581D02*
X13307494Y32434581D01*
X13021780Y32434581D02*
X13021780Y33434581D01*
X13021780Y33434581D02*
X13117018Y33291724D01*
X13117018Y33291724D02*
X13212256Y33196486D01*
X13212256Y33196486D02*
X13307494Y33148867D01*
X12355113Y33339343D02*
X12307494Y33386962D01*
X12307494Y33386962D02*
X12212256Y33434581D01*
X12212256Y33434581D02*
X11974161Y33434581D01*
X11974161Y33434581D02*
X11878923Y33386962D01*
X11878923Y33386962D02*
X11831304Y33339343D01*
X11831304Y33339343D02*
X11783685Y33244105D01*
X11783685Y33244105D02*
X11783685Y33148867D01*
X11783685Y33148867D02*
X11831304Y33006010D01*
X11831304Y33006010D02*
X12402732Y32434581D01*
X12402732Y32434581D02*
X11783685Y32434581D01*
X48912780Y20933858D02*
X48960400Y20981477D01*
X48960400Y20981477D02*
X49008019Y21124334D01*
X49008019Y21124334D02*
X49008019Y21219572D01*
X49008019Y21219572D02*
X48960400Y21362429D01*
X48960400Y21362429D02*
X48865161Y21457667D01*
X48865161Y21457667D02*
X48769923Y21505286D01*
X48769923Y21505286D02*
X48579447Y21552905D01*
X48579447Y21552905D02*
X48436590Y21552905D01*
X48436590Y21552905D02*
X48246114Y21505286D01*
X48246114Y21505286D02*
X48150876Y21457667D01*
X48150876Y21457667D02*
X48055638Y21362429D01*
X48055638Y21362429D02*
X48008019Y21219572D01*
X48008019Y21219572D02*
X48008019Y21124334D01*
X48008019Y21124334D02*
X48055638Y20981477D01*
X48055638Y20981477D02*
X48103257Y20933858D01*
X48008019Y20600524D02*
X48008019Y19981477D01*
X48008019Y19981477D02*
X48388971Y20314810D01*
X48388971Y20314810D02*
X48388971Y20171953D01*
X48388971Y20171953D02*
X48436590Y20076715D01*
X48436590Y20076715D02*
X48484209Y20029096D01*
X48484209Y20029096D02*
X48579447Y19981477D01*
X48579447Y19981477D02*
X48817542Y19981477D01*
X48817542Y19981477D02*
X48912780Y20029096D01*
X48912780Y20029096D02*
X48960400Y20076715D01*
X48960400Y20076715D02*
X49008019Y20171953D01*
X49008019Y20171953D02*
X49008019Y20457667D01*
X49008019Y20457667D02*
X48960400Y20552905D01*
X48960400Y20552905D02*
X48912780Y20600524D01*
X48341352Y19124334D02*
X49008019Y19124334D01*
X47960400Y19362429D02*
X48674685Y19600524D01*
X48674685Y19600524D02*
X48674685Y18981477D01*
X71586133Y38285981D02*
X71586133Y37571696D01*
X71586133Y37571696D02*
X71633752Y37428839D01*
X71633752Y37428839D02*
X71728990Y37333600D01*
X71728990Y37333600D02*
X71871847Y37285981D01*
X71871847Y37285981D02*
X71967085Y37285981D01*
X71109942Y37285981D02*
X71109942Y38285981D01*
X71109942Y38285981D02*
X70728990Y38285981D01*
X70728990Y38285981D02*
X70633752Y38238362D01*
X70633752Y38238362D02*
X70586133Y38190743D01*
X70586133Y38190743D02*
X70538514Y38095505D01*
X70538514Y38095505D02*
X70538514Y37952648D01*
X70538514Y37952648D02*
X70586133Y37857410D01*
X70586133Y37857410D02*
X70633752Y37809791D01*
X70633752Y37809791D02*
X70728990Y37762172D01*
X70728990Y37762172D02*
X71109942Y37762172D01*
X70157561Y38190743D02*
X70109942Y38238362D01*
X70109942Y38238362D02*
X70014704Y38285981D01*
X70014704Y38285981D02*
X69776609Y38285981D01*
X69776609Y38285981D02*
X69681371Y38238362D01*
X69681371Y38238362D02*
X69633752Y38190743D01*
X69633752Y38190743D02*
X69586133Y38095505D01*
X69586133Y38095505D02*
X69586133Y38000267D01*
X69586133Y38000267D02*
X69633752Y37857410D01*
X69633752Y37857410D02*
X70205180Y37285981D01*
X70205180Y37285981D02*
X69586133Y37285981D01*
X26212704Y24141781D02*
X26212704Y23332258D01*
X26212704Y23332258D02*
X26165085Y23237020D01*
X26165085Y23237020D02*
X26117466Y23189400D01*
X26117466Y23189400D02*
X26022228Y23141781D01*
X26022228Y23141781D02*
X25831752Y23141781D01*
X25831752Y23141781D02*
X25736514Y23189400D01*
X25736514Y23189400D02*
X25688895Y23237020D01*
X25688895Y23237020D02*
X25641276Y23332258D01*
X25641276Y23332258D02*
X25641276Y24141781D01*
X25260323Y24141781D02*
X24641276Y24141781D01*
X24641276Y24141781D02*
X24974609Y23760829D01*
X24974609Y23760829D02*
X24831752Y23760829D01*
X24831752Y23760829D02*
X24736514Y23713210D01*
X24736514Y23713210D02*
X24688895Y23665591D01*
X24688895Y23665591D02*
X24641276Y23570353D01*
X24641276Y23570353D02*
X24641276Y23332258D01*
X24641276Y23332258D02*
X24688895Y23237020D01*
X24688895Y23237020D02*
X24736514Y23189400D01*
X24736514Y23189400D02*
X24831752Y23141781D01*
X24831752Y23141781D02*
X25117466Y23141781D01*
X25117466Y23141781D02*
X25212704Y23189400D01*
X25212704Y23189400D02*
X25260323Y23237020D01*
X70659057Y26433820D02*
X70706676Y26386200D01*
X70706676Y26386200D02*
X70849533Y26338581D01*
X70849533Y26338581D02*
X70944771Y26338581D01*
X70944771Y26338581D02*
X71087628Y26386200D01*
X71087628Y26386200D02*
X71182866Y26481439D01*
X71182866Y26481439D02*
X71230485Y26576677D01*
X71230485Y26576677D02*
X71278104Y26767153D01*
X71278104Y26767153D02*
X71278104Y26910010D01*
X71278104Y26910010D02*
X71230485Y27100486D01*
X71230485Y27100486D02*
X71182866Y27195724D01*
X71182866Y27195724D02*
X71087628Y27290962D01*
X71087628Y27290962D02*
X70944771Y27338581D01*
X70944771Y27338581D02*
X70849533Y27338581D01*
X70849533Y27338581D02*
X70706676Y27290962D01*
X70706676Y27290962D02*
X70659057Y27243343D01*
X69801914Y27005248D02*
X69801914Y26338581D01*
X70040009Y27386200D02*
X70278104Y26671915D01*
X70278104Y26671915D02*
X69659057Y26671915D01*
X68754295Y26338581D02*
X69325723Y26338581D01*
X69040009Y26338581D02*
X69040009Y27338581D01*
X69040009Y27338581D02*
X69135247Y27195724D01*
X69135247Y27195724D02*
X69230485Y27100486D01*
X69230485Y27100486D02*
X69325723Y27052867D01*
X35247580Y26623458D02*
X35295200Y26671077D01*
X35295200Y26671077D02*
X35342819Y26813934D01*
X35342819Y26813934D02*
X35342819Y26909172D01*
X35342819Y26909172D02*
X35295200Y27052029D01*
X35295200Y27052029D02*
X35199961Y27147267D01*
X35199961Y27147267D02*
X35104723Y27194886D01*
X35104723Y27194886D02*
X34914247Y27242505D01*
X34914247Y27242505D02*
X34771390Y27242505D01*
X34771390Y27242505D02*
X34580914Y27194886D01*
X34580914Y27194886D02*
X34485676Y27147267D01*
X34485676Y27147267D02*
X34390438Y27052029D01*
X34390438Y27052029D02*
X34342819Y26909172D01*
X34342819Y26909172D02*
X34342819Y26813934D01*
X34342819Y26813934D02*
X34390438Y26671077D01*
X34390438Y26671077D02*
X34438057Y26623458D01*
X35342819Y25671077D02*
X35342819Y26242505D01*
X35342819Y25956791D02*
X34342819Y25956791D01*
X34342819Y25956791D02*
X34485676Y26052029D01*
X34485676Y26052029D02*
X34580914Y26147267D01*
X34580914Y26147267D02*
X34628533Y26242505D01*
X34342819Y24766315D02*
X34342819Y25242505D01*
X34342819Y25242505D02*
X34819009Y25290124D01*
X34819009Y25290124D02*
X34771390Y25242505D01*
X34771390Y25242505D02*
X34723771Y25147267D01*
X34723771Y25147267D02*
X34723771Y24909172D01*
X34723771Y24909172D02*
X34771390Y24813934D01*
X34771390Y24813934D02*
X34819009Y24766315D01*
X34819009Y24766315D02*
X34914247Y24718696D01*
X34914247Y24718696D02*
X35152342Y24718696D01*
X35152342Y24718696D02*
X35247580Y24766315D01*
X35247580Y24766315D02*
X35295200Y24813934D01*
X35295200Y24813934D02*
X35342819Y24909172D01*
X35342819Y24909172D02*
X35342819Y25147267D01*
X35342819Y25147267D02*
X35295200Y25242505D01*
X35295200Y25242505D02*
X35247580Y25290124D01*
X53306980Y35875467D02*
X53354600Y35923086D01*
X53354600Y35923086D02*
X53402219Y36065943D01*
X53402219Y36065943D02*
X53402219Y36161181D01*
X53402219Y36161181D02*
X53354600Y36304038D01*
X53354600Y36304038D02*
X53259361Y36399276D01*
X53259361Y36399276D02*
X53164123Y36446895D01*
X53164123Y36446895D02*
X52973647Y36494514D01*
X52973647Y36494514D02*
X52830790Y36494514D01*
X52830790Y36494514D02*
X52640314Y36446895D01*
X52640314Y36446895D02*
X52545076Y36399276D01*
X52545076Y36399276D02*
X52449838Y36304038D01*
X52449838Y36304038D02*
X52402219Y36161181D01*
X52402219Y36161181D02*
X52402219Y36065943D01*
X52402219Y36065943D02*
X52449838Y35923086D01*
X52449838Y35923086D02*
X52497457Y35875467D01*
X52402219Y34970705D02*
X52402219Y35446895D01*
X52402219Y35446895D02*
X52878409Y35494514D01*
X52878409Y35494514D02*
X52830790Y35446895D01*
X52830790Y35446895D02*
X52783171Y35351657D01*
X52783171Y35351657D02*
X52783171Y35113562D01*
X52783171Y35113562D02*
X52830790Y35018324D01*
X52830790Y35018324D02*
X52878409Y34970705D01*
X52878409Y34970705D02*
X52973647Y34923086D01*
X52973647Y34923086D02*
X53211742Y34923086D01*
X53211742Y34923086D02*
X53306980Y34970705D01*
X53306980Y34970705D02*
X53354600Y35018324D01*
X53354600Y35018324D02*
X53402219Y35113562D01*
X53402219Y35113562D02*
X53402219Y35351657D01*
X53402219Y35351657D02*
X53354600Y35446895D01*
X53354600Y35446895D02*
X53306980Y35494514D01*
X55465980Y20552858D02*
X55513600Y20600477D01*
X55513600Y20600477D02*
X55561219Y20743334D01*
X55561219Y20743334D02*
X55561219Y20838572D01*
X55561219Y20838572D02*
X55513600Y20981429D01*
X55513600Y20981429D02*
X55418361Y21076667D01*
X55418361Y21076667D02*
X55323123Y21124286D01*
X55323123Y21124286D02*
X55132647Y21171905D01*
X55132647Y21171905D02*
X54989790Y21171905D01*
X54989790Y21171905D02*
X54799314Y21124286D01*
X54799314Y21124286D02*
X54704076Y21076667D01*
X54704076Y21076667D02*
X54608838Y20981429D01*
X54608838Y20981429D02*
X54561219Y20838572D01*
X54561219Y20838572D02*
X54561219Y20743334D01*
X54561219Y20743334D02*
X54608838Y20600477D01*
X54608838Y20600477D02*
X54656457Y20552858D01*
X54656457Y20171905D02*
X54608838Y20124286D01*
X54608838Y20124286D02*
X54561219Y20029048D01*
X54561219Y20029048D02*
X54561219Y19790953D01*
X54561219Y19790953D02*
X54608838Y19695715D01*
X54608838Y19695715D02*
X54656457Y19648096D01*
X54656457Y19648096D02*
X54751695Y19600477D01*
X54751695Y19600477D02*
X54846933Y19600477D01*
X54846933Y19600477D02*
X54989790Y19648096D01*
X54989790Y19648096D02*
X55561219Y20219524D01*
X55561219Y20219524D02*
X55561219Y19600477D01*
X55561219Y19124286D02*
X55561219Y18933810D01*
X55561219Y18933810D02*
X55513600Y18838572D01*
X55513600Y18838572D02*
X55465980Y18790953D01*
X55465980Y18790953D02*
X55323123Y18695715D01*
X55323123Y18695715D02*
X55132647Y18648096D01*
X55132647Y18648096D02*
X54751695Y18648096D01*
X54751695Y18648096D02*
X54656457Y18695715D01*
X54656457Y18695715D02*
X54608838Y18743334D01*
X54608838Y18743334D02*
X54561219Y18838572D01*
X54561219Y18838572D02*
X54561219Y19029048D01*
X54561219Y19029048D02*
X54608838Y19124286D01*
X54608838Y19124286D02*
X54656457Y19171905D01*
X54656457Y19171905D02*
X54751695Y19219524D01*
X54751695Y19219524D02*
X54989790Y19219524D01*
X54989790Y19219524D02*
X55085028Y19171905D01*
X55085028Y19171905D02*
X55132647Y19124286D01*
X55132647Y19124286D02*
X55180266Y19029048D01*
X55180266Y19029048D02*
X55180266Y18838572D01*
X55180266Y18838572D02*
X55132647Y18743334D01*
X55132647Y18743334D02*
X55085028Y18695715D01*
X55085028Y18695715D02*
X54989790Y18648096D01*
X28541980Y23448458D02*
X28589600Y23496077D01*
X28589600Y23496077D02*
X28637219Y23638934D01*
X28637219Y23638934D02*
X28637219Y23734172D01*
X28637219Y23734172D02*
X28589600Y23877029D01*
X28589600Y23877029D02*
X28494361Y23972267D01*
X28494361Y23972267D02*
X28399123Y24019886D01*
X28399123Y24019886D02*
X28208647Y24067505D01*
X28208647Y24067505D02*
X28065790Y24067505D01*
X28065790Y24067505D02*
X27875314Y24019886D01*
X27875314Y24019886D02*
X27780076Y23972267D01*
X27780076Y23972267D02*
X27684838Y23877029D01*
X27684838Y23877029D02*
X27637219Y23734172D01*
X27637219Y23734172D02*
X27637219Y23638934D01*
X27637219Y23638934D02*
X27684838Y23496077D01*
X27684838Y23496077D02*
X27732457Y23448458D01*
X27970552Y22591315D02*
X28637219Y22591315D01*
X27589600Y22829410D02*
X28303885Y23067505D01*
X28303885Y23067505D02*
X28303885Y22448458D01*
X28065790Y21924648D02*
X28018171Y22019886D01*
X28018171Y22019886D02*
X27970552Y22067505D01*
X27970552Y22067505D02*
X27875314Y22115124D01*
X27875314Y22115124D02*
X27827695Y22115124D01*
X27827695Y22115124D02*
X27732457Y22067505D01*
X27732457Y22067505D02*
X27684838Y22019886D01*
X27684838Y22019886D02*
X27637219Y21924648D01*
X27637219Y21924648D02*
X27637219Y21734172D01*
X27637219Y21734172D02*
X27684838Y21638934D01*
X27684838Y21638934D02*
X27732457Y21591315D01*
X27732457Y21591315D02*
X27827695Y21543696D01*
X27827695Y21543696D02*
X27875314Y21543696D01*
X27875314Y21543696D02*
X27970552Y21591315D01*
X27970552Y21591315D02*
X28018171Y21638934D01*
X28018171Y21638934D02*
X28065790Y21734172D01*
X28065790Y21734172D02*
X28065790Y21924648D01*
X28065790Y21924648D02*
X28113409Y22019886D01*
X28113409Y22019886D02*
X28161028Y22067505D01*
X28161028Y22067505D02*
X28256266Y22115124D01*
X28256266Y22115124D02*
X28446742Y22115124D01*
X28446742Y22115124D02*
X28541980Y22067505D01*
X28541980Y22067505D02*
X28589600Y22019886D01*
X28589600Y22019886D02*
X28637219Y21924648D01*
X28637219Y21924648D02*
X28637219Y21734172D01*
X28637219Y21734172D02*
X28589600Y21638934D01*
X28589600Y21638934D02*
X28541980Y21591315D01*
X28541980Y21591315D02*
X28446742Y21543696D01*
X28446742Y21543696D02*
X28256266Y21543696D01*
X28256266Y21543696D02*
X28161028Y21591315D01*
X28161028Y21591315D02*
X28113409Y21638934D01*
X28113409Y21638934D02*
X28065790Y21734172D01*
X15943580Y20603658D02*
X15991200Y20651277D01*
X15991200Y20651277D02*
X16038819Y20794134D01*
X16038819Y20794134D02*
X16038819Y20889372D01*
X16038819Y20889372D02*
X15991200Y21032229D01*
X15991200Y21032229D02*
X15895961Y21127467D01*
X15895961Y21127467D02*
X15800723Y21175086D01*
X15800723Y21175086D02*
X15610247Y21222705D01*
X15610247Y21222705D02*
X15467390Y21222705D01*
X15467390Y21222705D02*
X15276914Y21175086D01*
X15276914Y21175086D02*
X15181676Y21127467D01*
X15181676Y21127467D02*
X15086438Y21032229D01*
X15086438Y21032229D02*
X15038819Y20889372D01*
X15038819Y20889372D02*
X15038819Y20794134D01*
X15038819Y20794134D02*
X15086438Y20651277D01*
X15086438Y20651277D02*
X15134057Y20603658D01*
X15372152Y19746515D02*
X16038819Y19746515D01*
X14991200Y19984610D02*
X15705485Y20222705D01*
X15705485Y20222705D02*
X15705485Y19603658D01*
X15038819Y19317943D02*
X15038819Y18651277D01*
X15038819Y18651277D02*
X16038819Y19079848D01*
X41769019Y18012858D02*
X41292828Y18346191D01*
X41769019Y18584286D02*
X40769019Y18584286D01*
X40769019Y18584286D02*
X40769019Y18203334D01*
X40769019Y18203334D02*
X40816638Y18108096D01*
X40816638Y18108096D02*
X40864257Y18060477D01*
X40864257Y18060477D02*
X40959495Y18012858D01*
X40959495Y18012858D02*
X41102352Y18012858D01*
X41102352Y18012858D02*
X41197590Y18060477D01*
X41197590Y18060477D02*
X41245209Y18108096D01*
X41245209Y18108096D02*
X41292828Y18203334D01*
X41292828Y18203334D02*
X41292828Y18584286D01*
X40864257Y17631905D02*
X40816638Y17584286D01*
X40816638Y17584286D02*
X40769019Y17489048D01*
X40769019Y17489048D02*
X40769019Y17250953D01*
X40769019Y17250953D02*
X40816638Y17155715D01*
X40816638Y17155715D02*
X40864257Y17108096D01*
X40864257Y17108096D02*
X40959495Y17060477D01*
X40959495Y17060477D02*
X41054733Y17060477D01*
X41054733Y17060477D02*
X41197590Y17108096D01*
X41197590Y17108096D02*
X41769019Y17679524D01*
X41769019Y17679524D02*
X41769019Y17060477D01*
X41769019Y16108096D02*
X41769019Y16679524D01*
X41769019Y16393810D02*
X40769019Y16393810D01*
X40769019Y16393810D02*
X40911876Y16489048D01*
X40911876Y16489048D02*
X41007114Y16584286D01*
X41007114Y16584286D02*
X41054733Y16679524D01*
X15740380Y35894458D02*
X15788000Y35942077D01*
X15788000Y35942077D02*
X15835619Y36084934D01*
X15835619Y36084934D02*
X15835619Y36180172D01*
X15835619Y36180172D02*
X15788000Y36323029D01*
X15788000Y36323029D02*
X15692761Y36418267D01*
X15692761Y36418267D02*
X15597523Y36465886D01*
X15597523Y36465886D02*
X15407047Y36513505D01*
X15407047Y36513505D02*
X15264190Y36513505D01*
X15264190Y36513505D02*
X15073714Y36465886D01*
X15073714Y36465886D02*
X14978476Y36418267D01*
X14978476Y36418267D02*
X14883238Y36323029D01*
X14883238Y36323029D02*
X14835619Y36180172D01*
X14835619Y36180172D02*
X14835619Y36084934D01*
X14835619Y36084934D02*
X14883238Y35942077D01*
X14883238Y35942077D02*
X14930857Y35894458D01*
X14835619Y35561124D02*
X14835619Y34942077D01*
X14835619Y34942077D02*
X15216571Y35275410D01*
X15216571Y35275410D02*
X15216571Y35132553D01*
X15216571Y35132553D02*
X15264190Y35037315D01*
X15264190Y35037315D02*
X15311809Y34989696D01*
X15311809Y34989696D02*
X15407047Y34942077D01*
X15407047Y34942077D02*
X15645142Y34942077D01*
X15645142Y34942077D02*
X15740380Y34989696D01*
X15740380Y34989696D02*
X15788000Y35037315D01*
X15788000Y35037315D02*
X15835619Y35132553D01*
X15835619Y35132553D02*
X15835619Y35418267D01*
X15835619Y35418267D02*
X15788000Y35513505D01*
X15788000Y35513505D02*
X15740380Y35561124D01*
X14835619Y34608743D02*
X14835619Y33942077D01*
X14835619Y33942077D02*
X15835619Y34370648D01*
X20428894Y46871181D02*
X20428894Y46061658D01*
X20428894Y46061658D02*
X20381275Y45966420D01*
X20381275Y45966420D02*
X20333656Y45918800D01*
X20333656Y45918800D02*
X20238418Y45871181D01*
X20238418Y45871181D02*
X20047942Y45871181D01*
X20047942Y45871181D02*
X19952704Y45918800D01*
X19952704Y45918800D02*
X19905085Y45966420D01*
X19905085Y45966420D02*
X19857466Y46061658D01*
X19857466Y46061658D02*
X19857466Y46871181D01*
X18857466Y45871181D02*
X19428894Y45871181D01*
X19143180Y45871181D02*
X19143180Y46871181D01*
X19143180Y46871181D02*
X19238418Y46728324D01*
X19238418Y46728324D02*
X19333656Y46633086D01*
X19333656Y46633086D02*
X19428894Y46585467D01*
X17952704Y46871181D02*
X18428894Y46871181D01*
X18428894Y46871181D02*
X18476513Y46394991D01*
X18476513Y46394991D02*
X18428894Y46442610D01*
X18428894Y46442610D02*
X18333656Y46490229D01*
X18333656Y46490229D02*
X18095561Y46490229D01*
X18095561Y46490229D02*
X18000323Y46442610D01*
X18000323Y46442610D02*
X17952704Y46394991D01*
X17952704Y46394991D02*
X17905085Y46299753D01*
X17905085Y46299753D02*
X17905085Y46061658D01*
X17905085Y46061658D02*
X17952704Y45966420D01*
X17952704Y45966420D02*
X18000323Y45918800D01*
X18000323Y45918800D02*
X18095561Y45871181D01*
X18095561Y45871181D02*
X18333656Y45871181D01*
X18333656Y45871181D02*
X18428894Y45918800D01*
X18428894Y45918800D02*
X18476513Y45966420D01*
X20845780Y15555467D02*
X20893400Y15603086D01*
X20893400Y15603086D02*
X20941019Y15745943D01*
X20941019Y15745943D02*
X20941019Y15841181D01*
X20941019Y15841181D02*
X20893400Y15984038D01*
X20893400Y15984038D02*
X20798161Y16079276D01*
X20798161Y16079276D02*
X20702923Y16126895D01*
X20702923Y16126895D02*
X20512447Y16174514D01*
X20512447Y16174514D02*
X20369590Y16174514D01*
X20369590Y16174514D02*
X20179114Y16126895D01*
X20179114Y16126895D02*
X20083876Y16079276D01*
X20083876Y16079276D02*
X19988638Y15984038D01*
X19988638Y15984038D02*
X19941019Y15841181D01*
X19941019Y15841181D02*
X19941019Y15745943D01*
X19941019Y15745943D02*
X19988638Y15603086D01*
X19988638Y15603086D02*
X20036257Y15555467D01*
X19941019Y14698324D02*
X19941019Y14888800D01*
X19941019Y14888800D02*
X19988638Y14984038D01*
X19988638Y14984038D02*
X20036257Y15031657D01*
X20036257Y15031657D02*
X20179114Y15126895D01*
X20179114Y15126895D02*
X20369590Y15174514D01*
X20369590Y15174514D02*
X20750542Y15174514D01*
X20750542Y15174514D02*
X20845780Y15126895D01*
X20845780Y15126895D02*
X20893400Y15079276D01*
X20893400Y15079276D02*
X20941019Y14984038D01*
X20941019Y14984038D02*
X20941019Y14793562D01*
X20941019Y14793562D02*
X20893400Y14698324D01*
X20893400Y14698324D02*
X20845780Y14650705D01*
X20845780Y14650705D02*
X20750542Y14603086D01*
X20750542Y14603086D02*
X20512447Y14603086D01*
X20512447Y14603086D02*
X20417209Y14650705D01*
X20417209Y14650705D02*
X20369590Y14698324D01*
X20369590Y14698324D02*
X20321971Y14793562D01*
X20321971Y14793562D02*
X20321971Y14984038D01*
X20321971Y14984038D02*
X20369590Y15079276D01*
X20369590Y15079276D02*
X20417209Y15126895D01*
X20417209Y15126895D02*
X20512447Y15174514D01*
X29757104Y35999981D02*
X29757104Y35190458D01*
X29757104Y35190458D02*
X29709485Y35095220D01*
X29709485Y35095220D02*
X29661866Y35047600D01*
X29661866Y35047600D02*
X29566628Y34999981D01*
X29566628Y34999981D02*
X29376152Y34999981D01*
X29376152Y34999981D02*
X29280914Y35047600D01*
X29280914Y35047600D02*
X29233295Y35095220D01*
X29233295Y35095220D02*
X29185676Y35190458D01*
X29185676Y35190458D02*
X29185676Y35999981D01*
X28185676Y34999981D02*
X28757104Y34999981D01*
X28471390Y34999981D02*
X28471390Y35999981D01*
X28471390Y35999981D02*
X28566628Y35857124D01*
X28566628Y35857124D02*
X28661866Y35761886D01*
X28661866Y35761886D02*
X28757104Y35714267D01*
X52929857Y31316981D02*
X53263190Y31793172D01*
X53501285Y31316981D02*
X53501285Y32316981D01*
X53501285Y32316981D02*
X53120333Y32316981D01*
X53120333Y32316981D02*
X53025095Y32269362D01*
X53025095Y32269362D02*
X52977476Y32221743D01*
X52977476Y32221743D02*
X52929857Y32126505D01*
X52929857Y32126505D02*
X52929857Y31983648D01*
X52929857Y31983648D02*
X52977476Y31888410D01*
X52977476Y31888410D02*
X53025095Y31840791D01*
X53025095Y31840791D02*
X53120333Y31793172D01*
X53120333Y31793172D02*
X53501285Y31793172D01*
X51977476Y31316981D02*
X52548904Y31316981D01*
X52263190Y31316981D02*
X52263190Y32316981D01*
X52263190Y32316981D02*
X52358428Y32174124D01*
X52358428Y32174124D02*
X52453666Y32078886D01*
X52453666Y32078886D02*
X52548904Y32031267D01*
X51644142Y32316981D02*
X51025095Y32316981D01*
X51025095Y32316981D02*
X51358428Y31936029D01*
X51358428Y31936029D02*
X51215571Y31936029D01*
X51215571Y31936029D02*
X51120333Y31888410D01*
X51120333Y31888410D02*
X51072714Y31840791D01*
X51072714Y31840791D02*
X51025095Y31745553D01*
X51025095Y31745553D02*
X51025095Y31507458D01*
X51025095Y31507458D02*
X51072714Y31412220D01*
X51072714Y31412220D02*
X51120333Y31364600D01*
X51120333Y31364600D02*
X51215571Y31316981D01*
X51215571Y31316981D02*
X51501285Y31316981D01*
X51501285Y31316981D02*
X51596523Y31364600D01*
X51596523Y31364600D02*
X51644142Y31412220D01*
X16324580Y32719458D02*
X16372200Y32767077D01*
X16372200Y32767077D02*
X16419819Y32909934D01*
X16419819Y32909934D02*
X16419819Y33005172D01*
X16419819Y33005172D02*
X16372200Y33148029D01*
X16372200Y33148029D02*
X16276961Y33243267D01*
X16276961Y33243267D02*
X16181723Y33290886D01*
X16181723Y33290886D02*
X15991247Y33338505D01*
X15991247Y33338505D02*
X15848390Y33338505D01*
X15848390Y33338505D02*
X15657914Y33290886D01*
X15657914Y33290886D02*
X15562676Y33243267D01*
X15562676Y33243267D02*
X15467438Y33148029D01*
X15467438Y33148029D02*
X15419819Y33005172D01*
X15419819Y33005172D02*
X15419819Y32909934D01*
X15419819Y32909934D02*
X15467438Y32767077D01*
X15467438Y32767077D02*
X15515057Y32719458D01*
X15753152Y31862315D02*
X16419819Y31862315D01*
X15372200Y32100410D02*
X16086485Y32338505D01*
X16086485Y32338505D02*
X16086485Y31719458D01*
X15419819Y31433743D02*
X15419819Y30814696D01*
X15419819Y30814696D02*
X15800771Y31148029D01*
X15800771Y31148029D02*
X15800771Y31005172D01*
X15800771Y31005172D02*
X15848390Y30909934D01*
X15848390Y30909934D02*
X15896009Y30862315D01*
X15896009Y30862315D02*
X15991247Y30814696D01*
X15991247Y30814696D02*
X16229342Y30814696D01*
X16229342Y30814696D02*
X16324580Y30862315D01*
X16324580Y30862315D02*
X16372200Y30909934D01*
X16372200Y30909934D02*
X16419819Y31005172D01*
X16419819Y31005172D02*
X16419819Y31290886D01*
X16419819Y31290886D02*
X16372200Y31386124D01*
X16372200Y31386124D02*
X16324580Y31433743D01*
X59737419Y34831258D02*
X59261228Y35164591D01*
X59737419Y35402686D02*
X58737419Y35402686D01*
X58737419Y35402686D02*
X58737419Y35021734D01*
X58737419Y35021734D02*
X58785038Y34926496D01*
X58785038Y34926496D02*
X58832657Y34878877D01*
X58832657Y34878877D02*
X58927895Y34831258D01*
X58927895Y34831258D02*
X59070752Y34831258D01*
X59070752Y34831258D02*
X59165990Y34878877D01*
X59165990Y34878877D02*
X59213609Y34926496D01*
X59213609Y34926496D02*
X59261228Y35021734D01*
X59261228Y35021734D02*
X59261228Y35402686D01*
X59737419Y33878877D02*
X59737419Y34450305D01*
X59737419Y34164591D02*
X58737419Y34164591D01*
X58737419Y34164591D02*
X58880276Y34259829D01*
X58880276Y34259829D02*
X58975514Y34355067D01*
X58975514Y34355067D02*
X59023133Y34450305D01*
X58737419Y33259829D02*
X58737419Y33164591D01*
X58737419Y33164591D02*
X58785038Y33069353D01*
X58785038Y33069353D02*
X58832657Y33021734D01*
X58832657Y33021734D02*
X58927895Y32974115D01*
X58927895Y32974115D02*
X59118371Y32926496D01*
X59118371Y32926496D02*
X59356466Y32926496D01*
X59356466Y32926496D02*
X59546942Y32974115D01*
X59546942Y32974115D02*
X59642180Y33021734D01*
X59642180Y33021734D02*
X59689800Y33069353D01*
X59689800Y33069353D02*
X59737419Y33164591D01*
X59737419Y33164591D02*
X59737419Y33259829D01*
X59737419Y33259829D02*
X59689800Y33355067D01*
X59689800Y33355067D02*
X59642180Y33402686D01*
X59642180Y33402686D02*
X59546942Y33450305D01*
X59546942Y33450305D02*
X59356466Y33497924D01*
X59356466Y33497924D02*
X59118371Y33497924D01*
X59118371Y33497924D02*
X58927895Y33450305D01*
X58927895Y33450305D02*
X58832657Y33402686D01*
X58832657Y33402686D02*
X58785038Y33355067D01*
X58785038Y33355067D02*
X58737419Y33259829D01*
X54068980Y38586858D02*
X54116600Y38634477D01*
X54116600Y38634477D02*
X54164219Y38777334D01*
X54164219Y38777334D02*
X54164219Y38872572D01*
X54164219Y38872572D02*
X54116600Y39015429D01*
X54116600Y39015429D02*
X54021361Y39110667D01*
X54021361Y39110667D02*
X53926123Y39158286D01*
X53926123Y39158286D02*
X53735647Y39205905D01*
X53735647Y39205905D02*
X53592790Y39205905D01*
X53592790Y39205905D02*
X53402314Y39158286D01*
X53402314Y39158286D02*
X53307076Y39110667D01*
X53307076Y39110667D02*
X53211838Y39015429D01*
X53211838Y39015429D02*
X53164219Y38872572D01*
X53164219Y38872572D02*
X53164219Y38777334D01*
X53164219Y38777334D02*
X53211838Y38634477D01*
X53211838Y38634477D02*
X53259457Y38586858D01*
X54164219Y37634477D02*
X54164219Y38205905D01*
X54164219Y37920191D02*
X53164219Y37920191D01*
X53164219Y37920191D02*
X53307076Y38015429D01*
X53307076Y38015429D02*
X53402314Y38110667D01*
X53402314Y38110667D02*
X53449933Y38205905D01*
X54164219Y37158286D02*
X54164219Y36967810D01*
X54164219Y36967810D02*
X54116600Y36872572D01*
X54116600Y36872572D02*
X54068980Y36824953D01*
X54068980Y36824953D02*
X53926123Y36729715D01*
X53926123Y36729715D02*
X53735647Y36682096D01*
X53735647Y36682096D02*
X53354695Y36682096D01*
X53354695Y36682096D02*
X53259457Y36729715D01*
X53259457Y36729715D02*
X53211838Y36777334D01*
X53211838Y36777334D02*
X53164219Y36872572D01*
X53164219Y36872572D02*
X53164219Y37063048D01*
X53164219Y37063048D02*
X53211838Y37158286D01*
X53211838Y37158286D02*
X53259457Y37205905D01*
X53259457Y37205905D02*
X53354695Y37253524D01*
X53354695Y37253524D02*
X53592790Y37253524D01*
X53592790Y37253524D02*
X53688028Y37205905D01*
X53688028Y37205905D02*
X53735647Y37158286D01*
X53735647Y37158286D02*
X53783266Y37063048D01*
X53783266Y37063048D02*
X53783266Y36872572D01*
X53783266Y36872572D02*
X53735647Y36777334D01*
X53735647Y36777334D02*
X53688028Y36729715D01*
X53688028Y36729715D02*
X53592790Y36682096D01*
X33231057Y18360220D02*
X33278676Y18312600D01*
X33278676Y18312600D02*
X33421533Y18264981D01*
X33421533Y18264981D02*
X33516771Y18264981D01*
X33516771Y18264981D02*
X33659628Y18312600D01*
X33659628Y18312600D02*
X33754866Y18407839D01*
X33754866Y18407839D02*
X33802485Y18503077D01*
X33802485Y18503077D02*
X33850104Y18693553D01*
X33850104Y18693553D02*
X33850104Y18836410D01*
X33850104Y18836410D02*
X33802485Y19026886D01*
X33802485Y19026886D02*
X33754866Y19122124D01*
X33754866Y19122124D02*
X33659628Y19217362D01*
X33659628Y19217362D02*
X33516771Y19264981D01*
X33516771Y19264981D02*
X33421533Y19264981D01*
X33421533Y19264981D02*
X33278676Y19217362D01*
X33278676Y19217362D02*
X33231057Y19169743D01*
X32278676Y18264981D02*
X32850104Y18264981D01*
X32564390Y18264981D02*
X32564390Y19264981D01*
X32564390Y19264981D02*
X32659628Y19122124D01*
X32659628Y19122124D02*
X32754866Y19026886D01*
X32754866Y19026886D02*
X32850104Y18979267D01*
X31421533Y18931648D02*
X31421533Y18264981D01*
X31659628Y19312600D02*
X31897723Y18598315D01*
X31897723Y18598315D02*
X31278676Y18598315D01*
X14619180Y49534258D02*
X14666800Y49581877D01*
X14666800Y49581877D02*
X14714419Y49724734D01*
X14714419Y49724734D02*
X14714419Y49819972D01*
X14714419Y49819972D02*
X14666800Y49962829D01*
X14666800Y49962829D02*
X14571561Y50058067D01*
X14571561Y50058067D02*
X14476323Y50105686D01*
X14476323Y50105686D02*
X14285847Y50153305D01*
X14285847Y50153305D02*
X14142990Y50153305D01*
X14142990Y50153305D02*
X13952514Y50105686D01*
X13952514Y50105686D02*
X13857276Y50058067D01*
X13857276Y50058067D02*
X13762038Y49962829D01*
X13762038Y49962829D02*
X13714419Y49819972D01*
X13714419Y49819972D02*
X13714419Y49724734D01*
X13714419Y49724734D02*
X13762038Y49581877D01*
X13762038Y49581877D02*
X13809657Y49534258D01*
X13714419Y48629496D02*
X13714419Y49105686D01*
X13714419Y49105686D02*
X14190609Y49153305D01*
X14190609Y49153305D02*
X14142990Y49105686D01*
X14142990Y49105686D02*
X14095371Y49010448D01*
X14095371Y49010448D02*
X14095371Y48772353D01*
X14095371Y48772353D02*
X14142990Y48677115D01*
X14142990Y48677115D02*
X14190609Y48629496D01*
X14190609Y48629496D02*
X14285847Y48581877D01*
X14285847Y48581877D02*
X14523942Y48581877D01*
X14523942Y48581877D02*
X14619180Y48629496D01*
X14619180Y48629496D02*
X14666800Y48677115D01*
X14666800Y48677115D02*
X14714419Y48772353D01*
X14714419Y48772353D02*
X14714419Y49010448D01*
X14714419Y49010448D02*
X14666800Y49105686D01*
X14666800Y49105686D02*
X14619180Y49153305D01*
X14714419Y47629496D02*
X14714419Y48200924D01*
X14714419Y47915210D02*
X13714419Y47915210D01*
X13714419Y47915210D02*
X13857276Y48010448D01*
X13857276Y48010448D02*
X13952514Y48105686D01*
X13952514Y48105686D02*
X14000133Y48200924D01*
X25193057Y46017220D02*
X25240676Y45969600D01*
X25240676Y45969600D02*
X25383533Y45921981D01*
X25383533Y45921981D02*
X25478771Y45921981D01*
X25478771Y45921981D02*
X25621628Y45969600D01*
X25621628Y45969600D02*
X25716866Y46064839D01*
X25716866Y46064839D02*
X25764485Y46160077D01*
X25764485Y46160077D02*
X25812104Y46350553D01*
X25812104Y46350553D02*
X25812104Y46493410D01*
X25812104Y46493410D02*
X25764485Y46683886D01*
X25764485Y46683886D02*
X25716866Y46779124D01*
X25716866Y46779124D02*
X25621628Y46874362D01*
X25621628Y46874362D02*
X25478771Y46921981D01*
X25478771Y46921981D02*
X25383533Y46921981D01*
X25383533Y46921981D02*
X25240676Y46874362D01*
X25240676Y46874362D02*
X25193057Y46826743D01*
X24859723Y46921981D02*
X24240676Y46921981D01*
X24240676Y46921981D02*
X24574009Y46541029D01*
X24574009Y46541029D02*
X24431152Y46541029D01*
X24431152Y46541029D02*
X24335914Y46493410D01*
X24335914Y46493410D02*
X24288295Y46445791D01*
X24288295Y46445791D02*
X24240676Y46350553D01*
X24240676Y46350553D02*
X24240676Y46112458D01*
X24240676Y46112458D02*
X24288295Y46017220D01*
X24288295Y46017220D02*
X24335914Y45969600D01*
X24335914Y45969600D02*
X24431152Y45921981D01*
X24431152Y45921981D02*
X24716866Y45921981D01*
X24716866Y45921981D02*
X24812104Y45969600D01*
X24812104Y45969600D02*
X24859723Y46017220D01*
X23764485Y45921981D02*
X23574009Y45921981D01*
X23574009Y45921981D02*
X23478771Y45969600D01*
X23478771Y45969600D02*
X23431152Y46017220D01*
X23431152Y46017220D02*
X23335914Y46160077D01*
X23335914Y46160077D02*
X23288295Y46350553D01*
X23288295Y46350553D02*
X23288295Y46731505D01*
X23288295Y46731505D02*
X23335914Y46826743D01*
X23335914Y46826743D02*
X23383533Y46874362D01*
X23383533Y46874362D02*
X23478771Y46921981D01*
X23478771Y46921981D02*
X23669247Y46921981D01*
X23669247Y46921981D02*
X23764485Y46874362D01*
X23764485Y46874362D02*
X23812104Y46826743D01*
X23812104Y46826743D02*
X23859723Y46731505D01*
X23859723Y46731505D02*
X23859723Y46493410D01*
X23859723Y46493410D02*
X23812104Y46398172D01*
X23812104Y46398172D02*
X23764485Y46350553D01*
X23764485Y46350553D02*
X23669247Y46302934D01*
X23669247Y46302934D02*
X23478771Y46302934D01*
X23478771Y46302934D02*
X23383533Y46350553D01*
X23383533Y46350553D02*
X23335914Y46398172D01*
X23335914Y46398172D02*
X23288295Y46493410D01*
X28571257Y46166020D02*
X28618876Y46118400D01*
X28618876Y46118400D02*
X28761733Y46070781D01*
X28761733Y46070781D02*
X28856971Y46070781D01*
X28856971Y46070781D02*
X28999828Y46118400D01*
X28999828Y46118400D02*
X29095066Y46213639D01*
X29095066Y46213639D02*
X29142685Y46308877D01*
X29142685Y46308877D02*
X29190304Y46499353D01*
X29190304Y46499353D02*
X29190304Y46642210D01*
X29190304Y46642210D02*
X29142685Y46832686D01*
X29142685Y46832686D02*
X29095066Y46927924D01*
X29095066Y46927924D02*
X28999828Y47023162D01*
X28999828Y47023162D02*
X28856971Y47070781D01*
X28856971Y47070781D02*
X28761733Y47070781D01*
X28761733Y47070781D02*
X28618876Y47023162D01*
X28618876Y47023162D02*
X28571257Y46975543D01*
X27666495Y47070781D02*
X28142685Y47070781D01*
X28142685Y47070781D02*
X28190304Y46594591D01*
X28190304Y46594591D02*
X28142685Y46642210D01*
X28142685Y46642210D02*
X28047447Y46689829D01*
X28047447Y46689829D02*
X27809352Y46689829D01*
X27809352Y46689829D02*
X27714114Y46642210D01*
X27714114Y46642210D02*
X27666495Y46594591D01*
X27666495Y46594591D02*
X27618876Y46499353D01*
X27618876Y46499353D02*
X27618876Y46261258D01*
X27618876Y46261258D02*
X27666495Y46166020D01*
X27666495Y46166020D02*
X27714114Y46118400D01*
X27714114Y46118400D02*
X27809352Y46070781D01*
X27809352Y46070781D02*
X28047447Y46070781D01*
X28047447Y46070781D02*
X28142685Y46118400D01*
X28142685Y46118400D02*
X28190304Y46166020D01*
X26999828Y47070781D02*
X26904590Y47070781D01*
X26904590Y47070781D02*
X26809352Y47023162D01*
X26809352Y47023162D02*
X26761733Y46975543D01*
X26761733Y46975543D02*
X26714114Y46880305D01*
X26714114Y46880305D02*
X26666495Y46689829D01*
X26666495Y46689829D02*
X26666495Y46451734D01*
X26666495Y46451734D02*
X26714114Y46261258D01*
X26714114Y46261258D02*
X26761733Y46166020D01*
X26761733Y46166020D02*
X26809352Y46118400D01*
X26809352Y46118400D02*
X26904590Y46070781D01*
X26904590Y46070781D02*
X26999828Y46070781D01*
X26999828Y46070781D02*
X27095066Y46118400D01*
X27095066Y46118400D02*
X27142685Y46166020D01*
X27142685Y46166020D02*
X27190304Y46261258D01*
X27190304Y46261258D02*
X27237923Y46451734D01*
X27237923Y46451734D02*
X27237923Y46689829D01*
X27237923Y46689829D02*
X27190304Y46880305D01*
X27190304Y46880305D02*
X27142685Y46975543D01*
X27142685Y46975543D02*
X27095066Y47023162D01*
X27095066Y47023162D02*
X26999828Y47070781D01*
X70735257Y23995420D02*
X70782876Y23947800D01*
X70782876Y23947800D02*
X70925733Y23900181D01*
X70925733Y23900181D02*
X71020971Y23900181D01*
X71020971Y23900181D02*
X71163828Y23947800D01*
X71163828Y23947800D02*
X71259066Y24043039D01*
X71259066Y24043039D02*
X71306685Y24138277D01*
X71306685Y24138277D02*
X71354304Y24328753D01*
X71354304Y24328753D02*
X71354304Y24471610D01*
X71354304Y24471610D02*
X71306685Y24662086D01*
X71306685Y24662086D02*
X71259066Y24757324D01*
X71259066Y24757324D02*
X71163828Y24852562D01*
X71163828Y24852562D02*
X71020971Y24900181D01*
X71020971Y24900181D02*
X70925733Y24900181D01*
X70925733Y24900181D02*
X70782876Y24852562D01*
X70782876Y24852562D02*
X70735257Y24804943D01*
X69878114Y24566848D02*
X69878114Y23900181D01*
X70116209Y24947800D02*
X70354304Y24233515D01*
X70354304Y24233515D02*
X69735257Y24233515D01*
X69163828Y24900181D02*
X69068590Y24900181D01*
X69068590Y24900181D02*
X68973352Y24852562D01*
X68973352Y24852562D02*
X68925733Y24804943D01*
X68925733Y24804943D02*
X68878114Y24709705D01*
X68878114Y24709705D02*
X68830495Y24519229D01*
X68830495Y24519229D02*
X68830495Y24281134D01*
X68830495Y24281134D02*
X68878114Y24090658D01*
X68878114Y24090658D02*
X68925733Y23995420D01*
X68925733Y23995420D02*
X68973352Y23947800D01*
X68973352Y23947800D02*
X69068590Y23900181D01*
X69068590Y23900181D02*
X69163828Y23900181D01*
X69163828Y23900181D02*
X69259066Y23947800D01*
X69259066Y23947800D02*
X69306685Y23995420D01*
X69306685Y23995420D02*
X69354304Y24090658D01*
X69354304Y24090658D02*
X69401923Y24281134D01*
X69401923Y24281134D02*
X69401923Y24519229D01*
X69401923Y24519229D02*
X69354304Y24709705D01*
X69354304Y24709705D02*
X69306685Y24804943D01*
X69306685Y24804943D02*
X69259066Y24852562D01*
X69259066Y24852562D02*
X69163828Y24900181D01*
X28919466Y38888781D02*
X29252799Y39364972D01*
X29490894Y38888781D02*
X29490894Y39888781D01*
X29490894Y39888781D02*
X29109942Y39888781D01*
X29109942Y39888781D02*
X29014704Y39841162D01*
X29014704Y39841162D02*
X28967085Y39793543D01*
X28967085Y39793543D02*
X28919466Y39698305D01*
X28919466Y39698305D02*
X28919466Y39555448D01*
X28919466Y39555448D02*
X28967085Y39460210D01*
X28967085Y39460210D02*
X29014704Y39412591D01*
X29014704Y39412591D02*
X29109942Y39364972D01*
X29109942Y39364972D02*
X29490894Y39364972D01*
X27967085Y38888781D02*
X28538513Y38888781D01*
X28252799Y38888781D02*
X28252799Y39888781D01*
X28252799Y39888781D02*
X28348037Y39745924D01*
X28348037Y39745924D02*
X28443275Y39650686D01*
X28443275Y39650686D02*
X28538513Y39603067D01*
X22830857Y31107420D02*
X22878476Y31059800D01*
X22878476Y31059800D02*
X23021333Y31012181D01*
X23021333Y31012181D02*
X23116571Y31012181D01*
X23116571Y31012181D02*
X23259428Y31059800D01*
X23259428Y31059800D02*
X23354666Y31155039D01*
X23354666Y31155039D02*
X23402285Y31250277D01*
X23402285Y31250277D02*
X23449904Y31440753D01*
X23449904Y31440753D02*
X23449904Y31583610D01*
X23449904Y31583610D02*
X23402285Y31774086D01*
X23402285Y31774086D02*
X23354666Y31869324D01*
X23354666Y31869324D02*
X23259428Y31964562D01*
X23259428Y31964562D02*
X23116571Y32012181D01*
X23116571Y32012181D02*
X23021333Y32012181D01*
X23021333Y32012181D02*
X22878476Y31964562D01*
X22878476Y31964562D02*
X22830857Y31916943D01*
X21878476Y31012181D02*
X22449904Y31012181D01*
X22164190Y31012181D02*
X22164190Y32012181D01*
X22164190Y32012181D02*
X22259428Y31869324D01*
X22259428Y31869324D02*
X22354666Y31774086D01*
X22354666Y31774086D02*
X22449904Y31726467D01*
X20926095Y31012181D02*
X21497523Y31012181D01*
X21211809Y31012181D02*
X21211809Y32012181D01*
X21211809Y32012181D02*
X21307047Y31869324D01*
X21307047Y31869324D02*
X21402285Y31774086D01*
X21402285Y31774086D02*
X21497523Y31726467D01*
X48967457Y30066020D02*
X49015076Y30018400D01*
X49015076Y30018400D02*
X49157933Y29970781D01*
X49157933Y29970781D02*
X49253171Y29970781D01*
X49253171Y29970781D02*
X49396028Y30018400D01*
X49396028Y30018400D02*
X49491266Y30113639D01*
X49491266Y30113639D02*
X49538885Y30208877D01*
X49538885Y30208877D02*
X49586504Y30399353D01*
X49586504Y30399353D02*
X49586504Y30542210D01*
X49586504Y30542210D02*
X49538885Y30732686D01*
X49538885Y30732686D02*
X49491266Y30827924D01*
X49491266Y30827924D02*
X49396028Y30923162D01*
X49396028Y30923162D02*
X49253171Y30970781D01*
X49253171Y30970781D02*
X49157933Y30970781D01*
X49157933Y30970781D02*
X49015076Y30923162D01*
X49015076Y30923162D02*
X48967457Y30875543D01*
X48634123Y30970781D02*
X48015076Y30970781D01*
X48015076Y30970781D02*
X48348409Y30589829D01*
X48348409Y30589829D02*
X48205552Y30589829D01*
X48205552Y30589829D02*
X48110314Y30542210D01*
X48110314Y30542210D02*
X48062695Y30494591D01*
X48062695Y30494591D02*
X48015076Y30399353D01*
X48015076Y30399353D02*
X48015076Y30161258D01*
X48015076Y30161258D02*
X48062695Y30066020D01*
X48062695Y30066020D02*
X48110314Y30018400D01*
X48110314Y30018400D02*
X48205552Y29970781D01*
X48205552Y29970781D02*
X48491266Y29970781D01*
X48491266Y29970781D02*
X48586504Y30018400D01*
X48586504Y30018400D02*
X48634123Y30066020D01*
X47396028Y30970781D02*
X47300790Y30970781D01*
X47300790Y30970781D02*
X47205552Y30923162D01*
X47205552Y30923162D02*
X47157933Y30875543D01*
X47157933Y30875543D02*
X47110314Y30780305D01*
X47110314Y30780305D02*
X47062695Y30589829D01*
X47062695Y30589829D02*
X47062695Y30351734D01*
X47062695Y30351734D02*
X47110314Y30161258D01*
X47110314Y30161258D02*
X47157933Y30066020D01*
X47157933Y30066020D02*
X47205552Y30018400D01*
X47205552Y30018400D02*
X47300790Y29970781D01*
X47300790Y29970781D02*
X47396028Y29970781D01*
X47396028Y29970781D02*
X47491266Y30018400D01*
X47491266Y30018400D02*
X47538885Y30066020D01*
X47538885Y30066020D02*
X47586504Y30161258D01*
X47586504Y30161258D02*
X47634123Y30351734D01*
X47634123Y30351734D02*
X47634123Y30589829D01*
X47634123Y30589829D02*
X47586504Y30780305D01*
X47586504Y30780305D02*
X47538885Y30875543D01*
X47538885Y30875543D02*
X47491266Y30923162D01*
X47491266Y30923162D02*
X47396028Y30970781D01*
X60422857Y30828020D02*
X60470476Y30780400D01*
X60470476Y30780400D02*
X60613333Y30732781D01*
X60613333Y30732781D02*
X60708571Y30732781D01*
X60708571Y30732781D02*
X60851428Y30780400D01*
X60851428Y30780400D02*
X60946666Y30875639D01*
X60946666Y30875639D02*
X60994285Y30970877D01*
X60994285Y30970877D02*
X61041904Y31161353D01*
X61041904Y31161353D02*
X61041904Y31304210D01*
X61041904Y31304210D02*
X60994285Y31494686D01*
X60994285Y31494686D02*
X60946666Y31589924D01*
X60946666Y31589924D02*
X60851428Y31685162D01*
X60851428Y31685162D02*
X60708571Y31732781D01*
X60708571Y31732781D02*
X60613333Y31732781D01*
X60613333Y31732781D02*
X60470476Y31685162D01*
X60470476Y31685162D02*
X60422857Y31637543D01*
X60041904Y31637543D02*
X59994285Y31685162D01*
X59994285Y31685162D02*
X59899047Y31732781D01*
X59899047Y31732781D02*
X59660952Y31732781D01*
X59660952Y31732781D02*
X59565714Y31685162D01*
X59565714Y31685162D02*
X59518095Y31637543D01*
X59518095Y31637543D02*
X59470476Y31542305D01*
X59470476Y31542305D02*
X59470476Y31447067D01*
X59470476Y31447067D02*
X59518095Y31304210D01*
X59518095Y31304210D02*
X60089523Y30732781D01*
X60089523Y30732781D02*
X59470476Y30732781D01*
X58518095Y30732781D02*
X59089523Y30732781D01*
X58803809Y30732781D02*
X58803809Y31732781D01*
X58803809Y31732781D02*
X58899047Y31589924D01*
X58899047Y31589924D02*
X58994285Y31494686D01*
X58994285Y31494686D02*
X59089523Y31447067D01*
X41475819Y21705867D02*
X40999628Y22039200D01*
X41475819Y22277295D02*
X40475819Y22277295D01*
X40475819Y22277295D02*
X40475819Y21896343D01*
X40475819Y21896343D02*
X40523438Y21801105D01*
X40523438Y21801105D02*
X40571057Y21753486D01*
X40571057Y21753486D02*
X40666295Y21705867D01*
X40666295Y21705867D02*
X40809152Y21705867D01*
X40809152Y21705867D02*
X40904390Y21753486D01*
X40904390Y21753486D02*
X40952009Y21801105D01*
X40952009Y21801105D02*
X40999628Y21896343D01*
X40999628Y21896343D02*
X40999628Y22277295D01*
X40475819Y21372533D02*
X40475819Y20705867D01*
X40475819Y20705867D02*
X41475819Y21134438D01*
X42312657Y44997620D02*
X42360276Y44950000D01*
X42360276Y44950000D02*
X42503133Y44902381D01*
X42503133Y44902381D02*
X42598371Y44902381D01*
X42598371Y44902381D02*
X42741228Y44950000D01*
X42741228Y44950000D02*
X42836466Y45045239D01*
X42836466Y45045239D02*
X42884085Y45140477D01*
X42884085Y45140477D02*
X42931704Y45330953D01*
X42931704Y45330953D02*
X42931704Y45473810D01*
X42931704Y45473810D02*
X42884085Y45664286D01*
X42884085Y45664286D02*
X42836466Y45759524D01*
X42836466Y45759524D02*
X42741228Y45854762D01*
X42741228Y45854762D02*
X42598371Y45902381D01*
X42598371Y45902381D02*
X42503133Y45902381D01*
X42503133Y45902381D02*
X42360276Y45854762D01*
X42360276Y45854762D02*
X42312657Y45807143D01*
X41455514Y45569048D02*
X41455514Y44902381D01*
X41693609Y45950000D02*
X41931704Y45235715D01*
X41931704Y45235715D02*
X41312657Y45235715D01*
X40503133Y45569048D02*
X40503133Y44902381D01*
X40741228Y45950000D02*
X40979323Y45235715D01*
X40979323Y45235715D02*
X40360276Y45235715D01*
X31786819Y21397467D02*
X31310628Y21730800D01*
X31786819Y21968895D02*
X30786819Y21968895D01*
X30786819Y21968895D02*
X30786819Y21587943D01*
X30786819Y21587943D02*
X30834438Y21492705D01*
X30834438Y21492705D02*
X30882057Y21445086D01*
X30882057Y21445086D02*
X30977295Y21397467D01*
X30977295Y21397467D02*
X31120152Y21397467D01*
X31120152Y21397467D02*
X31215390Y21445086D01*
X31215390Y21445086D02*
X31263009Y21492705D01*
X31263009Y21492705D02*
X31310628Y21587943D01*
X31310628Y21587943D02*
X31310628Y21968895D01*
X31120152Y20540324D02*
X31786819Y20540324D01*
X30739200Y20778419D02*
X31453485Y21016514D01*
X31453485Y21016514D02*
X31453485Y20397467D01*
X12569257Y26455620D02*
X12616876Y26408000D01*
X12616876Y26408000D02*
X12759733Y26360381D01*
X12759733Y26360381D02*
X12854971Y26360381D01*
X12854971Y26360381D02*
X12997828Y26408000D01*
X12997828Y26408000D02*
X13093066Y26503239D01*
X13093066Y26503239D02*
X13140685Y26598477D01*
X13140685Y26598477D02*
X13188304Y26788953D01*
X13188304Y26788953D02*
X13188304Y26931810D01*
X13188304Y26931810D02*
X13140685Y27122286D01*
X13140685Y27122286D02*
X13093066Y27217524D01*
X13093066Y27217524D02*
X12997828Y27312762D01*
X12997828Y27312762D02*
X12854971Y27360381D01*
X12854971Y27360381D02*
X12759733Y27360381D01*
X12759733Y27360381D02*
X12616876Y27312762D01*
X12616876Y27312762D02*
X12569257Y27265143D01*
X11712114Y27027048D02*
X11712114Y26360381D01*
X11950209Y27408000D02*
X12188304Y26693715D01*
X12188304Y26693715D02*
X11569257Y26693715D01*
X11235923Y27265143D02*
X11188304Y27312762D01*
X11188304Y27312762D02*
X11093066Y27360381D01*
X11093066Y27360381D02*
X10854971Y27360381D01*
X10854971Y27360381D02*
X10759733Y27312762D01*
X10759733Y27312762D02*
X10712114Y27265143D01*
X10712114Y27265143D02*
X10664495Y27169905D01*
X10664495Y27169905D02*
X10664495Y27074667D01*
X10664495Y27074667D02*
X10712114Y26931810D01*
X10712114Y26931810D02*
X11283542Y26360381D01*
X11283542Y26360381D02*
X10664495Y26360381D01*
X41470580Y14082267D02*
X41518200Y14129886D01*
X41518200Y14129886D02*
X41565819Y14272743D01*
X41565819Y14272743D02*
X41565819Y14367981D01*
X41565819Y14367981D02*
X41518200Y14510838D01*
X41518200Y14510838D02*
X41422961Y14606076D01*
X41422961Y14606076D02*
X41327723Y14653695D01*
X41327723Y14653695D02*
X41137247Y14701314D01*
X41137247Y14701314D02*
X40994390Y14701314D01*
X40994390Y14701314D02*
X40803914Y14653695D01*
X40803914Y14653695D02*
X40708676Y14606076D01*
X40708676Y14606076D02*
X40613438Y14510838D01*
X40613438Y14510838D02*
X40565819Y14367981D01*
X40565819Y14367981D02*
X40565819Y14272743D01*
X40565819Y14272743D02*
X40613438Y14129886D01*
X40613438Y14129886D02*
X40661057Y14082267D01*
X41565819Y13129886D02*
X41565819Y13701314D01*
X41565819Y13415600D02*
X40565819Y13415600D01*
X40565819Y13415600D02*
X40708676Y13510838D01*
X40708676Y13510838D02*
X40803914Y13606076D01*
X40803914Y13606076D02*
X40851533Y13701314D01*
X21477266Y38577981D02*
X21953456Y38577981D01*
X21953456Y38577981D02*
X21953456Y39577981D01*
X20620123Y38577981D02*
X21191551Y38577981D01*
X20905837Y38577981D02*
X20905837Y39577981D01*
X20905837Y39577981D02*
X21001075Y39435124D01*
X21001075Y39435124D02*
X21096313Y39339886D01*
X21096313Y39339886D02*
X21191551Y39292267D01*
X45944579Y32211458D02*
X45992199Y32259077D01*
X45992199Y32259077D02*
X46039818Y32401934D01*
X46039818Y32401934D02*
X46039818Y32497172D01*
X46039818Y32497172D02*
X45992199Y32640029D01*
X45992199Y32640029D02*
X45896960Y32735267D01*
X45896960Y32735267D02*
X45801722Y32782886D01*
X45801722Y32782886D02*
X45611246Y32830505D01*
X45611246Y32830505D02*
X45468389Y32830505D01*
X45468389Y32830505D02*
X45277913Y32782886D01*
X45277913Y32782886D02*
X45182675Y32735267D01*
X45182675Y32735267D02*
X45087437Y32640029D01*
X45087437Y32640029D02*
X45039818Y32497172D01*
X45039818Y32497172D02*
X45039818Y32401934D01*
X45039818Y32401934D02*
X45087437Y32259077D01*
X45087437Y32259077D02*
X45135056Y32211458D01*
X46039818Y31259077D02*
X46039818Y31830505D01*
X46039818Y31544791D02*
X45039818Y31544791D01*
X45039818Y31544791D02*
X45182675Y31640029D01*
X45182675Y31640029D02*
X45277913Y31735267D01*
X45277913Y31735267D02*
X45325532Y31830505D01*
X45039818Y30925743D02*
X45039818Y30259077D01*
X45039818Y30259077D02*
X46039818Y30687648D01*
X8536419Y26304295D02*
X9345942Y26304295D01*
X9345942Y26304295D02*
X9441180Y26256676D01*
X9441180Y26256676D02*
X9488800Y26209057D01*
X9488800Y26209057D02*
X9536419Y26113819D01*
X9536419Y26113819D02*
X9536419Y25923343D01*
X9536419Y25923343D02*
X9488800Y25828105D01*
X9488800Y25828105D02*
X9441180Y25780486D01*
X9441180Y25780486D02*
X9345942Y25732867D01*
X9345942Y25732867D02*
X8536419Y25732867D01*
X9536419Y24732867D02*
X9536419Y25304295D01*
X9536419Y25018581D02*
X8536419Y25018581D01*
X8536419Y25018581D02*
X8679276Y25113819D01*
X8679276Y25113819D02*
X8774514Y25209057D01*
X8774514Y25209057D02*
X8822133Y25304295D01*
X8869752Y23875724D02*
X9536419Y23875724D01*
X8488800Y24113819D02*
X9203085Y24351914D01*
X9203085Y24351914D02*
X9203085Y23732867D01*
X67534857Y44753581D02*
X67868190Y45229772D01*
X68106285Y44753581D02*
X68106285Y45753581D01*
X68106285Y45753581D02*
X67725333Y45753581D01*
X67725333Y45753581D02*
X67630095Y45705962D01*
X67630095Y45705962D02*
X67582476Y45658343D01*
X67582476Y45658343D02*
X67534857Y45563105D01*
X67534857Y45563105D02*
X67534857Y45420248D01*
X67534857Y45420248D02*
X67582476Y45325010D01*
X67582476Y45325010D02*
X67630095Y45277391D01*
X67630095Y45277391D02*
X67725333Y45229772D01*
X67725333Y45229772D02*
X68106285Y45229772D01*
X67153904Y45658343D02*
X67106285Y45705962D01*
X67106285Y45705962D02*
X67011047Y45753581D01*
X67011047Y45753581D02*
X66772952Y45753581D01*
X66772952Y45753581D02*
X66677714Y45705962D01*
X66677714Y45705962D02*
X66630095Y45658343D01*
X66630095Y45658343D02*
X66582476Y45563105D01*
X66582476Y45563105D02*
X66582476Y45467867D01*
X66582476Y45467867D02*
X66630095Y45325010D01*
X66630095Y45325010D02*
X67201523Y44753581D01*
X67201523Y44753581D02*
X66582476Y44753581D01*
X66106285Y44753581D02*
X65915809Y44753581D01*
X65915809Y44753581D02*
X65820571Y44801200D01*
X65820571Y44801200D02*
X65772952Y44848820D01*
X65772952Y44848820D02*
X65677714Y44991677D01*
X65677714Y44991677D02*
X65630095Y45182153D01*
X65630095Y45182153D02*
X65630095Y45563105D01*
X65630095Y45563105D02*
X65677714Y45658343D01*
X65677714Y45658343D02*
X65725333Y45705962D01*
X65725333Y45705962D02*
X65820571Y45753581D01*
X65820571Y45753581D02*
X66011047Y45753581D01*
X66011047Y45753581D02*
X66106285Y45705962D01*
X66106285Y45705962D02*
X66153904Y45658343D01*
X66153904Y45658343D02*
X66201523Y45563105D01*
X66201523Y45563105D02*
X66201523Y45325010D01*
X66201523Y45325010D02*
X66153904Y45229772D01*
X66153904Y45229772D02*
X66106285Y45182153D01*
X66106285Y45182153D02*
X66011047Y45134534D01*
X66011047Y45134534D02*
X65820571Y45134534D01*
X65820571Y45134534D02*
X65725333Y45182153D01*
X65725333Y45182153D02*
X65677714Y45229772D01*
X65677714Y45229772D02*
X65630095Y45325010D01*
X52955257Y30015220D02*
X53002876Y29967600D01*
X53002876Y29967600D02*
X53145733Y29919981D01*
X53145733Y29919981D02*
X53240971Y29919981D01*
X53240971Y29919981D02*
X53383828Y29967600D01*
X53383828Y29967600D02*
X53479066Y30062839D01*
X53479066Y30062839D02*
X53526685Y30158077D01*
X53526685Y30158077D02*
X53574304Y30348553D01*
X53574304Y30348553D02*
X53574304Y30491410D01*
X53574304Y30491410D02*
X53526685Y30681886D01*
X53526685Y30681886D02*
X53479066Y30777124D01*
X53479066Y30777124D02*
X53383828Y30872362D01*
X53383828Y30872362D02*
X53240971Y30919981D01*
X53240971Y30919981D02*
X53145733Y30919981D01*
X53145733Y30919981D02*
X53002876Y30872362D01*
X53002876Y30872362D02*
X52955257Y30824743D01*
X52574304Y30824743D02*
X52526685Y30872362D01*
X52526685Y30872362D02*
X52431447Y30919981D01*
X52431447Y30919981D02*
X52193352Y30919981D01*
X52193352Y30919981D02*
X52098114Y30872362D01*
X52098114Y30872362D02*
X52050495Y30824743D01*
X52050495Y30824743D02*
X52002876Y30729505D01*
X52002876Y30729505D02*
X52002876Y30634267D01*
X52002876Y30634267D02*
X52050495Y30491410D01*
X52050495Y30491410D02*
X52621923Y29919981D01*
X52621923Y29919981D02*
X52002876Y29919981D01*
X51098114Y30919981D02*
X51574304Y30919981D01*
X51574304Y30919981D02*
X51621923Y30443791D01*
X51621923Y30443791D02*
X51574304Y30491410D01*
X51574304Y30491410D02*
X51479066Y30539029D01*
X51479066Y30539029D02*
X51240971Y30539029D01*
X51240971Y30539029D02*
X51145733Y30491410D01*
X51145733Y30491410D02*
X51098114Y30443791D01*
X51098114Y30443791D02*
X51050495Y30348553D01*
X51050495Y30348553D02*
X51050495Y30110458D01*
X51050495Y30110458D02*
X51098114Y30015220D01*
X51098114Y30015220D02*
X51145733Y29967600D01*
X51145733Y29967600D02*
X51240971Y29919981D01*
X51240971Y29919981D02*
X51479066Y29919981D01*
X51479066Y29919981D02*
X51574304Y29967600D01*
X51574304Y29967600D02*
X51621923Y30015220D01*
X60530219Y38604305D02*
X61339742Y38604305D01*
X61339742Y38604305D02*
X61434980Y38556686D01*
X61434980Y38556686D02*
X61482600Y38509067D01*
X61482600Y38509067D02*
X61530219Y38413829D01*
X61530219Y38413829D02*
X61530219Y38223353D01*
X61530219Y38223353D02*
X61482600Y38128115D01*
X61482600Y38128115D02*
X61434980Y38080496D01*
X61434980Y38080496D02*
X61339742Y38032877D01*
X61339742Y38032877D02*
X60530219Y38032877D01*
X60530219Y37651924D02*
X60530219Y36985258D01*
X60530219Y36985258D02*
X61530219Y37413829D01*
X61117457Y25745639D02*
X61069838Y25840877D01*
X61069838Y25840877D02*
X60974600Y25936115D01*
X60974600Y25936115D02*
X60831742Y26078972D01*
X60831742Y26078972D02*
X60784123Y26174210D01*
X60784123Y26174210D02*
X60784123Y26269448D01*
X61022219Y26221829D02*
X60974600Y26317067D01*
X60974600Y26317067D02*
X60879361Y26412305D01*
X60879361Y26412305D02*
X60688885Y26459924D01*
X60688885Y26459924D02*
X60355552Y26459924D01*
X60355552Y26459924D02*
X60165076Y26412305D01*
X60165076Y26412305D02*
X60069838Y26317067D01*
X60069838Y26317067D02*
X60022219Y26221829D01*
X60022219Y26221829D02*
X60022219Y26031353D01*
X60022219Y26031353D02*
X60069838Y25936115D01*
X60069838Y25936115D02*
X60165076Y25840877D01*
X60165076Y25840877D02*
X60355552Y25793258D01*
X60355552Y25793258D02*
X60688885Y25793258D01*
X60688885Y25793258D02*
X60879361Y25840877D01*
X60879361Y25840877D02*
X60974600Y25936115D01*
X60974600Y25936115D02*
X61022219Y26031353D01*
X61022219Y26031353D02*
X61022219Y26221829D01*
X61022219Y24840877D02*
X61022219Y25412305D01*
X61022219Y25126591D02*
X60022219Y25126591D01*
X60022219Y25126591D02*
X60165076Y25221829D01*
X60165076Y25221829D02*
X60260314Y25317067D01*
X60260314Y25317067D02*
X60307933Y25412305D01*
X70893419Y33721095D02*
X71702942Y33721095D01*
X71702942Y33721095D02*
X71798180Y33673476D01*
X71798180Y33673476D02*
X71845800Y33625857D01*
X71845800Y33625857D02*
X71893419Y33530619D01*
X71893419Y33530619D02*
X71893419Y33340143D01*
X71893419Y33340143D02*
X71845800Y33244905D01*
X71845800Y33244905D02*
X71798180Y33197286D01*
X71798180Y33197286D02*
X71702942Y33149667D01*
X71702942Y33149667D02*
X70893419Y33149667D01*
X71893419Y32149667D02*
X71893419Y32721095D01*
X71893419Y32435381D02*
X70893419Y32435381D01*
X70893419Y32435381D02*
X71036276Y32530619D01*
X71036276Y32530619D02*
X71131514Y32625857D01*
X71131514Y32625857D02*
X71179133Y32721095D01*
X71893419Y31197286D02*
X71893419Y31768714D01*
X71893419Y31483000D02*
X70893419Y31483000D01*
X70893419Y31483000D02*
X71036276Y31578238D01*
X71036276Y31578238D02*
X71131514Y31673476D01*
X71131514Y31673476D02*
X71179133Y31768714D01*
X42013619Y21351295D02*
X42823142Y21351295D01*
X42823142Y21351295D02*
X42918380Y21303676D01*
X42918380Y21303676D02*
X42966000Y21256057D01*
X42966000Y21256057D02*
X43013619Y21160819D01*
X43013619Y21160819D02*
X43013619Y20970343D01*
X43013619Y20970343D02*
X42966000Y20875105D01*
X42966000Y20875105D02*
X42918380Y20827486D01*
X42918380Y20827486D02*
X42823142Y20779867D01*
X42823142Y20779867D02*
X42013619Y20779867D01*
X43013619Y19779867D02*
X43013619Y20351295D01*
X43013619Y20065581D02*
X42013619Y20065581D01*
X42013619Y20065581D02*
X42156476Y20160819D01*
X42156476Y20160819D02*
X42251714Y20256057D01*
X42251714Y20256057D02*
X42299333Y20351295D01*
X42013619Y19160819D02*
X42013619Y19065581D01*
X42013619Y19065581D02*
X42061238Y18970343D01*
X42061238Y18970343D02*
X42108857Y18922724D01*
X42108857Y18922724D02*
X42204095Y18875105D01*
X42204095Y18875105D02*
X42394571Y18827486D01*
X42394571Y18827486D02*
X42632666Y18827486D01*
X42632666Y18827486D02*
X42823142Y18875105D01*
X42823142Y18875105D02*
X42918380Y18922724D01*
X42918380Y18922724D02*
X42966000Y18970343D01*
X42966000Y18970343D02*
X43013619Y19065581D01*
X43013619Y19065581D02*
X43013619Y19160819D01*
X43013619Y19160819D02*
X42966000Y19256057D01*
X42966000Y19256057D02*
X42918380Y19303676D01*
X42918380Y19303676D02*
X42823142Y19351295D01*
X42823142Y19351295D02*
X42632666Y19398914D01*
X42632666Y19398914D02*
X42394571Y19398914D01*
X42394571Y19398914D02*
X42204095Y19351295D01*
X42204095Y19351295D02*
X42108857Y19303676D01*
X42108857Y19303676D02*
X42061238Y19256057D01*
X42061238Y19256057D02*
X42013619Y19160819D01*
X56358857Y16908820D02*
X56406476Y16861200D01*
X56406476Y16861200D02*
X56549333Y16813581D01*
X56549333Y16813581D02*
X56644571Y16813581D01*
X56644571Y16813581D02*
X56787428Y16861200D01*
X56787428Y16861200D02*
X56882666Y16956439D01*
X56882666Y16956439D02*
X56930285Y17051677D01*
X56930285Y17051677D02*
X56977904Y17242153D01*
X56977904Y17242153D02*
X56977904Y17385010D01*
X56977904Y17385010D02*
X56930285Y17575486D01*
X56930285Y17575486D02*
X56882666Y17670724D01*
X56882666Y17670724D02*
X56787428Y17765962D01*
X56787428Y17765962D02*
X56644571Y17813581D01*
X56644571Y17813581D02*
X56549333Y17813581D01*
X56549333Y17813581D02*
X56406476Y17765962D01*
X56406476Y17765962D02*
X56358857Y17718343D01*
X55977904Y17718343D02*
X55930285Y17765962D01*
X55930285Y17765962D02*
X55835047Y17813581D01*
X55835047Y17813581D02*
X55596952Y17813581D01*
X55596952Y17813581D02*
X55501714Y17765962D01*
X55501714Y17765962D02*
X55454095Y17718343D01*
X55454095Y17718343D02*
X55406476Y17623105D01*
X55406476Y17623105D02*
X55406476Y17527867D01*
X55406476Y17527867D02*
X55454095Y17385010D01*
X55454095Y17385010D02*
X56025523Y16813581D01*
X56025523Y16813581D02*
X55406476Y16813581D01*
X55073142Y17813581D02*
X54406476Y17813581D01*
X54406476Y17813581D02*
X54835047Y16813581D01*
X57428019Y47759858D02*
X56951828Y48093191D01*
X57428019Y48331286D02*
X56428019Y48331286D01*
X56428019Y48331286D02*
X56428019Y47950334D01*
X56428019Y47950334D02*
X56475638Y47855096D01*
X56475638Y47855096D02*
X56523257Y47807477D01*
X56523257Y47807477D02*
X56618495Y47759858D01*
X56618495Y47759858D02*
X56761352Y47759858D01*
X56761352Y47759858D02*
X56856590Y47807477D01*
X56856590Y47807477D02*
X56904209Y47855096D01*
X56904209Y47855096D02*
X56951828Y47950334D01*
X56951828Y47950334D02*
X56951828Y48331286D01*
X56428019Y47426524D02*
X56428019Y46807477D01*
X56428019Y46807477D02*
X56808971Y47140810D01*
X56808971Y47140810D02*
X56808971Y46997953D01*
X56808971Y46997953D02*
X56856590Y46902715D01*
X56856590Y46902715D02*
X56904209Y46855096D01*
X56904209Y46855096D02*
X56999447Y46807477D01*
X56999447Y46807477D02*
X57237542Y46807477D01*
X57237542Y46807477D02*
X57332780Y46855096D01*
X57332780Y46855096D02*
X57380400Y46902715D01*
X57380400Y46902715D02*
X57428019Y46997953D01*
X57428019Y46997953D02*
X57428019Y47283667D01*
X57428019Y47283667D02*
X57380400Y47378905D01*
X57380400Y47378905D02*
X57332780Y47426524D01*
X56428019Y46188429D02*
X56428019Y46093191D01*
X56428019Y46093191D02*
X56475638Y45997953D01*
X56475638Y45997953D02*
X56523257Y45950334D01*
X56523257Y45950334D02*
X56618495Y45902715D01*
X56618495Y45902715D02*
X56808971Y45855096D01*
X56808971Y45855096D02*
X57047066Y45855096D01*
X57047066Y45855096D02*
X57237542Y45902715D01*
X57237542Y45902715D02*
X57332780Y45950334D01*
X57332780Y45950334D02*
X57380400Y45997953D01*
X57380400Y45997953D02*
X57428019Y46093191D01*
X57428019Y46093191D02*
X57428019Y46188429D01*
X57428019Y46188429D02*
X57380400Y46283667D01*
X57380400Y46283667D02*
X57332780Y46331286D01*
X57332780Y46331286D02*
X57237542Y46378905D01*
X57237542Y46378905D02*
X57047066Y46426524D01*
X57047066Y46426524D02*
X56808971Y46426524D01*
X56808971Y46426524D02*
X56618495Y46378905D01*
X56618495Y46378905D02*
X56523257Y46331286D01*
X56523257Y46331286D02*
X56475638Y46283667D01*
X56475638Y46283667D02*
X56428019Y46188429D01*
X32072580Y48442058D02*
X32120200Y48489677D01*
X32120200Y48489677D02*
X32167819Y48632534D01*
X32167819Y48632534D02*
X32167819Y48727772D01*
X32167819Y48727772D02*
X32120200Y48870629D01*
X32120200Y48870629D02*
X32024961Y48965867D01*
X32024961Y48965867D02*
X31929723Y49013486D01*
X31929723Y49013486D02*
X31739247Y49061105D01*
X31739247Y49061105D02*
X31596390Y49061105D01*
X31596390Y49061105D02*
X31405914Y49013486D01*
X31405914Y49013486D02*
X31310676Y48965867D01*
X31310676Y48965867D02*
X31215438Y48870629D01*
X31215438Y48870629D02*
X31167819Y48727772D01*
X31167819Y48727772D02*
X31167819Y48632534D01*
X31167819Y48632534D02*
X31215438Y48489677D01*
X31215438Y48489677D02*
X31263057Y48442058D01*
X31501152Y47584915D02*
X32167819Y47584915D01*
X31120200Y47823010D02*
X31834485Y48061105D01*
X31834485Y48061105D02*
X31834485Y47442058D01*
X31167819Y46584915D02*
X31167819Y47061105D01*
X31167819Y47061105D02*
X31644009Y47108724D01*
X31644009Y47108724D02*
X31596390Y47061105D01*
X31596390Y47061105D02*
X31548771Y46965867D01*
X31548771Y46965867D02*
X31548771Y46727772D01*
X31548771Y46727772D02*
X31596390Y46632534D01*
X31596390Y46632534D02*
X31644009Y46584915D01*
X31644009Y46584915D02*
X31739247Y46537296D01*
X31739247Y46537296D02*
X31977342Y46537296D01*
X31977342Y46537296D02*
X32072580Y46584915D01*
X32072580Y46584915D02*
X32120200Y46632534D01*
X32120200Y46632534D02*
X32167819Y46727772D01*
X32167819Y46727772D02*
X32167819Y46965867D01*
X32167819Y46965867D02*
X32120200Y47061105D01*
X32120200Y47061105D02*
X32072580Y47108724D01*
X17801657Y53180020D02*
X17849276Y53132400D01*
X17849276Y53132400D02*
X17992133Y53084781D01*
X17992133Y53084781D02*
X18087371Y53084781D01*
X18087371Y53084781D02*
X18230228Y53132400D01*
X18230228Y53132400D02*
X18325466Y53227639D01*
X18325466Y53227639D02*
X18373085Y53322877D01*
X18373085Y53322877D02*
X18420704Y53513353D01*
X18420704Y53513353D02*
X18420704Y53656210D01*
X18420704Y53656210D02*
X18373085Y53846686D01*
X18373085Y53846686D02*
X18325466Y53941924D01*
X18325466Y53941924D02*
X18230228Y54037162D01*
X18230228Y54037162D02*
X18087371Y54084781D01*
X18087371Y54084781D02*
X17992133Y54084781D01*
X17992133Y54084781D02*
X17849276Y54037162D01*
X17849276Y54037162D02*
X17801657Y53989543D01*
X16896895Y54084781D02*
X17373085Y54084781D01*
X17373085Y54084781D02*
X17420704Y53608591D01*
X17420704Y53608591D02*
X17373085Y53656210D01*
X17373085Y53656210D02*
X17277847Y53703829D01*
X17277847Y53703829D02*
X17039752Y53703829D01*
X17039752Y53703829D02*
X16944514Y53656210D01*
X16944514Y53656210D02*
X16896895Y53608591D01*
X16896895Y53608591D02*
X16849276Y53513353D01*
X16849276Y53513353D02*
X16849276Y53275258D01*
X16849276Y53275258D02*
X16896895Y53180020D01*
X16896895Y53180020D02*
X16944514Y53132400D01*
X16944514Y53132400D02*
X17039752Y53084781D01*
X17039752Y53084781D02*
X17277847Y53084781D01*
X17277847Y53084781D02*
X17373085Y53132400D01*
X17373085Y53132400D02*
X17420704Y53180020D01*
X16468323Y53989543D02*
X16420704Y54037162D01*
X16420704Y54037162D02*
X16325466Y54084781D01*
X16325466Y54084781D02*
X16087371Y54084781D01*
X16087371Y54084781D02*
X15992133Y54037162D01*
X15992133Y54037162D02*
X15944514Y53989543D01*
X15944514Y53989543D02*
X15896895Y53894305D01*
X15896895Y53894305D02*
X15896895Y53799067D01*
X15896895Y53799067D02*
X15944514Y53656210D01*
X15944514Y53656210D02*
X16515942Y53084781D01*
X16515942Y53084781D02*
X15896895Y53084781D01*
X39434504Y20886981D02*
X39434504Y20077458D01*
X39434504Y20077458D02*
X39386885Y19982220D01*
X39386885Y19982220D02*
X39339266Y19934600D01*
X39339266Y19934600D02*
X39244028Y19886981D01*
X39244028Y19886981D02*
X39053552Y19886981D01*
X39053552Y19886981D02*
X38958314Y19934600D01*
X38958314Y19934600D02*
X38910695Y19982220D01*
X38910695Y19982220D02*
X38863076Y20077458D01*
X38863076Y20077458D02*
X38863076Y20886981D01*
X37958314Y20553648D02*
X37958314Y19886981D01*
X38196409Y20934600D02*
X38434504Y20220315D01*
X38434504Y20220315D02*
X37815457Y20220315D01*
X38423694Y48671581D02*
X38423694Y47862058D01*
X38423694Y47862058D02*
X38376075Y47766820D01*
X38376075Y47766820D02*
X38328456Y47719200D01*
X38328456Y47719200D02*
X38233218Y47671581D01*
X38233218Y47671581D02*
X38042742Y47671581D01*
X38042742Y47671581D02*
X37947504Y47719200D01*
X37947504Y47719200D02*
X37899885Y47766820D01*
X37899885Y47766820D02*
X37852266Y47862058D01*
X37852266Y47862058D02*
X37852266Y48671581D01*
X36852266Y47671581D02*
X37423694Y47671581D01*
X37137980Y47671581D02*
X37137980Y48671581D01*
X37137980Y48671581D02*
X37233218Y48528724D01*
X37233218Y48528724D02*
X37328456Y48433486D01*
X37328456Y48433486D02*
X37423694Y48385867D01*
X36518932Y48671581D02*
X35899885Y48671581D01*
X35899885Y48671581D02*
X36233218Y48290629D01*
X36233218Y48290629D02*
X36090361Y48290629D01*
X36090361Y48290629D02*
X35995123Y48243010D01*
X35995123Y48243010D02*
X35947504Y48195391D01*
X35947504Y48195391D02*
X35899885Y48100153D01*
X35899885Y48100153D02*
X35899885Y47862058D01*
X35899885Y47862058D02*
X35947504Y47766820D01*
X35947504Y47766820D02*
X35995123Y47719200D01*
X35995123Y47719200D02*
X36090361Y47671581D01*
X36090361Y47671581D02*
X36376075Y47671581D01*
X36376075Y47671581D02*
X36471313Y47719200D01*
X36471313Y47719200D02*
X36518932Y47766820D01*
D11*
%TO.C,C2*%
X24106200Y37548452D02*
X24106200Y37025948D01*
X25576200Y37548452D02*
X25576200Y37025948D01*
%TO.C,U2*%
X33807400Y34155200D02*
X33007400Y34155200D01*
X33807400Y34155200D02*
X35607400Y34155200D01*
X33807400Y31035200D02*
X33007400Y31035200D01*
X33807400Y31035200D02*
X34607400Y31035200D01*
%TO.C,C3*%
X31167200Y38664800D02*
X35077200Y38664800D01*
X31167200Y36794800D02*
X31167200Y38664800D01*
X35077200Y36794800D02*
X31167200Y36794800D01*
%TO.C,C8*%
X29877652Y30199000D02*
X29355148Y30199000D01*
X29877652Y28729000D02*
X29355148Y28729000D01*
%TO.C,C4*%
X32580948Y36225800D02*
X33103452Y36225800D01*
X32580948Y34755800D02*
X33103452Y34755800D01*
%TO.C,C7*%
X23172052Y16127400D02*
X22649548Y16127400D01*
X23172052Y14657400D02*
X22649548Y14657400D01*
%TO.C,C16*%
X36413600Y32374147D02*
X36413600Y32896653D01*
X37883600Y32374147D02*
X37883600Y32896653D01*
%TO.C,R6*%
X30379936Y28040000D02*
X30834064Y28040000D01*
X30379936Y26570000D02*
X30834064Y26570000D01*
%TO.C,R3*%
X38127000Y15695664D02*
X38127000Y15241536D01*
X39597000Y15695664D02*
X39597000Y15241536D01*
%TO.C,R2*%
X26544536Y13943000D02*
X26998664Y13943000D01*
X26544536Y12473000D02*
X26998664Y12473000D01*
%TO.C,R5*%
X35829400Y28950864D02*
X35829400Y28496736D01*
X37299400Y28950864D02*
X37299400Y28496736D01*
%TO.C,M5*%
X18490000Y36966400D02*
X18490000Y38566400D01*
X18490000Y30966400D02*
X18490000Y32566400D01*
X18490000Y24966400D02*
X18490000Y26566400D01*
X18490000Y18966400D02*
X18490000Y20566400D01*
X18490000Y12966400D02*
X18490000Y14566400D01*
X21840000Y41166400D02*
X23440000Y41166400D01*
X21840000Y10366400D02*
X23440000Y10366400D01*
X27840000Y41166400D02*
X29440000Y41166400D01*
X27840000Y10366400D02*
X29440000Y10366400D01*
X33840000Y41166400D02*
X35440000Y41166400D01*
X33840000Y10366400D02*
X35440000Y10366400D01*
X39840000Y41166400D02*
X41440000Y41166400D01*
X39840000Y10366400D02*
X41440000Y10366400D01*
X45840000Y41166400D02*
X47440000Y41166400D01*
X45840000Y10366400D02*
X47440000Y10366400D01*
X51840000Y41166400D02*
X53440000Y41166400D01*
X51840000Y10366400D02*
X53440000Y10366400D01*
X57840000Y41166400D02*
X59440000Y41166400D01*
X57840000Y10366400D02*
X59440000Y10366400D01*
X62790000Y36966400D02*
X62790000Y38566400D01*
X62790000Y30966400D02*
X62790000Y32566400D01*
X62790000Y24966400D02*
X62790000Y26566400D01*
X62790000Y18966400D02*
X62790000Y20566400D01*
X62790000Y12966400D02*
X62790000Y14566400D01*
%TO.C,U6*%
X23027200Y19177000D02*
X23027200Y20977000D01*
X23027200Y19177000D02*
X23027200Y18377000D01*
X26147200Y19177000D02*
X26147200Y19977000D01*
X26147200Y19177000D02*
X26147200Y18377000D01*
%TO.C,C32*%
X49047452Y26988600D02*
X47624948Y26988600D01*
X49047452Y24268600D02*
X47624948Y24268600D01*
%TO.C,C12*%
X22740252Y30249800D02*
X22217748Y30249800D01*
X22740252Y28779800D02*
X22217748Y28779800D01*
%TO.C,C49*%
X19395600Y52287748D02*
X19395600Y52810252D01*
X20865600Y52287748D02*
X20865600Y52810252D01*
%TO.C,C46*%
X11219548Y23214000D02*
X11742052Y23214000D01*
X11219548Y21744000D02*
X11742052Y21744000D01*
%TO.C,C18*%
X11194148Y20293000D02*
X11716652Y20293000D01*
X11194148Y18823000D02*
X11716652Y18823000D01*
%TO.C,C38*%
X11801000Y39322852D02*
X11801000Y38800348D01*
X13271000Y39322852D02*
X13271000Y38800348D01*
%TO.C,U5*%
X10838000Y18143400D02*
X13838000Y18143400D01*
X10838000Y15943400D02*
X13038000Y15943400D01*
%TO.C,JP3*%
X66340600Y40377300D02*
X66340600Y40977300D01*
X66990600Y41677300D02*
X69790600Y41677300D01*
X69290600Y39177300D02*
X69590600Y39477300D01*
X69290600Y39177300D02*
X69890600Y39177300D01*
X69790600Y39677300D02*
X66990600Y39677300D01*
X69890600Y39177300D02*
X69590600Y39477300D01*
X70440600Y40977300D02*
X70440600Y40377300D01*
X66340600Y40977300D02*
G75*
G02*
X67040600Y41677300I700000J0D01*
G01*
X67040600Y39677300D02*
G75*
G02*
X66340600Y40377300I0J700000D01*
G01*
X69740600Y41677300D02*
G75*
G02*
X70440600Y40977300I1J-699999D01*
G01*
X70440600Y40377300D02*
G75*
G02*
X69740600Y39677300I-699999J-1D01*
G01*
%TO.C,C13*%
X33680600Y17419600D02*
X37590600Y17419600D01*
X37590600Y17419600D02*
X37590600Y15549600D01*
X37590600Y15549600D02*
X33680600Y15549600D01*
%TO.C,R16*%
X59009800Y14018864D02*
X59009800Y13564736D01*
X60479800Y14018864D02*
X60479800Y13564736D01*
%TO.C,R19*%
X51335000Y16279864D02*
X51335000Y15825736D01*
X52805000Y16279864D02*
X52805000Y15825736D01*
%TO.C,U12*%
X13647600Y32062600D02*
X11447600Y32062600D01*
X13647600Y29862600D02*
X10647600Y29862600D01*
%TO.C,C34*%
X46736200Y23795000D02*
X50646200Y23795000D01*
X50646200Y23795000D02*
X50646200Y21925000D01*
X50646200Y21925000D02*
X46736200Y21925000D01*
%TO.C,JP2*%
X65096000Y37415400D02*
X65096000Y38015400D01*
X65646000Y39215400D02*
X65946000Y38915400D01*
X65746000Y38715400D02*
X68546000Y38715400D01*
X66246000Y39215400D02*
X65646000Y39215400D01*
X66246000Y39215400D02*
X65946000Y38915400D01*
X68546000Y36715400D02*
X65746000Y36715400D01*
X69196000Y38015400D02*
X69196000Y37415400D01*
X65096000Y38015400D02*
G75*
G02*
X65796000Y38715400I699999J1D01*
G01*
X65796000Y36715400D02*
G75*
G02*
X65096000Y37415400I-1J699999D01*
G01*
X68496000Y38715400D02*
G75*
G02*
X69196000Y38015400I0J-700000D01*
G01*
X69196000Y37415400D02*
G75*
G02*
X68496000Y36715400I-700000J0D01*
G01*
D10*
%TO.C,U3*%
X23775800Y27938600D02*
X23775800Y27638600D01*
X23775800Y24588600D02*
X23775800Y24888600D01*
X27125800Y27938600D02*
X23775800Y27938600D01*
X27125800Y27938600D02*
X27125800Y27713600D01*
X27125800Y27713600D02*
X28350800Y27713600D01*
X27125800Y24588600D02*
X23775800Y24588600D01*
X27125800Y24588600D02*
X27125800Y24888600D01*
D11*
%TO.C,C41*%
X66566148Y27557400D02*
X67088652Y27557400D01*
X66566148Y26087400D02*
X67088652Y26087400D01*
%TO.C,C15*%
X34190000Y22968852D02*
X34190000Y22446348D01*
X35660000Y22968852D02*
X35660000Y22446348D01*
%TO.C,C5*%
X50496800Y35160852D02*
X50496800Y34638348D01*
X51966800Y35160852D02*
X51966800Y34638348D01*
%TO.C,C29*%
X52755852Y21146600D02*
X51333348Y21146600D01*
X52755852Y18426600D02*
X51333348Y18426600D01*
%TO.C,R12*%
X56310264Y23747400D02*
X55856136Y23747400D01*
X56310264Y22277400D02*
X55856136Y22277400D01*
%TO.C,C48*%
X29135400Y24543652D02*
X29135400Y24021148D01*
X30605400Y24543652D02*
X30605400Y24021148D01*
%TO.C,C47*%
X14784400Y23299052D02*
X14784400Y22776548D01*
X16254400Y23299052D02*
X16254400Y22776548D01*
%TO.C,R21*%
X44272564Y18007000D02*
X43818436Y18007000D01*
X44272564Y16537000D02*
X43818436Y16537000D01*
%TO.C,C28*%
X56723800Y13530548D02*
X56723800Y14053052D01*
X58193800Y13530548D02*
X58193800Y14053052D01*
%TO.C,C10*%
X25773748Y30224400D02*
X26296252Y30224400D01*
X25773748Y28754400D02*
X26296252Y28754400D01*
D10*
%TO.C,C37*%
X14581600Y41135400D02*
X14581600Y39485400D01*
X14581600Y38485400D02*
X14581600Y36835400D01*
X14581600Y36835400D02*
X16281600Y36835400D01*
X16281600Y41135400D02*
X14581600Y41135400D01*
X16281600Y39485400D02*
X16281600Y41135400D01*
X16281600Y36835400D02*
X16281600Y38485400D01*
D11*
%TO.C,U15*%
X19114600Y50476800D02*
X18314600Y50476800D01*
X19114600Y50476800D02*
X20914600Y50476800D01*
X19114600Y47356800D02*
X18314600Y47356800D01*
X19114600Y47356800D02*
X19914600Y47356800D01*
%TO.C,R17*%
X59459864Y17575200D02*
X59005736Y17575200D01*
X59459864Y16105200D02*
X59005736Y16105200D01*
%TO.C,C6*%
X20726600Y14168400D02*
X24636600Y14168400D01*
X24636600Y14168400D02*
X24636600Y12298400D01*
X24636600Y12298400D02*
X20726600Y12298400D01*
%TO.C,U1*%
X27446800Y32791400D02*
X27446800Y33441400D01*
X27446800Y32791400D02*
X27446800Y32141400D01*
X30566800Y32791400D02*
X30566800Y33441400D01*
X30566800Y32791400D02*
X30566800Y31116400D01*
%TO.C,C33*%
X52280948Y23765200D02*
X52803452Y23765200D01*
X52280948Y22295200D02*
X52803452Y22295200D01*
%TO.C,C20*%
X56434452Y29484200D02*
X55911948Y29484200D01*
X56434452Y28014200D02*
X55911948Y28014200D01*
%TO.C,R13*%
X52467536Y29480200D02*
X52921664Y29480200D01*
X52467536Y28010200D02*
X52921664Y28010200D01*
%TO.C,C43*%
X15241600Y29090252D02*
X15241600Y28567748D01*
X16711600Y29090252D02*
X16711600Y28567748D01*
%TO.C,R10*%
X56897600Y33961336D02*
X56897600Y34415464D01*
X58367600Y33961336D02*
X58367600Y34415464D01*
%TO.C,C19*%
X54782800Y37597549D02*
X54782800Y38120053D01*
X56252800Y37597549D02*
X56252800Y38120053D01*
%TO.C,C14*%
X36151452Y19581800D02*
X35628948Y19581800D01*
X36151452Y18111800D02*
X35628948Y18111800D01*
%TO.C,C51*%
X15204600Y49152652D02*
X15204600Y48630148D01*
X16674600Y49152652D02*
X16674600Y48630148D01*
%TO.C,C39*%
X24645252Y48944200D02*
X24122748Y48944200D01*
X24645252Y47474200D02*
X24122748Y47474200D01*
%TO.C,C50*%
X27667148Y48940600D02*
X28189652Y48940600D01*
X27667148Y47470600D02*
X28189652Y47470600D01*
%TO.C,C9*%
X25227000Y30887800D02*
X25227000Y34797800D01*
X27097000Y34797800D02*
X27097000Y30887800D01*
X27097000Y30887800D02*
X25227000Y30887800D01*
%TO.C,C40*%
X66566148Y25220600D02*
X67088652Y25220600D01*
X66566148Y23750600D02*
X67088652Y23750600D01*
%TO.C,C22*%
X58140548Y21045000D02*
X59563052Y21045000D01*
X58140548Y18325000D02*
X59563052Y18325000D01*
%TO.C,R1*%
X28979864Y38428600D02*
X28525736Y38428600D01*
X28979864Y36958600D02*
X28525736Y36958600D01*
%TO.C,C11*%
X20853600Y34107400D02*
X24763600Y34107400D01*
X24763600Y34107400D02*
X24763600Y32237400D01*
X24763600Y32237400D02*
X20853600Y32237400D01*
%TO.C,C36*%
X46128000Y16796652D02*
X46128000Y16274148D01*
X47598000Y16796652D02*
X47598000Y16274148D01*
%TO.C,C30*%
X48786148Y29487800D02*
X49308652Y29487800D01*
X48786148Y28017800D02*
X49308652Y28017800D01*
%TO.C,C21*%
X54344600Y32249600D02*
X58254600Y32249600D01*
X58254600Y32249600D02*
X58254600Y30379600D01*
X58254600Y30379600D02*
X54344600Y30379600D01*
%TO.C,R7*%
X40159000Y23979136D02*
X40159000Y24433264D01*
X41629000Y23979136D02*
X41629000Y24433264D01*
%TO.C,C44*%
X41408548Y47772200D02*
X41931052Y47772200D01*
X41408548Y46302200D02*
X41931052Y46302200D01*
%TO.C,R14*%
X46247864Y13764800D02*
X45793736Y13764800D01*
X46247864Y12294800D02*
X45793736Y12294800D01*
%TO.C,R4*%
X32169400Y22949665D02*
X32169400Y22495537D01*
X33639400Y22949665D02*
X33639400Y22495537D01*
%TO.C,C42*%
X11665148Y29230200D02*
X12187652Y29230200D01*
X11665148Y27760200D02*
X12187652Y27760200D01*
%TO.C,U8*%
X53060600Y27366400D02*
X52260600Y27366400D01*
X53060600Y27366400D02*
X53860600Y27366400D01*
X53060600Y24246400D02*
X51260600Y24246400D01*
X53060600Y24246400D02*
X53860600Y24246400D01*
%TO.C,C1*%
X42068000Y13657548D02*
X42068000Y14180052D01*
X43538000Y13657548D02*
X43538000Y14180052D01*
%TO.C,L1*%
X21481867Y38112800D02*
X21139333Y38112800D01*
X21481867Y37092800D02*
X21139333Y37092800D01*
%TO.C,C17*%
X43170000Y31307347D02*
X43170000Y31829853D01*
X44640000Y31307347D02*
X44640000Y31829853D01*
%TO.C,C26*%
X48108400Y12015200D02*
X48108400Y15925200D01*
X49978400Y15925200D02*
X49978400Y12015200D01*
X49978400Y12015200D02*
X48108400Y12015200D01*
%TO.C,R15*%
X52224864Y13637800D02*
X51770736Y13637800D01*
X52224864Y12167800D02*
X51770736Y12167800D01*
%TO.C,U14*%
X13139600Y26119000D02*
X10939600Y26119000D01*
X13139600Y23919000D02*
X10139600Y23919000D01*
%TO.C,R29*%
X66651136Y44143600D02*
X67105264Y44143600D01*
X66651136Y42673600D02*
X67105264Y42673600D01*
%TO.C,C25*%
X52433348Y29480200D02*
X52955852Y29480200D01*
X52433348Y28010200D02*
X52955852Y28010200D01*
%TO.C,U7*%
X59139600Y36321800D02*
X57839600Y36321800D01*
X59579600Y39141800D02*
X57839600Y39141800D01*
%TO.C,Q1*%
X57302400Y27366400D02*
X56652400Y27366400D01*
X57302400Y27366400D02*
X57952400Y27366400D01*
X57302400Y24246400D02*
X55627400Y24246400D01*
X57302400Y24246400D02*
X57952400Y24246400D01*
D10*
%TO.C,J1*%
X21590000Y54610000D02*
X21590000Y49530000D01*
X21590000Y49530000D02*
X59690000Y49530000D01*
X59690000Y54610000D02*
X21590000Y54610000D01*
X59690000Y49530000D02*
X59690000Y54610000D01*
D11*
%TO.C,U11*%
X65283400Y32094400D02*
X65283400Y35544400D01*
X65283400Y32094400D02*
X65283400Y30144400D01*
X70403400Y32094400D02*
X70403400Y34044400D01*
X70403400Y32094400D02*
X70403400Y30144400D01*
%TO.C,U10*%
X45288200Y21575200D02*
X44638200Y21575200D01*
X45288200Y21575200D02*
X45938200Y21575200D01*
X45288200Y18455200D02*
X43613200Y18455200D01*
X45288200Y18455200D02*
X45938200Y18455200D01*
%TO.C,C27*%
X54110800Y11989800D02*
X54110800Y15899800D01*
X55980800Y15899800D02*
X55980800Y11989800D01*
X55980800Y11989800D02*
X54110800Y11989800D01*
%TO.C,R30*%
X57888200Y47344064D02*
X57888200Y46889936D01*
X59358200Y47344064D02*
X59358200Y46889936D01*
%TO.C,C45*%
X32666000Y47541548D02*
X32666000Y48064052D01*
X34136000Y47541548D02*
X34136000Y48064052D01*
%TO.C,C52*%
X16846748Y52547400D02*
X17369252Y52547400D01*
X16846748Y51077400D02*
X17369252Y51077400D01*
%TO.C,U4*%
X36246600Y23190601D02*
X36246600Y24990601D01*
X36246600Y23190601D02*
X36246600Y22390601D01*
X39366600Y23190601D02*
X39366600Y23990601D01*
X39366600Y23190601D02*
X39366600Y22390601D01*
%TO.C,U13*%
X36085600Y47226400D02*
X39085600Y47226400D01*
X36085600Y45026400D02*
X38285600Y45026400D01*
%TD*%
M02*
