M48
; DRILL file {KiCad 8.0.8+1} date 2025-02-16T00:46:26+0000
; FORMAT={-:-/ absolute / metric / decimal}
; #@! TF.CreationDate,2025-02-16T00:46:26+00:00
; #@! TF.GenerationSoftware,Kicad,Pcbnew,8.0.8+1
; #@! TF.FileFunction,Plated,1,2,PTH
FMAT,2
METRIC
; #@! TA.AperFunction,Plated,PTH,ViaDrill
T1C0.400
; #@! TA.AperFunction,Plated,PTH,ComponentDrill
T2C0.762
; #@! TA.AperFunction,Plated,PTH,ComponentDrill
T3C0.889
; #@! TA.AperFunction,Plated,PTH,ComponentDrill
T4C3.000
%
G90
G05
T1
X8.701Y18.97
X10.312Y26.746
X10.505Y18.564
X10.936Y45.742
X11.368Y32.813
X12.561Y36.471
X12.585Y17.27
X13.12Y21.993
X13.411Y15.367
X13.487Y26.568
X13.792Y19.609
X14.196Y22.958
X14.732Y29.235
X15.432Y41.551
X15.545Y20.777
X15.799Y32.461
X15.955Y27.049
X16.6Y25.65
X17.206Y48.887
X17.21Y34.845
X17.387Y40.382
X17.514Y38.808
X18.759Y30.949
X19.775Y33.194
X20.688Y26.157
X20.765Y46.859
X21.24Y31.351
X24.931Y23.669
X25.82Y35.709
X26.252Y17.827
X26.34Y24.42
X26.354Y28.343
X26.354Y20.527
X29.91Y48.206
X33.096Y25.654
X34.748Y44.816
X35.244Y48.714
X35.382Y20.244
X37.807Y25.32
X38.757Y27.073
X38.887Y19.05
X39.125Y43.575
X40.044Y44.497
X40.72Y47.97
X43.337Y48.476
X47.676Y24.943
X50.165Y30.505
X51.418Y25.823
X52.654Y42.52
X54.229Y23.012
X55.894Y44.345
X58.815Y42.541
X68.492Y37.69
X69.469Y26.772
X69.528Y43.628
X71.12Y29.718
T2
X59.424Y28.266
X59.424Y23.266
T3
X22.86Y53.34
X22.86Y50.8
X25.4Y53.34
X25.4Y50.8
X27.94Y53.34
X27.94Y50.8
X30.48Y53.34
X30.48Y50.8
X33.02Y53.34
X33.02Y50.8
X35.56Y53.34
X35.56Y50.8
X38.1Y53.34
X38.1Y50.8
X40.64Y53.34
X40.64Y50.8
X43.18Y53.34
X43.18Y50.8
X45.72Y53.34
X45.72Y50.8
X48.26Y53.34
X48.26Y50.8
X50.8Y53.34
X50.8Y50.8
X53.34Y53.34
X53.34Y50.8
X55.88Y53.34
X55.88Y50.8
X58.42Y53.34
X58.42Y50.8
T4
X10.16Y50.8
X10.16Y10.16
X71.12Y50.8
X71.12Y10.16
M30
