%TF.GenerationSoftware,KiCad,Pcbnew,8.0.8+1*%
%TF.CreationDate,2025-02-15T23:11:28+00:00*%
%TF.ProjectId,USTSIPIN03,55535453-4950-4494-9e30-332e6b696361,REV*%
%TF.SameCoordinates,PX66dd020PY81342c0*%
%TF.FileFunction,Copper,L1,Top*%
%TF.FilePolarity,Positive*%
%FSLAX46Y46*%
G04 Gerber Fmt 4.6, Leading zero omitted, Abs format (unit mm)*
G04 Created by KiCad (PCBNEW 8.0.8+1) date 2025-02-15 23:11:28*
%MOMM*%
%LPD*%
G01*
G04 APERTURE LIST*
%ADD10C,0.200000*%
%ADD11C,0.300000*%
%TA.AperFunction,ComponentPad*%
%ADD12C,6.000000*%
%TD*%
%TA.AperFunction,SMDPad,CuDef*%
%ADD13C,1.000000*%
%TD*%
%TA.AperFunction,ComponentPad*%
%ADD14R,1.524000X1.524000*%
%TD*%
%TA.AperFunction,ViaPad*%
%ADD15C,0.800000*%
%TD*%
%TA.AperFunction,Conductor*%
%ADD16C,0.300000*%
%TD*%
%TA.AperFunction,Conductor*%
%ADD17C,0.600000*%
%TD*%
%TA.AperFunction,Conductor*%
%ADD18C,0.400000*%
%TD*%
%TA.AperFunction,Conductor*%
%ADD19C,0.700000*%
%TD*%
%TA.AperFunction,Conductor*%
%ADD20C,0.450000*%
%TD*%
G04 APERTURE END LIST*
D10*
G36*
X74612928Y19774623D02*
G01*
X74612928Y19464693D01*
X74566964Y19372765D01*
X74475035Y19326801D01*
X74379392Y19326801D01*
X74287463Y19372765D01*
X74241500Y19464693D01*
X74241500Y19798229D01*
X74239579Y19817738D01*
X74238203Y19821059D01*
X74237949Y19824642D01*
X74231657Y19841086D01*
X74579696Y19841086D01*
X74612928Y19774623D01*
G37*
G36*
X74979595Y17817276D02*
G01*
X72948182Y17817276D01*
X72948182Y18103452D01*
X73114849Y18103452D01*
X73114849Y18064434D01*
X73129781Y18028386D01*
X73157371Y18000796D01*
X73193419Y17985864D01*
X73212928Y17983943D01*
X74712928Y17983943D01*
X74732437Y17985864D01*
X74768485Y18000796D01*
X74796075Y18028386D01*
X74811007Y18064434D01*
X74811007Y18103452D01*
X74796075Y18139500D01*
X74768485Y18167090D01*
X74732437Y18182022D01*
X74712928Y18183943D01*
X74325778Y18183943D01*
X74293740Y18215981D01*
X74772928Y18575372D01*
X74787383Y18588615D01*
X74807262Y18622189D01*
X74812780Y18660815D01*
X74803097Y18698613D01*
X74779686Y18729827D01*
X74746112Y18749706D01*
X74707486Y18755224D01*
X74669688Y18745541D01*
X74652928Y18735372D01*
X74150883Y18358838D01*
X73783639Y18726083D01*
X73768485Y18738519D01*
X73732437Y18753451D01*
X73693419Y18753451D01*
X73657371Y18738519D01*
X73629781Y18710929D01*
X73614849Y18674881D01*
X73614849Y18635863D01*
X73629781Y18599815D01*
X73642217Y18584661D01*
X74042936Y18183943D01*
X73212928Y18183943D01*
X73193419Y18182022D01*
X73157371Y18167090D01*
X73129781Y18139500D01*
X73114849Y18103452D01*
X72948182Y18103452D01*
X72948182Y19726801D01*
X73612928Y19726801D01*
X73612928Y19441086D01*
X73614849Y19421577D01*
X73616224Y19418257D01*
X73616479Y19414673D01*
X73623485Y19396364D01*
X73694914Y19253508D01*
X73705357Y19236917D01*
X73734834Y19211353D01*
X73771850Y19199014D01*
X73810770Y19201780D01*
X73845669Y19219230D01*
X73871233Y19248706D01*
X73883572Y19285722D01*
X73880806Y19324642D01*
X73873800Y19342951D01*
X73812928Y19464695D01*
X73812928Y19703193D01*
X73858893Y19795123D01*
X73950821Y19841086D01*
X74008267Y19841086D01*
X74041500Y19774622D01*
X74041500Y19441086D01*
X74043421Y19421577D01*
X74044796Y19418257D01*
X74045051Y19414673D01*
X74052057Y19396365D01*
X74123485Y19253508D01*
X74125539Y19250245D01*
X74126052Y19248706D01*
X74127713Y19246791D01*
X74133928Y19236917D01*
X74143403Y19228700D01*
X74151617Y19219229D01*
X74161488Y19213016D01*
X74163405Y19211353D01*
X74164943Y19210840D01*
X74168207Y19208786D01*
X74311064Y19137358D01*
X74329373Y19130352D01*
X74332955Y19130098D01*
X74336276Y19128722D01*
X74355785Y19126801D01*
X74498642Y19126801D01*
X74518151Y19128722D01*
X74521471Y19130098D01*
X74525054Y19130352D01*
X74543363Y19137358D01*
X74686221Y19208786D01*
X74689484Y19210841D01*
X74691023Y19211353D01*
X74692938Y19213015D01*
X74702812Y19219229D01*
X74711029Y19228705D01*
X74720500Y19236918D01*
X74726713Y19246790D01*
X74728376Y19248706D01*
X74728889Y19250246D01*
X74730943Y19253508D01*
X74802371Y19396365D01*
X74809377Y19414674D01*
X74809631Y19418257D01*
X74811007Y19421577D01*
X74812928Y19441086D01*
X74812928Y19798229D01*
X74811007Y19817738D01*
X74809631Y19821059D01*
X74809377Y19824641D01*
X74802371Y19842950D01*
X74786079Y19875534D01*
X74796075Y19885529D01*
X74811007Y19921577D01*
X74811007Y19960595D01*
X74796075Y19996643D01*
X74768485Y20024233D01*
X74732437Y20039165D01*
X74712928Y20041086D01*
X73927214Y20041086D01*
X73907705Y20039165D01*
X73904384Y20037790D01*
X73900802Y20037535D01*
X73882493Y20030529D01*
X73739636Y19959101D01*
X73736372Y19957048D01*
X73734834Y19956534D01*
X73732917Y19954872D01*
X73723046Y19948658D01*
X73714832Y19939188D01*
X73705357Y19930970D01*
X73699142Y19921097D01*
X73697481Y19919181D01*
X73696968Y19917643D01*
X73694914Y19914379D01*
X73623485Y19771523D01*
X73616479Y19753214D01*
X73616224Y19749631D01*
X73614849Y19746310D01*
X73612928Y19726801D01*
X72948182Y19726801D01*
X72948182Y20674881D01*
X73114849Y20674881D01*
X73114849Y20635863D01*
X73129781Y20599815D01*
X73157371Y20572225D01*
X73193419Y20557293D01*
X73212928Y20555372D01*
X74712928Y20555372D01*
X74732437Y20557293D01*
X74768485Y20572225D01*
X74796075Y20599815D01*
X74811007Y20635863D01*
X74811007Y20674881D01*
X74796075Y20710929D01*
X74768485Y20738519D01*
X74732437Y20753451D01*
X74712928Y20755372D01*
X74325778Y20755372D01*
X74293740Y20787410D01*
X74772928Y21146801D01*
X74787383Y21160044D01*
X74807262Y21193618D01*
X74812780Y21232244D01*
X74803097Y21270042D01*
X74779686Y21301256D01*
X74746112Y21321135D01*
X74707486Y21326653D01*
X74669688Y21316970D01*
X74652928Y21306801D01*
X74150883Y20930267D01*
X73783639Y21297512D01*
X73768485Y21309948D01*
X73732437Y21324880D01*
X73693419Y21324880D01*
X73657371Y21309948D01*
X73629781Y21282358D01*
X73614849Y21246310D01*
X73614849Y21207292D01*
X73629781Y21171244D01*
X73642217Y21156090D01*
X74042936Y20755372D01*
X73212928Y20755372D01*
X73193419Y20753451D01*
X73157371Y20738519D01*
X73129781Y20710929D01*
X73114849Y20674881D01*
X72948182Y20674881D01*
X72948182Y21889167D01*
X73114849Y21889167D01*
X73114849Y21850149D01*
X73129781Y21814101D01*
X73157371Y21786511D01*
X73193419Y21771579D01*
X73212928Y21769658D01*
X74498642Y21769658D01*
X74518151Y21771579D01*
X74521471Y21772955D01*
X74525055Y21773209D01*
X74543363Y21780215D01*
X74686221Y21851644D01*
X74689484Y21853699D01*
X74691023Y21854211D01*
X74692938Y21855873D01*
X74702812Y21862087D01*
X74711029Y21871563D01*
X74720500Y21879776D01*
X74726713Y21889648D01*
X74728376Y21891564D01*
X74728889Y21893103D01*
X74730943Y21896366D01*
X74802371Y22039223D01*
X74809377Y22057532D01*
X74812143Y22096452D01*
X74799804Y22133468D01*
X74774240Y22162944D01*
X74739341Y22180394D01*
X74700421Y22183159D01*
X74663405Y22170820D01*
X74633928Y22145256D01*
X74623485Y22128665D01*
X74566964Y22015623D01*
X74475035Y21969658D01*
X73212928Y21969658D01*
X73193419Y21967737D01*
X73157371Y21952805D01*
X73129781Y21925215D01*
X73114849Y21889167D01*
X72948182Y21889167D01*
X72948182Y22674881D01*
X73114849Y22674881D01*
X73114849Y22635863D01*
X73123596Y22614746D01*
X73129781Y22599814D01*
X73142218Y22584661D01*
X73213647Y22513233D01*
X73228800Y22500796D01*
X73254290Y22490239D01*
X73264848Y22485865D01*
X73264849Y22485865D01*
X73303866Y22485865D01*
X73324983Y22494613D01*
X73339915Y22500797D01*
X73339919Y22500802D01*
X73355068Y22513233D01*
X73426495Y22584661D01*
X73438932Y22599814D01*
X73443305Y22610373D01*
X73453864Y22635863D01*
X73453864Y22674881D01*
X73614849Y22674881D01*
X73614849Y22635863D01*
X73629781Y22599815D01*
X73657371Y22572225D01*
X73693419Y22557293D01*
X73712928Y22555372D01*
X74712928Y22555372D01*
X74732437Y22557293D01*
X74768485Y22572225D01*
X74796075Y22599815D01*
X74811007Y22635863D01*
X74811007Y22674881D01*
X74796075Y22710929D01*
X74768485Y22738519D01*
X74732437Y22753451D01*
X74712928Y22755372D01*
X73712928Y22755372D01*
X73693419Y22753451D01*
X73657371Y22738519D01*
X73629781Y22710929D01*
X73614849Y22674881D01*
X73453864Y22674881D01*
X73440439Y22707292D01*
X73438933Y22710929D01*
X73426496Y22726082D01*
X73355068Y22797511D01*
X73339915Y22809948D01*
X73324983Y22816133D01*
X73303866Y22824880D01*
X73264848Y22824880D01*
X73254290Y22820507D01*
X73228800Y22809949D01*
X73228794Y22809944D01*
X73213646Y22797512D01*
X73142217Y22726083D01*
X73129785Y22710935D01*
X73129780Y22710929D01*
X73128274Y22707292D01*
X73114849Y22674881D01*
X72948182Y22674881D01*
X72948182Y23389167D01*
X73114849Y23389167D01*
X73114849Y23350149D01*
X73129781Y23314101D01*
X73157371Y23286511D01*
X73193419Y23271579D01*
X73212928Y23269658D01*
X74712928Y23269658D01*
X74732437Y23271579D01*
X74768485Y23286511D01*
X74796075Y23314101D01*
X74811007Y23350149D01*
X74811007Y23389167D01*
X74796075Y23425215D01*
X74768485Y23452805D01*
X74732437Y23467737D01*
X74712928Y23469658D01*
X74325778Y23469658D01*
X74293740Y23501696D01*
X74772928Y23861087D01*
X74787383Y23874330D01*
X74807262Y23907904D01*
X74812780Y23946530D01*
X74803097Y23984328D01*
X74779686Y24015542D01*
X74746112Y24035421D01*
X74707486Y24040939D01*
X74669688Y24031256D01*
X74652928Y24021087D01*
X74150883Y23644553D01*
X73783639Y24011798D01*
X73768485Y24024234D01*
X73732437Y24039166D01*
X73693419Y24039166D01*
X73657371Y24024234D01*
X73629781Y23996644D01*
X73614849Y23960596D01*
X73614849Y23921578D01*
X73629781Y23885530D01*
X73642217Y23870376D01*
X74042936Y23469658D01*
X73212928Y23469658D01*
X73193419Y23467737D01*
X73157371Y23452805D01*
X73129781Y23425215D01*
X73114849Y23389167D01*
X72948182Y23389167D01*
X72948182Y24207606D01*
X74979595Y24207606D01*
X74979595Y17817276D01*
G37*
D11*
G36*
X67292766Y52798605D02*
G01*
X60588446Y52798605D01*
X60588446Y54115272D01*
X60755113Y54115272D01*
X60755113Y53329558D01*
X60757995Y53300294D01*
X60760056Y53295317D01*
X60760439Y53289939D01*
X60770949Y53262476D01*
X60842378Y53119618D01*
X60845458Y53114724D01*
X60846228Y53112416D01*
X60848720Y53109543D01*
X60858043Y53094732D01*
X60872254Y53082408D01*
X60884575Y53068201D01*
X60899382Y53058880D01*
X60902258Y53056386D01*
X60904566Y53055617D01*
X60909460Y53052536D01*
X61052318Y52981108D01*
X61079781Y52970598D01*
X61085156Y52970217D01*
X61090135Y52968154D01*
X61119399Y52965272D01*
X61333685Y52965272D01*
X61362949Y52968154D01*
X61367927Y52970217D01*
X61373303Y52970598D01*
X61400767Y52981108D01*
X61449641Y53005546D01*
X61464635Y52990552D01*
X61518707Y52968154D01*
X61577235Y52968154D01*
X61631307Y52990552D01*
X61672691Y53031936D01*
X61695089Y53086008D01*
X61697971Y53115272D01*
X61697971Y53900986D01*
X62040828Y53900986D01*
X62040828Y53829558D01*
X62043710Y53800294D01*
X62045772Y53795316D01*
X62046154Y53789940D01*
X62056664Y53762477D01*
X62128092Y53619618D01*
X62131171Y53614726D01*
X62131942Y53612415D01*
X62134437Y53609538D01*
X62143757Y53594733D01*
X62157963Y53582412D01*
X62170289Y53568200D01*
X62185093Y53558882D01*
X62187971Y53556386D01*
X62190282Y53555616D01*
X62195175Y53552536D01*
X62338033Y53481107D01*
X62365496Y53470598D01*
X62370871Y53470217D01*
X62375850Y53468154D01*
X62405114Y53465272D01*
X62583989Y53465272D01*
X62650453Y53432040D01*
X62683685Y53365576D01*
X62683685Y53364968D01*
X62650452Y53298504D01*
X62583989Y53265272D01*
X62369095Y53265272D01*
X62257910Y53320864D01*
X62230446Y53331374D01*
X62172066Y53335522D01*
X62116544Y53317014D01*
X62072329Y53278667D01*
X62046154Y53226318D01*
X62042006Y53167938D01*
X62060514Y53112416D01*
X62098861Y53068201D01*
X62123746Y53052536D01*
X62266604Y52981108D01*
X62294067Y52970598D01*
X62299442Y52970217D01*
X62304421Y52968154D01*
X62333685Y52965272D01*
X62619399Y52965272D01*
X62648663Y52968154D01*
X62653641Y52970217D01*
X62659017Y52970598D01*
X62686481Y52981108D01*
X62829338Y53052536D01*
X62834232Y53055617D01*
X62836540Y53056386D01*
X62839414Y53058879D01*
X62854224Y53068201D01*
X62866546Y53082410D01*
X62880755Y53094732D01*
X62890077Y53109542D01*
X62892570Y53112416D01*
X62893339Y53114724D01*
X62896420Y53119618D01*
X62967849Y53262476D01*
X62978359Y53289939D01*
X62978741Y53295317D01*
X62980803Y53300294D01*
X62983685Y53329558D01*
X62983685Y53400986D01*
X62980803Y53430250D01*
X62978739Y53435231D01*
X62978358Y53440605D01*
X62967849Y53468069D01*
X62896420Y53610925D01*
X62893339Y53615820D01*
X62892570Y53618127D01*
X62890077Y53621002D01*
X62880755Y53635811D01*
X62866545Y53648135D01*
X62854224Y53662342D01*
X62839418Y53671662D01*
X62836540Y53674158D01*
X62834228Y53674929D01*
X62829338Y53678007D01*
X62686481Y53749436D01*
X62659018Y53759945D01*
X62653643Y53760327D01*
X62648663Y53762390D01*
X62619399Y53765272D01*
X62440523Y53765272D01*
X62374060Y53798503D01*
X62340828Y53864967D01*
X62340828Y53865577D01*
X62374059Y53932040D01*
X62440524Y53965272D01*
X62583989Y53965272D01*
X62695173Y53909679D01*
X62722637Y53899170D01*
X62781017Y53895021D01*
X62836539Y53913528D01*
X62880755Y53951875D01*
X62906929Y54004224D01*
X62911078Y54062604D01*
X62892570Y54118127D01*
X62869666Y54144536D01*
X63115139Y54144536D01*
X63115139Y54086008D01*
X63137537Y54031936D01*
X63178921Y53990552D01*
X63232993Y53968154D01*
X63262257Y53965272D01*
X63326542Y53965272D01*
X63326542Y53329558D01*
X63329424Y53300294D01*
X63331485Y53295317D01*
X63331868Y53289939D01*
X63342378Y53262476D01*
X63413807Y53119618D01*
X63416887Y53114724D01*
X63417657Y53112416D01*
X63420149Y53109543D01*
X63429472Y53094732D01*
X63443683Y53082408D01*
X63456004Y53068201D01*
X63470811Y53058880D01*
X63473687Y53056386D01*
X63475995Y53055617D01*
X63480889Y53052536D01*
X63623747Y52981108D01*
X63651210Y52970598D01*
X63656585Y52970217D01*
X63661564Y52968154D01*
X63690828Y52965272D01*
X63833685Y52965272D01*
X63862949Y52968154D01*
X63917021Y52990552D01*
X63958405Y53031936D01*
X63980803Y53086008D01*
X63980803Y53144536D01*
X63958405Y53198608D01*
X63941051Y53215962D01*
X64115139Y53215962D01*
X64115139Y53157436D01*
X64117365Y53152063D01*
X64137536Y53103365D01*
X64156191Y53080634D01*
X64227619Y53009206D01*
X64250349Y52990551D01*
X64272175Y52981511D01*
X64304421Y52968154D01*
X64362949Y52968154D01*
X64403516Y52984958D01*
X64417020Y52990551D01*
X64417024Y52990556D01*
X64439750Y53009205D01*
X64511179Y53080633D01*
X64529834Y53103364D01*
X64529835Y53103365D01*
X64552232Y53157437D01*
X64552232Y53215963D01*
X64529835Y53270035D01*
X64511180Y53292766D01*
X64439751Y53364195D01*
X64417020Y53382850D01*
X64385346Y53395970D01*
X64362949Y53405247D01*
X64304421Y53405247D01*
X64282024Y53395970D01*
X64250350Y53382850D01*
X64250349Y53382849D01*
X64227618Y53364194D01*
X64156190Y53292765D01*
X64137540Y53270040D01*
X64137536Y53270035D01*
X64117366Y53221338D01*
X64115139Y53215962D01*
X63941051Y53215962D01*
X63917021Y53239992D01*
X63862949Y53262390D01*
X63833685Y53265272D01*
X63726238Y53265272D01*
X63659774Y53298504D01*
X63626542Y53364968D01*
X63626542Y53829558D01*
X64826543Y53829558D01*
X64826543Y53400986D01*
X64829425Y53371722D01*
X64831487Y53366744D01*
X64831869Y53361368D01*
X64842379Y53333904D01*
X64913807Y53191047D01*
X64921734Y53178454D01*
X64923250Y53174794D01*
X64926631Y53170675D01*
X64929472Y53166161D01*
X64932465Y53163565D01*
X64941905Y53152063D01*
X65013334Y53080634D01*
X65024838Y53071193D01*
X65027433Y53068201D01*
X65031942Y53065363D01*
X65036065Y53061979D01*
X65039726Y53060463D01*
X65052318Y53052536D01*
X65195176Y52981108D01*
X65222639Y52970598D01*
X65228014Y52970217D01*
X65232993Y52968154D01*
X65262257Y52965272D01*
X65547971Y52965272D01*
X65577235Y52968154D01*
X65582213Y52970217D01*
X65587589Y52970598D01*
X65615052Y52981108D01*
X65757911Y53052536D01*
X65782796Y53068201D01*
X65821143Y53112415D01*
X65825937Y53126798D01*
X66041272Y53126798D01*
X66043710Y53106482D01*
X66043710Y53086008D01*
X66047168Y53077659D01*
X66048245Y53068689D01*
X66058275Y53050846D01*
X66066108Y53031936D01*
X66072495Y53025549D01*
X66076924Y53017670D01*
X66093022Y53005022D01*
X66107492Y52990552D01*
X66115840Y52987094D01*
X66122946Y52981511D01*
X66142651Y52975989D01*
X66161564Y52968154D01*
X66175500Y52966782D01*
X66179302Y52965716D01*
X66182465Y52966096D01*
X66190828Y52965272D01*
X66976543Y52965272D01*
X67005807Y52968154D01*
X67059879Y52990552D01*
X67101263Y53031936D01*
X67123661Y53086008D01*
X67123661Y53144536D01*
X67101263Y53198608D01*
X67059879Y53239992D01*
X67005807Y53262390D01*
X66976543Y53265272D01*
X66499448Y53265272D01*
X67094491Y54022599D01*
X67099008Y54029682D01*
X67101263Y54031936D01*
X67102775Y54035587D01*
X67110304Y54047390D01*
X67115826Y54067096D01*
X67123661Y54086008D01*
X67123661Y54095048D01*
X67126099Y54103746D01*
X67123661Y54124063D01*
X67123661Y54144536D01*
X67120202Y54152886D01*
X67119126Y54161855D01*
X67109095Y54179699D01*
X67101263Y54198608D01*
X67094875Y54204996D01*
X67090447Y54212874D01*
X67074348Y54225523D01*
X67059879Y54239992D01*
X67051530Y54243451D01*
X67044425Y54249033D01*
X67024719Y54254556D01*
X67005807Y54262390D01*
X66991870Y54263763D01*
X66988069Y54264828D01*
X66984905Y54264449D01*
X66976543Y54265272D01*
X66190828Y54265272D01*
X66161564Y54262390D01*
X66107492Y54239992D01*
X66066108Y54198608D01*
X66043710Y54144536D01*
X66043710Y54086008D01*
X66066108Y54031936D01*
X66107492Y53990552D01*
X66161564Y53968154D01*
X66190828Y53965272D01*
X66667923Y53965272D01*
X66072880Y53207945D01*
X66068362Y53200863D01*
X66066108Y53198608D01*
X66064595Y53194958D01*
X66057067Y53183154D01*
X66051544Y53163449D01*
X66043710Y53144536D01*
X66043710Y53135497D01*
X66041272Y53126798D01*
X65825937Y53126798D01*
X65839651Y53167938D01*
X65835503Y53226318D01*
X65809329Y53278667D01*
X65765114Y53317014D01*
X65709592Y53335522D01*
X65651211Y53331374D01*
X65623748Y53320865D01*
X65512562Y53265272D01*
X65297667Y53265272D01*
X65208253Y53309979D01*
X65171248Y53346984D01*
X65126543Y53436396D01*
X65126543Y53794149D01*
X65171248Y53883560D01*
X65208253Y53920565D01*
X65297667Y53965272D01*
X65512561Y53965272D01*
X65623747Y53909679D01*
X65651210Y53899169D01*
X65709590Y53895021D01*
X65765113Y53913529D01*
X65809328Y53951875D01*
X65835503Y54004224D01*
X65839651Y54062605D01*
X65821143Y54118127D01*
X65782797Y54162342D01*
X65757911Y54178007D01*
X65615053Y54249436D01*
X65587590Y54259946D01*
X65582212Y54260329D01*
X65577235Y54262390D01*
X65547971Y54265272D01*
X65262257Y54265272D01*
X65232993Y54262390D01*
X65228012Y54260327D01*
X65222638Y54259945D01*
X65195174Y54249436D01*
X65052318Y54178007D01*
X65039724Y54170080D01*
X65036065Y54168564D01*
X65031944Y54165183D01*
X65027432Y54162342D01*
X65024835Y54159349D01*
X65013335Y54149910D01*
X64941906Y54078482D01*
X64932466Y54066980D01*
X64929472Y54064383D01*
X64926630Y54059869D01*
X64923251Y54055751D01*
X64921735Y54052093D01*
X64913807Y54039497D01*
X64842379Y53896640D01*
X64831869Y53869176D01*
X64831487Y53863801D01*
X64829425Y53858822D01*
X64826543Y53829558D01*
X63626542Y53829558D01*
X63626542Y53965272D01*
X63833685Y53965272D01*
X63862949Y53968154D01*
X63917021Y53990552D01*
X63958405Y54031936D01*
X63980803Y54086008D01*
X63980803Y54144536D01*
X63958405Y54198608D01*
X63917021Y54239992D01*
X63862949Y54262390D01*
X63833685Y54265272D01*
X63626542Y54265272D01*
X63626542Y54615272D01*
X63623660Y54644536D01*
X63601262Y54698608D01*
X63559878Y54739992D01*
X63505806Y54762390D01*
X63447278Y54762390D01*
X63393206Y54739992D01*
X63351822Y54698608D01*
X63329424Y54644536D01*
X63326542Y54615272D01*
X63326542Y54265272D01*
X63262257Y54265272D01*
X63232993Y54262390D01*
X63178921Y54239992D01*
X63137537Y54198608D01*
X63115139Y54144536D01*
X62869666Y54144536D01*
X62854224Y54162342D01*
X62829338Y54178007D01*
X62686481Y54249436D01*
X62659018Y54259945D01*
X62653643Y54260327D01*
X62648663Y54262390D01*
X62619399Y54265272D01*
X62405114Y54265272D01*
X62375850Y54262390D01*
X62370872Y54260329D01*
X62365495Y54259946D01*
X62338032Y54249436D01*
X62195174Y54178007D01*
X62190279Y54174927D01*
X62187972Y54174157D01*
X62185097Y54171665D01*
X62170288Y54162342D01*
X62157965Y54148134D01*
X62143757Y54135811D01*
X62134434Y54121002D01*
X62131942Y54118127D01*
X62131172Y54115820D01*
X62128092Y54110925D01*
X62056664Y53968068D01*
X62046154Y53940604D01*
X62045772Y53935229D01*
X62043710Y53930250D01*
X62040828Y53900986D01*
X61697971Y53900986D01*
X61697971Y54115272D01*
X61695089Y54144536D01*
X61672691Y54198608D01*
X61631307Y54239992D01*
X61577235Y54262390D01*
X61518707Y54262390D01*
X61464635Y54239992D01*
X61423251Y54198608D01*
X61400853Y54144536D01*
X61397971Y54115272D01*
X61397971Y53320261D01*
X61387687Y53309978D01*
X61298275Y53265272D01*
X61154809Y53265272D01*
X61088345Y53298504D01*
X61055113Y53364968D01*
X61055113Y54115272D01*
X61052231Y54144536D01*
X61029833Y54198608D01*
X60988449Y54239992D01*
X60934377Y54262390D01*
X60875849Y54262390D01*
X60821777Y54239992D01*
X60780393Y54198608D01*
X60757995Y54144536D01*
X60755113Y54115272D01*
X60588446Y54115272D01*
X60588446Y54929057D01*
X67292766Y54929057D01*
X67292766Y52798605D01*
G37*
D10*
G36*
X74468507Y36527308D02*
G01*
X74587037Y36468042D01*
X74635514Y36419566D01*
X74689128Y36312338D01*
X74689128Y36216694D01*
X74635513Y36109465D01*
X74587037Y36060989D01*
X74468507Y36001723D01*
X74205391Y35935944D01*
X73872866Y35935944D01*
X73609747Y36001723D01*
X73491219Y36060988D01*
X73442742Y36109466D01*
X73389128Y36216694D01*
X73389128Y36312336D01*
X73442743Y36419566D01*
X73491219Y36468043D01*
X73609746Y36527307D01*
X73872866Y36593087D01*
X74205390Y36593087D01*
X74468507Y36527308D01*
G37*
G36*
X75055795Y34071198D02*
G01*
X73022461Y34071198D01*
X73022461Y34978801D01*
X73189128Y34978801D01*
X73189128Y34621658D01*
X73191049Y34602149D01*
X73192424Y34598829D01*
X73192679Y34595245D01*
X73199685Y34576936D01*
X73271114Y34434080D01*
X73276400Y34425682D01*
X73277410Y34423244D01*
X73279661Y34420501D01*
X73281557Y34417489D01*
X73283554Y34415757D01*
X73289846Y34408090D01*
X73361274Y34336663D01*
X73376427Y34324226D01*
X73412476Y34309295D01*
X73451494Y34309295D01*
X73487542Y34324226D01*
X73515132Y34351816D01*
X73530063Y34387864D01*
X73530063Y34426882D01*
X73515132Y34462931D01*
X73502695Y34478084D01*
X73442743Y34538037D01*
X73389128Y34645267D01*
X73389128Y34955193D01*
X73442744Y35062425D01*
X73491219Y35110901D01*
X73598449Y35164516D01*
X73701473Y35164516D01*
X73877965Y35105685D01*
X74718417Y34265234D01*
X74733570Y34252797D01*
X74744128Y34248424D01*
X74769619Y34237865D01*
X74808637Y34237865D01*
X74844685Y34252797D01*
X74872275Y34280387D01*
X74887207Y34316435D01*
X74889128Y34335944D01*
X74889128Y35264516D01*
X74887207Y35284025D01*
X74872275Y35320073D01*
X74844685Y35347663D01*
X74808637Y35362595D01*
X74769619Y35362595D01*
X74733571Y35347663D01*
X74705981Y35320073D01*
X74691049Y35284025D01*
X74689128Y35264516D01*
X74689128Y34577366D01*
X74002696Y35263798D01*
X73987542Y35276234D01*
X73984223Y35277609D01*
X73981508Y35279964D01*
X73963608Y35287955D01*
X73749323Y35359384D01*
X73739650Y35361584D01*
X73737209Y35362595D01*
X73733671Y35362944D01*
X73730208Y35363731D01*
X73727573Y35363544D01*
X73717700Y35364516D01*
X73574842Y35364516D01*
X73555333Y35362595D01*
X73552012Y35361220D01*
X73548429Y35360965D01*
X73530120Y35353959D01*
X73387263Y35282530D01*
X73378865Y35277245D01*
X73376427Y35276234D01*
X73373682Y35273982D01*
X73370673Y35272087D01*
X73368940Y35270090D01*
X73361274Y35263797D01*
X73289846Y35192368D01*
X73283553Y35184702D01*
X73281557Y35182970D01*
X73279663Y35179963D01*
X73277409Y35177215D01*
X73276397Y35174774D01*
X73271114Y35166379D01*
X73199685Y35023523D01*
X73192679Y35005214D01*
X73192424Y35001631D01*
X73191049Y34998310D01*
X73189128Y34978801D01*
X73022461Y34978801D01*
X73022461Y36335944D01*
X73189128Y36335944D01*
X73189128Y36193087D01*
X73191049Y36173578D01*
X73192424Y36170258D01*
X73192679Y36166674D01*
X73199685Y36148366D01*
X73271114Y36005508D01*
X73276400Y35997110D01*
X73277410Y35994672D01*
X73279661Y35991929D01*
X73281557Y35988917D01*
X73283554Y35987185D01*
X73289846Y35979518D01*
X73361274Y35908091D01*
X73368940Y35901799D01*
X73370673Y35899801D01*
X73373682Y35897907D01*
X73376427Y35895654D01*
X73378865Y35894644D01*
X73387263Y35889358D01*
X73530120Y35817929D01*
X73531548Y35817383D01*
X73532128Y35816953D01*
X73540298Y35814035D01*
X73548429Y35810923D01*
X73549151Y35810872D01*
X73550589Y35810358D01*
X73836304Y35738930D01*
X73839683Y35738431D01*
X73841048Y35737865D01*
X73848399Y35737142D01*
X73855696Y35736062D01*
X73857154Y35736280D01*
X73860557Y35735944D01*
X74217700Y35735944D01*
X74221102Y35736280D01*
X74222561Y35736062D01*
X74229857Y35737142D01*
X74237209Y35737865D01*
X74238573Y35738431D01*
X74241953Y35738930D01*
X74527667Y35810358D01*
X74529104Y35810872D01*
X74529827Y35810923D01*
X74537957Y35814035D01*
X74546128Y35816953D01*
X74546707Y35817383D01*
X74548136Y35817929D01*
X74690992Y35889358D01*
X74699386Y35894642D01*
X74701828Y35895653D01*
X74704575Y35897908D01*
X74707583Y35899801D01*
X74709314Y35901798D01*
X74716981Y35908090D01*
X74788410Y35979518D01*
X74794704Y35987188D01*
X74796700Y35988918D01*
X74798591Y35991924D01*
X74800847Y35994671D01*
X74801858Y35997113D01*
X74807143Y36005508D01*
X74878571Y36148366D01*
X74885578Y36166675D01*
X74885832Y36170261D01*
X74887207Y36173578D01*
X74889128Y36193087D01*
X74889128Y36335944D01*
X74887207Y36355453D01*
X74885831Y36358774D01*
X74885577Y36362356D01*
X74878571Y36380665D01*
X74807143Y36523522D01*
X74801858Y36531918D01*
X74800847Y36534359D01*
X74798591Y36537107D01*
X74796700Y36540112D01*
X74794705Y36541843D01*
X74788410Y36549512D01*
X74716981Y36620940D01*
X74709314Y36627233D01*
X74707583Y36629229D01*
X74704575Y36631123D01*
X74701828Y36633377D01*
X74699386Y36634389D01*
X74690992Y36639672D01*
X74548136Y36711101D01*
X74546707Y36711648D01*
X74546128Y36712077D01*
X74537957Y36714996D01*
X74529827Y36718107D01*
X74529104Y36718159D01*
X74527667Y36718672D01*
X74241954Y36790101D01*
X74238572Y36790602D01*
X74237209Y36791166D01*
X74229858Y36791890D01*
X74222561Y36792969D01*
X74221102Y36792752D01*
X74217700Y36793087D01*
X73860557Y36793087D01*
X73857153Y36792752D01*
X73855695Y36792969D01*
X73848396Y36791890D01*
X73841048Y36791166D01*
X73839684Y36790602D01*
X73836303Y36790101D01*
X73550588Y36718672D01*
X73549149Y36718159D01*
X73548429Y36718107D01*
X73540304Y36714999D01*
X73532128Y36712077D01*
X73531548Y36711648D01*
X73530120Y36711101D01*
X73387263Y36639672D01*
X73378865Y36634387D01*
X73376427Y36633376D01*
X73373682Y36631124D01*
X73370673Y36629229D01*
X73368940Y36627232D01*
X73361274Y36620939D01*
X73289846Y36549512D01*
X73283554Y36541846D01*
X73281557Y36540113D01*
X73279661Y36537102D01*
X73277410Y36534358D01*
X73276400Y36531921D01*
X73271114Y36523522D01*
X73199685Y36380666D01*
X73192679Y36362357D01*
X73192424Y36358774D01*
X73191049Y36355453D01*
X73189128Y36335944D01*
X73022461Y36335944D01*
X73022461Y37835943D01*
X73189128Y37835943D01*
X73189128Y37478800D01*
X73191049Y37459291D01*
X73192424Y37455971D01*
X73192679Y37452387D01*
X73199685Y37434078D01*
X73271114Y37291222D01*
X73276400Y37282824D01*
X73277410Y37280386D01*
X73279661Y37277643D01*
X73281557Y37274631D01*
X73283554Y37272899D01*
X73289846Y37265232D01*
X73361274Y37193805D01*
X73376427Y37181368D01*
X73412476Y37166437D01*
X73451494Y37166437D01*
X73487542Y37181368D01*
X73515132Y37208958D01*
X73530063Y37245006D01*
X73530063Y37284024D01*
X73515132Y37320073D01*
X73502695Y37335226D01*
X73442743Y37395179D01*
X73389128Y37502409D01*
X73389128Y37812335D01*
X73442744Y37919567D01*
X73491219Y37968043D01*
X73598449Y38021658D01*
X73701473Y38021658D01*
X73877965Y37962827D01*
X74718417Y37122376D01*
X74733570Y37109939D01*
X74744128Y37105566D01*
X74769619Y37095007D01*
X74808637Y37095007D01*
X74844685Y37109939D01*
X74872275Y37137529D01*
X74887207Y37173577D01*
X74889128Y37193086D01*
X74889128Y38121658D01*
X74887207Y38141167D01*
X74872275Y38177215D01*
X74844685Y38204805D01*
X74808637Y38219737D01*
X74769619Y38219737D01*
X74733571Y38204805D01*
X74705981Y38177215D01*
X74691049Y38141167D01*
X74689128Y38121658D01*
X74689128Y37434508D01*
X74002696Y38120940D01*
X73987542Y38133376D01*
X73984223Y38134751D01*
X73981508Y38137106D01*
X73963608Y38145097D01*
X73749323Y38216526D01*
X73739650Y38218726D01*
X73737209Y38219737D01*
X73733671Y38220086D01*
X73730208Y38220873D01*
X73727573Y38220686D01*
X73717700Y38221658D01*
X73574842Y38221658D01*
X73555333Y38219737D01*
X73552012Y38218362D01*
X73548429Y38218107D01*
X73530120Y38211101D01*
X73387263Y38139672D01*
X73378865Y38134387D01*
X73376427Y38133376D01*
X73373682Y38131124D01*
X73370673Y38129229D01*
X73368940Y38127232D01*
X73361274Y38120939D01*
X73289846Y38049510D01*
X73283553Y38041844D01*
X73281557Y38040112D01*
X73279663Y38037105D01*
X73277409Y38034357D01*
X73276397Y38031916D01*
X73271114Y38023521D01*
X73199685Y37880665D01*
X73192679Y37862356D01*
X73192424Y37858773D01*
X73191049Y37855452D01*
X73189128Y37835943D01*
X73022461Y37835943D01*
X73022461Y39550229D01*
X73189128Y39550229D01*
X73189128Y38621657D01*
X73191049Y38602148D01*
X73205981Y38566100D01*
X73233571Y38538510D01*
X73269619Y38523578D01*
X73308637Y38523578D01*
X73344685Y38538510D01*
X73372275Y38566100D01*
X73387207Y38602148D01*
X73389128Y38621657D01*
X73389128Y39329853D01*
X73794706Y38974972D01*
X73803139Y38968943D01*
X73805000Y38967082D01*
X73806764Y38966352D01*
X73810653Y38963571D01*
X73826036Y38958368D01*
X73841048Y38952150D01*
X73844422Y38952150D01*
X73847615Y38951070D01*
X73863812Y38952150D01*
X73880066Y38952150D01*
X73883184Y38953442D01*
X73886547Y38953666D01*
X73901100Y38960863D01*
X73916114Y38967082D01*
X73918499Y38969468D01*
X73921522Y38970962D01*
X73932216Y38983185D01*
X73943704Y38994672D01*
X73944995Y38997789D01*
X73947215Y39000326D01*
X73952416Y39015705D01*
X73958636Y39030720D01*
X73959104Y39035481D01*
X73959716Y39037288D01*
X73959541Y39039912D01*
X73960557Y39050229D01*
X73960557Y39240908D01*
X74014170Y39348135D01*
X74062650Y39396615D01*
X74169878Y39450229D01*
X74479806Y39450229D01*
X74587034Y39396615D01*
X74635514Y39348135D01*
X74689128Y39240908D01*
X74689128Y38859550D01*
X74635514Y38752323D01*
X74575560Y38692368D01*
X74563124Y38677214D01*
X74548192Y38641166D01*
X74548192Y38602148D01*
X74563124Y38566100D01*
X74590714Y38538510D01*
X74626762Y38523578D01*
X74665780Y38523578D01*
X74701828Y38538510D01*
X74716982Y38550946D01*
X74788411Y38622375D01*
X74794705Y38630046D01*
X74796700Y38631775D01*
X74798593Y38634783D01*
X74800847Y38637529D01*
X74801857Y38639969D01*
X74807143Y38648365D01*
X74878571Y38791222D01*
X74885577Y38809531D01*
X74885831Y38813114D01*
X74887207Y38816434D01*
X74889128Y38835943D01*
X74889128Y39264514D01*
X74887207Y39284023D01*
X74885831Y39287344D01*
X74885577Y39290926D01*
X74878571Y39309235D01*
X74807143Y39452092D01*
X74801857Y39460489D01*
X74800847Y39462928D01*
X74798593Y39465675D01*
X74796700Y39468682D01*
X74794705Y39470412D01*
X74788411Y39478082D01*
X74716982Y39549511D01*
X74709315Y39555803D01*
X74707583Y39557800D01*
X74704571Y39559696D01*
X74701828Y39561947D01*
X74699390Y39562957D01*
X74690992Y39568243D01*
X74548136Y39639672D01*
X74529827Y39646678D01*
X74526243Y39646933D01*
X74522923Y39648308D01*
X74503414Y39650229D01*
X74146271Y39650229D01*
X74126762Y39648308D01*
X74123441Y39646933D01*
X74119858Y39646678D01*
X74101549Y39639672D01*
X73958692Y39568243D01*
X73950293Y39562957D01*
X73947857Y39561947D01*
X73945113Y39559696D01*
X73942102Y39557800D01*
X73940369Y39555803D01*
X73932703Y39549511D01*
X73861274Y39478082D01*
X73854982Y39470416D01*
X73852985Y39468683D01*
X73851089Y39465672D01*
X73848838Y39462928D01*
X73847828Y39460491D01*
X73842542Y39452092D01*
X73771114Y39309235D01*
X73764108Y39290927D01*
X73763853Y39287344D01*
X73762478Y39284023D01*
X73761109Y39270123D01*
X73354978Y39625487D01*
X73346544Y39631517D01*
X73344685Y39633376D01*
X73342921Y39634107D01*
X73339031Y39636888D01*
X73323642Y39642093D01*
X73308637Y39648308D01*
X73305263Y39648308D01*
X73302070Y39649388D01*
X73285867Y39648308D01*
X73269619Y39648308D01*
X73266503Y39647018D01*
X73263138Y39646793D01*
X73248577Y39639593D01*
X73233571Y39633376D01*
X73231186Y39630992D01*
X73228163Y39629496D01*
X73217465Y39617271D01*
X73205981Y39605786D01*
X73204690Y39602672D01*
X73202469Y39600132D01*
X73197264Y39584744D01*
X73191049Y39569738D01*
X73190580Y39564979D01*
X73189969Y39563171D01*
X73190143Y39560547D01*
X73189128Y39550229D01*
X73022461Y39550229D01*
X73022461Y39816896D01*
X75055795Y39816896D01*
X75055795Y34071198D01*
G37*
D12*
%TO.P,M1,1*%
%TO.N,GND*%
X10160000Y50800000D03*
%TD*%
%TO.P,M2,1*%
%TO.N,GND*%
X71120000Y50800000D03*
%TD*%
%TO.P,M3,1*%
%TO.N,GND*%
X10160000Y10160000D03*
%TD*%
%TO.P,M4,1*%
%TO.N,GND*%
X71120000Y10160000D03*
%TD*%
D13*
%TO.P,TP3,1,1*%
%TO.N,Net-(U2--)*%
X25439200Y20265600D03*
%TD*%
%TO.P,TP2,1,1*%
%TO.N,GNDA*%
X25439200Y22602400D03*
%TD*%
%TO.P,TP1,1,1*%
%TO.N,Net-(U6--)*%
X25693200Y16506400D03*
%TD*%
D14*
%TO.P,J1,1*%
%TO.N,GND*%
X22860000Y53340000D03*
%TO.P,J1,2*%
X22860000Y50800000D03*
%TO.P,J1,3*%
%TO.N,+5VD*%
X25400000Y53340000D03*
%TO.P,J1,4*%
X25400000Y50800000D03*
%TO.P,J1,5*%
%TO.N,/interface/3v3*%
X27940000Y53340000D03*
%TO.P,J1,6*%
X27940000Y50800000D03*
%TO.P,J1,7*%
%TO.N,Net-(J1-Pad7)*%
X30480000Y53340000D03*
%TO.P,J1,8*%
X30480000Y50800000D03*
%TO.P,J1,9*%
%TO.N,/interface/A0*%
X33020000Y53340000D03*
%TO.P,J1,10*%
%TO.N,unconnected-(J1-Pad10)*%
X33020000Y50800000D03*
%TO.P,J1,11*%
%TO.N,/interface/A1*%
X35560000Y53340000D03*
%TO.P,J1,12*%
%TO.N,/interface/RX*%
X35560000Y50800000D03*
%TO.P,J1,13*%
%TO.N,/interface/B1*%
X38100000Y53340000D03*
%TO.P,J1,14*%
%TO.N,/interface/TX*%
X38100000Y50800000D03*
%TO.P,J1,15*%
%TO.N,/interface/B0*%
X40640000Y53340000D03*
%TO.P,J1,16*%
%TO.N,/interface/SOCKET_MOSI*%
X40640000Y50800000D03*
%TO.P,J1,17*%
%TO.N,/interface/C1*%
X43180000Y53340000D03*
%TO.P,J1,18*%
%TO.N,/interface/SOCKET_MISO*%
X43180000Y50800000D03*
%TO.P,J1,19*%
%TO.N,/interface/C0*%
X45720000Y53340000D03*
%TO.P,J1,20*%
%TO.N,/interface/SOCKET_SCLK*%
X45720000Y50800000D03*
%TO.P,J1,21*%
%TO.N,GND*%
X48260000Y53340000D03*
%TO.P,J1,22*%
X48260000Y50800000D03*
%TO.P,J1,23*%
%TO.N,/interface/SCL*%
X50800000Y53340000D03*
%TO.P,J1,24*%
X50800000Y50800000D03*
%TO.P,J1,25*%
%TO.N,VDD*%
X53340000Y53340000D03*
%TO.P,J1,26*%
X53340000Y50800000D03*
%TO.P,J1,27*%
%TO.N,/interface/SDA*%
X55880000Y53340000D03*
%TO.P,J1,28*%
X55880000Y50800000D03*
%TO.P,J1,29*%
%TO.N,GND*%
X58420000Y53340000D03*
%TO.P,J1,30*%
X58420000Y50800000D03*
%TD*%
D15*
%TO.N,GND*%
X17209600Y34845200D03*
X13120200Y21992800D03*
X11367600Y32813200D03*
X12561400Y36470800D03*
X69469000Y26771600D03*
X18759000Y30948800D03*
X39124728Y43574825D03*
X26339552Y24419848D03*
X21240000Y31351375D03*
X13792200Y19608800D03*
X35243600Y48713600D03*
X17387400Y40382400D03*
X43337200Y48476000D03*
X10312400Y26746200D03*
X29909600Y48205600D03*
X15954550Y27049233D03*
X13411200Y15367000D03*
X17514400Y38807600D03*
X13487400Y26568400D03*
X15544800Y20777200D03*
X19775000Y33194200D03*
%TO.N,GNDA*%
X50165000Y30505400D03*
X51418300Y25823100D03*
X47675800Y24942800D03*
X55651399Y32359599D03*
X25820200Y35708800D03*
X54229000Y23012400D03*
X37806600Y25320200D03*
X38887400Y19050000D03*
X24931200Y23669200D03*
X59232800Y32410400D03*
X26353600Y28342798D03*
X35382200Y20243800D03*
%TO.N,Net-(U6--)*%
X26252000Y17827000D03*
%TO.N,/PIN_detector/REF*%
X44905860Y27877115D03*
X44350700Y22021800D03*
X38756600Y27072800D03*
X33096200Y25654000D03*
%TO.N,VDD*%
X52654200Y42519600D03*
X58814800Y42541400D03*
%TO.N,/interface/C0*%
X40044200Y44497200D03*
%TO.N,/interface/SDA*%
X55893800Y44344800D03*
X69528500Y43628500D03*
X71120006Y29718000D03*
%TO.N,Net-(U2--)*%
X26353600Y20527000D03*
%TO.N,/analogue_backend/Set*%
X8700600Y18970200D03*
X10935798Y45741800D03*
%TO.N,/analogue_backend/SDO*%
X16600000Y25650400D03*
X20687939Y26156939D03*
%TO.N,+5VD*%
X12584994Y17269571D03*
X14732000Y29235400D03*
X10505400Y18563800D03*
X14196386Y22957709D03*
X15431600Y41550800D03*
X20765386Y46859186D03*
%TO.N,+3.3V*%
X40719797Y47969882D03*
X15798800Y32461200D03*
X34748309Y44815698D03*
X17206106Y48886960D03*
%TD*%
D16*
%TO.N,GND*%
X26339552Y24038848D02*
X26339552Y24419848D01*
X26582200Y23796200D02*
X26339552Y24038848D01*
D17*
%TO.N,GNDA*%
X37693600Y20243800D02*
X38887400Y19050000D01*
X50165000Y26314400D02*
X50165000Y30505400D01*
X24931200Y23669200D02*
X24931200Y26920398D01*
X24931200Y23669200D02*
X24931200Y23110400D01*
X51418300Y25823100D02*
X50952400Y26289000D01*
X37806600Y25320200D02*
X37806600Y20356800D01*
X35382200Y20243800D02*
X37693600Y20243800D01*
X59232800Y32410400D02*
X55702200Y32410400D01*
X26379000Y28368198D02*
X26353600Y28342798D01*
X49022000Y26289000D02*
X47675800Y24942800D01*
X26379000Y35150000D02*
X26379000Y28368198D01*
X24931200Y26920398D02*
X26353600Y28342798D01*
X37806600Y20356800D02*
X37693600Y20243800D01*
X24931200Y23110400D02*
X25439200Y22602400D01*
X54229000Y23012400D02*
X51418300Y25823100D01*
D18*
X55702200Y32410400D02*
X55651399Y32359599D01*
D17*
X25820200Y35708800D02*
X26379000Y35150000D01*
X50952400Y26289000D02*
X49022000Y26289000D01*
D18*
%TO.N,Net-(U6--)*%
X25693200Y16506400D02*
X26252000Y17065200D01*
X26252000Y17065200D02*
X26252000Y17827000D01*
D17*
%TO.N,/PIN_detector/REF*%
X33096200Y25654000D02*
X34515000Y27072800D01*
X44905860Y27877115D02*
X44350700Y27321955D01*
X44350700Y27321955D02*
X44350700Y22021800D01*
X34515000Y27072800D02*
X38756600Y27072800D01*
D19*
%TO.N,VDD*%
X52642600Y42531200D02*
X52654200Y42519600D01*
X52642600Y50102600D02*
X52642600Y42531200D01*
X53340000Y50800000D02*
X52642600Y50102600D01*
X58793000Y42519600D02*
X58814800Y42541400D01*
X52654200Y42519600D02*
X58793000Y42519600D01*
D20*
%TO.N,/interface/C0*%
X42711200Y44497200D02*
X40044200Y44497200D01*
X44413000Y46199000D02*
X42711200Y44497200D01*
X44413000Y52033000D02*
X44413000Y46199000D01*
X45720000Y53340000D02*
X44413000Y52033000D01*
D16*
%TO.N,/interface/SDA*%
X55880000Y44358600D02*
X55893800Y44344800D01*
D20*
X55885000Y50800000D02*
X55885000Y44353600D01*
X69528500Y43628500D02*
X71120006Y42036994D01*
X71120006Y38100000D02*
X71120006Y29718000D01*
X55893800Y44344800D02*
X68812200Y44344800D01*
X55880000Y50800000D02*
X55880000Y44358600D01*
X68812200Y44344800D02*
X69528500Y43628500D01*
X55885000Y44353600D02*
X55893800Y44344800D01*
X71120006Y42036994D02*
X71120006Y38100000D01*
D18*
%TO.N,Net-(U2--)*%
X26092200Y20265600D02*
X26353600Y20527000D01*
X25439200Y20265600D02*
X26092200Y20265600D01*
D20*
%TO.N,/analogue_backend/Set*%
X8751400Y19021000D02*
X8700600Y18970200D01*
X8751400Y43557402D02*
X8751400Y19021000D01*
X10935798Y45741800D02*
X8751400Y43557402D01*
D16*
%TO.N,/analogue_backend/SDO*%
X20687939Y26156939D02*
X20027539Y26156939D01*
X20027539Y26156939D02*
X19521000Y25650400D01*
X19521000Y25650400D02*
X16600000Y25650400D01*
D20*
%TO.N,+5VD*%
X12560229Y17269571D02*
X11266000Y18563800D01*
X11266000Y18563800D02*
X10505400Y18563800D01*
D16*
X12584994Y17269571D02*
X12560229Y17269571D01*
D20*
X14224000Y21521800D02*
X11266000Y18563800D01*
X20739986Y46859186D02*
X20765386Y46859186D01*
X14732000Y23493323D02*
X14732000Y29235400D01*
X15431600Y41550800D02*
X20739986Y46859186D01*
X14732000Y40851200D02*
X15431600Y41550800D01*
X14196386Y22957709D02*
X14732000Y23493323D01*
X14732000Y29235400D02*
X14732000Y40851200D01*
X14196386Y22957709D02*
X14196386Y22743948D01*
X14224000Y22716334D02*
X14224000Y21521800D01*
X14196386Y22743948D02*
X14224000Y22716334D01*
%TO.N,+3.3V*%
X22086400Y47697600D02*
X22086400Y47342000D01*
X22086400Y47342000D02*
X22086400Y46757800D01*
X37594098Y44815698D02*
X40719797Y47941397D01*
X40719797Y47941397D02*
X40719797Y47969882D01*
X34748309Y44815698D02*
X23991400Y44815698D01*
X20897040Y48886960D02*
X22086400Y47697600D01*
X22086400Y46859400D02*
X22086400Y46720698D01*
X17206106Y48886960D02*
X20897040Y48886960D01*
X15798800Y40470200D02*
X15798800Y32461200D01*
X22086400Y46859400D02*
X22086400Y47342000D01*
X22086400Y46757800D02*
X15798800Y40470200D01*
X22086400Y46720698D02*
X23991400Y44815698D01*
X22086400Y46681600D02*
X22086400Y46859400D01*
X34748309Y44815698D02*
X37594098Y44815698D01*
%TD*%
%TA.AperFunction,Conductor*%
%TO.N,GND*%
G36*
X60487936Y55105498D02*
G01*
X60534429Y55051842D01*
X60545815Y54999500D01*
X60545815Y54974849D01*
X60545815Y52755695D01*
X67336120Y52755695D01*
X67336120Y54999500D01*
X67356122Y55067621D01*
X67409778Y55114114D01*
X67462120Y55125500D01*
X75319500Y55125500D01*
X75387621Y55105498D01*
X75434114Y55051842D01*
X75445500Y54999500D01*
X75445500Y5960501D01*
X75425498Y5892380D01*
X75371842Y5845887D01*
X75319500Y5834501D01*
X5960500Y5834501D01*
X5892379Y5854503D01*
X5845886Y5908159D01*
X5834500Y5960501D01*
X5834500Y18970200D01*
X7895035Y18970200D01*
X7915232Y18790945D01*
X7946888Y18700478D01*
X7974811Y18620678D01*
X7974812Y18620675D01*
X8070782Y18467940D01*
X8070783Y18467938D01*
X8198337Y18340384D01*
X8198339Y18340383D01*
X8351074Y18244413D01*
X8351075Y18244413D01*
X8351078Y18244411D01*
X8521345Y18184832D01*
X8700600Y18164635D01*
X8879855Y18184832D01*
X9050122Y18244411D01*
X9202862Y18340384D01*
X9330416Y18467938D01*
X9390650Y18563800D01*
X9699835Y18563800D01*
X9720032Y18384545D01*
X9741144Y18324211D01*
X9779611Y18214278D01*
X9779612Y18214275D01*
X9875582Y18061540D01*
X9875583Y18061538D01*
X10003137Y17933984D01*
X10003139Y17933983D01*
X10155874Y17838013D01*
X10155875Y17838013D01*
X10155878Y17838011D01*
X10326145Y17778432D01*
X10505400Y17758235D01*
X10684655Y17778432D01*
X10854922Y17838011D01*
X10922559Y17880510D01*
X10924770Y17881899D01*
X10993091Y17901205D01*
X11061004Y17880510D01*
X11080901Y17864307D01*
X11761431Y17183777D01*
X11795457Y17121465D01*
X11797543Y17108796D01*
X11799625Y17090319D01*
X11799626Y17090314D01*
X11859204Y16920051D01*
X11859206Y16920046D01*
X11955176Y16767311D01*
X11955177Y16767309D01*
X12082731Y16639755D01*
X12082733Y16639754D01*
X12235468Y16543784D01*
X12235469Y16543784D01*
X12235472Y16543782D01*
X12405739Y16484203D01*
X12584994Y16464006D01*
X12764249Y16484203D01*
X12827684Y16506400D01*
X24787740Y16506400D01*
X24807525Y16318144D01*
X24866018Y16138122D01*
X24866022Y16138114D01*
X24960665Y15974186D01*
X24960666Y15974184D01*
X25087326Y15833514D01*
X25240467Y15722251D01*
X25240467Y15722250D01*
X25287812Y15701171D01*
X25413397Y15645256D01*
X25598554Y15605900D01*
X25787846Y15605900D01*
X25973003Y15645256D01*
X26145930Y15722249D01*
X26145930Y15722250D01*
X26145932Y15722250D01*
X26145932Y15722251D01*
X26299071Y15833512D01*
X26425733Y15974184D01*
X26520379Y16138116D01*
X26578874Y16318144D01*
X26598660Y16506400D01*
X26598660Y16506402D01*
X26598660Y16510436D01*
X26599320Y16512686D01*
X26599350Y16512967D01*
X26599401Y16512962D01*
X26618662Y16578557D01*
X26635559Y16599525D01*
X26645867Y16609834D01*
X26652047Y16615255D01*
X26680282Y16636918D01*
X26776536Y16762359D01*
X26837044Y16908438D01*
X26838573Y16920046D01*
X26838574Y16920051D01*
X26857683Y17065200D01*
X26857683Y17065201D01*
X26853040Y17100470D01*
X26852500Y17108702D01*
X26852500Y17243888D01*
X26872502Y17312009D01*
X26879996Y17322457D01*
X26881811Y17324734D01*
X26881816Y17324738D01*
X26881819Y17324744D01*
X26881823Y17324748D01*
X26977787Y17477475D01*
X26977786Y17477475D01*
X26977789Y17477478D01*
X27037368Y17647745D01*
X27057565Y17827000D01*
X27037368Y18006255D01*
X26977789Y18176522D01*
X26977787Y18176525D01*
X26977787Y18176526D01*
X26881817Y18329261D01*
X26881816Y18329263D01*
X26754262Y18456817D01*
X26754260Y18456818D01*
X26601525Y18552788D01*
X26601522Y18552789D01*
X26570054Y18563800D01*
X26431255Y18612368D01*
X26252000Y18632565D01*
X26072745Y18612368D01*
X26072742Y18612368D01*
X26072742Y18612367D01*
X25902477Y18552789D01*
X25902474Y18552788D01*
X25749739Y18456818D01*
X25749737Y18456817D01*
X25622183Y18329263D01*
X25622182Y18329261D01*
X25526212Y18176526D01*
X25526211Y18176523D01*
X25499233Y18099424D01*
X25466632Y18006255D01*
X25446435Y17827000D01*
X25466632Y17647745D01*
X25476658Y17619093D01*
X25506931Y17532577D01*
X25510551Y17461673D01*
X25475261Y17400068D01*
X25419397Y17370468D01*
X25419683Y17369587D01*
X25414648Y17367951D01*
X25414209Y17367718D01*
X25413406Y17367548D01*
X25413403Y17367547D01*
X25240467Y17290551D01*
X25240467Y17290550D01*
X25087326Y17179287D01*
X24960666Y17038617D01*
X24960665Y17038615D01*
X24866022Y16874687D01*
X24866018Y16874679D01*
X24807525Y16694657D01*
X24787740Y16506400D01*
X12827684Y16506400D01*
X12934516Y16543782D01*
X13087256Y16639755D01*
X13214810Y16767309D01*
X13310783Y16920049D01*
X13370362Y17090316D01*
X13390559Y17269571D01*
X13370362Y17448826D01*
X13310783Y17619093D01*
X13310781Y17619096D01*
X13310781Y17619097D01*
X13214811Y17771832D01*
X13214810Y17771834D01*
X13087256Y17899388D01*
X13087254Y17899389D01*
X12934519Y17995359D01*
X12934516Y17995360D01*
X12764254Y18054938D01*
X12764240Y18054941D01*
X12689952Y18063312D01*
X12624500Y18090816D01*
X12614967Y18099424D01*
X12239685Y18474706D01*
X12205659Y18537018D01*
X12210724Y18607833D01*
X12239685Y18652896D01*
X13408144Y19821355D01*
X13852389Y20265600D01*
X24533740Y20265600D01*
X24553525Y20077344D01*
X24612018Y19897322D01*
X24612022Y19897314D01*
X24706665Y19733386D01*
X24706666Y19733384D01*
X24833326Y19592714D01*
X24986467Y19481451D01*
X24986467Y19481450D01*
X25006657Y19472461D01*
X25159397Y19404456D01*
X25344554Y19365100D01*
X25533846Y19365100D01*
X25719003Y19404456D01*
X25891930Y19481449D01*
X25891930Y19481450D01*
X25891932Y19481450D01*
X25891932Y19481451D01*
X26045071Y19592712D01*
X26076279Y19627374D01*
X26136724Y19664613D01*
X26153464Y19667984D01*
X26248962Y19680556D01*
X26328995Y19713707D01*
X26363101Y19722506D01*
X26532855Y19741632D01*
X26703122Y19801211D01*
X26855862Y19897184D01*
X26983416Y20024738D01*
X27079389Y20177478D01*
X27102596Y20243800D01*
X34576635Y20243800D01*
X34596832Y20064545D01*
X34656411Y19894278D01*
X34656412Y19894275D01*
X34752382Y19741540D01*
X34752383Y19741538D01*
X34879937Y19613984D01*
X34879939Y19613983D01*
X35032674Y19518013D01*
X35032675Y19518013D01*
X35032678Y19518011D01*
X35202945Y19458432D01*
X35382200Y19438235D01*
X35561455Y19458432D01*
X35731722Y19518011D01*
X35741231Y19523987D01*
X35808269Y19543300D01*
X37351253Y19543300D01*
X37419374Y19523298D01*
X37440348Y19506395D01*
X38095709Y18851034D01*
X38125543Y18803554D01*
X38161611Y18700478D01*
X38161612Y18700475D01*
X38257582Y18547740D01*
X38257583Y18547738D01*
X38385137Y18420184D01*
X38385139Y18420183D01*
X38537874Y18324213D01*
X38537875Y18324213D01*
X38537878Y18324211D01*
X38708145Y18264632D01*
X38887400Y18244435D01*
X39066655Y18264632D01*
X39236922Y18324211D01*
X39389662Y18420184D01*
X39517216Y18547738D01*
X39613189Y18700478D01*
X39672768Y18870745D01*
X39692965Y19050000D01*
X39672768Y19229255D01*
X39613189Y19399522D01*
X39613187Y19399525D01*
X39613187Y19399526D01*
X39517217Y19552261D01*
X39517216Y19552263D01*
X39389662Y19679817D01*
X39389660Y19679818D01*
X39236925Y19775788D01*
X39236922Y19775789D01*
X39133846Y19811857D01*
X39086366Y19841691D01*
X38544005Y20384052D01*
X38509979Y20446364D01*
X38507100Y20473147D01*
X38507100Y22021800D01*
X43545135Y22021800D01*
X43565332Y21842545D01*
X43573833Y21818251D01*
X43624911Y21672278D01*
X43624912Y21672275D01*
X43720882Y21519540D01*
X43720883Y21519538D01*
X43848437Y21391984D01*
X43848439Y21391983D01*
X44001174Y21296013D01*
X44001175Y21296013D01*
X44001178Y21296011D01*
X44171445Y21236432D01*
X44350700Y21216235D01*
X44529955Y21236432D01*
X44700222Y21296011D01*
X44852962Y21391984D01*
X44980516Y21519538D01*
X45076489Y21672278D01*
X45136068Y21842545D01*
X45156265Y22021800D01*
X45136068Y22201055D01*
X45076489Y22371322D01*
X45070510Y22380838D01*
X45051200Y22447870D01*
X45051200Y24942800D01*
X46870235Y24942800D01*
X46890432Y24763545D01*
X46936129Y24632951D01*
X46950011Y24593278D01*
X46950012Y24593275D01*
X47045982Y24440540D01*
X47045983Y24440538D01*
X47173537Y24312984D01*
X47173539Y24312983D01*
X47326274Y24217013D01*
X47326275Y24217013D01*
X47326278Y24217011D01*
X47496545Y24157432D01*
X47675800Y24137235D01*
X47855055Y24157432D01*
X48025322Y24217011D01*
X48178062Y24312984D01*
X48305616Y24440538D01*
X48401589Y24593278D01*
X48437656Y24696356D01*
X48467488Y24743833D01*
X49275253Y25551596D01*
X49337565Y25585621D01*
X49364348Y25588500D01*
X50562897Y25588500D01*
X50631018Y25568498D01*
X50677511Y25514842D01*
X50681819Y25504134D01*
X50692511Y25473578D01*
X50692512Y25473576D01*
X50692513Y25473574D01*
X50788482Y25320840D01*
X50788483Y25320838D01*
X50916037Y25193284D01*
X50916039Y25193283D01*
X51068774Y25097313D01*
X51068775Y25097313D01*
X51068778Y25097311D01*
X51166849Y25062995D01*
X51171853Y25061244D01*
X51219333Y25031410D01*
X53437309Y22813434D01*
X53467143Y22765954D01*
X53503211Y22662878D01*
X53503212Y22662875D01*
X53599182Y22510140D01*
X53599183Y22510138D01*
X53726737Y22382584D01*
X53726739Y22382583D01*
X53879474Y22286613D01*
X53879475Y22286613D01*
X53879478Y22286611D01*
X54049745Y22227032D01*
X54229000Y22206835D01*
X54408255Y22227032D01*
X54578522Y22286611D01*
X54731262Y22382584D01*
X54858816Y22510138D01*
X54954789Y22662878D01*
X55014368Y22833145D01*
X55034565Y23012400D01*
X55014368Y23191655D01*
X54967625Y23325238D01*
X58039153Y23325238D01*
X58049134Y23090296D01*
X58049136Y23090283D01*
X58098680Y22860401D01*
X58178052Y22662878D01*
X58186363Y22642195D01*
X58309662Y22441944D01*
X58465030Y22265411D01*
X58647998Y22117676D01*
X58853301Y22002986D01*
X58911378Y21982466D01*
X59075026Y21924645D01*
X59075030Y21924645D01*
X59075034Y21924643D01*
X59306817Y21884900D01*
X59306820Y21884900D01*
X59483089Y21884900D01*
X59570903Y21892374D01*
X59658719Y21899848D01*
X59820677Y21942019D01*
X59886290Y21959103D01*
X59886290Y21959104D01*
X59886297Y21959105D01*
X60100587Y22055970D01*
X60295424Y22187657D01*
X60465203Y22350378D01*
X60605041Y22539451D01*
X60710913Y22749436D01*
X60779775Y22974294D01*
X60779775Y22974299D01*
X60779777Y22974305D01*
X60809646Y23207555D01*
X60809646Y23207563D01*
X60799665Y23442505D01*
X60799665Y23442510D01*
X60750120Y23672397D01*
X60662437Y23890605D01*
X60539138Y24090856D01*
X60398628Y24250507D01*
X72904791Y24250507D01*
X72904791Y17775805D01*
X75020938Y17775805D01*
X75020938Y24250507D01*
X72904791Y24250507D01*
X60398628Y24250507D01*
X60383770Y24267389D01*
X60200802Y24415124D01*
X60200800Y24415125D01*
X60200799Y24415126D01*
X59995503Y24529812D01*
X59995500Y24529814D01*
X59773773Y24608156D01*
X59708819Y24619294D01*
X59541983Y24647900D01*
X59365712Y24647900D01*
X59365711Y24647900D01*
X59190081Y24632953D01*
X59190074Y24632951D01*
X58962509Y24573698D01*
X58748218Y24476833D01*
X58748212Y24476830D01*
X58553377Y24345144D01*
X58553369Y24345138D01*
X58383602Y24182429D01*
X58243757Y23993347D01*
X58137888Y23783366D01*
X58137883Y23783354D01*
X58069024Y23558505D01*
X58069022Y23558496D01*
X58039153Y23325246D01*
X58039153Y23325238D01*
X54967625Y23325238D01*
X54954789Y23361922D01*
X54954787Y23361925D01*
X54954787Y23361926D01*
X54858817Y23514661D01*
X54858816Y23514663D01*
X54731262Y23642217D01*
X54731260Y23642218D01*
X54578525Y23738188D01*
X54578522Y23738189D01*
X54475446Y23774257D01*
X54427966Y23804091D01*
X52209990Y26022067D01*
X52180156Y26069547D01*
X52160611Y26125404D01*
X52144089Y26172622D01*
X52144087Y26172625D01*
X52144087Y26172626D01*
X52048117Y26325361D01*
X52048116Y26325363D01*
X51920562Y26452917D01*
X51920560Y26452918D01*
X51767825Y26548888D01*
X51767822Y26548889D01*
X51664746Y26584957D01*
X51617266Y26614791D01*
X51547132Y26684925D01*
X51464029Y26768028D01*
X51461445Y26770773D01*
X51420329Y26817183D01*
X51420326Y26817186D01*
X51369314Y26852397D01*
X51366248Y26854653D01*
X51317459Y26892877D01*
X51317457Y26892878D01*
X51315975Y26893545D01*
X51308381Y26896963D01*
X51288520Y26908165D01*
X51280330Y26913818D01*
X51280328Y26913819D01*
X51222383Y26935795D01*
X51218869Y26937251D01*
X51162333Y26962695D01*
X51162329Y26962696D01*
X51152530Y26964492D01*
X51130576Y26970612D01*
X51121268Y26974142D01*
X51059748Y26981611D01*
X51055986Y26982184D01*
X50995007Y26993359D01*
X50987400Y26993818D01*
X50987547Y26996255D01*
X50929903Y27009459D01*
X50880256Y27060209D01*
X50865500Y27119376D01*
X50865500Y28325238D01*
X58039153Y28325238D01*
X58049134Y28090296D01*
X58049136Y28090283D01*
X58098680Y27860401D01*
X58183273Y27649885D01*
X58186363Y27642195D01*
X58309662Y27441944D01*
X58390250Y27350378D01*
X58464563Y27265941D01*
X58465030Y27265411D01*
X58647998Y27117676D01*
X58853301Y27002986D01*
X58911378Y26982466D01*
X59075026Y26924645D01*
X59075030Y26924645D01*
X59075034Y26924643D01*
X59306817Y26884900D01*
X59306820Y26884900D01*
X59483089Y26884900D01*
X59576837Y26892879D01*
X59658719Y26899848D01*
X59821784Y26942307D01*
X59886290Y26959103D01*
X59886290Y26959104D01*
X59886297Y26959105D01*
X60100587Y27055970D01*
X60295424Y27187657D01*
X60397467Y27285458D01*
X60465197Y27350372D01*
X60465197Y27350373D01*
X60465203Y27350378D01*
X60605041Y27539451D01*
X60710913Y27749436D01*
X60779775Y27974294D01*
X60779775Y27974299D01*
X60779777Y27974305D01*
X60809646Y28207555D01*
X60809646Y28207563D01*
X60799665Y28442505D01*
X60799665Y28442510D01*
X60750120Y28672397D01*
X60662437Y28890605D01*
X60539138Y29090856D01*
X60383770Y29267389D01*
X60200802Y29415124D01*
X60200800Y29415125D01*
X60200799Y29415126D01*
X59995503Y29529812D01*
X59995500Y29529814D01*
X59773773Y29608156D01*
X59708819Y29619294D01*
X59541983Y29647900D01*
X59365712Y29647900D01*
X59365711Y29647900D01*
X59190081Y29632953D01*
X59190074Y29632951D01*
X58962509Y29573698D01*
X58748218Y29476833D01*
X58748212Y29476830D01*
X58553377Y29345144D01*
X58553369Y29345138D01*
X58383602Y29182429D01*
X58243757Y28993347D01*
X58137888Y28783366D01*
X58137883Y28783354D01*
X58069024Y28558505D01*
X58069022Y28558496D01*
X58039153Y28325246D01*
X58039153Y28325238D01*
X50865500Y28325238D01*
X50865500Y30079331D01*
X50884814Y30146369D01*
X50890789Y30155878D01*
X50950368Y30326145D01*
X50970565Y30505400D01*
X50950368Y30684655D01*
X50890789Y30854922D01*
X50890787Y30854925D01*
X50890787Y30854926D01*
X50794817Y31007661D01*
X50794816Y31007663D01*
X50667262Y31135217D01*
X50667260Y31135218D01*
X50514525Y31231188D01*
X50514522Y31231189D01*
X50344255Y31290768D01*
X50165000Y31310965D01*
X49985745Y31290768D01*
X49985742Y31290768D01*
X49985742Y31290767D01*
X49815477Y31231189D01*
X49815474Y31231188D01*
X49662739Y31135218D01*
X49662737Y31135217D01*
X49535183Y31007663D01*
X49535182Y31007661D01*
X49439212Y30854926D01*
X49439211Y30854923D01*
X49439211Y30854922D01*
X49379632Y30684655D01*
X49359435Y30505400D01*
X49379632Y30326145D01*
X49379633Y30326143D01*
X49439211Y30155878D01*
X49439210Y30155878D01*
X49445186Y30146369D01*
X49464500Y30079331D01*
X49464500Y27115500D01*
X49444498Y27047379D01*
X49390842Y27000886D01*
X49338500Y26989500D01*
X49045061Y26989500D01*
X49041259Y26989615D01*
X48979394Y26993357D01*
X48979393Y26993357D01*
X48979392Y26993357D01*
X48918430Y26982186D01*
X48914671Y26981614D01*
X48910370Y26981092D01*
X48853134Y26974142D01*
X48853132Y26974141D01*
X48853130Y26974141D01*
X48853128Y26974140D01*
X48843817Y26970609D01*
X48821863Y26964490D01*
X48812072Y26962696D01*
X48812068Y26962695D01*
X48755549Y26937258D01*
X48752035Y26935802D01*
X48694071Y26913819D01*
X48694069Y26913818D01*
X48685872Y26908160D01*
X48666018Y26896962D01*
X48656946Y26892879D01*
X48656944Y26892878D01*
X48608152Y26854653D01*
X48605088Y26852399D01*
X48554069Y26817182D01*
X48512961Y26770782D01*
X48510353Y26768011D01*
X47476832Y25734491D01*
X47429353Y25704657D01*
X47326275Y25668588D01*
X47326274Y25668588D01*
X47173539Y25572618D01*
X47173537Y25572617D01*
X47045983Y25445063D01*
X47045982Y25445061D01*
X46950012Y25292326D01*
X46950011Y25292323D01*
X46899559Y25148138D01*
X46890432Y25122055D01*
X46870235Y24942800D01*
X45051200Y24942800D01*
X45051200Y26979608D01*
X45071202Y27047729D01*
X45088099Y27068699D01*
X45104826Y27085426D01*
X45152304Y27115259D01*
X45255382Y27151326D01*
X45408122Y27247299D01*
X45535676Y27374853D01*
X45631649Y27527593D01*
X45691228Y27697860D01*
X45711425Y27877115D01*
X45691228Y28056370D01*
X45631649Y28226637D01*
X45631647Y28226640D01*
X45631647Y28226641D01*
X45535677Y28379376D01*
X45535676Y28379378D01*
X45408122Y28506932D01*
X45408120Y28506933D01*
X45255385Y28602903D01*
X45255382Y28602904D01*
X45085115Y28662483D01*
X44905860Y28682680D01*
X44726605Y28662483D01*
X44726602Y28662483D01*
X44726602Y28662482D01*
X44556337Y28602904D01*
X44556334Y28602903D01*
X44403599Y28506933D01*
X44403597Y28506932D01*
X44276043Y28379378D01*
X44276042Y28379376D01*
X44180072Y28226641D01*
X44180072Y28226640D01*
X44144003Y28123562D01*
X44114169Y28076083D01*
X43871689Y27833602D01*
X43868918Y27830994D01*
X43822516Y27789884D01*
X43822515Y27789884D01*
X43787298Y27738864D01*
X43785044Y27735801D01*
X43746824Y27687015D01*
X43746819Y27687008D01*
X43742738Y27677939D01*
X43731540Y27658083D01*
X43725882Y27649886D01*
X43703901Y27591929D01*
X43702445Y27588414D01*
X43677004Y27531887D01*
X43677004Y27531886D01*
X43675208Y27522086D01*
X43669088Y27500134D01*
X43665560Y27490832D01*
X43665559Y27490825D01*
X43658089Y27429303D01*
X43657516Y27425541D01*
X43646342Y27364563D01*
X43650085Y27302690D01*
X43650200Y27298885D01*
X43650200Y22447870D01*
X43630889Y22380838D01*
X43624911Y22371322D01*
X43587851Y22265411D01*
X43567355Y22206835D01*
X43565332Y22201055D01*
X43545135Y22021800D01*
X38507100Y22021800D01*
X38507100Y24894131D01*
X38526414Y24961169D01*
X38532389Y24970678D01*
X38591968Y25140945D01*
X38612165Y25320200D01*
X38591968Y25499455D01*
X38532389Y25669722D01*
X38532387Y25669725D01*
X38532387Y25669726D01*
X38436417Y25822461D01*
X38436416Y25822463D01*
X38308862Y25950017D01*
X38308860Y25950018D01*
X38156125Y26045988D01*
X38156122Y26045989D01*
X38088797Y26069547D01*
X37985855Y26105568D01*
X37848069Y26121093D01*
X37806796Y26138436D01*
X37786519Y26125404D01*
X37765133Y26121093D01*
X37627345Y26105568D01*
X37627342Y26105568D01*
X37627342Y26105567D01*
X37457077Y26045989D01*
X37457074Y26045988D01*
X37304339Y25950018D01*
X37304337Y25950017D01*
X37176783Y25822463D01*
X37176782Y25822461D01*
X37080812Y25669726D01*
X37080811Y25669723D01*
X37074050Y25650400D01*
X37021232Y25499455D01*
X37001035Y25320200D01*
X37021232Y25140945D01*
X37063349Y25020582D01*
X37080811Y24970678D01*
X37080810Y24970678D01*
X37086786Y24961169D01*
X37106100Y24894131D01*
X37106100Y21070300D01*
X37086098Y21002179D01*
X37032442Y20955686D01*
X36980100Y20944300D01*
X35808269Y20944300D01*
X35741231Y20963614D01*
X35731722Y20969589D01*
X35638585Y21002179D01*
X35561455Y21029168D01*
X35382200Y21049365D01*
X35202945Y21029168D01*
X35202942Y21029168D01*
X35202942Y21029167D01*
X35032677Y20969589D01*
X35032674Y20969588D01*
X34879939Y20873618D01*
X34879937Y20873617D01*
X34752383Y20746063D01*
X34752382Y20746061D01*
X34656412Y20593326D01*
X34656411Y20593323D01*
X34656411Y20593322D01*
X34596832Y20423055D01*
X34576635Y20243800D01*
X27102596Y20243800D01*
X27138968Y20347745D01*
X27159165Y20527000D01*
X27138968Y20706255D01*
X27079389Y20876522D01*
X27079387Y20876525D01*
X27079387Y20876526D01*
X26983417Y21029261D01*
X26983416Y21029263D01*
X26855862Y21156817D01*
X26855860Y21156818D01*
X26703125Y21252788D01*
X26703122Y21252789D01*
X26532855Y21312368D01*
X26353600Y21332565D01*
X26174345Y21312368D01*
X26174342Y21312368D01*
X26174342Y21312367D01*
X26004077Y21252789D01*
X26004075Y21252788D01*
X25851340Y21156818D01*
X25851333Y21156813D01*
X25850777Y21156256D01*
X25850329Y21156012D01*
X25845811Y21152408D01*
X25845179Y21153201D01*
X25788462Y21122236D01*
X25725465Y21125390D01*
X25725462Y21125371D01*
X25725347Y21125396D01*
X25722757Y21125525D01*
X25719009Y21126743D01*
X25533846Y21166100D01*
X25344554Y21166100D01*
X25159399Y21126745D01*
X24986467Y21049751D01*
X24986467Y21049750D01*
X24833326Y20938487D01*
X24706666Y20797817D01*
X24706665Y20797815D01*
X24612022Y20633887D01*
X24612018Y20633879D01*
X24553525Y20453857D01*
X24533740Y20265600D01*
X13852389Y20265600D01*
X14607631Y21020843D01*
X14619968Y21030724D01*
X14619770Y21030963D01*
X14625870Y21036011D01*
X14625877Y21036014D01*
X14673241Y21086452D01*
X14694120Y21107330D01*
X14698347Y21112781D01*
X14702182Y21117272D01*
X14734062Y21151218D01*
X14743637Y21168638D01*
X14754493Y21185161D01*
X14766674Y21200864D01*
X14785170Y21243611D01*
X14787760Y21248899D01*
X14810197Y21289708D01*
X14815139Y21308959D01*
X14821538Y21327650D01*
X14829438Y21345905D01*
X14836721Y21391899D01*
X14837923Y21397695D01*
X14849499Y21442775D01*
X14849500Y21442782D01*
X14849500Y21462656D01*
X14851051Y21482366D01*
X14851321Y21484073D01*
X14854160Y21501996D01*
X14852502Y21519540D01*
X14849780Y21548337D01*
X14849500Y21554269D01*
X14849500Y22456227D01*
X14868812Y22523261D01*
X14922175Y22608187D01*
X14981754Y22778454D01*
X14982207Y22782470D01*
X14986980Y22824839D01*
X15014483Y22890292D01*
X15023083Y22899818D01*
X15115631Y22992366D01*
X15127968Y23002247D01*
X15127770Y23002486D01*
X15133870Y23007534D01*
X15133877Y23007537D01*
X15181241Y23057975D01*
X15202120Y23078853D01*
X15206347Y23084304D01*
X15210182Y23088795D01*
X15242062Y23122741D01*
X15251637Y23140161D01*
X15262493Y23156684D01*
X15274674Y23172387D01*
X15293170Y23215134D01*
X15295760Y23220422D01*
X15318197Y23261231D01*
X15323139Y23280482D01*
X15329538Y23299173D01*
X15337438Y23317428D01*
X15344721Y23363422D01*
X15345923Y23369218D01*
X15357499Y23414298D01*
X15357500Y23414305D01*
X15357500Y23434179D01*
X15359051Y23453889D01*
X15360580Y23463544D01*
X15362160Y23473519D01*
X15362087Y23474291D01*
X15357780Y23519860D01*
X15357500Y23525792D01*
X15357500Y23669200D01*
X24125635Y23669200D01*
X24145832Y23489945D01*
X24188076Y23369218D01*
X24205411Y23319678D01*
X24205410Y23319678D01*
X24211386Y23310169D01*
X24230700Y23243131D01*
X24230700Y23133472D01*
X24230585Y23129667D01*
X24226842Y23067795D01*
X24238016Y23006814D01*
X24238589Y23003052D01*
X24246058Y22941532D01*
X24249588Y22932224D01*
X24255708Y22910270D01*
X24257504Y22900471D01*
X24257505Y22900467D01*
X24282949Y22843931D01*
X24284405Y22840417D01*
X24294638Y22813434D01*
X24306382Y22782470D01*
X24312035Y22774280D01*
X24323237Y22754419D01*
X24327322Y22745343D01*
X24327323Y22745341D01*
X24365547Y22696552D01*
X24367803Y22693486D01*
X24403014Y22642474D01*
X24403018Y22642470D01*
X24411131Y22635283D01*
X24449427Y22601355D01*
X24452172Y22598771D01*
X24511489Y22539454D01*
X24512194Y22538749D01*
X24546220Y22476437D01*
X24548408Y22462827D01*
X24553525Y22414146D01*
X24553526Y22414140D01*
X24612018Y22234122D01*
X24612022Y22234114D01*
X24706665Y22070186D01*
X24706666Y22070184D01*
X24833326Y21929514D01*
X24986467Y21818251D01*
X24986467Y21818250D01*
X25033812Y21797171D01*
X25159397Y21741256D01*
X25344554Y21701900D01*
X25533846Y21701900D01*
X25719003Y21741256D01*
X25891930Y21818249D01*
X25891930Y21818250D01*
X25891932Y21818250D01*
X25891932Y21818251D01*
X26045071Y21929512D01*
X26111228Y22002986D01*
X26171733Y22070184D01*
X26171734Y22070186D01*
X26199152Y22117676D01*
X26266379Y22234116D01*
X26324874Y22414144D01*
X26344660Y22602400D01*
X26324874Y22790656D01*
X26317473Y22813434D01*
X26266381Y22970679D01*
X26266377Y22970687D01*
X26264293Y22974296D01*
X26203933Y23078844D01*
X26171734Y23134615D01*
X26171733Y23134617D01*
X26045073Y23275287D01*
X25891932Y23386550D01*
X25891927Y23386553D01*
X25798139Y23428311D01*
X25744044Y23474291D01*
X25723395Y23542218D01*
X25724179Y23557503D01*
X25736765Y23669200D01*
X25716568Y23848455D01*
X25656989Y24018722D01*
X25651010Y24028238D01*
X25631700Y24095270D01*
X25631700Y25654000D01*
X32290635Y25654000D01*
X32310832Y25474745D01*
X32346934Y25371571D01*
X32370411Y25304478D01*
X32370412Y25304475D01*
X32466382Y25151740D01*
X32466383Y25151738D01*
X32593937Y25024184D01*
X32593939Y25024183D01*
X32746674Y24928213D01*
X32746675Y24928213D01*
X32746678Y24928211D01*
X32916945Y24868632D01*
X33096200Y24848435D01*
X33275455Y24868632D01*
X33445722Y24928211D01*
X33598462Y25024184D01*
X33726016Y25151738D01*
X33821989Y25304478D01*
X33858056Y25407556D01*
X33887888Y25455033D01*
X34768253Y26335396D01*
X34830565Y26369421D01*
X34857348Y26372300D01*
X37751021Y26372300D01*
X37809511Y26355126D01*
X37840440Y26370411D01*
X37862179Y26372300D01*
X38330531Y26372300D01*
X38397568Y26352987D01*
X38407078Y26347011D01*
X38577345Y26287432D01*
X38756600Y26267235D01*
X38935855Y26287432D01*
X39106122Y26347011D01*
X39258862Y26442984D01*
X39386416Y26570538D01*
X39482389Y26723278D01*
X39541968Y26893545D01*
X39562165Y27072800D01*
X39541968Y27252055D01*
X39482389Y27422322D01*
X39482387Y27422325D01*
X39482387Y27422326D01*
X39386417Y27575061D01*
X39386416Y27575063D01*
X39258862Y27702617D01*
X39258860Y27702618D01*
X39106125Y27798588D01*
X39106122Y27798589D01*
X38935855Y27858168D01*
X38756600Y27878365D01*
X38577345Y27858168D01*
X38577342Y27858168D01*
X38577342Y27858167D01*
X38407077Y27798589D01*
X38397569Y27792614D01*
X38330531Y27773300D01*
X34538061Y27773300D01*
X34534259Y27773415D01*
X34472394Y27777157D01*
X34472393Y27777157D01*
X34472392Y27777157D01*
X34411430Y27765986D01*
X34407671Y27765414D01*
X34403370Y27764892D01*
X34346134Y27757942D01*
X34346125Y27757940D01*
X34336814Y27754409D01*
X34314864Y27748290D01*
X34305070Y27746495D01*
X34305066Y27746494D01*
X34248544Y27721056D01*
X34245029Y27719600D01*
X34187072Y27697620D01*
X34187066Y27697617D01*
X34178866Y27691957D01*
X34159021Y27680765D01*
X34149946Y27676681D01*
X34149944Y27676679D01*
X34101154Y27638456D01*
X34098091Y27636202D01*
X34047071Y27600985D01*
X34047071Y27600984D01*
X34005961Y27554582D01*
X34003353Y27551811D01*
X32897232Y26445691D01*
X32849753Y26415857D01*
X32746675Y26379788D01*
X32746674Y26379788D01*
X32593939Y26283818D01*
X32593937Y26283817D01*
X32466383Y26156263D01*
X32466382Y26156261D01*
X32370412Y26003526D01*
X32370411Y26003523D01*
X32369151Y25999922D01*
X32310832Y25833255D01*
X32290635Y25654000D01*
X25631700Y25654000D01*
X25631700Y26578051D01*
X25651702Y26646172D01*
X25668600Y26667142D01*
X26552567Y27551110D01*
X26600044Y27580942D01*
X26703122Y27617009D01*
X26855862Y27712982D01*
X26983416Y27840536D01*
X27079389Y27993276D01*
X27138968Y28163543D01*
X27159165Y28342798D01*
X27138968Y28522053D01*
X27089830Y28662482D01*
X27086571Y28671796D01*
X27079500Y28713411D01*
X27079500Y32359599D01*
X54845834Y32359599D01*
X54866031Y32180344D01*
X54907834Y32060878D01*
X54925610Y32010077D01*
X54925611Y32010074D01*
X55021581Y31857339D01*
X55021582Y31857337D01*
X55149136Y31729783D01*
X55149138Y31729782D01*
X55301873Y31633812D01*
X55301874Y31633812D01*
X55301877Y31633810D01*
X55472144Y31574231D01*
X55651399Y31554034D01*
X55830654Y31574231D01*
X56000921Y31633810D01*
X56091281Y31690588D01*
X56158317Y31709900D01*
X58806731Y31709900D01*
X58873768Y31690587D01*
X58883278Y31684611D01*
X59053545Y31625032D01*
X59232800Y31604835D01*
X59412055Y31625032D01*
X59582322Y31684611D01*
X59735062Y31780584D01*
X59862616Y31908138D01*
X59958589Y32060878D01*
X60018168Y32231145D01*
X60038365Y32410400D01*
X60018168Y32589655D01*
X59958589Y32759922D01*
X59958587Y32759925D01*
X59958587Y32759926D01*
X59862617Y32912661D01*
X59862616Y32912663D01*
X59735062Y33040217D01*
X59735060Y33040218D01*
X59582325Y33136188D01*
X59582322Y33136189D01*
X59499516Y33165164D01*
X59412055Y33195768D01*
X59232800Y33215965D01*
X59053545Y33195768D01*
X59053542Y33195768D01*
X59053542Y33195767D01*
X58883277Y33136189D01*
X58873769Y33130214D01*
X58806731Y33110900D01*
X55949419Y33110900D01*
X55907804Y33117971D01*
X55830654Y33144967D01*
X55651399Y33165164D01*
X55472144Y33144967D01*
X55472141Y33144967D01*
X55472141Y33144966D01*
X55301876Y33085388D01*
X55301873Y33085387D01*
X55149138Y32989417D01*
X55149136Y32989416D01*
X55021582Y32861862D01*
X55021581Y32861860D01*
X54925611Y32709125D01*
X54925610Y32709122D01*
X54883808Y32589658D01*
X54866031Y32538854D01*
X54845834Y32359599D01*
X27079500Y32359599D01*
X27079500Y35126930D01*
X27079615Y35130735D01*
X27083358Y35192606D01*
X27072181Y35253596D01*
X27071610Y35257343D01*
X27064140Y35318872D01*
X27060610Y35328178D01*
X27054488Y35350146D01*
X27052695Y35359931D01*
X27027240Y35416488D01*
X27025805Y35419952D01*
X27003818Y35477930D01*
X26998162Y35486124D01*
X26986961Y35505984D01*
X26982878Y35515056D01*
X26963082Y35540324D01*
X26944653Y35563847D01*
X26942397Y35566913D01*
X26907184Y35617927D01*
X26907185Y35617927D01*
X26860789Y35659030D01*
X26858017Y35661639D01*
X26611889Y35907768D01*
X26582056Y35955248D01*
X26545989Y36058322D01*
X26545987Y36058325D01*
X26545987Y36058326D01*
X26450017Y36211061D01*
X26450016Y36211063D01*
X26322462Y36338617D01*
X26322460Y36338618D01*
X26169725Y36434588D01*
X26169722Y36434589D01*
X25999455Y36494168D01*
X25820200Y36514365D01*
X25640945Y36494168D01*
X25640942Y36494168D01*
X25640942Y36494167D01*
X25470677Y36434589D01*
X25470674Y36434588D01*
X25317939Y36338618D01*
X25317937Y36338617D01*
X25190383Y36211063D01*
X25190382Y36211061D01*
X25094412Y36058326D01*
X25094411Y36058323D01*
X25094411Y36058322D01*
X25034832Y35888055D01*
X25014635Y35708800D01*
X25034832Y35529545D01*
X25043075Y35505989D01*
X25094411Y35359278D01*
X25094412Y35359275D01*
X25190382Y35206540D01*
X25190383Y35206538D01*
X25317937Y35078984D01*
X25317939Y35078983D01*
X25470674Y34983013D01*
X25470675Y34983013D01*
X25470678Y34983011D01*
X25573752Y34946944D01*
X25621230Y34917113D01*
X25641593Y34896751D01*
X25675620Y34834439D01*
X25678500Y34807653D01*
X25678500Y28809291D01*
X25659187Y28742254D01*
X25627811Y28692321D01*
X25591743Y28589245D01*
X25561909Y28541766D01*
X24452189Y27432045D01*
X24449418Y27429437D01*
X24403016Y27388327D01*
X24403015Y27388327D01*
X24367798Y27337307D01*
X24365544Y27334244D01*
X24327324Y27285458D01*
X24327319Y27285451D01*
X24323238Y27276382D01*
X24312040Y27256526D01*
X24306382Y27248329D01*
X24284401Y27190372D01*
X24282945Y27186857D01*
X24257504Y27130330D01*
X24257504Y27130329D01*
X24255708Y27120529D01*
X24249588Y27098577D01*
X24246060Y27089275D01*
X24246059Y27089268D01*
X24238589Y27027746D01*
X24238016Y27023984D01*
X24227115Y26964492D01*
X24226842Y26963004D01*
X24229817Y26913819D01*
X24230585Y26901133D01*
X24230700Y26897328D01*
X24230700Y24095270D01*
X24211390Y24028238D01*
X24205410Y24018722D01*
X24160581Y23890606D01*
X24145832Y23848455D01*
X24125635Y23669200D01*
X15357500Y23669200D01*
X15357500Y25650400D01*
X15794435Y25650400D01*
X15814632Y25471145D01*
X15856541Y25351375D01*
X15874211Y25300878D01*
X15874212Y25300875D01*
X15970182Y25148140D01*
X15970183Y25148138D01*
X16097737Y25020584D01*
X16097739Y25020583D01*
X16250474Y24924613D01*
X16250475Y24924613D01*
X16250478Y24924611D01*
X16420745Y24865032D01*
X16600000Y24844835D01*
X16779255Y24865032D01*
X16949522Y24924611D01*
X17102262Y25020584D01*
X17144674Y25062997D01*
X17206983Y25097020D01*
X17233768Y25099900D01*
X19511603Y25099900D01*
X19577826Y25097638D01*
X19603730Y25103952D01*
X19620772Y25108104D01*
X19627116Y25109310D01*
X19632444Y25110043D01*
X19670920Y25115330D01*
X19687225Y25122414D01*
X19707590Y25129262D01*
X19724852Y25133467D01*
X19763402Y25155144D01*
X19769167Y25158006D01*
X19809720Y25175620D01*
X19823506Y25186837D01*
X19841272Y25198927D01*
X19856759Y25207634D01*
X19888031Y25238909D01*
X19892793Y25243207D01*
X19927108Y25271122D01*
X19937360Y25285648D01*
X19951197Y25302074D01*
X20108836Y25459713D01*
X20171146Y25493737D01*
X20241961Y25488672D01*
X20264961Y25477306D01*
X20338417Y25431150D01*
X20508684Y25371571D01*
X20687939Y25351374D01*
X20867194Y25371571D01*
X21037461Y25431150D01*
X21190201Y25527123D01*
X21317755Y25654677D01*
X21413728Y25807417D01*
X21473307Y25977684D01*
X21493504Y26156939D01*
X21473307Y26336194D01*
X21413728Y26506461D01*
X21413726Y26506464D01*
X21413726Y26506465D01*
X21317756Y26659200D01*
X21317755Y26659202D01*
X21190201Y26786756D01*
X21190199Y26786757D01*
X21037464Y26882727D01*
X21037461Y26882728D01*
X21008451Y26892879D01*
X20867194Y26942307D01*
X20687939Y26962504D01*
X20508684Y26942307D01*
X20508681Y26942307D01*
X20508681Y26942306D01*
X20338416Y26882728D01*
X20338413Y26882727D01*
X20185680Y26786758D01*
X20185677Y26786756D01*
X20185677Y26786755D01*
X20143264Y26744343D01*
X20080956Y26710319D01*
X20054171Y26707439D01*
X20036936Y26707439D01*
X19970713Y26709701D01*
X19970712Y26709701D01*
X19927757Y26699234D01*
X19921417Y26698029D01*
X19877626Y26692011D01*
X19877614Y26692008D01*
X19861307Y26684925D01*
X19840952Y26678081D01*
X19823693Y26673875D01*
X19823684Y26673872D01*
X19785151Y26652206D01*
X19779373Y26649336D01*
X19738819Y26631720D01*
X19725025Y26620498D01*
X19707272Y26608415D01*
X19691777Y26599703D01*
X19660519Y26568445D01*
X19655729Y26564123D01*
X19621432Y26536219D01*
X19621430Y26536217D01*
X19611178Y26521693D01*
X19597338Y26505263D01*
X19329878Y26237804D01*
X19267568Y26203780D01*
X19240785Y26200900D01*
X17233768Y26200900D01*
X17165647Y26220902D01*
X17144677Y26237801D01*
X17102262Y26280216D01*
X17102259Y26280218D01*
X17102258Y26280219D01*
X16949525Y26376188D01*
X16949522Y26376189D01*
X16836157Y26415857D01*
X16779255Y26435768D01*
X16600000Y26455965D01*
X16420745Y26435768D01*
X16420742Y26435768D01*
X16420742Y26435767D01*
X16250477Y26376189D01*
X16250474Y26376188D01*
X16097739Y26280218D01*
X16097737Y26280217D01*
X15970183Y26152663D01*
X15970182Y26152661D01*
X15874212Y25999926D01*
X15874211Y25999923D01*
X15866429Y25977682D01*
X15814632Y25829655D01*
X15794435Y25650400D01*
X15357500Y25650400D01*
X15357500Y28689969D01*
X15376813Y28757005D01*
X15409666Y28809291D01*
X15457789Y28885878D01*
X15517368Y29056145D01*
X15537565Y29235400D01*
X15517368Y29414655D01*
X15457789Y29584922D01*
X15457787Y29584925D01*
X15457787Y29584926D01*
X15376813Y29713796D01*
X15357500Y29780832D01*
X15357500Y31589946D01*
X15377502Y31658067D01*
X15431158Y31704560D01*
X15501432Y31714664D01*
X15525107Y31708878D01*
X15619545Y31675832D01*
X15798800Y31655635D01*
X15978055Y31675832D01*
X16148322Y31735411D01*
X16301062Y31831384D01*
X16428616Y31958938D01*
X16524589Y32111678D01*
X16584168Y32281945D01*
X16604365Y32461200D01*
X16584168Y32640455D01*
X16524589Y32810722D01*
X16524587Y32810725D01*
X16524587Y32810726D01*
X16443613Y32939596D01*
X16424300Y33006632D01*
X16424300Y40158920D01*
X16444302Y40227041D01*
X16461205Y40248015D01*
X19211874Y42998684D01*
X21978755Y45765566D01*
X22041065Y45799590D01*
X22111880Y45794525D01*
X22156943Y45765564D01*
X23490440Y44432067D01*
X23500324Y44419732D01*
X23500562Y44419928D01*
X23505614Y44413821D01*
X23556035Y44366472D01*
X23576923Y44345583D01*
X23576931Y44345576D01*
X23582371Y44341356D01*
X23586885Y44337501D01*
X23620818Y44305636D01*
X23638239Y44296059D01*
X23654752Y44285213D01*
X23670464Y44273025D01*
X23670467Y44273023D01*
X23713182Y44254539D01*
X23718515Y44251926D01*
X23759305Y44229502D01*
X23759307Y44229502D01*
X23759308Y44229501D01*
X23778554Y44224560D01*
X23797256Y44218157D01*
X23815504Y44210260D01*
X23843060Y44205896D01*
X23861487Y44202977D01*
X23867283Y44201778D01*
X23912381Y44190198D01*
X23932256Y44190198D01*
X23951965Y44188648D01*
X23971596Y44185538D01*
X24005797Y44188771D01*
X24017935Y44189918D01*
X24023868Y44190198D01*
X34202877Y44190198D01*
X34269913Y44170885D01*
X34398783Y44089911D01*
X34398784Y44089911D01*
X34398787Y44089909D01*
X34569054Y44030330D01*
X34748309Y44010133D01*
X34927564Y44030330D01*
X35097831Y44089909D01*
X35162847Y44130761D01*
X35226705Y44170885D01*
X35293741Y44190198D01*
X37511132Y44190198D01*
X37526841Y44188464D01*
X37526871Y44188771D01*
X37534763Y44188025D01*
X37534764Y44188026D01*
X37534765Y44188025D01*
X37603912Y44190198D01*
X37633448Y44190198D01*
X37640277Y44191062D01*
X37646186Y44191527D01*
X37692725Y44192989D01*
X37711809Y44198535D01*
X37731168Y44202544D01*
X37750890Y44205034D01*
X37794178Y44222174D01*
X37799778Y44224092D01*
X37844488Y44237080D01*
X37861596Y44247199D01*
X37879343Y44255893D01*
X37897830Y44263212D01*
X37935494Y44290578D01*
X37940442Y44293829D01*
X37980518Y44317528D01*
X37994573Y44331584D01*
X38009609Y44344425D01*
X38025685Y44356104D01*
X38055368Y44391987D01*
X38059335Y44396347D01*
X40809783Y47146794D01*
X40872093Y47180818D01*
X40884771Y47182905D01*
X40899044Y47184513D01*
X40899044Y47184514D01*
X40899052Y47184514D01*
X41069319Y47244093D01*
X41222059Y47340066D01*
X41349613Y47467620D01*
X41445586Y47620360D01*
X41505165Y47790627D01*
X41525362Y47969882D01*
X41505165Y48149137D01*
X41445586Y48319404D01*
X41445584Y48319407D01*
X41445584Y48319408D01*
X41349614Y48472143D01*
X41349613Y48472145D01*
X41222059Y48599699D01*
X41222057Y48599700D01*
X41069322Y48695670D01*
X41069319Y48695671D01*
X40899052Y48755250D01*
X40719797Y48775447D01*
X40540542Y48755250D01*
X40540539Y48755250D01*
X40540539Y48755249D01*
X40370274Y48695671D01*
X40370271Y48695670D01*
X40217536Y48599700D01*
X40217534Y48599699D01*
X40089980Y48472145D01*
X40089979Y48472143D01*
X39994009Y48319408D01*
X39994008Y48319405D01*
X39934429Y48149140D01*
X39934428Y48149133D01*
X39925584Y48070649D01*
X39898080Y48005197D01*
X39889472Y47995664D01*
X37371912Y45478103D01*
X37309600Y45444078D01*
X37282817Y45441198D01*
X35293741Y45441198D01*
X35226705Y45460511D01*
X35097834Y45541486D01*
X35097831Y45541487D01*
X35037656Y45562543D01*
X34927564Y45601066D01*
X34748309Y45621263D01*
X34569054Y45601066D01*
X34569051Y45601066D01*
X34569051Y45601065D01*
X34398786Y45541487D01*
X34398783Y45541486D01*
X34269913Y45460511D01*
X34202877Y45441198D01*
X24302680Y45441198D01*
X24234559Y45461200D01*
X24213585Y45478103D01*
X22748805Y46942884D01*
X22714779Y47005196D01*
X22711900Y47031979D01*
X22711900Y47614639D01*
X22713634Y47630345D01*
X22713326Y47630374D01*
X22714072Y47638267D01*
X22711900Y47707397D01*
X22711900Y47736946D01*
X22711900Y47736950D01*
X22711034Y47743799D01*
X22710571Y47749682D01*
X22709109Y47796227D01*
X22703563Y47815312D01*
X22699554Y47834678D01*
X22697065Y47854387D01*
X22697064Y47854389D01*
X22697064Y47854392D01*
X22679926Y47897678D01*
X22678003Y47903296D01*
X22665019Y47947988D01*
X22665018Y47947991D01*
X22654899Y47965102D01*
X22646203Y47982852D01*
X22638887Y48001329D01*
X22638886Y48001332D01*
X22611521Y48038997D01*
X22608265Y48043953D01*
X22584570Y48084020D01*
X22584568Y48084022D01*
X22584567Y48084024D01*
X22570519Y48098072D01*
X22557678Y48113106D01*
X22545995Y48129186D01*
X22545994Y48129187D01*
X22510122Y48158863D01*
X22505740Y48162850D01*
X21398000Y49270591D01*
X21388116Y49282929D01*
X21387877Y49282731D01*
X21382823Y49288841D01*
X21332404Y49336187D01*
X21311517Y49357075D01*
X21311509Y49357082D01*
X21306063Y49361308D01*
X21301554Y49365159D01*
X21267623Y49397022D01*
X21267621Y49397023D01*
X21250197Y49406602D01*
X21233673Y49417457D01*
X21217977Y49429632D01*
X21217976Y49429633D01*
X21195632Y49439303D01*
X21175246Y49448125D01*
X21169915Y49450737D01*
X21129134Y49473156D01*
X21129130Y49473158D01*
X21109886Y49478099D01*
X21091183Y49484502D01*
X21072936Y49492398D01*
X21072933Y49492399D01*
X21026963Y49499680D01*
X21021151Y49500884D01*
X20976060Y49512460D01*
X20976059Y49512460D01*
X20956184Y49512460D01*
X20936474Y49514011D01*
X20916844Y49517120D01*
X20916843Y49517120D01*
X20870505Y49512740D01*
X20864572Y49512460D01*
X17751538Y49512460D01*
X17684502Y49531773D01*
X17555631Y49612748D01*
X17555628Y49612749D01*
X17517430Y49626115D01*
X17385361Y49672328D01*
X17206106Y49692525D01*
X17026851Y49672328D01*
X17026848Y49672328D01*
X17026848Y49672327D01*
X16856583Y49612749D01*
X16856580Y49612748D01*
X16703845Y49516778D01*
X16703843Y49516777D01*
X16576289Y49389223D01*
X16576288Y49389221D01*
X16480318Y49236486D01*
X16480317Y49236483D01*
X16480317Y49236482D01*
X16420738Y49066215D01*
X16400541Y48886960D01*
X16420738Y48707705D01*
X16458531Y48599700D01*
X16480317Y48537438D01*
X16480318Y48537435D01*
X16576288Y48384700D01*
X16576289Y48384698D01*
X16703843Y48257144D01*
X16703845Y48257143D01*
X16856580Y48161173D01*
X16856581Y48161173D01*
X16856584Y48161171D01*
X17026851Y48101592D01*
X17206106Y48081395D01*
X17385361Y48101592D01*
X17555628Y48161171D01*
X17569124Y48169652D01*
X17684502Y48242147D01*
X17751538Y48261460D01*
X20585760Y48261460D01*
X20653881Y48241458D01*
X20674855Y48224555D01*
X21039628Y47859782D01*
X21073654Y47797470D01*
X21068589Y47726655D01*
X21026042Y47669819D01*
X20959522Y47645008D01*
X20936432Y47645479D01*
X20765386Y47664751D01*
X20586131Y47644554D01*
X20586128Y47644554D01*
X20586128Y47644553D01*
X20415863Y47584975D01*
X20415860Y47584974D01*
X20263125Y47489004D01*
X20263123Y47489003D01*
X20135569Y47361449D01*
X20135568Y47361447D01*
X20039598Y47208712D01*
X20039597Y47208709D01*
X19980018Y47038445D01*
X19980017Y47038439D01*
X19978016Y47020680D01*
X19950510Y46955228D01*
X19941904Y46945697D01*
X15373715Y42377508D01*
X15311403Y42343482D01*
X15298731Y42341396D01*
X15252352Y42336170D01*
X15252339Y42336167D01*
X15082077Y42276589D01*
X15082074Y42276588D01*
X14929339Y42180618D01*
X14929337Y42180617D01*
X14801783Y42053063D01*
X14801782Y42053061D01*
X14705812Y41900326D01*
X14705811Y41900323D01*
X14646233Y41730061D01*
X14646230Y41730048D01*
X14641004Y41683669D01*
X14613499Y41618217D01*
X14604892Y41608685D01*
X14348365Y41352158D01*
X14336031Y41342275D01*
X14336228Y41342037D01*
X14330124Y41336988D01*
X14307984Y41313412D01*
X14282773Y41286565D01*
X14272326Y41276118D01*
X14261877Y41265669D01*
X14257647Y41260217D01*
X14253800Y41255714D01*
X14221940Y41221786D01*
X14221935Y41221779D01*
X14212357Y41204357D01*
X14201508Y41187842D01*
X14189331Y41172144D01*
X14189327Y41172136D01*
X14170839Y41129416D01*
X14168228Y41124086D01*
X14145802Y41083291D01*
X14140860Y41064042D01*
X14134458Y41045343D01*
X14126561Y41027095D01*
X14119279Y40981121D01*
X14118075Y40975310D01*
X14106500Y40930219D01*
X14106500Y40910345D01*
X14104949Y40890635D01*
X14101840Y40871005D01*
X14101840Y40871004D01*
X14106220Y40824666D01*
X14106500Y40818733D01*
X14106500Y29780832D01*
X14087187Y29713796D01*
X14006212Y29584926D01*
X14006211Y29584923D01*
X13990053Y29538745D01*
X13946632Y29414655D01*
X13926435Y29235400D01*
X13946632Y29056145D01*
X13989850Y28932634D01*
X14006211Y28885878D01*
X14006212Y28885876D01*
X14087187Y28757005D01*
X14106500Y28689969D01*
X14106500Y23863750D01*
X14086498Y23795629D01*
X14032842Y23749136D01*
X14022115Y23744821D01*
X13846863Y23683498D01*
X13846860Y23683497D01*
X13694125Y23587527D01*
X13694123Y23587526D01*
X13566569Y23459972D01*
X13566568Y23459970D01*
X13470598Y23307235D01*
X13470597Y23307232D01*
X13435719Y23207555D01*
X13411018Y23136964D01*
X13390821Y22957709D01*
X13411018Y22778454D01*
X13458601Y22642471D01*
X13470597Y22608187D01*
X13470598Y22608184D01*
X13566568Y22455449D01*
X13570978Y22449919D01*
X13568157Y22447670D01*
X13595132Y22400266D01*
X13598500Y22371327D01*
X13598500Y21833082D01*
X13578498Y21764961D01*
X13561595Y21743987D01*
X11080901Y19263294D01*
X11018589Y19229268D01*
X10947773Y19234333D01*
X10924771Y19245701D01*
X10854922Y19289589D01*
X10684655Y19349168D01*
X10505400Y19369365D01*
X10326145Y19349168D01*
X10326142Y19349168D01*
X10326142Y19349167D01*
X10155877Y19289589D01*
X10155874Y19289588D01*
X10003139Y19193618D01*
X10003137Y19193617D01*
X9875583Y19066063D01*
X9875582Y19066061D01*
X9779612Y18913326D01*
X9736189Y18789230D01*
X9703395Y18743509D01*
X9714575Y18696732D01*
X9713947Y18689051D01*
X9699835Y18563800D01*
X9390650Y18563800D01*
X9421167Y18612367D01*
X9426386Y18620673D01*
X9426387Y18620675D01*
X9426389Y18620678D01*
X9469812Y18744775D01*
X9502603Y18790494D01*
X9491424Y18837270D01*
X9492048Y18844913D01*
X9506165Y18970200D01*
X9485968Y19149455D01*
X9426389Y19319722D01*
X9407888Y19349167D01*
X9396212Y19367751D01*
X9376900Y19434785D01*
X9376900Y43246122D01*
X9396902Y43314243D01*
X9413805Y43335217D01*
X10168499Y44089911D01*
X10993682Y44915095D01*
X11055992Y44949118D01*
X11068669Y44951206D01*
X11115045Y44956431D01*
X11115045Y44956432D01*
X11115053Y44956432D01*
X11285320Y45016011D01*
X11438060Y45111984D01*
X11565614Y45239538D01*
X11661587Y45392278D01*
X11721166Y45562545D01*
X11741363Y45741800D01*
X11721166Y45921055D01*
X11661587Y46091322D01*
X11661585Y46091325D01*
X11661585Y46091326D01*
X11565615Y46244061D01*
X11565614Y46244063D01*
X11438060Y46371617D01*
X11438058Y46371618D01*
X11285323Y46467588D01*
X11285320Y46467589D01*
X11163313Y46510281D01*
X11115053Y46527168D01*
X10935798Y46547365D01*
X10756543Y46527168D01*
X10756540Y46527168D01*
X10756540Y46527167D01*
X10586275Y46467589D01*
X10586272Y46467588D01*
X10433537Y46371618D01*
X10433535Y46371617D01*
X10305981Y46244063D01*
X10305980Y46244061D01*
X10210010Y46091326D01*
X10210009Y46091323D01*
X10150431Y45921061D01*
X10150428Y45921048D01*
X10145202Y45874669D01*
X10117697Y45809217D01*
X10109090Y45799685D01*
X8367765Y44058360D01*
X8355431Y44048477D01*
X8355628Y44048239D01*
X8349524Y44043190D01*
X8344277Y44037602D01*
X8302173Y43992767D01*
X8291726Y43982320D01*
X8281277Y43971871D01*
X8277047Y43966419D01*
X8273200Y43961916D01*
X8241340Y43927988D01*
X8241335Y43927981D01*
X8231757Y43910559D01*
X8220908Y43894044D01*
X8208731Y43878346D01*
X8208727Y43878338D01*
X8190239Y43835618D01*
X8187628Y43830288D01*
X8165202Y43789493D01*
X8160260Y43770244D01*
X8153858Y43751545D01*
X8145961Y43733297D01*
X8138679Y43687323D01*
X8137475Y43681512D01*
X8125900Y43636421D01*
X8125900Y43616547D01*
X8124349Y43596837D01*
X8121240Y43577207D01*
X8121240Y43577206D01*
X8125620Y43530868D01*
X8125900Y43524935D01*
X8125900Y19579769D01*
X8105898Y19511648D01*
X8088995Y19490674D01*
X8070783Y19472463D01*
X8070782Y19472461D01*
X7974812Y19319726D01*
X7974811Y19319723D01*
X7930061Y19191835D01*
X7915232Y19149455D01*
X7895035Y18970200D01*
X5834500Y18970200D01*
X5834500Y50006484D01*
X24237500Y50006484D01*
X24252353Y49912698D01*
X24309949Y49799658D01*
X24399657Y49709950D01*
X24433856Y49692525D01*
X24512696Y49652354D01*
X24606481Y49637500D01*
X26193518Y49637501D01*
X26287304Y49652354D01*
X26400342Y49709950D01*
X26490050Y49799658D01*
X26547646Y49912696D01*
X26547647Y49912709D01*
X26550163Y49920447D01*
X26590232Y49979055D01*
X26655627Y50006697D01*
X26725585Y49994595D01*
X26777894Y49946593D01*
X26789831Y49920459D01*
X26792352Y49912699D01*
X26849949Y49799658D01*
X26939657Y49709950D01*
X26973856Y49692525D01*
X27052696Y49652354D01*
X27146481Y49637500D01*
X28733518Y49637501D01*
X28827304Y49652354D01*
X28940342Y49709950D01*
X29030050Y49799658D01*
X29087646Y49912696D01*
X29087647Y49912709D01*
X29090163Y49920447D01*
X29130232Y49979055D01*
X29195627Y50006697D01*
X29265585Y49994595D01*
X29317894Y49946593D01*
X29329831Y49920459D01*
X29332352Y49912699D01*
X29389949Y49799658D01*
X29479657Y49709950D01*
X29513856Y49692525D01*
X29592696Y49652354D01*
X29686481Y49637500D01*
X31273518Y49637501D01*
X31367304Y49652354D01*
X31480342Y49709950D01*
X31570050Y49799658D01*
X31627646Y49912696D01*
X31627647Y49912709D01*
X31630163Y49920447D01*
X31670232Y49979055D01*
X31735627Y50006697D01*
X31805585Y49994595D01*
X31857894Y49946593D01*
X31869831Y49920459D01*
X31872352Y49912699D01*
X31929949Y49799658D01*
X32019657Y49709950D01*
X32053856Y49692525D01*
X32132696Y49652354D01*
X32226481Y49637500D01*
X33813518Y49637501D01*
X33907304Y49652354D01*
X34020342Y49709950D01*
X34110050Y49799658D01*
X34167646Y49912696D01*
X34167647Y49912709D01*
X34170163Y49920447D01*
X34210232Y49979055D01*
X34275627Y50006697D01*
X34345585Y49994595D01*
X34397894Y49946593D01*
X34409831Y49920459D01*
X34412352Y49912699D01*
X34469949Y49799658D01*
X34559657Y49709950D01*
X34593856Y49692525D01*
X34672696Y49652354D01*
X34766481Y49637500D01*
X36353518Y49637501D01*
X36447304Y49652354D01*
X36560342Y49709950D01*
X36650050Y49799658D01*
X36707646Y49912696D01*
X36707647Y49912709D01*
X36710163Y49920447D01*
X36750232Y49979055D01*
X36815627Y50006697D01*
X36885585Y49994595D01*
X36937894Y49946593D01*
X36949831Y49920459D01*
X36952352Y49912699D01*
X37009949Y49799658D01*
X37099657Y49709950D01*
X37133856Y49692525D01*
X37212696Y49652354D01*
X37306481Y49637500D01*
X38893518Y49637501D01*
X38987304Y49652354D01*
X39100342Y49709950D01*
X39190050Y49799658D01*
X39247646Y49912696D01*
X39247647Y49912709D01*
X39250163Y49920447D01*
X39290232Y49979055D01*
X39355627Y50006697D01*
X39425585Y49994595D01*
X39477894Y49946593D01*
X39489831Y49920459D01*
X39492352Y49912699D01*
X39549949Y49799658D01*
X39639657Y49709950D01*
X39673856Y49692525D01*
X39752696Y49652354D01*
X39846481Y49637500D01*
X41433518Y49637501D01*
X41527304Y49652354D01*
X41640342Y49709950D01*
X41730050Y49799658D01*
X41787646Y49912696D01*
X41787647Y49912709D01*
X41790163Y49920447D01*
X41830232Y49979055D01*
X41895627Y50006697D01*
X41965585Y49994595D01*
X42017894Y49946593D01*
X42029831Y49920459D01*
X42032352Y49912699D01*
X42089949Y49799658D01*
X42179657Y49709950D01*
X42213856Y49692525D01*
X42292696Y49652354D01*
X42386481Y49637500D01*
X43661500Y49637501D01*
X43729621Y49617499D01*
X43776114Y49563843D01*
X43787500Y49511501D01*
X43787500Y46510281D01*
X43767498Y46442160D01*
X43750595Y46421186D01*
X42489014Y45159605D01*
X42426702Y45125579D01*
X42399919Y45122700D01*
X40589632Y45122700D01*
X40522596Y45142013D01*
X40393725Y45222988D01*
X40393722Y45222989D01*
X40223455Y45282568D01*
X40044200Y45302765D01*
X39864945Y45282568D01*
X39864942Y45282568D01*
X39864942Y45282567D01*
X39694677Y45222989D01*
X39694674Y45222988D01*
X39541939Y45127018D01*
X39541937Y45127017D01*
X39414383Y44999463D01*
X39414382Y44999461D01*
X39318412Y44846726D01*
X39318411Y44846723D01*
X39299972Y44794027D01*
X39258832Y44676455D01*
X39238635Y44497200D01*
X39258832Y44317945D01*
X39299482Y44201773D01*
X39318411Y44147678D01*
X39318412Y44147675D01*
X39414382Y43994940D01*
X39414383Y43994938D01*
X39541937Y43867384D01*
X39541939Y43867383D01*
X39694674Y43771413D01*
X39694675Y43771413D01*
X39694678Y43771411D01*
X39864945Y43711832D01*
X40044200Y43691635D01*
X40223455Y43711832D01*
X40393722Y43771411D01*
X40407218Y43779892D01*
X40522596Y43852387D01*
X40589632Y43871700D01*
X42628234Y43871700D01*
X42643943Y43869966D01*
X42643973Y43870273D01*
X42651865Y43869527D01*
X42651866Y43869528D01*
X42651867Y43869527D01*
X42721014Y43871700D01*
X42750550Y43871700D01*
X42757379Y43872564D01*
X42763288Y43873029D01*
X42809827Y43874491D01*
X42828911Y43880037D01*
X42848270Y43884046D01*
X42867992Y43886536D01*
X42911280Y43903676D01*
X42916880Y43905594D01*
X42961590Y43918582D01*
X42978698Y43928701D01*
X42996445Y43937395D01*
X43014932Y43944714D01*
X43052596Y43972080D01*
X43057544Y43975331D01*
X43097620Y43999030D01*
X43111675Y44013086D01*
X43126711Y44025927D01*
X43142787Y44037606D01*
X43172470Y44073489D01*
X43176437Y44077849D01*
X44796631Y45698043D01*
X44808968Y45707924D01*
X44808770Y45708163D01*
X44814870Y45713211D01*
X44814877Y45713214D01*
X44862241Y45763652D01*
X44883120Y45784530D01*
X44887347Y45789981D01*
X44891182Y45794472D01*
X44923062Y45828418D01*
X44932637Y45845838D01*
X44943493Y45862361D01*
X44953040Y45874669D01*
X44955674Y45878064D01*
X44974170Y45920811D01*
X44976760Y45926099D01*
X44999197Y45966908D01*
X45004139Y45986159D01*
X45010538Y46004850D01*
X45018438Y46023105D01*
X45025721Y46069099D01*
X45026923Y46074895D01*
X45038499Y46119975D01*
X45038500Y46119982D01*
X45038500Y46139856D01*
X45040051Y46159566D01*
X45040321Y46161273D01*
X45043160Y46179196D01*
X45043160Y46179197D01*
X45038780Y46225537D01*
X45038500Y46231469D01*
X45038500Y49511501D01*
X45058502Y49579622D01*
X45112158Y49626115D01*
X45164500Y49637501D01*
X46513516Y49637501D01*
X46513518Y49637501D01*
X46607304Y49652354D01*
X46720342Y49709950D01*
X46810050Y49799658D01*
X46867646Y49912696D01*
X46882500Y50006481D01*
X46882500Y50006484D01*
X49637500Y50006484D01*
X49652353Y49912698D01*
X49709949Y49799658D01*
X49799657Y49709950D01*
X49833856Y49692525D01*
X49912696Y49652354D01*
X50006481Y49637500D01*
X51593518Y49637501D01*
X51687304Y49652354D01*
X51708897Y49663357D01*
X51778672Y49676461D01*
X51844457Y49649762D01*
X51885364Y49591735D01*
X51892100Y49551090D01*
X51892100Y42786759D01*
X51885030Y42745150D01*
X51868832Y42698855D01*
X51848635Y42519600D01*
X51868832Y42340345D01*
X51920115Y42193787D01*
X51928411Y42170078D01*
X51928412Y42170075D01*
X52024382Y42017340D01*
X52024383Y42017338D01*
X52151937Y41889784D01*
X52151939Y41889783D01*
X52304674Y41793813D01*
X52304675Y41793813D01*
X52304678Y41793811D01*
X52474945Y41734232D01*
X52654200Y41714035D01*
X52833455Y41734232D01*
X52912894Y41762030D01*
X52954509Y41769100D01*
X58576792Y41769100D01*
X58618406Y41762030D01*
X58635545Y41756032D01*
X58814800Y41735835D01*
X58994055Y41756032D01*
X59164322Y41815611D01*
X59317062Y41911584D01*
X59444616Y42039138D01*
X59540589Y42191878D01*
X59600168Y42362145D01*
X59620365Y42541400D01*
X59600168Y42720655D01*
X59540589Y42890922D01*
X59540587Y42890925D01*
X59540587Y42890926D01*
X59444617Y43043661D01*
X59444616Y43043663D01*
X59317062Y43171217D01*
X59317060Y43171218D01*
X59164325Y43267188D01*
X59164322Y43267189D01*
X59135795Y43277171D01*
X58994055Y43326768D01*
X58814800Y43346965D01*
X58635545Y43326768D01*
X58498961Y43278975D01*
X58493805Y43277171D01*
X58452190Y43270100D01*
X53519100Y43270100D01*
X53450979Y43290102D01*
X53404486Y43343758D01*
X53393100Y43396100D01*
X53393100Y49511501D01*
X53413102Y49579622D01*
X53466758Y49626115D01*
X53519100Y49637501D01*
X54133516Y49637501D01*
X54133518Y49637501D01*
X54227304Y49652354D01*
X54340342Y49709950D01*
X54430050Y49799658D01*
X54487646Y49912696D01*
X54487647Y49912709D01*
X54490163Y49920447D01*
X54530232Y49979055D01*
X54595627Y50006697D01*
X54665585Y49994595D01*
X54717894Y49946593D01*
X54729831Y49920459D01*
X54732352Y49912699D01*
X54789949Y49799658D01*
X54879657Y49709950D01*
X54913856Y49692525D01*
X54992696Y49652354D01*
X55086481Y49637500D01*
X55128499Y49637501D01*
X55196618Y49617500D01*
X55243113Y49563846D01*
X55254500Y49511501D01*
X55254500Y44868269D01*
X55235188Y44801235D01*
X55197071Y44740571D01*
X55168009Y44694319D01*
X55108433Y44524058D01*
X55108432Y44524055D01*
X55088235Y44344800D01*
X55108432Y44165545D01*
X55159327Y44020095D01*
X55168011Y43995278D01*
X55168012Y43995275D01*
X55263982Y43842540D01*
X55263983Y43842538D01*
X55391537Y43714984D01*
X55391539Y43714983D01*
X55544274Y43619013D01*
X55544275Y43619013D01*
X55544278Y43619011D01*
X55714545Y43559432D01*
X55893800Y43539235D01*
X56073055Y43559432D01*
X56243322Y43619011D01*
X56271030Y43636421D01*
X56372196Y43699987D01*
X56439232Y43719300D01*
X68500919Y43719300D01*
X68569040Y43699298D01*
X68590015Y43682395D01*
X68701793Y43570616D01*
X68735818Y43508304D01*
X68737904Y43495632D01*
X68743130Y43449253D01*
X68743133Y43449240D01*
X68802711Y43278978D01*
X68802712Y43278975D01*
X68898682Y43126240D01*
X68898683Y43126238D01*
X69026237Y42998684D01*
X69026239Y42998683D01*
X69178974Y42902713D01*
X69178975Y42902713D01*
X69178978Y42902711D01*
X69349245Y42843132D01*
X69392203Y42838292D01*
X69395629Y42837906D01*
X69461082Y42810403D01*
X69470617Y42801793D01*
X70457601Y41814809D01*
X70491627Y41752497D01*
X70494506Y41725714D01*
X70494506Y30263432D01*
X70475193Y30196396D01*
X70394218Y30067526D01*
X70394217Y30067523D01*
X70394217Y30067522D01*
X70334638Y29897255D01*
X70314441Y29718000D01*
X70334638Y29538745D01*
X70334639Y29538743D01*
X70394217Y29368478D01*
X70394218Y29368475D01*
X70490188Y29215740D01*
X70490189Y29215738D01*
X70617743Y29088184D01*
X70617745Y29088183D01*
X70770480Y28992213D01*
X70770481Y28992213D01*
X70770484Y28992211D01*
X70940751Y28932632D01*
X71120006Y28912435D01*
X71299261Y28932632D01*
X71469528Y28992211D01*
X71622268Y29088184D01*
X71749822Y29215738D01*
X71845795Y29368478D01*
X71905374Y29538745D01*
X71925571Y29718000D01*
X71905374Y29897255D01*
X71845795Y30067522D01*
X71845793Y30067525D01*
X71845793Y30067526D01*
X71764819Y30196396D01*
X71745506Y30263432D01*
X71745506Y39859231D01*
X72981118Y39859231D01*
X72981118Y34027807D01*
X75097265Y34027807D01*
X75097265Y39859231D01*
X72981118Y39859231D01*
X71745506Y39859231D01*
X71745506Y41954036D01*
X71747240Y41969746D01*
X71746932Y41969775D01*
X71747678Y41977663D01*
X71745506Y42046792D01*
X71745506Y42076340D01*
X71745506Y42076344D01*
X71744640Y42083193D01*
X71744177Y42089077D01*
X71742715Y42135622D01*
X71737169Y42154707D01*
X71733160Y42174065D01*
X71730670Y42193786D01*
X71713528Y42237080D01*
X71711608Y42242691D01*
X71709600Y42249600D01*
X71698623Y42287384D01*
X71688503Y42304495D01*
X71679810Y42322241D01*
X71672492Y42340726D01*
X71645121Y42378399D01*
X71641872Y42383346D01*
X71618176Y42423415D01*
X71618174Y42423418D01*
X71604123Y42437469D01*
X71591283Y42452502D01*
X71579601Y42468580D01*
X71579599Y42468582D01*
X71572404Y42474534D01*
X71543724Y42498260D01*
X71539351Y42502240D01*
X70355207Y43686384D01*
X70321181Y43748696D01*
X70319094Y43761372D01*
X70313868Y43807754D01*
X70305983Y43830288D01*
X70254289Y43978022D01*
X70254287Y43978025D01*
X70254287Y43978026D01*
X70158317Y44130761D01*
X70158316Y44130763D01*
X70030762Y44258317D01*
X70030760Y44258318D01*
X69878025Y44354288D01*
X69878022Y44354289D01*
X69707760Y44413867D01*
X69707747Y44413870D01*
X69661367Y44419096D01*
X69595915Y44446601D01*
X69586383Y44455208D01*
X69313160Y44728431D01*
X69303276Y44740769D01*
X69303037Y44740571D01*
X69297983Y44746681D01*
X69247564Y44794027D01*
X69226677Y44814915D01*
X69226669Y44814922D01*
X69221223Y44819148D01*
X69216714Y44822999D01*
X69182783Y44854862D01*
X69182781Y44854863D01*
X69165357Y44864442D01*
X69148833Y44875297D01*
X69133137Y44887472D01*
X69133136Y44887473D01*
X69110792Y44897143D01*
X69090406Y44905965D01*
X69085075Y44908577D01*
X69044294Y44930996D01*
X69044290Y44930998D01*
X69025046Y44935939D01*
X69006343Y44942342D01*
X68988096Y44950238D01*
X68988093Y44950239D01*
X68942123Y44957520D01*
X68936311Y44958724D01*
X68891220Y44970300D01*
X68891219Y44970300D01*
X68871344Y44970300D01*
X68851634Y44971851D01*
X68832004Y44974960D01*
X68832003Y44974960D01*
X68785665Y44970580D01*
X68779732Y44970300D01*
X56636500Y44970300D01*
X56568379Y44990302D01*
X56521886Y45043958D01*
X56510500Y45096300D01*
X56510500Y49511501D01*
X56530502Y49579622D01*
X56584158Y49626115D01*
X56636500Y49637501D01*
X56673516Y49637501D01*
X56673518Y49637501D01*
X56767304Y49652354D01*
X56880342Y49709950D01*
X56970050Y49799658D01*
X57027646Y49912696D01*
X57042500Y50006481D01*
X57042499Y51593518D01*
X57027646Y51687304D01*
X56998848Y51743823D01*
X56970050Y51800343D01*
X56880342Y51890051D01*
X56767304Y51947646D01*
X56759547Y51950166D01*
X56700941Y51990239D01*
X56673303Y52055635D01*
X56685408Y52125592D01*
X56733413Y52177899D01*
X56759547Y52189834D01*
X56767297Y52192354D01*
X56767304Y52192354D01*
X56880342Y52249950D01*
X56970050Y52339658D01*
X57027646Y52452696D01*
X57042500Y52546481D01*
X57042499Y54133518D01*
X57027646Y54227304D01*
X56998848Y54283823D01*
X56970050Y54340343D01*
X56880342Y54430051D01*
X56804502Y54468693D01*
X56767304Y54487646D01*
X56673519Y54502500D01*
X56673515Y54502500D01*
X55086483Y54502500D01*
X54992697Y54487647D01*
X54879657Y54430051D01*
X54789949Y54340343D01*
X54732352Y54227302D01*
X54729833Y54219546D01*
X54689760Y54160940D01*
X54624363Y54133303D01*
X54554406Y54145410D01*
X54502100Y54193416D01*
X54490167Y54219546D01*
X54487647Y54227302D01*
X54430050Y54340343D01*
X54340342Y54430051D01*
X54264502Y54468693D01*
X54227304Y54487646D01*
X54133519Y54502500D01*
X54133515Y54502500D01*
X52546483Y54502500D01*
X52452697Y54487647D01*
X52339657Y54430051D01*
X52249949Y54340343D01*
X52192352Y54227302D01*
X52189833Y54219546D01*
X52149760Y54160940D01*
X52084363Y54133303D01*
X52014406Y54145410D01*
X51962100Y54193416D01*
X51950167Y54219546D01*
X51947647Y54227302D01*
X51890050Y54340343D01*
X51800342Y54430051D01*
X51724502Y54468693D01*
X51687304Y54487646D01*
X51593519Y54502500D01*
X51593515Y54502500D01*
X50006483Y54502500D01*
X49912697Y54487647D01*
X49799657Y54430051D01*
X49709949Y54340343D01*
X49652355Y54227306D01*
X49652354Y54227304D01*
X49637500Y54133519D01*
X49637500Y54133516D01*
X49637500Y52546484D01*
X49652353Y52452698D01*
X49709949Y52339658D01*
X49799657Y52249950D01*
X49857253Y52220604D01*
X49912696Y52192354D01*
X49912700Y52192354D01*
X49920448Y52189836D01*
X49979055Y52149766D01*
X50006696Y52084371D01*
X49994593Y52014413D01*
X49946590Y51962105D01*
X49920460Y51950170D01*
X49912701Y51947649D01*
X49799657Y51890051D01*
X49709949Y51800343D01*
X49652355Y51687306D01*
X49652354Y51687304D01*
X49637500Y51593519D01*
X49637500Y51593516D01*
X49637500Y50006484D01*
X46882500Y50006484D01*
X46882499Y51593518D01*
X46867646Y51687304D01*
X46838848Y51743823D01*
X46810050Y51800343D01*
X46720342Y51890051D01*
X46607304Y51947646D01*
X46599547Y51950166D01*
X46540941Y51990239D01*
X46513303Y52055635D01*
X46525408Y52125592D01*
X46573413Y52177899D01*
X46599547Y52189834D01*
X46607297Y52192354D01*
X46607304Y52192354D01*
X46720342Y52249950D01*
X46810050Y52339658D01*
X46867646Y52452696D01*
X46882500Y52546481D01*
X46882499Y54133518D01*
X46867646Y54227304D01*
X46838848Y54283823D01*
X46810050Y54340343D01*
X46720342Y54430051D01*
X46644502Y54468693D01*
X46607304Y54487646D01*
X46513519Y54502500D01*
X46513515Y54502500D01*
X44926483Y54502500D01*
X44832697Y54487647D01*
X44719657Y54430051D01*
X44629949Y54340343D01*
X44572352Y54227302D01*
X44569833Y54219546D01*
X44529760Y54160940D01*
X44464363Y54133303D01*
X44394406Y54145410D01*
X44342100Y54193416D01*
X44330167Y54219546D01*
X44327647Y54227302D01*
X44270050Y54340343D01*
X44180342Y54430051D01*
X44104502Y54468693D01*
X44067304Y54487646D01*
X43973519Y54502500D01*
X43973515Y54502500D01*
X42386483Y54502500D01*
X42292697Y54487647D01*
X42179657Y54430051D01*
X42089949Y54340343D01*
X42032352Y54227302D01*
X42029833Y54219546D01*
X41989760Y54160940D01*
X41924363Y54133303D01*
X41854406Y54145410D01*
X41802100Y54193416D01*
X41790167Y54219546D01*
X41787647Y54227302D01*
X41730050Y54340343D01*
X41640342Y54430051D01*
X41564502Y54468693D01*
X41527304Y54487646D01*
X41433519Y54502500D01*
X41433515Y54502500D01*
X39846483Y54502500D01*
X39752697Y54487647D01*
X39639657Y54430051D01*
X39549949Y54340343D01*
X39492352Y54227302D01*
X39489833Y54219546D01*
X39449760Y54160940D01*
X39384363Y54133303D01*
X39314406Y54145410D01*
X39262100Y54193416D01*
X39250167Y54219546D01*
X39247647Y54227302D01*
X39190050Y54340343D01*
X39100342Y54430051D01*
X39024502Y54468693D01*
X38987304Y54487646D01*
X38893519Y54502500D01*
X38893515Y54502500D01*
X37306483Y54502500D01*
X37212697Y54487647D01*
X37099657Y54430051D01*
X37009949Y54340343D01*
X36952352Y54227302D01*
X36949833Y54219546D01*
X36909760Y54160940D01*
X36844363Y54133303D01*
X36774406Y54145410D01*
X36722100Y54193416D01*
X36710167Y54219546D01*
X36707647Y54227302D01*
X36650050Y54340343D01*
X36560342Y54430051D01*
X36484502Y54468693D01*
X36447304Y54487646D01*
X36353519Y54502500D01*
X36353515Y54502500D01*
X34766483Y54502500D01*
X34672697Y54487647D01*
X34559657Y54430051D01*
X34469949Y54340343D01*
X34412352Y54227302D01*
X34409833Y54219546D01*
X34369760Y54160940D01*
X34304363Y54133303D01*
X34234406Y54145410D01*
X34182100Y54193416D01*
X34170167Y54219546D01*
X34167647Y54227302D01*
X34110050Y54340343D01*
X34020342Y54430051D01*
X33944502Y54468693D01*
X33907304Y54487646D01*
X33813519Y54502500D01*
X33813515Y54502500D01*
X32226483Y54502500D01*
X32132697Y54487647D01*
X32019657Y54430051D01*
X31929949Y54340343D01*
X31872352Y54227302D01*
X31869833Y54219546D01*
X31829760Y54160940D01*
X31764363Y54133303D01*
X31694406Y54145410D01*
X31642100Y54193416D01*
X31630167Y54219546D01*
X31627647Y54227302D01*
X31570050Y54340343D01*
X31480342Y54430051D01*
X31404502Y54468693D01*
X31367304Y54487646D01*
X31273519Y54502500D01*
X31273515Y54502500D01*
X29686483Y54502500D01*
X29592697Y54487647D01*
X29479657Y54430051D01*
X29389949Y54340343D01*
X29332352Y54227302D01*
X29329833Y54219546D01*
X29289760Y54160940D01*
X29224363Y54133303D01*
X29154406Y54145410D01*
X29102100Y54193416D01*
X29090167Y54219546D01*
X29087647Y54227302D01*
X29030050Y54340343D01*
X28940342Y54430051D01*
X28864502Y54468693D01*
X28827304Y54487646D01*
X28733519Y54502500D01*
X28733515Y54502500D01*
X27146483Y54502500D01*
X27052697Y54487647D01*
X26939657Y54430051D01*
X26849949Y54340343D01*
X26792352Y54227302D01*
X26789833Y54219546D01*
X26749760Y54160940D01*
X26684363Y54133303D01*
X26614406Y54145410D01*
X26562100Y54193416D01*
X26550167Y54219546D01*
X26547647Y54227302D01*
X26490050Y54340343D01*
X26400342Y54430051D01*
X26324502Y54468693D01*
X26287304Y54487646D01*
X26193519Y54502500D01*
X26193515Y54502500D01*
X24606483Y54502500D01*
X24512697Y54487647D01*
X24399657Y54430051D01*
X24309949Y54340343D01*
X24252355Y54227306D01*
X24252354Y54227304D01*
X24237500Y54133519D01*
X24237500Y54133516D01*
X24237500Y52546484D01*
X24252353Y52452698D01*
X24309949Y52339658D01*
X24399657Y52249950D01*
X24457253Y52220604D01*
X24512696Y52192354D01*
X24512700Y52192354D01*
X24520448Y52189836D01*
X24579055Y52149766D01*
X24606696Y52084371D01*
X24594593Y52014413D01*
X24546590Y51962105D01*
X24520460Y51950170D01*
X24512701Y51947649D01*
X24399657Y51890051D01*
X24309949Y51800343D01*
X24252355Y51687306D01*
X24252354Y51687304D01*
X24237500Y51593519D01*
X24237500Y51593516D01*
X24237500Y50006484D01*
X5834500Y50006484D01*
X5834500Y54999500D01*
X5854502Y55067621D01*
X5908158Y55114114D01*
X5960500Y55125500D01*
X60419815Y55125500D01*
X60487936Y55105498D01*
G37*
%TD.AperFunction*%
%TD*%
M02*
